<svg xmlns="http://www.w3.org/2000/svg" xmlns:xlink="http://www.w3.org/1999/xlink" viewBox="0 0 4680 3120"><defs><style>.cls-1{fill:none;}.cls-2{fill:#ffbca9;}.cls-3,.cls-9{fill:#fff;}.cls-3{opacity:0;}.cls-4{fill:#ffe8c2;}.cls-5{fill:#649987;}.cls-6{fill:#afdbc9;}.cls-7{fill:#d68e8e;}.cls-8{fill:#aa5757;}.cls-10{clip-path:url(#clip-path);}.cls-11{fill:#e4ecf2;}.cls-12{fill:#e83640;}.cls-13{fill:#c99a85;}.cls-14{fill:#3e566b;}.cls-15{clip-path:url(#clip-path-2);}.cls-16{fill:#4f6b7f;}.cls-17{fill:#20323d;}.cls-18{fill:#f4c887;}.cls-19{opacity:0.51;}.cls-20{opacity:0.82;}.cls-21{fill:#ffe1a4;}.cls-22{opacity:0.57;}.cls-23{opacity:0.61;}.cls-24{fill:#993f3f;}.cls-25{clip-path:url(#clip-path-3);}.cls-26{fill:#873131;}.cls-27{fill:#dd2858;}.cls-28{fill:#724161;}.cls-29{clip-path:url(#clip-path-4);}.cls-30{fill:#a0628d;}.cls-31{fill:#ffb696;}.cls-32{clip-path:url(#clip-path-5);}.cls-33{fill:#ff8b74;}.cls-34{clip-path:url(#clip-path-6);}.cls-35{fill:#aa8383;}.cls-36{clip-path:url(#clip-path-7);}.cls-37{fill:#8c6262;}.cls-38{clip-path:url(#clip-path-8);}.cls-39{fill:#421d37;}.cls-40{fill:#efcbd6;}.cls-41{fill:#ea4b5b;}.cls-42{fill:#ce2535;}.cls-43{clip-path:url(#clip-path-9);}.cls-44{clip-path:url(#clip-path-10);}.cls-45{clip-path:url(#clip-path-11);}.cls-46{clip-path:url(#clip-path-12);}.cls-47{clip-path:url(#clip-path-13);}.cls-48{fill:#9d1107;}.cls-49{clip-path:url(#clip-path-14);}.cls-50{fill:#7c0d0a;}.cls-51{clip-path:url(#clip-path-15);}.cls-52{clip-path:url(#clip-path-16);}.cls-53{fill:#f97f76;}.cls-54{clip-path:url(#clip-path-17);}</style><clipPath id="clip-path"><path class="cls-1" d="M1188.78,656s215-51,326.47-71.13,669.13-147.16,669.13-147.16,115.07,346,121.26,514.49,73.58,395.4,112.88,558.68,161,643.05,161,643.05L1536.31,2349.33s-21.84-422.72-89.22-528.11-73-481.62-106.69-571.46S1188.78,656,1188.78,656Z"/></clipPath><clipPath id="clip-path-2"><path class="cls-1" d="M1906.13,552.07,1462.53,656l-24.71-104.53L1384.62,541c-22.8-4.47,153.71-57.73,153.71-57.73l-4.21-42.11L1727.85,392l18.25,8.43,8.42,40.71,66.82-13.79a56.33,56.33,0,0,1,40.49,6.94l17.52,10.58Z"/></clipPath><clipPath id="clip-path-3"><polygon class="cls-1" points="3141.32 1908.82 3161.4 1757.53 3386.41 1746.28 3442.83 1827.82 3442.83 2079.43 3174.1 2100.04 3141.32 1908.82"/></clipPath><clipPath id="clip-path-4"><path class="cls-1" d="M2198.71,2052.07,2321,1787a65.18,65.18,0,0,1,34.54-33h0a65.15,65.15,0,0,1,24.65-4.84h227.12l-78.56,336Z"/></clipPath><clipPath id="clip-path-5"><path class="cls-1" d="M2543.19,1854.64s-27,19.85-52.77,22.83-82.34-6-82.34-6l-24.8-5.16L2406.1,1934s44.64,16.86,94.24,12.89,90.28-21.82,90.28-21.82S2597,1844.71,2543.19,1854.64Z"/></clipPath><clipPath id="clip-path-6"><path class="cls-2" d="M2376.83,1935.5c2.45-.64,23.32,4.47,39.68-12.89s15.38-28.27,13.4-40.67-8.93-9.93-11.41,0-5.46,18.84-11.41,14.88-7.44-36.21-19.34-46.13-43.65-5.46-56.05,0-4,28.27-4.47,42.65S2340.85,1944.91,2376.83,1935.5Z"/></clipPath><clipPath id="clip-path-7"><path class="cls-1" d="M2745.93,1682.4s-22.26.63-71.43,28.41-145.72,126.36-145.72,126.36,21.16,8.56,42.33,44.27,15.54,66.08,15.54,66.08l74.52-28Z"/></clipPath><clipPath id="clip-path-8"><path class="cls-1" d="M2765.21,2054.38l122.32-265a65.22,65.22,0,0,1,34.54-33h0a65.26,65.26,0,0,1,24.65-4.84h145.13a65,65,0,0,1,63.32,79.84l-59.89,256.13Z"/></clipPath><clipPath id="clip-path-9"><rect class="cls-1" x="1518.27" y="2238.74" width="256.98" height="90.64" rx="12"/></clipPath><clipPath id="clip-path-10"><path class="cls-2" d="M2323.88,1830.05s-19.08-10.61-20.1,4.27,12.12,25.87,14.52,10.48-4.35-6.31,1.1-6.46S2327.06,1831.55,2323.88,1830.05Z"/></clipPath><clipPath id="clip-path-11"><path class="cls-1" d="M2390.78,1852.23s-3.44-32.16-16-24.18-17.68,28-3.86,20.83,6.3-6.24,9.65-1.92C2385,1849,2388,1851.26,2390.78,1852.23Z"/></clipPath><clipPath id="clip-path-12"><path class="cls-1" d="M2367.14,1831.67s-10.4-19.2-19.25-7.2-7.64,33.93,2.65,22.25,5.77-11.36,10.45-8.56S2369,1834.64,2367.14,1831.67Z"/></clipPath><clipPath id="clip-path-13"><path class="cls-1" d="M2341.38,1826.61s-19.08-10.61-20.1,4.27,11.48,29.31,13.89,13.92-.94-9.27,4.52-9.41S2344.55,1828.1,2341.38,1826.61Z"/></clipPath><clipPath id="clip-path-14"><path class="cls-1" d="M2742.2,1498.58s-32.42-38.43-14.41-75.66,50.45-18,50.45-18,49.24-42.35,60.05-5c52.84-15.42,87.67,2.55,99.68,105.84,37.23,31.23,4.8,84.07-36,86.47S2742.2,1498.58,2742.2,1498.58Z"/></clipPath><clipPath id="clip-path-15"><path class="cls-1" d="M2865.6,1665.69c4.73,1.33,41.13-8.53,83.35,66.78s51.52,178.9,54.18,222.72,0,59.76,0,59.76h-355.9V1918s51-216.41,96.95-237c51.58-23.17,51.61-15.3,51.61-15.3Z"/></clipPath><clipPath id="clip-path-16"><path class="cls-1" d="M2736.28,1595.15c.8,10.06,2.66,16.86,6.42,22.37,19.74,28.9,49.3,23.17,49.3,23.17s-6.46,20.59-13.19,30.17,6.16,45.31,31.54,47,78.41-50.33,78.41-50.33-9.65-55.31-4.36-65.31a7,7,0,0,0,.36-.9,30.63,30.63,0,0,0,19.74-4.11c13.84-8,20.09-24.21,13.95-36.16s-22.32-15.14-36.15-7.12l-.15.09c-1.15-15.55-1.15-31.27,3.48-41.39-18.6-8.76-20-28.14-20-28.14s-14.38-1.75-31.12-24.82c-25.35,22.26-67.67,22.2-83.27,19.27,0,0-18.55,71.86-15.15,114.58Z"/></clipPath><clipPath id="clip-path-17"><path class="cls-1" d="M2892.94,1928.21s68.54-11.41,110.19,86.74H2620.37s16.85-59.35,115.34-54.22C2825.5,1919.65,2892.94,1928.21,2892.94,1928.21Z"/></clipPath></defs><title>02</title><g id="_02" data-name="02"><rect id="_02-2" data-name="02" class="cls-3" width="4680" height="3120"/><path class="cls-4" d="M3181.75,763.41c-240.45-118.75-455-108.6-615.2-64.24-183.81,50.91-360.31-26.14-541.09-87.81-1131.65-386-1666.26,1488,43.46,1632.72C4058.77,2412.46,3695.23,1017,3181.75,763.41Z"/><ellipse class="cls-4" cx="2287.33" cy="2520.62" rx="1341.97" ry="239.38"/><path class="cls-5" d="M3826,1458.21c-7.76-2.82-16.28-2.91-24.46-1.82-38.05,5-87.86,81.13-87.86,81.13,17.47.27,37.26-.76,54.16-4.58,24.76-5.59,37.43-7.81,44.7-11.83,8.88-4.9,17.8-10.23,24.23-18.08s10-18.77,6.62-28.35C3840.65,1466.88,3833.72,1461,3826,1458.21Z"/><path class="cls-5" d="M3629.4,1413.54c-6.12-.93-12.4.41-18.13,2.77-25.15,10.37-38.74,39.52-37.76,66.71s39.35,78.08,39.35,78.08a260,260,0,0,1,21.79-57.71c8.2-15.74,18.23-31.26,20.15-48.9S3646.94,1416.23,3629.4,1413.54Z"/><path class="cls-6" d="M3751,1596.26c-26.17-14.11-57.2-15.48-86.91-14.65-23.76.66-49.31,3.23-67.24,18.82a126.63,126.63,0,0,0-9.82,26.84c-3,12.9,4.08,26.48,14.34,34.84s23.24,12.5,36,16.08q32,9,64.87,14.8c16,2.83,32.21,5.08,48.42,4.17,11.09-.63,22.87-3.13,30.58-11.12,4.35-4.52,7-10.44,8.5-16.53C3796.83,1640.63,3777.21,1610.38,3751,1596.26Z"/><path class="cls-6" d="M3460.42,1505.29c-7.19-3.26-15.94-1.85-22.64,2.36s-11.54,10.86-15,18c-13.25,27.38-7,60.19,3.93,88.59,4.2,11,9.37,22.09,18.49,29.49l.93-11.47c9.07-15.84,18.2-31.79,24.31-49s9.12-35.91,5.6-53.82C3474.13,1519.65,3469.5,1509.41,3460.42,1505.29Z"/><path class="cls-6" d="M3436.67,1715.1c-16.66-1.84-35.55,1.19-46,14.33l-23.45-2.47c-5.82,30.65,9.16,63.21,34,82.11s58,24.94,88.8,20.28c11.91-1.8,24.52-5.71,31.54-15.49,9.78-13.64,4.77-33-4-47.29A110.59,110.59,0,0,0,3436.67,1715.1Z"/><path class="cls-5" d="M3308.48,1562c-9.65-13.79-27-23.31-43.37-19.58-14.16,3.23-24.94,15.66-29.41,29.48s-3.51,28.82-.88,43.1c3.4,18.45,9.8,36.89,22.23,51s31.74,23,50.15,19.37l.58-21.82c14.78-12.47,16.59-34.43,15-53.7C3321.44,1593,3318.14,1575.77,3308.48,1562Z"/><path class="cls-6" d="M3172.39,1690.65c-10.8-2.24-21.38,5.15-28.13,13.88-20.67,26.71-17.84,65-7.11,97,7.75,23.11,21.32,55.75,35.68,75.44l19.17-24.68c25.08-43.08,25.44-99.47.9-142.86C3188.2,1701.08,3181.75,1692.6,3172.39,1690.65Z"/><path class="cls-5" d="M3330.1,1836.67c-7.52-5.32-16.55-8.12-25.59-9.92-15.36-3.06-31.58-3.42-46.44,1.54s-28.21,15.75-33.94,30.34l-31,12.81c-.08,12.21,12.24,20.5,23.53,25.15,32.11,13.22,70,15.82,101,.27,14.65-7.34,28.53-21.26,26.85-37.56C3343.54,1850.13,3337.63,1842,3330.1,1836.67Z"/><path class="cls-6" d="M3042.46,1841.5c-4.92-3.61-11-6.91-16.84-5.28-5.24,1.45-8.66,6.38-11.24,11.17a111.07,111.07,0,0,0-11.55,34.58c-3.36,20.34-1.17,42.52,10.87,59.25s35.51,26,54.35,17.65l7,5.68a101.42,101.42,0,0,0-32.58-123Z"/><path class="cls-6" d="M3242.06,1956.16c-52.31-6.84-107.49,16.27-139.32,58.34,0,0,6.94,19.83,20.33,25.69,40.34,17.66,88.25,4.21,125.17-19.79,8.37-5.44,16.6-11.61,21.88-20.08s7.07-19.73,2.22-28.45C3266.6,1961.55,3253.77,1957.69,3242.06,1956.16Z"/><path class="cls-5" d="M3721.71,1532c-71.18,11.63-139.43,36.75-203.23,70-64.44,33.64-124.43,75.3-181.2,120.56-58.27,46.46-114,96.48-164.11,151.76s-94.57,116.33-128.28,183.15c-33,65.52-56,136.53-63.48,209.69q-1.41,13.86-2.08,27.78c-.09,1.93,2.91,1.92,3,0,3.66-74.4,23.69-147.25,54.88-214.71s73.36-129.27,121.84-185.43c48.35-56,102.78-106.5,159.85-153.49,55.87-46,114.73-88.75,177.93-124.18,62.53-35.05,129.52-62.78,199.84-77.49q12.87-2.7,25.83-4.8C3724.4,1534.53,3723.6,1531.64,3721.71,1532Z"/><path class="cls-5" d="M3692.54,1609.81a438.2,438.2,0,0,0-184.75-1.06c-1.89.4-1.09,3.29.8,2.89a434.61,434.61,0,0,1,183.15,1.06C3693.62,1613.12,3694.42,1610.23,3692.54,1609.81Z"/><path class="cls-5" d="M3284.23,1623.87c16.69,34.46,33.85,70.73,32.21,110-.08,1.93,2.92,1.93,3,0,1.66-39.76-15.7-76.56-32.62-111.49C3286,1620.61,3283.39,1622.13,3284.23,1623.87Z"/><path class="cls-5" d="M3399,1733.51c-9.08-3.83-18.36-7.14-27.68-10.3-9-3-18.83-7.31-28-2.81-1.73.85-.21,3.44,1.52,2.59,9.29-4.56,21.28,1.57,30.27,4.68s18.06,6.45,26.82,10.35c16.91,7.52,32.82,17.23,45.34,31,1.3,1.44,3.41-.69,2.12-2.12C3435.61,1751.72,3417.77,1741.42,3399,1733.51Z"/><path class="cls-5" d="M3246.55,1870a108.29,108.29,0,0,0-80.09,13.7c-1.64,1-.13,3.61,1.52,2.59a105.17,105.17,0,0,1,77.77-13.4C3247.63,1873.3,3248.44,1870.41,3246.55,1870Z"/><path class="cls-5" d="M3158.78,2009.58a167.21,167.21,0,0,0-98,20.31c-1.69.94-.18,3.54,1.51,2.59a164.46,164.46,0,0,1,96.49-19.9C3160.7,2012.78,3160.68,2009.78,3158.78,2009.58Z"/><path class="cls-5" d="M3053.64,1898.92a174.38,174.38,0,0,1,23.14,101.48c-.15,1.92,2.85,1.91,3,0a177.26,177.26,0,0,0-23.55-103A1.5,1.5,0,0,0,3053.64,1898.92Z"/><path class="cls-5" d="M878.49,1650.56c-8.18-1.09-16.7-1-24.46,1.82s-14.68,8.67-17.39,16.47c-3.34,9.58.2,20.5,6.62,28.35s15.35,13.18,24.23,18.08c7.27,4,19.94,6.24,44.7,11.83,16.9,3.82,36.69,4.85,54.16,4.58C966.35,1731.69,916.54,1655.61,878.49,1650.56Z"/><path class="cls-5" d="M1068.73,1610.48c-5.73-2.36-12-3.7-18.13-2.77-17.54,2.69-27.31,23.3-25.4,41s12,33.16,20.15,48.9a259.48,259.48,0,0,1,21.78,57.71s38.38-50.89,39.36-78.08S1093.88,1620.85,1068.73,1610.48Z"/><path class="cls-6" d="M1083.11,1794.6c-17.93-15.59-43.48-18.16-67.24-18.82-29.71-.83-60.74.54-86.91,14.65s-45.79,44.38-38.72,73.26c1.48,6.08,4.15,12,8.5,16.52,7.71,8,19.49,10.5,30.58,11.12,16.21.91,32.43-1.34,48.42-4.17q32.78-5.78,64.87-14.8c12.74-3.58,25.73-7.71,36-16.08s17.3-21.94,14.34-34.84A126.63,126.63,0,0,0,1083.11,1794.6Z"/><path class="cls-6" d="M1242.22,1701.82c-6.7-4.21-15.45-5.62-22.64-2.36-9.08,4.12-13.71,14.36-15.63,24.13-3.52,17.91-.52,36.62,5.6,53.82s15.24,33.15,24.31,49l.93,11.47c9.12-7.4,14.29-18.53,18.49-29.49,10.9-28.4,17.18-61.21,3.93-88.59C1253.76,1712.68,1248.91,1706,1242.22,1701.82Z"/><path class="cls-6" d="M1289.29,1923.6c-10.41-13.14-29.3-16.17-46-14.33a110.58,110.58,0,0,0-80.94,51.47c-8.74,14.32-13.75,33.65-4,47.29,7,9.78,19.63,13.7,31.54,15.49,30.84,4.66,64-1.39,88.8-20.28s39.8-51.46,34-82.1Z"/><path class="cls-5" d="M1414.89,1736.58c-16.41-3.74-33.72,5.78-43.37,19.57s-13,31-14.33,47.8c-1.56,19.27.25,41.23,15,53.7l.58,21.83c18.41,3.62,37.73-5.33,50.15-19.38s18.83-32.5,22.23-50.95c2.63-14.28,3.6-29.29-.88-43.1S1429.05,1739.8,1414.89,1736.58Z"/><path class="cls-6" d="M1507.61,1884.82c-9.36,2-15.81,10.43-20.51,18.76-24.54,43.39-24.18,99.78.9,142.86l19.17,24.68c14.36-19.69,27.93-52.33,35.68-75.44,10.73-32,13.56-70.27-7.11-97C1529,1890,1518.41,1882.58,1507.61,1884.82Z"/><path class="cls-5" d="M1421.93,2022.46c-14.86-5-31.08-4.6-46.44-1.54-9,1.8-18.07,4.6-25.59,9.92s-13.44,13.46-14.38,22.63c-1.68,16.3,12.2,30.22,26.85,37.56,31.05,15.55,68.9,12.95,101-.27,11.3-4.65,23.62-12.94,23.54-25.15l-31-12.81C1450.14,2038.21,1436.79,2027.42,1421.93,2022.46Z"/><path class="cls-6" d="M1665.62,2041.56c-2.58-4.79-6-9.72-11.24-11.17-5.87-1.63-11.92,1.67-16.84,5.28a101.42,101.42,0,0,0-32.58,123l7-5.68c18.84,8.38,42.31-.91,54.35-17.65s14.23-38.91,10.87-59.25A111.07,111.07,0,0,0,1665.62,2041.56Z"/><path class="cls-6" d="M1437.94,2150.33c-11.71,1.53-24.54,5.39-30.28,15.71-4.85,8.72-3.05,20,2.22,28.45s13.51,14.64,21.88,20.08c36.92,24,84.83,37.45,125.17,19.79,13.39-5.86,20.33-25.69,20.33-25.69C1545.43,2166.6,1490.25,2143.49,1437.94,2150.33Z"/><path class="cls-5" d="M1525.36,2089.5c-48.72-56.85-103.75-108-161.46-155.59-56.27-46.38-115.54-89.5-179.21-125.2-62.5-35-129.48-62.82-199.74-77.62q-13.26-2.8-26.66-5c-1.88-.31-2.7,2.58-.79,2.89,70.93,11.59,138.92,36.57,202.5,69.76,64.22,33.51,124,75,180.59,120.08,57.59,45.92,112.73,95.31,162.35,149.81,50,54.86,94.19,115.2,128,181.38s57.28,138.08,64.73,212.15q1.35,13.44,2,26.92c.09,1.92,3.09,1.93,3,0-3.63-73.78-23.24-146-53.83-213C1615.89,2208.22,1573.8,2146,1525.36,2089.5Z"/><path class="cls-5" d="M1172.21,1802.92A438.2,438.2,0,0,0,987.46,1804c-1.88.42-1.08,3.31.8,2.89a434.61,434.61,0,0,1,183.15-1.06C1173.29,1806.21,1174.1,1803.32,1172.21,1802.92Z"/><path class="cls-5" d="M1393.18,1816.52c-16.92,34.93-34.28,71.73-32.62,111.49.08,1.93,3.08,1.94,3,0-1.64-39.24,15.52-75.51,32.21-110C1396.61,1816.31,1394,1814.78,1393.18,1816.52Z"/><path class="cls-5" d="M1336.67,1914.57c-8.94-4.39-18.47-.42-27.24,2.55-9.58,3.24-19.12,6.62-28.44,10.56-18.76,7.91-36.59,18.21-50.39,33.42-1.29,1.43.82,3.56,2.12,2.13,12.52-13.81,28.43-23.52,45.34-31,8.51-3.79,17.26-7,26.06-10.09,9.17-3.18,21.55-9.59,31-4.94C1336.88,1918,1338.4,1915.43,1336.67,1914.57Z"/><path class="cls-5" d="M1513.54,2077.87a108.34,108.34,0,0,0-80.09-13.7c-1.88.41-1.09,3.3.8,2.89a105.17,105.17,0,0,1,77.77,13.4C1513.67,2081.48,1515.18,2078.89,1513.54,2077.87Z"/><path class="cls-5" d="M1619.22,2224.06a167.21,167.21,0,0,0-98-20.31c-1.9.2-1.92,3.2,0,3a164.46,164.46,0,0,1,96.49,19.9A1.5,1.5,0,0,0,1619.22,2224.06Z"/><path class="cls-5" d="M1623.77,2091.57a177.26,177.26,0,0,0-23.55,103c.15,1.91,3.15,1.93,3,0a174.38,174.38,0,0,1,23.14-101.48A1.5,1.5,0,0,0,1623.77,2091.57Z"/><polygon class="cls-7" points="2159.85 360 1081.09 611.87 1434.84 2441.23 1481.17 2470.2 2633.89 2246.72 2231.34 360 2159.85 360"/><polygon class="cls-8" points="1081.09 611.87 1434.84 2441.23 1481.17 2470.2 1131.65 625.29 2231.34 360 2159.85 360 1081.09 611.87"/><path class="cls-8" d="M2291.13,979.58c-.38-168.57-103.45-518.37-103.45-518.37S1626,569,1513.88,585.22,1185.15,645,1185.15,645s100.47,507.74,131,598.69,23.21,467.14,86.92,574.79,71,530.88,71,530.88L2523.45,2190s-105.12-483.68-138.77-648.22S2291.51,1148.15,2291.13,979.58Z"/><path class="cls-9" d="M2305.64,952.15c-6.19-168.45-121.26-514.49-121.26-514.49s-557.61,127-669.13,147.16S1188.78,656,1188.78,656s117.92,504,151.62,593.81,39.3,466.07,106.69,571.46,89.22,528.11,89.22,528.11l1043.25-195.45s-121.73-479.77-161-643.05S2311.83,1120.61,2305.64,952.15Z"/><g class="cls-10"><path class="cls-11" d="M2627.45,1767.9C2594.24,1716,2552.9,1667,2498,1639c-116.5-59.56-256.52-11.22-387.31-15.12-137.57-4.11-268.72-68.81-371.12-160.78s-178.42-209.83-240.75-332.54c-49.92-98.28-91.94-200.74-148.48-295.37S1220.67,652.48,1124,599.46L1012.41,753.28a2541.24,2541.24,0,0,1,174,976.16c-2.61,126.54-14.66,253.86,3,379.2,9.39,66.51,28,133.58,68.36,187.24,82.13,109.1,231.86,138.11,368,149.26,271.66,22.24,545.68,5.63,815-36.49,85.25-13.33,176.36-32.5,235.13-95.68,66.93-71.94,73.1-181.87,55.84-278.61A735.55,735.55,0,0,0,2627.45,1767.9Z"/></g><path class="cls-12" d="M1668.58,798.35A29.31,29.31,0,0,1,1667,809a18.62,18.62,0,0,1-5,7.59,17.85,17.85,0,0,1-8.08,4,20.85,20.85,0,0,1-10.94-.16,16.56,16.56,0,0,1-8.17-5.77,27.24,27.24,0,0,1-4.85-11l-7.14-31.61a27.47,27.47,0,0,1-.34-12,16.51,16.51,0,0,1,4.89-8.77,20.76,20.76,0,0,1,9.81-4.84,17.22,17.22,0,0,1,8.92.24,19.16,19.16,0,0,1,7.81,4.73,29.76,29.76,0,0,1,6.13,8.86l22.5-5.08a60.25,60.25,0,0,0-12.58-19.77,39.27,39.27,0,0,0-17.21-10.39,40.75,40.75,0,0,0-20.47-.29q-13.15,3-21.35,10.15a34.61,34.61,0,0,0-11,17.91q-2.73,10.74.34,24.36l7.14,31.61q3.07,13.63,10.16,22.15a34.37,34.37,0,0,0,17.57,11.43l10.48,2.92,13.15-3a40.65,40.65,0,0,0,18.32-9,39.32,39.32,0,0,0,11-16.77,61.13,61.13,0,0,0,2.95-23.28Z"/><polygon class="cls-12" points="1716.02 786.81 1720.74 807.73 1729.42 805.77 1732.03 783.2 1716.02 786.81"/><polygon class="cls-12" points="1776.62 773.13 1759.58 776.98 1771.63 796.24 1781.34 794.05 1776.62 773.13"/><polygon class="cls-12" points="1732.03 783.2 1729.42 805.77 1771.63 796.24 1759.58 776.98 1732.03 783.2"/><polygon class="cls-12" points="1721.8 705.83 1703.75 830.96 1727.12 825.69 1729.42 805.77 1720.74 807.73 1716.02 786.81 1732.03 783.2 1736.93 740.79 1759.58 776.98 1776.62 773.13 1781.34 794.05 1771.63 796.24 1782.26 813.24 1805.63 807.96 1735.58 702.72 1721.8 705.83"/><polygon class="cls-12" points="1813.35 735.53 1826.42 732.58 1820.3 705.49 1807.23 708.44 1802.51 687.52 1815.58 684.57 1815.58 684.57 1793.87 689.47 1819.89 804.74 1841.6 799.84 1831.14 753.5 1818.07 756.45 1813.35 735.53"/><rect class="cls-12" x="1804.7" y="685.78" width="13.4" height="21.44" transform="translate(-108.91 415.98) rotate(-12.72)"/><path class="cls-12" d="M1863.89,738.52l4.89,5.27a30.33,30.33,0,0,0,6.83-4.83,29.56,29.56,0,0,0,8.48-14.61,44.5,44.5,0,0,0-8.17-36.21,29.75,29.75,0,0,0-13.9-9.56,33,33,0,0,0-17.68-.5l-28.76,6.49,4.72,20.92,27-6.1a10.83,10.83,0,0,1,6.31.32,11.12,11.12,0,0,1,5,3.87,17.52,17.52,0,0,1,3,6.82,18.51,18.51,0,0,1,.15,7.46,11.11,11.11,0,0,1-2.85,5.64,10.7,10.7,0,0,1-5.49,3l-27,6.1,4.72,20.92,13.17-3-2.81-3.11Z"/><path class="cls-12" d="M1859.9,747l-15.59,3.52L1880.74,791l26.3-5.94-38.26-41.28A36,36,0,0,1,1859.9,747Z"/><path class="cls-12" d="M1868.78,743.79l-4.89-5.27-22.39,8.89,2.81,3.11L1859.9,747A36,36,0,0,0,1868.78,743.79Z"/><rect class="cls-12" x="1815.54" y="733.79" width="13.4" height="21.44" transform="translate(-119.22 419.55) rotate(-12.72)"/><rect class="cls-12" x="1354.19" y="992.33" width="23.07" height="118.09" transform="translate(-198 326.56) rotate(-12.72)"/><polygon class="cls-12" points="1477.07 1058.46 1474.28 1054.97 1475.63 1060.95 1477.07 1058.46"/><polygon class="cls-12" points="1412.96 1009.82 1415.74 1013.26 1414.4 1007.33 1412.96 1009.82"/><polygon class="cls-12" points="1455.24 970.63 1474.28 1054.97 1477.07 1058.46 1475.63 1060.95 1474.28 1054.97 1414.28 979.88 1387.74 985.87 1413.73 1100.98 1434.49 1096.3 1415.74 1013.26 1412.96 1009.82 1414.4 1007.33 1415.74 1013.26 1475.29 1087.09 1501.98 1081.06 1476 965.95 1455.24 970.63"/><path class="cls-12" d="M1599.8,1023.43q-2.65-11.73-9.09-17.39a29.27,29.27,0,0,0-14.46-7.07,98.81,98.81,0,0,0-19.43-1.06c-.33,0-.65,0-1,0a7.69,7.69,0,0,0-1,0q-.33,0-.66,0a4.75,4.75,0,0,1-.66,0,113.86,113.86,0,0,1-12.44-.19,17.3,17.3,0,0,1-8-2.64,11,11,0,0,1-4.63-7.24l0-.08q-1.35-5.94,3.38-10.46t14.71-6.78A43.12,43.12,0,0,1,1561,970a59.85,59.85,0,0,1,15.52,4l5-20.46a72.77,72.77,0,0,0-13.19-3.85,70.89,70.89,0,0,0-13.57-1.26,59.92,59.92,0,0,0-13,1.42q-13.47,3-22,9.35a32.28,32.28,0,0,0-11.78,15.35q-3.19,9.06-.68,20.22l0,.08q2.85,12.6,9.7,18.25a29,29,0,0,0,15.08,6.68,110.12,110.12,0,0,0,20.2.22l1.8-.15a1.62,1.62,0,0,0,.45,0,1.31,1.31,0,0,1,.45,0,85.91,85.91,0,0,1,11.3-.14,15.86,15.86,0,0,1,7.7,2.43,10.24,10.24,0,0,1,4.26,6.7l0,.07a11.64,11.64,0,0,1-3.56,11.51q-5.05,4.92-15.67,7.32a56.26,56.26,0,0,1-18.57,1.07,49.83,49.83,0,0,1-17.28-5l-6,20.17a58.42,58.42,0,0,0,14.15,4.93,71.54,71.54,0,0,0,15.91,1.53l8.26-.12,8.24-1.86q13.86-3.14,22.8-9.48a33,33,0,0,0,12.31-15.35q3.38-9,.89-20Z"/><path class="cls-12" d="M1680.63,919.75l-21.7,4.9,16.72,74.07q2.24,9.91-1.88,16.58t-13.86,8.87q-9.66,2.19-16.2-2.08t-8.78-14.17l-16.73-74.08-21.7,4.9,16.59,73.52q3.06,13.54,10.15,22.07a34.32,34.32,0,0,0,17.65,11.42q10.56,2.89,23.87-.11t21.64-10.17a34.42,34.42,0,0,0,11.11-17.91q2.77-10.74-.28-24.29Z"/><rect class="cls-12" x="1724.47" y="958.98" width="13.4" height="21.44" transform="translate(-171.04 405.03) rotate(-12.72)"/><rect class="cls-12" x="1713.63" y="910.97" width="13.4" height="21.44" transform="translate(-160.74 401.48) rotate(-12.72)"/><polygon class="cls-12" points="1722.27 960.72 1735.34 957.77 1729.23 930.68 1716.15 933.63 1711.43 912.71 1702.8 914.66 1728.82 1029.93 1750.53 1025.03 1740.07 978.69 1726.99 981.64 1722.27 960.72"/><path class="cls-12" d="M1772.82,963.71l4.89,5.27a30,30,0,0,0,6.82-4.83,29.58,29.58,0,0,0,8.49-14.61,44.46,44.46,0,0,0-8.18-36.21,29.67,29.67,0,0,0-13.89-9.56,33,33,0,0,0-17.69-.5l-41.83,9.44h0l13.08-3,4.72,20.92,27-6.1a10.78,10.78,0,0,1,6.32.32,11,11,0,0,1,5,3.87,17.68,17.68,0,0,1,3,6.82,18.49,18.49,0,0,1,.14,7.46,11.06,11.06,0,0,1-2.84,5.64,10.7,10.7,0,0,1-5.49,3l-27,6.1,4.73,20.92,13.16-3-2.8-3.11Z"/><path class="cls-12" d="M1768.82,972.19l-15.59,3.52,36.44,40.49,26.3-5.94L1777.71,969A36,36,0,0,1,1768.82,972.19Z"/><path class="cls-12" d="M1777.71,969l-4.89-5.27-22.39,8.89,2.8,3.11,15.59-3.52A36,36,0,0,0,1777.71,969Z"/><polygon class="cls-12" points="1831.8 965.3 1836.52 986.22 1845.21 984.26 1847.81 961.69 1831.8 965.3"/><polygon class="cls-12" points="1837.58 884.32 1819.53 1009.45 1842.9 1004.18 1845.21 984.26 1836.52 986.22 1831.8 965.3 1847.81 961.69 1852.71 919.28 1875.36 955.47 1892.4 951.62 1897.12 972.54 1887.41 974.73 1898.04 991.73 1921.41 986.45 1851.36 881.21 1837.58 884.32"/><polygon class="cls-12" points="1892.4 951.62 1875.36 955.47 1887.41 974.73 1897.12 972.54 1892.4 951.62"/><polygon class="cls-12" points="1847.81 961.69 1845.21 984.26 1887.41 974.73 1875.36 955.47 1847.81 961.69"/><polygon class="cls-12" points="1998.99 940.63 1996.21 937.14 1997.56 943.12 1998.99 940.63"/><polygon class="cls-12" points="1977.17 852.8 1996.21 937.14 1998.99 940.63 1997.56 943.12 1996.21 937.14 1936.21 862.05 1909.67 868.04 1935.66 983.15 1956.41 978.47 1937.67 895.43 1934.89 891.99 1936.33 889.5 1937.67 895.43 1997.21 969.26 2023.91 963.23 1997.92 848.12 1977.17 852.8"/><polygon class="cls-12" points="1934.89 891.99 1937.67 895.43 1936.33 889.5 1934.89 891.99"/><path class="cls-12" d="M2098.64,905.89a29.31,29.31,0,0,1-1.58,10.69,18.6,18.6,0,0,1-5,7.59,18,18,0,0,1-8.08,4A20.89,20.89,0,0,1,2073,928a16.61,16.61,0,0,1-8.17-5.77,27.24,27.24,0,0,1-4.85-11l-7.14-31.61a27.62,27.62,0,0,1-.34-12,16.51,16.51,0,0,1,4.89-8.77,20.81,20.81,0,0,1,9.81-4.84,17.22,17.22,0,0,1,8.92.24,19.2,19.2,0,0,1,7.82,4.73,30.06,30.06,0,0,1,6.12,8.86l22.5-5.08A60.09,60.09,0,0,0,2100,843a39.22,39.22,0,0,0-17.21-10.39,40.75,40.75,0,0,0-20.47-.29q-13.14,3-21.35,10.15A34.52,34.52,0,0,0,2030,860.4q-2.74,10.74.33,24.36l7.14,31.61q3.07,13.64,10.16,22.15A34.37,34.37,0,0,0,2065.21,950l10.48,2.92,13.16-3a40.61,40.61,0,0,0,18.31-9,39.43,39.43,0,0,0,11-16.77,61.12,61.12,0,0,0,2.94-23.27Z"/><polygon class="cls-12" points="2148.5 836.11 2203.95 823.59 2199.23 802.67 2129.91 818.32 2129.91 818.32 2143.78 815.19 2148.5 836.11"/><rect class="cls-12" x="2142.83" y="864.03" width="14.21" height="21.44" transform="translate(-139.85 494.92) rotate(-12.72)"/><rect class="cls-12" x="2156.28" y="857.19" width="47.92" height="21.44" transform="translate(-137.6 501.42) rotate(-12.72)"/><polygon class="cls-12" points="2165.06 909.47 2159.23 883.64 2145.36 886.77 2140.64 865.86 2154.51 862.73 2148.5 836.11 2134.63 839.24 2129.91 818.32 2122.07 820.09 2148.07 935.28 2155.92 933.51 2151.2 912.6 2165.06 909.47"/><polygon class="cls-12" points="2165.06 909.47 2169.78 930.38 2155.92 933.51 2155.92 933.51 2225.24 917.86 2220.52 896.95 2165.06 909.47"/><rect class="cls-12" x="2132.1" y="816.49" width="14.21" height="21.44" transform="translate(-129.65 491.39) rotate(-12.72)"/><rect class="cls-12" x="2153.38" y="910.77" width="14.21" height="21.44" transform="translate(-149.9 498.43) rotate(-12.72)"/><path class="cls-13" d="M2238.34,1016.48l-837.79,189.14a2,2,0,0,0,.44,4,2.28,2.28,0,0,0,.44,0l837.79-189.14a2,2,0,0,0-.88-3.9Z"/><path class="cls-13" d="M1882.49,1189.85l-462,104.29a2,2,0,0,0,.44,3.95,1.73,1.73,0,0,0,.45,0l461.95-104.29a2,2,0,0,0-.88-3.9Z"/><path class="cls-13" d="M2258.33,1105l-342.14,77.24a2,2,0,0,0,.44,4,2.28,2.28,0,0,0,.44,0l342.14-77.24a2,2,0,0,0-.88-3.91Z"/><path class="cls-13" d="M2278.31,1193.53l-837.79,189.14a2,2,0,0,0,.44,3.95,2.28,2.28,0,0,0,.44,0l837.79-189.14a2,2,0,0,0-.88-3.9Z"/><path class="cls-13" d="M2298.3,1282.05l-552,124.61a2,2,0,0,0,.44,3.95,1.73,1.73,0,0,0,.45,0L2299.18,1286a2,2,0,0,0-.88-3.91Z"/><path class="cls-13" d="M1689.22,1419.56l-222.62,50.25a2,2,0,0,0,.43,4,2.3,2.3,0,0,0,.45,0l222.62-50.26a2,2,0,1,0-.88-3.9Z"/><path class="cls-13" d="M1482.48,1582.27l25.3,112.06,112.06-25.3L1594.54,1557Zm28.32,107.27-23.54-104.25,104.26-23.54L1615.05,1666Z"/><polygon class="cls-14" points="1552.51 1624.24 1550.75 1622.56 1549.49 1624.63 1552.51 1624.24"/><path class="cls-14" d="M1583.68,1569.37c-5.74,9.18-11.54,18.33-17.2,27.56l-8.54,13.82-7.19,11.81,1.76,1.68-3,.39,1.26-2.07-7.35-7-9.16-8.63c-6.09-5.78-12.24-11.48-18.38-17.2s-12.33-11.39-18.54-17-12.44-11.27-18.75-16.81q8.68,9.12,17.54,18.07t17.76,17.85c6,5.92,11.9,11.84,17.91,17.7l9,8.81,9,8.75,1.74,1.69,1.28-2.07,8.53-13.83,8.44-13.88c5.66-9.23,11.17-18.55,16.75-27.84s11-18.64,16.46-28,10.83-18.77,16.07-28.26c-6.08,9-12,18.05-17.89,27.14S1589.48,1560.23,1583.68,1569.37Z"/><path class="cls-13" d="M1527.69,1782.53l25.3,112.06,112.06-25.3-25.3-112.06ZM1556,1889.81l-23.54-104.26L1636.73,1762l23.53,104.26Z"/><polygon class="cls-14" points="1597.72 1824.5 1595.96 1822.83 1594.7 1824.89 1597.72 1824.5"/><path class="cls-14" d="M1628.89,1769.63c-5.74,9.19-11.54,18.33-17.2,27.57l-8.54,13.82-7.19,11.81,1.76,1.67-3,.39,1.26-2.06-7.35-7-9.16-8.63c-6.09-5.77-12.24-11.48-18.38-17.2s-12.33-11.39-18.54-17-12.44-11.27-18.75-16.82q8.68,9.12,17.54,18.07t17.76,17.86c6,5.91,11.9,11.83,17.91,17.69l9,8.81,9,8.76,1.74,1.68,1.28-2.07,8.53-13.83,8.44-13.87c5.66-9.24,11.17-18.56,16.75-27.84s11-18.65,16.46-28,10.83-18.77,16.07-28.26c-6.08,9-12,18.05-17.89,27.14S1634.69,1760.49,1628.89,1769.63Z"/><path class="cls-13" d="M1572.9,1982.79l25.3,112.06,112.06-25.3L1685,1957.49Zm28.32,107.28-23.54-104.26,104.26-23.53,23.53,104.25Z"/><polygon class="cls-14" points="1642.93 2024.77 1641.17 2023.09 1639.91 2025.15 1642.93 2024.77"/><path class="cls-14" d="M1674.1,1969.9c-5.74,9.18-11.54,18.33-17.2,27.56l-8.53,13.82-7.2,11.81,1.76,1.68-3,.38,1.26-2.06-7.35-7-9.15-8.64c-6.09-5.77-12.25-11.48-18.39-17.19s-12.33-11.39-18.54-17-12.44-11.27-18.75-16.82q8.68,9.13,17.54,18.08t17.76,17.85c6,5.91,11.9,11.83,17.91,17.69l9,8.81,9,8.76,1.73,1.68,1.28-2.07,8.53-13.82,8.44-13.88c5.66-9.23,11.18-18.56,16.75-27.84s11-18.64,16.46-28,10.83-18.76,16.07-28.25c-6.08,9-12,18-17.89,27.14S1679.9,1960.75,1674.1,1969.9Z"/><path class="cls-13" d="M2333.41,1399.27l-642.79,145.11a2,2,0,0,0,.44,3.95,2.3,2.3,0,0,0,.45,0l642.78-145.11a2,2,0,1,0-.88-3.9Z"/><path class="cls-13" d="M1924,1574l-215.66,48.69a2,2,0,0,0,.44,4,2.2,2.2,0,0,0,.44-.05l215.66-48.69a2,2,0,0,0-.88-3.9Z"/><path class="cls-13" d="M2351.08,1477.56,1950.41,1568a2,2,0,0,0,.44,4,2.28,2.28,0,0,0,.44,0L2352,1481.47a2,2,0,0,0-.88-3.91Z"/><path class="cls-13" d="M2378.62,1599.53l-642.78,145.11a2,2,0,0,0,.43,3.95,1.73,1.73,0,0,0,.45,0l642.78-145.11a2,2,0,1,0-.88-3.9Z"/><path class="cls-13" d="M2396.29,1677.83l-642.78,145.11a2,2,0,0,0,.44,4,2.2,2.2,0,0,0,.44-.05l642.78-145.11a2,2,0,0,0-.88-3.9Z"/><path class="cls-13" d="M2161.26,1859.07l-380.21,85.83a2,2,0,0,0,.43,4,2.3,2.3,0,0,0,.45,0L2162.14,1863a2,2,0,0,0-.88-3.9Z"/><path class="cls-13" d="M2434.84,1797.31,2192,1852.14a2,2,0,0,0,.44,3.95,1.7,1.7,0,0,0,.44,0l242.89-54.83a2,2,0,0,0-.88-3.9Z"/><path class="cls-13" d="M2441.5,1878.09,1798.72,2023.2a2,2,0,0,0,.44,4,1.65,1.65,0,0,0,.44-.05L2442.38,1882a2,2,0,0,0-.88-3.9Z"/><path class="cls-14" d="M1861.83,434.32a56.33,56.33,0,0,0-40.49-6.94l-66.82,13.79-8.42-40.71L1727.85,392l-193.73,49.14,4.21,42.11S1361.82,536.54,1384.62,541l53.2,10.41L1462.53,656l443.6-103.88L1879.35,444.9Z"/><g class="cls-15"><polygon class="cls-16" points="1437.82 551.42 1368.47 573.13 1449.89 778.08 1963.69 601.2 1929.99 435.55 1437.82 551.42"/></g><polygon class="cls-17" points="1534.12 441.17 1538.33 483.28 1551.89 481.4 1551.89 453.32 1746.1 400.46 1727.85 392.04 1534.12 441.17"/><path class="cls-18" d="M3434,799.31c-.07-28.11-1-54.27-2.09-77.74-1.66-35.26-3.63-64.52-3.63-85.49-80.65,26.89-160.06,19.19-228.66-1.67-38.65-11.74-73.86-27.65-103.94-43.92-17.88-9.68-33.95-19.46-47.84-28.58a576.84,576.84,0,0,1-54.27-40c-.07-.08-.17-.13-.24-.21,0-1.93-3.44-1.93-3.44,0-28.25,23.91-227.54,183.5-434.95,114.36,0,90.08-36.53,332.59,74.71,546.4a580.45,580.45,0,0,0,40,65.93,561.38,561.38,0,0,0,37.31,47.72,593.48,593.48,0,0,0,84.35,79.52c53.66,41.68,118.95,78.4,198.28,107.84,0,1.07,4.12,1.07,4.12,0q12-4.42,23.5-9.1,31.39-12.65,59.72-26.86C3394.06,1289,3434.68,995.88,3434,799.34Z"/><g class="cls-19"><g class="cls-20"><path class="cls-9" d="M2706.94,1296.13a593.48,593.48,0,0,0,84.35,79.52l408.35-741.24c-38.65-11.74-73.86-27.65-103.94-43.92Z"/></g><g class="cls-20"><path class="cls-9" d="M2629.67,1182.48a580.45,580.45,0,0,0,40,65.93l378.23-686.5a576.84,576.84,0,0,1-54.27-40Z"/></g><g class="cls-20"><path class="cls-9" d="M3017.19,1474.39q31.39-12.65,59.72-26.86L3434,799.34v0l-2.09-77.74Z"/></g></g><path class="cls-21" d="M3107.8,656c-11.56-5.43-22.49-11-32.69-16.54-20.85-11.37-38.64-22.58-52.44-32-14.77-10.06-25-18-29.54-21.9,0-1.67-3-1.67-3,0-12.24,10.35-65.34,50.23-137.88,80S2688,714.92,2598.08,685c0,67.31-19,232.69,40.28,395.71,16.69,45.95,39.62,91.7,70.91,135a515.49,515.49,0,0,0,42.42,51.4q12.93,13.82,27.28,27c53.54,49.34,122.41,92.63,210.87,125.44,0,.92,3.58.92,3.58,0,454.06-168.45,392.49-610.81,392.49-732.81C3286,720,3183.43,691.52,3107.8,656Z"/><circle class="cls-9" cx="2981.96" cy="1020.64" r="154.68"/><polygon class="cls-12" points="2987.16 1020.73 2865.59 858.18 2805.04 913.44 2986.78 1090.82 3251.37 817.35 3179.17 786.34 2987.16 1020.73"/><g class="cls-22"><g class="cls-23"><path class="cls-9" d="M2990.13,588.4c-12.24,10.35-65.34,50.22-137.88,80l-213.89,415.09c16.69,46,39.62,91.7,70.91,135l313.4-608.18c-14.77-10.06-25-18-29.54-21.9C2993.13,586.73,2990.13,586.73,2990.13,588.4Z"/></g><g class="cls-23"><path class="cls-9" d="M2751.69,1269.89l27.28,27L3107.8,658.84c-11.56-5.43-22.49-11-32.69-16.54Z"/></g></g><polygon class="cls-24" points="3161.4 1757.53 3141.32 1908.82 3174.1 2100.04 3442.83 2079.43 3442.83 1827.82 3386.41 1746.28 3161.4 1757.53"/><g class="cls-25"><polygon class="cls-26" points="3344.09 2142.58 3446.43 2184.64 3535.74 1861.02 3401.13 1642.88 3344.09 2142.58"/></g><polygon class="cls-26" points="3049.06 1841.32 3029.67 2079.43 3280.82 2059.36 3216.22 1852.57 3049.06 1841.32"/><rect class="cls-27" x="2450.74" y="1601.53" width="55.55" height="424.12"/><path class="cls-28" d="M2355.57,1754a65.18,65.18,0,0,0-34.54,33l-122.32,265,330.07,33.07,78.56-336H2380.22A65.11,65.11,0,0,0,2355.57,1754Z"/><g class="cls-29"><rect class="cls-30" x="2290.01" y="1784.61" width="328.53" height="4"/><rect class="cls-30" x="2281.79" y="1833.89" width="328.53" height="4"/><rect class="cls-30" x="2203.72" y="1883.17" width="398.39" height="4"/><rect class="cls-30" x="2193.76" y="1932.45" width="398.39" height="4"/><rect class="cls-30" x="2183.81" y="1981.73" width="398.39" height="4"/><rect class="cls-30" x="2173.85" y="2031.01" width="398.39" height="4"/></g><path class="cls-31" d="M2543.19,1854.64s-27,19.85-52.77,22.83-82.34-6-82.34-6l-24.8-5.16L2406.1,1934s44.64,16.86,94.24,12.89,90.28-21.82,90.28-21.82S2597,1844.71,2543.19,1854.64Z"/><g class="cls-32"><path class="cls-33" d="M2589.27,1849.23a82.25,82.25,0,0,0-22.85-19.11,67.71,67.71,0,0,0-61.8-1c-11,5.56-20.28,14.06-30.74,20.63-30.53,19.2-71.62,20.21-103.06,2.54l7.17,8c10.91,13.77,28.55,20.61,45.93,23.15s35.06,1.39,52.6,2.36a217.45,217.45,0,0,1,41.68,6.41c10,2.55,20.14,6,27.55,13.17,7.65,7.38,11.53,18,12.69,28.55.5,4.57.58,9.35,2.69,13.43,3.81,7.35,13.55,10.19,21.5,7.92s14.2-8.56,18.61-15.56c8.7-13.78,11.48-30.9,8.89-47S2599.83,1861.64,2589.27,1849.23Z"/></g><path class="cls-31" d="M2418.5,1881.94c-2.48,9.92-5.46,18.84-11.41,14.88s-7.44-36.21-19.34-46.13-43.65-5.46-56.05,0-4,28.27-4.47,42.65,13.62,51.57,49.6,42.16c2.45-.63,23.32,4.47,39.68-12.89s15.38-28.27,13.4-40.67S2421,1872,2418.5,1881.94Z"/><path class="cls-2" d="M2376.83,1935.5c2.45-.64,23.32,4.47,39.68-12.89s15.38-28.27,13.4-40.67-8.93-9.93-11.41,0-5.46,18.84-11.41,14.88-7.44-36.21-19.34-46.13-43.65-5.46-56.05,0-4,28.27-4.47,42.65S2340.85,1944.91,2376.83,1935.5Z"/><g class="cls-34"><path class="cls-33" d="M2420,1849.54c-7-3.82-15.14-4.8-22.66-7.41-14.18-4.93-26-15.6-40.55-19.32a46,46,0,0,0-40.76,9.63c-2.63,2.28-5.11,5.1-5.56,8.54s2,7.42,5.5,7.36l-.09,8.46c-1.31,3.91.39,8.34,3.27,11.29s6.76,4.68,10.62,6.15c18.63,7.07,39,9.45,56.77,18.45,11.61,5.88,21.79,14.43,33.76,19.54,2.38,1,5.11,1.9,7.5.92s3.6-3.29,4.63-5.52c4.59-9.9,7-21.06,5.17-31.82S2429.57,1854.78,2420,1849.54Z"/></g><path class="cls-35" d="M2528.78,1837.17s21.16,8.56,42.33,44.27,15.54,66.08,15.54,66.08l74.52-28,84.76-237.07s-22.26.63-71.43,28.41S2528.78,1837.17,2528.78,1837.17Z"/><g class="cls-36"><path class="cls-37" d="M2703.2,1709.23c-14.52,20-22.56,43.9-32.06,66.75s-21.29,45.83-40.89,60.93c-8,6.15-17.38,10.91-27.43,11.67-8.67.66-17.25-1.66-25.63-4l-76.75-21c-3.74,13,8.91,24.19,18.8,33.42a126.41,126.41,0,0,1,39.1,78.69c1.41,13.7.84,28.52,8.58,39.91,12.35,18.14,39.69,18.27,59.94,9.8,26-10.87,46.61-32,61.65-55.86s25-50.39,34.95-76.76q16.92-45,33.83-90c6.78-18,13.6-36.25,16.27-55.32l-8.34-33.26C2740.49,1673.13,2717.72,1689.19,2703.2,1709.23Z"/></g><path d="M2315.61,1831.84a148.59,148.59,0,1,0,148.58,148.58A148.58,148.58,0,0,0,2315.61,1831.84Zm0,265.48a116.9,116.9,0,1,1,116.89-116.9A116.9,116.9,0,0,1,2315.61,2097.32Z"/><path class="cls-28" d="M3091.85,1751.48H2946.72a65.19,65.19,0,0,0-59.19,37.87l-122.32,265,330.07,33.07,59.89-256.13A65,65,0,0,0,3091.85,1751.48Z"/><g class="cls-38"><rect class="cls-30" x="2857.9" y="1795.17" width="383.68" height="4"/><rect class="cls-30" x="2820.35" y="1847.97" width="383.68" height="4"/><rect class="cls-30" x="2782.81" y="1900.77" width="383.68" height="4"/><rect class="cls-30" x="2745.26" y="1953.57" width="383.68" height="4"/><rect class="cls-30" x="2707.71" y="2006.37" width="429.44" height="4"/></g><circle class="cls-39" cx="2691.84" cy="2445.95" r="130.21" transform="translate(-941.12 2619.82) rotate(-45)"/><circle class="cls-28" cx="2724.28" cy="2445.95" r="130.21"/><circle class="cls-9" cx="2731.66" cy="2445.95" r="77.44" transform="translate(-536.28 783.07) rotate(-14.87)"/><circle class="cls-39" cx="1627.46" cy="2446.26" r="130.21"/><circle class="cls-28" cx="1659.9" cy="2446.26" r="130.21"/><circle class="cls-9" cx="1667.28" cy="2446.26" r="77.44" transform="translate(-809.23 824.25) rotate(-22.5)"/><path class="cls-12" d="M3434.61,1601.05a89.4,89.4,0,0,0-68.21-31.6H2649l-274.05,466.11L1911.3,2131.9l42.33,330.23h127.22a166.66,166.66,0,1,1,326.22,0h737.4A166.64,166.64,0,1,1,3476.53,2442a169.52,169.52,0,0,1-1.25,20.15h106.06a9.4,9.4,0,0,0,9.29-7.91l27.15-168.37a105.19,105.19,0,0,0,1.34-16.71V2095.06A105,105,0,0,0,3612,2057Zm-414.88,414.67h-547.6L2706.25,1623h313.48Zm77.57.22V1623h277.54a26.85,26.85,0,0,1,13.59,3.71,28.42,28.42,0,0,1,12.7,16.21l115,373.06Z"/><rect class="cls-40" x="3599.08" y="2097.07" width="49.6" height="128.96" rx="7.21"/><rect class="cls-40" x="1437.75" y="2430.39" width="2115.9" height="67.55" rx="9.81"/><rect class="cls-41" x="1346.83" y="2398.64" width="704.68" height="63.49" rx="9.22"/><path class="cls-42" d="M1780,2027.74,1372.8,2152.38a36.55,36.55,0,0,0-16.17,10.16,35.91,35.91,0,0,0-4.8,6.45,36.91,36.91,0,0,0-4.53,24.44l2.19,13.32,0,.15L1374.07,2357l6.82,41.66h587.29L1963,2357l-18.55-149.88,0-.35-.94-7.48a36.7,36.7,0,0,1,2.07-17.4l2.28-6.1a36.85,36.85,0,0,1,24.07-22.36l403-117.85,299.59-466.11H2074.6Zm316.91-426.69h510.42a10.45,10.45,0,0,1,8.69,16.27L2346.26,2021a10.45,10.45,0,0,1-8.69,4.64H1838.48a10.46,10.46,0,0,1-8.81-16.09l258.44-403.68A10.46,10.46,0,0,1,2096.9,1601.05Z"/><circle class="cls-9" cx="1932.46" cy="2036.88" r="21.16"/><path class="cls-39" d="M2038.06,1969.29a2,2,0,0,0-2.71-.73L1930.74,2029a2,2,0,0,0-.72,2.71l4.84,8.38a2,2,0,0,0,2.71.73l104.61-60.4a2,2,0,0,0,.72-2.7Z"/><circle class="cls-9" cx="2163.54" cy="2039.07" r="21.16"/><rect class="cls-39" x="2155.16" y="2000.03" width="124.76" height="13.65" rx="1.98" transform="translate(-706.33 1377.63) rotate(-30)"/><path class="cls-28" d="M2358.22,1633.79h-49.78l17.86-32.74h-23.81l-17.86,31.75h-52.39a14.71,14.71,0,0,0-14.71,14.7v20.2a14.71,14.71,0,0,0,14.71,14.7h126a14.71,14.71,0,0,0,14.71-14.7v-19.21A14.71,14.71,0,0,0,2358.22,1633.79Z"/><path class="cls-40" d="M1349.51,2206.9,1374.07,2357h589l-18.55-149.88C1820.52,2207,1458.13,2206.51,1349.51,2206.9Z"/><rect class="cls-9" x="1504.9" y="2229.01" width="291.66" height="110.12" rx="12"/><rect class="cls-28" x="1518.27" y="2238.74" width="256.98" height="90.64" rx="12"/><g class="cls-43"><rect class="cls-30" x="1526.51" y="2230.47" width="4" height="121.88" transform="translate(-662.08 621.62) rotate(-18.98)"/><rect class="cls-30" x="1557.8" y="2230.47" width="4" height="121.88" transform="translate(-660.38 631.8) rotate(-18.98)"/><rect class="cls-30" x="1589.09" y="2230.47" width="4" height="121.88" transform="translate(-658.68 641.97) rotate(-18.98)"/><rect class="cls-30" x="1620.39" y="2230.47" width="4" height="121.88" transform="translate(-656.98 652.15) rotate(-18.98)"/><rect class="cls-30" x="1651.68" y="2230.47" width="4" height="121.88" transform="translate(-655.28 662.32) rotate(-18.98)"/><rect class="cls-30" x="1682.97" y="2230.47" width="4" height="121.88" transform="translate(-653.58 672.5) rotate(-18.98)"/><rect class="cls-30" x="1714.26" y="2230.47" width="4" height="121.88" transform="translate(-651.88 682.67) rotate(-18.98)"/><rect class="cls-30" x="1745.55" y="2230.47" width="4" height="121.88" transform="translate(-650.18 692.85) rotate(-18.98)"/><rect class="cls-30" x="1776.84" y="2230.47" width="4" height="121.88" transform="translate(-648.48 703.03) rotate(-18.98)"/><rect class="cls-30" x="1699.12" y="2284.72" width="121.88" height="4" transform="translate(-974.76 3207.41) rotate(-71.02)"/><rect class="cls-30" x="1667.83" y="2284.72" width="121.88" height="4" transform="translate(-995.87 3177.82) rotate(-71.02)"/><rect class="cls-30" x="1636.54" y="2284.72" width="121.88" height="4" transform="translate(-1016.98 3148.23) rotate(-71.02)"/><rect class="cls-30" x="1605.25" y="2284.72" width="121.88" height="4" transform="translate(-1038.1 3118.64) rotate(-71.02)"/><rect class="cls-30" x="1573.96" y="2284.72" width="121.88" height="4" transform="translate(-1059.21 3089.05) rotate(-71.02)"/><rect class="cls-30" x="1542.67" y="2284.72" width="121.88" height="4" transform="translate(-1080.33 3059.46) rotate(-71.02)"/><rect class="cls-30" x="1511.38" y="2284.72" width="121.88" height="4" transform="translate(-1101.44 3029.87) rotate(-71.02)"/><rect class="cls-30" x="1480.09" y="2284.72" width="121.88" height="4" transform="translate(-1122.55 3000.28) rotate(-71.02)"/><rect class="cls-30" x="1448.8" y="2284.72" width="121.88" height="4" transform="translate(-1143.67 2970.69) rotate(-71.02)"/></g><path class="cls-9" d="M1644.72,2260.57a1.2,1.2,0,0,0-2.08,0l-24.35,42.18a1.2,1.2,0,0,0,1,1.81H1668a1.2,1.2,0,0,0,1-1.81Z"/><circle class="cls-39" cx="1435.34" cy="2282.86" r="45.56"/><circle class="cls-9" cx="1424.04" cy="2282.86" r="45.56"/><circle class="cls-28" cx="1424.04" cy="2282.56" r="33.25"/><path class="cls-9" d="M1443.36,2287.13a2,2,0,0,0-2.51,1.32,17.34,17.34,0,0,1-21.7,11.4,17.36,17.36,0,0,1-11.4-21.71,2,2,0,0,0-3.82-1.19,21.32,21.32,0,0,0,30.29,25.23,21.16,21.16,0,0,0,10.45-12.54A2,2,0,0,0,1443.36,2287.13Z"/><circle class="cls-39" cx="1873.82" cy="2284.06" r="45.56"/><circle class="cls-9" cx="1862.51" cy="2284.06" r="45.56" transform="translate(-474.95 489.02) rotate(-13.28)"/><circle class="cls-28" cx="1862.51" cy="2283.77" r="33.25"/><path class="cls-9" d="M1881.84,2288.34a2,2,0,0,0-2.51,1.31,17.33,17.33,0,1,1-33.1-10.3,2,2,0,1,0-3.82-1.19,21.36,21.36,0,0,0,14,26.71,21.07,21.07,0,0,0,6.33,1,21.37,21.37,0,0,0,20.38-15A2,2,0,0,0,1881.84,2288.34Z"/><path class="cls-9" d="M1502.3,2365.89h-94.74a4.6,4.6,0,0,0-4.6,4.6v12.66a4.6,4.6,0,0,0,4.6,4.6h94.74a4.6,4.6,0,0,0,4.6-4.6v-12.66A4.6,4.6,0,0,0,1502.3,2365.89Zm.6,17.26a.6.6,0,0,1-.6.6h-94.74a.6.6,0,0,1-.6-.6v-12.66a.6.6,0,0,1,.6-.6h94.74a.6.6,0,0,1,.6.6Z"/><path class="cls-9" d="M1918,2366.88h-94.74a4.6,4.6,0,0,0-4.6,4.6v12.67a4.6,4.6,0,0,0,4.6,4.59H1918a4.6,4.6,0,0,0,4.6-4.59v-12.67A4.6,4.6,0,0,0,1918,2366.88Zm.6,17.27a.6.6,0,0,1-.6.59h-94.74a.61.61,0,0,1-.6-.59v-12.67a.62.62,0,0,1,.6-.6H1918a.61.61,0,0,1,.6.6Z"/><path class="cls-9" d="M1431.17,2417.48a13.59,13.59,0,1,0,13.59,13.59A13.6,13.6,0,0,0,1431.17,2417.48Zm0,23.18a9.59,9.59,0,1,1,9.59-9.59A9.61,9.61,0,0,1,1431.17,2440.66Z"/><path class="cls-9" d="M1870.59,2416.8a13.59,13.59,0,1,0,13.59,13.59A13.61,13.61,0,0,0,1870.59,2416.8Zm0,23.18a9.59,9.59,0,1,1,9.59-9.59A9.6,9.6,0,0,1,1870.59,2440Z"/><path class="cls-39" d="M3526.84,2386.74H3623a9.23,9.23,0,0,1,9.23,9.23v45a9.22,9.22,0,0,1-9.22,9.22h-96.18a9.22,9.22,0,0,1-9.22-9.22v-45A9.22,9.22,0,0,1,3526.84,2386.74Z"/><rect class="cls-40" x="3544.07" y="2386.74" width="114.63" height="63.49" rx="9.22"/><circle class="cls-39" cx="2231.54" cy="2446.26" r="130.21" transform="translate(-1076.17 2294.43) rotate(-45)"/><circle class="cls-28" cx="2263.98" cy="2446.26" r="130.21" transform="translate(-1066.66 2317.37) rotate(-45)"/><circle class="cls-9" cx="2271.36" cy="2446.26" r="77.44" transform="translate(-763.25 1055.42) rotate(-22.5)"/><circle class="cls-39" cx="3295" cy="2447.93" r="130.21"/><circle class="cls-28" cx="3327.44" cy="2447.93" r="130.21"/><circle class="cls-9" cx="3334.82" cy="2447.93" r="77.44"/><path class="cls-9" d="M3505.65,2073.24a50,50,0,1,0,50,50A50.06,50.06,0,0,0,3505.65,2073.24Zm0,96a46,46,0,1,1,46-46A46,46,0,0,1,3505.65,2169.23Z"/><path class="cls-41" d="M3039.57,1601.05H2691.84l-271.3,424.59v373h634.9v-323.4l-15.87-36.17Zm-26.68,416.85H2472.13l235.22-386.45h305.54Z"/><path class="cls-9" d="M3014.49,2059.35H2872.2a7.25,7.25,0,0,0-7.24,7.25v25.6a7.24,7.24,0,0,0,7.24,7.24h142.29a7.24,7.24,0,0,0,7.24-7.24v-25.6A7.25,7.25,0,0,0,3014.49,2059.35Zm3.24,32.85a3.25,3.25,0,0,1-3.24,3.24H2872.2a3.24,3.24,0,0,1-3.24-3.24v-25.6a3.25,3.25,0,0,1,3.24-3.25h142.29a3.25,3.25,0,0,1,3.24,3.25Z"/><path class="cls-9" d="M2543.91,2351h-68.17a5.62,5.62,0,0,0-5.61,5.62v17.63a5.62,5.62,0,0,0,5.61,5.61h68.17a5.61,5.61,0,0,0,5.61-5.61v-17.63A5.62,5.62,0,0,0,2543.91,2351Zm1.61,23.25a1.61,1.61,0,0,1-1.61,1.61h-68.17a1.61,1.61,0,0,1-1.61-1.61v-17.63a1.62,1.62,0,0,1,1.61-1.62h68.17a1.62,1.62,0,0,1,1.61,1.62Z"/><path class="cls-41" d="M1351.83,2169a36.91,36.91,0,0,0-4.53,24.44l2.19,13.32h594.94l-.94-7.48a36.7,36.7,0,0,1,2.07-17.4l2.28-6.1a36.61,36.61,0,0,1,8.59-13.23h-599.8A35.91,35.91,0,0,0,1351.83,2169Z"/><path class="cls-31" d="M2318.82,1838.31c-.29-5.39-3.46-.4,0,0Z"/><path class="cls-31" d="M2323.88,1830.05s-19.08-10.61-20.1,4.27,12.12,25.87,14.52,10.48a32.68,32.68,0,0,0,.52-6.49c-3.46-.4-.29-5.39,0,0a3.57,3.57,0,0,0,.58,0C2324.86,1838.19,2327.06,1831.55,2323.88,1830.05Z"/><path class="cls-2" d="M2323.88,1830.05s-19.08-10.61-20.1,4.27,12.12,25.87,14.52,10.48-4.35-6.31,1.1-6.46S2327.06,1831.55,2323.88,1830.05Z"/><g class="cls-44"><path class="cls-33" d="M2325,1830.2c-1.61-.64-3,1.21-4.4,2.22a5,5,0,0,1-3.45.88,2.35,2.35,0,0,0-1.44.06c-.59.35-.61,1.19-.55,1.88a28.57,28.57,0,0,1,.08,7.78,12.75,12.75,0,0,1-3.49,6.66,4.1,4.1,0,0,1-1.88,1.22,1.84,1.84,0,0,1-2-.7l1,2.6a5.13,5.13,0,0,0,4.76,4.2,8.14,8.14,0,0,0,6.15-2.6,20.57,20.57,0,0,0,3.71-5.77c2.41-5,4.4-10.71,3.06-16.13A3.1,3.1,0,0,0,2325,1830.2Z"/></g><path class="cls-2" d="M2374.74,1828.05c-12.6,8-17.68,28-3.86,20.83s6.3-6.24,9.65-1.93c4.43,2.09,7.43,4.31,10.25,5.28C2390.78,1852.23,2387.34,1820.07,2374.74,1828.05Z"/><g class="cls-45"><path class="cls-33" d="M2391,1852.37l-3.7-4.1-6.72-7.43a2.67,2.67,0,0,0-1.55-1,2.37,2.37,0,0,0-1.47.49c-2.33,1.47-4.14,3.65-6.39,5.24a15.61,15.61,0,0,1-10.11,2.77l-1.22-.62c-2.24,2-2.47,5.67-1,8.31a11.38,11.38,0,0,0,7.15,5.11,34.17,34.17,0,0,0,9,.75l8.73-.06a14.73,14.73,0,0,0,6.3-1c1.93-.92,3.49-3,3.08-5.11A7.33,7.33,0,0,0,2391,1852.37Z"/></g><path class="cls-2" d="M2347.89,1824.47c-8.86,12-7.64,33.93,2.65,22.25s5.77-11.36,10.45-8.56,8-3.52,6.15-6.49C2367.14,1831.67,2356.74,1812.47,2347.89,1824.47Z"/><g class="cls-46"><path class="cls-33" d="M2370.4,1836.94c-2,.14-4.14,1.11-5.87.11-2.2-1.26-2.41-5-4.89-5.53-2-.4-3.51,1.78-4.49,3.59a57.58,57.58,0,0,1-5.17,8,12.21,12.21,0,0,1-4.36,3.92,4.8,4.8,0,0,1-5.47-.81l-3.56.26c-1,1.76.35,4.08,2.18,4.9s3.95.58,5.94.3c6.08-.84,12.19-1.88,17.88-4.21,4.2-1.72,8.56-4.82,8.9-9.34a.88.88,0,0,0-1.09-1.14Z"/></g><path class="cls-2" d="M2341.38,1826.61s-19.08-10.61-20.1,4.27,11.48,29.31,13.89,13.92-.94-9.27,4.52-9.41S2344.55,1828.1,2341.38,1826.61Z"/><g class="cls-47"><path class="cls-33" d="M2335.47,1827.26a2.15,2.15,0,0,0-1.09,1.11,2.79,2.79,0,0,0,.07,1.43,28.14,28.14,0,0,1-.09,12.32,11.58,11.58,0,0,1-3.09,6.08c-1.71,1.55-4.45,2.16-6.38.89l-.33,1.15a15,15,0,0,0,5,5.24,4.85,4.85,0,0,0,3.23.94,4.91,4.91,0,0,0,2.32-1.31c3.44-3,5.6-7.23,7.41-11.44a24.41,24.41,0,0,0,2.22-7.51,9.75,9.75,0,0,0-2.15-7.33A6.16,6.16,0,0,0,2335.47,1827.26Z"/></g><path class="cls-48" d="M2938,1505.79c-12-103.29-46.84-121.26-99.68-105.84-10.81-37.39-60.05,5-60.05,5s-32.43-19.22-50.45,18,14.41,75.66,14.41,75.66,118.9,96.08,159.74,93.68S2975.2,1537,2938,1505.79Z"/><g class="cls-49"><path class="cls-50" d="M2906.48,1479.75c-2.4-10.37-1.1-21.39-4-31.64-4.77-17-21.1-29.36-38.56-31.95s-35.48,3.63-49.53,14.31a35.17,35.17,0,0,1,2.13-22.83,21.47,21.47,0,0,0-16.92,16.29l-17.06-5.86c-12.47-1.87-25.88,1.25-35.39,9.52s-14.53,21.84-11.4,34.05c1,4,2.85,8,2,12-.75,3.58-3.47,6.35-5.49,9.4-6.91,10.42-5.47,24.69.44,35.72s15.56,19.48,25.14,27.52c23.41,19.62,47.92,38.46,75.77,51s59.52,18.54,89.25,11.54c15.42-3.62,31.28-12,36.89-26.81,7.13-18.78-4.91-39.28-18.55-54S2911,1499.32,2906.48,1479.75Z"/></g><path class="cls-35" d="M2949,1732.47c-42.22-75.31-78.62-65.45-83.35-66.78h-69.81s0-7.87-51.61,15.3c-45.92,20.61-96.95,237-96.95,237V2015h355.9s2.65-15.94,0-59.76S2991.17,1807.78,2949,1732.47Z"/><g class="cls-51"><path class="cls-37" d="M3010.14,1965.07c-34-31.42-76.35-58-122.61-57.53-4.86,0-10.58-.16-13.25-4.23-33.21-50.61,7.5-158,7.5-158-16.73,9.14-32.8,71.14-36.5,89.84-8.72,44-7.87,33.67-16.59,77.67-1.35,6.77-2.69,13.79-1.14,20.51,2.44,10.57,11.61,18.38,21.46,22.91s20.65,6.52,30.86,10.16c53.6,19.13,83.64,80.21,137.32,99.12,9.77,3.45,21.81,4.92,29.47-2.06,5.35-4.87,7-12.63,7.13-19.87C3054.3,2012.71,3032.8,1986.05,3010.14,1965.07Z"/></g><path class="cls-2" d="M2882.3,1553.91l-.15.09c-1.15-15.55-1.15-31.27,3.48-41.39-18.6-8.76-20-28.14-20-28.14s-14.38-1.75-31.12-24.82c-25.35,22.26-67.67,22.2-83.27,19.27,0,0-18.55,71.86-15.15,114.58.8,10.06,2.81,18.51,6.57,24,19.74,28.9,49.3,23.17,49.3,23.17s-6.46,20.59-13.19,30.17,6.16,45.31,31.54,47,78.41-50.33,78.41-50.33-9.65-55.31-4.36-65.31a7,7,0,0,0,.36-.9,30.63,30.63,0,0,0,19.74-4.11c13.84-8,20.09-24.21,13.95-36.16S2896.13,1545.89,2882.3,1553.91Z"/><g class="cls-52"><path class="cls-33" d="M2892.05,1472.53c-11.69-24.43-35.63-42-61.94-48.37s-54.58-2.19-79.18,9.13c-2.9,1.34-5.89,2.88-7.73,5.49s-2.11,6.62.25,8.78l-5.72,29.29a93,93,0,0,0,80.91,8.07c5.63-2.12,12.62-4.59,17.06-.54,1.79,1.62,2.68,4,3.94,6a18.38,18.38,0,0,0,11,8.09c2.69.68,5.62.79,8,2.28,4.1,2.62,4.72,8.2,5.38,13a79.31,79.31,0,0,0,16.1,38c10.05-18.47,20.43-38.46,18-59.35A63.38,63.38,0,0,0,2892.05,1472.53Z"/><path class="cls-33" d="M2839.32,1626.14a182.08,182.08,0,0,1-54.2,17.67l-25.85,4c-3.31,3-6.65,6-8.78,9.9s-2.87,8.81-.83,12.74c1.47,2.83,4.16,4.82,6.93,6.38,13.46,7.62,30.54,7.27,44.78,1.23s25.83-17.23,34.6-30c4-5.84,7.58-12.29,8.24-19.34a3.44,3.44,0,0,0-.67-2.9C2842.44,1624.8,2840.66,1625.46,2839.32,1626.14Z"/><path class="cls-33" d="M2885.12,1567.1c-6.88,3.23-10.75,9.5-8.64,14s9.41,5.55,16.3,2.33,10.75-9.5,8.64-14S2892,1563.88,2885.12,1567.1Z"/></g><path class="cls-48" d="M2791.54,1537.45c-1.16,3.5-3,6.77-5.77,7.55l-.52.14c-.18,0-.37.06-.55.09l-.76.1a7.23,7.23,0,0,0-2.87,1,4.43,4.43,0,0,0-1.66,1.9,4.85,4.85,0,0,0-.37,2.3,4.38,4.38,0,0,0,.14,1,6.12,6.12,0,0,0,.25.89,13.44,13.44,0,0,0,1.49,3,32.14,32.14,0,0,0,8.6,8.53,101.18,101.18,0,0,1-5.85-10,13.35,13.35,0,0,1-.85-2.43,2.44,2.44,0,0,1,0-1.59c.06,0,0-.08.12-.11a.46.46,0,0,1,.18-.12,2.46,2.46,0,0,1,.78-.25,2.69,2.69,0,0,1,.53-.08l.7-.09c.31,0,.61-.07.91-.13l.91-.23a9.79,9.79,0,0,0,3.23-1.81,11.24,11.24,0,0,0,2.24-2.72,14.09,14.09,0,0,0,1.36-3,19.2,19.2,0,0,0,.78-3.07,29.76,29.76,0,0,0-.49-12.09A76.75,76.75,0,0,1,2791.54,1537.45Z"/><path class="cls-48" d="M2842.82,1500.28a9.07,9.07,0,0,0-3.36-2.1,8.25,8.25,0,0,0-4.07-.37,5.21,5.21,0,0,0-3.55,2.11,34.88,34.88,0,0,1,3.42,1l2.88,1c1,.32,1.93.7,3,1a15.17,15.17,0,0,0,1.71.45,10.08,10.08,0,0,0,2,.34,8.53,8.53,0,0,0-.79-1.91A10.22,10.22,0,0,0,2842.82,1500.28Z"/><path class="cls-48" d="M2781.11,1494.74a9.1,9.1,0,0,0-3.71-1.41,8.18,8.18,0,0,0-4.06.44,5.23,5.23,0,0,0-3.07,2.77,34.25,34.25,0,0,1,3.56.32l3,.43c1,.13,2,.31,3.16.39a14.13,14.13,0,0,0,1.77.11,10.53,10.53,0,0,0,2,0,9.05,9.05,0,0,0-1.15-1.72A9.74,9.74,0,0,0,2781.11,1494.74Z"/><path class="cls-53" d="M2851.55,1560.57a16.2,16.2,0,1,0,11,20.1A16.19,16.19,0,0,0,2851.55,1560.57Z"/><path class="cls-48" d="M2769.21,1516.27c-3.82-.24-7.19,3.75-7.52,8.92s2.5,9.55,6.32,9.8,7.19-3.75,7.52-8.92S2773,1516.51,2769.21,1516.27Z"/><path class="cls-48" d="M2831.49,1525.47c-3.82-.25-7.18,3.74-7.51,8.91s2.5,9.56,6.32,9.8,7.18-3.74,7.51-8.91S2835.31,1525.71,2831.49,1525.47Z"/><path class="cls-9" d="M2767.56,1520.26c-1.57-.1-2.95,1.54-3.08,3.66s1,3.92,2.59,4,3-1.54,3.09-3.66S2769.13,1520.36,2767.56,1520.26Z"/><path class="cls-9" d="M2830.27,1529.15c-1.57-.11-2.95,1.53-3.08,3.65s1,3.92,2.59,4,3-1.53,3.09-3.65S2831.84,1529.25,2830.27,1529.15Z"/><path class="cls-48" d="M2801.81,1582.63c-.1.87-.24,1.73-.39,2.58l2.77-.46Z"/><path class="cls-48" d="M2799.93,1581.61c-1.14.16-2.28.4-3.44.49a52,52,0,0,1-7,.34,48.67,48.67,0,0,1-7-.69,35.72,35.72,0,0,1-6.91-1.86,23.6,23.6,0,0,0,6.45,3.51,35.53,35.53,0,0,0,7.21,1.86,42.27,42.27,0,0,0,7.46.39c1.26,0,2.49-.21,3.74-.3l.93-.14c.15-.85.29-1.71.39-2.58l2.38,2.12-2.77.46a25.39,25.39,0,0,1-1.87,6.11,12.55,12.55,0,0,1-5.56,6.15,16.83,16.83,0,0,1-8.67,1.63,31.66,31.66,0,0,1-4.7-.55,40.25,40.25,0,0,1-4.71-1.13,26.09,26.09,0,0,0,9.14,3.83,17.69,17.69,0,0,0,10.36-.7,15.2,15.2,0,0,0,7.68-7.51,27.94,27.94,0,0,0,2.62-10l.24-2.65-2.61.53C2802.21,1581.15,2801.07,1581.4,2799.93,1581.61Z"/><path class="cls-2" d="M2892.94,1928.21s-67.44-8.56-157.23,32.52c-98.49-5.13-115.34,54.22-115.34,54.22h382.76C2961.48,1916.8,2892.94,1928.21,2892.94,1928.21Z"/><g class="cls-54"><path class="cls-33" d="M3001.12,1926.63c-36.44-24.16-79.32-37.29-122.59-43.51-33-4.74-66.84-5.61-99.32,1.68a202.39,202.39,0,0,0-59,23.49l-3.43,34.86c19.76,9.52,42.92,1.65,64.64-1.44,33.06-4.72,67,2.31,97.67,15.64s58.21,32.74,84.34,53.53c13.56,10.79,27.39,22.29,44.15,26.67s37.49-.81,45.11-16.38c4.27-8.72,3.74-19.08,1.37-28.5C3047,1964.67,3025.18,1942.59,3001.12,1926.63Z"/><path class="cls-33" d="M2789.69,2031.85c-17.82-2-33.85-11.25-50-19s-34.24-14.29-51.74-10.37c-11.18,2.5-20.95,9-31.17,14.22s-22,9.15-33,6l78.82,26.1c21.86,5.65,44.4,9.63,67,8.41s45.23-7.93,63-21.88C2819,2030.29,2804,2033.45,2789.69,2031.85Z"/></g></g></svg>