<svg id="Layer_1" data-name="Layer 1" xmlns="http://www.w3.org/2000/svg" xmlns:xlink="http://www.w3.org/1999/xlink" viewBox="0 0 4680 3120"><defs><style>.cls-1{fill:#deedf9;}.cls-2{fill:#1d4fbf;}.cls-3{fill:#f5838d;}.cls-4{fill:none;}.cls-5{fill:#81bdf2;}.cls-6{fill:#3289e0;}.cls-7{fill:#e52e66;}.cls-8{fill:#ed4370;}.cls-9{fill:#f8b3a3;}.cls-10{fill:#fff;}.cls-11{fill:#13136d;}.cls-12{fill:#1b8add;}.cls-13,.cls-37{fill:#081ea0;}.cls-13{clip-path:url(#clip-path);}.cls-14{fill:#d9ebf9;}.cls-15{fill:#d4f0ff;}.cls-16{fill:#cfe1f9;}.cls-17{clip-path:url(#clip-path-2);}.cls-18{opacity:0.55;}.cls-19{opacity:0.66;}.cls-20{opacity:0.78;}.cls-21{opacity:0.89;}.cls-22{clip-path:url(#clip-path-3);}.cls-23{fill:#031b72;}.cls-24{clip-path:url(#clip-path-4);}.cls-25{clip-path:url(#clip-path-5);}.cls-26{fill:#f7c1c1;}.cls-27{clip-path:url(#clip-path-6);}.cls-28{fill:#3378dd;}.cls-29{fill:#85bce5;}.cls-30{fill:#0f0f63;}.cls-31{fill:#343085;}.cls-32{fill:#3079e2;}.cls-33{clip-path:url(#clip-path-7);}.cls-34{fill:#55a2e0;}.cls-35{opacity:0.26;}.cls-36{fill:#004ac1;}.cls-38{clip-path:url(#clip-path-8);}.cls-39{clip-path:url(#clip-path-9);}.cls-40{fill:#a5d9f9;}.cls-41{clip-path:url(#clip-path-10);}.cls-42{clip-path:url(#clip-path-11);}.cls-43{fill:#ef6576;}.cls-44{clip-path:url(#clip-path-12);}.cls-45{clip-path:url(#clip-path-13);}.cls-46{opacity:0.53;}.cls-47{clip-path:url(#clip-path-14);}.cls-48{opacity:0.18;}.cls-49{fill:#022659;}.cls-50{clip-path:url(#clip-path-15);}.cls-51{fill:#3371dd;}.cls-52{clip-path:url(#clip-path-16);}.cls-53{opacity:0.2;}.cls-54{fill:#7c1c27;}.cls-55{fill:#1267ad;}.cls-56{fill:#ff5876;}.cls-57{fill:#4f4085;}.cls-58{fill:#04047f;}.cls-59{clip-path:url(#clip-path-17);}.cls-60{fill:#d3165a;}.cls-61{opacity:0.43;}.cls-62{fill:#040466;}.cls-63{clip-path:url(#clip-path-18);}.cls-64{opacity:0.69;}.cls-65{fill:#c61756;}.cls-66{clip-path:url(#clip-path-19);}.cls-67{fill:#e26a6a;}.cls-68{clip-path:url(#clip-path-20);}.cls-69{clip-path:url(#clip-path-21);}.cls-70{fill:#fbd2da;}.cls-71{fill:#ffdce5;}.cls-72{clip-path:url(#clip-path-22);}.cls-73{fill:#0a0a44;}.cls-74{clip-path:url(#clip-path-23);}</style><clipPath id="clip-path"><path class="cls-12" d="M2159.23,1347.44c103.92-2,297.86-11.89,433.57,80.11s138,176.79,154,319.36c0,0-497.81-44.48-973.37,23.95,0,0-20.54-146.4-1.71-235C1801.76,1394.47,2013.54,1350.3,2159.23,1347.44Z"/></clipPath><clipPath id="clip-path-2"><path class="cls-1" d="M1131,706.61c182.18-197.51,748.13-292.16,1210.58,30.89s737,93.68,949.13,382.24,32.79,741.05-434.45,805.59c-333.5,46.07-1336.41,19.45-1643.15-276.24C929.18,1375.36,854.57,1006.34,1131,706.61Z"/></clipPath><clipPath id="clip-path-3"><rect class="cls-2" x="3141.2" y="2142.32" width="434.79" height="104.89" rx="29.38"/></clipPath><clipPath id="clip-path-4"><rect class="cls-2" x="3141.2" y="2247.21" width="434.79" height="104.89" rx="29.38"/></clipPath><clipPath id="clip-path-5"><rect class="cls-2" x="3141.2" y="2352.1" width="434.79" height="104.89" rx="29.38"/></clipPath><clipPath id="clip-path-6"><path class="cls-3" d="M2865.48,1784.86s53.67-262.92,277.78-349c0,0,93.69,192.73-8.69,446.15-95.65,236.78-219,282.59-219,282.59S2814.35,2031.81,2865.48,1784.86Z"/></clipPath><clipPath id="clip-path-7"><path class="cls-5" d="M3144.77,2174c-18.25-191.07-328.45-414.19-328.45-414.19s-4.56-120.15-52.46-243.11S2620.17,1314.06,2425.15,1261s-670.58-13.68-863.88,0-295.94,417.46-295.94,417.46c-143.7,38.78-120.89,442.6-120.89,442.6q11.37,9.77,22.68,19.25c2.91-18.95,8.08-41.15,17.26-60.17,21-43.45,45.12-50.77,74.67-39.89s47.61,82.52,50,124.66c2.27,39.87,4.24,65.22-.29,87,97.61,71.78,189.27,129,271.43,174.29,5.61-109.45,25-417.86,69.81-540.69,0,0,273.91,35.93,316.68,362.71,27.15,207.44,19.82,299.74,10.86,339.49,653.46-10,1180.9-104,1180.9-104S3163,2365.11,3144.77,2174Z"/></clipPath><clipPath id="clip-path-8"><path class="cls-13" d="M1773.39,1777.42a6.58,6.58,0,0,1-6.49-5.65c-.84-6-20.48-148.56-1.63-237.23,7.39-34.74,25.81-65.76,54.75-92.19,25.33-23.14,58.88-42.91,99.71-58.75,89.75-34.84,188.5-41.71,239.37-42.71q8.49-.17,17.75-.38c108.3-2.45,289.58-6.55,419.62,81.61,61.63,41.78,99,83.62,121,135.66,20.42,48.14,26.12,100.31,33.34,166.37q1.18,10.78,2.43,22a6.56,6.56,0,0,1-7.1,7.26c-1.24-.11-126.41-11.14-308-13.66-167.52-2.34-418.67,2.29-663.86,37.57A6,6,0,0,1,1773.39,1777.42Zm385.84-430,.13,6.56c-85.1,1.66-170.71,16.91-234.89,41.82-84.11,32.65-133.36,80.24-146.38,141.45-16.14,75.9-2.7,196.91,1,226.17,244-34.56,492.93-39.09,659.46-36.77,156,2.18,270.5,10.61,300.86,13q-.78-7.17-1.55-14.14c-14.11-129.18-22.63-207.15-148.69-292.61-126.58-85.81-305.24-81.77-412-79.36q-9.27.21-17.78.39Z"/></clipPath><clipPath id="clip-path-9"><path class="cls-14" d="M2407.83,1380.1c52.12,2,148,22.28,212.12,85.55s73.14,120.35,75.27,212.14c0,0-278.17-95.24-519.1-66.72,0,0-13.07-76.56,0-132.65C2197,1388.83,2334.76,1377.24,2407.83,1380.1Z"/></clipPath><clipPath id="clip-path-10"><path class="cls-14" d="M1867.26,1380.1c-52.11,2-148,22.28-212.12,85.55S1582,1586,1579.87,1677.79c0,0,278.17-95.24,519.1-66.72,0,0,13.07-76.56,0-132.65C2078.1,1388.83,1940.33,1377.24,1867.26,1380.1Z"/></clipPath><clipPath id="clip-path-11"><path class="cls-3" d="M1747.21,1616.3s18.25-26.81,89.81-35.93,179.9-13.4,203.85,6.56,40.2,172.9,40.2,172.9l-320.74,33.26Z"/></clipPath><clipPath id="clip-path-12"><path class="cls-3" d="M2292.91,1747.46s-8-119.19,8.55-160.82,239.5-26.23,273.71-18.25,34.21,182.5,34.21,182.5Z"/></clipPath><clipPath id="clip-path-13"><path class="cls-4" d="M2159.23,1347.44c103.92-2,297.86-11.89,433.57,80.11s138,176.79,154,319.36c0,0-497.81-44.48-973.37,23.95,0,0-20.54-146.4-1.71-235C1801.76,1394.47,2013.54,1350.3,2159.23,1347.44Z"/></clipPath><clipPath id="clip-path-14"><path class="cls-5" d="M1966.7,2248.2C1923.93,1921.42,1650,1885.49,1650,1885.49c-44.83,122.83-64.2,431.24-69.81,540.69,12.14,6.7,36.06,15.43,47.78,21.62,7.23-37.63,17.24-120.81,86.44-132,85.07-13.79,112.56,147.65,96.26,219.89,100,39.6,159.43,52.13,159.43,52.13l7.44-.11C1986.52,2547.94,1993.85,2455.64,1966.7,2248.2Z"/></clipPath><clipPath id="clip-path-15"><path class="cls-6" d="M2628.72,2501.4c195.6-13.93,479.3-55.34,530.18-71.3,0,0,29.78-6.25,36,26.25s-13.24,54.18-36,60.45-388.25,57.37-521.69,70.89-576,37.27-660.31,21.5-61.58-101.51,13.69-103.79S2412.61,2516.8,2628.72,2501.4Z"/></clipPath><clipPath id="clip-path-16"><path class="cls-3" d="M2439.69,1280.7s4.28-124-11.12-175.36-292.52-55.15-439.64-54.52-348.11-13.06-360.09,28.85S1616,1277.28,1616,1277.28Z"/></clipPath><clipPath id="clip-path-17"><path class="cls-7" d="M1337.32,1690.64l-16.91,5.8s-100.93,75.28-156.53,120.62-141.13,120.61-151.39,177.07,142,237.81,219,294.27,105.87,71.86,105.87,71.86,60.92,2.56,60.07-86.4c0,0-194.16-177.08-213-228.4s114.61-71,159.09-132.59,63.3-177.93,63.3-177.93Z"/></clipPath><clipPath id="clip-path-18"><path class="cls-8" d="M1366.21,1726s-80,254.44-99.69,313.47-147.12,482.25-147.12,482.25,19.68,43.63,95.8,35.93c0,0,129.16-271.81,165.94-344.53s131.72-232.68,142-290.84,15.4-175.37,15.4-175.37l-12-20.91Z"/></clipPath><clipPath id="clip-path-19"><path class="cls-9" d="M1220.45,1414.3l-97.15,14.77s46.57-146.38,76.22-183.45,87.81-41.63,118-41.92,39.06-12.83,19.1-22.81-43.62-12.26-39.92-26,19.11-31.36-4.84-49-67-38.78-94.66-8.84-22.52,77-37.92,92.1S1050.69,1379,1033.59,1426s-27.75,79.46,47.51,86.3,167-24.25,167-24.25Z"/></clipPath><clipPath id="clip-path-20"><path class="cls-9" d="M1785.52,1587.61s-63.87,95.43-144.08,161.58c-19.77,18.63-29.65,132.69-19.77,148.66s49.42,27,63.87-11.79-2.28-105.31,13.3-117.86,77.55-57.79,118.61-90.86,70.71-69.2,65.76-87.07-19.76-35.74-19.76-35.74Z"/></clipPath><clipPath id="clip-path-21"><path class="cls-10" d="M1599.62,1310.83l5.71,4.94s55.5,2.66,103,8.75,159.47,228.21,159.47,228.21-8.56,49.33-89.53,43c0,0-94.08-134-110-128.31s-129.72,279.44-129.72,279.44-135.15,51.33-218.11-50.47c0,0,27.94-162.06,54.55-250.64l-146.36,60.45s-35-25.85-35.73-98.47c0,0,165.74-76,192.35-97s109.1-12.55,150.16-4.56Z"/></clipPath><clipPath id="clip-path-22"><path class="cls-11" d="M1516.28,1107.33s-32.51-25.38-28.51-78.7,57.87-64.44,80.4-53,20,40.21,47,41.64,90.38,10.83,114.9,86.11-61.87,155.4-126.87,157.68Z"/></clipPath><clipPath id="clip-path-23"><path class="cls-9" d="M1530.82,1072.26s-38,56.08-41.06,107,18.63,66.16,54.74,67.3c17.87,0-9.12,59.69-9.12,59.69s-1.52,23.19,25.09,26.61,44.86-17.11,44.86-17.11-3.8-52.84,4.94-66.53-17.87-37.83-1.9-46.48,32.31-3,41.81-34.5-19.38-24.34-33.07-29.66-54.74-30.79-51.32-68.43C1565.79,1070.17,1551,1075.11,1530.82,1072.26Z"/></clipPath></defs><title>Artboard 1 copy 4</title><rect class="cls-10" width="4680" height="3120"/><path class="cls-15" d="M3103.61,760.29a8.89,8.89,0,0,1-6.43-15c10.49-11,16.11-41.83,3.66-83.54-10.23-34.3-35.79-86.08-99.4-138.05C2936,470.22,2846.6,430,2735.61,404.2c-204.36-47.57-302.12-22.05-348.14,7.75-36.71,23.76-42.41,51-42.63,52.15a8.9,8.9,0,1,1-17.5-3.21c.26-1.42,6.76-35.12,49.46-63.22,30.7-20.2,72.2-32.42,123.36-36.31,65-4.95,145.52,3.64,239.49,25.51,113.65,26.45,205.51,67.84,273,123,67.1,54.83,94.24,110.06,105.18,146.74,12.81,42.89,9.73,82.51-7.83,100.91A8.89,8.89,0,0,1,3103.61,760.29Z"/><path class="cls-1" d="M2299.74,494c37.79-147.11,667.66-105.7,786.9,159.5S2738,858.66,2527.26,753.37,2277.84,579.25,2299.74,494Z"/><ellipse class="cls-16" cx="1256.61" cy="2660.52" rx="360.78" ry="99.48"/><ellipse class="cls-16" cx="3407.75" cy="2443.05" rx="437.25" ry="99.48"/><rect x="835" y="2186.67" width="2680.41" height="17.36"/><path class="cls-15" d="M1091.79,1512a8.89,8.89,0,0,1-5.11-1.62c-2.85-2-70.47-50.49-126.75-173.38-15.44-33.71-27.83-75.9-35.84-122a692.82,692.82,0,0,1-8.51-163.88A658.82,658.82,0,0,1,954.22,866.7a614.58,614.58,0,0,1,105.92-182.86,445.61,445.61,0,0,1,156.08-119.1c49.46-22.84,104.74-38,164.32-45a701.76,701.76,0,0,1,206.81,7.09c1.18.22,2,.38,2.48.45A8.9,8.9,0,0,1,1589,545a25.62,25.62,0,0,1-4.89-.72c-77.77-14.66-344.41-47.08-510.28,151-104.9,125.27-134.28,263.27-140.45,357-7.82,118.55,17,221,42.77,277.31,54.29,118.56,120.15,165.77,120.81,166.24a8.89,8.89,0,0,1-5.12,16.17ZM1589,527.19h0Zm0,0h0Z"/><path class="cls-1" d="M1131,706.61c182.18-197.51,748.13-292.16,1210.58,30.89s737,93.68,949.13,382.24,32.79,741.05-434.45,805.59c-333.5,46.07-1336.41,19.45-1643.15-276.24C929.18,1375.36,854.57,1006.34,1131,706.61Z"/><g class="cls-17"><g class="cls-18"><path class="cls-10" d="M3045,1094.56c-76.22,0-156.21-12-240.61-35.85-189.53-53.63-375.29-159.93-539.18-253.72-144.72-82.82-281.42-161-393.82-187.15-188.5-43.79-420.56,20.64-582,82.4C1114,767.3,981.89,845.72,980.58,846.51a6.09,6.09,0,0,1-6.24-10.46c1.32-.79,134.38-79.75,310.69-147.18,103.63-39.63,201.76-67.61,291.67-83.16,112.7-19.49,212.79-19.4,297.48.27,114.14,26.52,251.59,105.17,397.11,188.45C2596,980.22,3000,1211.45,3376.08,993.15a6.09,6.09,0,0,1,6.11,10.53C3277.68,1064.34,3166.12,1094.56,3045,1094.56Z"/></g><g class="cls-19"><path class="cls-10" d="M3109,1257.83c-56.66,0-116.71-6.82-181.93-20.61-164.74-34.81-334.08-108.61-497.86-180C2291,997,2160.35,940.05,2037.05,907.55c-216-56.95-491.78-7.67-685.07,43.7-209.84,55.77-370.47,126-372.07,126.69a6.09,6.09,0,0,1-4.9-11.15c1.61-.7,163-71.24,373.66-127.26,123.82-32.91,240.25-54.46,346.06-64,132.54-12,248.76-5.18,345.43,20.3,124.19,32.74,255.22,89.84,393.94,150.3,330.59,144.07,672.43,293,959.8,126.24a6.08,6.08,0,1,1,6.11,10.52c-69.38,40.27-146.63,64.57-229.63,72.22Q3140.31,1257.84,3109,1257.83Z"/></g><g class="cls-20"><path class="cls-10" d="M3153.31,1423.61c-51.85,0-108.54-4.85-171.57-14.62-169-26.21-355.94-83.49-553.84-144.13-73.55-22.54-149.61-45.84-225.17-67.6-243.61-70.14-563.18-36-788.37,5-244.28,44.47-433.12,106.35-435,107a6.09,6.09,0,0,1-3.82-11.56c1.89-.62,191.53-62.76,436.63-107.38,144-26.22,278.74-41.36,400.46-45,152.41-4.57,284.78,9,393.45,40.28,75.67,21.78,151.77,45.1,225.37,67.66,197.48,60.51,384,117.66,552.15,143.73,188.32,29.2,324.35,14.75,428.11-45.48a6.09,6.09,0,0,1,6.11,10.53c-56.24,32.64-121.18,51.87-198.51,58.76Q3187.61,1423.61,3153.31,1423.61Z"/></g><g class="cls-21"><path class="cls-10" d="M3078.11,1605.43q-15.17,0-30.64-.28c-143-2.66-376.92-25.31-679-118.17-271.09-83.32-634.38-64.37-891.41-33.8-278.74,33.15-495.93,86.72-498.09,87.26a6.09,6.09,0,1,1-2.94-11.81c2.17-.54,220.1-54.29,499.59-87.53,164.21-19.53,317.25-28.28,454.89-26,172.28,2.87,320.83,23.13,441.53,60.23,300.78,92.44,533.46,115,675.69,117.63,169,3.13,308.21-19.59,381.85-62.33a6.08,6.08,0,0,1,6.1,10.52C3364.7,1582.36,3235.47,1605.43,3078.11,1605.43Z"/></g><path class="cls-10" d="M2960.83,1847.92q-18.69,0-37.55-.59c-125.43-3.94-256.35-27.7-389.13-70.62-199.42-64.46-447.27-84.2-675.92-84.2-113.62,0-222.45,4.87-318.33,11.55-313.22,21.82-558.88,67.09-561.33,67.54a6.08,6.08,0,1,1-2.22-12c2.45-.46,248.68-45.84,562.56-67.71,184.41-12.85,355.77-15.19,509.33-7,192.17,10.29,356.91,37.26,489.65,80.17,298.13,96.36,529.62,76.15,671.31,42.22,153.18-36.68,236.8-96.6,237.63-97.2A6.09,6.09,0,0,1,3454,1720c-.88.63-21.81,15.74-62.25,35.61-37.16,18.27-98.51,44.13-179.71,63.58C3132.27,1838.28,3047.93,1847.92,2960.83,1847.92Z"/></g><rect class="cls-2" x="3141.2" y="2142.32" width="434.79" height="104.89" rx="29.38"/><g class="cls-22"><rect class="cls-23" x="3124.46" y="2232.31" width="463.02" height="21.1" transform="translate(6711.93 4485.71) rotate(-180)"/></g><path class="cls-2" d="M3550,2112.72l177.45,331.57a29.38,29.38,0,0,0,39.77,12l40.66-21.77a29.39,29.39,0,0,0,12-39.77l-177.46-331.57a29.37,29.37,0,0,0-39.76-12L3562,2073A29.38,29.38,0,0,0,3550,2112.72Z"/><rect class="cls-2" x="3141.2" y="2247.21" width="434.79" height="104.89" rx="29.38"/><g class="cls-24"><rect class="cls-23" x="3126.69" y="2338.71" width="463.02" height="21.1" transform="translate(6716.4 4698.53) rotate(-180)"/></g><rect class="cls-2" x="3141.2" y="2352.1" width="434.79" height="104.89" rx="29.38"/><g class="cls-25"><rect class="cls-23" x="3126.69" y="2444.26" width="463.02" height="21.1" transform="translate(6716.4 4909.63) rotate(-180)"/></g><path class="cls-26" d="M2984.4,1870.94s122.17-161.77,303-147.5c0,0,1.13,161.9-151.15,301.33-142.29,130.27-241.3,121.33-241.3,121.33S2869.16,2022.64,2984.4,1870.94Z"/><path class="cls-3" d="M2865.48,1784.86s53.67-262.92,277.78-349c0,0,93.69,192.73-8.69,446.15-95.65,236.78-219,282.59-219,282.59S2814.35,2031.81,2865.48,1784.86Z"/><g class="cls-27"><path class="cls-10" d="M2912.57,2209.25a3.77,3.77,0,0,1-.47,0,6.08,6.08,0,0,1-5.6-6.53l3-38.59a5.79,5.79,0,0,1,.12-.82c.61-2.84,62.92-287.79,181.47-615.12a6.08,6.08,0,1,1,11.44,4.14c-116.2,320.85-178.23,600.83-180.93,613.16l-2.95,38.17A6.07,6.07,0,0,1,2912.57,2209.25Z"/></g><polygon class="cls-28" points="3123.47 771.95 2690.11 771.95 2676.42 787.91 2744.85 1303.46 3178.21 1303.46 3191.9 1287.49 3123.47 771.95"/><polygon class="cls-29" points="3191.9 1287.49 2758.53 1287.49 2690.11 771.95 3123.47 771.95 3191.9 1287.49"/><path class="cls-3" d="M2874.14,760.84c4-5.42,1.57-11-6.7-31.37s5.85-42.91,40.77-39.49,30.37,35.79,27.95,43.77-3.58,18.82,1.63,26.23Z"/><ellipse class="cls-10" cx="2901.75" cy="717.21" rx="16.54" ry="12.74"/><polygon class="cls-10" points="2728.31 803.31 3094.39 803.31 3161.11 1258.4 2788.75 1258.4 2728.31 803.31"/><path class="cls-3" d="M2823.71,807.37,2819,767.62a10.91,10.91,0,0,1,10.83-12.2h149.45a10.91,10.91,0,0,1,10.86,9.86L2994,805a10.92,10.92,0,0,1-10.86,12h-148.6A10.92,10.92,0,0,1,2823.71,807.37Z"/><path class="cls-6" d="M3064.17,836.33H2760.24a2.79,2.79,0,1,1,0-5.58h303.93a2.79,2.79,0,0,1,0,5.58Z"/><path class="cls-6" d="M3071.13,876.88H2764.92a2.8,2.8,0,0,1,0-5.59h306.21a2.8,2.8,0,0,1,0,5.59Z"/><path class="cls-6" d="M3078.08,917.43H2769.59a2.8,2.8,0,0,1,0-5.59h308.49a2.8,2.8,0,0,1,0,5.59Z"/><path class="cls-6" d="M3085,958H2774.27a2.79,2.79,0,1,1,0-5.58H3085a2.79,2.79,0,0,1,0,5.58Z"/><path class="cls-6" d="M3092,998.52H2779a2.79,2.79,0,1,1,0-5.58H3092a2.79,2.79,0,0,1,0,5.58Z"/><path class="cls-6" d="M3099,1039.07H2783.62a2.8,2.8,0,0,1,0-5.59H3099a2.8,2.8,0,0,1,0,5.59Z"/><path class="cls-6" d="M3105.91,1079.62H2788.3a2.8,2.8,0,0,1,0-5.59h317.61a2.8,2.8,0,0,1,0,5.59Z"/><path class="cls-6" d="M3112.87,1120.16H2793a2.79,2.79,0,1,1,0-5.58h319.9a2.79,2.79,0,0,1,0,5.58Z"/><path class="cls-6" d="M3119.82,1160.71H2797.65a2.79,2.79,0,0,1,0-5.58h322.17a2.79,2.79,0,0,1,0,5.58Z"/><path class="cls-6" d="M3126.78,1201.26H2802.33a2.8,2.8,0,1,1,0-5.59h324.45a2.8,2.8,0,0,1,0,5.59Z"/><path class="cls-6" d="M3133.74,1241.81H2807a2.8,2.8,0,0,1,0-5.59h326.74a2.8,2.8,0,0,1,0,5.59Z"/><path class="cls-16" d="M1349.16,2384.69s177.91,250.73,479,290.65,1232.36-10.83,1260.53-64.15-402.92-280.65-405.21-287.89-388.31-135-388.31-135L1345.9,2322.05Z"/><path class="cls-30" d="M3066.42,2307.22h-128.3c-35.42,0-64.14,64.73-64.14,144.57s28.72,144.57,64.14,144.57h128.3c35.43,0,64.15-64.73,64.15-144.57S3101.85,2307.22,3066.42,2307.22Z"/><ellipse class="cls-31" cx="2938.12" cy="2451.79" rx="64.15" ry="144.57"/><polygon class="cls-32" points="1154.13 2114.75 1167.12 2140.33 1599.76 2408.16 1627.99 2447.8 1917.94 2505.68 1846.1 2228.52 1412.44 1997.55 1231.58 1949.65 1145.58 2069.41 1154.13 2114.75"/><path class="cls-30" d="M1341.57,2064.39h-110c-30.37,0-55,55.48-55,123.92s24.62,123.93,55,123.93h110c30.37,0,55-55.48,55-123.93S1371.94,2064.39,1341.57,2064.39Z"/><ellipse class="cls-31" cx="1231.58" cy="2188.31" rx="54.99" ry="123.93"/><path class="cls-5" d="M3144.77,2174c-18.25-191.07-328.45-414.19-328.45-414.19s-4.56-120.15-52.46-243.11S2620.17,1314.06,2425.15,1261s-670.58-13.68-863.88,0-295.94,417.46-295.94,417.46c-143.7,38.78-120.89,442.6-120.89,442.6q11.37,9.77,22.68,19.25c2.91-18.95,8.08-41.15,17.26-60.17,21-43.45,45.12-50.77,74.67-39.89s47.61,82.52,50,124.66c2.27,39.87,4.24,65.22-.29,87,97.61,71.78,189.27,129,271.43,174.29,5.61-109.45,25-417.86,69.81-540.69,0,0,273.91,35.93,316.68,362.71,27.15,207.44,19.82,299.74,10.86,339.49,653.46-10,1180.9-104,1180.9-104S3163,2365.11,3144.77,2174Z"/><g class="cls-33"><path class="cls-6" d="M2791.44,1789.78s3.22-63.4-16.17-168.33-62.73-188.48-199.58-260.34-386.61-61.59-515.76-47.9-285.68,51.32-323.32,184.77-17.56,314-17.56,314S2321.28,1744.59,2791.44,1789.78Z"/><path class="cls-6" d="M1719.05,1812s167.25,44.39,254.49,186.39S2042,2561.28,2042,2561.28l-13.85,52.22-110.18-17.14L1893.14,2136l-160.82-127.3-70.12-68.43Z"/><path class="cls-34" d="M2055.65,1770.86c1.71,5.14,192.45,50.47,273.71,233.54,12.83,34.21,29.27,34.5,35,23.47s-48.66-166.9-261.92-257Z"/><path class="cls-34" d="M2437.68,1770.86c1.71,5.14,192.45,50.47,273.71,233.54,12.83,34.21,29.27,34.5,35,23.47s-48.66-166.9-261.92-257Z"/><polygon class="cls-6" points="1727.2 1825.61 1719.05 1812.02 1265.33 1678.48 1200.32 1695.95 1182.07 1733.51 1682.73 1894.05 1712 1878.46 1727.2 1825.61"/><g class="cls-35"><path class="cls-10" d="M2087.3,2062.66a6.09,6.09,0,0,1-.1-12.17c1.65,0,165.44-2.81,201.17-26.37,2.88-1.89,3.48-6.36,1.8-13.28-6.11-25.15-40.05-70.78-84.46-113.54-48.33-46.54-94.76-76.19-124.19-79.32a6.09,6.09,0,0,1,1.29-12.11c17.23,1.84,38.51,11,63.25,27.22,21.57,14.15,45.11,33.32,68.09,55.44,46.65,44.92,81.14,91.8,87.85,119.43,3.76,15.5-1.69,22.87-6.93,26.33-38.67,25.49-200.8,28.27-207.68,28.37Z"/></g><g class="cls-35"><path class="cls-10" d="M2441.11,2043.84a6.08,6.08,0,0,1-.25-12.16c1.84-.08,184.82-8,216.67-12.49.81-.12,1.66-.24,2.08-2.84,2.15-13.32-15-49.79-51-91.15-30.74-35.32-85-86.16-169.07-127.78a6.09,6.09,0,0,1,5.4-10.91c85.85,42.51,141.38,94.54,172.85,130.7,35.39,40.66,57,81.28,53.81,101.08-1.17,7.29-5.69,12-12.4,13-32.42,4.55-210.28,12.27-217.84,12.6Z"/></g><g class="cls-35"><path class="cls-10" d="M2840.78,2010.88c-5.38,0-8.79-.05-9.56-.06a6.09,6.09,0,1,1,.21-12.17c1.2,0,119.93,1.8,156.57-18.74,1.68-2.18,2.28-4.85,1.88-8.34-4.56-40.14-128.3-133.69-175.59-166.35a6.09,6.09,0,1,1,6.92-10c.43.3,43.79,30.31,87.3,66.27,59.4,49.09,90.84,85.67,93.47,108.73.83,7.37-1,13.62-5.54,18.56a5.84,5.84,0,0,1-1.39,1.13C2962.35,2009.24,2870.87,2010.88,2840.78,2010.88Z"/></g></g><path class="cls-36" d="M1311.51,1685.32s49.61-208.73,126-265.76,273.4-47.81,270.29,17.11-31.37,288-33.65,356.43Z"/><path class="cls-37" d="M1674.17,1799.66a6.59,6.59,0,0,1-1.86-.27L1309.65,1691.6a6.54,6.54,0,0,1-4.51-7.8,1097.37,1097.37,0,0,1,34.58-112.25c29.58-79.91,61.17-132.82,93.89-157.24,28.16-21,74.35-35,126.74-38.28,49.85-3.15,96.36,3.88,124.44,18.81,25.46,13.55,30.13,30.4,29.57,42.15-1.46,30.44-8.32,94.58-15.58,162.48-8.28,77.45-16.85,157.54-18.06,193.85a6.56,6.56,0,0,1-6.55,6.34Zm-354.78-118.84L1668,1784.43c2.08-39.7,10-114.17,17.76-186.35,7.24-67.71,14.08-131.66,15.52-161.72.56-11.58-7.06-21.66-22.64-29.94-53-28.21-180-24.28-237.18,18.4C1375,1474.43,1328.2,1646.4,1319.39,1680.82Z"/><path class="cls-12" d="M2159.23,1347.44c103.92-2,297.86-11.89,433.57,80.11s138,176.79,154,319.36c0,0-497.81-44.48-973.37,23.95,0,0-20.54-146.4-1.71-235C1801.76,1394.47,2013.54,1350.3,2159.23,1347.44Z"/><path class="cls-37" d="M1773.39,1777.42a6.58,6.58,0,0,1-6.49-5.65c-.84-6-20.48-148.56-1.63-237.23,7.39-34.74,25.81-65.76,54.75-92.19,25.33-23.14,58.88-42.91,99.71-58.75,89.75-34.84,188.5-41.71,239.37-42.71q8.49-.17,17.75-.38c108.3-2.45,289.58-6.55,419.62,81.61,61.63,41.78,99,83.62,121,135.66,20.42,48.14,26.12,100.31,33.34,166.37q1.18,10.78,2.43,22a6.56,6.56,0,0,1-7.1,7.26c-1.24-.11-126.41-11.14-308-13.66-167.52-2.34-418.67,2.29-663.86,37.57A6,6,0,0,1,1773.39,1777.42Zm385.84-430,.13,6.56c-85.1,1.66-170.71,16.91-234.89,41.82-84.11,32.65-133.36,80.24-146.38,141.45-16.14,75.9-2.7,196.91,1,226.17,244-34.56,492.93-39.09,659.46-36.77,156,2.18,270.5,10.61,300.86,13q-.78-7.17-1.55-14.14c-14.11-129.18-22.63-207.15-148.69-292.61-126.58-85.81-305.24-81.77-412-79.36q-9.27.21-17.78.39Z"/><g class="cls-38"><path class="cls-14" d="M2407.83,1380.1c52.12,2,148,22.28,212.12,85.55s73.14,120.35,75.27,212.14c0,0-278.17-95.24-519.1-66.72,0,0-13.07-76.56,0-132.65C2197,1388.83,2334.76,1377.24,2407.83,1380.1Z"/><g class="cls-39"><path class="cls-40" d="M2145.75,1583.61s29.65-51.71,88.95-33.46,61.58-11.4,130-12.54,122,75.27,222.39,55.88,147.11,30.8,147.11,30.8l-4.56,119.76-101.5,4.56-490.6-59.31Z"/></g><path class="cls-14" d="M1867.26,1380.1c-52.11,2-148,22.28-212.12,85.55S1582,1586,1579.87,1677.79c0,0,278.17-95.24,519.1-66.72,0,0,13.07-76.56,0-132.65C2078.1,1388.83,1940.33,1377.24,1867.26,1380.1Z"/><g class="cls-41"><path class="cls-40" d="M1563,1625.44s93.19-75.26,181.33-66.94,157.38-57.1,242.91-16,139.42,19.68,139.42,19.68l-.85,70.14L1589.5,1696Z"/></g><path class="cls-3" d="M1747.21,1616.3s18.25-26.81,89.81-35.93,179.9-13.4,203.85,6.56,40.2,172.9,40.2,172.9l-320.74,33.26Z"/><g class="cls-42"><path class="cls-43" d="M1748.58,1634.75s15.5,83.65,128.78,72.62,218.59-9.12,218.59-9.12l.76,68.43-320.09,11.79S1747,1664.41,1747,1662.89s1.61-28.14,1.61-28.14"/></g><path class="cls-3" d="M2292.91,1747.46s-8-119.19,8.55-160.82,239.5-26.23,273.71-18.25,34.21,182.5,34.21,182.5Z"/><g class="cls-44"><path class="cls-43" d="M2374.4,1550.16c0,2.28-22.24,94.1,37.07,111.21s217.25,17.11,217.25,17.11l5.7,100.37-363.23-12V1565.56Z"/></g><rect class="cls-30" x="2135.21" y="1314.09" width="17.11" height="84.19" transform="translate(-39.04 63.77) rotate(-1.69)"/><rect class="cls-30" x="2258.18" y="1313.21" width="17.11" height="84.19" transform="translate(-38.96 67.39) rotate(-1.69)"/><path class="cls-37" d="M2086.59,1388.25H2354a25.37,25.37,0,0,1,25.37,25.37v33.08a25.37,25.37,0,0,1-25.37,25.37H2086.59a25.37,25.37,0,0,1-25.37-25.37v-33.08A25.38,25.38,0,0,1,2086.59,1388.25Z" transform="translate(-29.04 46.12) rotate(-1.18)"/></g><g class="cls-45"><g class="cls-46"><path class="cls-10" d="M1964.71,1294.1s198.44,492,198.44,492,142-11.76,147.12-11-177.34-479.15-177.34-479.15l-168.22-1.83"/></g><g class="cls-46"><path class="cls-10" d="M2187.37,1294.1s198.44,492,198.44,492,77-11.76,82.11-11-177.34-479.15-177.34-479.15l-103.21-1.83"/></g></g><ellipse class="cls-10" cx="2217.95" cy="2200.29" rx="80.4" ry="80.41"/><ellipse class="cls-10" cx="2964.42" cy="2135.97" rx="80.4" ry="80.41"/><path class="cls-10" d="M2351,2344.56a26,26,0,0,1,33.86-23.3c52.13,16.51,160.46,44.33,265.81,31.16,92.92-11.61,159-41.72,194.83-62.06a26,26,0,0,1,38.36,17.67l6.9,35.29a26,26,0,0,1-11.63,27c-33.14,20.87-119.53,67.9-240.95,79.9-120.65,11.92-230.19-21-272.44-36a26.08,26.08,0,0,1-17.3-26.08Z"/><path class="cls-30" d="M1847.11,2347.1h-128.3c-35.43,0-64.15,64.72-64.15,144.56s28.72,144.57,64.15,144.57h128.3c35.43,0,64.15-64.72,64.15-144.57S1882.54,2347.1,1847.11,2347.1Z"/><ellipse class="cls-31" cx="1718.81" cy="2491.66" rx="64.15" ry="144.57"/><ellipse class="cls-29" cx="1718.81" cy="2491.66" rx="25.88" ry="58.33"/><path class="cls-5" d="M1966.7,2248.2C1923.93,1921.42,1650,1885.49,1650,1885.49c-44.83,122.83-64.2,431.24-69.81,540.69,12.14,6.7,36.06,15.43,47.78,21.62,7.23-37.63,17.24-120.81,86.44-132,85.07-13.79,112.56,147.65,96.26,219.89,100,39.6,159.43,52.13,159.43,52.13l7.44-.11C1986.52,2547.94,1993.85,2455.64,1966.7,2248.2Z"/><g class="cls-47"><path class="cls-34" d="M1680.14,1886.06s-85.58,365-75.32,587.4l-76.41-35.36L1548.56,2080l79.07-227Z"/></g><g class="cls-48"><path class="cls-49" d="M1354.27,2288s32.53-249.06,64.63-333.46,89.31-276.4,104.61-400,117.94-197.7,212.59-165.76,133.37,184.77,140.82,238.38-126,131.17-138.53,212.15-166.26,441.51-163,586.88C1575.43,2426.18,1461.69,2364.51,1354.27,2288Z"/></g><rect class="cls-10" x="1959.05" y="1557.83" width="13.49" height="276.25" transform="translate(-485.79 2550.54) rotate(-60)"/><rect class="cls-10" x="2442.33" y="1669.24" width="276.25" height="13.49" transform="translate(-492.27 1514.6) rotate(-30)"/><path class="cls-6" d="M2628.72,2501.4c195.6-13.93,479.3-55.34,530.18-71.3,0,0,29.78-6.25,36,26.25s-13.24,54.18-36,60.45-388.25,57.37-521.69,70.89-576,37.27-660.31,21.5-61.58-101.51,13.69-103.79S2412.61,2516.8,2628.72,2501.4Z"/><g class="cls-50"><path class="cls-51" d="M1890.58,2547.83s282,66,744.75,11.47,604.22-96.57,604.22-96.57l.95,99.44-1363.28,85.1Z"/></g><path class="cls-3" d="M2439.69,1280.7s4.28-124-11.12-175.36-292.52-55.15-439.64-54.52-348.11-13.06-360.09,28.85S1616,1277.28,1616,1277.28Z"/><g class="cls-52"><polygon class="cls-8" points="1585.79 1153.81 2474.19 1164.93 2474.19 1182.89 1586.07 1177.19 1585.79 1153.81"/><g class="cls-53"><path class="cls-54" d="M1554.13,1226c12.28,1.89,525.27,74.11,678.71-27.48s88.91-176.18,88.91-176.18l180.7,54.53L2534,1317.74l-1002.23,7.17Z"/></g></g><ellipse class="cls-3" cx="2232.7" cy="2366.25" rx="40.2" ry="40.21"/><ellipse class="cls-3" cx="2991.95" cy="2308.47" rx="40.2" ry="40.21"/><path class="cls-34" d="M2529.84,2207.31c-8.25,0-16.11-.11-23.54-.31-76.58-2-125.34-13.16-125.83-13.27a4.68,4.68,0,0,1,2.12-9.12c.47.11,48.53,11.07,124.24,13,69.84,1.83,178.16-3.84,297.68-41.18a4.68,4.68,0,0,1,2.79,8.94C2699.16,2199.19,2600.08,2207.31,2529.84,2207.31Z"/><path class="cls-34" d="M2546.27,2253.5q-18.81,0-37.57-.89c-81.14-3.87-134-19.25-134.48-19.4a4.68,4.68,0,0,1,2.65-9c.51.15,52.49,15.25,132.59,19,73.85,3.49,187.41-2.19,309.05-49.1a4.68,4.68,0,1,1,3.36,8.73,755.05,755.05,0,0,1-170.59,43.59A787.39,787.39,0,0,1,2546.27,2253.5Z"/><path class="cls-34" d="M2558.5,2299.8q-23.65,0-47.39-1.58c-85.67-5.73-142.53-25.34-143.1-25.53a4.68,4.68,0,0,1,3.09-8.84c.56.19,56.47,19.44,141,25.05,77.87,5.16,196.69-.54,320.46-57a4.68,4.68,0,1,1,3.89,8.52,656,656,0,0,1-175.81,51.9A693.13,693.13,0,0,1,2558.5,2299.8Z"/><ellipse class="cls-55" cx="2217.95" cy="2200.29" rx="50.21" ry="50.21"/><ellipse class="cls-55" cx="2964.42" cy="2135.97" rx="51.48" ry="51.48"/><path class="cls-56" d="M1778.55,979.86a36.36,36.36,0,1,1,36.36-36.36A36.4,36.4,0,0,1,1778.55,979.86Zm0-65.23a28.87,28.87,0,1,0,28.87,28.87A28.9,28.9,0,0,0,1778.55,914.63Z"/><polygon class="cls-10" points="1546.29 826.03 1487.67 867.79 1558.84 905.68 1546.29 826.03"/><path class="cls-57" d="M1679.85,905.68a3.75,3.75,0,0,1-2.3-.79L1644.29,879a3.76,3.76,0,0,1,.68-6.34l42.55-20.4a3.74,3.74,0,0,1,5.29,4.11l-9.29,46.27a3.75,3.75,0,0,1-2.37,2.77A3.65,3.65,0,0,1,1679.85,905.68Zm-26.18-28.85,23.7,18.43,6.62-33Z"/><path class="cls-10" d="M1787.75,1080.92a3.76,3.76,0,0,1-3.25-1.87l-17.08-29.6a3.75,3.75,0,0,1,1.37-5.12l29.59-17.09a3.76,3.76,0,0,1,5.12,1.37l17.08,29.6a3.74,3.74,0,0,1-1.37,5.12l-29.59,17.09A3.75,3.75,0,0,1,1787.75,1080.92Zm-12-32,13.35,23.12,23.11-13.35-13.35-23.11Z"/><path class="cls-9" d="M1432.93,2308.47l-43.81-24.63-46.47,56.74s29.65,24,34.21,42.2a29.65,29.65,0,0,1,.48,7.71C1432,2366.31,1434.58,2325.68,1432.93,2308.47Z"/><path class="cls-58" d="M1490.05,2340.58l-57.12-32.11c1.65,17.21-.93,57.84-55.59,82-1,28.25-21.9,102.86-14.74,122.32,8,21.67,37.07,30.8,53.6,25.66s49.14-112.91,61.4-139.15S1492,2356.55,1490.05,2340.58Z"/><path class="cls-7" d="M1337.32,1690.64l-16.91,5.8s-100.93,75.28-156.53,120.62-141.13,120.61-151.39,177.07,142,237.81,219,294.27,105.87,71.86,105.87,71.86,60.92,2.56,60.07-86.4c0,0-194.16-177.08-213-228.4s114.61-71,159.09-132.59,63.3-177.93,63.3-177.93Z"/><g class="cls-59"><path class="cls-60" d="M1374.29,1777.71s-103.9,131.73-195.65,178.78-29.3,139.76,25.44,185.79,215.55,191.46,215.55,191.46l13.63-76.13-230-227.55,230-109.69Z"/><g class="cls-61"><path class="cls-62" d="M1377.53,2359.21c-2-1.56-202.75-157.11-288-267.27-37.71-48.73-50.9-82.25-44.1-112.11,6.43-28.21,31-51.23,62-80.37,7.22-6.78,14.69-13.79,22.5-21.37,76.8-74.6,234-183.36,235.55-184.45l3.19,4.62c-1.58,1.09-158.37,109.59-234.83,183.86-7.84,7.62-15.33,14.64-22.57,21.44-31.54,29.59-54.33,51-60.38,77.52-6.31,27.67,7,60.79,43.06,107.42,84.84,109.59,285,264.71,287,266.26Z"/></g></g><path class="cls-58" d="M1081,2580.57a101.62,101.62,0,0,1-17.74,5.4c-56.26,11.79-130.77,26.24-134.57,48.29s-20.15,58.55,18.62,62.35,204.9,16,216.69,7.6c11.51-8.17,12.14-56.84,21-86.45C1114,2621.09,1089.42,2596.41,1081,2580.57Z"/><path class="cls-9" d="M1210,2551.76l-74.31-27.47s-12.69,39.14-54.68,56.28c8.44,15.84,33,40.52,104,37.19.2-.69.41-1.38.63-2C1195.15,2586.35,1210,2551.76,1210,2551.76Z"/><path class="cls-8" d="M1366.21,1726s-80,254.44-99.69,313.47-147.12,482.25-147.12,482.25,19.68,43.63,95.8,35.93c0,0,129.16-271.81,165.94-344.53s131.72-232.68,142-290.84,15.4-175.37,15.4-175.37l-12-20.91Z"/><g class="cls-63"><g class="cls-64"><path class="cls-65" d="M1477.79,1707.56s44.47,109.5-6.84,226.69-109.82,143.3-139.16,277.81S1216.91,2548.45,1128,2567.27l123.17,20.42L1511.73,2125l43.89-255.77,2.16-168.1Z"/></g><g class="cls-61"><rect class="cls-62" x="834.58" y="2136.76" width="887.09" height="5.62" transform="translate(-1162.38 2644.82) rotate(-70.84)"/></g><g class="cls-61"><path class="cls-62" d="M1536.39,1864.63c-22.36,0-39.79-6.72-51.89-20-24.44-26.89-20.81-72.67-16.48-97.57.11-.64.19-1.06.21-1.26a2.3,2.3,0,0,0,0,.23h5.62a13.52,13.52,0,0,1-.28,2c-3.35,19.23-8.59,66.78,15.09,92.83,12.53,13.78,31.62,19.78,56.73,17.84l.44,5.6Q1541,1864.64,1536.39,1864.63Z"/></g></g><path class="cls-9" d="M1220.45,1414.3l-97.15,14.77s46.57-146.38,76.22-183.45,87.81-41.63,118-41.92,39.06-12.83,19.1-22.81-43.62-12.26-39.92-26,19.11-31.36-4.84-49-67-38.78-94.66-8.84-22.52,77-37.92,92.1S1050.69,1379,1033.59,1426s-27.75,79.46,47.51,86.3,167-24.25,167-24.25Z"/><g class="cls-66"><path class="cls-67" d="M1215.68,1450.36s-30,59.31-185.13,54.37c0,0,82.52,28.92,83.92,30.79s87.9-6.76,87.9-6.76,31.93-35.44,31.93-36.58S1215.68,1450.36,1215.68,1450.36Z"/></g><path class="cls-9" d="M1785.52,1587.61s-63.87,95.43-144.08,161.58c-19.77,18.63-29.65,132.69-19.77,148.66s49.42,27,63.87-11.79-2.28-105.31,13.3-117.86,77.55-57.79,118.61-90.86,70.71-69.2,65.76-87.07-19.76-35.74-19.76-35.74Z"/><g class="cls-68"><path class="cls-67" d="M1855.45,1563.71s31.81,16.89,12.37,50.67-142.3,140.73-142.3,140.73L1829.88,1705l90.34-98.72-1.43-51.16L1893,1525.37Z"/></g><path class="cls-10" d="M1599.62,1310.83l5.71,4.94s55.5,2.66,103,8.75,159.47,228.21,159.47,228.21-8.56,49.33-89.53,43c0,0-94.08-134-110-128.31s-129.72,279.44-129.72,279.44-135.15,51.33-218.11-50.47c0,0,27.94-162.06,54.55-250.64l-146.36,60.45s-35-25.85-35.73-98.47c0,0,165.74-76,192.35-97s109.1-12.55,150.16-4.56Z"/><g class="cls-69"><path class="cls-70" d="M1186.41,1452.07s19.38,21.1,74.69,12.55,133.25-89.16,133.25-89.16l-20.21,73.09-128.81,95-46-20.53Z"/><path class="cls-70" d="M1747.22,1333.27s117.55,227.81,46.18,281.9l122.32-56.67L1786,1375.65Z"/><path class="cls-71" d="M1666,1481.16l2.28-13.69s-26.87-9.82-57.34,49.27-56.13,67.64-109.73,29.43-63.87,8.55-27.94,70.72-177.91,130-176.2,130,235.87,89.44,236,87.21,130-115.72,130-115.72Z"/><path class="cls-7" d="M1277.35,1505.74a2.37,2.37,0,0,1-1.6-.63c-33.63-31.55-44.51-65.87-47.72-89.11-3.48-25.23,1-42.77,1.16-43.5a2.34,2.34,0,1,1,4.53,1.17c0,.18-4.42,17.55-1,41.9,3.13,22.43,13.69,55.58,46.26,86.12a2.34,2.34,0,0,1-1.61,4Z"/><path class="cls-7" d="M1568.15,1354.62a59.35,59.35,0,0,1-19.47-3.37c-40.19-13.86-29.73-53.8-29.62-54.2a2.34,2.34,0,1,1,4.51,1.24c-.41,1.5-9.34,36.13,26.64,48.54,20.49,7.06,37.14.7,47.49-5.87,13.41-8.51,22.29-21,25.82-29.16a2.34,2.34,0,1,1,4.29,1.86c-4,9.16-13.32,22.18-27.6,31.25A59.85,59.85,0,0,1,1568.15,1354.62Z"/><path class="cls-7" d="M1776.46,1583.77a123.24,123.24,0,0,1-14.71-.78,2.34,2.34,0,1,1,.59-4.64c.45.06,45.1,5.47,71.42-15.29,10.84-8.56,17.17-20.48,18.8-35.46a2.34,2.34,0,1,1,4.65.51c-1.77,16.27-8.69,29.27-20.57,38.64C1818.31,1581.2,1792.51,1583.77,1776.46,1583.77Z"/></g><path class="cls-11" d="M1516.28,1107.33s-32.51-25.38-28.51-78.7,57.87-64.44,80.4-53,20,40.21,47,41.64,90.38,10.83,114.9,86.11-61.87,155.4-126.87,157.68Z"/><g class="cls-72"><path class="cls-73" d="M1478.64,1075.68c.86-.86,0-55.89,31.65-55s74.13,20.24,83.54,46.48,18,47.62,51.6,56.74-8,35.12,23.1,60.74,57,17.11,57,17.11l-124,71.85-76.41-99.51Z"/></g><path class="cls-9" d="M1530.82,1072.26s-38,56.08-41.06,107,18.63,66.16,54.74,67.3c17.87,0-9.12,59.69-9.12,59.69s-1.52,23.19,25.09,26.61,44.86-17.11,44.86-17.11-3.8-52.84,4.94-66.53-17.87-37.83-1.9-46.48,32.31-3,41.81-34.5-19.38-24.34-33.07-29.66-54.74-30.79-51.32-68.43C1565.79,1070.17,1551,1075.11,1530.82,1072.26Z"/><g class="cls-74"><path class="cls-67" d="M1512.19,1074.35s12.17,18.25,42.2,21.29c0,0,2.28,37.26,51.32,52.85s58.3,8.36,58.3,8.36l-98.22-104.17-43.34,12.93Z"/><polygon class="cls-67" points="1542.51 1253.33 1544.5 1246.58 1582.42 1241.35 1542.79 1270.43 1542.51 1253.33"/></g><path class="cls-3" d="M3224.94,938.38a5.27,5.27,0,0,1-5.27-5.27V852.7a5.28,5.28,0,0,1,10.55,0v80.41A5.27,5.27,0,0,1,3224.94,938.38Z"/><path class="cls-3" d="M3259.7,898.18h-69.3a5.28,5.28,0,0,1,0-10.55h69.3a5.28,5.28,0,0,1,0,10.55Z"/><path class="cls-3" d="M2635.93,1146.72a5.27,5.27,0,0,1-5.27-5.27V1061a5.28,5.28,0,0,1,10.55,0v80.41A5.28,5.28,0,0,1,2635.93,1146.72Z"/><path class="cls-3" d="M2670.69,1106.52h-69.3a5.28,5.28,0,0,1,0-10.55h69.3a5.28,5.28,0,0,1,0,10.55Z"/><path class="cls-3" d="M3274.08,1065.68a2.71,2.71,0,0,1-2.71-2.72v-41.38a2.72,2.72,0,0,1,5.43,0V1063A2.72,2.72,0,0,1,3274.08,1065.68Z"/><path class="cls-3" d="M3292,1045H3256.3a2.72,2.72,0,0,1,0-5.43H3292a2.72,2.72,0,0,1,0,5.43Z"/><path class="cls-3" d="M3266.66,1194a3.93,3.93,0,0,1-3.93-3.93v-60a3.94,3.94,0,1,1,7.87,0v60A3.93,3.93,0,0,1,3266.66,1194Z"/><path class="cls-3" d="M3292.6,1164h-51.71a3.94,3.94,0,1,1,0-7.87h51.71a3.94,3.94,0,0,1,0,7.87Z"/><path class="cls-3" d="M2603.77,1006.92a3.93,3.93,0,0,1-3.94-3.93V943a3.94,3.94,0,1,1,7.87,0v60A3.93,3.93,0,0,1,2603.77,1006.92Z"/><path class="cls-3" d="M2629.7,976.93H2578a3.94,3.94,0,0,1,0-7.88h51.71a3.94,3.94,0,1,1,0,7.88Z"/></svg>