<svg xmlns="http://www.w3.org/2000/svg" xmlns:xlink="http://www.w3.org/1999/xlink" viewBox="0 0 4680 3120"><defs><style>.cls-1{fill:none;}.cls-2{fill:#cc2e45;}.cls-3{isolation:isolate;}.cls-10,.cls-4{fill:#fff;}.cls-4{opacity:0;}.cls-5{fill:#e0eaf6;}.cls-6{clip-path:url(#clip-path);}.cls-7{fill:#98cfe5;}.cls-8{clip-path:url(#clip-path-2);}.cls-9{opacity:0.6;}.cls-11{opacity:0.2;}.cls-12{fill:#65a9c4;}.cls-13{fill:#88c5d8;}.cls-14{fill:#ddd;}.cls-15{fill:#e9fbff;}.cls-16{opacity:0.23;mix-blend-mode:multiply;}.cls-17{fill:#00a89c;}.cls-18{fill:#9bc4ea;}.cls-19{fill:#ea5c77;}.cls-20{fill:#ff9739;}.cls-21{clip-path:url(#clip-path-3);}.cls-22{fill:#ff7300;}.cls-23{opacity:0.5;}.cls-24{fill:#f1f1f1;}.cls-25{fill:#161b3c;}.cls-26{opacity:0.3;}.cls-27{fill:#ffbe88;}.cls-28{fill:#f98c8f;}.cls-29{fill:#2848a3;}.cls-30{fill:#3c5cc9;}.cls-31{fill:#e6edff;}.cls-32{fill:#ebafb5;}.cls-33{clip-path:url(#clip-path-5);}.cls-34{fill:#ef8998;}.cls-35{fill:#291493;}.cls-36{clip-path:url(#clip-path-6);}.cls-37{fill:#ea5370;}.cls-38{clip-path:url(#clip-path-7);}.cls-39{fill:#0a0f24;}.cls-40{clip-path:url(#clip-path-8);}.cls-41{fill:#ffb6d4;}.cls-42{clip-path:url(#clip-path-9);}.cls-43{clip-path:url(#clip-path-10);}.cls-44{fill:#ea4262;}.cls-45{fill:#6b2e00;}.cls-46{clip-path:url(#clip-path-11);}.cls-47{fill:#426ac4;}.cls-48{fill:#8ab6eb;}.cls-49{fill:#b6dbff;}.cls-50{fill:#e9f5ff;}.cls-51{clip-path:url(#clip-path-12);}.cls-52{clip-path:url(#clip-path-13);}.cls-53{fill:#f25a66;}.cls-54{fill:#e85661;}.cls-55{clip-path:url(#clip-path-14);}.cls-56{opacity:0.7;}.cls-57{fill:#7296e5;}.cls-58{fill:#512156;}</style><clipPath id="clip-path"><path class="cls-1" d="M3814.16,2507.74H3461.07a881.86,881.86,0,0,0,101.16-126.45l98.05-148.63c185.67-281.45,197.46-646.25,30.38-939.53l-58.47-102.7c-185.9-326.33-554.09-496.83-917.4-424.79l-17.89,3.55A852.51,852.51,0,0,1,2404,776L1735.91,675.28c-264.24-39.82-531.73,46.46-725.42,234C834.23,1079.81,739.73,1313.56,739.73,1552A900,900,0,0,0,799.61,1875l120.44,313.55c70.09,182.46,195.33,331.55,351.9,430.35h0q36.54,23.07,75.27,42.42,12.9,6.43,26,12.45a854.27,854.27,0,0,0,236.28,69.31q29.12,4.13,58.74,6.25,22.2,1.59,44.63,2l225.17,4.33,225.16,4.33h1651a126.13,126.13,0,0,0,0-252.26Z"/></clipPath><clipPath id="clip-path-2"><rect class="cls-1" x="786.33" y="2325.83" width="3546.76" height="539.72"/></clipPath><clipPath id="clip-path-3"><path class="cls-1" d="M3403.2,1443.85l58.51,1047.42-232.06,9.16L3212.5,1732l-41.67,715.52-231.34-10.05,144.88-1035.73S3397.33,1338.81,3403.2,1443.85Z"/></clipPath><clipPath id="clip-path-5"><path class="cls-1" d="M3042.56,1272.26s-60.87,46.19-120.65,41.87-62-206.79-62-206.79-7.6-38.39-25.46-49.42,1-71.28,13-72.34c8.7-.77,5.69,22.39,3.38,35.16a1.19,1.19,0,0,0,2.22.79c5-9.06,13.86-22.91,19.4-20.33,6.32,2.93-.35,29.22-3.65,40.81a1.2,1.2,0,0,0,2.06,1.12c6.75-7.73,20.69-22.55,23.86-17,3,5.34-5.41,21.95-10.37,30.8a1.2,1.2,0,0,0,1.78,1.54c6.34-4.89,16.7-11.77,19.47-7.08,4.07,6.91-9.79,23.78-9.79,23.78l27.85-.79,45.72,109.56s51.86-27.54,54.8-30.13S3083.11,1199.06,3042.56,1272.26Z"/></clipPath><clipPath id="clip-path-6"><path class="cls-2" d="M3288.3,781.92s-17.56-23.54-47.14-16.87-111,24.28-126.18,47.29,3.71,104.32-1.95,143.35-43.36,115.15-44.14,140.68,177.36,48.89,177.36,48.89L3362,1116.47s-13.09-117.06-1.34-180.06C3368.48,894.4,3383.56,782.87,3288.3,781.92Z"/></clipPath><clipPath id="clip-path-7"><path class="cls-1" d="M3255.72,1028.43s128,5.39,169,46.34,100.47,122,79.75,133.85-33.17-2.81-33.17-2.81,25.24,67.71-31.41,32.47c3.77,27,5.59,38.19-28,21.85,6.74,25.38-5.29,25.72-15.05,26s-22.69,69.07-15.91,99,42.25,87.54,20.52,90.41-32-13.38-32-13.38,2.21,24.75-18.88,23.85-30.58-17.94-30.58-17.94-10.1,15.33-25.13,15.76-23-17.4-23-17.4-4.94,11.42-23.79,9.7-27.63-19.52-27.63-19.52a30.5,30.5,0,0,1-28.81,18.11c-21.81-.13-30.14-28.47-30.14-28.47s-4.1,14.4-24.37,15.73-28.65-29.27-28.65-29.27-10.09,15.33-37.81,19.12-44.59-7.76-32.43-29.91,35.77-37.86,33.14-77.64-4.24-69.82-4.24-69.82-35.67,6.27-38.06-20.73c-29.19-17.22-23.83-49-2-70.63-42.27-1.06-42.85-21.35-43.21-34.12s68.64-36.75,102.51-71.34C3128.07,1035.06,3255.72,1028.43,3255.72,1028.43Z"/></clipPath><clipPath id="clip-path-8"><path class="cls-1" d="M3347.39,1037.76s-82.1,399,70.91,349.53,103.81,54.21,112.71,85,68,135.44,32.2,145.48-173.53,33-238.3,11.77-50.32-289.29-48.73-374.59,21.44-226.55,41.36-223S3347.39,1037.76,3347.39,1037.76Z"/></clipPath><clipPath id="clip-path-9"><path class="cls-1" d="M3496.67,1212s101.12,200.39,6.41,226-210.14-87.29-210.14-87.29-35.8.25-47.92-20.46,2-42.36,4.13-56.49,2.9-21.16,11.86-23.42,20.18,4.44,30.06-.85,1.48-30.49,18.14-32.17,7.06,33.46,14.86,45.27,99.34,57.35,99.34,57.35l-19.87-34.34s11.19-6.53,8.4-25.5c24,8.37,34.57,8,28-21.85,30.87,19.18,46.56,6.7,31.41-32.47C3492.62,1214.74,3496.67,1212,3496.67,1212Z"/></clipPath><clipPath id="clip-path-10"><path class="cls-1" d="M3285.53,1035.83c-4-14.41-11.87-34.87-12.09-41.35-.15-4.35-.15-12.48-.09-19.8,10,1.64,21.62-2.25,30.4-11.2,13.05-13.29,14.86-32.67,4.05-43.28-6.69-6.57-16.65-8.23-26.38-5.38l1.49-10.9s-58.75,2.51-87.74-69.22c-31.09-3.76-55.94,23.44-55.94,23.44l-2.3,71.21c-.64,19.81,7,39.2,21.71,52.49a60.21,60.21,0,0,0,25.19,13.84,65.83,65.83,0,0,0,22,1.85l-6.66,31.12-16.62,15.2-8.54,47.19,90.27,16.32,41.71-67.82Z"/></clipPath><clipPath id="clip-path-11"><path class="cls-1" d="M2911,1059.28l-23.1-116.78,210.72-119.67L3115,854.11a343.94,343.94,0,0,1,34.64,214.56l-2.58,15.88Z"/></clipPath><clipPath id="clip-path-12"><path class="cls-1" d="M2462.85,505.57H2378l-26.46,60.89H1923.41l-33.68-60.89H1776.82c-78.56,0-142.83,63.5-142.83,141.1V2276.41c0,77.61,64.27,141.11,142.83,141.11h686c78.55,0,142.83-63.5,142.83-141.11V646.67C2605.68,569.07,2541.4,505.57,2462.85,505.57Z"/></clipPath><clipPath id="clip-path-13"><path class="cls-1" d="M2031.92,900.43s22.81-80.33,198.64-10.65,252.94,195.15,240.09,299.48-23.13,536.11,95.1,644.05-417.12,280.14-417.12,280.14l-428.45-100.23s95.09-465.19,72-619.4S1726.83,923.63,2031.92,900.43Z"/></clipPath><clipPath id="clip-path-14"><path class="cls-1" d="M2386.69,1746.77l-51.4,182.69L1900,1934.39l-50.32-203.73s115.52-42.43,148.55-66.64c21.46-15.71,23.21-65.49,21.79-98.49-44.87-20.18-83.14-53.82-110.07-96.25a268.85,268.85,0,0,1-37.37-95.48,278.86,278.86,0,0,1-4.53-42.36,275.83,275.83,0,0,1,6.25-67.33c11.28-4.63,71.52-32.41,128.25-115.63a132.77,132.77,0,0,1,13.41-20.82c59.68-77.34,102.24,16,102.24,16,45-65.13,122.65-38.17,136.6,37.68,23,124.83,107.59,101.83,107.59,101.83a275.12,275.12,0,0,1,.54,80.16A268.78,268.78,0,0,1,2324,1470c-30.12,47.63-74.69,84.3-127.35,102.94l6,45.31a82.09,82.09,0,0,0,46.24,63.38Z"/></clipPath></defs><title>02</title><g class="cls-3"><g id="_02" data-name="02"><rect id="_02-2" data-name="02" class="cls-4" width="4680" height="3120"/><path class="cls-5" d="M3814.16,2507.74H3461.07a881.86,881.86,0,0,0,101.16-126.45l98.05-148.63c185.67-281.45,197.46-646.25,30.38-939.53l-58.47-102.7c-185.9-326.33-554.09-496.83-917.4-424.79l-17.89,3.55A852.51,852.51,0,0,1,2404,776L1735.91,675.27c-264.24-39.81-531.73,46.47-725.42,234C834.23,1079.81,739.73,1313.56,739.73,1552A900,900,0,0,0,799.61,1875l120.44,313.55c70.09,182.46,195.33,331.55,351.9,430.35q36.54,23.07,75.27,42.42,12.9,6.43,26,12.45a854.37,854.37,0,0,0,236.28,69.31q29.12,4.13,58.74,6.25,22.2,1.59,44.63,2l225.17,4.33,225.16,4.33h1651a126.13,126.13,0,0,0,0-252.26Z"/><g class="cls-6"><rect class="cls-7" x="786.33" y="2325.83" width="3546.76" height="539.72"/><g class="cls-8"><g class="cls-9"><rect class="cls-10" x="739.73" y="2346.5" width="3647.33" height="11.56"/></g><g class="cls-9"><rect class="cls-10" x="739.73" y="2426.58" width="3647.33" height="11.56"/></g><g class="cls-9"><rect class="cls-10" x="739.73" y="2506.66" width="3647.33" height="11.57"/></g><g class="cls-9"><rect class="cls-10" x="739.73" y="2586.74" width="3647.33" height="11.56"/></g><g class="cls-9"><rect class="cls-10" x="739.73" y="2666.82" width="3647.33" height="11.56"/></g><g class="cls-9"><rect class="cls-10" x="739.73" y="2746.9" width="3647.33" height="11.56"/></g><g class="cls-9"><rect class="cls-10" x="739.73" y="2826.98" width="3647.33" height="11.56"/></g></g><g class="cls-11"><ellipse cx="3293.21" cy="2609.22" rx="488.85" ry="49.28"/></g><polygon class="cls-12" points="1092.65 2386.21 1137.89 2386.21 1224.58 2146.03 1137.89 2116.82 1092.65 2386.21"/><polygon class="cls-12" points="1570.15 2146.03 1656.85 2386.21 1702.08 2386.21 1656.85 2116.82 1570.15 2146.03"/><rect class="cls-7" x="1039.88" y="1416.01" width="712.44" height="766.84"/><rect class="cls-7" x="1039.88" y="1416.85" width="712.44" height="273.54"/><rect class="cls-13" x="1039.88" y="1688.95" width="712.44" height="248.97"/><circle class="cls-14" cx="1400.81" cy="1586.07" r="29.21" transform="translate(-274.66 293.52) rotate(-10.9)"/><circle class="cls-14" cx="1396.1" cy="1840.14" r="29.21" transform="translate(-597.92 674.34) rotate(-22.5)"/><circle class="cls-14" cx="1391.38" cy="2094.2" r="29.21" transform="translate(-547.16 493.06) rotate(-16.84)"/><rect class="cls-7" x="2757.53" y="448.3" width="1517.84" height="1330.34"/><rect class="cls-15" x="2814.45" y="481.86" width="1404" height="1230.56"/><path class="cls-12" d="M2814.45,1837.1s72.68.54,96.64.38,60,14.89,72.62-15-68.66-434.55-106.73-555c157.75-70.59,407.87-300.58,412.26-785H2814.45Z"/><g class="cls-16"><path class="cls-17" d="M2853.4,1274.57s18.93,482,14.12,563.07l9.46-1.93s-3.42-471.33-18.46-564.23Z"/></g><g class="cls-16"><path class="cls-17" d="M2867.3,1271.48s60.31,485,55.5,566h12.88s-47.74-477-62.78-569.93Z"/></g><g class="cls-16"><path class="cls-17" d="M3179.83,482.59C3177,631.11,3235.58,1016.53,2853.4,1264c-5.45,3.52-5.57,13.93,0,10.61,427.69-255.27,357.93-792,357.93-792Z"/></g><g class="cls-16"><path class="cls-17" d="M3057.53,482.59c6,105.64,33.26,519.42-204.13,781.37,0,0,259.94-209.6,221.52-781.37Z"/></g><g class="cls-16"><path class="cls-17" d="M2904.17,482.59s21.88,645.92-50.77,781.37c0,0-1.34,12.9,0,10.61,78.81-134.84,72.7-467.12,69.4-792Z"/></g><polygon class="cls-18" points="2814.45 1267.55 2879.71 1276.43 2883.33 1264.64 2814.45 1244.82 2814.45 1267.55"/></g><path class="cls-2" d="M1160.11,1088.41c-65.78,70.47-170.76,128.22-283.09,152.83,0,7.5-.22,49.07-1.08,240.65-1.14,255.57,242.09,380.46,279.85,399.62,36.59-16.84,282.88-141.53,284-397.1.86-191.58,1-233.15,1.08-240.65C1328.78,1218.15,1225.27,1159.46,1160.11,1088.41Z"/><path class="cls-10" d="M1162.32,1086.38l-2.19-2.39-2.21,2.37c-66.34,71.06-171.59,127.86-281.54,152l-2.35.51-1.09,243.06a380.14,380.14,0,0,0,38.24,168.88c20.94,43.23,50.54,84.18,88,121.71,30.32,30.4,81.86,74.45,155.28,111.72l1.29.66,1.32-.61c29.13-13.41,284.6-138.52,285.77-399.82l1.09-243.05-2.35-.54C1332.56,1215.94,1228.17,1158.2,1162.32,1086.38Zm274.49,398c-1.13,254-246.59,377.71-281,393.78-72-36.77-122.62-80-152.45-110-37-37.06-66.17-77.46-86.82-120.08a374.29,374.29,0,0,1-37.64-166.25L880,1243.65c109-24.36,213.31-80.53,280.08-150.84,66.27,71.06,169.69,128.16,277.79,153.33Z"/><path class="cls-19" d="M1159.82,1161.65c-54.51,58.4-141.5,106.25-234.58,126.64,0,6.22-.18,40.66-.89,199.42-1,211.78,200.6,315.27,231.89,331.15,30.32-14,234.41-117.28,235.35-329.06.71-158.76.87-193.2.89-199.42C1299.59,1269.16,1213.81,1220.53,1159.82,1161.65Z"/><circle class="cls-10" cx="1159.73" cy="1478.35" r="124.45"/><path class="cls-10" d="M1144.86,1487.84c-6.35-27.22-34.82-52.08-49.72-57.51L1050,1475.7c28.18,12.7,59,48.69,63.06,85.53l45.1,7c19-37.55,68.11-127.38,165.79-175.68-1.88-7.35-8.78-17.52-9.54-18.57C1261.77,1382.09,1190.08,1430.1,1144.86,1487.84Z"/><path class="cls-20" d="M1158.57,1565.51l-1.94-.3c-.3.59-.61,1.18-.92,1.77Z"/><path class="cls-20" d="M1115.94,1560.91c-.08-.73-.19-1.46-.29-2.2l-2.14-.34Z"/><path class="cls-20" d="M1323.77,1392.19l-.29.14.09.31Z"/><path class="cls-20" d="M1094.17,1433c.55.21,1.09.45,1.63.69l1.33-1.35Z"/><path class="cls-20" d="M1322.45,1387.49c-.73-1.6-1.54-3.15-2.4-4.67a96,96,0,0,0-5.64-8.85,97.24,97.24,0,0,1,5.29,9c.8,1.55,1.55,3.12,2.21,4.73a35.14,35.14,0,0,1,1.57,4.6l.29-.14-.2.45-.09-.31q-13.73,6.6-26.79,14.49c-8.78,5.33-17.29,11.13-25.54,17.26-2,1.56-4.12,3.08-6.14,4.68l-6,4.82c-3.94,3.32-7.86,6.65-11.66,10.12q-11.43,10.38-22,21.68a405.32,405.32,0,0,0-38.39,48.35,484.3,484.3,0,0,0-30.33,51.48l1.94.3-2.86,1.47c.31-.59.62-1.18.92-1.77l-41-6.5c.1.74.21,1.47.29,2.2l-2.43-2.54,2.14.34a95.41,95.41,0,0,0-7.26-25.15,124.64,124.64,0,0,0-14.28-24.34,129.88,129.88,0,0,0-19.19-20.65,104.87,104.87,0,0,0-20-13.7l-2.88,2.91-.88-4.76c1.27.58,2.52,1.21,3.76,1.85l40.83-41.2c-.54-.24-1.08-.48-1.63-.69l3-.66-1.33,1.35a68.08,68.08,0,0,1,14.31,8.93,108.11,108.11,0,0,1,13.87,13.11,97.09,97.09,0,0,1,11.24,15.36,66,66,0,0,1,7.26,17.32l1.21,4.94,3.09-4a341.56,341.56,0,0,1,34.71-38.25A371.75,371.75,0,0,1,1221.3,1418a317.86,317.86,0,0,1,44.23-27,218.81,218.81,0,0,1,23.84-10.21,155.56,155.56,0,0,1,25-6.84,153.68,153.68,0,0,0-25.35,5.93,218.77,218.77,0,0,0-24.26,9.6,314.54,314.54,0,0,0-45.28,26,372.12,372.12,0,0,0-40.85,32.61,348.13,348.13,0,0,0-32.72,34.55c.49,1.53.92,3.08,1.28,4.66l-4.29-1c1-1.25,2-2.48,3-3.71a72.7,72.7,0,0,0-6.29-14.12,102.63,102.63,0,0,0-11.71-16.3,114.84,114.84,0,0,0-14.43-13.89c-1.34-1-2.65-2.06-4-3s-2.74-2-4.2-2.83-2.88-1.8-4.44-2.57a47.14,47.14,0,0,0-4.77-2.18l-1.61-.7-1.35,1.35-45.23,45.29-3,3,3.86,1.78a95.82,95.82,0,0,1,22.23,14.7,128.65,128.65,0,0,1,18.33,19.7,118.39,118.39,0,0,1,13.67,23.12,88.56,88.56,0,0,1,7.17,25.64l.25,2.21,2.18.33,45.12,6.84,2,.3.89-1.77c4.57-9.13,9.33-18.14,14.4-27s10.4-17.53,16-26a412.82,412.82,0,0,1,37.24-48.41,359.86,359.86,0,0,1,44.47-41.92c8-6.31,16.3-12.3,24.88-17.85s17.48-10.61,26.54-15.36l.29-.15-.08-.3A34.31,34.31,0,0,0,1322.45,1387.49Z"/><path class="cls-20" d="M1052.09,1477.78l2.88-2.91c-1.24-.64-2.49-1.27-3.76-1.85Z"/><path class="cls-20" d="M1147.23,1487.29c-.36-1.58-.79-3.13-1.28-4.66-1,1.23-2,2.46-3,3.71Z"/><path class="cls-20" d="M3084.37,1401.77,2939.49,2437.5l231.34,10.05L3212.5,1732l17.15,768.4,232.06-9.16L3403.2,1443.85C3397.33,1338.81,3084.37,1401.77,3084.37,1401.77Z"/><g class="cls-21"><g class="cls-9"><polygon class="cls-22" points="3271.22 2407.79 3204.07 1673.25 3042.51 2372.32 2879.65 2418.89 2868.59 2502.45 3546.71 2538.32 3482.07 2416.22 3271.22 2407.79"/></g></g><g class="cls-21"><g class="cls-23"><path class="cls-24" d="M3329.13,1301.15a2,2,0,0,0-1.86,2.13l.4,6a2,2,0,0,0,2,1.87h.14a2,2,0,0,0,1.86-2.13l-.4-6A2,2,0,0,0,3329.13,1301.15Z"/><path class="cls-24" d="M3358.84,1743.47a2,2,0,0,0,1.86-2.13l-.81-12a2,2,0,1,0-4,.27l.81,12a2,2,0,0,0,2,1.87Z"/><path class="cls-24" d="M3357.22,1719.45a2,2,0,0,0,1.86-2.13l-.8-12a2,2,0,1,0-4,.27l.8,12a2,2,0,0,0,2,1.87Z"/><path class="cls-24" d="M3355.61,1695.43a2,2,0,0,0,1.86-2.13l-.81-12a2,2,0,1,0-4,.27l.81,12a2,2,0,0,0,2,1.87Z"/><path class="cls-24" d="M3350.77,1623.37a2,2,0,0,0,1.86-2.13l-.81-12a2,2,0,1,0-4,.26l.81,12a2,2,0,0,0,2,1.87Z"/><path class="cls-24" d="M3360.45,1767.49a2,2,0,0,0,1.86-2.13l-.81-12a2,2,0,1,0-4,.27l.81,12a2,2,0,0,0,2,1.86Z"/><path class="cls-24" d="M3354,1671.41a2,2,0,0,0,1.86-2.13l-.81-12a2,2,0,1,0-4,.27l.81,12a2,2,0,0,0,2,1.87Z"/><path class="cls-24" d="M3368.51,1887.59a2,2,0,0,0,1.87-2.13l-.81-12a2,2,0,1,0-4,.27l.8,12a2,2,0,0,0,2,1.86Z"/><path class="cls-24" d="M3370.13,1911.61a2,2,0,0,0,1.86-2.13l-.81-12a2,2,0,1,0-4,.26l.81,12a2,2,0,0,0,2,1.87Z"/><path class="cls-24" d="M3362.06,1791.51a2,2,0,0,0,1.86-2.13l-.8-12a2,2,0,0,0-2.13-1.86,2,2,0,0,0-1.86,2.13l.8,12a2,2,0,0,0,2,1.86Z"/><path class="cls-24" d="M3366.9,1863.57a2,2,0,0,0,1.86-2.13l-.8-12a2,2,0,0,0-2.13-1.86,2,2,0,0,0-1.86,2.13l.8,12a2,2,0,0,0,2,1.86Z"/><path class="cls-24" d="M3363.67,1815.53a2,2,0,0,0,1.87-2.13l-.81-12a2,2,0,1,0-4,.27l.81,12a2,2,0,0,0,2,1.86Z"/><path class="cls-24" d="M3365.29,1839.55a2,2,0,0,0,1.86-2.13l-.81-12a2,2,0,1,0-4,.27l.81,12a2,2,0,0,0,2,1.86Z"/><path class="cls-24" d="M3344.32,1527.3a2,2,0,0,0,1.86-2.13l-.81-12a2,2,0,1,0-4,.27l.81,12a2,2,0,0,0,2,1.86Z"/><path class="cls-24" d="M3339.48,1455.24a2,2,0,0,0,1.86-2.13l-.81-12a2,2,0,1,0-4,.27l.81,12a2,2,0,0,0,2,1.86Z"/><path class="cls-24" d="M3337.86,1431.22a2,2,0,0,0,1.86-2.13l-.8-12a2,2,0,1,0-4,.27l.8,12a2,2,0,0,0,2,1.86Z"/><path class="cls-24" d="M3334.64,1383.18a2,2,0,0,0,1.86-2.13l-.81-12a2,2,0,1,0-4,.27l.81,12a2,2,0,0,0,2,1.87Z"/><path class="cls-24" d="M3336.25,1407.2a2,2,0,0,0,1.86-2.13l-.8-12a2,2,0,0,0-2.13-1.86,2,2,0,0,0-1.86,2.13l.8,12a2,2,0,0,0,2,1.87Z"/><path class="cls-24" d="M3331.41,1335.14a2,2,0,0,0,1.86-2.13l-.8-12a2,2,0,0,0-2.13-1.86,2,2,0,0,0-1.86,2.13l.8,12a2,2,0,0,0,2,1.87Z"/><path class="cls-24" d="M3333,1359.16a2,2,0,0,0,1.87-2.13l-.81-12a2,2,0,1,0-4,.27l.81,12a2,2,0,0,0,2,1.87Z"/><path class="cls-24" d="M3349.16,1599.35a2,2,0,0,0,1.86-2.12l-.81-12a2,2,0,1,0-4,.26l.81,12a2,2,0,0,0,2,1.87Z"/><path class="cls-24" d="M3347.54,1575.34a2,2,0,0,0,1.86-2.13l-.8-12a2,2,0,0,0-4,.26l.8,12a2,2,0,0,0,2,1.87Z"/><path class="cls-24" d="M3345.93,1551.32a2,2,0,0,0,1.86-2.13l-.81-12a2,2,0,0,0-4,.27l.81,12a2,2,0,0,0,2,1.86Z"/><path class="cls-24" d="M3371.74,1935.63a2,2,0,0,0,1.86-2.13l-.8-12a2,2,0,0,0-4,.26l.81,12a2,2,0,0,0,2,1.87Z"/><path class="cls-24" d="M3341.09,1479.26a2,2,0,0,0,1.86-2.13l-.81-12a2,2,0,0,0-4,.27l.81,12a2,2,0,0,0,2,1.86Z"/><path class="cls-24" d="M3342.7,1503.28a2,2,0,0,0,1.86-2.13l-.8-12a2,2,0,1,0-4,.27l.8,12a2,2,0,0,0,2,1.86Z"/><path class="cls-24" d="M3352.38,1647.39a2,2,0,0,0,1.86-2.13l-.8-12a2,2,0,0,0-2.13-1.86,2,2,0,0,0-1.86,2.13l.8,12a2,2,0,0,0,2,1.87Z"/><path class="cls-24" d="M3400.78,2368a2,2,0,0,0,1.86-2.13l-.81-12a2,2,0,1,0-4,.27l.81,12a2,2,0,0,0,2,1.87Z"/><path class="cls-24" d="M3404,2416a2,2,0,0,0,1.86-2.13l-.8-12a2,2,0,1,0-4,.27l.8,12a2,2,0,0,0,2,1.87Z"/><path class="cls-24" d="M3399.16,2344a2,2,0,0,0,1.86-2.13l-.8-12a2,2,0,0,0-4,.27l.8,12a2,2,0,0,0,2,1.87Z"/><path class="cls-24" d="M3394.32,2271.9a2,2,0,0,0,1.87-2.13l-.81-12a2,2,0,0,0-2.13-1.86,2,2,0,0,0-1.86,2.12l.81,12a2,2,0,0,0,2,1.87Z"/><path class="cls-24" d="M3395.94,2295.92a2,2,0,0,0,1.86-2.13l-.81-12a2,2,0,1,0-4,.26l.81,12a2,2,0,0,0,2,1.87Z"/><path class="cls-24" d="M3397.55,2319.94a2,2,0,0,0,1.86-2.13l-.81-12a2,2,0,1,0-4,.26l.81,12a2,2,0,0,0,2,1.87Z"/><path class="cls-24" d="M3402.39,2392a2,2,0,0,0,1.86-2.13l-.81-12a2,2,0,0,0-4,.27l.81,12a2,2,0,0,0,2,1.87Z"/><path class="cls-24" d="M3412.07,2536.11a2,2,0,0,0,1.86-2.13l-.81-12a2,2,0,1,0-4,.27l.81,12a2,2,0,0,0,2,1.86Z"/><path class="cls-24" d="M3412.61,2544.13a2,2,0,0,0-1.86,2.13l.8,12a2,2,0,0,0,2,1.86h.13a2,2,0,0,0,1.86-2.13l-.8-12A2,2,0,0,0,3412.61,2544.13Z"/><path class="cls-24" d="M3410.46,2512.09a2,2,0,0,0,1.86-2.13l-.81-12a2,2,0,1,0-4,.27l.81,12a2,2,0,0,0,2,1.86Z"/><path class="cls-24" d="M3407.23,2464.05a2,2,0,0,0,1.86-2.13l-.81-12a2,2,0,0,0-4,.27l.81,12a2,2,0,0,0,2,1.87Z"/><path class="cls-24" d="M3405.62,2440a2,2,0,0,0,1.86-2.13l-.81-12a2,2,0,1,0-4,.27l.81,12a2,2,0,0,0,2,1.87Z"/><path class="cls-24" d="M3408.84,2488.07a2,2,0,0,0,1.86-2.13l-.8-12a2,2,0,1,0-4,.27l.8,12a2,2,0,0,0,2,1.86Z"/><path class="cls-24" d="M3384.64,2127.78a2,2,0,0,0,1.87-2.13l-.81-12a2,2,0,1,0-4,.27l.81,12a2,2,0,0,0,2,1.86Z"/><path class="cls-24" d="M3379.81,2055.72a2,2,0,0,0,1.86-2.13l-.81-12a2,2,0,1,0-4,.27l.81,12a2,2,0,0,0,2,1.87Z"/><path class="cls-24" d="M3381.42,2079.74a2,2,0,0,0,1.86-2.13l-.81-12a2,2,0,0,0-4,.27l.81,12a2,2,0,0,0,2,1.87Z"/><path class="cls-24" d="M3378.19,2031.7a2,2,0,0,0,1.86-2.13l-.8-12a2,2,0,1,0-4,.27l.8,12a2,2,0,0,0,2,1.87Z"/><path class="cls-24" d="M3383,2103.76a2,2,0,0,0,1.86-2.13l-.8-12a2,2,0,0,0-2.13-1.86,2,2,0,0,0-1.86,2.13l.8,12a2,2,0,0,0,2,1.87Z"/><path class="cls-24" d="M3376.58,2007.68a2,2,0,0,0,1.86-2.13l-.81-12a2,2,0,0,0-4,.27l.81,12a2,2,0,0,0,2,1.87Z"/><path class="cls-24" d="M3375,1983.66a2,2,0,0,0,1.86-2.13l-.81-12a2,2,0,1,0-4,.27l.81,12a2,2,0,0,0,2,1.87Z"/><path class="cls-24" d="M3387.87,2175.82a2,2,0,0,0,1.86-2.13l-.8-12a2,2,0,1,0-4,.27l.8,12a2,2,0,0,0,2,1.86Z"/><path class="cls-24" d="M3391.1,2223.86a2,2,0,0,0,1.86-2.13l-.81-12a2,2,0,1,0-4,.27l.81,12a2,2,0,0,0,2,1.86Z"/><path class="cls-24" d="M3389.48,2199.84a2,2,0,0,0,1.87-2.13l-.81-12a2,2,0,1,0-4,.27l.81,12a2,2,0,0,0,2,1.86Z"/><path class="cls-24" d="M3373.35,1959.64a2,2,0,0,0,1.86-2.13l-.8-12a2,2,0,1,0-4,.26l.8,12a2,2,0,0,0,2,1.87Z"/><path class="cls-24" d="M3392.71,2247.88a2,2,0,0,0,1.86-2.13l-.8-12a2,2,0,0,0-2.13-1.86,2,2,0,0,0-1.86,2.13l.8,12a2,2,0,0,0,2,1.86Z"/><path class="cls-24" d="M3386.26,2151.8a2,2,0,0,0,1.86-2.13l-.81-12a2,2,0,1,0-4,.27l.81,12a2,2,0,0,0,2,1.86Z"/><path class="cls-24" d="M3414.22,2568.15a2,2,0,0,0-1.86,2.13l.4,6a2,2,0,0,0,2,1.87h.13a2,2,0,0,0,1.86-2.13l-.4-6A2,2,0,0,0,3414.22,2568.15Z"/></g></g><path class="cls-10" d="M3151.56,2537.61l-8.25-44.74-116.8-6.31c-244.44,101.38-266.79,144.88-266.79,144.88l236.69-18.26,28.85-2.23,137.85-10.62-8.64-46.92Z"/><polygon class="cls-25" points="3025.26 2610.95 2996.41 2613.18 2759.72 2631.44 2764.74 2650.4 2982.24 2639.36 3004.64 2638.21 3168.56 2629.92 3163.11 2600.33 3025.26 2610.95"/><path class="cls-25" d="M2994.79,2497.15c-2.38-2.16-5.92,1.36-3.54,3.53,13.16,12,22.34,27.27,33,41.36,1.92,2.54,6.26.05,4.32-2.52C3017.66,2525.1,3008.26,2509.41,2994.79,2497.15Z"/><path class="cls-25" d="M2969.74,2505.68c-2.38-2.16-5.92,1.37-3.54,3.54,13.16,12,22.34,27.27,33,41.36,1.91,2.54,6.25.05,4.31-2.52C2992.61,2533.63,2983.21,2518,2969.74,2505.68Z"/><path class="cls-25" d="M2942.32,2516.29c-2.38-2.16-5.92,1.37-3.54,3.54,13.16,12,22.34,27.26,33,41.36,1.92,2.53,6.26,0,4.32-2.53C2965.18,2544.24,2955.78,2528.55,2942.32,2516.29Z"/><g class="cls-26"><path d="M3154.47,2553.41c-22.37,3.31-44.43,8.24-65.53,16.38-23.62,9.16-46.12,23.06-63.68,41.16a134.16,134.16,0,0,0-13.68,16.36,123.08,123.08,0,0,0-6.94,10.9l163.92-8.29-5.45-29.59Z"/></g><path class="cls-10" d="M3312,2517.49c-246.22,96.93-269.36,140-269.36,140l403.88-23.78-17.83-107.78Z"/><polygon class="cls-25" points="3042.64 2657.5 3047.32 2676.55 3451.43 2663.41 3446.52 2633.72 3042.64 2657.5"/><path class="cls-25" d="M3280.07,2527.48c-2.34-2.21-5.88,1.32-3.54,3.53,12.94,12.22,21.83,27.68,32.21,42,1.87,2.58,6.21.09,4.32-2.52C3302.43,2555.82,3293.31,2540,3280.07,2527.48Z"/><path class="cls-25" d="M3254.87,2535.56c-2.34-2.21-5.88,1.32-3.54,3.53,12.94,12.22,21.83,27.68,32.21,42,1.87,2.58,6.21.09,4.32-2.52C3277.23,2563.9,3268.11,2548.07,3254.87,2535.56Z"/><path class="cls-25" d="M3227.26,2545.67c-2.34-2.21-5.88,1.32-3.54,3.53,12.94,12.22,21.83,27.67,32.21,42,1.87,2.58,6.21.09,4.32-2.52C3249.62,2574,3240.5,2558.18,3227.26,2545.67Z"/><polygon class="cls-27" points="2920.15 2507.37 3159.62 2533.59 3170.83 2447.55 2941.21 2417.15 2920.15 2507.37"/><polygon class="cls-27" points="3231.85 2454.25 3227.58 2540.69 3467.48 2542.14 3463.28 2444.77 3231.85 2454.25"/><path class="cls-28" d="M2904.71,1021.05l20.39,18s11.6-35.42,7.49-54.65C2928.06,963.16,2904.71,1021.05,2904.71,1021.05Z"/><path class="cls-29" d="M2892.93,941.23a7.9,7.9,0,0,0-9.92-5.05l-58.9,19.17a3,3,0,0,0-1.91,3.75l42.3,130a2.5,2.5,0,0,0,3.16,1.6l65.5-21.31a1.41,1.41,0,0,0,.9-1.76Z"/><path class="cls-30" d="M2897.8,934.94a3.39,3.39,0,0,0-4.27-2.18l-62.77,20.42a3.42,3.42,0,0,0-2.18,4.28l41.9,128.77a3.41,3.41,0,0,0,4.27,2.18l62.77-20.43a3.41,3.41,0,0,0,2.18-4.27Z"/><path class="cls-31" d="M2897.47,947.26a7.58,7.58,0,0,0-9.58-4.76l-6.67,2.16-.63,3.18a2,2,0,0,1-1.32,1.48l-23.05,7.5a2,2,0,0,1-2.1-.59l-1.84-2.15-10.37,3.37a7.59,7.59,0,0,0-4.95,9.49l33.09,101.7a7.58,7.58,0,0,0,9.34,4.84l.24-.07,46-15,.24-.08a7.59,7.59,0,0,0,4.71-9.41Z"/><path class="cls-32" d="M3024.15,1153.81c-2.94,2.59-54.8,30.13-54.8,30.13l-45.72-109.56-27.85.79s13.86-16.87,9.79-23.78c-2.77-4.69-13.13,2.19-19.47,7.08a1.2,1.2,0,0,1-1.78-1.54c5-8.85,13.41-25.46,10.37-30.8-3.17-5.55-17.11,9.27-23.86,17a1.2,1.2,0,0,1-2.06-1.12c3.3-11.59,10-37.88,3.65-40.81-5.54-2.58-14.36,11.27-19.4,20.33a1.19,1.19,0,0,1-2.22-.79c2.31-12.77,5.32-35.93-3.38-35.16-12,1.06-30.85,61.32-13,72.34s25.46,49.42,25.46,49.42,2.24,202.47,62,206.79,120.65-41.87,120.65-41.87C3083.1,1199.06,3027.08,1151.22,3024.15,1153.81Z"/><g class="cls-33"><path class="cls-34" d="M3025.45,1105.43l-30.24,56.15c-4.42,7.94.74,17.94,7.32,24.21s14.88,11.23,18.91,19.38c3.36,6.79,3.18,14.72,2.93,22.29l-1.21,36.55c-.27,8.24-.61,16.76-4.29,24.13-3.37,6.75-9.21,11.88-15,16.7q-16.83,14-34.74,26.65c15.52,1.61,30.8-4.08,45.2-10.08,17.21-7.16,34.88-15.46,46.28-30.21,10.56-13.67,14.44-31.28,16.73-48.4,3.46-26,3.84-52.88-3.87-77.93S3049.14,1116.67,3025.45,1105.43Z"/><path class="cls-34" d="M2939.28,1307c-16.69-12-38-19.63-58-14.86-7.1,1.69-14.54,5.68-16.55,12.7-1.35,4.72.15,9.93,3.08,13.87s7.13,6.75,11.53,8.94a60.75,60.75,0,0,0,52.9.19l24.55.36C2954,1319.27,2946.84,1312.45,2939.28,1307Z"/><path class="cls-34" d="M2967.46,1156.07l-3.69,10.46c8.94,20.44,14.74,48.17,16.78,70.39q.54-11,1.07-22c.51-10.41,1-20.91-.72-31.19S2975,1163.25,2967.46,1156.07Z"/><path class="cls-34" d="M2932.51,1065.5c-2.93-4.36-4.69-9.48-8.08-13.49s-9.36-6.69-13.9-4.06c-5.15,3-5.29,10.45-9.11,15-2.17,2.58-5.36,4-8,6.14s-4.82,5.53-3.73,8.71c1.38,4,6.67,4.78,10.89,4.48,11.24-.8,23.25-4.18,33.28,1l17.69-5.22A29.6,29.6,0,0,1,2932.51,1065.5Z"/><path class="cls-34" d="M2894,1019.18c-1.74,1.26-1.94,3.71-2,5.84-.58,13.37-3.19,27.44-12,37.48a65.51,65.51,0,0,0,12.16-11.6l5.84-10.75,2.48-9.71c.7-2.76,1.4-5.73.39-8.39S2896.26,1017.51,2894,1019.18Z"/><path class="cls-34" d="M2876.9,995.21c-1.46-1.22-3.9-1.77-5.12-.31-.82,1-.72,2.41-.57,3.68a75.48,75.48,0,0,1-.91,25c-1.73,8-3.31,15.9-3.82,23.34a51.62,51.62,0,0,0,9.36-13.23l4.51-24.18C2880.75,1004.4,2880.81,998.48,2876.9,995.21Z"/><path class="cls-34" d="M2855.91,981a5.37,5.37,0,0,0-5-2.43,5.49,5.49,0,0,0-3.13,2c-2.74,3.29,1.13,7,1.74,11.26,1.81,12.7,1.56,27.19-3.41,39a76.26,76.26,0,0,0,10-17.21l1.3-11.48a45.11,45.11,0,0,0,.38-15.59A12.77,12.77,0,0,0,2855.91,981Z"/></g><path class="cls-35" d="M3288.3,781.92s-17.56-23.54-47.14-16.87-111,24.28-126.18,47.29,3.71,104.32-1.95,143.35-43.36,115.15-44.14,140.68,177.36,48.89,177.36,48.89L3362,1116.47s-13.09-117.06-1.34-180.06C3368.48,894.4,3383.56,782.87,3288.3,781.92Z"/><path class="cls-2" d="M3288.3,781.92s-17.56-23.54-47.14-16.87-111,24.28-126.18,47.29,3.71,104.32-1.95,143.35-43.36,115.15-44.14,140.68,177.36,48.89,177.36,48.89L3362,1116.47s-13.09-117.06-1.34-180.06C3368.48,894.4,3383.56,782.87,3288.3,781.92Z"/><g class="cls-36"><g class="cls-9"><path class="cls-37" d="M3340.43,1032.68c-7.2-28.33-6.5-57.92-5.76-87.09q.93-37,1.87-74c.22-8.61.42-17.35-1.81-25.68-5.24-19.58-39.44-40.77-39.44-40.77l-54.05,19.31a148.82,148.82,0,0,0,24-17.26c2.12-1.87,4.25-3.89,5.25-6.49,2-5.08-1.1-10.92-5.65-14.08s-10.26-4.24-15.77-5.26a23.17,23.17,0,0,1,2.79,22.88c-9.72-9.76-24.58-13.44-38.61-12.81s-27.54,5.06-40.83,9.45l-24,7.93c-2.9,1-5.92,2-8.1,4.08-2.72,2.62-3.67,6.46-4.29,10.11-7.29,43.1,16,87.38,6.4,130-3.15,14-9.71,27.08-16.33,39.92q-15.72,30.45-32.34,60.44c-19.92,35.95-41,71.86-51.84,111.25,16.65-1,33.32-1.9,50-1.67,63.85.9,126.8,19.11,190.59,15.94a285.09,285.09,0,0,0,96-21.81c2.33-1,4.75-2.07,6.27-4,2.78-3.57,1.64-8.6.25-12.85C3372.79,1103.38,3350,1070.22,3340.43,1032.68Z"/></g></g><path class="cls-25" d="M3255.72,1028.43s-127.65,6.63-169.31,49.17c-33.87,34.59-102.87,58.57-102.51,71.34s.94,33.06,43.21,34.12c-21.83,21.67-27.19,53.41,2,70.63,2.39,27,38.06,20.73,38.06,20.73s1.61,30,4.24,69.82-21,55.49-33.14,77.64,4.71,33.71,32.43,29.91,37.81-19.12,37.81-19.12,8.39,30.6,28.65,29.27,24.37-15.73,24.37-15.73,8.33,28.34,30.14,28.47a30.5,30.5,0,0,0,28.81-18.11s8.78,17.8,27.63,19.52,23.79-9.7,23.79-9.7,8,17.82,23,17.4,25.13-15.76,25.13-15.76,9.5,17,30.58,17.94,18.88-23.85,18.88-23.85,10.24,16.25,32,13.38-13.74-60.52-20.52-90.41,6.14-98.69,15.91-99,21.79-.62,15.05-26c33.55,16.34,31.73,5.12,28-21.85,56.65,35.24,31.41-32.47,31.41-32.47s12.45,14.68,33.17,2.81-38.73-92.9-79.75-133.85S3255.72,1028.43,3255.72,1028.43Z"/><g class="cls-38"><path class="cls-39" d="M3490,1199c-13.06,4.08-27.44,1-39.76-5,3.26,12.63,1.58,27.41-7.74,36.53s-27.17,9.2-34-1.89c-1.44,13.49-16.48,22.7-29.92,20.88s-24.5-12.22-30.72-24.27,13.6,62-2.77,109.73c-7.07,20.6-19.29,39.7-22,61.31-3,23.87,5.89,49.73-4.73,71.31-7.62,15.51-25.27,25.45-42.48,23.94,27.08,32.52,82.2,36.06,113.22,7.27,4.39-4.07,8.48-8.76,14-11,9-3.72,19.19-.11,28.66,2.28a112.59,112.59,0,0,0,39.3,2.82c4.48-.47,9.11-1.28,12.78-3.9,7.47-5.31,8.43-16,7.25-25.11-3.38-26.11-18.3-49.68-21.43-75.83-5.78-48.29,30.23-92.59,71.85-117.76l-28.86-101.73C3513.87,1182.16,3503,1194.89,3490,1199Z"/><path class="cls-39" d="M3052.29,1243.66c-10.57-7.25-12.19-22.35-9.77-34.93s7.81-24.77,7.48-37.58c-.12-4.27-1.28-9.12-5.06-11.11-2.74-1.45-6-1-9.14-.92a29.74,29.74,0,0,1-24.14-12.26c-7.18-10.07-9-25.52-20.6-29.76-6.15-2.25-13.16-.22-18.62,3.39-16.3,10.77-20.76,33.89-14.92,52.53s19.78,33.58,34.3,46.65c2.16,1.95,4.44,4,5.33,6.78,1.1,3.44-.17,7.12-.94,10.65-3.81,17.53,6.39,36.63,22.41,44.7s36.37,5.47,50.94-5a120.25,120.25,0,0,1,5.93-92.28l1.44,0C3064.94,1182.57,3052,1217.7,3052.29,1243.66Z"/></g><path class="cls-10" d="M3418.3,1387.29c-153,49.46-70.91-349.53-70.91-349.53s-9.94-2.13-29.85-5.73-39.77,137.65-41.36,223-16,353.36,48.73,374.59,202.49-1.73,238.3-11.77-23.3-114.65-32.2-145.48S3571.31,1337.83,3418.3,1387.29Z"/><g class="cls-40"><g class="cls-23"><path class="cls-41" d="M3464.18,1330.49c-22.2,3-43.55,14.18-65.34,16.43l13.92-6.62c-7.87,1.72-13.65-7.1-16.63-14.58a370.9,370.9,0,0,1-23.43-181.59c4.87-39.68,16-81.29,1.25-118.45-2.07-5.23-5.33-10.84-10.83-12-6.11-1.31-11.78,3.49-15.64,8.4-15.46,19.63-19.88,45.5-23.61,70.21-7.08,47-13.5,94.38-11.44,141.85,1.12,26,5,52.2,12.35,77.15a434.66,434.66,0,0,1-33.09-34.1c-5.62-6.48-16.34-13.15-21.29-6.15a13.72,13.72,0,0,0-1.93,5.76q-4.36,25.07-6.7,50.43c-.63,6.89-1,14.31,2.56,20.22,3.27,5.37,9.23,8.42,15,11,13.89,6.2,28.82,11.42,39.51,22.25,12.83,13,18.24,32.88,33.51,42.9,18.68,12.25,43.29,4.75,65.62,5.26,23.73.54,46.24,10.63,69.82,13.28s51.86-5.68,59.44-28.17l13.52-24C3547.29,1351.27,3504.73,1325.08,3464.18,1330.49Z"/></g><g class="cls-23"><path class="cls-41" d="M3619.3,1585.08,3582,1560.15c-11.37-8.09-17.7-21.4-27.23-31.6a66.43,66.43,0,0,0-56.48-20.15c-32.72,4.42-59.81,33-92.81,32-33.8-1.07-58.34-32.8-71.38-64s-20.59-66.09-43.66-90.82c-7-7.46-16.19-14.08-26.37-13.41-13.93.93-23.21,14.72-28.35,27.71-9.33,23.55-12.47,49-14.8,74.27-2.94,31.89-4.7,64.26,1,95.77s19.68,62.41,43.8,83.48c11.64,10.15,25.31,17.77,39.48,23.9,57.71,25,122.85,25.72,185.56,21.11,46.78-3.44,98.21-12.19,127.69-48.68,7.91-9.79,14-22.06,12.51-34.57C3629.73,1604.42,3623.24,1595.14,3619.3,1585.08Z"/></g></g><path class="cls-32" d="M3471.31,1205.81c15.15,39.17-.54,51.65-31.41,32.47,6.61,29.89-3.91,30.22-28,21.85,2.79,19-8.4,25.5-8.4,25.5l19.87,34.34s-91.53-45.54-99.34-57.35,1.8-46.94-14.86-45.27-8.27,26.88-18.14,32.17-21.1-1.41-30.06.85-9.76,9.3-11.86,23.42-16.25,35.78-4.13,56.49,47.92,20.46,47.92,20.46,115.42,112.88,210.14,87.29-6.41-226-6.41-226S3492.62,1214.74,3471.31,1205.81Z"/><g class="cls-42"><path class="cls-34" d="M3447,1166.83c-23.94,4.8-45.11,20.45-58.44,40.91a70.92,70.92,0,0,0-9.81,21.56c-6.75,27.36,9.15,56,30.85,74q14.37-21,28.76-42c1.54-2.27,3.16-4.59,5.49-6,5.45-3.37,12.52-.84,18.88-1.61,7.67-.93,14-6.83,17.45-13.76s4.3-14.79,4.79-22.5a23.38,23.38,0,0,0,20.89-7.21l8.91-24.27C3497.33,1168.76,3470.93,1162,3447,1166.83Z"/><path class="cls-34" d="M3445.88,1310.21c-12.59-4.33-37.15-3.83-43.29-.83l11.9,6.09c27.14,12.58,53,27.86,78.94,42.85C3480.69,1339.44,3467.41,1317.61,3445.88,1310.21Z"/><path class="cls-34" d="M3511.14,1405.88c-13.23,13-22.2,31.68-19,49.94,1.37,7.94,5.39,15.89,12.45,19.77,9.61,5.28,21.62,1.67,31.39-3.31a127.49,127.49,0,0,0,51.24-47.85l-28.93-47.52C3541.4,1384.64,3524.37,1392.9,3511.14,1405.88Z"/><path class="cls-34" d="M3257.55,1206.44c-1.9,3.89-2.87,8.19-4.89,12-7.23,13.78-25.28,17.78-35.7,29.34-8.26,9.15-10.87,22.4-9.21,34.62s7.13,23.58,13.4,34.19c10.2,17.26,24.33,34.21,43.9,38.57-3.78-7.8-9.44-14.53-13.71-22.08s-7.11-16.57-4.59-24.86c2.76-9,11.51-16,11.95-25.4.31-6.6-3.58-13.53-.78-19.52,2.88-6.19,11.1-7.45,17.92-7s14.35,1.62,19.9-2.36c6.56-4.7,7.06-14.06,7.26-22.12s1.69-17.6,8.93-21.15L3287,1191.3A28.47,28.47,0,0,0,3257.55,1206.44Z"/></g><path class="cls-32" d="M3303.75,963.48c13.05-13.29,14.86-32.67,4.05-43.28-6.69-6.57-16.65-8.23-26.38-5.38l1.49-10.9s-58.75,2.51-87.74-69.22c-31.09-3.76-55.94,23.44-55.94,23.44l-2.3,71.21c-.64,19.81,7,39.2,21.71,52.49a60.21,60.21,0,0,0,25.19,13.84,65.83,65.83,0,0,0,22,1.85l-6.66,31.12-16.62,15.2-8.54,47.19,90.27,16.32,41.71-67.82-20.5-3.71c-4-14.41-11.87-34.87-12.09-41.35-.15-4.35-.15-12.48-.09-19.8C3283.32,976.32,3295,972.43,3303.75,963.48Z"/><g class="cls-43"><path class="cls-34" d="M3192.73,779.37c-15.7.44-31.49,3.61-45.44,10.8s-26,18.61-32.43,32.93c-3.47,7.71-5.28,16.48-3.16,24.66s8.82,15.48,17.2,16.57c4.9.64,9.82-.8,14.48-2.47a146.65,146.65,0,0,0,28-13.46c3.85-2.39,8.13-5.07,12.57-4.19,5.18,1,8.13,6.32,10.75,10.89,9.54,16.67,23.7,30.85,40.91,39.37s37.47,11.15,56,6.19l18.93-63C3283.89,800.63,3238.3,778.08,3192.73,779.37Z"/><path class="cls-34" d="M3269.57,1082.71c-3.9,5-8,10.49-14.08,12.35a28.13,28.13,0,0,1-8.09.85,340.09,340.09,0,0,1-52.08-3.83,6,6,0,0,1-6.11-4.94,223.67,223.67,0,0,1-12.33-59.14,218.37,218.37,0,0,1-19.79,70.33c-2.88,6.07-6.07,13.14-3.11,19.17,2.3,4.7,7.61,7,12.57,8.67,17,5.71,34.92,8.24,52.77,10.08a733.56,733.56,0,0,0,113.75,2.87l-11.51-111.34C3302.52,1040.58,3283.67,1064.61,3269.57,1082.71Z"/></g><path class="cls-44" d="M3249.39,920a17.81,17.81,0,1,0,11.24,22.54A17.82,17.82,0,0,0,3249.39,920Z"/><path class="cls-45" d="M3241.28,877.27a18,18,0,0,0-6.72-2,22.79,22.79,0,0,0-6.72.38,26.26,26.26,0,0,0-3.19.85,23.41,23.41,0,0,0-3.11,1.27,2,2,0,0,0,1.6,3.66l.14-.05a18.53,18.53,0,0,1,2.57-.79,22.6,22.6,0,0,1,2.71-.48,18.15,18.15,0,0,1,5.32.16,12.37,12.37,0,0,1,4.67,1.83,14.4,14.4,0,0,1,3.64,3.38l.18.22.14.15a3,3,0,1,0,4.35-4.25A20.25,20.25,0,0,0,3241.28,877.27Z"/><path class="cls-45" d="M3176.41,869.25a18,18,0,0,0-6.72-2,22.85,22.85,0,0,0-6.73.38,26.6,26.6,0,0,0-3.18.85,22.14,22.14,0,0,0-3.11,1.27,2,2,0,0,0,1.6,3.66l.13-.06a20.52,20.52,0,0,1,2.57-.78,21.39,21.39,0,0,1,2.71-.48,18.49,18.49,0,0,1,5.32.15,12.64,12.64,0,0,1,4.67,1.83,14.46,14.46,0,0,1,3.64,3.39l.19.22.14.15a3,3,0,1,0,4.35-4.26A20.4,20.4,0,0,0,3176.41,869.25Z"/><path class="cls-34" d="M3187.33,903.75s-24.11,25.27-10.17,31.88c10.26,4.87,12.65-1,14.58-6S3195.49,899.62,3187.33,903.75Z"/><path class="cls-45" d="M3164.7,892.51a8.35,8.35,0,1,0,7.72,8.93A8.35,8.35,0,0,0,3164.7,892.51Z"/><path class="cls-45" d="M3226.84,898.56a8.35,8.35,0,1,0,7.72,8.93A8.35,8.35,0,0,0,3226.84,898.56Z"/><path class="cls-34" d="M3284.12,936.64a21.23,21.23,0,0,0-6.48,7.86,27.31,27.31,0,0,0-2.71,9.45c1.88-2.7,3.54-5.36,5.39-7.8a29.86,29.86,0,0,1,6.12-6.26,15.54,15.54,0,0,1,7.74-3,24,24,0,0,1,9.06,1,14.53,14.53,0,0,0-9.06-4.14A14.9,14.9,0,0,0,3284.12,936.64Z"/><path class="cls-34" d="M3293.25,942.37a7.72,7.72,0,0,0-2.38-2,8.28,8.28,0,0,0-5.49-.79A41.26,41.26,0,0,1,3289,943a7.68,7.68,0,0,1,1.82,3.29,13.13,13.13,0,0,1,.29,4.07c-.08,1.53-.29,3.15-.44,5a9.52,9.52,0,0,0,3.48-4.22,9.09,9.09,0,0,0,.54-5.87A8.06,8.06,0,0,0,3293.25,942.37Z"/><path class="cls-34" d="M3205.87,997.53l-5.54,22.89c16.57-2.26,41.87-11.06,45-43.34C3231.79,992.29,3205.87,997.53,3205.87,997.53Z"/><path class="cls-10" d="M3206.83,953.79c-12.52,5.13-24.37,1.06-31.12-.69a3.38,3.38,0,0,0-4.24,3.42c.2,4.37,2.76,13.88,16.48,18.38C3208.42,981.61,3223.45,947,3206.83,953.79Z"/><g class="cls-23"><polygon class="cls-24" points="3189.68 1474.85 3211.89 1732.08 3213.11 1731.98 3193.66 1474.52 3189.68 1474.85"/></g><g class="cls-23"><path class="cls-24" d="M3197.31,1672.13c-30.29-25.32-45.87-211.39-46-213.27l-4,.33c.63,7.73,15.88,189.63,47.45,216a13.26,13.26,0,0,0,8.54,3.46,9.69,9.69,0,0,0,1.07-.05l-.39-4C3201.76,1674.84,3199.58,1674,3197.31,1672.13Z"/></g><g class="cls-46"><rect class="cls-10" x="2887.89" y="822.83" width="266.18" height="261.72"/><rect class="cls-10" x="3154.07" y="822.83" width="7.48" height="261.72"/></g><g class="cls-23"><path class="cls-10" d="M3077.23,831.11,2880.9,945.56a2,2,0,0,0,1,3.73,2,2,0,0,0,1-.28l196.33-114.45a2,2,0,1,0-2-3.45Z"/><path class="cls-10" d="M3091.11,1073.73,2919.93,1062a2,2,0,1,0-.27,4l171.18,11.69h.14a2,2,0,0,0,.13-4Z"/><path class="cls-10" d="M3050.76,923.3l-168.55,60.29a2,2,0,1,0,1.35,3.76l168.54-60.28a2,2,0,0,0-1.34-3.77Z"/><path class="cls-10" d="M3004.05,1015.68H3004l-102.83,2.62a2,2,0,0,0,0,4h.05l102.83-2.62a2,2,0,0,0,0-4Z"/><path class="cls-10" d="M3052.16,981.15a6.81,6.81,0,1,0,7,6.63A6.82,6.82,0,0,0,3052.16,981.15Z"/><path class="cls-10" d="M3091.35,877a8,8,0,1,0,8.25,7.84A8.06,8.06,0,0,0,3091.35,877Z"/><path class="cls-10" d="M2890.26,813.21a17.79,17.79,0,1,0,18.24,17.33A17.79,17.79,0,0,0,2890.26,813.21Z"/></g><rect class="cls-47" x="1575.79" y="416.78" width="1088.08" height="2167.12" rx="56.11"/><path class="cls-48" d="M2540.13,528.18a142.86,142.86,0,0,0-77.28-22.62H2378l-26.44,60.91H1923.41l-33.67-60.91H1776.81c-78.54,0-142.82,63.51-142.82,141.12V2276.42c0,77.59,64.28,141.1,142.82,141.1h686c78.54,0,142.82-63.51,142.82-141.1V646.68C2605.67,597.16,2579.51,553.36,2540.13,528.18Z"/><path class="cls-49" d="M2378,505.56l-26.44,60.91H1923.41l-33.67-60.91H1776.81c-78.54,0-142.82,63.51-142.82,141.12V2256.12a142.91,142.91,0,0,0,77.28,22.61h686c78.55,0,142.82-63.48,142.82-141.1V528.18a142.86,142.86,0,0,0-77.28-22.62Z"/><path class="cls-50" d="M1889.74,505.56H1776.81c-78.54,0-142.82,63.51-142.82,141.12V1131.2c15.39-72,32.66-151.71,48.88-226.09a459.89,459.89,0,0,1,304.66-338.64h-64.12Z"/><g class="cls-51"><path class="cls-2" d="M2565.75,1833.31c-118.23-107.94-107.95-539.72-95.1-644s-64.25-229.79-240.09-299.48-198.64,10.65-198.64,10.65c-305.09,23.2-262.91,339.18-239.78,493.39s-72,619.4-72,619.4l428.45,100.23S2684,1941.26,2565.75,1833.31Z"/><g class="cls-52"><g class="cls-9"><path class="cls-37" d="M2403.59,1622.2a1557.27,1557.27,0,0,1,6.18-312.87c8-66,19.75-135.6-6-196.88-30.25-72-106.42-115-182.63-131.85a177.45,177.45,0,0,1,75.15-3.23c-52.82-32.27-206.86-102.28-336.19,58.86l-31.64-3c-58.28,26.07-86.25,95.24-86.67,159.09s20.61,125.58,33.54,188.1c46.7,225.8-18.37,472-170.54,645.19,23.44,56.85,82.43,92.81,142.75,104.76s122.61,3.65,183.46-5.25q286.32-41.88,569.81-100.78c16.52-3.44,35.86-9.37,40.74-25.52-41.07-33.5-90.79-55.61-129.82-91.47C2435,1836.86,2412,1726,2403.59,1622.2Z"/></g></g><polygon class="cls-25" points="2326.74 1735.64 1912.95 1718.24 1596.83 1789.62 1596.83 2462.16 2673.52 2462.16 2644.3 1801.82 2326.74 1735.64"/><path class="cls-39" d="M1723.53,2021c-9.35,21.49-86.53,198.93-126.71,292.76v148.45h140.77C1586.24,2357.33,1711.4,2049.69,1723.53,2021Z"/><path class="cls-39" d="M2510.63,2021c12.13,28.74,137.3,336.38-14.06,441.21H2667.2l-5.86-91.26C2656.43,2356.2,2523.12,2049.66,2510.63,2021Z"/><ellipse class="cls-34" cx="1859.84" cy="1340.12" rx="69.58" ry="76.96" transform="translate(-431.04 1257.67) rotate(-33.71)"/><path class="cls-53" d="M1883.48,1330.77a72.55,72.55,0,0,0-8.71-10.82,53.89,53.89,0,0,0-11.08-8.69,40.12,40.12,0,0,0-13.31-4.88,36.86,36.86,0,0,0-14,.23,36.06,36.06,0,0,0-6.59,2.07,27.52,27.52,0,0,0-6,3.33,40.34,40.34,0,0,1,6.43-1.75,39.7,39.7,0,0,1,6.49-.74,40.26,40.26,0,0,1,12.61,1.44,41.73,41.73,0,0,1,11.4,5.16,57.87,57.87,0,0,1,9.75,8.05c.73.77,1.49,1.51,2.22,2.3l2.08,2.45c.73.79,1.37,1.66,2,2.51l2,2.57c2.5,3.54,4.91,7.18,7.11,11,4.48,7.57,8.39,15.54,12.46,23.58a113.25,113.25,0,0,0-8.28-25.77A95.64,95.64,0,0,0,1883.48,1330.77Z"/><path class="cls-53" d="M1862.38,1320.68a42.33,42.33,0,0,0-19.85,5.15,26.75,26.75,0,0,0-8.1,7.08,25,25,0,0,0-4.46,9.73,29.25,29.25,0,0,0-.43,10.32,29.81,29.81,0,0,0,2.86,9.6,51.74,51.74,0,0,1,.07-9.65,34.52,34.52,0,0,1,2-9,24.28,24.28,0,0,1,11.07-13,52.29,52.29,0,0,1,17.31-5.64c6.22-1.07,12.65-1.55,19.23-2.22A64.84,64.84,0,0,0,1862.38,1320.68Z"/><ellipse class="cls-34" cx="2354.17" cy="1363.32" rx="76.96" ry="69.58" transform="translate(-10.47 2708.41) rotate(-59.71)"/><path class="cls-54" d="M2344.65,1354.53a55,55,0,0,0-14.57,23.68,57.36,57.36,0,0,0-1.65,27.18,85.92,85.92,0,0,1,6.07-25.58,61.66,61.66,0,0,1,14.32-21,75.21,75.21,0,0,1,21.36-14.15,162.33,162.33,0,0,1,25.08-8.7,81,81,0,0,0-26.83,4.32A63.25,63.25,0,0,0,2344.65,1354.53Z"/><path class="cls-54" d="M2383.86,1363.2a20.85,20.85,0,0,0-4.68-6.79,23.2,23.2,0,0,0-6.83-4.48,29.31,29.31,0,0,0-7.6-2,35.39,35.39,0,0,0-14.9,1.46,133.53,133.53,0,0,1,13.93,3.15,38.67,38.67,0,0,1,6.14,2.51,23.49,23.49,0,0,1,5.09,3.64,22.07,22.07,0,0,1,6,11,56.79,56.79,0,0,1,1.4,14,27.14,27.14,0,0,0,3.25-14.7A23.61,23.61,0,0,0,2383.86,1363.2Z"/><path class="cls-32" d="M2202.64,1618.22l-6-45.31c52.66-18.64,97.23-55.31,127.35-102.94a268.73,268.73,0,0,0,38.91-106.63,275.12,275.12,0,0,0-.54-80.16s-84.61,23-107.59-101.83c-14-75.84-91.57-102.81-136.6-37.68,0,0-42.56-93.35-102.24-16a132.77,132.77,0,0,0-13.41,20.82c-56.73,83.22-117,111-128.25,115.63a275.83,275.83,0,0,0-6.25,67.33,278.86,278.86,0,0,0,4.53,42.36,268.85,268.85,0,0,0,37.37,95.48c26.93,42.43,65.2,76.07,110.07,96.25,1.42,33-.33,82.78-21.79,98.49-33,24.21-148.55,66.64-148.55,66.64L1900,1934.39l435.33-4.93,51.4-182.69-137.81-65.17A82.09,82.09,0,0,1,2202.64,1618.22Z"/><g class="cls-55"><path class="cls-34" d="M2246.1,970.75c-73.56-32.76-158-44-235.83-23.3s-147.77,75.08-179.75,149l5.15,171.59c73.68,1.08,146.58-39.4,184.61-102.51,6.47-10.74,12.13-22.24,21.15-31s22.56-14.16,34.26-9.66c16.78,6.47,25.87,31,43.7,28.7,4.51-.58,8.56-3,12.87-4.44,27.11-9.27,51.57,18.26,67.57,42,26.24,39,55.59,78.64,97.86,99.21s100.91,15.12,126.87-24.08c18.18-27.45,16.22-63.7,7.42-95.42C2406.8,1080.27,2332.05,1009,2246.1,970.75Z"/><path class="cls-34" d="M1964.43,1539l-72,12.58c-4.32,30.49,15.61,60.48,41.91,76.51s-6.68-38.55,24-36c25,2.11,77.1,59.12,139.83,62.07,99.23,4.67,110.46-32.08,145.45-67.21,18.19-18.25,22.26-17.48,32.91-41C2177.64,1587.3,2070.14,1608.86,1964.43,1539Z"/><path class="cls-34" d="M2268.63,1908.22c-10.75,4.2-22.5,4.91-34,5.47a2188.27,2188.27,0,0,1-271.86-3.56c-8.51-.64-17.42-1.46-24.56-6.13-10.12-6.6-14.24-19.11-18.14-30.54a457.51,457.51,0,0,0-101.37-167.21l-34.53,88.84q22.06,82.14,44.15,164.29c1.25,4.67,2.68,9.61,6.29,12.82,4.43,3.94,10.91,4.22,16.83,4.28,183.58,1.73,367.74-19.69,550.4-1.23a1254.82,1254.82,0,0,1,46.76-293q-66.56,94.08-136.08,186C2300.4,1884.27,2287.3,1900.94,2268.63,1908.22Z"/></g><path class="cls-45" d="M2032.76,1237.23a66.13,66.13,0,0,0-8.71-3.16,76.6,76.6,0,0,0-9-2,65.08,65.08,0,0,0-18.5-.58,51,51,0,0,0-17.94,5.44,52.36,52.36,0,0,0-14.8,11.65l0,0a3,3,0,1,0,4.55,4l.07-.08a51.44,51.44,0,0,1,6-6c1-.94,2.2-1.73,3.32-2.57.57-.41,1.18-.76,1.77-1.14a20.31,20.31,0,0,1,1.8-1.07,45.68,45.68,0,0,1,16-5.33,60.46,60.46,0,0,1,17.15,0,77.31,77.31,0,0,1,8.52,1.69,64.06,64.06,0,0,1,8.17,2.69l.09,0a2,2,0,0,0,1.59-3.67Z"/><path class="cls-45" d="M2251,1245.42A51,51,0,0,0,2233,1240a65,65,0,0,0-18.49.58,75.68,75.68,0,0,0-9,2,65.61,65.61,0,0,0-8.71,3.16,2,2,0,0,0,1.59,3.67l.08,0a63.69,63.69,0,0,1,8.18-2.69,77.14,77.14,0,0,1,8.51-1.69,60.46,60.46,0,0,1,17.15,0,45.61,45.61,0,0,1,16,5.33,18.3,18.3,0,0,1,1.81,1.07c.59.38,1.19.73,1.76,1.14,1.12.84,2.28,1.63,3.33,2.57a52.24,52.24,0,0,1,5.95,6l.07.09h0a3,3,0,1,0,4.51-4.07A52.55,52.55,0,0,0,2251,1245.42Z"/><path class="cls-34" d="M2092.74,1389.92c.79,15.25,2,33.51,35.41,30.3,45.39-4.35,1.18-95.71,1.18-95.71C2110.24,1305.51,2092,1374.67,2092.74,1389.92Z"/><ellipse class="cls-45" cx="2005.27" cy="1311.29" rx="24.1" ry="23.09" transform="translate(-38.26 60.47) rotate(-1.71)"/><ellipse class="cls-45" cx="2221.78" cy="1311.29" rx="24.1" ry="23.09" transform="translate(-38.26 67.09) rotate(-1.72)"/><path class="cls-44" d="M1919.36,1351a59.28,59.28,0,0,0-46.82,22.82,268.85,268.85,0,0,0,37.37,95.48,57.84,57.84,0,0,0,9.45.77,59.54,59.54,0,1,0,0-119.07Z"/><path class="cls-44" d="M2267.07,1410.53A59.49,59.49,0,0,0,2324,1470a268.73,268.73,0,0,0,38.91-106.63,59.51,59.51,0,0,0-95.82,47.19Z"/><path class="cls-10" d="M2156.85,1457.86c-35.19,14.3-68.42,2.77-87.36-2.18a9.49,9.49,0,0,0-11.92,9.55c.52,12.28,11.73,37.46,51.55,45.1C2172.8,1522.55,2203.57,1438.86,2156.85,1457.86Z"/></g><g class="cls-56"><path class="cls-57" d="M2232,465.94h-270.9a8.35,8.35,0,0,0-8.34,8.33v26a8.35,8.35,0,0,0,8.34,8.34H2232a8.35,8.35,0,0,0,8.33-8.34v-26A8.34,8.34,0,0,0,2232,465.94Zm2.33,34.29a2.33,2.33,0,0,1-2.33,2.34h-270.9a2.34,2.34,0,0,1-2.34-2.34v-26a2.34,2.34,0,0,1,2.34-2.33H2232a2.33,2.33,0,0,1,2.33,2.33Z"/></g><g class="cls-56"><path class="cls-57" d="M2312.12,462.51h-31.64a9.51,9.51,0,0,0-9.5,9.5v31.64a9.52,9.52,0,0,0,9.5,9.5h31.64a9.52,9.52,0,0,0,9.5-9.5V472A9.51,9.51,0,0,0,2312.12,462.51Zm3.5,41.14a3.5,3.5,0,0,1-3.5,3.5h-31.64a3.5,3.5,0,0,1-3.5-3.5V472a3.5,3.5,0,0,1,3.5-3.5h31.64a3.5,3.5,0,0,1,3.5,3.5Z"/></g><g class="cls-56"><rect class="cls-57" x="1955.78" y="2479.2" width="362.83" height="42.4" rx="8.25"/></g><g class="cls-23"><rect class="cls-10" x="1744.98" y="898.42" width="763.33" height="763.32"/></g><path class="cls-10" d="M1831.21,847H1710.44c-.23,0-.43.06-.65.07s-.43-.07-.65-.07a11.6,11.6,0,0,0-11.56,11.57V979.36a11.57,11.57,0,0,0,23.13,0V870.15h110.5a11.57,11.57,0,0,0,0-23.14Z"/><path class="cls-10" d="M2540.43,847c-.22,0-.43.06-.65.07s-.42-.07-.64-.07H2418.36a11.57,11.57,0,0,0,0,23.14h110.51V979.36a11.57,11.57,0,0,0,23.13,0V858.58A11.61,11.61,0,0,0,2540.43,847Z"/><path class="cls-10" d="M1831.21,1680.78h-110.5V1571.56a11.57,11.57,0,0,0-23.13,0v120.78a11.6,11.6,0,0,0,11.56,11.57c.22,0,.43-.06.65-.07s.42.07.65.07h120.77a11.57,11.57,0,1,0,0-23.13Z"/><path class="cls-10" d="M2540.43,1560a11.59,11.59,0,0,0-11.56,11.56v109.22H2418.36a11.57,11.57,0,1,0,0,23.13h120.78c.22,0,.43-.06.64-.07s.43.07.65.07a11.61,11.61,0,0,0,11.57-11.57V1571.56A11.6,11.6,0,0,0,2540.43,1560Z"/><circle class="cls-58" cx="1744.98" cy="1267.56" r="25.77"/><circle class="cls-58" cx="2505.16" cy="1267.56" r="25.77"/><path class="cls-58" d="M1735.27,1274.7h781.46v-12.53H1735.27Zm4-8.53h773.46v4.53H1739.27Z"/><path class="cls-10" d="M1802.2,2202.82a7.54,7.54,0,0,0-5.19-2c-3,0-5.22,1.52-6.57,4.54l-22,56.36,2.16,5.07-4.18.12,2-5.19-24-56.36q-2-4.66-6.56-4.66a8.14,8.14,0,0,0-4.77,1.85,6.2,6.2,0,0,0-2.51,5.31,9.74,9.74,0,0,0,.12,1.49,5,5,0,0,0,.48,1.49l29.46,69.2a7.32,7.32,0,0,0,2.75,3.28,7.78,7.78,0,0,0,3.7,1.25,7.93,7.93,0,0,0,4-1.14,7.35,7.35,0,0,0,3-3.51l29.47-69a8.27,8.27,0,0,0,.71-3.22A6.34,6.34,0,0,0,1802.2,2202.82Z"/><polygon class="cls-10" points="1770.64 2266.82 1768.48 2261.76 1766.46 2266.94 1770.64 2266.82"/><polygon class="cls-10" points="1830.76 2214.81 1831.84 2214.81 1831.84 2212.78 1830.76 2214.81"/><polygon class="cls-10" points="1831.84 2271.95 1831.84 2270.88 1830.88 2270.88 1831.84 2271.95"/><polygon class="cls-10" points="1831.24 2248.81 1831.84 2248.81 1831.84 2247.85 1831.24 2248.81"/><path class="cls-10" d="M1830.76,2214.81l1.08-2v2h32.33a7.57,7.57,0,0,0,5.19-1.85,6.17,6.17,0,0,0,2.08-4.84,6.66,6.66,0,0,0-2.08-5.07,7.29,7.29,0,0,0-5.19-2h-40a7.14,7.14,0,0,0-7.28,7.29v69a7.14,7.14,0,0,0,7.28,7.28h40a7.38,7.38,0,0,0,5.19-1.91,6.35,6.35,0,0,0,2.08-4.89,6.62,6.62,0,0,0-2.08-4.83,7.06,7.06,0,0,0-5.19-2.09h-32.33V2272l-1-1.07h1v-22.07h-.6l.6-1v1h27A7.55,7.55,0,0,0,1864,2247a6.17,6.17,0,0,0,2.09-4.84,6.67,6.67,0,0,0-2.09-5.06,7.24,7.24,0,0,0-5.19-2h-27v1l-1-1h1v-20.27Z"/><polygon class="cls-10" points="1831.84 2236.05 1831.84 2235.08 1830.88 2235.08 1831.84 2236.05"/><polygon class="cls-10" points="1898.29 2254.18 1900.08 2254.18 1900.08 2251.43 1898.29 2254.18"/><path class="cls-10" d="M1936.58,2248.69a22.32,22.32,0,0,0,2.37-1.36,25.71,25.71,0,0,0-2.24-1.38Z"/><polygon class="cls-10" points="1898.65 2214.81 1900.08 2214.81 1900.08 2210.99 1898.65 2214.81"/><polygon class="cls-10" points="1900.08 2244.75 1900.08 2241.89 1898.41 2241.89 1900.08 2244.75"/><path class="cls-10" d="M1950.66,2272.91a4.16,4.16,0,0,1-2.08-2.39,15.38,15.38,0,0,1-.72-3.81c-.12-1.52-.34-3.27-.65-5.26a18.06,18.06,0,0,0-1.49-6,19.93,19.93,0,0,0-3.47-5.25,19.18,19.18,0,0,0-3.3-2.85,22.32,22.32,0,0,1-2.37,1.36l.13-2.74a25.71,25.71,0,0,1,2.24,1.38,24,24,0,0,0,4.74-4,27.85,27.85,0,0,0,5-7.75,22.18,22.18,0,0,0,1.85-8.84,26.22,26.22,0,0,0-3.34-13.3,25,25,0,0,0-8.78-9.06,22,22,0,0,0-11.63-3.29h-34.36a7.12,7.12,0,0,0-7.27,7.29v69a6.36,6.36,0,0,0,2.62,5.19,9.34,9.34,0,0,0,6,2.09,5.63,5.63,0,0,0,4.65-2.09,8,8,0,0,0,1.67-5.19v-23.14h-1.79l1.79-2.75v2.75h22.31a15.76,15.76,0,0,1,4.77.65,8.65,8.65,0,0,1,3.34,1.91,8.49,8.49,0,0,1,2,3,9.64,9.64,0,0,1,.72,3.75,34.07,34.07,0,0,0,1.25,10.15,17.32,17.32,0,0,0,3.28,6.26,17,17,0,0,0,4.06,3.52,12.27,12.27,0,0,0,3.34,1.13,10.28,10.28,0,0,0,4.06,0,5.81,5.81,0,0,0,3.34-2,5.56,5.56,0,0,0,1.36-5.18A6.64,6.64,0,0,0,1950.66,2272.91Zm-16.93-38.36a14.82,14.82,0,0,1-3.34,5.37,6.05,6.05,0,0,1-4.18,2h-26.13v2.86l-1.67-2.86h1.67v-27.08h-1.43l1.43-3.82v3.82h26.13c2.15,0,4.15,1.17,6,3.52a13.63,13.63,0,0,1,2.81,8.76A20.62,20.62,0,0,1,1933.73,2234.55Z"/><path class="cls-10" d="M1974.76,2201.08a7.55,7.55,0,0,0-5.49,2.09,7,7,0,0,0-2.15,5.2v69a7.05,7.05,0,0,0,7.4,7.28,7.52,7.52,0,0,0,5.25-2.09,6.75,6.75,0,0,0,2.27-5.19v-69a6.89,6.89,0,0,0-2.21-5.2A7.17,7.17,0,0,0,1974.76,2201.08Z"/><polygon class="cls-10" points="2014.85 2237.36 2014.85 2235.8 2014.01 2235.8 2014.85 2237.36"/><polygon class="cls-10" points="2013.78 2249.52 2014.85 2249.52 2014.85 2248.45 2013.78 2249.52"/><polygon class="cls-10" points="2013.78 2214.81 2014.85 2214.81 2014.85 2213.38 2013.78 2214.81"/><path class="cls-10" d="M2046,2201.08h-38.78a7.12,7.12,0,0,0-7.27,7.29v69a7,7,0,0,0,2.08,5.19,7.79,7.79,0,0,0,10.62,0,6.84,6.84,0,0,0,2.21-5.19v-27.8h-1.08l1.08-1.07v1.07h25.77a7.13,7.13,0,0,0,5.19-2,6.31,6.31,0,0,0,2.09-4.65,6.66,6.66,0,0,0-2.09-5.07,7.29,7.29,0,0,0-5.19-2h-25.77v1.56l-.84-1.56h.84v-21h-1.08l1.08-1.43v1.43H2046a7.18,7.18,0,0,0,5.19-2,6.34,6.34,0,0,0,2.09-4.66,6.67,6.67,0,0,0-2.09-5.07A7.29,7.29,0,0,0,2046,2201.08Z"/><polygon class="cls-10" points="2087.02 2244.04 2087.02 2246.58 2087.98 2247.85 2087.02 2244.04"/><path class="cls-10" d="M2120.19,2200.73q-3.46,0-6,3.58l-19.66,28.77,1.89,2.61-3.34-.48,1.45-2.13-21-29q-2.51-3.34-5.84-3.34a8.1,8.1,0,0,0-5.13,2,6.48,6.48,0,0,0-2.51,5.26,8.29,8.29,0,0,0,.48,2.62,10.08,10.08,0,0,0,1.67,3l24.81,33V2244l1,3.81-1-1.27v30.74a7,7,0,0,0,2.09,5.19,6.91,6.91,0,0,0,5.07,2.09,6.63,6.63,0,0,0,4.83-2.09,7,7,0,0,0,2.09-5.19v-29.08l-2.14,3.08,2.14-8.24v5.16l24.93-35.7a7.4,7.4,0,0,0,1-2.2,8.71,8.71,0,0,0,.3-2.22,7.34,7.34,0,0,0-7.16-7.39Z"/><polygon class="cls-10" points="2096.45 2235.69 2094.56 2233.08 2093.11 2235.21 2096.45 2235.69"/><polygon class="cls-10" points="2098.96 2251.32 2101.1 2248.24 2101.1 2243.08 2098.96 2251.32"/><path class="cls-10" d="M2145.72,2201.08a7.55,7.55,0,0,0-5.49,2.09,7,7,0,0,0-2.15,5.2v69a7.05,7.05,0,0,0,7.4,7.28,7.52,7.52,0,0,0,5.25-2.09,6.75,6.75,0,0,0,2.26-5.19v-69a6.88,6.88,0,0,0-2.2-5.2A7.17,7.17,0,0,0,2145.72,2201.08Z"/><polygon class="cls-10" points="2229.7 2261.7 2227.68 2259.11 2227.68 2263.12 2229.7 2261.7"/><polygon class="cls-10" points="2180.91 2223.04 2184.01 2226.97 2184.01 2221.13 2180.91 2223.04"/><path class="cls-10" d="M2234.24,2201.08a6.2,6.2,0,0,0-4.77,1.92,6.67,6.67,0,0,0-1.79,4.77v51.34l2,2.59-2,1.42v-4l-43.43-55.39a5,5,0,0,0-2.62-2,10.26,10.26,0,0,0-3.46-.66,7.14,7.14,0,0,0-7.28,7.29v69.55a6.74,6.74,0,0,0,1.79,4.77,6,6,0,0,0,4.65,1.91,6.42,6.42,0,0,0,4.84-1.91,6.65,6.65,0,0,0,1.84-4.77v-51l-3.1-3.93,3.1-1.91V2227l43.79,55.6a5.42,5.42,0,0,0,2.44,1.5,10.21,10.21,0,0,0,3.16.53,7.14,7.14,0,0,0,7.28-7.28v-69.55a6.71,6.71,0,0,0-1.79-4.77A6.06,6.06,0,0,0,2234.24,2201.08Z"/><polygon class="cls-10" points="2311.79 2252.03 2311.79 2253.82 2313.82 2253.82 2311.79 2252.03"/><path class="cls-10" d="M2312.86,2268.85c-.33.15-.7.28-1.07.42v3.16Z"/><path class="cls-10" d="M2320.14,2239.5h-19.57a7.18,7.18,0,0,0-5.19,2,7.37,7.37,0,0,0,0,10.26,7.18,7.18,0,0,0,5.19,2h11.22V2252l2,1.79h-2v15.45c.37-.14.74-.27,1.07-.42l-1.07,3.58v-3.16a33.91,33.91,0,0,1-6,1.49,47.73,47.73,0,0,1-7.87.71,26.74,26.74,0,0,1-14.14-3.87,28.68,28.68,0,0,1-10.14-10.44,29.26,29.26,0,0,1,0-28.7,29,29,0,0,1,10.14-10.38,26.74,26.74,0,0,1,14.14-3.87,33.41,33.41,0,0,1,7,.72,32,32,0,0,1,6.32,2,8.94,8.94,0,0,0,2,.71,8.49,8.49,0,0,0,2,.24,6.14,6.14,0,0,0,4.89-2.26,7.8,7.8,0,0,0,1.91-5.14,6.68,6.68,0,0,0-.9-3.28,6.5,6.5,0,0,0-2.68-2.56,37.77,37.77,0,0,0-9.66-3.59,49.78,49.78,0,0,0-10.86-1.18,42.85,42.85,0,0,0-16.94,3.34,43.85,43.85,0,0,0-23.21,22.9,42.74,42.74,0,0,0,0,33.41,43.95,43.95,0,0,0,23.21,22.9,42.85,42.85,0,0,0,16.94,3.34,47,47,0,0,0,13.66-2,51.3,51.3,0,0,0,12-5.31,10.12,10.12,0,0,0,2.57-2.5,6.51,6.51,0,0,0,1.13-3.93v-25.3a7.19,7.19,0,0,0-2-5.19A6.87,6.87,0,0,0,2320.14,2239.5Z"/><circle class="cls-10" cx="2390.4" cy="2270.89" r="9.32"/><circle class="cls-10" cx="2455.62" cy="2270.89" r="9.32"/><path class="cls-10" d="M2520.83,2261.58a9.32,9.32,0,1,0,9.32,9.31A9.31,9.31,0,0,0,2520.83,2261.58Z"/><g id="key"><path class="cls-20" d="M2555.2,659.46c0,19.58,255.78,19.58,255.78,0V483.23H2555.2Zm127.89-139.25c17.44,0,31.58,13.25,31.58,29.58,0,12-7.65,22.35-18.64,27v49.58a12.53,12.53,0,0,1-12.52,12.53h-.84a12.53,12.53,0,0,1-12.52-12.53V576.78c-11-4.64-18.64-15-18.64-27C2651.51,533.46,2665.65,520.21,2683.09,520.21Z"/><path class="cls-20" d="M2683.09,360c-58.15,0-105.47,44.33-105.47,98.81v11.87h25.89V458.81c0-41.11,35.7-74.56,79.58-74.56s79.58,33.45,79.58,74.56v11.87h25.89V458.81C2788.56,404.33,2741.24,360,2683.09,360Z"/></g></g></g></svg>