<svg xmlns="http://www.w3.org/2000/svg" viewBox="0 0 4680 3120"><defs><style>.cls-1,.cls-3,.cls-35{fill:#fff;}.cls-2{fill:#f3f5f4;}.cls-3{stroke:#000;stroke-miterlimit:10;stroke-width:4px;}.cls-4{fill:#b6cec4;}.cls-5{fill:#a8c47a;}.cls-6{fill:#84a05c;}.cls-7{opacity:0.47;}.cls-8{fill:#ffc83e;}.cls-9{fill:#f28b0f;}.cls-10{opacity:0.72;}.cls-11{fill:#d3e0db;}.cls-12{opacity:0.3;}.cls-13{fill:#9ab5a9;}.cls-14{opacity:0.56;}.cls-15{fill:#fcdccd;}.cls-16{fill:#f2ad94;opacity:0.7;}.cls-17,.cls-29{fill:#0b3f42;}.cls-18{fill:#282828;}.cls-19{fill:#f26027;}.cls-20{opacity:0.51;}.cls-21,.cls-22{fill:#c73f00;}.cls-21{opacity:0.87;}.cls-23{fill:#8e1c02;}.cls-24{opacity:0.27;}.cls-25{opacity:0.29;}.cls-26{fill:#fdb23d;}.cls-27{fill:#ea9378;}.cls-28{fill:#296f7a;}.cls-29{opacity:0.54;}.cls-30{fill:#72120c;}.cls-31{fill:#530905;}.cls-32{fill:#ef9c2e;}.cls-33{fill:#c46906;}.cls-34{fill:#ac2a03;}.cls-35{opacity:0.77;}</style></defs><title>05</title><g id="_05" data-name="05"><rect id="_05-2" data-name="05" class="cls-1" width="4680" height="3120"/><path class="cls-2" d="M3448.7,2745.87q-28.68.38-57.3.56c-197.67,1.57-392.9,5.44-589.8,9.58q-194.86,4.09-389.78,4c-430-.25-869.82-28.78-1301-4.2-113.55,6.47-302.33-99.17-83-126.94,192.67-24.39,382.16-14,574.54-23.43q289.49-14.16,579.38-17.21c397.89-4.54,796.1,3.16,1194.69-5.43,106-2.28,211.89-13.47,318-11.57,51.4.92,231.62,11.39,136.6,110-20.69,21.47-51,30.37-80.06,36.88C3652,2740.24,3550.25,2744.5,3448.7,2745.87Z"/><polyline class="cls-3" points="1132.5 2663.44 1635.44 2663.44 1710.2 2663.44 1831.84 2663.44 2101.8 2663.44 2742.01 2663.44 3068.66 2663.44 3087.08 2663.44 3087.14 2663.44 3179.47 2663.44 3320.38 2663.44 3326.97 2663.44 3601.65 2663.44 3757.7 2663.44"/><path class="cls-4" d="M3757.7,2669.81H1132.5c-2.26,0-4.09-2.85-4.09-6.37s1.83-6.37,4.09-6.37H3757.7c2.26,0,4.09,2.85,4.09,6.37S3760,2669.81,3757.7,2669.81Z"/><path class="cls-2" d="M3881.83,2075.22q-10.54,17.73-22.06,34.65C3600,2491.81,2971.61,2572.3,2466.42,2590.62q-16.71.6-33.24,1.12c-45.09,1.42-89.07,2.37-131.61,3q-9.8.17-19.48.29c-49.56.69-97,1-141.79,1.26-50,.28-101.92-.17-155-1.72-68.4-2-138.73-5.84-209.5-12.31-62.75-5.74-125.82-13.54-188.2-24q-13.27-2.22-26.47-4.6c-49.52-8.94-98.5-19.59-146.4-32.24q-32.31-8.57-63.93-18.34c-37.41-11.6-74-24.57-109.43-39q-23.07-9.42-45.5-19.71-13.07-6-25.89-12.29c-47.64-23.4-92.71-50-134.46-80.2a752.61,752.61,0,0,1-94.14-80.28c-95-95.91-162.52-219.31-188.53-377.68C701,1578.4,826.35,1283,1038.79,1063.24a1253.2,1253.2,0,0,1,152.67-134.07,1284.71,1284.71,0,0,1,157.32-100.29,992.71,992.71,0,0,1,97.59-46c264.06-107.45,537-88.81,822.92-121.87,131.77-15.23,262.43-51.69,394-76.43,108-20.32,216.61-32.72,326.91-19,170.46,21.26,293.65,130.66,435.12,215.8,212.93,128.12,394.21,324.4,487.56,555.56,36.39,90.09,59.43,185.47,65.77,284.2C3990.45,1805.15,3953.64,1954.3,3881.83,2075.22Z"/><path class="cls-5" d="M3483.8,1712.11c-5.22-58.41,1.26-111.78,69.42-160,20.79,28.16,18.4,68.93.76,99.14C3538.14,1678.42,3512.08,1698.06,3483.8,1712.11Z"/><path class="cls-5" d="M3678.61,1839.86c-38.47-16.93-125.19-22.16-167.27,11.13-11,8.68-18.89,20-22.14,34.34,14-61.93-.62-119.69-5.4-173.22q-2.53,1.28-5.1,2.45l-.62-31.43c-57.91-174.73-233.07-307.57-414.39-272.72-59.8,11.5-136,65.88-155.21,134a114.93,114.93,0,0,0-.44,62.68h0c.35,1.27.73,2.54,1.12,3.81l-1.71-.85c-8.84-4.35-18-8.39-27.34-12.07-.58-.24-1.18-.46-1.77-.69-3.52-1.38-7.09-2.7-10.68-4-54.83-19.52-116.55-28-175.49-25.2a428.84,428.84,0,0,0-56.19,6.29,348,348,0,0,0-65.17,18.16c-62.76,24.64-115.23,67.31-157.78,120.22-56.28,70-95.19,157.81-117.56,245.46-18.85,73.82-18.53,148.53-34.34,222.77-10,46.84-16.64,95-18.13,143.55a603.43,603.43,0,0,0,9,126.8,497.61,497.61,0,0,0,49.57,143.36c42.54-.66,86.52-1.61,131.61-3q16.53-.52,33.24-1.12c505.19-18.32,1133.58-98.81,1393.35-480.75C3860.87,1992.52,3800,1893.34,3678.61,1839.86Zm-198.77-66.12L3479,1729A80.85,80.85,0,0,1,3479.84,1773.74Z"/><path class="cls-6" d="M3061.24,1805.38c-3.42-.07.45,6.18,3,3.91s1.3-6.43-.1-9.56c-28.36-63.79-24.92-140.82,9-201.82,41.66,59.64,38.88,146.62-6.49,203.49Z"/><g class="cls-7"><path class="cls-6" d="M3197.21,1979c-3.43-.07.44,6.17,3,3.9s1.58-6.57-.1-9.56c-42-74.68-24.93-140.81,9-201.82,41.66,59.64,69.44,124.15-6.49,203.49Z"/></g><g class="cls-7"><path class="cls-6" d="M3859.77,2109.87C3600,2491.81,2971.61,2572.3,2466.42,2590.62a1548.45,1548.45,0,0,1-208.14-243.31q-7.74-11.2-15.28-22.7c1.49-48.58,8.14-96.71,18.13-143.55,15.81-74.24,15.49-149,34.34-222.77,22.37-87.65,61.28-175.5,117.56-245.46,5.79,18.48,13.87,36.39,22.21,54q32,67.5,69.69,132.16c44.55,76.5,121.06,138.94,194.51,185.73-1.3-60,56-119.84,109.36-143.07,24.71,21.79,28.5,60.3,17.86,91.49-10.12,29.67-31.44,56.61-51.88,79.73,116.8,14.48,212.66,86.76,292.91,167.74,59.65,60.21,151.34,120.39,226,32.22-68.55-40.66-100.8-133.36-72.29-207.79,91.7-5.61,177,84.22,166.61,175.51,84.1-4.79,172.09-31.69,225.67-96.68s57.29-174.26-8.62-226.72c-32.24,19.81-66.35,40.21-104.17,41.74s-79.54-23.29-82.58-61c39.46,15.3,85.77,11.75,122.47-9.35-29.75-9-41-48.58-29.5-77.45a.06.06,0,0,1,0,0c42.08-33.29,128.8-28.06,167.27-11.13C3800,1893.34,3860.87,1992.52,3859.77,2109.87Z"/></g><path class="cls-5" d="M2680.41,1599.63l-1-.37c-49.85-19.1-89.48-63-103.41-114.53a105.5,105.5,0,0,1,88.86,30.49c22.62,23.32,33.27,57.71,27.78,89.73Z"/><path class="cls-6" d="M2894.85,1642.76l-14.07-25.18c-13.61-24.37-27.44-49.35-32.05-76.87s1.71-58.57,22.93-76.7c39.35,46.81,50.46,115.64,27.85,172.45l-24.8-49.13Z"/><path class="cls-6" d="M3287.47,1626.77l-6.79-23.06c-6.57-22.31-13.21-45.17-11.89-68.39s12.19-47.29,32.78-58.11c23.35,45.29,19.7,103.29-9.14,145.3L3281.32,1578Z"/><path class="cls-6" d="M2716.61,1855.12c-53.6,6.12-109.64-19.63-139.9-64.3,27.49-18.37,65.59-13.09,93.81,4.14s48.77,44.31,68.61,70.76Z"/><path class="cls-8" d="M2862.4,1732.29c23.13-1.8,44.65-36.61,18.53-65.34-23.66-26-58.1,9.92-48.47,39C2839.1,1726,2851,1733.18,2862.4,1732.29Z"/><path class="cls-8" d="M3214.9,2046c23.12-1.8,44.65-36.61,18.53-65.35-23.66-26-58.1,9.93-48.47,39C3191.6,2039.71,3203.45,2046.92,3214.9,2046Z"/><path class="cls-9" d="M3561.76,2145.43c23.12-1.8,44.65-36.6,18.53-65.34-23.66-26-58.1,9.93-48.47,39C3538.46,2139.12,3550.31,2146.32,3561.76,2145.43Z"/><path class="cls-8" d="M2876.57,2017.25c11.89-.19,21.74-19.58,7.19-37.2-13.19-16-29.68,3.62-23.63,20.82C2864.3,2012.74,2870.69,2017.35,2876.57,2017.25Z"/><path class="cls-8" d="M3242,1508.14c11.89-.19,21.74-19.58,7.18-37.2-13.18-16-29.67,3.62-23.62,20.82C3229.76,1503.63,3236.15,1508.24,3242,1508.14Z"/><g class="cls-10"><path class="cls-11" d="M1595.35,1487.45c-50.33,132.88-282.1,253.4-420.92,283.73a4278.24,4278.24,0,0,1-135.64-707.94,1253.2,1253.2,0,0,1,152.67-134.07,1284.71,1284.71,0,0,1,157.32-100.29,992.71,992.71,0,0,1,97.59-46c85,67.57,134.42,177.23,160.79,284.9C1641,1205.82,1645.67,1354.58,1595.35,1487.45Z"/></g><path class="cls-5" d="M1289.25,1619.56c-30.8-19.52-54.67-42.89-52.68-94.73,21.76.38,41,17,49.21,37.1C1293.18,1580,1293,1600.29,1289.25,1619.56Z"/><path class="cls-5" d="M1670.21,1628c-61.78-81.19-152.75-106.54-244.26-56.3-22.9,12.57-58.28,53.39-57.76,86.74a37.28,37.28,0,0,0,8.58,23.91c-25.27-30.33-59.3-45-87.52-62.83-.22,1.15-.45,2.3-.71,3.44l-15.74-11.58c-108.12-37.49-239.9-1.3-291.25,101.35-16.94,33.86-18.9,92,7.46,127.27a71.33,71.33,0,0,0,30.74,23.9c.75.32,1.53.61,2.31.9l-1.07.53q-8.24,4.08-16.29,8.92l-1,.61c-2,1.22-4,2.47-6,3.77-30.36,19.67-57.9,46.92-78.8,77.06a265.57,265.57,0,0,0-18.13,30.1,215.2,215.2,0,0,0-15.69,39c-11.58,40.28-10.36,82.3-.33,123.3,10.59,43.4,31,85.65,56.65,123.44q22.74,23,47.53,43.86,22.52,19,46.61,36.42c42.2,30.51,92.17,50.66,134.46,80.2q12.82,6.3,25.89,12.29,22.42,10.3,45.5,19.71,19.52,8,39.43,15.31,34.42,12.74,70,23.73,31.61,9.8,63.93,18.34l9.72,2.54c44.8,11.54,90.51,21.36,136.68,29.7q13.2,2.37,26.47,4.6c17.44-13.75,31.35-31.33,39.35-52.41a130.88,130.88,0,0,0,5.45-18.62c4.24-19.47,4.69-39.87,5.06-59.92.7-37.29-1.75-73.81-2.72-110.08-1.07-40.53-.29-80.72,8.82-121.31,4.76-21.25,10.76-42.86,16.45-64.62,7.13-27.28,13.74-54.76,16.72-81.93a31.21,31.21,0,0,1,1.5-6.61l62.33-275.33C1726.55,1716,1698.42,1665.11,1670.21,1628Zm-352,16.77-22.42-16.5A50.39,50.39,0,0,1,1318.17,1644.81Z"/><path class="cls-6" d="M1175.5,1863.32c-1.33,1.66,3.22,2.12,3.07,0s-2.68-3.07-4.76-3.56c-42.19-10.13-78.9-41-96.17-80.76,45.18,2,87,36.25,97.95,80.14Z"/><g class="cls-7"><path class="cls-6" d="M1312.57,1861.87c-1.33,1.67,3.22,2.12,3.07,0s-2.65-3.27-4.76-3.57c-52.71-7.54-78.9-41-96.17-80.76,45.18,2,87.51,12.68,98,80.14Z"/></g><g class="cls-7"><path class="cls-6" d="M1740.58,1767.47l-62.33,275.33a31.21,31.21,0,0,0-1.5,6.61q-9.24,40.82-16.72,81.93-16.82,92.28-25.27,185.93-4.93,54.14-7.26,108.59c-.84,19.5.49,41.58,4.92,61.41a130.88,130.88,0,0,1-5.45,18.62c-8,21.08-21.91,38.66-39.35,52.41q-13.27-2.22-26.47-4.6c-44.76-8.08-91.29-25.26-136.24-29.66l-.44,0-9.72-2.54q-32.31-8.57-63.93-18.34-35.53-11-70-23.73-19.92-7.35-39.43-15.31-23.07-9.42-45.5-19.71-13.07-6-25.89-12.29c-42.29-29.54-92.26-49.69-134.46-80.2q-24.06-17.41-46.61-36.42c90.71,7.36,183.4-8.74,265.3-48.52,33.62-16.32,80.62-59,66.25-102-12.48-37.31-64.53-40.59-76.79-82-9.49-32-5.7-66.49,2.22-98.92-.36,9.05,7.34,16.56,15.6,20.25s17.5,4.84,25.8,8.44c29,12.54,37.58,48.84,42.4,80.09-7.84-50.78,51.34-49,82.69-53.05,52.26-6.67,116.63-29.16,101.37-99.35-46,18.44-103.92-.7-129.86-42.9,31.9-47.38,108.47-55.49,149.6-15.86,29.43-43.3,49.42-96.89,37.61-147.9s-64.32-94.15-115.12-81.47c-2.42,23.4-5.25,47.94-18.79,67.18s-41.57,30.44-61.32,17.68a89.94,89.94,0,0,0,41.69-64c-15.69,11.27-39.48,1.88-49.39-14.75-.52-33.35,34.86-74.17,57.76-86.74,91.51-50.24,182.48-24.89,244.26,56.3C1698.42,1665.11,1726.55,1716,1740.58,1767.47Z"/></g><path class="cls-5" d="M930,1973.43l-.54.34c-28.27,17.37-64.92,20.32-95.61,7.71a64.47,64.47,0,0,1,103.42-12.09Z"/><path class="cls-6" d="M1032.35,1883.93l-17.75-2.58c-17.16-2.5-34.72-5.12-50.05-13.25s-28.24-23-29.16-40.31c38-1.72,76.13,18.82,95.61,51.46l-33.62-6.34Z"/><path class="cls-6" d="M1172.91,1684.16l-13.94-5.37c-13.5-5.19-27.29-10.56-38.24-20s-18.73-23.89-16.28-38.15c31.18,5.61,58.41,29.34,68.23,59.45l-26.16-11.34Z"/><path class="cls-6" d="M1069.74,2052.17c-17.25,28.77-51.15,46.68-84.63,44.72,1.33-20.51,18.34-37.31,37.51-44.73s40.31-7.3,60.86-7.09Z"/><path class="cls-8" d="M1064.25,1933.79c7.86-12.09-1.18-35.87-25.23-33.85-21.79,1.83-17.07,32.43.91,38.66C1052.33,1942.9,1060.36,1939.78,1064.25,1933.79Z"/><path class="cls-8" d="M1352.34,1878.49c7.86-12.09-1.18-35.87-25.23-33.85-21.8,1.83-17.08,32.43.9,38.66C1340.42,1887.6,1348.45,1884.48,1352.34,1878.49Z"/><path class="cls-9" d="M1532.54,1744.93c7.85-12.09-1.18-35.87-25.24-33.85-21.79,1.83-17.07,32.43.91,38.66C1520.61,1754,1528.65,1750.92,1532.54,1744.93Z"/><path class="cls-8" d="M1210.22,2034.55c4.4-5.94-1.45-18.13-15.64-17.61-12.87.47-9.44,16,1.34,19.53C1203.35,2038.9,1208,2037.49,1210.22,2034.55Z"/><path class="cls-8" d="M1097.2,1661.73c4.4-5.94-1.44-18.13-15.64-17.61-12.86.47-9.43,16,1.34,19.53C1090.33,1666.07,1095,1664.67,1097.2,1661.73Z"/><path class="cls-1" d="M3032.7,2302.75,1775.83,2582.29c-71.64-6.54-143.72-15.79-214.68-28.6-62.68-168.55-218.74-627.9-310-1243.56l-59.66-381a1282.83,1282.83,0,0,1,157.32-100.3C1643.12,670,1948,698.17,2269.29,661c131.76-15.23,262.43-51.69,394-76.43l41.24,433.19S2797.66,2157,3032.7,2302.75Z"/><g class="cls-12"><path class="cls-13" d="M2193.83,825.84,2523,761.44c4.95-1,8.5-5.49,7.92-10.12h0c-.57-4.62-5-7.59-10-6.62l-329.47,64.1c-5.17,1-8.82,5.64-8.16,10.35h0C2184,823.85,2188.67,826.85,2193.83,825.84Z"/></g><g class="cls-12"><path class="cls-13" d="M2198,855.47l328.68-64.9c5-1,8.49-5.5,7.92-10.11h0c-.58-4.61-5-7.57-10-6.59l-329,64.61c-5.16,1-8.81,5.64-8.15,10.33h0C2188.1,853.51,2192.81,856.48,2198,855.47Z"/></g><g class="cls-12"><path class="cls-13" d="M2142.86,879.28l-4.76-33.53L2134.45,820v0l-2.77-19.47h0l-.86-6c-.92-6.49-7.49-10.67-14.64-9.29l-94.29,18.13c-7.24,1.4-12.35,7.84-11.38,14.39l3.4,23.11,9.18,62.16c1,6.48,7.6,10.59,14.8,9.16l93.73-18.65C2138.75,892.12,2143.78,885.73,2142.86,879.28Zm-12.56,5-93.77,18.6a2.52,2.52,0,0,1-3.13-1.94l-8.48-57.68-4.06-27.56a2.81,2.81,0,0,1,2.41-3l94.23-18.17a2.52,2.52,0,0,1,3.1,2l1.83,12.82h0l2.88,20.19v0l1.51,10.55,5.87,41.21A2.82,2.82,0,0,1,2130.3,884.32Z"/></g><path class="cls-13" d="M2083.82,877.28l-.83.13a8.47,8.47,0,0,1-7.27-2.58c-10.9-12.23-25.43-22.08-25.58-22.18-3.75-2.53-4.3-7.54-1.21-11.2s8.62-4.57,12.36-2a178.52,178.52,0,0,1,20.78,16.86c13.24-17.82,44.2-56.54,77.5-77.25,4.12-2.57,9.44-1.72,11.89,1.9s1.1,8.61-3,11.18c-39.79,24.79-78.07,80.59-78.45,81.15A9.77,9.77,0,0,1,2083.82,877.28Z"/><g class="cls-12"><path class="cls-13" d="M2218.54,1002.92l326.19-67.38c4.91-1,8.42-5.52,7.86-10.07h0c-.57-4.55-5-7.43-9.92-6.42l-326.47,67.1c-5.12,1.05-8.74,5.66-8.09,10.3h0C2208.75,1001.08,2213.43,1004,2218.54,1002.92Z"/></g><g class="cls-12"><path class="cls-13" d="M2222.61,1032.09l325.69-67.86c4.91-1,8.42-5.53,7.86-10.07h0c-.57-4.54-5-7.4-9.91-6.38l-326,67.58c-5.1,1.06-8.72,5.67-8.08,10.29h0C2212.84,1030.27,2217.5,1033.15,2222.61,1032.09Z"/></g><g class="cls-12"><path class="cls-13" d="M2168,1056.22l-8.41-59L2156.89,978l-.74-5.22c-.91-6.4-7.4-10.43-14.5-9l-93.39,19c-7.18,1.46-12.25,7.89-11.29,14.32l12.39,83.93c.93,6.38,7.51,10.36,14.63,8.87l92.88-19.5C2163.91,1068.93,2168.91,1062.56,2168,1056.22Zm-12.45,5.11-92.91,19.44a2.46,2.46,0,0,1-3.09-1.88L2047.22,995a2.85,2.85,0,0,1,2.39-3L2143,973a2.46,2.46,0,0,1,3.07,1.89l1.7,11.93v0l2.83,19.87h0l7.37,51.66A2.84,2.84,0,0,1,2155.57,1061.33Z"/></g><path class="cls-13" d="M2109.43,1054.24c-.28,0-.55.1-.83.13a8.28,8.28,0,0,1-7.19-2.46c-10.79-11.92-25.18-21.47-25.32-21.57-3.72-2.45-4.25-7.39-1.2-11s8.55-4.6,12.26-2.15a176.08,176.08,0,0,1,20.56,16.39c13.13-17.73,43.83-56.28,76.83-77.09,4.09-2.58,9.36-1.8,11.78,1.73s1.08,8.49-3,11.06c-39.44,24.91-77.4,80.4-77.78,81A9.88,9.88,0,0,1,2109.43,1054.24Z"/><g class="cls-12"><path class="cls-13" d="M2242.87,1177.27,2566.12,1107c4.86-1.06,8.35-5.55,7.79-10h0c-.55-4.49-4.95-7.27-9.82-6.21l-323.53,70c-5.07,1.09-8.66,5.68-8,10.24h0C2233.18,1175.57,2237.8,1178.37,2242.87,1177.27Z"/></g><g class="cls-12"><path class="cls-13" d="M2246.87,1206l322.77-70.73c4.86-1.07,8.34-5.55,7.79-10h0c-.56-4.48-4.95-7.24-9.81-6.18l-323,70.46c-5.06,1.1-8.65,5.69-8,10.24h0C2237.2,1204.31,2241.82,1207.1,2246.87,1206Z"/></g><g class="cls-12"><path class="cls-13" d="M2192.77,1230.42l-7.7-54.24h0l-2.69-18.87-1.28-9c-.9-6.3-7.33-10.2-14.36-8.71l-92.52,19.82c-7.12,1.52-12.15,7.92-11.2,14.25l12.18,82.63c.93,6.28,7.44,10.14,14.51,8.58l92-20.31C2188.71,1243,2193.66,1236.67,2192.77,1230.42Zm-12.33,5.18-92.06,20.28a2.44,2.44,0,0,1-3.06-1.84l-12.13-82.58a2.84,2.84,0,0,1,2.35-3l92.48-19.85a2.42,2.42,0,0,1,3.05,1.84l2.23,15.61v0l2.8,19.56h0l6.69,47A2.82,2.82,0,0,1,2180.44,1235.6Z"/></g><path class="cls-13" d="M2135.3,1233a7.39,7.39,0,0,1-.82.14,8.11,8.11,0,0,1-7.12-2.34c-10.67-11.62-24.91-20.87-25.06-21-3.67-2.37-4.2-7.24-1.17-10.86s8.47-4.64,12.14-2.27a171.16,171.16,0,0,1,20.35,15.92c13-17.64,43.46-56,76.16-76.92,4-2.59,9.27-1.89,11.66,1.57s1.06,8.35-3,10.94c-39.08,25-76.73,80.18-77.1,80.73A9.93,9.93,0,0,1,2135.3,1233Z"/><g class="cls-12"><path class="cls-13" d="M2266.82,1349l320.36-73c4.83-1.1,8.29-5.57,7.74-10h0c-.55-4.41-4.91-7.11-9.73-6l-320.63,72.79c-5,1.14-8.59,5.71-8,10.2h0C2257.23,1347.38,2261.81,1350.09,2266.82,1349Z"/></g><g class="cls-12"><path class="cls-13" d="M1582.87,1657.29,2568,1476c14.83-2.73,25.69-11.06,24.26-18.61h0c-1.42-7.56-14.61-11.48-29.45-8.75l-985.91,180.92c-15.45,2.83-26.62,11.35-24.95,19h0C1553.57,1656.22,1567.44,1660.13,1582.87,1657.29Z"/></g><g class="cls-12"><path class="cls-13" d="M1593.1,1741.32,2578.19,1560c14.83-2.73,25.69-11.06,24.27-18.61h0c-1.43-7.55-14.62-11.47-29.46-8.75l-985.91,180.92c-15.44,2.83-26.62,11.35-24.95,19h0C1563.81,1740.24,1577.67,1744.16,1593.1,1741.32Z"/></g><g class="cls-12"><path class="cls-13" d="M1596.62,1825.62l985.09-181.33c14.83-2.73,25.69-11.06,24.26-18.61h0c-1.43-7.55-14.61-11.47-29.45-8.75l-985.91,180.92c-15.45,2.83-26.62,11.35-24.95,19h0C1567.32,1824.55,1581.19,1828.46,1596.62,1825.62Z"/></g><g class="cls-12"><path class="cls-13" d="M1635,1908.46l985.09-181.32c14.83-2.73,25.69-11.06,24.26-18.61h0c-1.42-7.56-14.61-11.48-29.45-8.75L1629,1880.69c-15.45,2.84-26.62,11.36-25,19h0C1605.7,1907.39,1619.57,1911.3,1635,1908.46Z"/></g><g class="cls-12"><path class="cls-13" d="M2217.14,1402l-7.59-53.41-2.63-18.59h0l-1.27-8.89c-.88-6.19-7.25-10-14.22-8.4l-91.67,20.61c-7,1.57-12,7.94-11.1,14.18l10.72,72.59,1.29,8.77c.9,6.19,7.34,9.91,14.35,8.28l91.16-21.08a14.46,14.46,0,0,0,10.51-9.26A10.65,10.65,0,0,0,2217.14,1402Zm-12.21,5.24-7.41,1.72-83.8,19.34a2.36,2.36,0,0,1-3-1.76l-1.12-7.62-10.86-73.7a2.88,2.88,0,0,1,2.36-3l91.64-20.64a2.36,2.36,0,0,1,3,1.76l2.18,15.39,2.75,19.27h0l6.6,46.26A2.84,2.84,0,0,1,2204.93,1407.2Z"/></g><path class="cls-13" d="M2160.21,1405.18l-.81.15a8,8,0,0,1-7.05-2.22c-10.56-11.35-24.66-20.3-24.8-20.39-3.64-2.3-4.16-7.09-1.16-10.7s8.39-4.68,12-2.38a167,167,0,0,1,20.14,15.46c12.91-17.54,43.1-55.74,75.52-76.74,4-2.61,9.18-2,11.55,1.41s1,8.22-3,10.82c-38.74,25.15-76.08,80-76.45,80.53A10,10,0,0,1,2160.21,1405.18Z"/><g class="cls-14"><path class="cls-13" d="M2635.11,1968.11a208.07,208.07,0,0,0-93.34-92.77c-31.85-15.67-67-19.71-104.59-11.93-34,7-68.74,23.91-100.46,48.81-35.93,28.2-66.86,66-87,106.45-21.63,43.38-30.29,87.7-25.08,128.07,4.37,33.86,21.89,63.07,50.56,84.47,24.28,18.12,54.68,28.87,86.38,30.75,2.91.18,5.85.28,8.78.3,76.31.58,148.12-42,194.8-77.66,44.41-33.93,70.4-66,81.9-101C2658.83,2047.85,2654.61,2006.87,2635.11,1968.11ZM2629.06,2080c-9.93,30.24-33.32,58.64-73.73,89.46-44,33.54-111.29,73.55-181.76,72.92-2.65,0-5.28-.12-7.89-.28-62.47-3.81-114-45.91-121.06-100.7-9.23-72,32.26-158.09,103-213.63,44.65-35.1,92-51.25,135.64-47.41a136.5,136.5,0,0,1,48.32,13.43,191.88,191.88,0,0,1,86.26,85.47C2627.86,1999.16,2642.63,2038.63,2629.06,2080Z"/></g><path class="cls-3" d="M1830.15,1122.54l-25.43-81.16L1777,952.85a26,26,0,0,0-9.34-13.1,25.88,25.88,0,0,0-30.9.11,126.28,126.28,0,0,1-38.14,19.33c-44.85,14-88.64,2.69-89,2.6a26,26,0,0,0-26.65,8.3c-.3.34-29.77,34.66-74.64,48.71a126.24,126.24,0,0,1-42.34,5.88,25.9,25.9,0,0,0-25.65,33.63L1493.51,1228c7,22.24,17.21,39.81,32.21,55.32,30.69,31.68,87.69,71.67,184.86,82.32a25.78,25.78,0,0,0,19.82-6.21c73.73-64.18,97.71-129.55,104.85-173.09C1838.72,1165.05,1837.12,1144.78,1830.15,1122.54Z"/><path class="cls-13" d="M1836.23,1120.65,1809,1033.84l-26-82.9a32.33,32.33,0,0,0-12.23-16.76,32.89,32.89,0,0,0-8.65-4.32,32.42,32.42,0,0,0-29.25,4.9,120.22,120.22,0,0,1-36.23,18.35c-42.78,13.4-85,2.62-85.41,2.53a32.44,32.44,0,0,0-33.17,10.3c-.29.34-29,33.41-71.69,46.78a120.17,120.17,0,0,1-40.23,5.6,32.27,32.27,0,0,0-32,41.9l53.17,169.69c7.27,23.21,18,41.59,33.72,57.85,31.42,32.43,89.68,73.36,188.74,84.22a32.05,32.05,0,0,0,13.17-1.28l.88-.29a32.23,32.23,0,0,0,10.66-6.17c75.16-65.43,99.64-132.3,107-176.87C1845.18,1165,1843.49,1143.85,1836.23,1120.65ZM1829,1185.3c-7,42.51-30.45,106.38-102.75,169.32a19.32,19.32,0,0,1-15,4.68c-95.28-10.44-151-49.49-181-80.42-14.3-14.77-24.06-31.54-30.72-52.77l-53.16-169.71a19.54,19.54,0,0,1,19.32-25.34,132.65,132.65,0,0,0,44.48-6.18c46.28-14.47,76.31-49.17,77.6-50.67a19.65,19.65,0,0,1,20.1-6.27c.44.12,46.18,11.88,92.58-2.66a132.79,132.79,0,0,0,40-20.31,19.53,19.53,0,0,1,30.34,9.79l29.5,94.16,23.66,75.53C1830.71,1145.69,1832.27,1165,1829,1185.3Z"/><path class="cls-13" d="M1675.27,1245.19a41.25,41.25,0,0,1-30-2.09l-102.45-48.45a41.36,41.36,0,1,1,35.36-74.78l68.19,32.25,138-241.49a41.36,41.36,0,0,1,71.42,41.74l-157.11,274.21A41.27,41.27,0,0,1,1675.27,1245.19Z"/><path class="cls-4" d="M2094.15,2578.17c-171.37,0-320.86-10.65-455.26-32.36-89-14.38-172.91-34-249.36-58.34-82.92-26.4-160-59.25-229.12-97.64-74.06-41.15-141.39-90-200.12-145.2A955.8,955.8,0,0,1,798,2043.75c-9.9-16.33-19.34-33.12-28.06-49.9-51.63-99.37-75.2-208.54-70.08-324.46,4.65-105.36,32.72-214.18,83.41-323.45,46.24-99.69,111.83-199,189.67-287.36,74.9-85,161.13-159.89,249.36-216.65,151.45-97.41,327.46-165.87,523.15-203.48,62.75-12.06,125.61-20.84,178.82-27.83a5.31,5.31,0,0,1,1.38,10.54c-53,7-115.71,15.72-178.19,27.73-194.35,37.35-369.11,105.31-519.4,202-181.54,116.76-344.21,303.51-435.15,499.54-74.3,160.16-137,400.94-13.54,638.53,8.61,16.58,17.94,33.16,27.72,49.29,164,270.38,436.66,433,833.47,497.07,340.66,55,720.21,27.23,1025.2,4.9l38.7-2.83c223.26-16.25,543.54-64.49,801.52-202,276.44-147.33,420.73-364.05,428.88-644.14,10.37-356.55-137.19-681.73-426.71-940.38-21.68-19.38-44.63-37.8-66.82-55.62-39.94-32.06-81.24-65.23-115.92-104.62-12.5-14.21-24.72-29.1-36.55-43.5-40.19-49-81.75-99.6-140-129.75-204.4-105.87-432.6-11.23-633.94,72.26-13.61,5.65-27.69,11.49-41.29,17.07a5.32,5.32,0,0,1-4-9.84c13.58-5.57,27.65-11.4,41.26-17.05,102.45-42.48,208.39-86.42,317.72-107.56,125.59-24.28,232-12.61,325.18,35.68,60.16,31.16,102.42,82.65,143.3,132.44,11.77,14.33,23.93,29.15,36.31,43.22,34.07,38.71,75,71.58,114.6,103.36,22.3,17.91,45.35,36.42,67.24,56,140.62,125.62,249.06,268.74,322.31,425.38,76.94,164.52,113.26,340.56,107.95,523.24-2.25,77.12-14.88,150.5-37.54,218.1A675.46,675.46,0,0,1,3816.07,2089c-72,100.21-174.6,186.28-305.06,255.81-259.62,138.36-581.46,186.87-805.74,203.19l-38.71,2.83c-153.56,11.25-327.61,24-502.67,26.79Q2128.43,2578.17,2094.15,2578.17Z"/><path d="M2781.67,783.41c5.59,21.05,22.84,44.63,46.75,44.47-48.37-24.07-22.81-94.91-21-136.81,1.72-40.4,3.48-79.9-1.44-120.24-1.5-12.31-3.65-24.83-9.61-35.7s-16.37-20-28.69-21.41a25.17,25.17,0,0,0-27.35,17.58,27.07,27.07,0,0,0-1.21,8.22c0-2.45-8.64,3.65-9.11,4.15-3.62,3.84-2.91,11.5-3.11,16.24-.6,14.24,4.57,28.78,7.84,42.43,9.29,38.87,35.75,69.85,40.61,111.2C2778.07,736.81,2775.65,760.77,2781.67,783.41Z"/><path class="cls-15" d="M3167.46,2479.56a4.7,4.7,0,0,1-3.4-.72c-3.31,5.63-9.44,15.34-20,31.38-38.44,58.21-164.74,134-164.74,134l-17.58-39.54c27.85-21.19,46.26-48.46,58.38-77.79,31.87-77.14,20.21-168.56,21.8-201.19,2.19-45-70.3-262.5-89-399.79-1.35-9.89-2.18-19.2-2.56-28-5-112.83,64.06-134.58,64.06-134.58l129.6,19.76c4.23.65,4.08,33.55,2.36,72.79-1.21,27.79-3.19,58.75-4.94,83.68-1.64,23.28-3.07,41.3-3.48,46.53q-1.29,16.65-2.25,33.33c-1.23,20.92-2.08,41.89-2.67,62.88-2.48,89-.19,178.56-.45,267.29-.07,26.73,7.44,43.05,18.6,66.14.41.85,1.35,3.16,2.58,6.43C3160,2438.5,3173.73,2478.63,3167.46,2479.56Z"/><path class="cls-15" d="M3680,2442.12s-37.35,85.67-92.27,158.16-107.63,0-107.63,0c30.11-20.84,40.38-60.63,40-102.6-.36-37.63-9.31-77-20.21-106.07-23.06-61.51-347.06-344.88-361.92-405.49-4-16.26-3.59-40.46-.89-67.19,2.07-20.34,5.47-42.15,9.31-63,9.9-53.82,22.68-101.35,22.68-101.35S3287.92,1826,3302.19,1882c6,23.55,48.29,99.48,96.84,181.73,67,113.43,145.88,238.86,158,255.41,12.34,16.89,53.13,56.85,84.39,86.66C3663,2426.36,3680,2442.12,3680,2442.12Z"/><path class="cls-16" d="M3167.46,2479.56a4.7,4.7,0,0,1-3.4-.72c-3.31,5.63-9.44,15.34-20,31.38-38.44,58.21-164.74,134-164.74,134l-17.58-39.54c27.85-21.19,46.26-48.46,58.38-77.79,52.2-20.57,95.85-50.86,130.47-106.39l3.22,1.69C3160,2438.5,3173.73,2478.63,3167.46,2479.56Z"/><path class="cls-17" d="M3166.68,2444.32s26.75,36.25,14.4,94.46-14.4,128.42-14.4,128.42l-10.14,3.33s-6.84-101.43-9.93-111-32.4,2-44.75,48.95-26.24,51.9-40.13,56c0,0-160.08,5.75-160.5,0-1.92-26.6,14.16-39.2,31.38-54.38,19.15-16.89,37.13-12.61,60.29-19.65,22.83-6.94,46.13-13.18,66.81-26.06,29.95-18.66,42.35-48.75,61.48-77.85C3141.21,2456.13,3166.68,2444.32,3166.68,2444.32Z"/><path class="cls-16" d="M3680,2442.12s-37.35,85.67-92.27,158.16-107.63,0-107.63,0c30.11-20.84,40.38-60.63,40-102.6,2.62-.21,5.23-.48,7.86-.82,27.68-3.59,58.89-16.94,77.77-38.34,14.29-16.2,17.3-41.3,35.67-52.75C3663,2426.36,3680,2442.12,3680,2442.12Z"/><path class="cls-17" d="M3657.38,2405.34c29.33,22.08,41.17,61,43.19,97.62s2.67,81.94,7.4,119.28c-3.28,1.41-6.72,3.8-9.8,3.79-8.16-26.26-10.12-72.79-27.4-92.51s-34.47,49.72-37.42,63.62-9.94,55.58-36.57,57.82c-17.32,6.11-164.49,5.83-165.6-.65-5.17-30,14.41-37.68,31.44-51.77,18.94-15.68,38.15-11.35,60-18.28,21.51-6.84,44.64-15.23,63.17-29.58,26.83-20.78,33.54-61,40.52-89.17C3633.6,2436,3640,2425.75,3657.38,2405.34Z"/><path class="cls-16" d="M3399,2063.7a150.59,150.59,0,0,1-51.31-17.25c-23.1-12.77-31.66-34.68-50.62-49-37.52-28.43-75.42,20.67-118.49-4.81-19.07-11.29-31.7-31.47-37.16-53-.32-1.26-.62-2.53-.89-3.8-1.17-5.51-2-11.34-3.48-16.86-1.73-6.74-4.32-13-9.33-17.74-18.44,36.36-6.55,79.42,8,118.26-1.23,20.92-2.08,41.89-2.67,62.88-37.79-68.5-80.31-151.4-156.5-175.83-8.71-2.8-17.56-5.43-26.18-8.56-5-112.83,64.06-134.58,64.06-134.58l129.6,19.76c4.23.65,4.08,33.55,2.36,72.79,9.9-53.82,22.68-101.35,22.68-101.35S3287.92,1826,3302.19,1882C3308.2,1905.52,3350.48,1981.45,3399,2063.7Z"/><path class="cls-17" d="M3607.73,1985.4a120.4,120.4,0,0,1-84.31,36.65c-.57,0-1.17,0-1.8,0-19.42-.29-67.85-8.62-78.69-28.32a17.27,17.27,0,0,1-1.44-3.35c-1.87-6,1.73-13.23,5.12-20.25,3.64-7.59,7-14.95,3-20.32-1.65-2.2-4.57-4.07-9.22-5.48-13.6-4.12-28.26,11.84-35.14,23.61a47.38,47.38,0,0,0-2.33,4.45c-2.9,6.36-4.79,13.31-9.2,18.72-19.18,23.58-77.66,20.13-63.72-21.72,2.69-8.07,8.57-15.19,9.14-23.67a23.43,23.43,0,0,0-1.84-11.31c-14-31.7-100.89-20.43-116.64,1.66-3.66,5.12-5.71,11.21-8.8,16.69-.29.52-.59,1-.9,1.54-8.61,14-27.13,21.56-42.55,16s-24.83-24.89-18.22-39.89c5.09-11.57,17.82-19.18,20.46-31.54a20.24,20.24,0,0,0-.11-9.11c-3.48-14.33-22.22-24.3-38.31-23-11.72,1-22.67,5.44-33.7,9.72-7.17,2.79-14.38,5.51-21.83,7.14-18.95,4.18-43.67-2.7-47.34-21.75-.75-3.87-.52-7.9-1.21-11.75a20.39,20.39,0,0,0-.57-2.43c-12.35-40.59-90.7-3-74.89,24.81-24.35-42.82-3.37-57.79,19.85-92.42,19.26-28.72,36.15-59.19,52.77-89.48,31.63-57.63,62-116.55,88.45-177q15-34.08,28.11-68.8a331.89,331.89,0,0,0,15.58-54.81c15.09-78.67-5.34-135.31-12.94-152.69-1.6-3.68-2.64-5.6-2.64-5.6s6.75-4.4,17.51-11.42l2.89-1.89,3.08-2c6.86-4.46,14.91-9.71,23.73-15.47l3.9-2.54,82.78-54,4-2.59,19.53-12.74,3.94-2.57,40.76-26.58s-18-38.08,59.35,39c8.91,8.87,19.09,19.28,30.72,31.46,112.46,117.82,128.5,464.43,129.6,568.77S3607.73,1985.4,3607.73,1985.4Z"/><path class="cls-15" d="M3121,1140.6,2954.8,1264l-57.89,43-56.73,5.62L2714,1325.12s-7.4-17.3-6.58-21.42c.58-3,16.74-22.71,33.43-36.16,6.66-5.37,13.41-9.73,19.29-11.62,9.1-2.91,19.79-5.81,28.9-8.16,11.54-3,20.53-5,20.53-5,18.66-10.55,35.78-21.21,51.46-31.78,58.16-39.23,96.63-77.56,121.58-107.14,27.11-32.13,38.29-54,41.48-55.48Z"/><path class="cls-16" d="M3121,1140.6,2954.8,1264q-4.11,1.38-8.21,2.82c-36.15,12.72-71.3,29.36-106.41,45.8L2714,1325.12s-7.4-17.3-6.58-21.42c.58-3,16.74-22.71,33.43-36.16,6.66-5.37,13.41-9.73,19.29-11.62,9.1-2.91,19.79-5.81,28.9-8.16,33.28-5.3,67.16-8.44,99.56-17.21,26-7,54.11-16,74.8-34,23-20.1,35.87-38.82,28.7-69.23-1.58-6.7-5.44-14.82-9.49-23.51,27.11-32.13,38.29-54,41.48-55.48Z"/><polygon class="cls-15" points="2862.86 773.76 2862.87 773.75 2862.87 773.76 2862.86 773.76"/><path class="cls-15" d="M2961.71,843q-5.68-8.36-11.08-15.48c-22.35-29.65-40.8-44.21-54.92-51s-23.92-5.81-28.94-4.35a15.78,15.78,0,0,0-3.86,1.6l0,0,57.51-112.91,1.79-3.51,10.26,9,79.81,70.07S3024.87,935.76,2961.71,843Z"/><path class="cls-15" d="M2932.43,666.35a70.31,70.31,0,0,1-5.43,8.5,45,45,0,0,1-4.83,5.55s-2.19,36.79-5.49,41.74-36.74,38.39-53.77,51.59l0,0h0c-44.55,34.48-69.16-7.09-83.69-50.45a1.13,1.13,0,0,0-.24-.71c-3.26-4.35-39.78,11-28.85-20.51,5.18-14.9,6-33.81,7.91-49.49.27-2.16.5-4.33.68-6.53.25.76.5,1.49.77,2.22-6.77-35.45-10.47-86.37-10.47-86.37.17-1.15.35-2.28.55-3.38,16.95-97.21,118.84,12,118.84,12l41.74,73.59c1.92-9.61,4.05-21.22,16-18.17C2945.1,630.84,2940.7,651.23,2932.43,666.35Z"/><path class="cls-16" d="M2961.71,843q-5.68-8.36-11.08-15.48c10.59-42.78-21.91-87.93-24.31-132.06-.35-6.32,1.14-13.78.68-20.56-.35-5.4-1.93-10.37-6.62-14a19.88,19.88,0,0,0-3.23-2.06c-12.87-6.58-29.69,1-44.41-9.87a12,12,0,0,0-3.69-2.16,10.87,10.87,0,0,0-3.86-.09c-26.6,2.58-53.26,7.58-70.62-18.79-12.28-18.65-12.86-42.46-20.51-63.43-1.47-4-3.7-8.4-7.82-9.56-6.36-1.77-11.53,5-14.6,10.89l-2.12-7.23c16.95-97.21,118.84,12,118.84,12l41.74,73.59c1.92-9.61,4.05-21.22,16-18.17,19,4.86,14.61,25.25,6.34,40.37l79.81,70.07S3024.87,935.76,2961.71,843Z"/><path class="cls-18" d="M2914.71,629.74a35,35,0,0,1-6.71,4.57l-.16.08c-21.74,11.05-45-8.9-45-8.9-.57.23-1.13.47-1.7.69-17.5,6.83-34.27,4.27-59.81-11.68-26.36-16.48-13.18-48.87-28.55-68.1-9.37-11.71-16.52.64-20.68,12.08a113.41,113.41,0,0,0-4.07,14.26v0s-1.05-24.16,6.09-46.13,24.16-14.28,71.39-18.67S2914.71,629.74,2914.71,629.74Z"/><path class="cls-18" d="M3244,669.84s-9.92,34.82-73.61,42c-4.27.49-8.77.84-13.53,1.06-.39,0-.8.05-1.19.06-4.23.16-8.66.22-13.29.14-21.94-.32-48.52-3.44-80.7-10.72-10.16,1.13-19.21,11.6-23.18,21s-4.47,19.89-4.92,30.11q-.3,6.5-.58,13-.66,14.61-1.31,29.22c-.77,17.17-1.57,34.56-6.57,51-7.15,23.6-27.47,48.61-52.44,54.25l-1.36.32c-6.21,1.42-11,2.65-15.89,4.24,0-.52.07-1,.11-1.57,10.18-6,19.72-14.34,23.5-24.48q7.55-20.26,14.09-40.85c-4.25,12.76-14.92,25.64-27.6,34.69a81.29,81.29,0,0,1-8.6,5.37,57,57,0,0,1-20.38,6.77c8.18-6.46,15-16.2,20.18-27.17a125.21,125.21,0,0,0,7.16-19.18,114.57,114.57,0,0,0,4.66-31.05c-.1-32.11-15.05-59.8-25.42-89.24-3.56-10.08-8.28-19.8-11.87-29.7-4.2-11.58-6.86-23.41-4.33-36.42-.74-.25-1.44-.53-2.14-.83-5.41-2.39-9.51-6.5-13-11.4-1.38-1.92-2.68-4-3.92-6.08-.49-.82-1-1.65-1.45-2.49-6.3-11.12-11.87-23.4-22.88-29-6.13-3.11-13.07-3.77-19.94-4.7-5.1-.68-10.14-1.51-14.78-3.59-10.47-4.69-17.28-15-21.73-25.59-2.6-6.19-4.6-12.64-6.87-19a106,106,0,0,0-5.53-13.09c-1.92-3.68-4.33-7.32-8-9.31-3.91-2.15-8.62-2-13.08-1.85-14,.59-30.38,2.65-37.5,14.76-3.25,5.53-3.42,11.79-4,17.92-.46,5-1.2,9.91-4.07,14.26v0c-14.43-26.61-6.78-52.8,14.92-72.4a130.4,130.4,0,0,1,33.23-21.52c22.88-10.46,49.07-15.17,73.08-12a17.37,17.37,0,0,0,3.07.46l.48.07-.54-.09c-1-.17-2-.31-3-.44a3.64,3.64,0,0,1-2.37-2.12c-.09-.19-.17-.39-.25-.61,17.9-12.18,47.27-7.63,66,.34,21.56,9.21,39.37,25.79,53.13,44.78,0,0,56.13,86.09,110,110.8,41.5,19.06,94.1,35.18,138.16,31.72,13.08-1,25.4-3.75,36.46-8.66,0,0-36.71,29.8-109.6,26.54-1.16-.05-2.34-.1-3.53-.18C3157.21,669.41,3202.8,684.55,3244,669.84Z"/><path class="cls-3" d="M2869.27,466.8c1.19.15,2.36.32,3.54.53A25.29,25.29,0,0,1,2869.27,466.8Z"/><path class="cls-19" d="M2956.71,858.29c-.29-6.4-.81-12.63-1.65-18.46a31.36,31.36,0,0,0,8.81-.72A125.21,125.21,0,0,1,2956.71,858.29Z"/><path class="cls-19" d="M2956.9,878.68c16.28-8.74,31-24.47,36.21-40q-6.53,20.58-14.09,40.85c-3.78,10.14-13.32,18.52-23.5,24.48.11-1.52.23-3,.34-4.52C2956.37,892.88,2956.74,885.85,2956.9,878.68Z"/><g class="cls-20"><path d="M3357.52,1264c-30.38,36.74-73.68,53.6-105.45,86.36a1623.12,1623.12,0,0,0-138.35,163.28q15-34.08,28.11-68.8a331.89,331.89,0,0,0,15.58-54.81c15.09-78.67-5.34-135.31-12.94-152.69-1-3.84-1.87-6.09-2.64-5.6.14-.08,6.75-4.4,17.51-11.42l2.89-1.89,3.08-2c6.86-4.46,14.91-9.71,23.73-15.47l3.9-2.54,82.78-54,4-2.59,19.53-12.74,3.94-2.57,40.76-26.58s-18-38.08,59.35,39C3405.49,1185.21,3386.61,1228.85,3357.52,1264Z"/></g><path class="cls-19" d="M3382.38,1097.76c-.48,5.77-4,15.21-9.63,26.67-20.16,40.91-67.64,107.5-102.41,123.81-44.47,20.86-121.91,26.36-121.91,26.36s-52.71-43.39-54.91-56-2.2-9.33-19.78-63.71a79.57,79.57,0,0,0-16-27.67c-12.73-14.68-30-25.88-46.59-35.22-26-14.65-58.47-20.2-65.72-52.49-6.94-30.85-3.46-60.76,4.21-91.09A159.56,159.56,0,0,0,2953,930c1.09-8.15,1.74-16.43,2.37-24.49,5.27-1.7,10.37-3,17.25-4.56,25-5.64,45.29-30.65,52.44-54.25,5-16.45,5.8-33.84,6.57-51q.95-21.12,1.89-42.21c.45-10.22,1-20.69,4.92-30.11s13-19.89,23.18-21c32.17,7.27,58.76,10.41,80.69,10.73,4.64.08,9.07,0,13.3-.15,9.2,13.92,19.86,36.17,31.29,62.8,21.79,50.8,46.44,117.56,69.32,173q1.22,3,2.43,5.86,3.12,7.5,6.2,14.66c6.05,14.11,11.93,27.1,17.54,38.48C3325.26,1094.47,3384.57,1071.41,3382.38,1097.76Z"/><path class="cls-21" d="M3210,790.57c-6.38-4.45-14.26-9.56-23-14.82-36.67-21.94-83.48-55.79-118.88-17.37-13.16,14.29-19.26,32.74-21.43,51.74-1.22,10.61,6.54,44.58,2.48,51l-7.22,11.46c3.29.53,6.81,2.27,10.47,5,1.83,8.15,4,16.21,6.56,24.12-24.34-15.86-50.46,2.29-71.39,16.11-11.9,7.86-23.09,12.37-34.49,12.21,1.09-8.15,1.74-16.43,2.37-24.49,5.27-1.7,10.37-3,17.25-4.56,25-5.64,45.29-30.65,52.44-54.25,5-16.45,5.8-33.84,6.57-51q.95-21.12,1.89-42.21c.45-10.22,1-20.69,4.92-30.11s13-19.89,23.18-21c32.17,7.27,58.76,10.41,80.7,10.72,4.63.08,9.06,0,13.29-.14.39,0,.8,0,1.19-.06A479.21,479.21,0,0,1,3210,790.57Z"/><path class="cls-22" d="M3052.36,877.58c-3.66-2.7-7.18-4.44-10.47-5l7.22-11.46C3050.05,866.66,3051.12,872.15,3052.36,877.58Z"/><path class="cls-21" d="M3372.75,1124.43c-20.16,40.91-67.64,107.5-102.41,123.81-44.47,20.86-121.91,26.36-121.91,26.36s-52.71-43.39-54.91-56-2.2-9.33-19.78-63.71a79.57,79.57,0,0,0-16-27.67,240.93,240.93,0,0,1,18-29c16.3-22.29,21.52-45.31,20.34-73.09-2.2-51.45-23-104-49-148.6a232.4,232.4,0,0,1,67.27,99.2c1.86,5.37,3.77,11.17,8.31,14.58,6,4.51,14.39,3.31,21.75,1.76a561.34,561.34,0,0,0,114.29-37.45l3.5-1.6q1.2,8.14,2.7,16.26c7.09,38.2,19.76,75.73,43.29,106.41C3324.74,1097.22,3347.46,1114.93,3372.75,1124.43Z"/><path class="cls-15" d="M3304.48,1195.41a1,1,0,0,0-.16.24C3271.46,1257.16,2902.4,1346,2902.4,1346a77.38,77.38,0,0,0-9.15,3.45c-6.77,3-15.43,8-19.3,14.85a15.87,15.87,0,0,0-1.2,2.58,131.16,131.16,0,0,1-5.56,12.57c-6.87,14-16.41,30.27-16.41,30.27-7.89,14.41-19.74,8-23.19,5.63a2.06,2.06,0,0,0-2-.18c-10.54,4.87-25.28-.4-28.89-1.82a2.15,2.15,0,0,0-1.65,0c-11.24,4.58-26.29-4.59-29.37-6.59a2.14,2.14,0,0,0-1.27-.33c-8.82.13-14.49-12.42-12.46-22.47a15.43,15.43,0,0,1,4.38-8.32c.31-.28.62-.61,1-1,8.93-9.82,28.16-47.45,33.74-58.55a2.13,2.13,0,0,0-1.91-3.08h-32.79a17.85,17.85,0,0,1-8.67-2.32c-5.3-2.91-9-7.89-10.87-10.78a2.15,2.15,0,0,1,1.06-3.16c9.7-3.54,46.16-17,58-22.18,13.73-6,37.33,4.4,79.07,0,19.8-2.08,38.7-19.16,58.21-20.84,49.21-4.23,96.41-27.62,142-68.57,14.52-13.06,33.37-19.93,51.2-28.35,4.73-2.23,9.38-4.56,13.86-7.15,8.61-5,45.84-22,44.63-32.77-3.67-32.72-25.71-67.09-38.21-97.33q-5.72-13.8-11.33-27.66c42.69-2.28,106.35-35.29,124.54-45.15l5.58,22.76c15.6,63.62,37.81,153.94,43.37,175.46C3317.16,1177.43,3305.59,1193.92,3304.48,1195.41Z"/><path class="cls-16" d="M3215.31,1111.78c-23.8,20.92-56.08,36.1-89,45.06,4.73-2.23,9.38-4.56,13.86-7.15,8.61-5,45.84-22,44.63-32.77-3.67-32.72-25.71-67.09-38.21-97.33q-5.72-13.8-11.33-27.66c42.69-2.28,106.35-35.29,124.54-45.15l5.58,22.76C3217.84,1008.77,3135.25,1046,3215.31,1111.78Z"/><path class="cls-16" d="M2874,1364.28a15.87,15.87,0,0,0-1.2,2.58,131.16,131.16,0,0,1-5.56,12.57c-6.87,14-16.41,30.27-16.41,30.27-7.89,14.41-19.74,8-23.19,5.63a2.06,2.06,0,0,0-2-.18c-10.54,4.87-25.28-.4-28.89-1.82a2.15,2.15,0,0,0-1.65,0c-11.24,4.58-26.29-4.59-29.37-6.59a2.14,2.14,0,0,0-1.27-.33c-8.82.13-14.49-12.42-12.46-22.47A231.94,231.94,0,0,0,2874,1364.28Z"/><path class="cls-19" d="M3198.91,771.6c16.65,31.35,33.7,62,45.07,96,33.51,100,20.87,76.42,20.87,76.42s-1.79,1-5,2.78l-3.58,1.92c-21.87,11.64-80.73,41.09-121,43.23a72.74,72.74,0,0,1-9.93-.07s-41.87-91.42-73-114.28c-3.66-2.7-7.18-4.44-10.47-5"/><path class="cls-23" d="M3198.91,771.6c4.17,6.83,8.32,13.68,12.37,20.58,2,3.45,4.06,6.91,6,10.38s3.93,7,5.86,10.5a404.24,404.24,0,0,1,20.94,43.53c.77,1.87,1.51,3.75,2.2,5.65s1.43,3.81,2.09,5.68l4,11.31c2.66,7.56,5.35,15.11,7.89,22.71s5.06,15.23,7.38,23c1.16,3.87,2.29,7.75,3.31,11.76.51,2,1,4,1.36,6.39a18,18,0,0,1,.2,2.13c0,.27,0,.44,0,.8,0,.17,0,.3,0,.51s-.07.46-.12.69a7.16,7.16,0,0,1-.34,1.1,6.53,6.53,0,0,1-.47.91,5,5,0,0,1-.35.49,5.25,5.25,0,0,1-.6.65,6.05,6.05,0,0,1-.68.55,5.37,5.37,0,0,1-1,.53,5.58,5.58,0,0,1-1.1.34,5.58,5.58,0,0,1-1.94,0,4.73,4.73,0,0,1-.64-.14,5.8,5.8,0,0,1-.59-.19c-.22-.08-.35-.15-.44-.19s-.44-.24-.65-.37l-.42-.29a5.85,5.85,0,0,1-.58-.5,8.17,8.17,0,0,1-.68-.71c-.34-.41-.58-.73-.79-1-.43-.64-.72-1.11-1.09-1.78l7.51,2.15c-5.54,3.17-11,6.13-16.59,9s-11.17,5.68-16.82,8.38c-11.3,5.42-22.8,10.46-34.54,15a295.31,295.31,0,0,1-36.1,11.57,176.09,176.09,0,0,1-18.88,3.55c-.79.14-1.61.19-2.42.26l-2.43.2c-1.62.11-3.24.27-4.86.34a76.94,76.94,0,0,1-9.94-.26l-2.93-.27-1.16-2.59c-5-11.11-10.22-22.3-15.71-33.28S3094,938.73,3088,928a342.19,342.19,0,0,0-19.5-31.15,120.62,120.62,0,0,0-11.6-14.17c-1.09-1.06-2.14-2.18-3.3-3.16l-1.72-1.52c-.59-.48-1.19-.95-1.8-1.4a23.15,23.15,0,0,0-8.19-4,22.57,22.57,0,0,1,8.76,3.14q1,.6,2,1.23l1.91,1.36c1.32.87,2.49,1.9,3.71,2.89a119.26,119.26,0,0,1,13.14,13.36,287.92,287.92,0,0,1,22,30.16q10.14,15.66,19.13,32,4.52,8.14,8.85,16.39c2.9,5.51,5.7,11,8.42,16.68l-4.1-2.86a67.84,67.84,0,0,0,8.67-.05c1.48-.11,2.95-.31,4.42-.45s2.94-.25,4.41-.52a168.09,168.09,0,0,0,17.63-3.72,314.33,314.33,0,0,0,34.65-11.58c11.4-4.48,22.65-9.45,33.78-14.68,5.56-2.62,11.08-5.36,16.57-8.12s11-5.62,16.25-8.55l4.95-2.74,2.57,4.89c.11.21.33.6.46.79l.11.16a.79.79,0,0,0-.16-.17,3,3,0,0,0-.31-.26l-.26-.18a4.67,4.67,0,0,0-.49-.27l-.36-.16a4.16,4.16,0,0,0-.5-.16,3.19,3.19,0,0,0-.54-.11,5.22,5.22,0,0,0-.88-.07,5.16,5.16,0,0,0-.88.1,4.75,4.75,0,0,0-1,.3,4.7,4.7,0,0,0-.91.5,4.58,4.58,0,0,0-1.15,1.06c-.19.26-.2.27-.3.42a4,4,0,0,0-.38.74,3.94,3.94,0,0,0-.24.74c0,.11,0,.22-.05.32v.14c0,.11,0,0,0,0s0-.5-.07-.86c-.2-1.58-.61-3.5-1-5.35-.87-3.75-1.89-7.57-2.94-11.38-2.12-7.63-4.34-15.28-6.64-22.9L3244.18,882l-3.53-11.45c-1.2-3.8-2.39-7.53-3.69-11.27-5-15-11.28-29.62-17.82-44.16q-2.47-5.45-5-10.87l-5.06-10.86C3205.64,786.13,3202.23,778.88,3198.91,771.6Z"/><path d="M2843.55,710.3c-1.23.9-2.74,15.07-3.66,17.52,0,.09-.06.18-.1.27-.26.72-.56,1.44-.88,2.16s-.49,1.15-.75,1.72c-4.09,8.87-10.61,17.3-20.12,20.69a9.23,9.23,0,0,1-7.46-.61,16.18,16.18,0,0,1-2.53-1.59,25.47,25.47,0,0,1-3.32-3.11q-.54-.61-1.05-1.26c-4.84-6-7.78-13.53-7.1-13.72A140.56,140.56,0,0,0,2843.55,710.3Z"/><path d="M2825.72,629a67.21,67.21,0,0,0-27.32-16.37,45.5,45.5,0,0,0-22.83-.78c-2.85.65-9.23,1.08-8,6.52,1.07,4.81,6.55,4.32,9.53,4,5-.59,10.08-1.21,15.11-1.39A62,62,0,0,1,2825.72,629Z"/><ellipse class="cls-18" cx="2787.11" cy="652.53" rx="7.46" ry="9.97" transform="translate(-74.89 600) rotate(-12.13)"/><path d="M2805.79,644.2a34.18,34.18,0,0,0-3.9-2.15c-1.31-.63-2.63-1.2-4-1.69a29.56,29.56,0,0,0-8-1.77,27.1,27.1,0,0,0-4-.05,8.61,8.61,0,0,0-3.85,1.24,11.94,11.94,0,0,0-3.27,3,13.76,13.76,0,0,0-2.18,4.66l.25.37c1.18-.73,2.25-1.42,3.35-2a28.37,28.37,0,0,1,3.32-1.37l3.38-1.14a14.61,14.61,0,0,1,3.54-.83,23.14,23.14,0,0,1,3.73-.08,31.2,31.2,0,0,1,3.82.36,41.4,41.4,0,0,1,7.78,1.9Z"/><path class="cls-19" d="M2839.79,728.09c-.26.72-.56,1.44-.88,2.16s-.49,1.15-.75,1.72c-4.09,8.87-10.61,17.3-20.12,20.69a9.23,9.23,0,0,1-7.46-.61,16.18,16.18,0,0,1-2.53-1.59,25.47,25.47,0,0,1-3.32-3.11q-.54-.61-1.05-1.26A69,69,0,0,1,2839.79,728.09Z"/><path d="M2908,634.31c1.32,2,2.57,4.08,3.76,6.16-1.38-1.92-2.68-4-3.92-6.08-21.74,11.05-45-8.9-45-8.9-.57.23-1.13.47-1.7.69-9.44-4.6-24-16.55-28.94-23.54-13.36-18.73-6.64-52.87-27.28-63.91a63.31,63.31,0,0,1,15.25,11.32c10,10.05,16,22.32,25.44,35,4.81,6.44,11.18,10.13,17.94,13.18,9.46,4.28,19.68,7.31,27.3,14.92a133.26,133.26,0,0,1,15.52,18.78C2906.94,632.69,2907.48,633.5,2908,634.31Z"/><path d="M2935.71,626c5.77,15.25,6.66,25,1.69,40a155.74,155.74,0,0,0-6.16,23.19c-4.2-11.58-6.86-23.41-4.33-36.42-.74-.25-1.44-.53-2.14-.83a28.59,28.59,0,0,0,2.2-13.68c-.79-7-3.88-13.59-7-19.92a503.45,503.45,0,0,0-28.37-49.33C2909.16,580.44,2928.28,606.29,2935.71,626Z"/><path d="M2998.25,755c10,19.18,16.53,42.93,14.42,64.69-1.75,18.21-6,39.3-16.91,54.15-7.19,9.81-15.86,18.64-24.46,27.5-6.21,1.42-11,2.65-15.89,4.24,0-.52.07-1,.11-1.57,10.18-6,19.72-14.34,23.5-24.48q7.55-20.26,14.09-40.85c-4.25,12.76-14.92,25.64-27.6,34.69a67.3,67.3,0,0,0,7.44-8.24c14.23-18.55,20.65-41.15,21.56-64.38a289.69,289.69,0,0,0-2.86-53.45c.36-.35-1.47-1.59-1.12-2C2994.7,746.29,2996.26,751.14,2998.25,755Z"/><path d="M3058.39,683.57c33.12,17,73.3,27.4,112,28.26-4.27.49-8.77.84-13.53,1.06-.39,0-.8.05-1.19.06-4.23.16-8.66.22-13.29.14-21.94-.32-48.52-3.44-80.7-10.72-10.16,1.13-19.21,11.6-23.18,21s-4.47,19.89-4.92,30.11q-.3,6.5-.58,13a32.84,32.84,0,0,1-8.5-13.82c-2.95-10.08,1.15-18,2.08-27.7,2.66-27.77-5.91-51.73-22.3-74C3017.63,669.13,3039.49,673.84,3058.39,683.57Z"/><path d="M3270.34,643.05s-36.71,29.8-109.6,26.54c-4.21-.56-8.5-1.28-12.94-2.14-7.34-1.43-14.8-2.44-22-4.64-14.61-4.49-27.31-13.73-38.53-24.1,18.35,16.95,47,17.28,69.94,21.82,24.75,4.88,52.33.34,76.62-8.82C3247,650.71,3259.28,648,3270.34,643.05Z"/><path d="M2929.53,490.28c-48.28-17-101.59-30.29-148.47-2.07l15.13-9.37c22.88-10.46,49.07-15.17,73.08-12a3.64,3.64,0,0,1-2.37-2.12c.73.42,1.47.81,2.21,1.17,1,.51,2.1,1,3.17,1.39l.06,0c7.89,3.13,16.5,4.27,24.71,6.54A91.62,91.62,0,0,1,2929.53,490.28Z"/><path class="cls-18" d="M3170,623.37a134.34,134.34,0,0,0,27.73,3.82l7,.07,6.93-.31,6.89-.61,6.83-1c2.26-.46,4.51-.91,6.74-1.41l6.63-1.83q3.26-1.07,6.55-2c2.17-.71,4.35-1.34,6.56-1.93s4.36-1.37,6.57-2,4.36-1.46,6.59-2.13,4.38-1.54,6.64-2.24,4.44-1.61,6.8-2.26l.46.72c-1.7,1.75-3.53,3.33-5.37,4.94s-3.91,2.87-5.92,4.25-4.18,2.47-6.31,3.66-4.4,2.07-6.63,3.07-4.57,1.68-6.89,2.41-4.74,1.16-7.12,1.66l-7.21,1c-2.42.22-4.83.48-7.23.75l-7.24.43-7.23.06-7.21-.4-7.16-.78a119.58,119.58,0,0,1-27.62-7.25Z"/><g class="cls-24"><path d="M3149.79,1605.14c-1.64,86.82-19.24,184.53-51.3,271.37-7.17,2.79-14.38,5.51-21.83,7.14-18.95,4.18-43.67-2.7-47.34-21.75-.75-3.87-.52-7.9-1.21-11.75C3094.68,1786.7,3133.3,1694.11,3149.79,1605.14Z"/></g><g class="cls-25"><path d="M3253.37,1616.64c-3.1,66.5,4,131.12-5.27,198-6.76,48.93-23.78,92.26-36.28,138.13-.29.52-.59,1-.9,1.54-8.61,14-27.13,21.56-42.55,16s-24.83-24.89-18.22-39.89c5.09-11.57,17.82-19.18,20.46-31.54a20.24,20.24,0,0,0-.11-9.11C3219.88,1807.32,3248.9,1712.65,3253.37,1616.64Z"/></g><g class="cls-24"><path d="M3431.64,1632.55c2,84.83-4.37,169.58-15.2,253.69-3.49,27.14-6.87,54.53-11.23,81.69a47.38,47.38,0,0,0-2.33,4.45c-2.9,6.36-4.79,13.31-9.2,18.72-19.18,23.58-77.66,20.13-63.72-21.72,2.69-8.07,8.57-15.19,9.14-23.67a23.43,23.43,0,0,0-1.84-11.31c22.76-48.63,34.63-103.55,42.72-157.06a1549.55,1549.55,0,0,0,4.62-429.46c5.84,45.25,25.39,90.73,33.08,136.35A1042.91,1042.91,0,0,1,3431.64,1632.55Z"/></g><g class="cls-20"><path d="M3521.62,2022c-19.42-.29-67.85-8.62-78.69-28.32q1.91-11.82,3.68-23.6,1.53-10.17,3-20.32c11.59-82.32,18.13-164.4,17.2-249,16.62,86.78,6,174.61,31,260.54A347.49,347.49,0,0,0,3521.62,2022Z"/></g><path class="cls-16" d="M2924.69,708.33c-5,24.17-15.3,47.24-29,68.15-14.13-6.8-23.92-5.81-28.94-4.35A312.57,312.57,0,0,0,2924.69,708.33Z"/><path class="cls-15" d="M1699.34,2171c-20.16,56.69-47.94,144.32-47.94,144.32-10.23,7.35-25.65,9-40.72,8.27-23.76-1.17-46.6-8.27-46.6-8.27s-158.16-17.3-182.87-23.06-48.6-65.09-42-64.26,0,0,9.06,0,124.38-4.93,146.63-14.83c11.49-5.11,28.7-37.7,43.11-68.42,5-10.64,9.65-21.06,13.61-30,7.48,1.17,15.12,2.57,21.81,5.65,20.32,9.33,69.2,36.24,86.77,24.15l-9.89,24.16S1674.17,2172.9,1699.34,2171Z"/><path class="cls-16" d="M1603.72,2204.74c-1.55,22.3-10.37,46.27-13.69,64.66s0,40.06,16.4,51.56a36.17,36.17,0,0,0,4.25,2.58c15.07.73,30.49-.92,40.72-8.27,0,0,27.78-87.63,47.94-144.32-25.17,2-49-2.32-49-2.32l9.89-24.16c-17.57,12.09-66.45-14.82-86.77-24.15-6.69-3.08-14.33-4.48-21.81-5.65-4,9-8.61,19.39-13.61,30a157.32,157.32,0,0,0,20.8,6.54c15,3.5,23.71-.08,34.61,13.3,17.06,20.93,14.66,56.85-5.18,74.71-9.76,8.78-21.93,14.33-34,19.5-26.24,11.24-53.54,21.41-82,22.95-32.18,1.73-63.83-7.62-94.63-17.1-19.34-5.95-11.54-11.51-30.88-17.45,8.81,29.93,40.22,46.34,69,58.39,22.58,9.45,45.69,18.37,70,21.62,29.57,4,56.33-5.48,85.21-5.65,12.37-.07,25.33,3.86,33.49,13.16Z"/><path class="cls-26" d="M1660.18,2302.52l-15.37,66-71.4,26.36v-26.36c-37.88-17.56-191.65-23.61-235.32-64.79-1-.9-1.89-1.8-2.81-2.69-41.06-39.47-45.29-61-44.21-75.51,1.1-14.82,78-3.24,81.27-2.14,0,0-3.25,27.18,19.85,50.68s182.32,17,194.4,19.23l-.67-14,13.69,4.28Z"/><path class="cls-9" d="M1660.18,2302.52l-15.37,66-71.4,26.36v-26.36c-37.88-17.56-191.65-23.61-235.32-64.79-1-.9-1.89-1.8-2.81-2.69,24.49,12,50.08,22.66,74.87,25.35,43.55,4.72,88.67-8.07,132.68-5.07,24.8,1.68,46.39-15,56.78-37.77Z"/><path class="cls-27" d="M1592.14,2280.31c.1-3.15.28-6.3.5-9.43s.48-6.27.73-9.4.56-6.25.86-9.37.65-6.24,1-9.35l0-.41.32-.64q7.5-14.62,15.62-28.88c5.41-9.51,11-18.94,16.72-28.24s11.7-18.51,18-27.53c3.13-4.5,6.31-9,9.66-13.35l2.5-3.28,2.61-3.21c.87-1.07,1.75-2.13,2.69-3.15.47-.51.94-1,1.43-1.51a7.27,7.27,0,0,1,1.61-1.32,8.2,8.2,0,0,0-1.2,1.65q-.53.87-1,1.77l-2,3.6-3.81,7.27q-3.77,7.29-7.63,14.52-7.72,14.46-15.83,28.7T1618.39,2217q-8.48,14-17.39,27.8l.38-1c-.67,3.06-1.37,6.11-2.07,9.17s-1.44,6.11-2.23,9.15-1.51,6.09-2.36,9.12S1593.06,2277.29,1592.14,2280.31Z"/><path class="cls-28" d="M2120.39,1630.46s-.4,10.18-2.06,23.89c-2.66,21.89-8.52,52.76-21,65.55-19.48,19.92-146.79,102-196.7,109.86a46.69,46.69,0,0,1-6.11.59c-44.64,1.11-89.35-30.2-89.35-12.07s-28.56,242.18-40.65,260.3,7.69,54.36-20.86,78c-8.5,7-20.22,10.94-32.48,13-3.92.65-7.9,1.1-11.84,1.41-25.17,2-49-2.32-49-2.32l5.71-13.94,4.17-10.21c-17.59,12.07-66.44-14.83-86.76-24.16-1.09-.5-2.21-1-3.35-1.38-5.82-2.15-12.2-3.29-18.46-4.27-15.24-2.39-29.78-3.8-34.21-16.32-6.58-18.67,50-143.88,78-273.49s88.14-229.9,88.14-229.9c8.12-13,28.69-15.9,40.88-15.56,5.12.14,8.76.87,9.37,1.64l369,47.17Z"/><path class="cls-29" d="M2118.33,1654.35c-2.66,21.89-8.52,52.76-21,65.55-19.48,19.92-146.79,102-196.7,109.86a46.69,46.69,0,0,1-6.11.59c-44.64,1.11-89.35-30.2-89.35-12.07s-28.56,242.18-40.65,260.3,7.69,54.36-20.86,78c-8.5,7-20.22,10.94-32.48,13-3.92.65-7.9,1.1-11.84,1.41-25.17,2-49-2.32-49-2.32l5.71-13.94,4.17-10.21c-17.59,12.07-66.44-14.83-86.76-24.16-1.09-.5-2.21-1-3.35-1.38,41.44-33.91,78.8-72.56,109.12-116.61,49.43-71.77,79.29-158.71,74.26-245.7,28.07,5.56,64.92,9.12,91.34-5.21,44.47-24.14,25.18-61.54-11.1-70.05-29.08-6.83-60.89-2.34-90.42-1.8-72,1.29-45.68-61-18.86-100.17,5.12.14,8.76.87,9.37,1.64l369,47.17C2108.21,1636.85,2113.36,1645.64,2118.33,1654.35Z"/><path class="cls-17" d="M1900.63,1829.76a46.69,46.69,0,0,1-6.11.59c-44.64,1.11-89.35-30.2-89.35-12.07s-28.56,242.18-40.65,260.3,7.69,54.36-20.86,78c-8.5,7-20.22,10.94-32.48,13-18.28-5.69-36.68-11.76-55.17-14.85-1.55-.26-3.11-.5-4.67-.72l8.84-9.49c10.76-27.75,20.08-57.24,33.73-83.67,17.28-33.44,26.5-69.58,45.36-103,22-39,40.08-165.25,51.61-172.44,22-13.7,87.51,20,103.14,37Q1897.22,1825.85,1900.63,1829.76Z"/><path class="cls-15" d="M2480.59,926.42v194.41s-5.72-.78-14.46-2.23c-9.52-1.57-22.63-3.94-35.86-7l-6.2-1.46c-6.41-1.57-12.73-3.29-18.53-5.15-13.17-4.2-23.79-9.07-27.26-14.46-7.12-11.08-3.5-31.5.31-45.5l.59-2.1c.37-1.27.72-2.46,1.07-3.58.86-2.79,1.65-5.09,2.22-6.69s.91-2.47.91-2.47c-6.22,0-17-8.5-24.16-14.8l-.18-.15c-4.1-3.62-6.95-6.47-6.95-6.47,9.2-8.85,21.46-32.35,32.7-56.76,5.95-12.92,11.62-26.09,16.4-37.5a.91.91,0,0,0,.06-.16c0-.1.09-.19.13-.29,7.09-17,12.19-29.9,13.31-32.14Z"/><path class="cls-16" d="M2480.59,926.42v177.93c-14.65,17-20.51,12-40.28,8.44a89.45,89.45,0,0,0-10-1.16l-6.2-1.46c-6.41-1.57-12.73-3.29-18.53-5.15a11.41,11.41,0,0,0,2.44-5.4c.83-5.43-1.64-10.82-4.6-15.45s-6.5-9-8.24-14.22c-4.13-12.46,3.05-25.58,10-36.76,11.5-18.59,11.09-21,3.43-41.74-2.55-6.91-3.8-14.21-5-21.46-3.35-19.52-10-36.94-2.3-55.45a.91.91,0,0,0,.06-.16,2,2,0,0,0,.13-.29c1.84-4.23,14.1-31.61,13.31-32.14Z"/><path class="cls-30" d="M2861.06,1211c-15.68,10.57-32.8,21.23-51.46,31.78,0,0-28.84,6.6-49.43,13.18-5.88,1.89-12.63,6.25-19.29,11.62l-.87.17-1.62.34-4,.86-5.67,1.25-.87.19-2.19.46c-.74.16-1.46.32-2.19.46l-2.19.44c-1.46.29-2.93.55-4.4.8l-2.19.34-2.21.3h-.07l-2.12.25h-.07c-.57.06-1.16.12-1.74.16-.88.09-1.76.15-2.64.19-12.79.67-23.8,4.57-34.41,9.48-12.22,5.65-23.88,12.62-37.08,17.56-12.28,4.58-29.08,8.06-43.73,5.77a40,40,0,0,1-17.48-6.72c-2.11-1.51-7.16-9.31-12.12-18-1.72-3-3.44-6.18-5-9.21l-.06-.13h0l-.38-.73c-.2-.39-.38-.76-.58-1.13l-.07-.16h0l-.42-.83c-.15-.32-.31-.64-.47-1s-.33-.65-.47-1c-.31-.63-.6-1.24-.89-1.84h0a1.24,1.24,0,0,0-.1-.2c-.43-.92-.84-1.8-1.21-2.64-.25-.56-.48-1.1-.69-1.61h0c-.29-.71-.55-1.37-.79-2-1.13-3-1.5-4.93-.68-5a79.9,79.9,0,0,1-10.58.69c-.85,0-1.72,0-2.57,0s-1.75-.06-2.63-.11a102.47,102.47,0,0,1-14.23-1.83c-.54-.1-1.07-.22-1.6-.33s-1-.21-1.45-.31q-3.29-.74-6.55-1.65l-1.6-.46c-.64-.18-1.27-.38-1.91-.57l-1.28-.41a145.55,145.55,0,0,1-18.79-7.53c-.51-.24-1-.49-1.52-.75q-2.67-1.32-5.3-2.76l-1.55-.86c-1-.58-2.06-1.17-3.06-1.77s-2-1.21-3-1.84q-4.47-2.79-8.65-5.87l-1.38-1c-1.82-1.38-3.6-2.79-5.32-4.23l-1.27-1.09c-1.27-1.1-2.5-2.21-3.71-3.33-.37-.35-.74-.72-1.12-1.07-2.09-2-4.07-4.11-5.91-6.21-.6-.68-1.16-1.34-1.72-2-.68-.83-1.35-1.66-2-2.5-22.68-29.59-20.64-62.92-11.09-94.88a1.72,1.72,0,0,0,.07-.21c4.67-15.55,11.11-30.79,17.33-45.1q1.86-4.3,3.21-8.41c.45-1.36.85-2.72,1.21-4.05s.69-2.66,1-4a71.87,71.87,0,0,0,1.25-7.69c.07-.63.13-1.27.18-1.89.92-11.54-1.11-22.22-4.77-33.06-3.47-10.29-8.4-20.72-13.64-32.17,0-.1-.1-.22-.15-.34-5.57-12.2-10.69-24.13-15.37-36.81a8,8,0,0,1-.35,4.05c-1.41,5.55-5.38,14.49-5.07,18.58.43,5.58,3.45,12.14,5.31,17.38,4.88,13.64,13,28.46,10.2,43.39-2,10.66-9.44,19.38-14.15,29.14s-5.92,23.2,2.53,30c-8.94,1-17.73-5.16-21.36-13.38a27.59,27.59,0,0,1-2.27-10.31,37,37,0,0,1,3.2-15.88c2.28-5.19,5.54-9.93,7.62-15.21,5.53-14.05,2.09-30-3.32-44.11-4.75-12.37-10.21-23.78-14.51-35.37-5-13.53-8.53-27.33-7.5-43.18,1.62-24.85,10.12-51.63,30.37-67.55,12.14-9.56,24.42-4.21,37.73-8.69,14.84-5,14.52-21.41,26.51-29.59,12.79-8.73,31.62-12.75,46.93-11.73,8.94.6,34,14.18,41.35,10.72,36.44-17.21,61.11,14.13,88.47,32.39,28.53,19,49,60.95,58.44,93.3,11.46,39.22,2.86,77.82,30.88,112.41,13.54,16.69,36.59,24,48.62,41.83,19.62,29.07,1.39,71.69,19.23,101.88.23.39.46.79.72,1.17.41.63.82,1.27,1.25,1.88q.45.66.93,1.29c.3.41.61.82.93,1.22.16.21.33.41.5.62s.45.55.69.82a6.35,6.35,0,0,0,.6.68c.26.32.54.64.83.94a46.78,46.78,0,0,0,4.16,4.05q.42.39.87.75c.28.25.56.49.84.71s.71.59,1.08.85a.6.6,0,0,0,.18.15c.4.32.8.62,1.21.92.24.19.49.38.75.55l.9.64q2.43,1.69,5,3.19l1.53.87c.62.35,1.24.68,1.87,1l1.73.89,1.71.84c.61.29,1.21.58,1.82.85,1.06.49,2.13.95,3.21,1.4A182.44,182.44,0,0,0,2861.06,1211Z"/><path class="cls-31" d="M2508.31,960.5a195.39,195.39,0,0,1,20.44,36.94,142,142,0,0,1,6.62,20.43,86.23,86.23,0,0,1,2.39,21.64c-.07,1.83-.21,3.66-.31,5.48s-.51,3.64-.8,5.44-.76,3.58-1.17,5.36l-.65,2.64c-.22.88-.57,1.74-.84,2.6-.61,1.72-1.13,3.45-1.79,5.13s-1.33,3.35-2.12,5l-1.12,2.43-1.21,2.38c-.74,1.62-1.66,3.14-2.46,4.71-3.39,6.2-7.08,12.16-10.7,18.13s-7.1,12-10.22,18.12c-.8,1.52-1.5,3.08-2.25,4.61s-1.41,3.11-2.07,4.64-1.24,3.08-1.78,4.64-1.07,3.12-1.54,4.7a76.13,76.13,0,0,0-3.24,19.12,42.54,42.54,0,0,0,3.13,17.94,30.87,30.87,0,0,0,4.47,7.34,29.84,29.84,0,0,0,3,3.09l1.65,1.41c.6.43,1.2.87,1.79,1.32a67.8,67.8,0,0,0,8.16,4.76c3,1.48,6.09,2.88,9.28,4.41a100.67,100.67,0,0,1,9.68,5.12,43.07,43.07,0,0,1,9.1,7.17l1,1.06.94,1.17a26,26,0,0,1,1.78,2.39c.53.84,1.08,1.67,1.52,2.55l.68,1.3.6,1.34a38.4,38.4,0,0,1,2.92,10.92c.93,7.33.34,14.42-.56,21.37l-1.14,0c-1-6.93-2-13.85-4-20.15-.25-.79-.54-1.55-.8-2.33s-.6-1.5-.94-2.22a32.37,32.37,0,0,0-2.2-4.17l-.61-1-.68-.92a20.29,20.29,0,0,0-1.44-1.75,6.54,6.54,0,0,0-.77-.81l-.81-.78-.79-.78-.89-.7a38.21,38.21,0,0,0-3.72-2.63l-2-1.16c-.68-.38-1.43-.7-2.13-1.07-2.88-1.4-5.94-2.62-9.14-3.85s-6.5-2.48-9.86-3.93a67.14,67.14,0,0,1-10.06-5.36c-.81-.56-1.63-1.14-2.43-1.73s-1.55-1.31-2.33-2a35.56,35.56,0,0,1-4.24-4.43,39,39,0,0,1-6-10.58,51.62,51.62,0,0,1-2.82-23,71.12,71.12,0,0,1,5.38-21.57,73.74,73.74,0,0,1,5-9.79c1.87-3.09,3.86-6,5.91-8.93s4.17-5.7,6.21-8.53,4.16-5.61,6.14-8.46A126.81,126.81,0,0,0,2522,1079a69.45,69.45,0,0,0,3.71-9.52c.55-1.6.91-3.26,1.31-4.89s.56-3.32.85-5c.11-.83.29-1.64.35-2.47l.18-2.51a45.8,45.8,0,0,0,.22-5l0-5c-.11-1.65-.24-3.3-.32-5a184.83,184.83,0,0,0-2.78-19.7c-1.4-6.55-3.12-13.08-5.08-19.61s-4.23-13-6.48-19.57-4.61-13.11-6.67-19.85Z"/><path class="cls-31" d="M2572.21,1033.42a77.76,77.76,0,0,0,6,69.67l.54,1,.62.92,1.24,1.85c.42.61.79,1.27,1.25,1.86l1.39,1.75a58,58,0,0,0,6.08,6.86c4.44,4.43,9.44,8.54,14.22,13a79.2,79.2,0,0,1,6.83,7.11l.8.95.73,1,1.47,2a21.85,21.85,0,0,1,1.39,2.06l1.32,2.11c.86,1.42,1.57,2.93,2.37,4.41s1.37,3,2,4.63a59.31,59.31,0,0,1,2.63,9.76,76.3,76.3,0,0,1,.83,20c-.46,6.59-1.6,13-2.47,19.22a114.28,114.28,0,0,0-1.42,18.1c.22,5.75,1.08,11.17,3.44,15.92,4.4,9.6,14.33,17.25,25.05,22.39a82.06,82.06,0,0,0,8.42,3.45l2.18.72,2.21.66c1.48.47,3,.84,4.49,1.22,3,.72,6.1,1.36,9.22,1.88s6.28.91,9.48,1.3l.05,1.14a82.87,82.87,0,0,1-19.56,1.43,75.94,75.94,0,0,1-9.92-1.07,71,71,0,0,1-9.83-2.38,66.11,66.11,0,0,1-18.41-9.18,45.35,45.35,0,0,1-14.27-16.24l-.64-1.25c-.21-.42-.35-.86-.53-1.29l-1-2.62c-.31-.88-.51-1.78-.77-2.67a19.77,19.77,0,0,1-.63-2.69l-.44-2.71c-.14-.9-.18-1.79-.26-2.69a50,50,0,0,1-.16-5.32,110.28,110.28,0,0,1,2.74-20c1.35-6.36,2.76-12.49,4-18.57.61-3,1.1-6.06,1.51-9.09a66,66,0,0,0,.5-9.09,40.29,40.29,0,0,0-4.12-17.63,44.94,44.94,0,0,0-5-7.75,46.91,46.91,0,0,0-6.6-6.54c-4.84-4-10.33-7.21-15.78-10.89a64.45,64.45,0,0,1-7.94-6.17l-1.92-1.73c-.63-.58-1.17-1.24-1.76-1.87l-1.72-1.92-.86-1-.75-1c-1-1.39-2.06-2.76-3-4.22s-1.71-3-2.55-4.49-1.39-3.15-2.08-4.72c-.17-.39-.36-.78-.5-1.19l-.39-1.22-.79-2.45a68.2,68.2,0,0,1-3-20.17,62,62,0,0,1,3.35-19.91,52.37,52.37,0,0,1,9.7-17.25Z"/><path class="cls-31" d="M2638,860.88c26.86,23.42,41.09,61.91,36.17,98.06a212.83,212.83,0,0,1-5.59,26.19c-2.24,8.55-4.61,17-6.28,25.58a136,136,0,0,0-2.89,25.89l0,3.24.17,3.23c.1,2.16.41,4.29.65,6.43s.67,4.24,1.05,6.35l.73,3.12c.23,1,.47,2.07.8,3.09a74,74,0,0,0,10.43,22.6l1.79,2.46c.63.79,1.31,1.53,1.95,2.3a52.85,52.85,0,0,0,4.15,4.31c.69.71,1.52,1.27,2.27,1.91l1.15.94.57.46.62.41a50.55,50.55,0,0,0,4.93,3,85.43,85.43,0,0,0,11.49,4.4c4.09,1.35,8.33,2.64,12.63,4.16a79.93,79.93,0,0,1,12.95,5.71,42.94,42.94,0,0,1,6.27,4.34,31.05,31.05,0,0,1,5.53,5.93,26.4,26.4,0,0,1,3.69,7.58,33.58,33.58,0,0,1,1.37,7.77,58.59,58.59,0,0,1-1.13,14.41c-1.61,8.87-3.59,16.73-1.48,23.78a26.09,26.09,0,0,0,2.14,5.12,34.22,34.22,0,0,0,3.33,4.78,28.41,28.41,0,0,0,4.22,4,11.33,11.33,0,0,0,1.19.87c.41.27.81.57,1.24.83.87.48,1.71,1,2.63,1.44a38.61,38.61,0,0,0,11.84,3.53,49.26,49.26,0,0,0,12.84,0l.27,1.1a43.26,43.26,0,0,1-13.29,2.59,44.71,44.71,0,0,1-6.92-.31,37.06,37.06,0,0,1-6.89-1.56,33.16,33.16,0,0,1-12.53-7.29,40.27,40.27,0,0,1-4.88-5.5,31.23,31.23,0,0,1-3.63-6.68,37.24,37.24,0,0,1-2.32-14.78c.16-4.81.84-9.31,1.33-13.54a53.17,53.17,0,0,0,.39-11.83,25.86,25.86,0,0,0-1.1-5.13,14.8,14.8,0,0,0-2.16-4.15,26.55,26.55,0,0,0-8-6.77,84.23,84.23,0,0,0-11-5.15c-3.93-1.57-8-3-12.23-4.55a92.22,92.22,0,0,1-12.82-5.68,57.58,57.58,0,0,1-6.09-4.15l-.73-.54-.68-.6-1.35-1.21-1.34-1.22a15.34,15.34,0,0,1-1.29-1.26,53.67,53.67,0,0,1-4.65-5.48c-.7-1-1.44-1.9-2.09-2.89l-1.82-3c-.3-.51-.61-1-.89-1.53l-.78-1.58-1.54-3.15-1.27-3.26c-.42-1.08-.84-2.16-1.15-3.27l-1-3.31c-.34-1.1-.55-2.23-.83-3.34s-.57-2.21-.75-3.34l-.58-3.36a125.79,125.79,0,0,1-1.17-26.89c.45-8.94,1.8-17.67,3.1-26.41,2.69-17.42,5.24-35,6.05-52a169.45,169.45,0,0,0-.4-25.31,142.26,142.26,0,0,0-4.74-24.87,155.48,155.48,0,0,0-22.45-46.25Z"/><path class="cls-15" d="M2561,1281.8l-34.75,25.5s-187.81-54.67-128.5-67.85c24.35-5.41,37.56-17.77,44.68-30.44,23.24,28.13,70.43,50.31,106.72,45.36C2546.83,1254.69,2553.81,1269.21,2561,1281.8Z"/><path class="cls-26" d="M2590.57,1306.57c-3.25,6.53-6.54,13-9.64,19.6-47.66,101-49.47,216.75-72,326.19-4.38,21.19-11,44.33-29.29,55.85-9.73,6.12-21.44,8-32.85,9.27-61.52,6.76-123.83-1.44-184.21-15.06-18.63-4.2-37.49-9.06-53.65-19.23-1.45-.91-2.88-1.87-4.27-2.89-14.19-10.25-25.38-25.37-27.14-42.66-3.6-35.24,30.38-62.31,41.73-95.87,1.64-4.83,2.81-10,1.65-15-2.8-12-17.86-18.46-19.94-30.61,1.93,6.33,47.47-42.62,49.72-43.94-.1-.14-.2-.3-.31-.44q-2.67-3.78-5.07-7.66a117.53,117.53,0,0,1-16.08-43.7c-4.19-27.52,2.06-56.08,23.1-76.55,33-32.08,84-57.34,125.61-76.67,23.75-11,60.42-4.56,83.27,7.23a131.24,131.24,0,0,0,38.16,12.66,136.84,136.84,0,0,0,53.15-1.42c2.3,4.86,5.36,10.69,8.47,16.16,5,8.73,10,16.53,12.12,18A40,40,0,0,0,2590.57,1306.57Z"/><path class="cls-32" d="M2266.71,1361.74q24.54-26.58,49.07-53.17c-15.22,24.2-25.37,59-35,80.32l-19.26,42.81c-3.14,7-6.39,14.13-11.19,20.06q-2.67-3.78-5.07-7.66a117.53,117.53,0,0,1-16.08-43.7C2242.32,1388.17,2254.53,1374.93,2266.71,1361.74Z"/><path class="cls-33" d="M2377.92,1247.18c-11.5,16.81-23.75,32.84-36,48.83l-18.32,23.87c-3,4-6.08,7.93-9.06,11.94s-6,8-8.82,12-5.71,8-8.38,12.11a110.87,110.87,0,0,0-7.15,12.19,29.2,29.2,0,0,0-1.31,2.91c-.1.26-.2.45-.31.75l-.32.9-.65,1.8c-.85,2.41-1.77,4.78-2.69,7.15-1.81,4.75-3.72,9.45-5.67,14.13-3.92,9.35-8,18.6-12.43,27.74s-9,18.19-14.06,27c4.52-19.87,10.25-39.24,16-58.53l4.34-14.42,2.14-7.18.54-1.79.27-.9c.09-.3.23-.69.34-1,.49-1.39,1-2.84,1.55-4.08s1.1-2.6,1.74-3.77,1.21-2.45,1.88-3.59l1.95-3.47,2-3.36q4.2-6.62,8.69-12.87c3-4.16,6.11-8.22,9.25-12.25s6.37-8,9.68-11.82q9.86-11.64,20.32-22.67t21.51-21.51C2362.42,1260.35,2369.94,1253.53,2377.92,1247.18Z"/><path class="cls-32" d="M2590.57,1306.57c-3.25,6.53-6.54,13-9.64,19.6-47.66,101-49.47,216.75-72,326.19-4.38,21.19-11,44.33-29.29,55.85-9.73,6.12-21.44,8-32.85,9.27-61.52,6.76-123.83-1.44-184.21-15.06-18.63-4.2-37.49-9.06-53.65-19.23-1.45-.91-2.88-1.87-4.27-2.89,23.65-13.72,46.63-29.09,72-39.15,33.91-13.44,91.14,1.42,117.75-16.6,25-17,26.54-67.54,35.89-93.49,12-33.33,27.1-63.91,49.91-91.29,29.34-35.21,50.79-86.1,41.8-132.36a75.48,75.48,0,0,0-22.66-40.34,136.84,136.84,0,0,0,53.15-1.42c2.3,4.86,5.36,10.69,8.47,16.16,5,8.73,10,16.53,12.12,18A40,40,0,0,0,2590.57,1306.57Z"/><path class="cls-15" d="M2334.43,1623.72c-20.09,30.26-45.91,59.88-71.26,62.75-53.26,6-373.44-57.11-373.44-57.11-37.33,8.79-73-7.68-84.56-7.68-4.73,0-10.75,3-17.28,7.66-9.37,6.64-19.78,16.53-28.86,25.27-15.37,14.83-31.84,7.7-31.84,7.7l27.46-37.35,33.32-22.57.72-.49-24.17,3.29s-36.23,35.69-43.92,41.74a11.66,11.66,0,0,1-6.29,2.29c-7.66.65-16.52-4.15-15.68-6.68,1.09-3.3,35.15-52.73,35.15-52.73l-29.67-7.68,46.14-14.47s9.88-7,35.14-6.39c21.36.46,93.3,4.7,115.06,6l1,.07h0c3.36.19,5.29.32,5.33.32,60.83,3.7,120.06,2.8,181,4.61,26.55.79,53.18,1.56,79.76.85,6.76-.17,30.05,1.91,37.41-3.89a6.21,6.21,0,0,0,1.47-1.57c4.54-7.13,12.14-21.78,18.91-35.36C2238,1547.86,2277.57,1592.69,2334.43,1623.72Z"/><path class="cls-16" d="M2222.33,1684.88c-102.53-10.14-332.6-55.52-332.6-55.52-37.33,8.79-73-7.68-84.56-7.68-4.73,0-10.75,3-17.28,7.66,6.58-6,14.06-10.67,22.8-11,9.36-.38,18.07,4.37,27.11,6.86,11.56,3.19,40,3.67,48.5-6.51A24.37,24.37,0,0,0,1891,1608c3.06-14.49-1.72-29.35-6.43-43.39,2,5.81,10.21,9.74,13.7,15a84.8,84.8,0,0,1,11.07,25c2.13,8.11,4.42,17.74,12,22.47,9.67,6,26.1,6.48,37.1,8.72,33.42,6.8,66.48,11.51,100.67,8.24,35.4-3.37,69.82-14.27,105.59-14.37,22.68-.06,69.26,9.46,81.65-17.81,12-26.43-24.32-32.7-41.5-42.69a6.21,6.21,0,0,0,1.47-1.57c4.54-7.13,12.14-21.78,18.91-35.36,12.71,15.56,52.28,60.39,109.14,91.42-20.09,30.26-45.91,59.88-71.26,62.75C2255.06,1687.39,2240.75,1686.7,2222.33,1684.88Z"/><path class="cls-33" d="M2460.33,1480.7a18.31,18.31,0,0,0-2.35,4.93c-.6,1.73-1,3.51-1.48,5.28-.81,3.57-1.53,7.16-2.12,10.78-1.18,7.23-2.13,14.51-3,21.81-1.72,14.58-3.18,29.21-4.54,43.85l-2,22-1.93,22-3.7,43.93-.58,6.82-6.9-.54a226.83,226.83,0,0,1-61.75-13.92l-3.7-1.41-3.66-1.49c-2.45-1-4.85-2-7.26-3.11s-4.78-2.19-7.17-3.3-4.72-2.32-7-3.55-4.65-2.44-6.94-3.72-4.57-2.57-6.81-3.94l-6.74-4-6.58-4.28-3.28-2.15-3.2-2.26-6.38-4.54L2295,1605l-3.1-2.39-3-2.47c-2-1.66-4.05-3.28-6-5l-5.88-5.14c-2-1.69-3.84-3.5-5.76-5.25s-3.8-3.54-5.64-5.37c-7.47-7.2-14.55-14.8-21.31-22.63-3.35-3.94-6.62-8-9.82-12s-6.24-8.23-9.13-12.5c7.23,7.35,14.58,14.51,22.19,21.37,1.9,1.71,3.78,3.45,5.7,5.12l5.77,5c3.91,3.29,7.8,6.58,11.77,9.77,8,6.37,16,12.57,24.34,18.36l3.1,2.2,3.16,2.11,6.3,4.23,6.42,4,3.21,2,3.26,1.92,6.52,3.84,6.64,3.6,3.31,1.81c1.11.61,2.24,1.16,3.35,1.74,2.23,1.16,4.49,2.25,6.75,3.35a286.15,286.15,0,0,0,27.71,11.61c2.34.88,4.72,1.64,7.08,2.46s4.76,1.5,7.14,2.23c4.8,1.38,9.61,2.66,14.47,3.78a232.61,232.61,0,0,0,29.43,4.82l-7.48,6.28c.73-7.39,1.51-14.72,2.37-22.06s1.73-14.68,2.7-22l1.46-11,1.58-11c1.05-7.31,2.21-14.62,3.42-21.92,2.46-14.58,5.14-29.15,8.49-43.6,1.67-7.23,3.5-14.43,5.69-21.54,1.11-3.55,2.24-7.1,3.66-10.56.72-1.72,1.45-3.44,2.32-5.1A17.23,17.23,0,0,1,2460.33,1480.7Z"/><path class="cls-27" d="M1733.78,1589.82a58.73,58.73,0,0,1,9.27-6.43,100.91,100.91,0,0,1,20.32-8.8,58.66,58.66,0,0,1,11-2.34,58.27,58.27,0,0,1-9.27,6.43,96.51,96.51,0,0,1-9.92,5,99.48,99.48,0,0,1-10.4,3.83A58.68,58.68,0,0,1,1733.78,1589.82Z"/><path class="cls-34" d="M1906.21,1587.08v.05c1.33,10.39.23,20.92-.94,31.33-.47,4.19-1.21,12.1-4.92,14.93-.75.58-9.66,3.77-8.92,1.45,6.4-20,11.76-36.81,1.89-58.1-3-6.47-8.94-10.11-11.12-16.1C1898.37,1558,1904.51,1573.88,1906.21,1587.08Z"/><path class="cls-31" d="M2406,943.5a24.34,24.34,0,0,0,5.61,9.51c-2.14-2.23-4.27-4.42-6.37-6.63Z"/><path class="cls-31" d="M2429.32,1111.63c4.68-15.63,11.15-30.94,17.4-45.31,15.3-35.22,3.06-59.25-11.58-91.25-3.78-8.31-30.39-54.94-19.41-62.87a27.69,27.69,0,0,0-10.94,19.94c-3.1-13-5.43-26.32-3.2-39.43,2.7-15.86,13.93-31.44,29.83-33.91-9.62,28.59-13,60.59,2.87,87.18,17,28.5,53.07,53.74,55.06,89.59C2491.35,1071.6,2454.11,1090.73,2429.32,1111.63Z"/><path class="cls-31" d="M2549.89,1218.31c6.51,12.22,4.3,31.21,2.71,47.55a2,2,0,0,0-.1-.21c-3-6.37-4.67-11.1-3.38-11.28a81.59,81.59,0,0,1-15.78.54c-.09-.84-.21-1.67-.36-2.5-4.05-22.17-25.68-36.2-37.44-55.41a68.72,68.72,0,0,1-1.69-67.35c-.16,17.45.18,36.37,10.93,50.1C2517.1,1195.46,2540.5,1200.68,2549.89,1218.31Z"/><path class="cls-31" d="M2861.06,1211c-15.68,10.57-32.8,21.23-51.46,31.78,0,0-28.84,6.6-49.43,13.18-5.88,1.89-12.63,6.25-19.29,11.62l-.87.17-1.62.34-4,.86-5.67,1.25-.87.19-2.19.46c-.74.16-1.46.32-2.19.46l-2.19.44c-1.46.29-2.93.55-4.4.8l-2.19.34-2.21.3h-.07l-2.12.25h-.07c-.57.06-1.16.12-1.74.16-.88.09-1.76.15-2.64.19-12.79.67-23.8,4.57-34.41,9.48-12.67-8.82-33.6-2.5-49.77-7.33-53.08-15.86-13.47-71.39-1.67-103.44.11.65.21,1.29.32,1.93,4.92,30.19,8.64,66.45,50.34,65.7,21.21-.39,40.62-14.53,51.13-33s13.08-40.5,11.43-61.64a48.8,48.8,0,0,0,4.71,9.39c13.67,21.28,42.93,31.52,68,25.22,1.13-.28,2.24-.59,3.35-.93.41.64.82,1.27,1.25,1.88q.45.66.93,1.29c.3.42.6.82.93,1.22.16.21.33.41.5.62s.44.55.69.82a5.32,5.32,0,0,0,.6.68,11.89,11.89,0,0,0,.83.94,46.78,46.78,0,0,0,4.16,4.05q.43.4.87.75c.28.25.55.49.84.71s.71.59,1.08.85a.6.6,0,0,0,.18.15c.4.32.8.62,1.21.92.24.19.49.38.75.55s.6.44.9.64q2.43,1.69,5,3.19l1.53.87c.62.35,1.24.68,1.87,1s1.15.61,1.73.89l1.71.84c.61.29,1.21.58,1.82.85,1.06.49,2.13.95,3.21,1.4A182.44,182.44,0,0,0,2861.06,1211Z"/><path class="cls-16" d="M1788,1602.39l.72-.49-24.17,3.29s-36.23,35.69-43.92,41.74a11.66,11.66,0,0,1-6.29,2.29c14.08-11.71,24.57-26.85,36.27-41.13,4.79-5.85,8.88-9,16.44-10.64,8.72-1.93,28.83,1.64,35.5-4.8A54.94,54.94,0,0,1,1788,1602.39Z"/><path class="cls-16" d="M2382.47,1032.69c.56-1.58.91-2.47.91-2.47-6.22,0-17-8.5-24.16-14.8,9.8,4.94,20.41,9.34,28.79,10.68-.8,6.8-4.68,13.08-9.42,19l.59-2.1c.37-1.27.72-2.46,1.07-3.58C2381.11,1036.59,2381.9,1034.29,2382.47,1032.69Z"/><path class="cls-30" d="M2655.1,792.59l8.5,6.33,8.13,6.85,7.78,7.28,7.41,7.68,7,8.12,6.58,8.46,6.1,8.84,5.66,9.15c1.75,3.13,3.5,6.26,5.31,9.38l4.95,9.62,2.16,5c.68,1.67,1.38,3.33,2,5,1.16,3.42,2.22,6.88,3.2,10.35.8,3.52,1.57,7,2.26,10.58q.8,5.37,1.39,10.73c.21,3.6.36,7.2.41,10.79-.17,3.61-.32,7.2-.76,10.78l-1.13.1c-1.26-3.39-2.24-6.78-3.23-10.14-1.14-3.34-2.18-6.66-3.15-10-1.15-3.28-2.22-6.56-3.24-9.83-1.19-3.24-2.31-6.48-3.39-9.72q-1.86-4.78-3.47-9.64c-.62-1.6-1.18-3.21-1.78-4.81l-1.67-4.85-3.65-9.62q-2.07-4.72-4.24-9.41l-4.78-9.15-5.24-8.93-5.62-8.72-6.05-8.45-6.43-8.2-6.85-7.89-7.27-7.54-7.62-7.24Z"/><path class="cls-23" d="M1870.68,2368.7l-23.39-2.52c.12-1.12,12.19-113.09,25-224.55,7.5-65.5,13.78-118,18.66-156.1,9.64-75.35,11.3-77.16,14.59-80.75l17.34,15.89a9.51,9.51,0,0,0,2-3.11C1918.82,1935.41,1889.15,2197.13,1870.68,2368.7Z"/><path class="cls-31" d="M2791,1316.12c-5.58,11.1-24.81,48.73-33.74,58.55L2637.54,1368l-56.94-55.25c8.53-2.83,90.19-2.74,167.05-2a17.85,17.85,0,0,0,8.67,2.32h32.79A2.13,2.13,0,0,1,2791,1316.12Z"/><path class="cls-31" d="M2893.25,1349.43a34.15,34.15,0,0,1-26.06,30,131.16,131.16,0,0,0,5.56-12.57C2875.7,1358.67,2885.66,1352.82,2893.25,1349.43Z"/><circle class="cls-31" cx="2513.14" cy="2171.46" r="401"/><circle class="cls-3" cx="2513.14" cy="2171.46" r="314.5"/><rect class="cls-31" x="2507.07" y="1846.15" width="12.15" height="632.28"/><rect class="cls-31" x="2198.62" y="2165.38" width="627.86" height="12.15"/><rect class="cls-31" x="2199.23" y="2163.26" width="627.04" height="12.15" transform="translate(-792.19 2481.27) rotate(-46.2)"/><rect class="cls-31" x="2506.67" y="1855.82" width="12.15" height="627.04" transform="translate(-802.34 2342.94) rotate(-43.8)"/><path class="cls-30" d="M1747,2323.69l-168,120.63L1429,2369.64v0a49.11,49.11,0,0,1,64.93-26.36l48.06,20.82a98.65,98.65,0,0,0,89.2-5.47L1747,2290.56Z"/><path class="cls-34" d="M1961.39,1938.37c0,.23.08.45.13.68-.68-3.46-79.63,5.37-87.12,7.69-36.45,11.25-51.75,51.13-66.5,82.68-11.93,25.5-21.17,53.24-28.63,81.8-11.66,44.52-19,91-25.6,134.23-4.13,27.08,1.5,51.37-20.9,70.26A675.46,675.46,0,0,1,1632,2386c-10.83,6.17-33,34.71-46.26,50.49-2.71,3.26-5.06,6-6.83,7.83L1588,2384l14.91-50.48q13.17-44.59,26.35-89.2,7.07-23.92,14.12-47.85c11.94-40.46,26.52-82.71,44.52-120.84,31.52-66.72,61.84-134.79,104.38-195.45,36.88-52.59,87.34-126.16,152.41-143.23,9.53-2.5,11.81,12.94,16.4,21.66s5.84,18.82,5.82,28.67C1966.77,1838.49,1951.62,1887.33,1961.39,1938.37Z"/><path class="cls-34" d="M2612.67,1316.54a69.32,69.32,0,0,1,60.19,80L2612,1768.94l-30.45,186.47a69.31,69.31,0,0,1-77.79,57.51l-465.7-63.58-99.64-13.61a69.32,69.32,0,0,1-59.4-77.32l7.81-62.17a73,73,0,0,1,69-63.77l40.94-1.91a69.31,69.31,0,0,0,57.21-35.31l5.36-9.55a70.89,70.89,0,0,1,67-36l256.1,29.4a72.9,72.9,0,0,0,80-59.38l46.21-254.35a65.31,65.31,0,0,1,71.91-52.67Z"/><path class="cls-23" d="M2612,1768.94l-41.34,253.12-532.6-72.72c66.35-57.39,145.4-100,229.45-125.09a621.35,621.35,0,0,1,168-26.1c27.27-.42,53.95,5,80.62,5.91,28.76,1,61.62-15.2,86.5-29.4Q2607.4,1771.94,2612,1768.94Z"/><path class="cls-30" d="M2792.53,2205.6c-24.77-220.08-223.25-378.4-443.33-353.64s-378.4,223.26-353.63,443.33,223.25,378.4,443.33,353.64S2817.3,2425.67,2792.53,2205.6ZM2429.22,2563c-172.6,19.42-328.27-104.75-347.7-277.36s104.75-328.28,277.36-347.71,328.27,104.75,347.7,277.36S2601.83,2543.55,2429.22,2563Z"/><path class="cls-35" d="M2429.22,2563c-172.6,19.42-328.27-104.75-347.7-277.36s104.75-328.28,277.36-347.71,328.27,104.75,347.7,277.36S2601.83,2543.55,2429.22,2563Z"/><rect class="cls-31" x="2387.97" y="1925.14" width="12.15" height="632.28"/><rect class="cls-31" x="2079.52" y="2244.37" width="627.86" height="12.15"/><rect class="cls-31" x="2080.13" y="2242.25" width="627.04" height="12.15" transform="translate(-885.86 2419.63) rotate(-46.2)"/><rect class="cls-31" x="2387.58" y="1934.81" width="12.15" height="627.04" transform="translate(-890.15 2282.49) rotate(-43.8)"/><path class="cls-30" d="M1849.32,2591a111.8,111.8,0,1,1,23.31-2.47A111.93,111.93,0,0,1,1849.32,2591Zm0-189.47a77.72,77.72,0,1,0,76,61.52A77.71,77.71,0,0,0,1849.36,2401.49Z"/><path class="cls-30" d="M1961.52,1939.05c-.68-3.46-79.63,5.37-87.12,7.69-36.45,11.25-51.75,51.13-66.5,82.68-11.93,25.5-21.17,53.24-28.63,81.8-11.66,44.52-19,91-25.6,134.23-4.13,27.08,1.5,51.37-20.9,70.26A675.46,675.46,0,0,1,1632,2386c-10.83,6.17-33,34.71-46.26,50.49a53.18,53.18,0,0,1,.42-14.78c4.21-29.4,9.73-58.91,16.72-88.18a846.51,846.51,0,0,1,26.35-89.2c27.79-77.82,67.66-150.92,122.61-211.79,50-55.42,118.7-90.86,189.94-110.61,7.13-2,13.91,5.17,19.61,16.44C1961.42,1938.6,1961.47,1938.82,1961.52,1939.05Z"/><path class="cls-22" d="M3041.69,867.46q2.71,4.44,5.38,9Q3040.74,871,3034,866Z"/><path class="cls-13" d="M1209.67,912.92c25.36-17.6,51.26-34.47,77.94-50,1.67-1,3.3-2,5-3l5.05-2.84,10.1-5.68,10.11-5.67,2.53-1.42L1323,843l5.13-2.69,20.52-10.81c6.9-3.47,13.85-6.85,20.78-10.28l10.41-5.11,10.53-4.84c7-3.2,14-6.5,21.11-9.63,14.22-6.05,28.35-12.35,42.79-17.92l10.77-4.3,5.39-2.15c1.81-.69,3.63-1.34,5.44-2l21.79-8c1.82-.66,3.62-1.36,5.45-2l5.5-1.86,11-3.72,11-3.72,2.75-.93,2.77-.86,5.54-1.72,22.17-6.88c7.44-2.15,14.9-4.21,22.34-6.32,3.73-1,7.45-2.12,11.19-3.12l11.26-2.83,11.26-2.82,5.63-1.42,2.81-.7,2.84-.63,22.67-5.05,5.67-1.26,5.7-1.11,11.4-2.21c15.19-3.09,30.45-5.51,45.7-8.13,30.54-4.91,61.19-9,91.87-12.8s61.43-6.88,92.18-9.86c61.52-5.75,123.09-10.5,184.57-15.84,30.74-2.61,61.46-5.44,92.12-8.67s61.21-7.2,91.71-11.66c122-18,242.53-45.4,362.35-75.16-118.91,33.18-239.17,62.44-361.35,81.72l-11.45,1.82c-3.82.6-7.64,1.13-11.47,1.7-7.65,1.09-15.29,2.27-22.95,3.29l-23,3c-7.67,1-15.35,1.79-23,2.7-30.72,3.44-61.46,6.47-92.22,9.28-61.52,5.59-123.06,10.4-184.47,16.28-30.71,2.91-61.39,6-92,9.64s-61.15,7.81-91.6,12.49c-15.19,2.51-30.44,4.82-45.52,7.8l-11.34,2.12-5.67,1.06-5.64,1.22-22.56,4.87-2.82.61-2.8.68-5.61,1.37-11.21,2.74-11.21,2.74-11.15,3c-7.42,2-14.87,4-22.28,6l-22.13,6.6-5.53,1.65-2.76.83-2.75.9-11,3.58-11,3.59-5.49,1.79c-1.83.59-3.63,1.28-5.45,1.91l-21.77,7.73-5.43,1.94-5.4,2.06-10.79,4.12c-14.46,5.33-28.62,11.4-42.88,17.22-7.09,3-14.11,6.19-21.17,9.28L1381.62,818l-10.46,4.92c-7,3.29-14,6.53-20.9,9.86l-20.66,10.38-5.17,2.6-2.58,1.29-2.55,1.37-10.19,5.46-10.19,5.46-5.1,2.73c-1.71.9-3.36,1.89-5,2.83l-20.11,11.44c-1.67,1-3.36,1.89-5,2.89l-5,3-9.89,6-9.91,6c-1.66,1-3.29,2-4.9,3.07l-4.87,3.13Z"/></g></svg>