<svg xmlns="http://www.w3.org/2000/svg" xmlns:xlink="http://www.w3.org/1999/xlink" viewBox="0 0 4680 3120"><defs><style>.cls-1{fill:none;}.cls-2,.cls-9{fill:#fff;}.cls-2{opacity:0;}.cls-3{fill:#d4ebf4;}.cls-4{fill:#002f55;}.cls-5{fill:#f3fcff;}.cls-6{fill:#00b4e3;}.cls-7{fill:#b1d8e5;}.cls-8{opacity:0.56;}.cls-10{fill:#52acc1;}.cls-11{fill:#80c9dd;}.cls-12{fill:#fdc500;}.cls-13{fill:#88e0ff;}.cls-14{fill:#dda800;}.cls-15{fill:#83d9ff;}.cls-16{fill:#eb8253;}.cls-17{fill:#38a8ad;}.cls-18{fill:#2c8790;}.cls-19{fill:#c9592d;}.cls-20{fill:#a33c1c;}.cls-21{fill:#005691;}.cls-22{opacity:0.4;}.cls-23{fill:#156063;}.cls-24{fill:#133054;}.cls-25{fill:#b5b5b5;}.cls-26{fill:#fca995;}.cls-27{fill:#e5604e;}.cls-28{fill:#ff8871;}.cls-29{fill:#181e4c;}.cls-30{fill:#ff8976;}.cls-31{opacity:0.55;}.cls-32{fill:#ff9c88;}.cls-33{clip-path:url(#clip-path);}</style><clipPath id="clip-path"><polygon class="cls-1" points="2184.77 931.61 2129.93 931.87 2129.93 814.38 2280.24 834.31 2188.73 924.44 2184.77 931.61"/></clipPath></defs><title>10</title><g id="_10" data-name="10"><rect id="_08-2" data-name="08" class="cls-2" width="4680" height="3120"/><path class="cls-3" d="M3376.73,1326c-4.44,68-27.49,126.77-61.67,179.15a497.49,497.49,0,0,1-29.33,40.32c-19.83,24.74-42,48.08-65.44,70.39q-6.89,6.54-13.94,13c-4.78,4.36-9.58,8.65-14.43,12.94-.81.74-1.66,1.48-2.52,2.22-2.84,2.52-5.73,5-8.61,7.47-2.67,2.3-5.33,4.59-8,6.85-6.7,5.73-13.47,11.35-20.27,16.94-2.85,2.37-5.74,4.66-8.62,7q-12.87,10.48-25.82,20.75-4.28,3.39-8.62,6.77-11.7,9.21-23.34,18.31l-5,3.89c-1.23.92-2.41,1.88-3.59,2.81q-10.71,8.37-21.24,16.68c-.74.56-1.48,1.11-2.18,1.67-2.88,2.29-5.73,4.51-8.62,6.69q-10.42,8.1-20.9,15.87c-2.88,2.15-5.69,4.29-8.58,6.36q-12.87,9.54-25.86,18.53c-2.84,2-5.73,4.07-8.61,6q-9.27,6.43-18.61,12.65c-2.4,1.63-4.81,3.22-7.21,4.81-2.89,1.92-5.74,3.77-8.62,5.62q-12.87,8.37-25.82,16.31c-2.89,1.82-5.74,3.55-8.62,5.29q-14.1,8.61-28.26,16.61l-8.62,4.88c-8.62,4.85-17.2,9.58-25.82,14.1l-8.62,4.55c-12.61,6.62-25.26,12.91-37.91,19q-15.7,7.54-31.45,14.5c-181,80.24-368.09,109.09-568.84,100.77-7.33-.3-14.69-.63-22-1-11.13-.55-22.3-1.29-33.55-2.14-10.32-.71-20.71-1.59-31.15-2.52-14-1.26-28.44-2.7-43-4.33C1915,1998,1726.9,1957.82,1583.93,1851.21a558.35,558.35,0,0,1-60.18-51.78c-5.81-5.78-11.51-11.69-17.1-17.8q-11-11.93-21.23-24.71a513.46,513.46,0,0,1-71.8-118.78c-3-6.76-5.77-13.68-8.5-20.71-.78-1.92-1.52-3.88-2.26-5.84q-3.27-8.83-6.36-17.94c-.23-.71-.48-1.37-.67-2.08-1.18-3.51-2.33-7.06-3.4-10.58a581.1,581.1,0,0,1-19.27-82.78c-1-6.66-2-13.32-2.74-20q-3.17-26.07-4-52.08s0,0,0-.07c-3.07-92.18,14.8-183.37,46-270.59,17.09-47.83,38.17-94.44,62-139.46,2.52-4.73,5.07-9.47,7.62-14.13,4.66-8.65,9.51-17.23,14.39-25.74.37-.59.7-1.15,1-1.74q13.38-23.14,27.6-45.61l.22-.33c.85-1.37,1.7-2.78,2.63-4.11,45.16-71.13,95.55-136.75,145.26-194.68,0,0,0-.08.07-.11,17.28-20.16,34.48-39.4,51.39-57.6,11.31-12.24,22.52-24,33.51-35.32q13.76-14.16,28-28,16.1-15.65,32.85-30.92a9.7,9.7,0,0,1,.74-.67q31.9-29.13,65.84-56.71c0-.07,0-.07.07-.07q18.15-14.87,36.81-29.22c6.1-4.74,12.28-9.4,18.46-14.06.44-.3.81-.59,1.22-.92,15.16-11.32,30.48-22.46,45.94-33.22a1760.29,1760.29,0,0,1,159.43-99.47l.63-.33c10.76-6,21.57-11.73,32.29-17.31l.63-.34c12.69-6.66,25.38-13,37.95-19.16,72.51-35.21,194.24-79.75,310.88-93.22,1.25-.14,2.51-.29,3.73-.4,42.06-4.59,83.34-5.15,121.33.44,23.05,3.29,44.87,8.88,64.92,17.09q9.82,4.05,19,8.92a181.73,181.73,0,0,1,44.65,33,209.9,209.9,0,0,1,24.15,29.66c16.24,24.27,26.78,51,33.59,79.39l.67,2.92a409.74,409.74,0,0,1,8,49.46q2,19.64,2.74,39.87c1.48,35.37.77,71.73,1,107.79.18,29.52,1,58.82,4,87.26,3.11,28.86,8.54,56.79,18.05,83,2.11,5.81,4.44,11.5,6.92,17.16.59,1.26,1.14,2.44,1.7,3.67a226.35,226.35,0,0,0,19.42,33.8c2.81,4.07,5.77,8,8.84,11.73,2.77,3.44,5.66,6.77,8.62,10,1.59,1.77,3.25,3.51,4.95,5.21a242.8,242.8,0,0,0,20.87,19.05c2.81,2.33,5.69,4.59,8.62,6.73,8.28,6.29,16.94,12.06,25.82,17.5,2.84,1.81,5.69,3.48,8.61,5.18,8.44,4.84,17.06,9.51,25.86,13.87l8.58,4.29q10.38,5,20.9,9.66c2.85,1.25,5.74,2.55,8.62,3.81,7.73,3.36,15.58,6.69,23.42,10l8.58,3.55c7.84,3.22,15.61,6.47,23.34,9.65,2.89,1.19,5.77,2.37,8.62,3.59,8.69,3.63,17.35,7.32,25.82,11.1,2.92,1.26,5.77,2.55,8.62,3.84,5.77,2.63,11.39,5.29,16.94,8.07,1.11.52,2.22,1.07,3.33,1.63l.33.18c2.59,1.3,5.18,2.59,7.7,3.92,1.44.78,2.88,1.56,4.29,2.3s2.88,1.59,4.32,2.4c.86.48,1.67.92,2.52,1.44,4.92,2.74,9.73,5.66,14.43,8.62l2,1.26c4,2.63,8,5.33,11.95,8.14a360,360,0,0,1,65.44,59.88C3349.46,1127.41,3383.27,1227.07,3376.73,1326Z"/><rect class="cls-4" x="2567.04" y="340.98" width="39.69" height="76.44"/><rect class="cls-5" x="2549.4" y="417.42" width="75.71" height="166.12"/><rect class="cls-6" x="2564.37" y="470.28" width="44.91" height="28.58"/><path class="cls-5" d="M2489.06,413.29V315.92h-48.17v97.37s-44.48,159.94-42.18,159.94H2532.6Z"/><rect class="cls-5" x="2202.6" y="334.3" width="153.97" height="247.34"/><polygon class="cls-4" points="2356.57 334.3 2393.44 318.38 2392.61 561.38 2356.57 581.64 2356.57 334.3"/><polygon class="cls-6" points="2202.6 334.3 2251.74 316.29 2393.14 318.68 2356.57 334.3 2202.6 334.3"/><rect class="cls-6" x="2225.69" y="438.75" width="108.24" height="39.97"/><path class="cls-7" d="M1922.49,491.08q-18.65,14.37-36.81,29.22s0,0-.07.08h207.85V967.52h-273.7V577.08c-.26.23-.51.45-.74.67q-16.76,15.25-32.84,30.93V999.82h339.13V491.08Zm-102.73,86,65.85-56.7Q1851.76,547.91,1819.76,577.08Z"/><g class="cls-8"><path class="cls-9" d="M1819.76,577.08l65.85-56.7Q1851.76,547.91,1819.76,577.08Zm65.92-56.78s0,0-.07.08q-33.85,27.52-65.85,56.7c-.26.23-.51.45-.74.67v389.7h274.4V520.3Z"/></g><path class="cls-7" d="M1673.24,729.56v696.58h-306.8q.84,26,4,52.08h354.18V672C1707.72,690.17,1690.52,709.4,1673.24,729.56Z"/><g class="cls-8"><path class="cls-9" d="M1673.17,729.67v696.39H1366.44c-3.07-92.18,14.8-183.36,46-270.59,17.09-47.83,38.17-94.43,62-139.45,2.51-4.74,5.06-9.47,7.62-14.13,4.66-8.66,9.5-17.24,14.39-25.75.37-.59.7-1.14,1-1.74q13.38-23.13,27.6-45.61l.22-.33c.85-1.37,1.7-2.77,2.63-4.1C1573.07,853.22,1623.45,787.6,1673.17,729.67Z"/></g><path class="cls-7" d="M2204.87,1660.89H1789.28V1037.5h415.59Zm-39-587.47H1830.46v547.89h335.36Z"/><g class="cls-8"><rect class="cls-9" x="1829.55" y="1073.33" width="336.24" height="547.92"/></g><path class="cls-10" d="M2220,1781.62v244h-16.86q-11-.43-22-1c-11.13-.56-22.31-1.3-33.55-2.15-10.32-.7-20.72-1.59-31.15-2.52-14-1.25-28.44-2.7-43.06-4.32C1915,1998,1726.92,1957.8,1584,1851.2a556.47,556.47,0,0,1-60.19-51.79q-8.7-8.65-17.09-17.79Z"/><path class="cls-11" d="M2073.33,1611.57v404C1915,1998,1726.92,1957.8,1584,1851.2a556.47,556.47,0,0,1-60.19-51.79,506.71,506.71,0,0,1-38.32-42.5,513.32,513.32,0,0,1-71.8-118.78c-3-6.77-5.77-13.69-8.51-20.72-.77-1.92-1.51-3.88-2.25-5.84Z"/><ellipse class="cls-10" cx="1743.48" cy="1723.69" rx="164.34" ry="41.78"/><path class="cls-7" d="M3185.09,971.52V971l-4.29-2.29c-2.51-1.34-5.1-2.63-7.69-3.92l-.33-.19c-1.11-.55-2.22-1.11-3.33-1.63H2181.09V668.49h676.64c-3.08-28.45-3.85-57.74-4-87.26h-672.6V325.44l-.63.33-32.29,17.31-.63.33v1679c11.24.85,22.42,1.59,33.55,2.15V1819.16h781.84c6.21-4.14,12.43-8.36,18.6-12.65,2.89-1.92,5.77-4,8.62-6q13-9,25.86-18.53c2.88-2.08,5.7-4.22,8.58-6.37q10.48-7.75,20.9-15.86c2.89-2.19,5.73-4.41,8.62-6.7.7-.55,1.44-1.11,2.18-1.66,7-5.55,14.1-11.1,21.23-16.69,1.19-.92,2.37-1.88,3.59-2.81h-900V1437.42h991.69v220.83c2.7-2.25,5.36-4.55,8-6.84,2.89-2.48,5.77-5,8.62-7.47q8.55-7.5,16.94-15.17V983.47Zm-12.31,378.64H2181.09V1050.23h991.69Z"/><rect class="cls-5" x="2658.57" y="857" width="68.42" height="105.74" rx="9.13"/><path class="cls-4" d="M2709.21,829.88H2677a7.87,7.87,0,0,0-7.87,7.86v18.57h48.25V838A8.13,8.13,0,0,0,2709.21,829.88Z"/><rect class="cls-6" x="2669.09" y="894.23" width="48.25" height="26.43"/><rect class="cls-4" x="3088.98" y="1109.59" width="39.69" height="76.44" rx="5.89"/><rect class="cls-5" x="3071.34" y="1182.19" width="75.71" height="166.12" rx="10.05"/><rect class="cls-12" x="3086.31" y="1235.05" width="44.91" height="28.58"/><rect class="cls-5" x="2634.14" y="1511.02" width="137.81" height="221.38"/><polygon class="cls-4" points="2771.76 1732.74 2804.52 1732.89 2804.95 1496.77 2771.95 1511.02 2771.76 1732.74"/><polygon class="cls-6" points="2634.14 1511.02 2771.95 1511.02 2804.68 1497.04 2678.12 1494.89 2634.14 1511.02"/><rect class="cls-6" x="2654.8" y="1604.51" width="96.88" height="35.77"/><polygon class="cls-4" points="2757.96 345.62 2738.8 580.76 2804.74 581.14 2783.37 356.11 2757.96 345.62"/><path class="cls-5" d="M2642.38,580l96,.39L2758,345.62s-76.83,31.48-79.86,33Z"/><polygon class="cls-6" points="2676.53 479.65 2732.14 476.22 2733.85 447.56 2679.52 452.27 2676.53 479.65"/><path class="cls-5" d="M2665.59,1316.72a16.35,16.35,0,0,0,16.35,16.35h4.16a16.75,16.75,0,0,0,16.75-16.76V1099.49h-37.26Z"/><path class="cls-13" d="M2663.74,1316.72a18.23,18.23,0,0,0,18.2,18.2h4.16a18.62,18.62,0,0,0,18.6-18.61V1097.64h-41Zm3.7-215.38H2701v215a14.92,14.92,0,0,1-14.9,14.91h-4.16a14.52,14.52,0,0,1-14.5-14.5Z"/><path class="cls-6" d="M2670.78,1314.67a11.46,11.46,0,0,0,11.46,11.46h5.84a10,10,0,0,0,10-10V1196.54h-27.26Z"/><path class="cls-5" d="M2756.2,1316.72a16.35,16.35,0,0,0,16.35,16.35h4.16a16.75,16.75,0,0,0,16.75-16.76V1099.49H2756.2Z"/><path class="cls-13" d="M2754.35,1316.72a18.23,18.23,0,0,0,18.2,18.2h4.16a18.63,18.63,0,0,0,18.6-18.61V1097.64h-41Zm3.7-215.38h33.56v215a14.93,14.93,0,0,1-14.9,14.91h-4.16a14.52,14.52,0,0,1-14.5-14.5Z"/><path class="cls-6" d="M2761.3,1315.36a11.81,11.81,0,0,0,11.81,11.81h5.17a10.27,10.27,0,0,0,10.27-10.27V1189.44H2761.3Z"/><path class="cls-5" d="M2848.32,1316.72a16.35,16.35,0,0,0,16.35,16.35h4.16a16.75,16.75,0,0,0,16.75-16.76V1099.49h-37.26Z"/><path class="cls-13" d="M2846.47,1316.72a18.22,18.22,0,0,0,18.2,18.2h4.16a18.63,18.63,0,0,0,18.6-18.61V1097.64h-41Zm3.7-215.38h33.56v215a14.93,14.93,0,0,1-14.9,14.91h-4.16a14.52,14.52,0,0,1-14.5-14.5Z"/><path class="cls-6" d="M2852.85,1314.11a13.58,13.58,0,0,0,13.58,13.58h1.87a11.8,11.8,0,0,0,11.8-11.81V1145.53h-27.25Z"/><path class="cls-5" d="M2936.4,1316.72a16.35,16.35,0,0,0,16.34,16.35h4.16a16.76,16.76,0,0,0,16.76-16.76V1099.49H2936.4Z"/><path class="cls-13" d="M2934.55,1316.72a18.22,18.22,0,0,0,18.19,18.2h4.16a18.63,18.63,0,0,0,18.61-18.61V1097.64h-41Zm3.7-215.38h33.56v215a14.93,14.93,0,0,1-14.91,14.91h-4.16a14.51,14.51,0,0,1-14.49-14.5Z"/><path class="cls-6" d="M2941.29,1318.32a9.37,9.37,0,0,0,9.37,9.37h9.73a8.15,8.15,0,0,0,8.15-8.15v-78.65h-27.25Z"/><rect class="cls-4" x="3015.57" y="1206.06" width="18.53" height="143.99"/><rect class="cls-4" x="2608.21" y="1206.06" width="18.53" height="143.99"/><rect class="cls-4" x="2608.91" y="1204.93" width="424.76" height="18.53"/><path class="cls-12" d="M3015.86,1600.4h-42.29a3,3,0,0,0-2.29,1.11,2.83,2.83,0,0,0-.7,1.85v22.53a1.3,1.3,0,0,0,0,.41,3,3,0,0,0,3,2.59h42.29a2.94,2.94,0,0,0,2.55-1.45,2.76,2.76,0,0,0,.44-1.55V1603.4A3,3,0,0,0,3015.86,1600.4Z"/><path class="cls-14" d="M3018.41,1627.44c-39.07-5.47-45.17-21.53-47.13-25.93a2.83,2.83,0,0,0-.7,1.85v0l0,22.9,0,10.32,48.94,2.36-1.11-11.54Z"/><rect class="cls-5" x="2960.68" y="1625.68" width="68.42" height="105.74" rx="6.73"/><rect class="cls-6" x="2971.21" y="1662.9" width="48.25" height="26.43"/><path class="cls-5" d="M2834.44,705.47h-48.17v97.38s-44.48,159.93-42.19,159.93H2878l-45-159.93Z"/><path class="cls-15" d="M2836.32,703.62h-51.9v99c-.94,3.39-11.46,41.27-21.67,78.92-6.25,23.06-11.16,41.53-14.59,54.89-6.7,26-6.35,26.48-5.59,27.48l.6.75h137.24l-45.62-162Zm39.21,257.31H2746.05c2.4-13.43,25.91-99.72,42-157.59l.07-.24V707.32h44.44l-1.47,95.77Z"/><rect class="cls-6" x="2786.39" y="732.34" width="23.88" height="6.37"/><rect class="cls-6" x="2786.39" y="748.33" width="23.88" height="6.37"/><rect class="cls-6" x="2786.39" y="764.03" width="23.88" height="6.37"/><polygon class="cls-6" points="2790.69 823.08 2755.76 951.15 2864.43 951.15 2828.53 823.08 2790.69 823.08"/><path class="cls-16" d="M1837.21,1478.47a54.06,54.06,0,0,0-10.81-1.07H1647.28c-19,0-34.28,2.71-33.15,13.86L1637,1723.91c1,10.13,15.11,18.09,32.37,18.28l38.55.42,16.07.17,26.65.3,7.67.08c.86,0,1.77,0,2.73,0l45.93.51c17.85.2,32.75-8,33.63-18.48l18.81-227.43C1860.14,1488.93,1850.69,1481.21,1837.21,1478.47Z"/><path class="cls-17" d="M1907.49,1024.72c-17.08-10.25-78-14.24-80.86-14.81s-22.78,15.94-37.58,30.75-39.86,97.37-41,100.22l-2.28,70.6s16,13.1,55.81,6.84,58.08-60.36,58.08-60.36,7.4-38.72,11.39-55.8,68.33-49,68.33-49S1924.57,1035,1907.49,1024.72Z"/><path class="cls-18" d="M1826.63,1009.91s39.86,91.11,44.42,92.25,25,29.61,33,54.66,10.25,72.88,10.25,72.88L1912,1257s33.6-90,34.17-105.91-6.83-97.94-6.83-97.94S1929.13,1005.93,1826.63,1009.91Z"/><path class="cls-19" d="M1837.21,1478.47a54.06,54.06,0,0,0-10.81-1.07h-78.27c4.39.88,49.2,12.08,64.13,26.11,15.57,14.64,29,185.64-9.37,214.33-20.49,15.3-61.34,21.92-95,24.77l16.07.17,26.65.3,7.67.08c.86,0,1.77,0,2.73,0l45.93.51c17.85.2,32.75-8,33.63-18.48l18.81-227.43C1860.14,1488.93,1850.69,1481.21,1837.21,1478.47Z"/><path class="cls-20" d="M1740.86,1461.71c-70.31,0-127.3,14.5-127.3,32.39s57,32.39,127.3,32.39,119.6-8.94,119.6-26.83S1811.17,1461.71,1740.86,1461.71Z"/><path class="cls-21" d="M1726.86,1176.43,1708,978.64a5.55,5.55,0,1,0-11,1.05l18.82,197.61,9.83,343.84a5.56,5.56,0,0,0,5.55,5.39h.16a5.55,5.55,0,0,0,5.39-5.7l-9.84-344C1726.88,1176.68,1726.87,1176.56,1726.86,1176.43Z"/><path class="cls-21" d="M1682.36,1311.41a5.55,5.55,0,0,0-9.84,5.13c.45.86,44.72,86.65,52,175.52a5.56,5.56,0,0,0,5.53,5.1l.46,0a5.56,5.56,0,0,0,5.08-6C1728.11,1400,1682.82,1312.29,1682.36,1311.41Z"/><path class="cls-21" d="M1778.18,1285.68a5.56,5.56,0,0,0-6.93,3.69c-.12.4-12.44,40.81-24.26,89.55-15.94,65.73-23.45,114.55-22.33,145.11a5.55,5.55,0,0,0,5.55,5.34h.2a5.54,5.54,0,0,0,5.34-5.75c-2.6-70.7,45.63-229.41,46.11-231A5.55,5.55,0,0,0,1778.18,1285.68Z"/><path class="cls-17" d="M1840.58,1290.36c-16.32-7.95-46.39-14.39-70.11-3.72-12.44,5.57-23.12,15.84-29.22,33-3.45,9.76-11.87,46.92,3.94,69.68l33.06-5.91L1762,1411.94s71.48,48,102.16,88.39c30.29,39.88,30.47,68.51,30.47,69.2,0,0,.73-2.78,1.82-7.73,4.63-20.78,15.84-79.8,7.25-132.52C1893.12,1364,1866.74,1303.12,1840.58,1290.36Z"/><path class="cls-17" d="M1581.36,1211.34s-91.67,15.94-104.78,20.49-50.11,60.35-50.11,60.35c18.81-15.36,87.69-6.82,87.69-6.82l34.16-13.67s-17.65,18.78-14.79,17.09,70.6,26.19,84.27,30.74c8.88,2.94,35,3,52.24,2.7,9.34-.16,16.08-.43,16.08-.43s-18.22-63.21-30.74-77.44S1581.36,1211.34,1581.36,1211.34Z"/><path class="cls-17" d="M1700.75,819.37c-6.26-6.83-36.44-26.19-36.44-26.19-25.62-9.11-76.3,6.83-76.3,6.83s3.42,13.1,15.94,14.81,26.2,54.66,26.2,54.66l19.36-6.83-14.81,23.91s5.13,47.26,16,67.19c6.63,12.22,25.23,23.15,38.65,29.78a23.37,23.37,0,0,0,26.24-3.86l8.32-7.71a63.93,63.93,0,0,0,16.38-24.33l.32-.84a82.81,82.81,0,0,0-5.57-70.36C1721.14,852.19,1704.32,823.26,1700.75,819.37Z"/><path class="cls-18" d="M1584.59,789.76c-19.5,15.6-100.21,43.28-100.21,43.28,22.77,11.39,74.13,1.06,85.41-9.11,14.75-13.31,99.51-27.15,94.52-30.75C1643.81,778.37,1613.06,767,1584.59,789.76Z"/><path class="cls-21" d="M1658.46,1204.36a5.55,5.55,0,1,0-9.67,5.44c.73,1.29,72.54,130.22,75,246.09a5.54,5.54,0,0,0,5.54,5.43h.12a5.54,5.54,0,0,0,5.43-5.66c-1.34-62.12-22.06-127.15-39.22-170.76C1677.16,1237.74,1658.65,1204.68,1658.46,1204.36Z"/><path class="cls-17" d="M1577.8,1017.31c-2.83-.56-59.2-22.2-82-19.37-22.33,2.81-98.52,56.1-101.28,58,43.85-22.15,112.68,1.18,112.68,1.18l33-8-19.34,17.09s52.38,92.8,62.62,107c10.06,14,67.17,36.68,69.39,37.56l.08,0c11.4-1.13,34.17-69.47,16-105.91S1580.67,1017.87,1577.8,1017.31Z"/><path class="cls-18" d="M1770.47,1286.64c-12.44,5.57-23.12,15.84-29.22,33-3.45,9.76-11.87,46.92,3.94,69.68l33.06-5.91L1762,1411.94s71.48,48,102.16,88.39c30.29,39.88,30.47,68.51,30.47,69.2,0,0,.73-2.78,1.82-7.73-3.5-43-18.27-120.89-38.28-164.14C1839.59,1357.48,1793.31,1307.43,1770.47,1286.64Z"/><path class="cls-18" d="M1426.47,1292.18c18.81-15.36,87.69-6.82,87.69-6.82l34.16-13.67s-17.65,18.78-14.79,17.09,70.6,26.19,84.27,30.74c8.88,2.94,35,3,52.24,2.7l16.27.49S1596.05,1237,1584.22,1237,1475.83,1249.94,1426.47,1292.18Z"/><g class="cls-22"><path class="cls-9" d="M1648.39,1545.83h0c-5.41.16-9.68,2.36-9.48,4.89l9.28,115.19c.21,2.53,4.81,4.47,10.22,4.31h0c5.42-.16,9.68-2.36,9.48-4.89l-9.28-115.2C1658.41,1547.61,1653.81,1545.67,1648.39,1545.83Z"/></g><g class="cls-22"><path class="cls-9" d="M1660.7,1679.62c-5.24.13-9.34,2.75-9.12,5.83l1.49,21c.22,3.08,4.69,5.49,9.92,5.36s9.34-2.75,9.12-5.83l-1.49-21C1670.4,1681.9,1665.93,1679.49,1660.7,1679.62Z"/></g><path class="cls-18" d="M1572.8,1042.16c-8.58-9.15-43.47-26.32-69.79-24.61s-101.87,34.08-108.48,38.44c43.85-22.15,112.68,1.18,112.68,1.18l33-8-19.34,17.09s52.38,92.8,62.62,107c10.06,14,67.17,36.68,69.39,37.56l.08,0s-24.66-99.54-35.55-117.84S1572.8,1042.16,1572.8,1042.16Z"/><path class="cls-18" d="M1642.76,809.82c.54.82,53.5,82.46,56.46,149.41l3.69-.17c-3-67.94-56.51-150.44-57.05-151.26Z"/><path class="cls-23" d="M1573.81,1040.61l-2,3.1c.57.37,56.53,38,73.71,149.37l3.66-.57c-9.1-59-29-97.08-44.14-118.66C1588.56,1050.36,1574.41,1041,1573.81,1040.61Z"/><path class="cls-23" d="M1780.49,1194.1l3,2.22c.36-.48,36.66-49.52,54.06-127.49l-3.61-.81C1816.69,1145.17,1780.85,1193.62,1780.49,1194.1Z"/><path class="cls-23" d="M1892.17,1036l-3.05,2.08c.24.36,24.54,36.11,27.47,56,2.74,18.69,7.29,60.56,4.82,85.28l3.68.37c2.5-25.08-2.07-67.34-4.84-86.19C1917.2,1072.8,1893.19,1037.48,1892.17,1036Z"/><path class="cls-18" d="M1758.87,1122.65l15.94-22.77-27.33-92.25c-5.13,13.67-33,67.19-33,67.19L1678,1173.9s5.12,57.51,9.11,69.47,35.3,52.39,35.3,52.39l34.17-35.31s30.18-58.65,34.16-74S1780.5,1117,1780.5,1117Z"/><path class="cls-23" d="M1722.23,1224.49c0,12.92,1.29,42.79,1.31,43.09l3.69-.16c0-.3-1.3-30.09-1.3-42.93s16.76-163.77,16.93-165.29l-3.68-.41C1738.49,1065,1722.23,1211.51,1722.23,1224.49Z"/><path class="cls-23" d="M1584.54,1235.15l-.47,0c-.56,0-56.73,4.86-101.63,23.74l1.44,3.41c42.18-17.74,94.55-22.92,100-23.42,27.9,12.58,100.37,84.37,101.1,85.1l2.61-2.63c-3-3-74.45-73.74-102.66-86.05Z"/><path class="cls-23" d="M1798.54,1317.9c.45.52,45.29,51.86,58,80.51l3.38-1.5c-12.89-29.17-56.69-79.32-58.55-81.44Z"/><path class="cls-23" d="M1865.71,1423.88c.17.46,17,47,21,84.56l3.67-.39c-4-38-21.07-85-21.25-85.44Z"/><rect class="cls-3" x="1415.28" y="563.02" width="44.46" height="208.97"/><rect class="cls-3" x="1332.15" y="645.28" width="208.97" height="44.46"/><rect class="cls-3" x="1385.6" y="1853.68" width="44.46" height="208.97"/><rect class="cls-3" x="1302.47" y="1935.94" width="208.97" height="44.46"/><rect class="cls-3" x="3117.72" y="500.68" width="61.49" height="289.02"/><rect class="cls-3" x="3002.75" y="614.44" width="289.02" height="61.49"/><rect class="cls-3" x="2949.98" y="284.58" width="23.25" height="109.26"/><rect class="cls-3" x="2906.52" y="327.59" width="109.26" height="23.25"/><rect class="cls-3" x="1830.89" y="2092.26" width="23.25" height="109.26"/><rect class="cls-3" x="1787.43" y="2135.26" width="109.26" height="23.25"/><rect class="cls-3" x="3069.22" y="1922.38" width="28.32" height="133.12"/><rect class="cls-3" x="3016.27" y="1974.78" width="133.12" height="28.32"/><circle class="cls-3" cx="1531.03" cy="2252.93" r="22.27"/><circle class="cls-3" cx="3219.12" cy="358.04" r="41.89"/><rect class="cls-3" x="2735.43" y="2084.57" width="67.32" height="316.39"/><rect class="cls-3" x="2609.57" y="2209.11" width="316.39" height="67.32"/><circle class="cls-3" cx="1654.05" cy="485.3" r="45.34"/><path class="cls-7" d="M3220.29,992.88c-3.92-2.81-7.91-5.51-11.95-8.14l-2-1.26c-4.7-3-9.51-5.88-14.43-8.62v666.87c4.85-4.29,9.65-8.58,14.43-12.94s9.35-8.59,13.94-13c23.45-22.31,45.61-45.65,65.44-70.39V1052.76A360,360,0,0,0,3220.29,992.88Z"/><path class="cls-21" d="M2382.78,1487.82a55.12,55.12,0,0,0-34.55-16.72c-36.48-3.18-76.31,29.52-53.93,207.78.66,5.32,14.31,454.06,14.31,454.06s-15.76,45.72-22.93,75.42,11.46,392.36,11.46,392.36,47,16.7,70-13.74l53.21-352.65,33-192.83L2401,1527.25A65.8,65.8,0,0,0,2382.78,1487.82Z"/><path class="cls-4" d="M2382.78,1487.82c-26.93,16.57-31.71,30.58-33.64,33.1,0,0,9.52,201.61,4.27,354.64l-4,117.11a35.4,35.4,0,0,0,29.94,36.3c18.3,2.74,39.14,11,46,33.61,13.06,43.13-9.17,180.48-9.17,180.48s1.52-3.14,4.18-8.73l33-192.83L2401,1527.25A65.8,65.8,0,0,0,2382.78,1487.82Z"/><path class="cls-21" d="M2125.07,1555.73c-3.11,3.77-26,162.72-47.54,332.73-4,31.63-8,63.66-11.8,95.14q-2.49,20.93-4.88,41.39c-2.66,22.79-5.18,45.06-7.51,66.44-7.4,67.51-12.91,126-14.79,163.76-8,159.72-14.8,348.53-29.6,416.29a77.9,77.9,0,0,0,6.81,20.9,65.8,65.8,0,0,0,16,21.38c.82.74,1.71,1.45,2.59,2.15a57.13,57.13,0,0,0,27,11.06c.34.07.71.15,1,.19,23.49,3,36.88-6.81,44.39-17.32a55.81,55.81,0,0,0,9.1-21.41s21.64-265,50.08-367.88c12.06-43.57,38.1-149.85,65-270.55.07-.33.14-.63.22-1,1.18-5.48,2.4-11,3.62-16.46,2.19-9.84,4.37-19.79,6.55-29.78.63-2.81,1.26-5.62,1.89-8.47,19.9-91.7,39.21-187.32,52.67-267.26,8.51-50.75,14.69-95.21,17.17-128.32,0,0,3.29-57-10.73-99.21C2284.79,1446.2,2239.48,1416.53,2125.07,1555.73Z"/><path class="cls-4" d="M2077.53,1888.46c-4,31.63-8,63.66-11.8,95.14q-2.49,20.93-4.88,41.39c-2.66,22.79-5.18,45.06-7.51,66.44-7.4,67.51-12.91,126-14.79,163.76-8,159.72-14.8,348.53-29.6,416.29a77.9,77.9,0,0,0,6.81,20.9,65.8,65.8,0,0,0,16,21.38c.82.74,1.71,1.45,2.59,2.15a57.13,57.13,0,0,0,27,11.06c.34.07.71.15,1,.19,23.49,3,36.88-6.81,44.39-17.32a55.81,55.81,0,0,0,9.1-21.41s-69.32-13.95-76.72-68.22c-5.73-41.87,32.62-377.38,50.42-528.45.66-5.55,1.29-10.8,1.85-15.79,1.37-11.21,2.51-21,3.51-29.3a28.09,28.09,0,0,1,30.67-24.56c27.41,2.7,69.39,4.22,97.13-7.21,7.4-3,13.8-7,18.61-12.1a33.86,33.86,0,0,0,5-6.51l-3.07-2Z"/><path class="cls-21" d="M2015.54,2692.47l-71.46,134.75c31.65,118.42,161.29,38.79,161.29,38.79,10.21-40.83,3.07-150.06,2-154.14C2095.12,2662.69,2015.54,2692.47,2015.54,2692.47Z"/><path class="cls-9" d="M2042.64,2681.16a1.85,1.85,0,0,0-2.33,1.18l-32.58,98.21a1.84,1.84,0,0,0,1.17,2.33,1.74,1.74,0,0,0,.59.1,1.85,1.85,0,0,0,1.75-1.27l32.58-98.21A1.86,1.86,0,0,0,2042.64,2681.16Z"/><path class="cls-9" d="M2066.62,2680.61a1.85,1.85,0,0,0-2,1.63l-11.48,102.83a1.85,1.85,0,0,0,1.63,2l.21,0a1.86,1.86,0,0,0,1.84-1.65l11.48-102.83A1.85,1.85,0,0,0,2066.62,2680.61Z"/><path class="cls-9" d="M2073.26,2722.35l-43.16-26.63a1.85,1.85,0,0,0-1.94,3.15l43.16,26.63a1.8,1.8,0,0,0,1,.27,1.84,1.84,0,0,0,1-3.42Z"/><path class="cls-9" d="M2073.31,2694.71l-54.18,26.64a1.85,1.85,0,0,0,.82,3.51,2,2,0,0,0,.81-.19l54.18-26.64a1.85,1.85,0,1,0-1.63-3.32Z"/><path class="cls-9" d="M2064.08,2756.33l-43.16-26.63a1.85,1.85,0,1,0-2,3.15l43.17,26.63a1.87,1.87,0,0,0,1,.27,1.85,1.85,0,0,0,1-3.42Z"/><path class="cls-9" d="M2064.13,2728.69,2010,2755.32a1.85,1.85,0,0,0,.81,3.51,1.83,1.83,0,0,0,.82-.19l54.18-26.63a1.85,1.85,0,0,0-1.63-3.32Z"/><path class="cls-9" d="M2072.31,2779.39c-20.94-8-40.88-13.62-53.27-11.84-21.45,3.07-67.8,46.39-74.94,59.67-5,9.24,2.92,43.24,8.17,63a20.26,20.26,0,0,0,6.92,10.69,20.72,20.72,0,0,0,12,4.59l111.74,5.4s14.54.4,22.68-28.19c4.62-16.09,3.85-39.91,1.89-61.07C2105.82,2803.61,2089.21,2785.9,2072.31,2779.39Z"/><path class="cls-24" d="M2073,2777.66c-25.18-9.65-42.9-13.57-54.19-11.94-22.19,3.17-69.26,47.51-76.31,60.62-2.77,5.14-3.64,20.48,8,64.38a22,22,0,0,0,7.54,11.65,22.34,22.34,0,0,0,13.07,5l111.78,5.4h.09c1.4,0,16.21-.71,24.42-29.53,3.9-13.59,4.54-33.79,1.95-61.75C2107.48,2801.4,2089.21,2783.91,2073,2777.66Zm30.85,104.57h0c-7.57,26.62-20.73,26.85-20.81,26.85l-111.74-5.4a18.91,18.91,0,0,1-10.92-4.19,18.32,18.32,0,0,1-6.29-9.72c-8.72-32.85-11.76-55.34-8.33-61.68,6.65-12.37,52.78-55.73,73.57-58.71a33.49,33.49,0,0,1,4.76-.31c10.74,0,26.7,4,47.58,12,15.42,5.94,32.35,22.79,34,40.73C2108.19,2849.34,2107.6,2869.09,2103.82,2882.23Z"/><path class="cls-21" d="M2502.91,2634.62c-11.51-3.34-23.06-6.52-34.35-10.53l-103.78-36.89-67,11.9-11.69,69.73a21.48,21.48,0,0,0,18.88,24.91L2446.71,2709l119.46,14.68S2553.47,2649.28,2502.91,2634.62Z"/><path class="cls-9" d="M2556.74,2709.75l-270.34-42.53-5.17,32.84,281.06,44.21,3.48-22.12A10.84,10.84,0,0,0,2556.74,2709.75Z"/><path class="cls-24" d="M2557,2707.91l-272.18-42.82-5.74,36.51,284.73,44.8,3.77-24A12.73,12.73,0,0,0,2557,2707.91Zm6.91,14-3.2,20.29-277.38-43.64,4.59-29.17,268.5,42.25A9,9,0,0,1,2563.94,2721.86Z"/><path class="cls-4" d="M2287.44,2359.1l-1-22.9S2286.76,2344.92,2287.44,2359.1Z"/><path class="cls-4" d="M2319.78,2585.43c-20.18-11.62-29.5-166.92-32.34-226.33l10.35,240c55.28,34.12,67-11.9,67-11.9S2344.78,2599.83,2319.78,2585.43Z"/><path class="cls-4" d="M2139.81,2403.64c-19.55-14.08-54.11-.06-55.57.55a1.85,1.85,0,0,0,.38,3.53c.14,0,13.77,2.43,27.55,4a178.23,178.23,0,0,0,20.07,1.49c9.89,0,10.72-2,11.24-3.19C2144.71,2407.16,2141.15,2404.6,2139.81,2403.64Zm-47.43,1.64c10.84-3.31,32.26-8,45.27,1.36a8.84,8.84,0,0,1,2.25,2.05C2136.7,2410.68,2116.44,2409.19,2092.38,2405.28Z"/><path class="cls-4" d="M2137.68,2380.21c-23.1-9.1-52.39.92-53.62,1.35a1.85,1.85,0,0,0,.61,3.6,1.81,1.81,0,0,0,.6-.11c.29-.1,29.25-10,51.06-1.4a1.85,1.85,0,1,0,1.35-3.44Z"/><path class="cls-4" d="M2383.58,2096.62c-1.06-.55-3.25-1-6,1.89-10.94,11.72-69.38,48.08-70,48.44a1.85,1.85,0,0,0,1,3.42h.13c24.44-1.71,44-7.75,58.12-17.94,14.48-10.46,18.1-21.54,19-25.82C2386.88,2101.62,2386,2097.88,2383.58,2096.62Zm-1.4,9.45c-2.6,11.92-14.19,21-17.69,23.5-12,8.63-28.28,14.13-48.34,16.41,15.8-10,55-35.15,64.15-44.94,1-1.13,1.59-1.13,1.58-1.14C2382.21,2100.08,2383.07,2102,2382.18,2106.07Z"/><path class="cls-4" d="M2364.88,2157.29c-24,13.13-60.13,5.5-60.49,5.43a1.85,1.85,0,1,0-.78,3.61,127.7,127.7,0,0,0,21.9,2.35c1,0,2,0,3,0,11.23,0,26.05-1.56,38.14-8.19a1.85,1.85,0,1,0-1.78-3.24Z"/><path class="cls-4" d="M2201.74,2120.85c-1.59-1.2-2.37-.4-7.44,4.82-13.28,13.66-48.53,49.95-91.88,53.28a1.85,1.85,0,0,0,.11,3.7h.48a140.44,140.44,0,0,0,35.74-5.3c26-7.32,45.46-21.36,56.4-40.61,2.69-4.73,4.54-8,5.7-10.16C2202.37,2123.73,2203.29,2122,2201.74,2120.85Zm-9.81,14.06c-13.38,23.57-37.46,34.52-57.24,39.62,26.9-11.45,48.11-31.86,59.31-43.26C2193.34,2132.43,2192.65,2133.66,2191.93,2134.91Z"/><path class="cls-4" d="M2165.45,2200.1c-25.1,14.05-66,0-66.46-.13a1.85,1.85,0,1,0-1.22,3.49,136.39,136.39,0,0,0,24.55,5.58,113.18,113.18,0,0,0,14.92,1.05c11.92,0,22-2.26,30-6.76a1.85,1.85,0,0,0-1.81-3.23Z"/><path class="cls-9" d="M2503.8,2653.63c-1.27-.44-127.67-43.72-132.49-45.33a1.85,1.85,0,1,0-1.17,3.51c4.81,1.6,131.19,44.88,132.47,45.32a1.76,1.76,0,0,0,.6.1,1.85,1.85,0,0,0,.59-3.6Z"/><path class="cls-25" d="M2072.31,2779.39c-20.94-8-41.28-12-53.67-10.19,0,0,61.69,30.16,66.91,75.59,4.74,41.28-108.16,47.73-128.43,52.09,3.33,2.7,9.85,6.94,14.33,7.17l108.32,4.87s15.36,5.09,23.5-23.5c4.62-16.09,4.25-41.6,2.29-62.76C2103.9,2804.61,2089.21,2785.9,2072.31,2779.39Z"/><path class="cls-25" d="M2283.28,2698.39l277.15,43.69c-168.54-27-266.82-72.41-272.4-72.51Z"/><path class="cls-4" d="M2304.28,2043.38l4.58,59.6s47.22-27.05,61.89-26.13,52.26,4.12,64.63-4.13-2.75-35.75-2.75-35.75Z"/><path class="cls-4" d="M2134,1958.65s-70.31,72.16-65.32,112c5.55,44.31,5.18,34.21,5.18,34.21s29.73-31.53,70.17-31.53,76,2,90.55-29.64S2134,1958.65,2134,1958.65Z"/><path class="cls-26" d="M2578.75,1580.16H2515c-13.89,73.15,2.15,140.92,12.9,170,2.46,6.65,15.61,9,20.08,3.5l15-18.47a119.37,119.37,0,0,0,25.28-93.18Z"/><path class="cls-9" d="M2533.82,1031.83q-9.5-49.83-19.09-99.65c-3-15.84-6.18-31.67-9.1-47.58-2.7-14.83-3.81-30.59-11.1-44.09-8.25-15.35-23.6-34.92-39.87-44.61a47.57,47.57,0,0,0-5.85-3.07s-10.73-4.7-26.41-10.8c-1.55-.59-3.14-1.22-4.81-1.81-1.48-.59-3-1.19-4.59-1.74-8-3-16.83-6.22-25.93-9.21h0c-20.87-7-43.13-13.1-60-14.54-5.06-.44-11.17-.59-18-.52-7.55,0-16,.37-24.9.93s-18.16,1.22-27.52,2c-1,.11-2,.19-3.07.26-2,.18-4,.37-6,.59a5.16,5.16,0,0,0-.78.08c-8.92.81-17.76,1.73-26.12,2.66-21.23,2.33-39.5,4.66-48.86,5.92-4.26.55-6.66.89-6.66.89l-108.35,75.31-51,35.47,13.65,208,4.18,63.55,2.51,38.54,6.92,105.35,4.36,66.7,1.82,27.56-3.89,24.08-28.48,176L1937.23,2019s33.36-11.32,123.62,6c6.25,1.19,12.8,2.52,19.61,4l7.4,1.67c4.21,1,8.39,1.88,12.46,2.73,19,4,36.4,6.85,52.6,8.95,28.85,3.78,54,5.22,78.35,6.7a1.05,1.05,0,0,0,.37,0c24.45,1.51,48.05,3.07,73.65,7.1a4.4,4.4,0,0,1,1,.15c11.17,1.73,22.71,4,34.92,6.91,2.7.63,5.4,1.22,8.13,1.71,24.68,4.43,51.12,3,76.32-1.34,4.91-.88,9.76-1.81,14.57-2.88,3.48-.74,6.88-1.56,10.28-2.41a462.17,462.17,0,0,0,93-34.4l-10.62-268.81-6.58-166.57s27,4.88,53.41-2.07c15.61-4.07,31-12.28,40.65-28l-64.54-410.15Q2544.84,1090,2533.82,1031.83Z"/><path class="cls-6" d="M2535,1031.6c-6.31-33.18-12.74-66.7-19.08-99.66q-1.46-7.55-2.92-15.11c-2.06-10.62-4.19-21.61-6.18-32.44-.57-3.11-1.07-6.31-1.56-9.41-1.87-11.9-3.81-24.2-9.67-35.05-8.28-15.42-24-35.34-40.31-45.07a46.93,46.93,0,0,0-6-3.16c-.1,0-10.93-4.77-26.46-10.82l-1.27-.48c-1.16-.45-2.34-.91-3.52-1.33-1.6-.63-3.16-1.22-4.61-1.74-8.88-3.37-17.62-6.48-26-9.23l-.15,0c-25.22-8.4-45.45-13.3-60.13-14.55-4.84-.43-10.93-.61-18.09-.53s-15.65.35-25,.93c-8.38.49-17.65,1.18-27.58,2-1,.11-2,.18-3.05.26-2,.18-4,.36-5.92.58a6.89,6.89,0,0,0-.81.08c-7.86.72-16.41,1.59-26.14,2.67-24.41,2.68-43.6,5.21-48.89,5.92l-6.67.89a1.28,1.28,0,0,0-.53.21l-159.4,110.78a1.24,1.24,0,0,0-.52,1.09l33.43,509.6-3.86,23.94-28.48,176L1936,2018.81a1.22,1.22,0,0,0,1.6,1.36c.33-.12,34.26-11,123,6,6.33,1.2,12.92,2.54,19.56,4,2.41.55,4.89,1.11,7.4,1.66,4.64,1.06,8.72,2,12.49,2.74,17.76,3.74,35,6.67,52.69,9,27.7,3.62,52,5.1,75.41,6.52l2.9.18a2.59,2.59,0,0,0,.49,0c22.06,1.37,47.07,2.92,73.54,7.09.26,0,.55.05,1,.15,11.54,1.8,22.93,4.05,34.83,6.9,3.28.77,5.81,1.3,8.2,1.71a181.3,181.3,0,0,0,32.24,2.72,263.49,263.49,0,0,0,44.5-4c4-.72,9.29-1.7,14.62-2.89,3.06-.65,6.34-1.42,10.32-2.41a468.19,468.19,0,0,0,93.27-34.51,1.25,1.25,0,0,0,.66-1.14l-10.62-268.81L2527.59,1590c6.09.89,29.59,3.68,52.44-2.33,18.9-4.93,32.82-14.55,41.39-28.59a1.21,1.21,0,0,0,.17-.83L2557,1148.05Q2546.05,1089.79,2535,1031.6ZM2231.65,2047.87h0Zm347.76-462.59c-25.86,6.8-52.62,2.1-52.88,2a1.23,1.23,0,0,0-1.45,1.26l6.58,166.57,10.59,268a468.48,468.48,0,0,1-92,33.94c-3.95,1-7.21,1.75-10.26,2.4-5.29,1.18-10.54,2.15-14.51,2.87-28.27,4.86-53.81,5.31-75.89,1.34-2.35-.42-4.83-.94-8.07-1.69-11.95-2.86-23.4-5.13-34.94-6.92a5.24,5.24,0,0,0-1.16-.18c-26.55-4.18-51.58-5.73-73.75-7.1h-.07l-.23,0-3-.18c-23.41-1.42-47.62-2.89-75.24-6.51-17.63-2.29-34.81-5.21-52.51-8.93-3.75-.78-7.82-1.68-12.45-2.74-2.51-.55-5-1.1-7.4-1.66-6.68-1.45-13.29-2.8-19.64-4-78.8-15.12-114.07-8.6-122.33-6.5l69.38-429,28.49-176,3.88-24.08a1.22,1.22,0,0,0,0-.27l-6.18-94.26-6.91-105.35-2.52-38.54-4.18-63.55L2007.12,879,2165.7,768.74l6.36-.84c5.29-.71,24.45-3.24,48.84-5.92,9.72-1.07,18.25-2,26.16-2.67l.73-.07c2-.22,3.94-.4,5.91-.58,1.05-.08,2.06-.15,3.09-.26,9.88-.86,19.12-1.55,27.49-2,9.27-.57,17.62-.88,24.83-.92s13.09.1,17.86.51c14.51,1.25,34.59,6.12,59.68,14.48l.15,0c8.29,2.73,17,5.81,25.79,9.17q2.17.76,4.59,1.73c1.2.43,2.37.88,3.51,1.32l1.26.48c15.48,6,26.26,10.74,26.37,10.79a44.92,44.92,0,0,1,5.71,3c15.95,9.5,31.29,29,39.42,44.14,5.66,10.48,7.56,22.57,9.4,34.26.49,3.12,1,6.34,1.57,9.47,2,10.85,4.13,21.84,6.19,32.47q1.45,7.56,2.91,15.11c6.35,33,12.77,66.48,19.09,99.65q11,58.2,22,116.41l64.48,409.7C2610.84,1571.45,2597.5,1580.57,2579.41,1585.28Z"/><path class="cls-26" d="M2265.28,701.41,2211.57,773s26.78,143.52,147.67,150.51l26.89.89,1-157.1s-70.1-56.75-109.57-82.23Z"/><path class="cls-27" d="M2265.28,701.41c21.31,76.68,78.21,175.66,119.82,230.56l2-164.64s-70.1-56.75-109.57-82.23Z"/><polygon class="cls-4" points="2251.74 764.86 2268.96 697.22 2213.02 699.7 2251.74 764.86"/><path class="cls-9" d="M2270.55,1119.53a4.05,4.05,0,0,0,.48-.77,2.5,2.5,0,0,0,.23-.34,12.3,12.3,0,0,0,1.66-6.1c-.74,2.29-1.48,4.62-2.29,6.92A.62.62,0,0,1,2270.55,1119.53Z"/><path class="cls-6" d="M2273.11,1111.11a1.22,1.22,0,0,0-1.36.83l-.29.89c-.63,2-1.29,4-2,6a1.1,1.1,0,0,0-.06.26,1.21,1.21,0,0,0,.52,1.49,1.16,1.16,0,0,0,.62.17,1.23,1.23,0,0,0,1-.52,6.21,6.21,0,0,0,.54-.85,1.69,1.69,0,0,0,.22-.35,13.39,13.39,0,0,0,1.83-6.71A1.23,1.23,0,0,0,2273.11,1111.11Zm-3.71,8.13Zm0-.24h0Z"/><path class="cls-6" d="M2390.86,1086a1.24,1.24,0,0,0-1.25,1.2c-.2,8.59-19.92,859.73-46.15,972.87a1.23,1.23,0,0,0,.92,1.47l.28,0a1.23,1.23,0,0,0,1.2-.95c26.28-113.37,46-964.78,46.2-973.36A1.23,1.23,0,0,0,2390.86,1086Z"/><path class="cls-6" d="M2488.15,1032.55a1.25,1.25,0,0,0-1.25.12l-73.2,53.55a1.24,1.24,0,0,0-.5,1l2.58,118.59c.43,19.88,13.14,36.62,32.38,42.66a46.83,46.83,0,0,0,14,2.2,42.2,42.2,0,0,0,34.53-17.88,40.59,40.59,0,0,0,4.81-8.59,1.11,1.11,0,0,0,.08-.54l-12.75-190.1A1.22,1.22,0,0,0,2488.15,1032.55Zm6.58,198.81c-12.74,17.5-32,19.11-45.83,14.78-18.22-5.71-30.26-21.56-30.67-40.36l-2.56-118,70.88-51.85,12.59,187.59A37.88,37.88,0,0,1,2494.73,1231.36Z"/><path class="cls-6" d="M2479.44,907.61a1.23,1.23,0,0,0-2.43-.38c-.47,2.84,5.84,93.31,17,253,10.05,143.23,21.44,305.57,26.79,392.66a1.24,1.24,0,0,0,1.23,1.16h.08a1.23,1.23,0,0,0,1.15-1.3c-5.36-87.1-16.75-249.45-26.8-392.68C2487.15,1026.72,2479.07,911.58,2479.44,907.61Z"/><path class="cls-6" d="M2488.38,1073.69l-73.6,50.33a1.23,1.23,0,0,0,.7,2.24,1.27,1.27,0,0,0,.69-.21l73.6-50.33a1.23,1.23,0,0,0-1.39-2Z"/><path class="cls-4" d="M2223.22,953.1c-22.16-13.29-47.13,3.79-50.58,21.2-.09.46-3.16,15.4-3.25,15.86-4.57,24.73,8.7,45.76,17.35,69.18,8.33,22.55,23.83,43.41,41.77,57.2,19.11,14.7,39.93,19.86,49.92-13.82C2299.45,1031.83,2246.67,967.18,2223.22,953.1Z"/><path class="cls-6" d="M2386.41,831.86c-31.92,70.63-103.22,6.79-103.22,6.79l107.51,244,4.63-21.24s15.19-104,8.4-133.22S2386.41,831.86,2386.41,831.86Z"/><path class="cls-9" d="M2213,699.7,2167.37,774l64.76,122.08,58.39,7.44,1.06,74.31c60,46.17,100.24,109.25,100.24,109.25-3.26-39.09,4.32-33.88-59.9-166S2213,699.7,2213,699.7Z"/><path class="cls-6" d="M2333,920.5C2269.51,789.8,2214.61,700,2214.07,699.06a1.25,1.25,0,0,0-1.05-.59h0a1.25,1.25,0,0,0-1.05.59l-45.64,74.31a1.21,1.21,0,0,0,0,1.22L2231,896.67a1.25,1.25,0,0,0,.93.64l57.33,7.3,1,73.24a1.21,1.21,0,0,0,.48,1c59.11,45.51,99.55,108.31,100,108.94a1.23,1.23,0,0,0,1,.56,1.32,1.32,0,0,0,.39-.06,1.23,1.23,0,0,0,.83-1.27c-.37-4.45-.61-8.41-.81-11.9C2390.57,1047.18,2390,1037.79,2333,920.5Zm-40.22,56.73-1.06-73.72a1.21,1.21,0,0,0-1.07-1.2L2232.92,895l-64.13-120.9,44.22-72c7.88,13,59.16,98.83,117.8,219.52,56.78,116.84,57.33,126.11,59,153.64.14,2.23.28,4.65.46,7.27C2380.37,1068,2343.45,1016.36,2292.8,977.23Z"/><polygon class="cls-9" points="2416.54 777.16 2386.41 788.4 2390.84 1087.18 2443.6 949.34 2419 929.66 2450.97 878.01 2416.54 777.16"/><path class="cls-6" d="M2417.7,776.76a1.19,1.19,0,0,0-.63-.71,1.23,1.23,0,0,0-1,0L2386,787.25a1.22,1.22,0,0,0-.8,1.17l4.43,298.78a1.22,1.22,0,0,0,1,1.19l.22,0a1.22,1.22,0,0,0,1.14-.79l52.76-137.84a1.23,1.23,0,0,0-.38-1.4l-23.74-19,31.4-50.73a1.23,1.23,0,0,0,.12-1ZM2418,929a1.25,1.25,0,0,0,.28,1.61l23.9,19.12-50.16,131-4.32-291.53,28.14-10.5,33.83,99.1Z"/><path class="cls-26" d="M2406.52,469.32c-33.35-12.07-54.89,15.07-75.36,16.17-38.42,2.06-127.77,82.52-50.93,230,21.61,41.5,59.63,64.91,80.23,75.22,32.67,16.34,60.38,1.86,77.91-30.19,29.38-53.73,38.78-125.24,44.1-160.73C2491.16,541.87,2455.73,487.13,2406.52,469.32Z"/><path class="cls-4" d="M2327,521.89c-.18-.95-.38-1.88-.62-2.79C2326.19,518.46,2326.33,519.55,2327,521.89Z"/><path class="cls-4" d="M2510.31,475.82c-24.7-20.58-65-109.61-136.24-99.36-62.12,8.94-68.64,59.41-68.64,59.41s-44.25-25.16-82,27-44.59,117.31-4.11,167.39c39.74,49.17,117.17-57.08,107.63-108.35-.64-2.34-.78-3.43-.62-2.79.24.91.44,1.84.62,2.79,3.36,12.38,20.45,60,77.59,72.67,0,0-10.29-8.23-17.84-26.06,0,0,93.32,76.94,165.35-9.5,0,0-30.51.68-34.92-24.32,0,0,56,1,56.68-63.54C2573.83,471.14,2535,496.4,2510.31,475.82Z"/><path class="cls-6" d="M2163,806.09,2095.35,849a1.22,1.22,0,0,0,.66,2.26,1.2,1.2,0,0,0,.65-.19l67.64-42.89a1.23,1.23,0,1,0-1.32-2.07Z"/><path d="M2371.2,616.18c-12.21-6.32-32.34.51-42.69,4.84a2,2,0,0,0,.42,3.89l28.2,3.53c7.65.78,15.91,4.62,22.45,8.41,4.07,2.36,8.78-2.53,6.3-6.59A37.62,37.62,0,0,0,2371.2,616.18Z"/><ellipse cx="2349.93" cy="658.28" rx="12.29" ry="7.33" transform="translate(1482.19 2939.19) rotate(-84.82)"/><path d="M2339.82,648.21s22.59-1.63,38.73,12.34C2378.55,660.55,2365.64,627.52,2339.82,648.21Z"/><path d="M2480.72,637.91c-9-6.7-26.89-18.19-40.26-15A37.65,37.65,0,0,0,2422.82,633c-3.39,3.33,0,9.22,4.51,7.92,7.27-2.11,16.21-3.83,23.83-2.74l28.21,3.39A2,2,0,0,0,2480.72,637.91Z"/><path d="M2436,656.44c-4.05,0-7.33,5.5-7.33,12.29S2432,681,2436.06,681s7.33-5.51,7.32-12.29S2440.09,656.44,2436,656.44Z"/><path d="M2422.61,664.17c19-9.65,40.56-2.61,40.56-2.61C2443.11,635.24,2422.61,664.17,2422.61,664.17Z"/><path d="M2405.22,657.54a1.77,1.77,0,0,0-.53,2.46c1.83,3.2,13.17,44.89,12.9,53.12a2.29,2.29,0,0,1-.93,1.77c-4.08,3.41-17.82,2.23-22.77,1.49a1.79,1.79,0,0,0-.53,3.54,84.94,84.94,0,0,0,11.55.86c5.32,0,11.07-.67,14-3.14a5.91,5.91,0,0,0,2.22-4.41c.28-8.5-11.37-51.93-13.47-55.16A1.8,1.8,0,0,0,2405.22,657.54Z"/><path d="M2415.61,734.59c-5.28-.34-11.12,1.42-16.13,2.12-10.92,1.53-18.88-3-28.75-5.12l-.1,0c-12.52-2.74-13.91,3.77-12.64,10.22a25.9,25.9,0,0,0,10.6,15.59c31.34,22.42,62.42-8,57.5-16.44A12.22,12.22,0,0,0,2415.61,734.59Z"/><path class="cls-9" d="M2399.48,736.71c-10.92,1.53-18.88-3-28.75-5.12,4.3,5.31,11.9,12.78,20.43,12.92,8.75.11,18.75-5.88,24.45-9.92C2410.33,734.25,2404.49,736,2399.48,736.71Z"/><path class="cls-28" d="M2296.55,674.09a25.8,25.8,0,1,0,36,5.92A25.8,25.8,0,0,0,2296.55,674.09Z"/><path class="cls-9" d="M2353.11,582.07c-24.87,0-45.1,26-45.1,58s20.23,58,45.1,58,45.1-26,45.1-58S2378,582.07,2353.11,582.07Zm0,112.31c-22.83,0-41.41-24.36-41.41-54.31s18.58-54.3,41.41-54.3,41.41,24.36,41.41,54.3S2375.94,694.38,2353.11,694.38Z"/><path class="cls-9" d="M2456.6,585.94c-24.87,0-45.1,26-45.1,58s20.23,58,45.1,58,45.11-26,45.11-58S2481.47,585.94,2456.6,585.94Zm0,112.31c-22.83,0-41.4-24.36-41.4-54.31s18.57-54.3,41.4-54.3S2498,614,2498,643.94,2479.43,698.25,2456.6,698.25Z"/><path class="cls-9" d="M2413.87,640.06c-5.62-2.59-17.14-1.86-17.63-1.83a1.83,1.83,0,0,0-1.72,2,1.86,1.86,0,0,0,2,1.73c3.06-.2,11.87-.33,15.84,1.5a1.91,1.91,0,0,0,.77.17,1.85,1.85,0,0,0,.77-3.53Z"/><path class="cls-9" d="M2310.59,638.37l-50.73-21.81a1.85,1.85,0,0,0-1.46,3.4l50.72,21.81a1.91,1.91,0,0,0,.73.15,1.85,1.85,0,0,0,.74-3.55Z"/><path class="cls-26" d="M2226.45,582.27c-35.9,13.59-8.18,82.09,39.92,102.47l11.44-44S2262.36,568.68,2226.45,582.27Z"/><path class="cls-29" d="M2271.44,616.09c-7-17.33-15.29-28.72-24.68-33.83A24,24,0,0,0,2226,581c-10.83,4.1-16.94,13.51-17.19,26.48-.51,26,22.3,63.72,57.06,78.46a1.37,1.37,0,0,0,.52.1,1.33,1.33,0,0,0,.52-2.55c-26.7-11.32-56-45.29-55.44-76,.16-8.36,3-19.32,15.47-24a21.47,21.47,0,0,1,18.57,1.08c21.17,11.53,30.93,56,31,56.47a1.32,1.32,0,1,0,2.59-.56A167,167,0,0,0,2271.44,616.09Z"/><path class="cls-29" d="M2254.35,631.18c-6.68-15.45-16.08-25.49-27.18-29a1.33,1.33,0,0,0-.8,2.53c25.14,8,32.07,48.83,32.14,49.24a1.33,1.33,0,0,0,1.31,1.11.75.75,0,0,0,.21,0,1.32,1.32,0,0,0,1.1-1.52A104.61,104.61,0,0,0,2254.35,631.18Z"/><path class="cls-29" d="M2257,639.83c-10-1.37-16.47-4.83-19.16-10.29-4-8.11,1.6-18.18,1.66-18.28a1.33,1.33,0,0,0-2.31-1.32c-.26.46-6.37,11.38-1.74,20.76,3.11,6.3,10.24,10.26,21.19,11.76l.18,0a1.33,1.33,0,0,0,.18-2.65Z"/><path class="cls-6" d="M2207.56,668.14a15.07,15.07,0,0,1,2.6-13.26c10.54-13.8,43.8-15.3,44.13-15.32l-.15-3.69c-1.43.06-35.32,1.58-46.92,16.77A18.82,18.82,0,0,0,2204,669c2.24,9.7,13.51,27.82,27.77,50.76,28.4,45.67,71.32,114.68,77.2,174.43l3.68-.37c-6-60.6-49.15-130-77.73-176C2220.78,695.13,2209.66,677.24,2207.56,668.14Z"/><path class="cls-6" d="M2471.8,666l-1,3.57c8.17,2.27,23,7.67,30.54,18.26s9.31,31.23-8.45,57.24c-7.09,10.38-14.86,20.12-22.37,29.55-11.4,14.31-23.19,29.1-32.66,46.23-9.25,16.73-18.24,34.4-26.73,52.52l3.35,1.57c8.46-18,17.41-35.64,26.62-52.3,9.32-16.86,21-31.53,32.32-45.72,7.55-9.47,15.36-19.27,22.52-29.77,12.35-18.08,21.05-43.72,8.41-61.47C2496.57,674.73,2482.36,668.93,2471.8,666Z"/><path class="cls-4" d="M2424,851.53c-21.8-5.19-26.77,57.15-35.44,82.56-1.45,4.25-3.3,6.45-6.84,9.22-8.67,6.8-22.58,5.41-32.51,4.16-26.52-3.35-27.35-39.24-29.83-58.67a131.72,131.72,0,0,0-13.43-43.09c-5.56-10.84-11.38-12-12,1.77-.35,7.23,1.28,14.9,3.36,22.45,1.73,6.28,3.78,12.48,5.27,18.29,3.7,14.47,7.47,28.92,10.87,43.46,5.6,24,32.35,38.43,56,31.86,31.37-8.7,32-52.43,44.27-76.35C2421.93,871.12,2436.11,854.43,2424,851.53Z"/><rect class="cls-5" x="2529.8" y="820.27" width="116.66" height="142.84" rx="11.88"/><path class="cls-4" d="M2614.1,783.62h-50.67a15.68,15.68,0,0,0-15.68,15.69v21.34H2630V799.54A15.91,15.91,0,0,0,2614.1,783.62Z"/><rect class="cls-6" x="2547.75" y="870.55" width="82.26" height="35.71"/><path class="cls-28" d="M2206.59,887.36c-46.11,6.38-35.47,51.06-35.47,51.06s78.28,175.43,91.05,127.2,12.51-125.78,1.16-139.25S2206.59,887.36,2206.59,887.36Z"/><path class="cls-12" d="M2924.7,1553.15h-67.4a7.36,7.36,0,0,0-6,3.11,7.58,7.58,0,0,0-1.4,4v24.56a7.49,7.49,0,0,0,7.43,7.44h67.4A7.31,7.31,0,0,0,2930,1590a7.43,7.43,0,0,0,2.11-5.18v-24.23A7.47,7.47,0,0,0,2924.7,1553.15Z"/><path class="cls-14" d="M2930,1590c-57.07-3.11-74.27-25.45-78.75-33.77a7.58,7.58,0,0,0-1.4,4v.33l.07,25.2,0,17.38h82.38l-.85-13.09C2931,1590.07,2930.51,1590.07,2930,1590Z"/><rect class="cls-5" x="2831.92" y="1589.81" width="116.66" height="142.84" rx="8.55"/><rect class="cls-6" x="2849.87" y="1640.09" width="82.26" height="35.71"/><path class="cls-5" d="M2226.27,601.78c-8.16,4.72-7.42,21.3,1.67,37s23.07,24.67,31.24,20,7.42-21.3-1.67-37S2234.44,597.07,2226.27,601.78Z"/><path class="cls-15" d="M2225.35,600.18c-4.58,2.64-6.91,8.35-6.56,16.07.33,7.28,3,15.63,7.55,23.49s10.42,14.36,16.57,18.29c4,2.56,7.88,3.87,11.32,3.87a11.66,11.66,0,0,0,5.88-1.52c9.19-5.31,8.75-22.68-1-39.56S2234.54,594.87,2225.35,600.18Zm32.91,57c-3.33,1.91-8.07,1.11-13.36-2.27-5.65-3.61-11.11-9.66-15.36-17s-6.75-15.11-7.06-21.81c-.28-6.27,1.4-10.78,4.72-12.7a7.92,7.92,0,0,1,4-1c7.37,0,17.67,8.16,24.68,20.31C2264.33,637.25,2265.4,653.05,2258.26,657.18Z"/><ellipse class="cls-5" cx="2249.52" cy="852.84" rx="54.34" ry="40.99" transform="translate(386.18 2374.57) rotate(-60)"/><path class="cls-15" d="M2277.62,804.18c-20.46-11.81-49.71.41-65.2,27.24-7.46,12.92-10.67,27.28-9.05,40.43,1.65,13.35,8.06,23.88,18.06,29.65a34.37,34.37,0,0,0,17.34,4.55,44.68,44.68,0,0,0,17.37-3.73c12.2-5.18,23-15.14,30.49-28.06C2302.12,847.43,2298.08,816,2277.62,804.18Zm5.8,68.23c-7.05,12.23-17.26,21.64-28.73,26.5-11.29,4.78-22.44,4.57-31.41-.61s-14.74-14.73-16.24-26.9c-1.52-12.36,1.53-25.91,8.58-38.13,10.8-18.71,28.57-29.92,44.66-29.92a30.75,30.75,0,0,1,15.49,4C2294.46,818.18,2297.9,847.35,2283.42,872.41Z"/><path class="cls-30" d="M2172.54,822.1s-36.88,9.22-42.55,11.35-5.68,85.11-5.68,85.11c14.9-49.64,39.72-51.06,72.35-60.28S2217.23,832,2217.23,832C2210.13,832.74,2172.54,822.1,2172.54,822.1Z"/><path class="cls-4" d="M2318.29,502.8c.08.22,8.41,21.9,8.51,46.55.13,32.64-13.52,54.77-40.57,65.78l1.39,3.42c28.21-11.47,43-35.44,42.88-69.32a148.1,148.1,0,0,0-8.76-47.77Z"/><path class="cls-4" d="M2302.69,442.19l22.59-9.14c-17.88-32.39,19.84-70.16,19.84-70.16C2304,373.11,2302.69,442.19,2302.69,442.19Z"/><path class="cls-4" d="M2252.72,405.12s31.7,14.82,34.17,35l18.54-4.24S2276.6,401.41,2252.72,405.12Z"/><path class="cls-3" d="M2006.92,1588.13,1937.23,2019s33.36-11.32,123.62,6c6.25,1.19,12.8,2.52,19.61,4l7.4,1.67c4.21,1,8.39,1.88,12.46,2.73,19,4,36.4,6.85,52.6,8.95,28.85,3.78,54,5.22,78.35,6.7a1.05,1.05,0,0,0,.37,0c24.45,1.51,48.05,3.07,73.65,7.1a4.4,4.4,0,0,1,1,.15c11.17,1.73,22.71,4,34.92,6.91,2.7.63,5.4,1.22,8.13,1.71-91.84-31.26-194.68-77.87-252.94-122.89C2033.48,1893.46,2013.32,1710.28,2006.92,1588.13Z"/><path class="cls-9" d="M2267,1123.16a.14.14,0,0,1-.08,0,21.22,21.22,0,0,1-17.71,3.36c-10.25-2.92-17.54-11.8-23.68-20.53-3.44-4.92-6.77-9.91-9.91-15-1.26-2-2.52-4.1-3.74-6.17-14.9-25.38-24.78-57-31.37-87.56-1.51-7.1-2.84-14.13-4-21-.52-2.85-1-5.7-1.44-8.47-.67,1.51-1.3,3-2,4.62s-1.37,3.15-2,4.74c-2.88,6.77-5.91,13.9-8.95,21.15-4.21,9.92-8.47,20.05-12.5,29.63l-7.07,16.5c-2.47-18.27-1.88-37.17-2-55.82a300.09,300.09,0,0,0-1.22-30.14c-1.4-13.36-4.25-26.34-10.06-38.62-1-2.19-2.14-4.29-3.36-6.4-.52-.93-1-1.81-1.6-2.7-.18-.34-.36-.63-.55-.93-4.14-6.77-8.95-13.2-13.69-19.6-6.62-8.88-9.67-19.07-16.29-28-4.22-5.66-7.4-10.37-13.5-14s-5.78-6-11.92-6.2c-33.66-1.07-73.45,38.48-78.22,66.14-3.77,21.9-10.42,53.36-10.13,75.63,1.37,107.79-18.2,175.41,15.39,286.53q1.66,5.55,3.22,10.66c10.17,33.55,17.42,54.45,38.8,79.49,3.67,4.25,7.7,8.62,12.25,13.2,4.88,4.89,27.33,26.34,34.25,26.49,4.81.11,11.47,2.66,15.68.37q23.59-12.87,47.17-25.78c12.87-7,28.52-22.12,37.91-33.37,7.7-9.25,9.84-12.8,14.28-24q11.32-28.46,22.12-57.11,5.22-13.87,10.32-27.82,20.6-56.14,39.1-113A15.47,15.47,0,0,1,2267,1123.16Z"/><path class="cls-6" d="M2271.09,1118.43a1.23,1.23,0,0,0-1.56.42,14,14,0,0,1-3.15,3.26l-.15.1a19.92,19.92,0,0,1-16.65,3.17c-9.78-2.79-16.84-11.29-23-20.05-3.74-5.35-7-10.25-9.88-15-1.37-2.22-2.59-4.23-3.72-6.16-13-22.18-23.54-51.52-31.22-87.19-1.42-6.64-2.78-13.69-4-21-.48-2.62-1-5.46-1.44-8.45a1.23,1.23,0,0,0-2.34-.3c-.56,1.3-1.11,2.59-1.67,3.94l-.28.67c-.73,1.62-1.43,3.29-2.05,4.76-2.82,6.64-5.87,13.79-8.95,21.16-3.44,8.08-6.9,16.31-10.24,24.27l-2.26,5.36c-1.53,3.55-3,7-4.44,10.38l-.83,1.92c-1.47-13.55-1.43-27.55-1.4-41.15,0-3.33,0-6.67,0-10,0-8.44-.14-19.51-1.22-30.27-1.62-15.36-4.85-27.76-10.18-39-1-2.21-2.16-4.33-3.4-6.47-.59-1.05-1.1-1.92-1.59-2.7-.2-.35-.39-.67-.58-1-4-6.49-8.6-12.74-13.07-18.78l-.68-.92a92.14,92.14,0,0,1-8.06-13.83,94.48,94.48,0,0,0-8.24-14.15l-1-1.37c-3.77-5.1-7-9.49-12.84-12.91a31.88,31.88,0,0,1-4.52-3.26,10.8,10.8,0,0,0-8-3.12C2034.94,839.81,1994,879,1989,908c-.67,3.88-1.43,8.07-2.23,12.45-3.63,20-8.16,45-7.91,63.4.4,31.55-1,59.45-2.33,86.44-3.24,65.29-6,121.67,17.77,200.43q1.67,5.55,3.21,10.65c10,32.89,17.19,54.34,39,79.94,3.8,4.41,7.82,8.75,12.31,13.27.27.27,26.76,26.67,35.09,26.85a36,36,0,0,1,4.95.61,38.62,38.62,0,0,0,6.31.72,10.42,10.42,0,0,0,5-1.11l23.59-12.89,23.58-12.89c12.89-7,28.51-22,38.27-33.66,7.84-9.43,10-13.07,14.47-24.3,7.43-18.69,14.88-37.91,22.13-57.14,3.33-8.85,6.71-18,10.33-27.83,13.92-38,27.08-76,39.11-113A1.23,1.23,0,0,0,2271.09,1118.43Zm-40.79,113.69c-3.62,9.87-7,19-10.32,27.8-7.25,19.22-14.68,38.43-22.11,57.1-4.34,10.93-6.45,14.46-14.08,23.63-9.61,11.51-24.95,26.19-37.56,33.08l-23.58,12.89-23.58,12.89c-2.48,1.35-6.19.73-9.78.13a39.26,39.26,0,0,0-5.29-.65c-5.63-.12-24.94-17.65-33.41-26.12-4.44-4.48-8.43-8.78-12.18-13.14-21.54-25.22-28.69-46.47-38.56-79q-1.56-5.1-3.22-10.65c-23.68-78.36-20.9-134.54-17.67-199.59,1.35-27,2.73-55,2.33-86.61-.24-18.19,4.26-43,7.88-62.92.8-4.39,1.56-8.59,2.23-12.48,2.29-13.25,13-29.78,27.89-43.14,15.67-14,33-22,47.8-22,.43,0,.86,0,1.29,0,3.54.1,4.53.92,6.48,2.55a33.71,33.71,0,0,0,4.85,3.48c5.38,3.17,8.35,7.18,12.11,12.26l1,1.37a94,94,0,0,1,8,13.8,95,95,0,0,0,8.28,14.19l.68.92c4.43,6,9,12.19,12.95,18.61.17.27.35.55.55.92.5.79,1,1.64,1.57,2.66,1.21,2.1,2.3,4.16,3.32,6.31,5.2,11,8.36,23.15,9.95,38.22a300.34,300.34,0,0,1,1.22,30c0,3.32,0,6.65,0,10,0,15.19-.07,30.9,2,46a1.23,1.23,0,0,0,2.34.32l2.62-6.13,4.45-10.38,2.26-5.37c3.35-7.95,6.81-16.18,10.25-24.26,3.08-7.37,6.12-14.52,8.95-21.16.61-1.46,1.3-3.12,2-4.73l.3-.72h0c.26,1.49.51,2.91.76,4.31,1.26,7.3,2.62,14.38,4,21.06,7.75,35.93,18.35,65.51,31.51,87.92,1.15,1.94,2.37,4,3.75,6.2,2.93,4.75,6.19,9.69,10,15.08,6.42,9.14,13.82,18,24.34,21a22.43,22.43,0,0,0,18.7-3.5l.14-.08C2256.17,1159.59,2243.58,1195.88,2230.3,1232.12Z"/><path class="cls-9" d="M2104,1346.24a190.68,190.68,0,0,0,80-112.65l24.15-95.74L2104,1346.24Z"/><path class="cls-6" d="M2208.51,1136.65a1.24,1.24,0,0,0-1.49.89l-24.15,95.75a189.12,189.12,0,0,1-79.53,111.93,1.22,1.22,0,0,0-.35,1.7,1.23,1.23,0,0,0,1.7.35,191.55,191.55,0,0,0,80.56-113.38l24.15-95.74A1.23,1.23,0,0,0,2208.51,1136.65Z"/><path class="cls-9" d="M2019.45,1220.13l20.73-345.61S2005.62,1149.62,2019.45,1220.13Z"/><path class="cls-6" d="M2040.33,873.3a1.23,1.23,0,0,0-1.37,1.07c-.34,2.75-34.42,276.1-20.72,346a1.23,1.23,0,0,0,1.2,1l.24,0a1.22,1.22,0,0,0,1-1.44c-13.63-69.5,20.41-342.47,20.75-345.22A1.23,1.23,0,0,0,2040.33,873.3Z"/><path class="cls-9" d="M2142.56,1044.46s-60.21,159.77-69.89,208.15Z"/><path class="cls-6" d="M2143,1043.31a1.24,1.24,0,0,0-1.59.71c-.6,1.6-60.36,160.42-69.95,208.35a1.23,1.23,0,0,0,1,1.45l.24,0a1.22,1.22,0,0,0,1.2-1c9.55-47.73,69.24-206.36,69.84-208A1.23,1.23,0,0,0,2143,1043.31Z"/><path class="cls-9" d="M2050.49,1225.51c3.78,41.88,21.55-52.14,62.05-96.1C2112.54,1129.41,2046.7,1183.62,2050.49,1225.51Z"/><path class="cls-6" d="M2111.75,1128.46a295,295,0,0,0-32.59,32.49c-21.44,25.2-31.5,47-29.9,64.66.72,8,1.9,11.24,4.18,11.6a2.43,2.43,0,0,0,.38,0c3.53,0,7-7.92,14.83-26.57,9.77-23.27,24.53-58.44,44.79-80.43a1.23,1.23,0,0,0-1.69-1.78Zm-45.37,81.26c-4.89,11.66-10.44,24.88-12.54,25.06-.13-.06-1.36-.85-2.13-9.39-2.71-30,31.53-67,50.1-84.66C2086.26,1162.38,2074.58,1190.2,2066.38,1209.72Z"/><path class="cls-3" d="M2484.69,984.39v0Z"/><path class="cls-3" d="M2484.69,984.39l40.59,602.41c73.45,10.49,93.07-27.83,93.07-27.83C2521.9,1528.74,2485.38,994.67,2484.69,984.39Z"/><path class="cls-6" d="M2324.33,1545.88,2079.15,1522a1.2,1.2,0,0,0-1.31,1.06l-34.39,291.52a1.24,1.24,0,0,0,.16.75c8.62,14.84,37.31,28.07,78.73,36.29a413,413,0,0,0,78.65,7.66,316,316,0,0,0,40.08-2.39c49.7-6.44,64.33-23.06,67.85-35.87,6.85-24.89,11.7-78.55,14.43-159.49,2-60.25,2.06-113.88,2.06-114.41A1.2,1.2,0,0,0,2324.33,1545.88ZM2321,1661.41c-2.68,79.62-7.64,134.57-14.34,158.94-6.35,23.08-44,31.28-65.84,34.11-34.69,4.5-78.79,2.54-118-5.24-40.42-8-68.4-20.69-76.92-34.8l34.19-290,242.93,23.7C2323,1556.09,2322.82,1606,2321,1661.41Z"/><path class="cls-3" d="M2068.93,1611.61l-3.26,31.62c69.39,22.49,254.88,20.39,254.88,20.39l.45-31.21C2271.49,1637.66,2068.75,1612.06,2068.93,1611.61Z"/><path class="cls-6" d="M2321,1631.21c-65.69,3-250-20.47-251.77-20.77a1.18,1.18,0,0,0-1.42.9,1.2,1.2,0,0,0,.9,1.44c1.1.25,165.75,21.09,239.64,21.09,4.63,0,8.91-.09,12.76-.26a1.2,1.2,0,0,0-.11-2.4Z"/><g class="cls-31"><path class="cls-3" d="M2468.52,571.93c-65.75-8.48-97.15-29.93-111.9-46.43-15.83-17.71-16.38-33.64-16.39-33.9a1.76,1.76,0,0,0-1.76-1.73h0a1.76,1.76,0,0,0-1.74,1.79c0,.7.46,17.23,17.06,35.94,27.4,30.88,77.28,43.06,114.3,47.83l.23,0a1.77,1.77,0,0,0,.23-3.52Z"/></g><g class="cls-31"><path class="cls-3" d="M2501.45,549.27c-45.76,8.62-78-5-96.91-17.92C2384,517.3,2374.08,501,2374,500.81a1.76,1.76,0,1,0-3,1.81c.41.69,10.29,17.06,31.46,31.55,15.27,10.46,38.88,21.34,70.94,21.34a154.37,154.37,0,0,0,28.76-2.78,1.76,1.76,0,0,0,1.4-2.06A1.74,1.74,0,0,0,2501.45,549.27Z"/></g><g class="cls-31"><path class="cls-3" d="M2304,508.06a1.76,1.76,0,0,0-1.75,1.78c0,.67.4,67.51-18.71,86.29-3.3,3.25-6.89,4.79-11,4.66a1.77,1.77,0,0,0-.09,3.53h.49a18.22,18.22,0,0,0,13.05-5.69c20.17-19.82,19.79-86,19.76-88.83A1.78,1.78,0,0,0,2304,508.06Z"/></g><path class="cls-26" d="M2195.8,940a24.16,24.16,0,0,1-7-15.24c-.71-9.27-1.72-22.5-1.72-23.67,0,0,24.84-3.63,33.93-10.9s10.3-22.42,1.21-20.6-40,4.85-40,4.85-27.26,18.17-31.51,27.86,3.64,75.12,3.64,75.12,20.76,56.06,22,59.37c29.57,79.08,62.82,87,71,89,10.24,2.63,18.44-64.22,16.62-93.29C2262.53,1008.72,2213.5,957.68,2195.8,940Z"/><path class="cls-4" d="M2255.74,838.13c-4.1-2.37-9.21-2.33-14.38.11a29.51,29.51,0,0,0-12.56,12.08c-6.63,11.48-5.32,24.68,2.91,29.43a13.16,13.16,0,0,0,6.67,1.75,18.15,18.15,0,0,0,7.72-1.86,31.38,31.38,0,0,0,16.74-29C2262.37,844.94,2259.85,840.5,2255.74,838.13Zm-.28,27.58a25.88,25.88,0,0,1-10.94,10.59c-4.05,1.9-7.94,2-11,.25-6.47-3.73-7.17-14.67-1.56-24.38a25.83,25.83,0,0,1,10.93-10.58,14.47,14.47,0,0,1,6.13-1.5,9.58,9.58,0,0,1,4.84,1.24c3,1.75,4.88,5.16,5.25,9.62A25.82,25.82,0,0,1,2255.46,865.71Z"/><path class="cls-4" d="M2206.81,1226.18c-45-58.79-40.7-141.82-32.75-207.64,3.53-29.23,23.73-62.07,36-88.86,6.1-13.36,18.38-29.76,26.24-42.18,5.58-8.82,22-26.06,13.28-37.19-4.65-5.92-10.79-2-14.94,4.31-18.43,27.88-66.55,97.64-78.33,168.37-12.71,76.22,7.36,212,61.17,236.12s129.7-217.31,142.8-300.1l-16.37-2.16S2270.41,1309.17,2206.81,1226.18Z"/><path class="cls-32" d="M2229.28,850.48c-9.93,0-61-2.84-61-2.84s-36.88,17.73-42.56,19.86c-3.92,1.47-2.42,36.16-1.12,57.43a51.51,51.51,0,0,0,11.07,28.89l18.69,23.59c3.1-7.83,1.15-68.07,9-77.29s34.76-19.86,46.81-22S2239.21,850.48,2229.28,850.48Z"/><g class="cls-33"><path class="cls-26" d="M2196.16,939.81a24.16,24.16,0,0,1-7-15.24c-.71-9.27-1.72-22.5-1.72-23.67,0,0,24.84-3.63,33.93-10.9s10.29-22.42,1.21-20.6-40,4.85-40,4.85-27.27,18.17-31.51,27.86,3.64,75.12,3.64,75.12,20.76,56.06,22,59.37c29.57,79.08,62.82,87,71,89.05,10.24,2.63,18.43-64.22,16.62-93.29C2262.89,1008.54,2213.86,957.5,2196.16,939.81Z"/></g></g></svg>