<svg xmlns="http://www.w3.org/2000/svg" viewBox="0 0 4680 3120"><defs><style>.cls-1,.cls-46{fill:#fff;}.cls-2{fill:#bad2ff;}.cls-3{fill:#728ed9;stroke:#728ed9;}.cls-10,.cls-11,.cls-12,.cls-13,.cls-14,.cls-15,.cls-16,.cls-17,.cls-18,.cls-19,.cls-20,.cls-21,.cls-22,.cls-24,.cls-25,.cls-27,.cls-28,.cls-29,.cls-3,.cls-30,.cls-31,.cls-32,.cls-33,.cls-34,.cls-35,.cls-37,.cls-38,.cls-39,.cls-4,.cls-40,.cls-41,.cls-42,.cls-43,.cls-45,.cls-46,.cls-47,.cls-48,.cls-49,.cls-50,.cls-57,.cls-58,.cls-59,.cls-6,.cls-60,.cls-61,.cls-62,.cls-63,.cls-64,.cls-65,.cls-66,.cls-67,.cls-68,.cls-69,.cls-7,.cls-73,.cls-77,.cls-78,.cls-79,.cls-8,.cls-80,.cls-81,.cls-82,.cls-9{stroke-miterlimit:10;}.cls-4{fill:#5471b2;stroke:#5471b2;}.cls-5{fill:#92aeff;}.cls-38,.cls-6{fill:#b1caf4;}.cls-10,.cls-40,.cls-47,.cls-6{stroke:#dee8f4;}.cls-7{fill:#c5e1ff;}.cls-7,.cls-9{stroke:#c5e1ff;}.cls-8{fill:#99c8ff;stroke:#99c8ff;}.cls-9{fill:#d1ecff;}.cls-10{fill:#dee8f4;}.cls-11{fill:#e6ffff;stroke:#bdd6e2;}.cls-12{fill:#804f2f;stroke:#804f2f;}.cls-13{fill:#ffdfcc;stroke:#ffdfcc;}.cls-14{fill:#6e9edc;stroke:#80acdc;}.cls-15{fill:#13548b;}.cls-15,.cls-30{stroke:#13548b;}.cls-16{fill:#f2f3f5;stroke:#f2f3f5;}.cls-17,.cls-22{stroke:#000;}.cls-17,.cls-22,.cls-27,.cls-46{stroke-width:2px;}.cls-18{fill:#90c2e8;stroke:#90c2e8;}.cls-19{fill:#0d5493;stroke:#0d5493;}.cls-20{fill:#85addb;stroke:#85addb;}.cls-21{fill:#89a8e8;stroke:#89a8e8;}.cls-22,.cls-27,.cls-50{fill:none;}.cls-23{fill:#ed8266;}.cls-24{fill:#ffd0d1;stroke:#ffd0d1;}.cls-25,.cls-26{fill:#ffc0bb;}.cls-25,.cls-27{stroke:#ffc0bb;}.cls-28{fill:#407bdc;stroke:#407bdc;opacity:0.42;}.cls-29{fill:#a5c1d4;stroke:#a5c1d4;opacity:0.36;}.cls-30{fill:#133e77;}.cls-31{fill:#a2baff;stroke:#a2baff;}.cls-32{fill:#19405a;stroke:#19405a;}.cls-33{fill:#29679c;stroke:#29679c;}.cls-34{fill:#134c90;stroke:#134c90;}.cls-35{fill:#e95939;stroke:#e95939;}.cls-36{fill:#e98e50;}.cls-37,.cls-62{fill:#a64e0f;}.cls-37{stroke:#a64e0f;}.cls-38{stroke:#b1caf4;}.cls-39{fill:#f8fff4;stroke:#f8fff4;}.cls-40{fill:#88b1f4;}.cls-40,.cls-47{opacity:0.63;}.cls-41{fill:#ff7377;stroke:#ff7377;}.cls-42{fill:#ffeded;stroke:#ffeded;}.cls-43{fill:#d00005;stroke:#d00005;}.cls-44{fill:#ff9d2e;}.cls-45{fill:#ffecb9;stroke:#ffecb9;}.cls-46,.cls-50{stroke:#fff;}.cls-47{fill:#b4cdf4;}.cls-48{fill:#ffb8e2;stroke:#ffb8e2;}.cls-49{fill:#ffe3e2;stroke:#ffe3e2;}.cls-50{stroke-width:4px;}.cls-51{fill:#c3cde5;}.cls-52{fill:#b0c4e2;}.cls-53{fill:#b7c3e5;}.cls-54{fill:#dde8f4;}.cls-55{fill:#9fb3e2;}.cls-56{fill:#d3daf4;}.cls-57{fill:#ff9c3f;stroke:#ff9c3f;}.cls-58{fill:#ffd65d;stroke:#ffd65d;}.cls-59,.cls-73{fill:#ffc453;}.cls-59{stroke:#ffc453;}.cls-60{fill:#43433e;}.cls-60,.cls-61{stroke:#43433e;}.cls-61{fill:#433933;}.cls-62,.cls-63{stroke:#ca6725;}.cls-63{fill:#ca6725;}.cls-64{fill:#ca5b19;stroke:#ca5b19;}.cls-65{fill:#a6420f;stroke:#a6420f;}.cls-66{fill:#ffd864;}.cls-66,.cls-73{stroke:#ffd864;}.cls-67{fill:#b2682f;stroke:#b2682f;}.cls-68{fill:#ffc9c3;stroke:#ffc9c3;}.cls-69{fill:#ee7a95;stroke:#ee7a95;}.cls-70{fill:#ffbabb;}.cls-71{fill:#fe6179;}.cls-72{fill:#fec359;}.cls-74{fill:#e9392f;}.cls-75{fill:#d57330;opacity:0.48;}.cls-76{fill:#fcf5cb;opacity:0.32;}.cls-77{fill:#363941;stroke:#363941;}.cls-78{fill:#1a5282;stroke:#1a5282;}.cls-79{fill:#314388;stroke:#314388;}.cls-80{fill:#fbc96b;}.cls-80,.cls-81{stroke:#fbd86b;}.cls-81{fill:#fbd86b;}.cls-82{fill:#31649b;stroke:#31649b;}</style></defs><title>10</title><g id="_10" data-name="10"><rect id="_10-2" data-name="10" class="cls-1" width="4680" height="3120"/><path class="cls-2" d="M4199.44,1748.79c0,584.67-777.95,862.75-1739,862.75S719.31,2333.46,719.31,1748.79,1834.53,496.61,2795.54,496.61,4199.44,1164.13,4199.44,1748.79Z"/><ellipse class="cls-3" cx="2459.37" cy="2544.39" rx="1625" ry="215.61"/><ellipse class="cls-4" cx="2846.34" cy="2492.87" rx="200.65" ry="982.42" transform="translate(123.53 5120.1) rotate(-85.19)"/><ellipse class="cls-4" cx="1641.76" cy="2572.37" rx="350.46" ry="94.65"/><path class="cls-5" d="M2259.88,397.91l-94.12,24.65,1208,202.65c96.71,17.68,166.82,106.1,165.55,208.78L3394.05,2663.46h3.38c109.35-.24,210.88-58.5,264.59-153.75a337.9,337.9,0,0,0,43.32-161.95l19.81-1594.26c1.28-103.43-70.67-191.89-168.49-207.13L2519.07,384.67A635.65,635.65,0,0,0,2259.88,397.91Z"/><path class="cls-6" d="M2215.64,380.82l-94.11,24.65,1208,202.65c96.71,17.67,166.82,106.09,165.54,208.77L3340.43,2663.46l74.85-17.24c142.07-32.72,243.94-163.49,245.83-315.57l19.8-1594.25c1.29-103.44-70.67-191.9-168.49-207.14L2474.84,367.58A635.7,635.7,0,0,0,2215.64,380.82Z"/><polygon class="cls-7" points="3215.54 1741.88 3060.18 1715.84 2933.68 1694.63 2700.57 1655.56 2624.57 1642.82 2570.55 1633.77 2178.87 1568.12 2065.64 1637.46 2061.82 1944.46 3313.44 2154.25 3448.6 2071.47 3452.2 1781.55 3215.54 1741.88"/><path class="cls-8" d="M3313.44,2154.25,2061.82,1944.46l-.66,53.41a134.35,134.35,0,0,0,6.45,42.85L3313.44,2253Z"/><polygon class="cls-9" points="3313.44 2154.25 3313.44 2252.97 3447.44 2165.27 3448.6 2071.47 3313.44 2154.25"/><path class="cls-10" d="M3429.3,617,2193.39,400.31c-93.36-16.37-179.16,54.79-180.34,149.57l-14,1127-3.19,256.92-1.18,94.9h0l-.23,18.53-.17,13.65h0l-2.66,213.67a153.8,153.8,0,0,0,125.2,153l1235.71,233.71c93.95,17.77,181.17-53.59,182.36-149.2l4.83-389h0l1.37-109.61,2.68-216.18,12.76-1026.9A153.82,153.82,0,0,0,3429.3,617ZM3311.19,2253,2064.08,2040.5c-3-13.63-5.31-31.15-5.17-42.63l.66-53.41,3.81-307,113.24-69.34L3450,1781.55l-3.6,289.92-1.17,93.8Z"/><path class="cls-11" d="M3452.2,1781.55l11-884.41A134.3,134.3,0,0,0,3354,763.53L2236.87,551.34c-82.08-15.59-158.32,46.74-159.36,130.28l-11.87,955.84,113.23-69.34Z"/><path class="cls-11" d="M3364.07,2219.83v116a134.24,134.24,0,0,0,82.77-122.41l.6-48.12Z"/><path class="cls-11" d="M2067.61,2040.72a134.3,134.3,0,0,0,102.78,90.76l1063.59,202v-94.07Z"/><path class="cls-8" d="M3313.44,2346.06V2253L3234,2239.44v94.07l53.5,10.16A134.94,134.94,0,0,0,3313.44,2346.06Z"/><path class="cls-9" d="M3313.44,2253h0v93.09a132.84,132.84,0,0,0,50.63-10.26v-116Z"/><path class="cls-12" d="M2766.37,602.42s-86.46-38.28-21.34-119.77c0,0,16.85-14.81,30.32,8.65s52.78,7.4,52.78,7.4,74.1-25.93,93.19,29.64c0,0,30.32-10.79,50.53,11.89s33.69,100.47,9,146.15S2766.37,602.42,2766.37,602.42Z"/><path class="cls-13" d="M2788.77,816.57s11.2,50.65,0,64.35l67.11,49.29,96-65.72s-19.92-67.09,0-116.38Z"/><path class="cls-13" d="M2995.82,695.2c-3.14-13.23-11.45-31.71-33.38-30.24a30.35,30.35,0,0,0-15.87,6.21c-3.47,2.55-8.75,4.74-14,.4-9-7.41-24.14-46.31-18.53-87.05,0,0-128.43,31.66-173.26-.14,0,0-13.13,65.65-5.19,132.57a22.17,22.17,0,0,1,11.86-3.47c13.23,0,24,11.79,24,26.34s-10.73,26.35-24,26.35c-.34,0-.66,0-1,0,13.14,37.2,38,66.15,82.85,69.81,0,0,119.57,11.11,129.68-94.46,0,0,22.54,3.83,33.77-17.9A41.38,41.38,0,0,0,2995.82,695.2Z"/><path class="cls-13" d="M2133.85,1357.38s-135.72-52.17-161.86-121.92c0,0-5.91-21.93,6.73-26.19a12.59,12.59,0,0,1,11.59,2.2c5.2,3.9,17.78,14.22,21.11,12.65,1.84-.87-28.42-21.74-38.6-33.32-3.81-4.33-8.74-8.43-12-13.23-4.89-7.13-5.35-15.28.83-22.37,16.6-19,52.85,27.55,54,26.93,8.5-4.79-55.43-40.48-50.08-72.22a9.83,9.83,0,0,1,6.86-8.08c5.2-1.44,23.57,1.11,66.61,46.8,2.35,2.5,5.83-1.19,3.64-3.85-.48-.59-43.45-37.1-32.43-48.91,0,0,8.72-13.92,28.64.46s47.73,50.89,50.22,47.46-21.79-26.69-1.87-34.91,34.24,20.54,46.69,50,9.49,28.35,15.64,35.06l12.37,114.18Z"/><path class="cls-14" d="M2537.26,1045.22c-75.09,143.35-117,212.35-227.16,189.76s-160.61-41.07-160.61-41.07-1.87,133.48-35.48,160.18c0,0,175.54,228,409,164.29,0,0,172.92-50.57,148.13-424.75-.38-5.75-1-11.48-1.9-17.16-4.38-27.78-19.47-114.54-39.78-135.16C2629.45,941.31,2576.55,970.2,2537.26,1045.22Z"/><path class="cls-1" d="M3013.54,1115.58l-5.13-190.85-206.21,13-48.41-27.48-63.38,164.64,34.5,129.25c-13.31,123.54-19,277.38-3,452.48l212,39.07c33.71-74.28,80.3-235.36,57.49-534.27Z"/><path class="cls-15" d="M2843.91,994.1l17.43-12.78,16.24,17.34s34.6,184.38,13.15,274.75c0,0-82,12.78-94.49-12.78C2796.24,1260.63,2797.79,1112.76,2843.91,994.1Z"/><polygon class="cls-16" points="2788.77 880.92 2761.37 916.51 2823.63 968.54 2855.88 930.21 2788.77 880.92"/><polygon class="cls-16" points="2855.88 930.21 2951.87 864.49 2999.05 933.33 2903.32 968.54 2855.88 930.21"/><path class="cls-14" d="M2788.77,880.92c-51.72,9.43-159.32,60.39-159.32,60.39-50.47,339.25-39.75,571.36-25.76,693.5l49.11,9.06,69.13,12.74c-18.81-205.06-7.73-381,10.4-513.2C2755,977.94,2788.77,880.92,2788.77,880.92Z"/><path class="cls-14" d="M3183.24,939.49c-47-34.45-231.37-75-231.37-75,15.35,83.89,26.22,160.46,33.49,230.27,35.62,341.94-15.33,521.3-51.46,600.92l115,21.2,141.29,26C3321.41,1359.27,3183.24,939.49,3183.24,939.49Z"/><path class="cls-15" d="M2855.88,930.21,2832,958.66l12,35.44s17.07-4.56,33.67,4.56l13.15-40.29Z"/><path class="cls-12" d="M2862.82,646.64s25.45-14.89,48.18-1.63a7.26,7.26,0,0,1,3.44,7.19,5.65,5.65,0,0,1-2,3.77,5.57,5.57,0,0,1-5.37.89c-5.66-1.92-23.24-6.81-38.45.39-5.91,2.79-10.81-5.72-6-10.4Z"/><path class="cls-12" d="M2750.52,642.84s25.44-14.89,48.17-1.63a7.27,7.27,0,0,1,3.44,7.19,5.65,5.65,0,0,1-2,3.77,5.57,5.57,0,0,1-5.37.89c-5.66-1.92-23.24-6.81-38.45.39-5.91,2.8-10.81-5.72-6-10.4Z"/><path class="cls-12" d="M2757.34,669.24s19-11.25,35-.63q.73.48,1.5.9c.95.5,2.27,1.62-2.43,2.48-6.09,1.11-10.57-10.4-32.28,1.54a2.33,2.33,0,1,1-1.81-4.29Z"/><path class="cls-12" d="M2869.65,669.24s19-11.25,35-.63q.73.48,1.5.9c.95.5,2.27,1.62-2.43,2.48-6.09,1.11-10.57-10.4-32.28,1.54a2.33,2.33,0,1,1-1.81-4.29Z"/><path class="cls-17" d="M2609.31,1345c-30.14-4.1-32.39-23.45-32.41-23.65-3.41-40.65-1.87-76,4.6-105.18,5.18-23.34,13.5-42.76,24.75-57.72,17.88-23.78,37.63-28.61,40.38-29.18.84-61.45,8.19-112.73,21.83-152.43,11.11-32.3,26.43-57.14,45.53-73.82,36.26-31.68,74.26-23.08,74.64-23l-.16.82c-.38-.09-38-8.59-74,22.84-43,37.58-65.56,113.6-67,225.94v.36l-.32.06c-.21,0-21.29,3.71-40.27,29-17.54,23.36-36.84,70.47-29.14,162.22,0,.18,2.25,18.88,31.74,22.89Z"/><path class="cls-17" d="M2701.91,1345l-.24-.81c30.7-10.73,36.81-63.52,15.94-137.76-10.89-38.74-29.51-57.44-43.21-66.3-14.84-9.61-27.27-10.07-27.4-10.07l0-.85c.13,0,12.72.46,27.73,10.16,13.83,8.94,32.62,27.79,43.59,66.82C2739.35,1280.89,2733.05,1334.08,2701.91,1345Z"/><path class="cls-17" d="M2978.31,1278.88c-10.69-50.52,19.48-210.23,29-258a234.38,234.38,0,0,0,3.53-24c3.23-35.07,2.42-63.75-2.42-85.21-3.88-17.25-10.37-29.92-19.27-37.67-16-13.9-34.55-7.07-34.74-7l-.25-.8c.19-.07,19.14-7.06,35.46,7.13,9,7.86,15.62,20.69,19.55,38.12,4.86,21.56,5.68,50.34,2.43,85.52a233.35,233.35,0,0,1-3.54,24.05c-9.49,47.7-39.64,207.25-29,257.6Z"/><ellipse class="cls-18" cx="2613.72" cy="1341.39" rx="15.28" ry="22.53"/><ellipse class="cls-18" cx="2688.63" cy="1341.39" rx="15.27" ry="22.53"/><ellipse class="cls-19" cx="2978.68" cy="1307.54" rx="26.15" ry="28.75"/><ellipse class="cls-20" cx="2773.53" cy="683.74" rx="10.15" ry="11.16"/><ellipse class="cls-21" cx="2884.62" cy="684.97" rx="10.15" ry="11.16"/><path class="cls-22" d="M2824.7,663.93s-11.49,32.79-13.38,53.53c-.7,7.76,3.83,14.94,10.65,17.08l6.53,2.06"/><path class="cls-23" d="M2819.17,764.29a60.15,60.15,0,0,0,35.37-5.86c2.79-1.45,5.78,1.41,4.85,4.64-2.44,8.46-8.12,20.23-21,21.22,0,0-14.64,3-22.44-15C2814.91,766.78,2816.7,764,2819.17,764.29Z"/><path class="cls-24" d="M2771.39,739.82c0-14.55-10.73-26.34-24-26.34a22.17,22.17,0,0,0-11.86,3.47c2,17,5.44,33.79,10.87,49.17.33,0,.65,0,1,0C2760.66,766.17,2771.39,754.37,2771.39,739.82Z"/><ellipse class="cls-24" cx="2917.03" cy="742.5" rx="27.6" ry="30.35"/><path class="cls-25" d="M2790,824.48S2846,855,2914.51,817.13c0,0-38.41,47.66-120.51,36.19C2794,853.32,2791.21,829.14,2790,824.48Z"/><path class="cls-25" d="M2964.61,691.16V719a22.94,22.94,0,0,0,12.68-3.57,13.38,13.38,0,0,0,4.45-16.88C2979.43,693.94,2974.62,689.72,2964.61,691.16Z"/><path class="cls-26" d="M2826,597.9s64.81-7,88-13.38c0,0-1.06,18.9,0,31.3C2914,615.82,2885.69,593.37,2826,597.9Z"/><path class="cls-25" d="M2149.49,1193.91s-3.81,134.27-31.79,156.69c0,0-111.34-47.48-138.44-100.34,0,0,137.34,121.54,147.62,0,0,0,8.54-64.07,15.7-69.32Z"/><path class="cls-27" d="M2089,1143.79s-14.62,44,5.29,84"/><path class="cls-28" d="M3067.12,1213.46s51.7,112.44,1.56,185.9l-48.13,46S3071.7,1322.87,3067.12,1213.46Z"/><path class="cls-28" d="M2590.73,1467.1s36.72-35.81,57.2-109.72c0,0-11.22,132.94-53.51,159Z"/><path class="cls-28" d="M2149.49,1193.91s3,140.39-35.48,160.18c0,0,78.31,91.46,146.39,124.3,0,0-135.16-93.49-91.25-278.08Z"/><path class="cls-29" d="M2917.29,1193.91s-18.21-175.8-19.55-195.69,70-39.85,70-39.85L2965,941.31l-61.72,27.23-12.58-10.17-13.15,40.29s26.85,149.84,20,212.29h0s1.06,31.73-6.85,62.46a64.78,64.78,0,0,0,28-22l-1.47-57.48Z"/><path class="cls-29" d="M2833.77,1677.33a18.26,18.26,0,0,0,3.84.71Z"/><path class="cls-29" d="M2743,1166s7.76-150.44,80.67-197.48l-48.77-40.75s-31.23,115.46-42.53,215.62c0,0-40.81,284.44-10.4,513.2l111.84,20.72C2813,1671.66,2716.29,1620.81,2743,1166Z"/><path class="cls-30" d="M2897.58,1211c2.23-106.94-20-212.29-20-212.29-10.65-10.2-33.67-4.56-33.67-4.56l-6.3,17.17c49.59,25.42,21.37,150,6.9,202.43-6.07,22-22.91,39.71-44.87,46-1.12.32-2.26.62-3.4.88,0,0,8.26,27.27,94.49,12.78C2890.73,1273.41,2899,1240.06,2897.58,1211Z"/><path class="cls-30" d="M2855.88,930.21l34.85,28.16-13.15,40.29s-7.78-6.54-16.94-5.34c0,0,7.39-42.8-18.3-45.85Z"/><ellipse class="cls-31" cx="2596.11" cy="1904.23" rx="415.55" ry="112.23"/><path class="cls-32" d="M2935.55,1849s13-34.14-476.18-106.91l142,209.08,181-11.9Z"/><path class="cls-33" d="M2177.25,1609.63s-1.55,307.22,52.31,331.77,379.78,80.55,450.7,46.63c55.49-26.54,212.83-86.55,251.23-122.56,6.53-6.12,8.64-14.89,5.05-22.45-4.19-8.82-15.9-16.14-47.88-1.29-55.31,25.67-153.92,76.2-153.92,76.2s-59.48,37.07-61.68-94.86,13.69-275.88-16.58-287.9c-25.39-10.09-287.46-59-405.37-30.09-35.18,8.63-73.5,14.62-73.85,45.86C2177.25,1551.53,2177.24,1609,2177.25,1609.63Z"/><path class="cls-34" d="M2246,1585.37a74.76,74.76,0,0,1,61.41-71.35c67.28-12.17,188.85-21.39,347.65,20.35,0,0,20.84,1.16,18.78,110.32s-31.2,296.66,59.47,272.44l153.92-76.21s37.84-22.5,47.88,1.29c0,0-257.62,123.27-271.37,123.27-11.87,0-171.83,18.71-315.49-19.38a115.26,115.26,0,0,1-83.64-90.44C2253.88,1798,2241.94,1721.47,2246,1585.37Z"/><path class="cls-13" d="M2907.47,1615.78s-60.66,63.28-99.54,85.52-119.3,89.92-119.53,130.47,43.32-7.33,43.32-7.33,10.89-4.28-1.55,13.25-21,36.35-13.61,43.19c0,0,12.05,14.11,33.44-7.7,0,0,16.72-18.92,19.83-18.22s-15.17,24.21-17.5,30.41-2.72,16.88,7.39,20.31,19.05-.43,28.77-13.26,17.5-29.93,20.61-28.65-11.16,24.37-11.16,24.37-11,24.38,6.88,25.66,43.16-42.33,43.16-42.33,51.71-61.29,74.53-71.55,84-104.9,84-104.9Z"/><path class="cls-14" d="M3140.52,936.92a50.19,50.19,0,0,1,42.72,2.57c45.87,24.73,152.2,107.69,165.82,349.43,17.43,309.43-343.65,471-386,473.73,0,0-52-104.05-115.63-101.32,0,0,92.06-145.39,217.84-259,1.11-1,2.26-2,3.39-2.92,5.38-4.55,29.76-30.34,16.42-115.91C3085.1,1283.45,2989.26,997.4,3140.52,936.92Z"/><path class="cls-28" d="M3140.52,936.92s43.75-23.56,117.06,66.74c0,0,89.08,115.11,91.48,285.26,0,0,28.47,264.84-284.13,430.64,0,0-71.23,39.5-101.85,43.09,0,0-49.54-105.81-115.63-101.32l13.89-20.9s466.13-8.51,440.94-350.19-203.69-328.65-203.69-328.65Z"/><path class="cls-25" d="M2859.27,1662s51.89,1.13,102.07,97.3c0,0-21,28.11-38.83,40.59s-34.1,24.07-74.53,71.55c0,0-19.8,41.52-43.16,42.33,0,0,51.64-100.65,98.32-145.36a42.66,42.66,0,0,0,12.72-25.18c.84-6.3.39-13.17-3.16-19-9.49-15.65-62.92-53.92-62.92-53.92Z"/><ellipse class="cls-31" cx="3213.03" cy="2053.92" rx="127.26" ry="34.37"/><path class="cls-35" d="M3320,1901.14c.11,3.95.14,7.79.09,11.55a45.5,45.5,0,0,1-18.48,84.8c-1.81,3.68-3.69,7.16-5.64,10.47,1.48.12,3,.2,4.5.2a55.29,55.29,0,0,0,19.53-107Z"/><path class="cls-22" d="M3320.1,1912.69c-.47,35.73-8,63.45-18.48,84.8"/><path class="cls-35" d="M3088.88,1867.49h.26A.39.39,0,0,0,3088.88,1867.49Z"/><path class="cls-35" d="M3245.19,1952.87a55.3,55.3,0,0,1,74.82-51.73,323.23,323.23,0,0,0-2.78-33.65H3089.14c5.38,2.2-21.16,155.41,83.73,195.23l61.11.76s36.51-12.37,62-55.52A55.28,55.28,0,0,1,3245.19,1952.87Z"/><path class="cls-35" d="M3297.48,1997.69a45.51,45.51,0,1,1,22.62-85c.05-3.76,0-7.6-.09-11.55A55.28,55.28,0,1,0,3296,2008c1.95-3.31,3.83-6.79,5.64-10.47C3300.25,1997.61,3298.88,1997.69,3297.48,1997.69Z"/><path class="cls-35" d="M3252,1952.18a45.52,45.52,0,0,0,45.51,45.51c1.4,0,2.77-.08,4.14-.2,10.46-21.35,18-49.07,18.48-84.8a45.51,45.51,0,0,0-68.13,39.49Z"/><path class="cls-36" d="M3308.6,1879c5.55-3.54,8.63-7.42,8.63-11.49,0-16.62-51.12-30.09-114.18-30.09s-114.17,13.47-114.17,30.09c0,4.07,3.08,8,8.63,11.49,17.14-9.24,57.93-15.74,105.54-15.74S3291.46,1869.74,3308.6,1879Z"/><path class="cls-37" d="M3308.6,1879c-17.14-9.24-57.93-15.74-105.55-15.74s-88.4,6.5-105.54,15.74c17.14,10.92,57.93,18.6,105.54,18.6S3291.46,1889.9,3308.6,1879Z"/><path class="cls-1" d="M3190.25,1818.15s-58.93-91.82,12.8-150.12,80-72.36,74.68-125.34c0,0,37.42,91.82-25.76,161.78C3252,1704.47,3184.42,1755.48,3190.25,1818.15Z"/><path class="cls-1" d="M3245.19,1761.87s19.77-35.54,55.29-54.49,31.15-59.15,31.15-59.15,15.25,64.57-31.15,82.47S3265.15,1746.4,3245.19,1761.87Z"/><path class="cls-38" d="M2357,745.94l-7.56-60a55.67,55.67,0,0,0-43.24-47.41L1697.58,504.25c-37.59-8.3-72.06,23.15-67.25,61.34l8.72,69.14a68.65,68.65,0,0,0,53.33,58.46L2274,821.58a69.31,69.31,0,0,0,15,1.65c6.4,6,10.66,53.17,19.73,82.22,0,0,50-62.88,40.81-118.8A68,68,0,0,0,2357,745.94Z"/><path class="cls-39" d="M2321.93,755.33l-7.56-60A55.68,55.68,0,0,0,2271.12,648L1662.55,513.65A55.68,55.68,0,0,0,1595.3,575l8.72,69.14a68.67,68.67,0,0,0,53.32,58.46L2239,831a70,70,0,0,0,15,1.66c6.4,6,45.69,43.77,54.76,72.82,0,0,15-53.48,5.77-109.41A68,68,0,0,0,2321.93,755.33Z"/><circle class="cls-38" cx="1853.46" cy="655.39" r="28.4" transform="translate(79.43 1502.55) rotate(-45)"/><circle class="cls-38" cx="1965.3" cy="678.3" r="28.4" transform="translate(-109.97 803.72) rotate(-22.5)"/><circle class="cls-38" cx="2063.87" cy="702.44" r="28.4" transform="translate(906.04 2549.71) rotate(-76.72)"/><circle class="cls-40" cx="3349.73" cy="698.23" r="209.95"/><circle class="cls-41" cx="3320.14" cy="684.19" r="209.95" transform="translate(488.65 2548.09) rotate(-45)"/><circle class="cls-42" cx="3320.95" cy="684.82" r="178.38" transform="translate(488.45 2548.85) rotate(-45)"/><polygon class="cls-43" points="3443.39 646.5 3365.1 646.5 3365.1 564.59 3266.2 564.59 3266.2 646.5 3195.55 646.5 3195.55 745.4 3266.2 745.4 3266.2 812.42 3365.1 812.42 3365.1 745.4 3443.39 745.4 3443.39 646.5"/><circle class="cls-40" cx="3661.63" cy="1568.12" r="209.95" transform="translate(-36.36 3048.45) rotate(-45)"/><circle class="cls-44" cx="3641.42" cy="1554.07" r="209.95" transform="translate(-32.35 3030.05) rotate(-45)"/><circle class="cls-45" cx="3642.23" cy="1554.69" r="178.38" transform="translate(-32.55 3030.81) rotate(-45)"/><path class="cls-46" d="M3687.49,1438.48a50.42,50.42,0,0,0-69.38-15.52h0a50.42,50.42,0,0,0-15.51,69.38l40.94,64.53,84.89-53.86Z"/><path class="cls-44" d="M3753.86,1636.92h0a50.43,50.43,0,0,0,15.51-69.38L3728.43,1503l-84.89,53.86,40.94,64.53A50.42,50.42,0,0,0,3753.86,1636.92Z"/><path class="cls-44" d="M3582.55,1498.18A50.41,50.41,0,0,0,3513,1513h0a50.43,50.43,0,0,0,14.82,69.53l64.12,41.58,54.71-84.35Z"/><path class="cls-46" d="M3725.61,1650.87h0a50.42,50.42,0,0,0-14.82-69.52l-64.12-41.59L3592,1624.11l64.12,41.59A50.42,50.42,0,0,0,3725.61,1650.87Z"/><circle class="cls-47" cx="3013.5" cy="2444.31" r="209.95" transform="translate(-845.76 2846.79) rotate(-45)"/><circle class="cls-48" cx="3003.08" cy="2427.22" r="209.95" transform="translate(-836.73 2834.41) rotate(-45)"/><circle class="cls-49" cx="3003.89" cy="2427.85" r="178.38" transform="translate(-836.93 2835.17) rotate(-45)"/><path class="cls-48" d="M3104.11,2360.13c-46.94-52.71-91.68-9.1-101,1.22-9.35-10.32-54.09-53.93-101-1.22-48,53.92,76.34,170.12,99.26,190.73V2554l1.78-1.57c1.15,1,1.78,1.57,1.78,1.57v-3.16C3027.78,2530.25,3152.13,2414.05,3104.11,2360.13Z"/><polyline class="cls-50" points="2912.97 2450.13 2936.7 2398.74 2966.32 2493.75 2982.36 2366.66 2992.23 2450.13 3011.97 2450.13 3020.61 2493.75 3037.88 2382.7 3049.18 2444.31 3096.7 2444.31"/><path class="cls-51" d="M1500.2,2490.14s-213.53-547.09-838.06-587.74C662.14,1902.4,841.47,2376.12,1500.2,2490.14Z"/><path class="cls-52" d="M1536.45,2455.53s40.3-675.22-661.74-971.42C874.71,1484.11,833.37,2066.52,1536.45,2455.53Z"/><path class="cls-53" d="M662.14,1902.4s194.2,505.25,838.06,587.74C1500.2,2490.14,794.1,2007.77,662.14,1902.4Z"/><path class="cls-54" d="M1506.29,2457.15S1009.94,2081.52,480.56,2351.8C480.56,2351.8,905.84,2679.77,1506.29,2457.15Z"/><path class="cls-55" d="M874.71,1484.11s-46.83,581,661.74,971.42C1536.45,2455.53,1068.74,1721.68,874.71,1484.11Z"/><path class="cls-56" d="M480.56,2351.8s426.17,325.35,1025.73,105.35Z"/><path class="cls-13" d="M1970.28,1732.17s33.71,37.95,46.23,64.63,22.48,14.36,22.48,14.36,6.74-4.45,0-19.15,8-1.71,8-1.71,31.47,33.51,44.63,27-14.77-28.73-14.77-28.73-1.93-4.79,3.85-.68,32.11,30.09,42.38,24.28c0,0,14.45-8.55-8-26s-17.65-18.81-17.65-18.81,29.53,21.88,34.35,17.44c0,0,7.88-.74,7.1-8.32a10.48,10.48,0,0,0-3.4-6.57l-15.58-14.18s-2.89-4.1,2.57-2,13.16,12,18,7.86c0,0,14.76-8.89-12.2-27s-101.13-58.82-118.47-58.13Z"/><path class="cls-57" d="M1969.32,1759.42s9.92-2,21.78-14.07,34.08-51.44,34.08-51.44l15.77-3.73s3.12-11.23,2.2-16.61l-44.8,15.36-40.48,31.94,3,29.46Z"/><path class="cls-58" d="M1767.26,1246.45s82.57,22.26,123.37,215.15c0,0,20.4,77.37,64.12,116.58s88.4,95.39,88.4,95.39-67,43.45-73.83,85.85c0,0-141-75.34-200.91-196.9-.68-1.39-1.38-2.76-2.12-4.12C1754.93,1537.33,1649.43,1333.83,1767.26,1246.45Z"/><path class="cls-59" d="M1777.31,1323.93s23.36,207,13.12,276.38c0,0,108,132.71,178.89,159.11,0,0,4-41.11,73.83-85.85l-9.75-11.89s-96.87,46.15-178.7-48.43c0,0-43.28-56.34-55.55-214.93a184.66,184.66,0,0,0-21.68-74.09Z"/><path class="cls-60" d="M1718.64,2480.3s-36.44,79.16-12.67,94.51,135.7,30.16,174.41-24.12c0,0,13.45-47.7-70.32-70.39Z"/><path class="cls-61" d="M1770.1,2491s-4.66,72.86,51.94,93.75c0,0-58.9,16.63-116.07-9.93,0,0-24-12.94,12.67-94.51C1718.64,2480.3,1730.14,2501.67,1770.1,2491Z"/><path class="cls-60" d="M1466.14,2528.45s-52.4,76.32-24.63,89.16c40.2,18.59,179,30.48,200.25-27.73,0,0,12.72-40-82.24-61.43Z"/><path class="cls-61" d="M1506,2550.6s7,77.27,92.39,69.9c0,0,27.15-2.64,40.87-25.65s-31.22-60.18-66-66.4C1573.27,2528.45,1564.72,2564.65,1506,2550.6Z"/><path class="cls-62" d="M1743.52,1763.93s175.37,270.94,62.8,716.37c0,0-66.3,28.31-87.68,0,0,0-12.48-265.89-92.56-351.89l-13.49-376.29Z"/><path class="cls-63" d="M1409,1767.14s-74.46,221.58,18.48,469.56c0,0,49.65,174,26.55,307.2,0,0,63,54.28,118,0,0,0,79.82-286.22,84.66-429.33,0,0,19.44-283,8.69-363.58Z"/><path class="cls-64" d="M1409,1767.14s164.91,46.24,264.15,31.7c0,0-5.44,226.14-21.3,363s-78,385.71-78,385.71-20.52,31.82-75.91,18.16c0,0,127.94-278.65,73.23-637.65-7.89-51.77-35.43-93.76-72.12-109.52C1467.07,1804.82,1432.07,1790.43,1409,1767.14Z"/><path class="cls-65" d="M1673.15,1798.84s-6.76,270.66-21.66,369.3c0,0,50.48,88.6,67.15,312.16,0,0,15.25,21.37,51.46,10.69,0,0,56.22-444.33-70.37-698Z"/><path class="cls-66" d="M1488.47,1222.07s-90,10.82-112.06,34.56-23,114.88-23,114.88,1,329.62,15.54,411.22c0,0,235.08,83.73,408-9.53,0,0,36.91-209.85-9.72-526.75,0,0-51.48-27.56-81.6-24.38S1488.47,1222.07,1488.47,1222.07Z"/><path class="cls-67" d="M1460.3,920.4c-6.66,5-18.36,18.78-18.86,54.05-.11,8.34-3.18,16.42-8.76,21.94a25.59,25.59,0,0,1-9.06,5.81c-13.94,5.2-20,48.48.49,67.59,4.12,3.84,9.89,7.19,10.91,13.09,2.81,16.09,28.35,80.5,64.91,68.13,32.49-11,52.53-13.33,52.53-13.33l65.42-166.58s21.65-64.68-28.85-80.27a38.36,38.36,0,0,0-16.61-1.42,49.35,49.35,0,0,0-21.94,8.4s-14.86,4.44-22.79,1.11c-7.37-3.1-37.37-11.85-58.23,12.62A58,58,0,0,1,1460.3,920.4Z"/><path class="cls-13" d="M1516.67,1127.69s9,77.74-12.77,84.4-27.87,10-27.87,10,34.81,62.19,105.18,52.19,95.15-52.19,95.15-52.19-34.69,2.19-48.57-20.56-15.86-68.29-15.86-68.29Z"/><path class="cls-13" d="M1629.56,1056.85a32.83,32.83,0,0,1,11.82-25.7,324.57,324.57,0,0,0-23.5-60.05c-29.28-18.51-44.92,2.5-50.77,13.77a38.53,38.53,0,0,0-3.42,9.75c-5.8,27.17-23.72,35.48-38,38.67-14.86,3.34-14.86,17.77-14.86,17.77-6.94,30-24.78,31.1-24.78,31.1s-29.74,13.32-18.83,40,39.64,11.1,39.64,11.1c58.48,61.08,119.93,12.22,119.93,12.22,15.88-15.57,21.94-36.51,22.5-58.47C1637.86,1083,1629.56,1071,1629.56,1056.85Z"/><path class="cls-68" d="M2029.44,1682.71s-36.78,16.87-53.51,58.35c0,0,14.53,10.74,29.79,38.27,0,0-34.35-42.87,41.55-89.82Z"/><ellipse class="cls-69" cx="1546.08" cy="1114.92" rx="28.19" ry="31.58"/><path class="cls-69" d="M1641.38,1031.15a32.83,32.83,0,0,0-11.82,25.7c0,14.15,8.3,26.12,19.74,30.14C1649.78,1068.22,1646.24,1048.7,1641.38,1031.15Z"/><path class="cls-70" d="M1567.11,984.87s.35,36-21.38,46.28-24.32,10.57-31.56,21.23c0,0-5.57,18.77-16.84,24.27a57.7,57.7,0,0,0,13.51-25.59s.22-11,10.66-16.37,31.21-5.54,40.39-33.9C1561.89,1000.79,1563.67,986.59,1567.11,984.87Z"/><path class="cls-67" d="M1600.79,1004.3s10.74-14.17,25.45-12.36a3.84,3.84,0,0,1,3.23,3.1,3.54,3.54,0,0,1-.36,2.54,3.43,3.43,0,0,1-2.7,1.76c-3.4.3-13.75,1.83-20.49,9.37-2.62,2.93-6.88-.54-5.21-4.24A1.3,1.3,0,0,0,1600.79,1004.3Z"/><path class="cls-67" d="M1520.53,1038.8s12.75-15.87,29.58-13.23a4.46,4.46,0,0,1,3.62,3.68,4.17,4.17,0,0,1-.49,2.9,3.92,3.92,0,0,1-3.15,1.92c-3.92.22-15.84,1.58-23.8,10-3.1,3.26-7.89-.89-5.85-5.07Z"/><path class="cls-67" d="M1536.06,1053s8.14-10.71,18.87-8.63c.32.06.65.11,1,.14.61.06,1.53.36-.85,2-3.09,2-7.72-3.25-17.2,8.48a1.29,1.29,0,0,1-2.2-.21A1.5,1.5,0,0,1,1536.06,1053Z"/><path class="cls-67" d="M1612.47,1017.49s8.15-10.71,18.87-8.63c.33.06.66.11,1,.14.61.06,1.54.36-.84,2-3.09,2-7.73-3.25-17.21,8.48a1.28,1.28,0,0,1-2.19-.21A1.48,1.48,0,0,1,1612.47,1017.49Z"/><ellipse class="cls-67" cx="1553.81" cy="1061.44" rx="8.08" ry="9.05"/><ellipse class="cls-67" cx="1629.56" cy="1023.33" rx="8.08" ry="9.05"/><path class="cls-22" d="M1591.85,1018.8s14.91,23.1,20.2,38.94c2,5.92-.18,12.58-5,15.81l-4.64,3.1"/><path class="cls-71" d="M1591.49,1098.24a37.24,37.24,0,0,0,22,4.4c1.92-.24,3.17,2.15,2,3.89-3,4.56-8.49,10.38-16.29,8.09,0,0-9.21-1.49-10.54-14.11C1588.51,1098.78,1590.09,1097.48,1591.49,1098.24Z"/><path class="cls-13" d="M1636.18,1585s101.24-50.8,122-93.32c4.54-9.27-4.28-19.66-11.32-13.31a66.86,66.86,0,0,0-6.8,7.26s-14.65,15.19-16.9,12.15c0,0-3.86-1,9.35-12.15s24.8-24.43,26.41-33.16-10.78-13.79-21.83-2.64-28,25.33-29.92,24.65,3-4.73,3-4.73,36.65-30.73,37.46-42.89-16.37-8.44-26.65,0-20.79,19.81-30,25.61c0,0-3.77-1.63,2.42-7.37s27.14-21.61,29.74-27.69-4.94-14.19-16-7.43-28.43,23.64-28,23.3c0,0-3-.68,2.35-6.75s11.06-14.57,9.44-19.11-5.66-11.29-15.63-3.52c-6.68,5.2-15.76,19.77-21.05,28.84-4,6.87-3.65,7.26-8.36,13.38-7.88,10.22-15,43.29-31.54,51.29Z"/><path class="cls-68" d="M1628,1484.2s.26,49.83,29.29,91.6c0,0,32.73-22,41.44-27.61,0,0-47.69,22.21-60.42-36.58l-6.31-35.7Z"/><path class="cls-66" d="M1410.36,1643.94c29.13,6.65,50,29.69,49,52.86,90.72-27.54,198.7-120.67,198.7-120.67s-32.07-44.89-29.3-97.88c0,0-75.69,5.67-132.91,31.11-47.69,21.2-40.64-18.06-35.12-38.57,1.57-5.84,8.27-32.31,9-38.37,4.86-39.39,14.83-169.94-63-189.53a24.17,24.17,0,0,0-17.38,2.15c-20.83,11.07-73,50.48-85.51,171-11,106.72,1.7,206.6,43.4,256C1353.59,1649.72,1380.87,1637.21,1410.36,1643.94Z"/><path class="cls-72" d="M1415.54,1704.37c13.71-.15,28.52-2.93,43.81-7.57,1.05-23.17-19.86-46.21-49-52.86-29.49-6.73-56.77,5.78-63.09,28.15C1364.79,1692.84,1387.42,1704.69,1415.54,1704.37Z"/><path class="cls-73" d="M1628.75,1478.25s-81.29.78-132.91,31.11c0,0-55.47,25.69-35.12-38.57,0,0,35.7-129.15-4.49-184.44,0,0,35.67,13.16,53,172.45,0,0,.31,15.11,26.16,12.53s97.68,0,97.68,0Z"/><path class="cls-70" d="M1613.87,1153.41s-25.6,14.38-53.34,9.72a83.39,83.39,0,0,0,55.42,3.18Z"/><path class="cls-70" d="M1490.37,1098l9.83,19.88s-10.86,7.54-16,0C1484.17,1117.9,1477.44,1106,1490.37,1098Z"/><path class="cls-74" d="M3317.23,1867.49s28.54,142.22-83.25,196l-61.11-.76s56.6-14.6,74.23-75.58a41.63,41.63,0,0,0-34.73-52.72c-41.32-5.35-102.78-17.85-122.58-45.81l-.91-21.12s-2.78,26.53,114.17,30.09C3203.05,1897.58,3309.43,1898.53,3317.23,1867.49Z"/><path class="cls-75" d="M3152,1840.57s-64,5.8-63.12,26.92c0,0-1.71,30.37,114.17,30.09C3203.05,1897.58,3104.15,1886.41,3152,1840.57Z"/><polygon class="cls-76" points="4054.09 1669.18 3777.15 1669.18 3856.88 1092.26 3978.99 1092.26 4054.09 1669.18"/><rect class="cls-77" x="3910.29" y="618.3" width="7.65" height="355.27"/><path class="cls-78" d="M3928.38,973.56h-14.84a6.82,6.82,0,0,1,6.79,6.79v8.2a6.81,6.81,0,0,1-6.79,6.78h14.84a6.8,6.8,0,0,0,6.78-6.78v-8.2A6.81,6.81,0,0,0,3928.38,973.56Z"/><rect class="cls-79" x="3896.73" y="973.56" width="23.6" height="21.77" rx="6.78"/><path class="cls-80" d="M3957.78,1101.26a60.81,60.81,0,0,1,20,3.36A61.06,61.06,0,1,0,3898,1150,61.08,61.08,0,0,1,3957.78,1101.26Z"/><path class="cls-81" d="M3977.74,1104.62A61,61,0,0,0,3898,1150a61.08,61.08,0,0,0,79.76-45.34Z"/><path class="cls-82" d="M3917.94,996.39a99.24,99.24,0,0,0-24.36,3,99.38,99.38,0,0,1,75,96.34h48.72A99.37,99.37,0,0,0,3917.94,996.39Z"/><path class="cls-79" d="M3893.58,999.41a99.38,99.38,0,0,0-75,96.34h150A99.38,99.38,0,0,0,3893.58,999.41Z"/></g></svg>