<svg xmlns="http://www.w3.org/2000/svg" viewBox="0 0 4680 3120"><defs><style>.cls-1{fill:#fff;}.cls-2{fill:#e9ebfd;}.cls-3{fill:#f1f3ff;}.cls-4{fill:#e2e5fc;}.cls-5{fill:#bec3f8;}.cls-6{fill:#9098e6;}.cls-7{fill:#a1abf4;}.cls-8{fill:#dcdfff;}.cls-9{fill:#a8b0f3;}.cls-10,.cls-11,.cls-29,.cls-32{fill:none;}.cls-10{stroke:#54b29c;}.cls-10,.cls-11,.cls-29{stroke-miterlimit:10;}.cls-11{stroke:#cfd4ff;stroke-linecap:round;stroke-width:15px;}.cls-12{fill:#fcb9b9;}.cls-13{fill:#1639a8;}.cls-14{fill:#cc1d42;}.cls-15{fill:#b2193d;}.cls-16{fill:#231f20;opacity:0.3;}.cls-17{fill:#f1327e;}.cls-18{fill:#0f3287;}.cls-19{fill:#4a5bf1;}.cls-20{fill:#ffd2d2;}.cls-21{fill:#2342c4;}.cls-22{fill:#172a99;}.cls-23{fill:#ff5095;}.cls-24{fill:#fc86b4;}.cls-25{opacity:0.61;}.cls-26{fill:#272b5d;}.cls-27{opacity:0.58;}.cls-28{fill:#f87787;}.cls-29{stroke:#ff4f5b;stroke-width:2px;}.cls-30{opacity:0.65;}.cls-31{opacity:0.48;}.cls-33{fill:#efacac;}.cls-34{fill:#444;}.cls-35{opacity:0.8;}</style></defs><title>06</title><g id="_06" data-name="06"><rect id="_06-2" data-name="06" class="cls-1" width="4680" height="3120"/><ellipse class="cls-2" cx="2046.63" cy="2585.56" rx="511.05" ry="74.44"/><path class="cls-3" d="M3824.94,1049.56,3823,2278.17v0l-248.07-.39-44-.07-51.57-.08-50.3-.08-79.09-.12-109.06-.18-36.69-.06-59.79-.09-49.36-.08-84.38-.13-12.12,0-111.79-.18-21.94,0v-2.28l-91-.14-75.27-.12v2.27l-105.17-.16-40.71-.07-69-.11-25.13,0-18.06,0-22.88,0-18.34,0-18.45,0-30.82-.05h-.3l-41.83-.06-34.83-.06-37-.07-32.17,0-143.64-.23v-1.07l-178.69-.28v1.06L1770.3,2275l-34.62,0-63.59-.1-47.68-.08v-1.08l-108.72-.16-18.32,0-91.57-.14v1.07l-84.56-.14-133.89-.2-15.45,0h-6.07l-60.3-.09-9.16,0h-6.52l-9.43,0-49.92-.07-183.36-.29v0l38.94-149.26,1.48-5.68,7-26.8,3.53-13.52s0,0,0,0l28.42-109h0v0l2.49-9.53,19.38-74.29,5.49-21.06,3.59-13.76,26-99.73,3.71-14.21L1034,1557.2l9.82-37.63L1056,1473l5.13-19.64,1.34-844.71L1437.23,460l-1.57,991.1,0,31.08-.06,32.52,28.29,0,28.37,0,0-33.37,0-31,1.39-878,135.29.21-.59,374.67,144,.22-.43,270.63,75.15.12.84-533.12h2.46c.16-95.59,64.25-173,143.17-172.84S2136.37,590,2136.22,685.58h2.46l-.44,280.22-.17,108.88,20.33,0,47.36.07.07-44.62.11-75.15.16-99.84,145.88.23-.12,76.32-.13,75.17-.1,68.13,15,0h2.67l50.2.07,1.43,5.47,18.09,69.18,13.51,51.62,3.08,11.78,5.58,21.34.81,3.1,6.88,26.3,1.56,6,3.21,12.27,7.7,29.4,25.78,98.59,4.83,18.45,6.66,25.47,2.77,10.59h0l1.23,4.69,2.8,10.71,6,22.89,12.94,49.45,6.67,25.47,4.12,15.8,6.67,25.47.09.35v-.34l.1-25.46.06-14.22v-1.58l.09-23.79v-1.68l.07-17.3.1-25.53.22-55.45,0-6.56.07-18.9.06-15.79.11-25.46.05-15.8.11-25.45.13-34.31.08-22.73,0-2.8.08-19v-3.7l.09-21.83.14-35.21.09-25.47.21-51.8,0-5.24.1-25.46.11-30.28,0-10,0-4.52.08-20,.09-23.44.12-30.44,0-7,.23-60,.06-15.15,0-12,.06-12.91.06-15.31.1-26.34a153.28,153.28,0,0,1,1.42-20.72c8.26-60.55,51.75-106.7,104.06-106.62,58.15.1,105.21,57.25,105.1,127.68l.06,20.57,0,12,.25,75.1.13,37.36.07,23.41.08,23.62.21,66.45.37,111.08,41.28.07,150.36.24,31.84,0,.16-97.58,85.39.13h6.74L3093,813.5l.55-350.87,150.22.24-.62,391.64,131.35.22.22-138.52h1.1c.07-42.65,28.65-77.19,63.87-77.14s63.71,34.68,63.65,77.35h1.09l-1.19,756.83-.06,37.06,0,8.45,0,24.65,0,29.39,0,18.25,0,29.38,0,18.24,0,29.39,0,18.23,0,29.4,0,18.24,0,29.39,0,18.24-.05,29.4-.12,75.91h5l23.9,0,0-10,.1-65.86,0-29.4,0-18.25.05-29.38,0-18.24,0-29.4,0-18.24,0-29.39,0-18.23.05-29.39,0-18.24,0-29.4,0-24.65,0-8.45.06-37.06.67-424.19,65.85.1.35-220.42,156.79.24-.35,220.43Z"/><rect class="cls-4" x="3528.67" y="1402.68" width="45.51" height="186.79" transform="translate(2049.71 5045.12) rotate(-89.91)"/><rect class="cls-5" x="3213.94" y="1705.56" width="762.83" height="372.63" transform="translate(1697.79 5484.22) rotate(-89.91)"/><path class="cls-5" d="M3782.27,1510.75l-40.91-.06c-29.69,181.53-107,619.17-332.7,618.81l-.22,143.49,372.62.59Z"/><rect class="cls-6" x="3481.63" y="1471.34" width="29.39" height="173.52" transform="translate(1932.69 5051.95) rotate(-89.91)"/><rect class="cls-6" x="3607.74" y="1543.6" width="29.39" height="29.39" transform="translate(2058.4 5178.26) rotate(-89.91)"/><rect class="cls-6" x="3706.82" y="1497.77" width="29.39" height="121.36" transform="translate(2157.16 5277.5) rotate(-89.91)"/><rect class="cls-6" x="3481.56" y="1518.97" width="29.39" height="173.52" transform="translate(1884.98 5099.43) rotate(-89.91)"/><rect class="cls-6" x="3607.67" y="1591.23" width="29.39" height="29.39" transform="translate(2010.69 5225.74) rotate(-89.91)"/><rect class="cls-6" x="3643.22" y="1514.02" width="29.39" height="183.94" transform="translate(2046.13 5261.34) rotate(-89.91)"/><rect class="cls-6" x="3519.41" y="1604.58" width="29.39" height="97.66" transform="translate(1875.09 5184.9) rotate(-89.91)"/><rect class="cls-6" x="3607.59" y="1638.86" width="29.39" height="29.39" transform="translate(1962.99 5273.22) rotate(-89.91)"/><rect class="cls-6" x="3639.82" y="1615.21" width="29.39" height="76.8" transform="translate(1995.12 5305.5) rotate(-89.91)"/><rect class="cls-6" x="3519.33" y="1652.21" width="29.4" height="97.66" transform="translate(1827.39 5232.37) rotate(-89.91)"/><rect class="cls-6" x="3573.38" y="1652.3" width="29.4" height="97.66" transform="translate(1881.26 5286.5) rotate(-89.91)"/><rect class="cls-6" x="3682.89" y="1664.33" width="29.4" height="73.96" transform="translate(1990.43 5396.19) rotate(-89.91)"/><rect class="cls-6" x="3496.5" y="1677.05" width="29.39" height="143.18" transform="translate(1757 5257.06) rotate(-89.91)"/><rect class="cls-6" x="3638.73" y="1702.88" width="29.39" height="91.97" transform="translate(1898.77 5399.51) rotate(-89.91)"/><rect class="cls-6" x="3682.82" y="1711.96" width="29.39" height="73.96" transform="translate(1942.72 5443.67) rotate(-89.91)"/><rect class="cls-6" x="3513.73" y="1742.01" width="29.4" height="108.57" transform="translate(1726.54 5321.87) rotate(-89.91)"/><rect class="cls-6" x="3601.19" y="1741.44" width="29.4" height="109.99" transform="translate(1813.72 5409.47) rotate(-89.91)"/><rect class="cls-6" x="3743.42" y="1772.96" width="29.4" height="47.41" transform="matrix(0, -1, 1, 0, 1955.5, 5551.93)"/><rect class="cls-6" x="3413.86" y="1824.33" width="29.4" height="38.88" transform="translate(1579.35 5269.39) rotate(-89.91)"/><rect class="cls-6" x="3586.42" y="1808.48" width="29.4" height="71.11" transform="translate(1751.38 5442.23) rotate(-89.91)"/><rect class="cls-6" x="3727.1" y="1804.32" width="29.4" height="79.88" transform="translate(1891.61 5583.14) rotate(-89.91)"/><rect class="cls-6" x="3593.7" y="1790.94" width="29.39" height="201.48" transform="translate(1710.99 5497.07) rotate(-89.91)"/><rect class="cls-6" x="3607.22" y="1877.01" width="29.39" height="29.39" transform="translate(1724.47 5510.61) rotate(-89.91)"/><rect class="cls-6" x="3709.61" y="1866.74" width="29.39" height="50.25" transform="translate(1826.53 5613.16) rotate(-89.91)"/><rect class="cls-6" x="3502.72" y="1874.1" width="29.4" height="130.14" transform="translate(1572.67 5453.5) rotate(-89.91)"/><rect class="cls-6" x="3607.14" y="1924.64" width="29.4" height="29.39" transform="translate(1676.76 5558.09) rotate(-89.91)"/><rect class="cls-6" x="3687.01" y="1859.58" width="29.4" height="159.77" transform="translate(1756.38 5638.09) rotate(-89.91)"/><rect class="cls-6" x="3480.95" y="1900" width="29.4" height="173.52" transform="translate(1503.35 5479.25) rotate(-89.91)"/><rect class="cls-6" x="3578.85" y="1944.01" width="29.4" height="85.82" transform="translate(1600.94 5577.31) rotate(-89.91)"/><rect class="cls-6" x="3694.29" y="1938.27" width="29.4" height="97.66" transform="translate(1716.01 5692.93) rotate(-89.91)"/><rect class="cls-6" x="3469.98" y="1980.33" width="29.39" height="108.09" transform="translate(1444.77 5515.81) rotate(-89.91)"/><rect class="cls-6" x="3624.05" y="2002.86" width="29.39" height="63.52" transform="translate(1598.36 5670.13) rotate(-89.91)"/><rect class="cls-6" x="3465.03" y="2054.38" width="29.41" height="55.23" transform="translate(1392.23 5558.42) rotate(-89.91)"/><rect class="cls-6" x="3606.9" y="2067.52" width="29.41" height="29.39" transform="translate(1533.65 5700.52) rotate(-89.91)"/><rect class="cls-6" x="3725.42" y="2041.16" width="29.41" height="82.49" transform="translate(1651.8 5819.22) rotate(-89.91)"/><rect class="cls-6" x="3513.2" y="2075.42" width="29.39" height="108.57" transform="translate(1392.6 5654.22) rotate(-89.91)"/><rect class="cls-6" x="3565.12" y="2073.37" width="29.39" height="112.83" transform="translate(1444.35 5706.22) rotate(-89.91)"/><rect class="cls-6" x="3440.82" y="2130.28" width="29.4" height="93.87" transform="translate(1272.84 5629.27) rotate(-89.91)"/><rect class="cls-6" x="3655.59" y="2114.03" width="29.4" height="127.05" transform="translate(1486.92 5844.38) rotate(-89.91)"/><rect class="cls-6" x="3719.11" y="2130.24" width="29.4" height="94.82" transform="translate(1550.24 5908) rotate(-89.91)"/><rect class="cls-6" x="3571.47" y="2090.76" width="29.41" height="268.57" transform="translate(1355.45 5807.69) rotate(-89.91)"/><rect class="cls-4" x="2779.52" y="1386.83" width="45.51" height="207.65" transform="translate(1307.17 4290.56) rotate(-89.91)"/><path class="cls-1" d="M2653.83,1703.9a58.34,58.34,0,0,1-21.22-11c-170.69-138.6-229.64-283.7-249-381-9.46-47.62-7.4-93.31,6.55-143.83l106.45-385.6A58.23,58.23,0,0,1,2586,750.21a284.15,284.15,0,0,0,87.23,40.52c101.94,28.14,199.48-.77,200.46-1.06a58.48,58.48,0,0,1,60.51,16.8c.56.62,69.46,75.48,171.38,103.61a284,284,0,0,0,95.67,10,58.22,58.22,0,0,1,60.21,73.6l-106.45,385.6c-13.94,50.53-35.61,90.81-68.12,126.81-66.6,73.6-191.64,167.91-409.27,199.32A58.07,58.07,0,0,1,2653.83,1703.9Z"/><path class="cls-5" d="M2652,1718.25c-.67-.16-1.35-.34-2-.52a72.33,72.33,0,0,1-26.45-13.65c-174-141.32-234.2-289.73-254.05-389.35-9.92-49.92-7.76-97.72,6.79-150.45l106.45-385.6a72.59,72.59,0,0,1,111.46-40.26,269.63,269.63,0,0,0,82.86,38.49c97,26.79,191.61-.71,192.55-1a73,73,0,0,1,75.28,21c.6.65,67.3,72.54,164.52,99.38a270.12,270.12,0,0,0,90.86,9.48,72.56,72.56,0,0,1,75,91.73l-106.45,385.6c-14.56,52.72-37.21,94.86-71.31,132.6-68.17,75.35-196,171.88-417.86,203.91A72.17,72.17,0,0,1,2652,1718.25Zm-88.83-962.87a43.84,43.84,0,0,0-52.8,30.93L2404,1171.92c-13.32,48.25-15.33,91.85-6.32,137.21,18.93,95,76.62,236.75,244,372.68a43.76,43.76,0,0,0,34,9.38c213.4-30.81,335.68-122.91,400.68-194.76,31-34.29,51.62-72.74,64.94-121l106.44-385.61a43.86,43.86,0,0,0-45.41-55.47,298.46,298.46,0,0,1-100.46-10.45C2996.35,894.8,2924.25,816.82,2923.56,816a44.21,44.21,0,0,0-45.64-12.66c-4.25,1.27-103.36,30.22-208.47,1.18A298.47,298.47,0,0,1,2577.84,762,44.13,44.13,0,0,0,2563.21,755.38Z"/><path class="cls-7" d="M3739.75,1070.16l-603.06,226.75-241.85,90.93L2764.24,1437a22.63,22.63,0,0,1-27.88-10.44l-231.27-429a22.64,22.64,0,0,1,8.4-30.21l161.37-95.5A22.62,22.62,0,0,1,2708.37,886l76.78,317.83a22.62,22.62,0,0,0,36.23,12.27l549.35-445.22,7.69-6.23a22.61,22.61,0,0,1,28.23-.21l122.59,96.44,216.54,170.33A22.63,22.63,0,0,1,3739.75,1070.16Z"/><rect class="cls-5" x="2469.77" y="1679.32" width="762.83" height="414.27" transform="translate(960.21 4734.65) rotate(-89.91)"/><path class="cls-5" d="M3058.92,1505.37l-45.48-.07c-33,181.52-118.83,619.15-369.77,618.76l-.22,143.48,414.27.66Z"/><rect class="cls-6" x="2726.34" y="1456.21" width="29.39" height="192.9" transform="translate(1184.02 4291.23) rotate(-89.91)"/><rect class="cls-6" x="2866.54" y="1536.55" width="29.39" height="32.68" transform="translate(1323.78 4431.66) rotate(-89.91)"/><rect class="cls-6" x="2976.69" y="1485.6" width="29.39" height="134.92" transform="translate(1433.58 4541.98) rotate(-89.91)"/><rect class="cls-6" x="2726.26" y="1503.84" width="29.39" height="192.9" transform="translate(1136.32 4338.71) rotate(-89.91)"/><rect class="cls-6" x="2866.47" y="1584.18" width="29.39" height="32.68" transform="translate(1276.08 4479.14) rotate(-89.91)"/><rect class="cls-6" x="2905.99" y="1498.33" width="29.39" height="204.49" transform="translate(1315.47 4518.72) rotate(-89.91)"/><rect class="cls-6" x="2768.35" y="1593.7" width="29.4" height="108.57" transform="translate(1130.65 4428.42) rotate(-89.91)"/><rect class="cls-6" x="2866.39" y="1631.81" width="29.4" height="32.68" transform="translate(1228.37 4526.62) rotate(-89.91)"/><rect class="cls-6" x="2902.22" y="1605.52" width="29.4" height="85.38" transform="translate(1264.09 4562.5) rotate(-89.91)"/><rect class="cls-6" x="2768.27" y="1641.34" width="29.4" height="108.57" transform="translate(1082.94 4475.9) rotate(-89.91)"/><rect class="cls-6" x="2828.36" y="1641.43" width="29.4" height="108.58" transform="translate(1142.84 4536.09) rotate(-89.91)"/><rect class="cls-6" x="2950.11" y="1654.8" width="29.4" height="82.22" transform="translate(1264.2 4658.02) rotate(-89.91)"/><rect class="cls-6" x="2742.9" y="1663.63" width="29.39" height="159.17" transform="translate(1010.02 4498.04) rotate(-89.91)"/><rect class="cls-6" x="2901.02" y="1692.34" width="29.39" height="102.24" transform="translate(1167.63 4656.41) rotate(-89.91)"/><rect class="cls-6" x="2950.04" y="1702.43" width="29.39" height="82.22" transform="translate(1216.49 4705.5) rotate(-89.91)"/><rect class="cls-6" x="2762.06" y="1730.52" width="29.39" height="120.7" transform="translate(981.49 4564.79) rotate(-89.91)"/><rect class="cls-6" x="2859.3" y="1729.89" width="29.39" height="122.27" transform="translate(1078.42 4662.18) rotate(-89.91)"/><rect class="cls-6" x="3017.42" y="1764.92" width="29.39" height="52.71" transform="translate(1236.04 4820.55) rotate(-89.91)"/><rect class="cls-6" x="2651.04" y="1816.71" width="29.4" height="43.22" transform="translate(823.19 4501.15) rotate(-89.91)"/><rect class="cls-6" x="2842.89" y="1799.1" width="29.4" height="79.06" transform="translate(1014.43 4693.3) rotate(-89.91)"/><rect class="cls-6" x="2999.29" y="1794.47" width="29.4" height="88.82" transform="translate(1170.34 4849.95) rotate(-89.91)"/><rect class="cls-6" x="2850.98" y="1774.27" width="29.39" height="223.99" transform="translate(974.87 4748.95) rotate(-89.91)"/><rect class="cls-6" x="2866.01" y="1869.96" width="29.39" height="32.68" transform="translate(989.85 4764.01) rotate(-89.91)"/><rect class="cls-6" x="2979.85" y="1858.54" width="29.39" height="55.86" transform="translate(1103.33 4878.02) rotate(-89.91)"/><rect class="cls-6" x="2749.85" y="1861.4" width="29.39" height="144.68" transform="translate(826.42 4695.21) rotate(-89.91)"/><rect class="cls-6" x="2865.94" y="1917.59" width="29.39" height="32.68" transform="translate(942.14 4811.49) rotate(-89.91)"/><rect class="cls-6" x="2954.74" y="1845.26" width="29.39" height="177.62" transform="matrix(0, -1, 1, 0, 1030.66, 4900.43)"/><rect class="cls-6" x="2725.65" y="1884.88" width="29.4" height="192.9" transform="translate(754.68 4718.54) rotate(-89.91)"/><rect class="cls-6" x="2834.49" y="1933.8" width="29.4" height="95.41" transform="translate(863.17 4827.55) rotate(-89.91)"/><rect class="cls-6" x="2962.83" y="1927.42" width="29.4" height="108.57" transform="translate(991.1 4956.09) rotate(-89.91)"/><rect class="cls-6" x="2713.46" y="1968.86" width="29.39" height="120.17" transform="translate(694.9 4753.88) rotate(-89.91)"/><rect class="cls-6" x="2884.75" y="1993.91" width="29.39" height="70.61" transform="translate(865.64 4925.44) rotate(-89.91)"/><rect class="cls-6" x="2707.98" y="2045.86" width="29.4" height="61.4" transform="matrix(0, -1, 1, 0, 641.81, 4795.94)"/><rect class="cls-6" x="2865.7" y="2060.47" width="29.4" height="32.68" transform="translate(799.03 4953.92) rotate(-89.91)"/><rect class="cls-6" x="2997.46" y="2031.16" width="29.4" height="91.71" transform="translate(930.38 5085.89) rotate(-89.91)"/><rect class="cls-6" x="2761.53" y="2063.93" width="29.39" height="120.7" transform="translate(647.55 4897.14) rotate(-89.91)"/><rect class="cls-6" x="2819.25" y="2061.65" width="29.39" height="125.44" transform="translate(705.09 4954.95) rotate(-89.91)"/><rect class="cls-6" x="2681.07" y="2119.6" width="29.4" height="104.35" transform="translate(519.73 4864.1) rotate(-89.91)"/><rect class="cls-6" x="2919.84" y="2101.53" width="29.4" height="141.25" transform="translate(757.74 5103.24) rotate(-89.91)"/><rect class="cls-6" x="2990.46" y="2119.56" width="29.4" height="105.41" transform="translate(828.14 5173.98) rotate(-89.91)"/><rect class="cls-6" x="2826.34" y="2070.34" width="29.4" height="298.58" transform="translate(616.91 5057.15) rotate(-89.91)"/><rect class="cls-4" x="2407.73" y="959.86" width="124.35" height="164.52" transform="translate(1423.87 3510.36) rotate(-89.91)"/><rect class="cls-8" x="1890.39" y="1558.76" width="1183.57" height="233.79" transform="translate(802.58 4155.17) rotate(-89.91)"/><rect class="cls-6" x="2393.01" y="2162.13" width="35.8" height="92.94" transform="translate(198.49 4616) rotate(-89.91)"/><rect class="cls-6" x="2373.28" y="2066.02" width="35.79" height="53.1" transform="translate(294.81 4480.42) rotate(-89.91)"/><rect class="cls-6" x="2501.72" y="2013.98" width="35.79" height="157.59" transform="translate(422.84 4609.07) rotate(-89.91)"/><rect class="cls-6" x="2510.18" y="1964.37" width="35.79" height="140.85" transform="translate(489.27 4559.64) rotate(-89.91)"/><rect class="cls-6" x="2456.01" y="1899.94" width="35.79" height="153.54" transform="translate(493.27 4447.49) rotate(-89.91)"/><rect class="cls-6" x="2379.32" y="1886.27" width="35.8" height="64.65" transform="translate(474.83 4312.78) rotate(-89.91)"/><rect class="cls-6" x="2515.27" y="1853.3" width="35.8" height="131.03" transform="matrix(0, -1, 1, 0, 610.34, 4448.93)"/><rect class="cls-6" x="2496.31" y="1776.22" width="35.79" height="169.13" transform="translate(649.44 4372.04) rotate(-89.91)"/><rect class="cls-6" x="2453.39" y="1723.06" width="35.8" height="159.33" transform="translate(664.65 4271.15) rotate(-89.91)"/><rect class="cls-6" x="2506.98" y="1662.28" width="35.79" height="49.07" transform="translate(834.06 4209.01) rotate(-89.91)"/><rect class="cls-6" x="2400.57" y="1575.55" width="35.79" height="106.22" transform="translate(785.98 4044.53) rotate(-89.91)"/><rect class="cls-6" x="2496.77" y="1486.24" width="35.8" height="169.13" transform="translate(939.87 4082.98) rotate(-89.91)"/><rect class="cls-6" x="2453.85" y="1433.08" width="35.8" height="159.33" transform="matrix(0, -1, 1, 0, 955.09, 3982.09)"/><rect class="cls-6" x="2514.85" y="1412.99" width="35.8" height="83.71" transform="translate(1073.89 3985.29) rotate(-89.91)"/><rect class="cls-6" x="2473.09" y="1336.17" width="35.79" height="121.22" transform="translate(1090.26 3885.55) rotate(-89.91)"/><rect class="cls-6" x="2426.52" y="1202.2" width="35.79" height="157.02" transform="translate(1159.83 3723.09) rotate(-89.91)"/><rect class="cls-6" x="2527.63" y="1168.62" width="35.8" height="108.52" transform="translate(1318.61 3766.46) rotate(-89.91)"/><rect class="cls-6" x="2389.66" y="1199.57" width="35.8" height="46.18" transform="translate(1181.09 3628.28) rotate(-89.91)"/><rect class="cls-6" x="2473.46" y="1104.19" width="35.8" height="121.22" transform="translate(1322.6 3654.31) rotate(-89.91)"/><path class="cls-5" d="M2600,1084.06l-29.05,0c-26.3,175.47-93.18,603.87-205.78,661.38l-.84,530.67,233.78.37Z"/><rect class="cls-4" x="1116.94" y="1792.79" width="77.36" height="102.35" transform="translate(-690.17 2996.66) rotate(-89.91)"/><rect class="cls-4" x="1284.61" y="1775.62" width="77.36" height="187.11" transform="translate(-547.98 3189.51) rotate(-89.91)"/><rect class="cls-5" x="1090.21" y="1851.81" width="416.33" height="435.27" transform="translate(-773.13 3364.54) rotate(-89.91)"/><path class="cls-9" d="M1516.34,1861.63l-41.37-.06c-42,107.29-149.92,347.7-394.45,347.31l-.11,68.39,435.27.69Z"/><rect class="cls-6" x="1442.84" y="2172.65" width="22.27" height="123.54" transform="translate(-782.74 3684.85) rotate(-89.91)"/><rect class="cls-6" x="1143.92" y="2156.38" width="22.27" height="82.96" transform="translate(-1044.63 3349.43) rotate(-89.91)"/><rect class="cls-6" x="1276.09" y="2174.55" width="22.27" height="47.05" transform="translate(-912.89 3481.81) rotate(-89.91)"/><rect class="cls-6" x="1359.55" y="2078.71" width="22.27" height="166.82" transform="translate(-793.61 3529.38) rotate(-89.91)"/><rect class="cls-6" x="1133.61" y="2151.4" width="22.27" height="20.74" transform="matrix(0, -1, 1, 0, -1018.84, 3303.08)"/><rect class="cls-6" x="1221.79" y="2006.6" width="22.26" height="238.46" transform="translate(-894.86 3355.38) rotate(-89.91)"/><rect class="cls-6" x="1451.64" y="2073.04" width="22.26" height="106.31" transform="translate(-665.74 3585.59) rotate(-89.91)"/><rect class="cls-6" x="1114.11" y="2045.04" width="22.27" height="89.07" transform="matrix(0, -1, 1, 0, -966.11, 3211.5)"/><rect class="cls-6" x="1374.12" y="2045.46" width="22.27" height="89.06" transform="translate(-706.93 3471.93) rotate(-89.91)"/><rect class="cls-6" x="1306.15" y="2075.24" width="22.27" height="29.27" transform="translate(-774.68 3403.85) rotate(-89.91)"/><rect class="cls-6" x="1160.49" y="1995.75" width="22.27" height="115.64" transform="translate(-883.79 3221.94) rotate(-89.91)"/><rect class="cls-6" x="1354.06" y="1940.39" width="22.27" height="226.97" transform="translate(-690.84 3415.82) rotate(-89.91)"/><rect class="cls-6" x="1252.13" y="1921.38" width="22.27" height="192.49" transform="translate(-756.37 3277.69) rotate(-89.91)"/><rect class="cls-6" x="1447.19" y="1924.04" width="22.27" height="115.64" transform="translate(-525.84 3437.05) rotate(-89.91)"/><rect class="cls-6" x="1220.11" y="1895.29" width="22.27" height="172.42" transform="translate(-752.2 3209.6) rotate(-89.91)"/><rect class="cls-6" x="1122.95" y="1892.12" width="22.27" height="106.3" transform="translate(-812.97 3076.27) rotate(-89.91)"/><rect class="cls-6" x="1307.91" y="1867.63" width="22.27" height="155.86" transform="translate(-628.61 3261.52) rotate(-89.91)"/><rect class="cls-6" x="1441.33" y="1934.82" width="22.27" height="21.91" transform="translate(-495.62 3395.14) rotate(-89.91)"/><rect class="cls-6" x="1397.39" y="1839.23" width="22.27" height="140.78" transform="translate(-503.33 3315.11) rotate(-89.91)"/><rect class="cls-6" x="1168.98" y="1848.21" width="22.27" height="122.1" transform="translate(-731.01 3086.35) rotate(-89.91)"/><rect class="cls-2" x="1529.78" y="1300.88" width="92.93" height="122.95" transform="translate(211.39 2936.44) rotate(-89.91)"/><rect class="cls-8" x="1143.17" y="1748.45" width="884.51" height="174.72" transform="translate(-252.9 3418.32) rotate(-89.91)"/><path class="cls-5" d="M1673.48,1393.7l-21.71,0c-19.66,131.13-69.64,451.28-153.79,494.27l-.62,390,174.72.27Z"/><rect class="cls-6" x="1518.78" y="2199.36" width="26.75" height="69.46" transform="translate(-704.36 3762.7) rotate(-89.91)"/><rect class="cls-6" x="1504.04" y="2127.54" width="26.75" height="39.69" transform="translate(-632.38 3661.39) rotate(-89.91)"/><rect class="cls-6" x="1600.02" y="2088.65" width="26.75" height="117.77" transform="translate(-536.69 3757.53) rotate(-89.91)"/><rect class="cls-6" x="1606.35" y="2051.57" width="26.75" height="105.26" transform="translate(-487.05 3720.59) rotate(-89.91)"/><rect class="cls-6" x="1565.86" y="2003.42" width="26.75" height="114.75" transform="translate(-484.06 3636.77) rotate(-89.91)"/><rect class="cls-6" x="1508.56" y="1993.21" width="26.75" height="48.32" transform="translate(-497.85 3536.1) rotate(-89.91)"/><rect class="cls-6" x="1610.15" y="1968.56" width="26.75" height="97.93" transform="translate(-396.58 3637.86) rotate(-89.91)"/><rect class="cls-6" x="1595.98" y="1910.96" width="26.75" height="126.4" transform="matrix(0, -1, 1, 0, -367.35, 3580.39)"/><rect class="cls-6" x="1563.91" y="1871.24" width="26.75" height="119.07" transform="translate(-355.98 3504.99) rotate(-89.91)"/><rect class="cls-6" x="1603.96" y="1825.81" width="26.75" height="36.67" transform="translate(-229.38 3458.55) rotate(-89.91)"/><rect class="cls-6" x="1524.43" y="1761" width="26.75" height="79.38" transform="translate(-265.32 3335.63) rotate(-89.91)"/><rect class="cls-6" x="1596.33" y="1694.26" width="26.75" height="126.4" transform="matrix(0, -1, 1, 0, -150.3, 3364.37)"/><rect class="cls-6" x="1564.25" y="1654.53" width="26.75" height="119.07" transform="translate(-138.93 3288.97) rotate(-89.91)"/><rect class="cls-6" x="1609.84" y="1639.52" width="26.75" height="62.55" transform="matrix(0, -1, 1, 0, -50.15, 3291.36)"/><rect class="cls-6" x="1578.63" y="1582.11" width="26.75" height="90.59" transform="translate(-37.92 3216.82) rotate(-89.91)"/><rect class="cls-6" x="1543.83" y="1481.99" width="26.75" height="117.34" transform="translate(14.07 3095.42) rotate(-89.91)"/><rect class="cls-6" x="1619.39" y="1456.89" width="26.75" height="81.1" transform="translate(132.74 3127.83) rotate(-89.91)"/><rect class="cls-6" x="1516.28" y="1480.02" width="26.75" height="34.51" transform="translate(29.95 3024.56) rotate(-89.91)"/><rect class="cls-6" x="1578.9" y="1408.74" width="26.75" height="90.59" transform="translate(135.72 3044.01) rotate(-89.91)"/><rect class="cls-4" x="2143.19" y="1065.89" width="63.25" height="259.59" transform="matrix(0, -1, 1, 0, 975.68, 3368.59)"/><rect class="cls-5" x="1705.8" y="1486.8" width="1060.15" height="517.87" transform="translate(486.59 3978.84) rotate(-89.91)"/><path class="cls-9" d="M2495.65,1216.07l-56.87-.09c-41.25,252.28-148.68,860.5-462.36,860l-.32,199.41,517.87.82Z"/><rect class="cls-6" x="2077.83" y="1161.3" width="40.85" height="241.15" transform="translate(813.05 3378.09) rotate(-89.91)"/><rect class="cls-6" x="2253.09" y="1261.72" width="40.85" height="40.85" transform="translate(987.76 3553.63) rotate(-89.91)"/><rect class="cls-6" x="2390.79" y="1198.04" width="40.85" height="168.66" transform="translate(1125.02 3691.54) rotate(-89.91)"/><rect class="cls-6" x="2077.72" y="1227.49" width="40.84" height="241.15" transform="translate(746.76 3444.07) rotate(-89.91)"/><rect class="cls-6" x="2252.98" y="1327.92" width="40.84" height="40.85" transform="translate(921.46 3619.61) rotate(-89.91)"/><rect class="cls-6" x="2302.39" y="1220.61" width="40.84" height="255.63" transform="translate(970.71 3669.09) rotate(-89.91)"/><rect class="cls-6" x="2130.32" y="1346.48" width="40.85" height="135.73" transform="translate(733 3562.84) rotate(-89.91)"/><rect class="cls-6" x="2252.88" y="1394.11" width="40.85" height="40.85" transform="translate(855.16 3685.59) rotate(-89.91)"/><rect class="cls-6" x="2297.67" y="1361.24" width="40.85" height="106.74" transform="translate(899.82 3730.46) rotate(-89.91)"/><rect class="cls-6" x="2130.22" y="1412.67" width="40.85" height="135.73" transform="translate(666.7 3628.83) rotate(-89.91)"/><rect class="cls-6" x="2205.33" y="1412.79" width="40.85" height="135.73" transform="translate(741.57 3704.06) rotate(-89.91)"/><rect class="cls-6" x="2357.53" y="1429.51" width="40.85" height="102.78" transform="translate(893.29 3856.5) rotate(-89.91)"/><rect class="cls-6" x="2098.49" y="1447.19" width="40.85" height="198.98" transform="translate(568.88 3663.14) rotate(-89.91)"/><rect class="cls-6" x="2296.15" y="1483.09" width="40.85" height="127.81" transform="translate(765.91 3861.11) rotate(-89.91)"/><rect class="cls-6" x="2357.43" y="1495.7" width="40.85" height="102.78" transform="translate(826.99 3922.48) rotate(-89.91)"/><rect class="cls-6" x="2122.43" y="1537.47" width="40.85" height="150.88" transform="translate(526.55 3753.21) rotate(-89.91)"/><rect class="cls-6" x="2243.99" y="1536.68" width="40.85" height="152.86" transform="translate(647.72 3874.96) rotate(-89.91)"/><rect class="cls-6" x="2441.65" y="1580.48" width="40.85" height="65.88" transform="translate(844.76 4072.93) rotate(-89.91)"/><rect class="cls-6" x="1983.63" y="1651.87" width="40.85" height="54.03" transform="translate(322 3680.28) rotate(-89.91)"/><rect class="cls-6" x="2223.46" y="1629.85" width="40.85" height="98.83" transform="translate(561.07 3920.49) rotate(-89.91)"/><rect class="cls-6" x="2418.97" y="1624.06" width="40.85" height="111.03" transform="translate(755.96 4116.31) rotate(-89.91)"/><rect class="cls-6" x="2233.56" y="1605.47" width="40.85" height="280.01" transform="translate(504.94 3996.69) rotate(-89.91)"/><rect class="cls-6" x="2252.35" y="1725.08" width="40.85" height="40.85" transform="translate(523.68 4015.51) rotate(-89.91)"/><rect class="cls-6" x="2394.66" y="1710.81" width="40.85" height="69.84" transform="translate(665.53 4158.04) rotate(-89.91)"/><rect class="cls-6" x="2107.13" y="1721.04" width="40.85" height="180.86" transform="translate(312.72 3936.15) rotate(-89.91)"/><rect class="cls-6" x="2252.25" y="1791.27" width="40.85" height="40.85" transform="translate(457.38 4081.5) rotate(-89.91)"/><rect class="cls-6" x="2363.26" y="1700.85" width="40.85" height="222.04" transform="translate(568.03 4192.68) rotate(-89.91)"/><rect class="cls-6" x="2076.88" y="1757.04" width="40.85" height="241.15" transform="translate(216.37 3971.94) rotate(-89.91)"/><rect class="cls-6" x="2212.93" y="1818.19" width="40.85" height="119.27" transform="translate(351.99 4108.21) rotate(-89.91)"/><rect class="cls-6" x="2373.37" y="1810.22" width="40.85" height="135.72" transform="translate(511.92 4268.9) rotate(-89.91)"/><rect class="cls-6" x="2061.62" y="1868.67" width="40.85" height="150.22" transform="translate(134.97 4022.74) rotate(-89.91)"/><rect class="cls-6" x="2275.75" y="1899.98" width="40.85" height="88.28" transform="translate(348.42 4237.21) rotate(-89.91)"/><rect class="cls-6" x="2054.76" y="1971.58" width="40.86" height="76.75" transform="translate(61.94 4081.96) rotate(-89.91)"/><rect class="cls-6" x="2251.93" y="1989.84" width="40.86" height="40.85" transform="translate(258.49 4279.44) rotate(-89.91)"/><rect class="cls-6" x="2416.63" y="1953.21" width="40.86" height="114.65" transform="translate(422.67 4444.4) rotate(-89.91)"/><rect class="cls-6" x="2121.7" y="2000.82" width="40.85" height="150.88" transform="translate(62.46 4215.09) rotate(-89.91)"/><rect class="cls-6" x="2193.85" y="1997.97" width="40.85" height="156.81" transform="translate(134.38 4287.36) rotate(-89.91)"/><rect class="cls-6" x="2021.11" y="2077.06" width="40.86" height="130.45" transform="translate(-103.99 4180.42) rotate(-89.91)"/><rect class="cls-6" x="2319.58" y="2054.47" width="40.86" height="176.57" transform="translate(193.54 4479.37) rotate(-89.91)"/><rect class="cls-6" x="2407.86" y="2077.01" width="40.86" height="131.78" transform="translate(281.54 4567.79) rotate(-89.91)"/><rect class="cls-6" x="2202.69" y="2022.15" width="40.86" height="373.24" transform="translate(10.82 4428.38) rotate(-89.91)"/><polyline class="cls-10" points="3842.18 2278.2 3823 2278.17 3349.98 2277.43 2886.95 2276.69 2864.85 2276.65 2759.98 2276.49 2698.61 2276.39 2458.78 2276.01 2440.73 2275.98 2399.06 2275.91 2380.63 2275.88 2350.02 2275.83 2273.06 2275.71 2060.22 2275.38 1881.53 2275.09 1672.09 2274.76 1624.41 2274.68 1515.69 2274.51 1497.37 2274.49 1405.8 2274.34 1187.49 2273.99 1172.06 2273.97 1105.38 2273.86 1089.7 2273.84 1080.42 2273.82 847.15 2273.45 708.77 2273.23"/><path class="cls-9" d="M4094.62,2278.2H2661.38c-918.95,0-1944.2,0-1964,0"/><path class="cls-11" d="M4094.62,2278.2H2661.38c-918.95,0-1944.2,0-1964,0"/><line class="cls-11" x1="4127.95" y1="2278.17" x2="4192.74" y2="2278.17"/><line class="cls-11" x1="579.1" y1="2278.17" x2="643.89" y2="2278.17"/><line class="cls-11" x1="487.26" y1="2278.17" x2="521.44" y2="2278.17"/><path class="cls-5" d="M3739.75,1070.16l-844.91,317.68L3543,1025.56a45.6,45.6,0,0,0,10.16-71.9C3510,910,3439.6,839.19,3370.73,770.87l7.69-6.23a22.61,22.61,0,0,1,28.23-.21l339.13,266.77A22.63,22.63,0,0,1,3739.75,1070.16Z"/><path class="cls-8" d="M3739.75,1070.16l-603.06,226.75L3710.31,1043s-86.14-87.43-181.07-182.11l216.54,170.33A22.63,22.63,0,0,1,3739.75,1070.16Z"/><path class="cls-2" d="M1217.08,1738.29c-55.37,68.41,11.5,285-191.3,247.55,0,0-124.64,48.86-154-45.6s-17.91-76.54-96.08-158c-34.31-35.74-52.76-91.52-50.76-140.56.83-20.63,8-38.26,11.25-58,.38-2.27.71-4.56,1-6.89,2.75-24.64-3.5-49.64-1.65-74.4,2.89-38.67,27.1-75.06,61.65-92.68,14.3-7.28,30.35-11.67,42.67-22,30.52-25.47,25.16-72.94,17.41-111.93s-12.07-86.9,19.38-111.22c28.17-21.78,59.66-18.5,86.84-3.12,29.06,16.46,53.19,46.77,63,75.09,5.09,14.66,8.13,30.47,17.32,43,28.49,38.73,98.48,25.8,124.39,66.31,9.86,15.41,10.37,34.84,9.91,53.13s-1.44,37.37,6.11,54c12.14,26.8,39.28,20,58,35.78,21.13,17.82,29.37,55,31.48,81C1278.55,1629.29,1254.15,1692.5,1217.08,1738.29Z"/><path class="cls-8" d="M824.05,1673.15s97.89,27.15,125-77.08c0,0,84.6,20.44,137.8-63.07,0,0,37.34,90.2,149.5,57.64,0,0-39,153.39-287.3,153.39C871.83,1744,824.05,1673.15,824.05,1673.15Z"/><path class="cls-8" d="M1236.3,1710.84a247.33,247.33,0,0,1-19.22,27.46c-55.37,68.4,11.51,285-191.31,247.54,0,0-124.63,48.85-153.94-45.6s-17.92-76.54-96.09-158c-42.23-44-53.09-103.92-44.9-159.94,9.71,31.75,24,65.25,44.9,92.71,58.63,77,146.39.68,238.49,114.57C1100.75,1936.59,1130.42,1705.17,1236.3,1710.84Z"/><path class="cls-9" d="M949,2270.84c57.34-204.5,68.17-395.86,65.67-530.77-.39-20.49-1.08-39.67-2-57.41-.7-14.16-1.54-27.39-2.43-39.62-1.35-18.78-2.87-35.21-4.32-49a128.78,128.78,0,0,0,23.72-8.65c12.19,45.11,22.36,94.85,30.81,146.3q1.44,8.74,2.8,17.55c4.09,26.22,7.75,52.8,11,79.36,27.39,221.8,28.24,442.21,28.24,442.21Z"/><path class="cls-9" d="M1063.28,1749.27c9.27-8.22,22-17.47,39.28-27.42a143.75,143.75,0,0,0,13.87-9.07h0s0,0,0,0c41.74-30.68,66.25-81,78.92-115.15h0a151.22,151.22,0,0,0,16.35-1.55,296.65,296.65,0,0,1-25.08,70.37c-16.15,32-37.55,60.42-62,82.92-23.26,21.45-39.64,52.53-50.42,79.27,0,0,0,0,0,0a354.69,354.69,0,0,0-17,53.81Z"/><path class="cls-9" d="M1018.31,1684.73c-1.8-.63-3.68-1.32-5.61-2.07a222,222,0,0,1-62.54-36.41,213.11,213.11,0,0,1-15.77-14.45,117.49,117.49,0,0,0,7.94-15.71c1.28.85,2.6,1.68,3.94,2.49a189.31,189.31,0,0,0,64,24.46c2.38.46,4.69.83,6.89,1.17Q1017.74,1664.48,1018.31,1684.73Z"/><path class="cls-6" d="M1092.73,2024.94c-11.29-15.64-40.37-60.36-38-102.67,3-52.38,19.58-93.63,19.58-93.63C1082.68,1896.27,1088.56,1963.77,1092.73,2024.94Z"/><path class="cls-6" d="M1014.53,1817.24c.6-27.34.58-53.16.13-77.17-.38-20.48-1.08-39.67-2-57.41,0,0,9.7.77,20.78,2.08C1043.61,1685.92,1032.52,1747.26,1014.53,1817.24Z"/><path class="cls-3" d="M940.22,1273.47c6.26,40.48,14.17,86.09-10.24,119-23.94,32.24-68.82,38.39-104.44,57-31.46,16.38-57.57,45.11-69.34,78.5-7.35,20.84-10.93,39.61-20,55.84.38-2.27.71-4.56,1-6.89,2.75-24.64-3.5-49.64-1.65-74.4,2.89-38.67,27.1-75.06,61.65-92.68,14.3-7.28,30.35-11.67,42.67-22,30.52-25.47,25.16-72.94,17.41-111.93s-12.07-86.9,19.38-111.22c28.17-21.78,59.66-18.5,86.84-3.12C933.57,1187.06,934.12,1234.07,940.22,1273.47Z"/><path class="cls-2" d="M3593.64,1866.65c42,51.92-8.73,216.31,145.2,187.88,0,0,94.59,37.08,116.84-34.61s13.6-58.09,72.92-119.89c26-27.12,40.05-69.46,38.53-106.68-.63-15.66-6.05-29-8.54-44-.28-1.72-.53-3.46-.73-5.23-2.09-18.7,2.65-37.67,1.25-56.46-2.19-29.35-20.57-57-46.79-70.34-10.86-5.53-23-8.86-32.39-16.67-23.16-19.33-19.09-55.36-13.21-85s9.16-66-14.71-84.41c-21.38-16.53-45.28-14-65.91-2.37-22.06,12.49-40.36,35.5-47.82,57-3.86,11.13-6.17,23.13-13.14,32.61-21.63,29.4-74.75,19.58-94.42,50.33-7.48,11.69-7.86,26.44-7.51,40.32s1.09,28.37-4.64,41c-9.22,20.34-29.81,15.17-44,27.16-16,13.53-22.28,41.78-23.89,61.46C3547,1783.92,3565.51,1831.9,3593.64,1866.65Z"/><path class="cls-8" d="M3891.94,1817.21s-74.29,20.6-94.83-58.5c0,0-64.21,15.51-104.59-47.87,0,0-28.34,68.46-113.46,43.74,0,0,29.61,116.43,218.05,116.43C3855.68,1871,3891.94,1817.21,3891.94,1817.21Z"/><path class="cls-8" d="M3579.06,1845.81a185.69,185.69,0,0,0,14.58,20.84c42,51.92-8.74,216.31,145.2,187.88,0,0,94.59,37.08,116.84-34.61s13.6-58.09,72.93-119.89c32-33.39,40.29-78.87,34.07-121.39-7.36,24.1-18.2,49.52-34.07,70.36-44.5,58.44-111.11.52-181,87C3681.93,2017.15,3659.41,1841.51,3579.06,1845.81Z"/><path class="cls-9" d="M3797.1,2270.84c-43.52-155.21-51.74-300.45-49.83-402.84.3-15.55.81-30.11,1.49-43.57q.81-16.12,1.85-30.07c1-14.25,2.17-26.72,3.27-37.17a98.39,98.39,0,0,1-18-6.56c-9.25,34.24-17,72-23.38,111-.73,4.43-1.44,8.86-2.13,13.33-3.1,19.9-5.88,40.07-8.38,60.23-20.79,168.33-21.43,335.62-21.43,335.62Z"/><path class="cls-9" d="M3710.37,1875c-7-6.25-16.66-13.27-29.81-20.82a109.46,109.46,0,0,1-10.53-6.88h0s0,0,0,0c-31.68-23.28-50.28-61.48-59.9-87.4h0a111.42,111.42,0,0,1-12.41-1.17,225.33,225.33,0,0,0,19,53.41,222.46,222.46,0,0,0,47,62.94c17.65,16.28,30.08,39.86,38.26,60.15,0,0,0,0,0,0a269.68,269.68,0,0,1,12.93,40.84Z"/><path class="cls-9" d="M3744.5,1826c1.37-.48,2.79-1,4.26-1.57a168.73,168.73,0,0,0,47.47-27.64,160.45,160.45,0,0,0,12-11,90.32,90.32,0,0,1-6-11.93c-1,.65-2,1.28-3,1.89a143.69,143.69,0,0,1-48.57,18.57c-1.81.34-3.56.63-5.23.89Q3744.93,1810.63,3744.5,1826Z"/><path class="cls-6" d="M3688,2084.21c8.57-11.87,30.64-45.81,28.82-77.93a248.43,248.43,0,0,0-14.85-71.06C3695.65,1986.55,3691.18,2037.78,3688,2084.21Z"/><path class="cls-6" d="M3747.37,1926.57c-.45-20.75-.44-40.35-.1-58.57.29-15.55.82-30.11,1.49-43.57,0,0-7.36.58-15.77,1.58C3725.3,1826.9,3733.72,1873.46,3747.37,1926.57Z"/><path class="cls-3" d="M3803.77,1513.87c-4.75,30.72-10.76,65.33,7.78,90.3,18.16,24.47,52.23,29.14,79.26,43.22,23.88,12.43,43.69,34.23,52.63,59.58,5.57,15.82,8.29,30.06,15.15,42.38-.28-1.72-.53-3.46-.73-5.23-2.09-18.7,2.65-37.67,1.25-56.46-2.19-29.35-20.57-57-46.79-70.34-10.86-5.53-23-8.86-32.39-16.67-23.16-19.33-19.09-55.36-13.21-85s9.16-66-14.71-84.41c-21.38-16.53-45.28-14-65.91-2.37C3808.81,1448.28,3808.4,1484,3803.77,1513.87Z"/><path class="cls-12" d="M2351,2414.15l-2-126.84-98.15.08,0,132.78S2309.94,2486.57,2351,2414.15Z"/><polygon class="cls-13" points="2252.75 2451.11 2353.25 2445.07 2350.24 2396.14 2249.74 2402.19 2252.75 2451.11"/><path class="cls-14" d="M2373.22,2577.82c-.1,12.08-2.61,24.27-10.43,33.25-11.84,13.63-31.87,15.82-49.91,17.06l-39.28,2.71-12.59.87-9.53.65c-5.25.35-10.76.67-15.53-1.54-5.67-2.63-9.23-8.36-11.74-14.07a75.91,75.91,0,0,1-3.62-50.25c10.61-38.5,31-71.59,29.27-112.87-.29-7-1-9-1-13.71a9.52,9.52,0,0,1,1.41-5.67,5.93,5.93,0,0,1,2.66-2,10.54,10.54,0,0,1,5.87-.46c4.28.79,8,3.23,12.1,4.8,9.6,3.72,29.05,4.29,39.23,2.74,3.42-.53,15.74-3.83,19-4.95,3.86-1.34,7.41-3.43,11.3-4.64s8.4-1.42,11.78.86a6.27,6.27,0,0,1,2.27,2.58,7.93,7.93,0,0,1,.51,3.05c.16,9.38-5.48,18.38-7,27.91-1.11,7.15-.15,14,1.72,20.77,1.32,4.78,3.12,9.51,4.95,14.28,8.8,22.73,16.53,46.19,18.24,70.5C2373.15,2572.35,2373.25,2575.09,2373.22,2577.82Z"/><path class="cls-12" d="M2162.48,2433.19c2.83-4.35,1.37-20.89,1.9-26.42,1.59-16.67,2.8-33.46,3.71-50.26q3-54.33,4.52-108.73c0,1.33-133.82-7.61-138.29,2.4-3.75,8.43,15.61,33.51,18.39,41.63,9.22,26.93,4,55.76,7.27,83.16,3.54,29.77-.64,60.52-10.24,88.93C2094.14,2464.05,2132.9,2475.45,2162.48,2433.19Z"/><path class="cls-13" d="M2057.09,2476.58l.42.42c16.62,15.4,62.46,5.11,82.6,3.08,8.11-.82,24.26,4.36,29-4.56,1.27-2.38,1.28-5.22,1.26-7.93-.14-16.45,1-33.69-1-49.88-12.82.25-113.78-3.18-113.78-.76C2055.62,2431.94,2045.09,2464.5,2057.09,2476.58Z"/><path class="cls-14" d="M2185.14,2537.48c0,9.28-.22,19.32-5.9,26.66-6.5,8.41-18.36,10.71-29,9.8-4.91-.43-12.38-.12-20,.28-8.85.45-17.95,1-23.65.7-18.74-1.05-36.82,6.91-53.05,16.37s-31.62,20.66-49.23,27.18c-18.2,6.74-37.88,8.16-57.27,9.13-1.87.09-3.76.19-5.65.26-15.05.59-30.42.19-43.92-6.24a33.61,33.61,0,0,1-7.64-4.81,24.14,24.14,0,0,1-2.22-2.19,30.36,30.36,0,0,1-6.16-12.73c-6.82-26.79,10.57-57.39,37.06-65.25l.5-.14c9.79-2.8,20.15-2.89,30.16-4.82,15.74-3,29.72-10.44,42.42-20.16,15.43-11.81,29-27,41.41-42,7.28-8.75,16.65-18.49,27.9-16.82,5.27.78,9.78,4,14.38,6.68,15.76,9.15,34.91,12,52.76,8.61,17-3.26,44.93-26.13,54-2,2.91,7.73,3,16.19,3,24.44q0,20.7,0,41.39C2185.14,2533.68,2185.14,2535.59,2185.14,2537.48Z"/><path class="cls-15" d="M2185.14,2537.48c0,9.28-.22,19.32-5.9,26.66-6.5,8.41-18.36,10.71-29,9.8s-33.06,1.57-43.69,1c-18.74-1.05-36.82,6.91-53.05,16.37s-31.62,20.66-49.23,27.18c-18.2,6.74-37.88,8.16-57.27,9.13-16.8.85-34.38,1.25-49.57-6a33.61,33.61,0,0,1-7.64-4.81,57.58,57.58,0,0,1-3-15.25c-.91-16.31-9.92-31.28,5-37.86,15.12-6.66,56.65,3.86,74.45,3.64,27.32-.35,54.58-2.41,81.75-5.18,47.85-4.86,92.7-11.15,137-30.37C2185.14,2533.68,2185.14,2535.59,2185.14,2537.48Z"/><path class="cls-16" d="M2130.24,2574.22c-8.85.45-17.95,1-23.65.7-18.74-1.05-36.82,6.91-53.05,16.37s-31.62,20.66-49.23,27.18c-18.2,6.74-37.88,8.16-57.27,9.13-1.87.09-3.76.19-5.65.26-6.65-11.18-11.3-23.74-14.86-36.3-5.06-17.85-8.22-36.6-7.52-55.06,9.79-2.8,20.15-2.89,30.16-4.82,15.74-3,29.72-10.44,42.42-20.16,13.12,12.09,28.68,21.78,45,29.2,28.54,13,59.48,19.67,90.15,26.25A45.1,45.1,0,0,1,2130.24,2574.22Z"/><path class="cls-15" d="M2373.22,2577.82c-.1,12.08-2.61,24.27-10.43,33.25-11.84,13.63-31.87,15.82-49.91,17.06l-61.4,4.23c-5.25.35-10.76.67-15.53-1.54-5.67-2.63-9.23-8.36-11.74-14.07a75.62,75.62,0,0,1-6.25-27.62c13.68,5.78,29.22,6.64,44.21,6.46C2298.75,2595.18,2339.94,2593.94,2373.22,2577.82Z"/><path class="cls-16" d="M2273.6,2630.84l-12.59.87-9.53.65c-5.25.35-10.76.67-15.53-1.54-5.67-2.63-9.23-8.36-11.74-14.07a75.91,75.91,0,0,1-3.62-50.25c10.61-38.5,31-71.59,29.27-112.87-.29-7-1-9-1-13.71a9.52,9.52,0,0,1,1.41-5.67,5.93,5.93,0,0,1,2.66-2c13.84,18.73,8.68,45.65,38.2,41.49-1.51.21-13.95,7.93-16.32,9.26-7.46,4.22-7.07,3.86-10.21,11.41-7.08,17.07-12.36,36.72-18.44,54.42s-17.36,34-12.35,53.55C2237.74,2617.7,2256.25,2626.83,2273.6,2630.84Z"/><path class="cls-13" d="M2453.74,1461.35c-1.45-.07,42.48,70.22,40.73,69.78s59.74-31,59.74-31l-43.93-79.33Z"/><path class="cls-17" d="M2266.37,842.16c-16.23-10.88-37-14.18-56-9.85-9.26,2.12-17,6.8-26.18,9.12a147.7,147.7,0,0,0-30.29,11.38c-2.94,1.49-6,3.19-7.72,6-3.44,5.4-.94,12.57,2.45,18,3.07,4.9,7.56,10.09,8,16.1.46,5.83-.87,11.76-.06,17.77,1.34,9.86,5,19.78,12.26,26.6,5.74,5.39,13.25,8.45,20.72,10.91,19.77,6.51,42,9.48,61,1,19.75-8.8,32.83-28.94,37.42-50.06,3.07-14.16,2.27-30.38-7.39-41.17-9.41-10.5-24.59-13.21-38.62-14.61"/><path class="cls-13" d="M2378.46,2152.94v201.93S2252,2384,2210.19,2364c0,0-13.65,17.29-65.49,14.56s-107.33-21.82-107.33-21.82-50-761.85-54.57-802.06,17.28-105.69,29.11-114.79c1.36-1,6.8-1.86,15.35-2.46,65.55-4.65,314,2.46,314,2.46s4,23.09,9.61,63.32C2367.38,1621.64,2397.46,1888.81,2378.46,2152.94Z"/><path class="cls-18" d="M2350.9,1503.16c-52.24,17.3-119.21,36.8-124.34,51.47-8.18,23.46-16.37,809.32-16.37,809.32s-18.66-417.48-18.43-473-27.05-372.14-27.05-372.14-136.61,23.63-156.32,0c-17.81-21.36,12.8-71.91,18.87-81.47,65.55-4.65,314,2.46,314,2.46S2345.32,1462.93,2350.9,1503.16Z"/><path class="cls-1" d="M2360.57,1461.35c-15.16,34.85-126.13,35.49-155.24,25.18s-21.21-7.88-79,11.94-175.21,1.67-175.21,1.67l-3.1-28.94L1895.1,977.51l258.09-88.86c4.87-1.68,13.17,0,18.24,0,10-.1,19.45-2.48,29.59-2.57,16.37-.15,32.75.41,49.13,1,8.41.3,16.87.35,25.27.85,5,.29,13.89-1.54,17,3.39,2.6,4.06,2.43,12.88,3.16,17.52,1.57,10,3,20.1,4.38,30.17.38,2.74.76,5.49,1.12,8.25q5,36.76,9.54,73.64,3.85,31.26,7.48,62.55,1,9,2.06,17.88,1.64,14.15,3.17,28.32c.28,2.54.54,5.07.8,7.61,5.47,52.75,29.11,204.33,31.54,218.1,1.31,7.47,7.11,27.85,9.7,50.48C2367.59,1424.85,2367.49,1445.45,2360.57,1461.35Z"/><path class="cls-3" d="M2310.67,1020.91l-1.83,1.08c-23.37,13.79-47,27.68-72.7,36.27-20.14,6.72-41.23,10.06-62.21,13.37-30.1,4.76-61,9.5-90.83,3.29-15.71-3.27-33.71-15-49.46-15.35s-31.82,7.42-48.68,6.32a251.72,251.72,0,0,1,8.2,102.91c-9.75,75.87,37.57,154.41,28.91,230.41-3,26.41,2.93,65.66-25.82,80.23-14.57,7.39-32.92,3.11-46.08-6.57-.73-.55-1.45-1.1-2.16-1.67L1895.1,977.51l258.09-88.86c4.87-1.68,13.17,0,18.24,0,10-.1,19.45-2.48,29.59-2.57,16.37-.15,32.75.41,49.13,1,8.41.3,16.87.35,25.27.85,5,.29,13.89-1.54,17,3.39,2.6,4.06,2.43,12.88,3.16,17.52,1.57,10,3,20.1,4.38,30.17Q2305.65,979.91,2310.67,1020.91Z"/><path class="cls-17" d="M2108.39,970.85a4.87,4.87,0,0,1-.62,1.62c-1.42,2.56-5,6.12-8.61,9.54s-7.15,6.66-8.56,8.65c-12.63,17.81-24.78,39-43.09,51.66-12.33,8.52-32.67,8.11-44-1.83-9.78-8.54-16.22-16.77-18.19-29.93-1.08-7.22-.33-14.92,3.43-21.17,3.28-5.45,8.57-9.38,14-12.62a85.55,85.55,0,0,1,32.15-11.2c.72-.09,1.43-.19,2.15-.27a90.65,90.65,0,0,1,9.18-.56c15-.1,32.61-12.43,47.11-7.57C2097.86,958.7,2109.08,966,2108.39,970.85Z"/><path class="cls-19" d="M2291.77,789.83c-.3,1.11-.66,2.22-1.05,3.32l.91.46A158.53,158.53,0,0,1,2280,814.87c-2.61,4.09-5.29,8.11-7.91,12-1.32,2-2.64,3.94-3.9,5.88-.58.87-1.14,1.73-1.69,2.59a59.09,59.09,0,0,0-4.12,7.21L2252.45,857c-1.16,1.19-2.33,2.34-3.5,3.51a48.65,48.65,0,0,0-5.9,6.79c-.45-.06-.92-.14-1.35-.23l0,.08,1.08.61a20,20,0,0,0-2.14,4.23c-1.12,3-.38-2.92-2.77-.76a13.78,13.78,0,0,0-2.38-5.23c-3.16-4.38-8.69-7.22-14.12-8.47-7.34-1.73-15.1-1.44-22.35-3.5-13.1-3.72-22.84-14.4-31.83-24.62l-9.65-10.93-10.89-12.34c-3.94-4.49-7.91-9-11.86-13.45l-6.33-7.19c-1.39-1.58-2.67-3.13-3.83-4.67-10-13.08-11.76-24.67-9.14-42.72a59,59,0,0,1,6.58-19,81.17,81.17,0,0,1,13.2-18c1.27-1.34,2.6-2.6,3.94-3.8,6.67-6,16.5-3.94,23.08-9.43,6.77-5.67,7.82-12.09,19-12.13,15.87-.06,37.59,10.45,48.09,22.18,9.57,10.73,15.76,21.67,27.64,30.3,8.53,6.2,17.9,12.41,25.25,20.06C2294,760.62,2295.91,775.43,2291.77,789.83Z"/><path class="cls-19" d="M2241.7,867.08c.43.09.9.17,1.35.23-.11.16-.22.31-.31.46l-1.08-.61Z"/><path class="cls-19" d="M2272.07,826.89q-3.75,6.21-7.48,12.43l-2.92,4.84c-1.12,1.88-2.26,3.75-3.38,5.63a40.86,40.86,0,0,1-5.84,7.22l9.91-14.44a59.09,59.09,0,0,1,4.12-7.21C2268.26,832.6,2270.14,829.77,2272.07,826.89Z"/><path class="cls-20" d="M2194,884.23c-3.59,7.08-6.56,14.7-9.53,22.38-.15.37-.29.72-.43,1.09-5.38,14-10.8,28-19.8,39.45-12.44,15.77-32,23.87-50.65,31.32a129.77,129.77,0,0,1-13.21,4.72c3.59-3.42,7.2-7,8.62-9.54a5,5,0,0,0,.61-1.62c.69-4.9-10.53-12.15-15-13.68-14.49-4.86-32.12,7.47-47.1,7.58-1,0-1.9,0-2.85.07l-1.76.08c-.77,0-1.52.11-2.29.18l-1.62.15-.67.07A51.28,51.28,0,0,1,2027,956.24c-8.55-10.72-9.56-25.66-18.64-35.93a84.51,84.51,0,0,0,14.91-19.74c5.62-10.18,9.22-21.34,11.77-33.21.18-.82.36-1.64.52-2.47.8-.74,1.6-1.47,2.42-2.19l1.37-1.22c.56-.5,1.14-1,1.7-1.48s1.39-1.18,2.09-1.75,1.56-1.29,2.34-1.93,1.73-1.38,2.59-2.07c6.1-4.78,12.5-9.31,19.11-13.63q2.84-1.85,5.72-3.66t6-3.67q2.84-1.68,5.68-3.33c.86-.5,1.71-1,2.56-1.46,12.93-7.41,26.16-14.16,38.89-20.52,0,.25,0,.5.05.74,1.11,18.69,8.63,33,16.09,49.65C2152.61,881.65,2169.64,887.44,2194,884.23Z"/><path class="cls-12" d="M2164.71,846.35c-7.6-6.55-15.92-12.23-23.36-19-5.07-4.57-7.84-10-15-10.77-16.25-1.69-34.45,8.88-47.45,16.67q-3,1.82-6,3.67t-5.72,3.66c-6.55,4.26-13,8.78-19.11,13.63-.86.69-1.73,1.37-2.59,2.07s-1.57,1.28-2.34,1.93-1.4,1.16-2.09,1.75-1.14,1-1.7,1.48L2038,862.7c-.82.72-1.62,1.45-2.42,2.19-.16.83-.34,1.65-.52,2.47-5.56,25.32-16.59,44.46-37.59,61.48a124.71,124.71,0,0,0,20.16,24,113.51,113.51,0,0,0,18.44,13.9l2.16-.28.67-.07c.53-.06,1.07-.1,1.62-.15.76-.07,1.52-.13,2.29-.18l1.76-.08c1,0,1.9-.06,2.85-.07,15-.11,32.61-12.44,47.1-7.58,4.51,1.53,15.73,8.78,15,13.68a5,5,0,0,1-.61,1.62,61,61,0,0,0,11.7-6.91c-.33,0-21.17-10-23.16-10.91-6.68-3.11-11.77-7.75-18.22-11.2-11.22-6-28.62-10.5-32.28-24.71-4.33-16.85,23.16-7,33.14-8.32,23.35-3,46.27-15.83,69.88-13.69,10.08.91,17.63,2,26.29,6.63,4.8,1.8,5.69,3.75,8.12,2.07,3.31-8.57,7.39-16.54,10.93-25a4.14,4.14,0,0,0-.91-5.68C2184.89,865.73,2175.3,855.49,2164.71,846.35Z"/><path class="cls-21" d="M2153.08,762.56c-1.37,3.2-5.34,4.25-8.79,4.7-5.62.7-11.53.84-16.69-1.45-7.74-3.41-12.32-11.6-14.49-19.77-1.38-5.17-2-10.44-3-15.56l-.54-2.84c-.27-1.22-.55-2.42-.88-3.63-.28-1-.58-2-.93-3a32.63,32.63,0,0,0-5.95-10.64c-5-5.81-12.12-8.3-19.84-9.22a79.76,79.76,0,0,0-10.84-.47c-2.18,0-4.34.14-6.44.25-8,.46-16.07.91-24.08,1.74a3.29,3.29,0,0,0-.44.05,155.88,155.88,0,0,0-30.39,5.85,104.66,104.66,0,0,0-22.39,9.75c-.25.15-.52.3-.77.46a44.5,44.5,0,0,0-11.34,9.67,21.71,21.71,0,0,0-5,12.14,20,20,0,0,0,.26,4.91c1.13,6.63,2.25,12.63,3,18.78a107.45,107.45,0,0,1,.74,15.6c-.28,9.54,3,19.72,3.1,28.77,0,.53,0,1.06,0,1.58a6.41,6.41,0,0,0-.35-2.06,9.69,9.69,0,0,0-2.86-4,16.2,16.2,0,0,0-2.23-1.59c-2.9-1.67-6.19-2.65-8.88-4.64-3.23-2.38-5.28-6-7.11-9.58a51.38,51.38,0,0,1-3-7.14c-6.09-17.8-1.71-34.9-6.19-53.57-3-12.3-12.66-24.38-8.1-36.17,3.77-9.76,15.45-13.61,22.33-21.47a26.32,26.32,0,0,0,5.46-24c1.74,6.25,18.18,3.28,21.93,2.2,9.14-2.6,14.31-8,21.18-13.6,14.17-11.46,33.81-14.69,50.48-6.08,7.43,3.83,13.74,9.65,21.33,13.14,9.48,4.38,20.86,5.11,28.66,12.06,10.41,9.28,10.09,25.45,15.84,38.18a43.92,43.92,0,0,0,2.05,4c.21.38.43.76.65,1.13,3.77,6.3,8.66,12,12.31,18.4a99.4,99.4,0,0,1,11.81,32.64,71.42,71.42,0,0,1,1,10.33A9.68,9.68,0,0,1,2153.08,762.56Z"/><path class="cls-21" d="M2134.75,792.7l-6.33-7.19c-1.39-1.58-2.67-3.13-3.83-4.67a154.33,154.33,0,0,1-.16-15.51c.7-15.6,4.31-32.2-2.4-46.2a81.17,81.17,0,0,1,13.2-18c-.38,3.48-.6,7-.64,10.5a11.25,11.25,0,0,0,.54,4.4c1.15,2.88,4.24,4.41,6.44,6.61l.76.77c-1,.88-1.91,1.79-2.77,2.72a51.71,51.71,0,0,0-7.69,11,5.77,5.77,0,0,1,2.3-.33c3.34.2,5.82,3.16,7.37,6.12,6.35,12.07,3.89,27.19-2.56,39.2a42.87,42.87,0,0,0-3.53,7.28A20.88,20.88,0,0,0,2134.75,792.7Z"/><path class="cls-22" d="M2142.75,763.1c-1.28,3-5,4-8.22,4.39a38.77,38.77,0,0,1-9.8.21c-.27,0-.56-.08-.83-.13-1.24-6.37-3-12.75-6.58-18.17s-8.87-9.71-14.27-13.69c-.15-.88-.3-1.75-.46-2.62l-.14-.1c-3.35-2.48-6.77-4.88-9.92-7.53a69.13,69.13,0,0,1-10-10.42c.85.12,1.8.25,2.85.44,4.39,4.73,9.81,8.16,15.41,11.28l.51.29c1.44.8,2.91,1.58,4.36,2.35,4.94,2.64,10.32,6.64,11.29-1,.81-6.33,1.16-12.7,1.86-19.05,0-.51.11-1,.16-1.52.18-1.49.38-3,.61-4.47.2.36.4.71.61,1.05,3.53,5.9,8.1,11.21,11.52,17.21a96.41,96.41,0,0,1,4.43,8.8,90.26,90.26,0,0,1,3.81,10.07,83.77,83.77,0,0,1,2.8,11.66,69.06,69.06,0,0,1,.54,7.12A9.07,9.07,0,0,1,2142.75,763.1Z"/><path class="cls-20" d="M2139,782.19a42.87,42.87,0,0,0-3.53,7.28,32.51,32.51,0,0,0-1.08,8.24c-1,22.92-1.2,46.52-11.86,67.62A47,47,0,0,1,2114,877c-.36.38-.74.76-1.13,1.13-3.67,3.66-7.74,7-11.85,10.55-14.55,12.73-35.17,13.45-35.17,13.45a52.08,52.08,0,0,1-30.25-6.27c-19.18-10.29-33.65-31-43.83-49.58-1.36-2.47-2.53-4.74-3.53-6.71a1.76,1.76,0,0,0-.09-.2c-2.33-4.72-3.55-7.69-3.55-7.69-1.45-3.53-4.72-5.47-8.06-7.33-2.8-1.56-5.67-3.06-7.54-5.43a27.34,27.34,0,0,1-4.39-9.36,40.89,40.89,0,0,1-1.54-12.31,3.39,3.39,0,0,1,.31-1.48c.75-1.39,2.87-1.21,4.18-.35s2.22,2,3.58,2.57c-4.26-2.19-1.9-20.13-2.44-24.18-1.12-8.31-2.36-16.59-3.58-24.89q-2.64-18-5.38-36.09l96.41-46.09,32.47,20.6,17.25,10.94c1.07,2.84,2.14,5.69,3.23,8.53,3.11,8.1,6.31,16.21,9.37,24.34,2.6,6.87,5.1,13.76,7.41,20.69a38.24,38.24,0,0,1,.12-6.15,15.5,15.5,0,0,1,.86-3.41,8.83,8.83,0,0,1,5-5,5.77,5.77,0,0,1,2.3-.33c3.34.2,5.82,3.16,7.37,6.12C2147.89,755.06,2145.43,770.18,2139,782.19Z"/><path class="cls-12" d="M2124.88,767.36c-.66-5.88-4.93-10.79-9.77-14.2s-10.4-5.7-15.37-8.91c-6.28-4-11.57-9.49-17.89-13.46-8.84-5.58-20.53-9.23-23.87-19.15-9.36,5-19,8.67-28.66,12.58-8.72,3.5-13.77,6.69-23.58,6-5.48-.36-17.22.64-20.8,5.32s-.26,8.29.33,13c.7,5.57-.82,13.44-1.78,19-1.51,8.79-5,17.8-2.48,26.36.79,2.73,2.15,5.26,3,8a44,44,0,0,1,1.45,8.78q1.36,14.33,2.72,28.68c-2.33-4.72-3.55-7.69-3.55-7.69-1.45-3.53-4.72-5.47-8.06-7.33l-9.21-15.93a3.63,3.63,0,0,1-2.72,1.14,40.89,40.89,0,0,1-1.54-12.31,3.39,3.39,0,0,1,.31-1.48c.75-1.39,2.87-1.21,4.18-.35s2.22,2,3.58,2.57c-4.26-2.19-1.9-20.13-2.44-24.18-1.12-8.31-2.36-16.59-3.58-24.89q-2.64-18-5.38-36.09l96.41-46.09,32.47,20.6a116.86,116.86,0,0,1,20.48,19.47,77.68,77.68,0,0,1,7.55,11.18c4.4,8,6.1,16.8,8.69,25.4.23.8.46,1.55.66,2.3a29,29,0,0,1,1.12,7.72C2127.16,757.78,2124.42,763.3,2124.88,767.36Z"/><path class="cls-21" d="M2126.84,739.24q-.3,10.39-.63,20.81c-.08,2.61-.23,5.41-1.48,7.65a8.11,8.11,0,0,1-.63.94c-.07-.36-.13-.71-.2-1.07-1.24-6.37-3-12.75-6.58-18.17s-8.87-9.71-14.27-13.69l-.09-.07c-3.4-2.51-6.87-4.95-10.06-7.63-1.15-1-2.26-2-3.34-3a68.12,68.12,0,0,1-6.69-7.42,70.77,70.77,0,0,1-6.23-9.39,71.81,71.81,0,0,1-4.83-10.78c-.29-.82-.56-1.65-.82-2.49a48.83,48.83,0,0,0-32.8,14.46c-.08.07-.16.16-.23.23l-.8.8c-9.1,9-16.11,11.64-29.17,12a135.92,135.92,0,0,0-15.86,1.37c-1.09.16-2.2.35-3.28.57-.47.1-.93.2-1.39.32a16.62,16.62,0,0,0-7.55,3.78,10.73,10.73,0,0,0-3.05,5.26c-1.26,4.85.2,10.67.73,15.47.83,7.5,3.83,15.53,2,23.11-.89,3.62-2.32,7.2-2.12,10.92a25.51,25.51,0,0,0,1.68,6.86c1.61,4.66,3.54,9.31,4.88,14,.52,1.87,0,10.61.79,11.37a64.49,64.49,0,0,1-6-6.77c-.12-.14-.23-.3-.34-.45q-1.4-1.83-2.67-3.75a86.92,86.92,0,0,1-9.42-19.17c-6.25-17.49-8.13-37.23-8.2-54.61,0-8.91-.35-23.1,5.89-30.29,5.41-6.24,15.16-11.12,22.14-15.34a210,210,0,0,1,59.94-24.45c5.1-1.2,10.35-2.22,15.54-1.57,8.82,1.12,16.27,6.83,23.19,12.42,5.23,4.21,10.43,8.46,15.35,13A85.77,85.77,0,0,1,2110,695a92.58,92.58,0,0,1,8.77,14.32l.53,1c.13.25.26.49.38.74.56,1.07,1.1,2.15,1.63,3.22,1.94,3.86,3.9,7.76,4.84,12S2127,734.89,2126.84,739.24Z"/><path class="cls-6" d="M2445.55,1300.55q-5.41,5.75-11,11.34c-50.33,50.34-77.61-72.72-77.61-72.72s27.27-37,30-49.76-44.56-40-44.56-40l-19-19.73L2308.33,1114l-71.46-74.23,17-101.27c1.49.24,23,3.78,47.28,8.76,25.24,5.14,53.51,11.84,65.53,18,23.62,12,146.72,182.45,152.78,208.47C2525.06,1197.79,2490.63,1252.6,2445.55,1300.55Z"/><path class="cls-3" d="M2426.89,1272.69c4.58,7.61,11.89,17.4,18.66,27.86q-5.41,5.75-11,11.34c-50.33,50.34-77.61-72.72-77.61-72.72s14.48-19.66,23.39-35.25c3.32-5.81,5.87-11.05,6.61-14.51,2.74-12.73-44.56-40-44.56-40l-19-19.73c.07.62.14,1.24.2,1.87.21,1.91.4,3.83.6,5.74,5.47,52.75,29.11,204.33,31.54,218.1,1.31,7.47,7.11,27.85,9.7,50.48-5,4.63-9.25,9.18-8.84,10.43a397.46,397.46,0,0,0-24.34-57.84c-11.68-22.56-29.63-32.43-37.53-57.53-7.61-24.16-10.89-50.49-8.24-75.74,2.26-21.53-1.09-43.27-.34-64.9.63-18.13,12.14-24.35,19.57-40.06,1-2,1.83-4.09,2.63-6.2a80.49,80.49,0,0,0,2.7-48.57,77.62,77.62,0,0,0,7.12,18c13.41,24,36.27,29.2,57.94,51.55q1.11,1.13,2.22,2.34c-.12-.56-.23-1.11-.35-1.67-.48-2.36-1-4.71-1.46-7.06,4.79,9.85,8.88,3.13,18.31,8.72l50.46,29.89c9.3,5.51,19.81,13.12,19.38,23.92-12-18.54-43-12-64.26,11.56-3.45,3.83,10.66.64,10,5.74s.43,10.26,1.54,15.29C2416,1242.25,2417.26,1256.68,2426.89,1272.69Z"/><path class="cls-23" d="M2525.77,1451.31c-19-1.75-40-6.1-56.2,4.08a47.87,47.87,0,0,0-5.54,4.08,64.48,64.48,0,0,0-13.31,16.45c-1.19,0-1.49-2.14-.33-2.45-15.17-8.64-28.16-20.76-40.43-33.18-5.66-5.72-11-11.83-17.34-16.77-17.49-13.6-25.45-24.6-35.19-45.22-10.91-23.09-20.74-46.71-31.07-70.25q-2.06-4.72-4.16-9.45c-4-9-8-18.13-11.57-27.4v0c-5-13-9-26.33-10.75-40.12-3.16-24.66,3.92-48.19,6.31-72.61.79-8.14-3-26.43,3.69-32.45,1.93-1.74,4.69-2.15,7.3-2.32,12.38-.76,24.6,2.6,36.42,6.34,14.68,4.65,30.63,11.26,37,25.29,7.05,15.58-.87,32.2.49,48.24,1.46,17.16,4.75,35,13.81,49.9,6.35,10.46,12.47,21,18.54,31.67,13.92,24.28,27.62,48.72,43.42,72C2487.92,1388.17,2517.17,1413.64,2525.77,1451.31Z"/><path class="cls-17" d="M2423.4,1285.12c-15.57-10.32-31.92-25-41-39.37-16-25.22-1.9-54.24-31-73.76a339.38,339.38,0,0,1-37.81,7.4c1.07,6.22,2.13,12.48,2.12,18.8,0,21.57-9.92,40.75-6.93,62.57.47,3.49,1.11,7,1.84,10.42-5-13-9-26.33-10.75-40.12-3.16-24.66,3.92-48.19,6.31-72.61.79-8.14-3-26.43,3.69-32.45,1.93-1.74,4.69-2.15,7.3-2.32,12.38-.76,24.6,2.6,36.42,6.34,14.68,4.65,30.63,11.26,37,25.29,7.05,15.58-.87,32.2.49,48.24,1.46,17.16,4.75,35,13.81,49.9C2411.21,1263.91,2417.33,1274.5,2423.4,1285.12Z"/><path class="cls-6" d="M2427.34,1124.77a97.39,97.39,0,0,1-4.89,28.46,102,102,0,0,1-10.12,21.7c-6.78,11-19.28,19.64-21,32.85a20.1,20.1,0,0,0-.18,2.08,169.59,169.59,0,0,1-11.27-24.61l0,0a170.72,170.72,0,0,1-6.68-23.1c-2.36-10.93-.31-18.43-9.68-26.21-13-10.79-27.55-6.79-38.09-23a51.82,51.82,0,0,1-4.45-8.57c-3.86-9.25-5.78-19.82-7.39-29.22,7,40.65-2.87,72.46-15,107.45-3.88,11.25-8,22.84-11.9,35.15-28.44-69-55.81-143.23-8.4-211.6,9.15-13.19,21.81-25.73,37.79-27.37,7.38-.77,14.82.91,21.87,3.27C2395,1001.06,2428.71,1064.67,2427.34,1124.77Z"/><path class="cls-24" d="M2209.28,1056.92s0-.11.1-.32.16-.46.26-.8a79.85,79.85,0,0,0,3.11-17.92,78,78,0,0,0-4.69-32.46c-2.7-7.08-7-12.6-10.78-19-3.64-6.12-4.5-10.22-11.71-11.15-2.54-.31-11.69-.2-16.23,1.79a4.17,4.17,0,0,0-2.5,2.19c1.85-5.84,6.29-10.57,11.34-14s10.75-5.86,16.29-8.46a206.08,206.08,0,0,0,33.6-19.94,44.57,44.57,0,0,0,7.64-7.3c7.09-8.42,12.65-19.87,14.6-29.3.07-.37.15-.73.23-1.11,1.78-9.08,1.81-15.37,1-19.72-.05-.25-.09-.51-.15-.76s-.1-.45-.16-.67a12.66,12.66,0,0,0-3.41-6.43,1.14,1.14,0,0,0-.22-.22,6.48,6.48,0,0,0-3.69-1.74c.1-.3.22-.6.33-.88.19-.45.37-.89.56-1.31a11.26,11.26,0,0,1-1.74-.07c2.54-3.75,6.1-6.9,9.4-10.3l-1.62,2.36c2.66-2.4,5.79-4.54,9.31-8a20.57,20.57,0,0,1,1.53-7.19c.23-.54.45-1.07.69-1.59a59.09,59.09,0,0,1,4.12-7.21c1.78-2.76,3.66-5.59,5.59-8.47,7-10.47,14.48-21.62,19.56-33.28l-.91-.46c.39-1.1.75-2.21,1.05-3.32,1.71,1.73,3.25,4.21,5,5.54,3.13,2.37,6.34,4.63,9.4,7.09.07.06.16.12.23.19s.21.16.32.26c.79.62,1.57,1.26,2.35,1.91,1,.81,1.92,1.61,2.87,2.43.75.65,1.52,1.31,2.27,2,1.15,1,2.29,2,3.42,3.07.87.82,1.76,1.65,2.62,2.48.68.64,1.34,1.28,2,1.93,2,2,4,4,6,6a236.67,236.67,0,0,1,50.25,79.61C2408.48,981.88,2209.28,1056.92,2209.28,1056.92Z"/><path class="cls-20" d="M2247.52,829.26a45.22,45.22,0,0,1-.83,6.07A113.82,113.82,0,0,1,2242,851.9a90.19,90.19,0,0,1-7.95,16.49,61.94,61.94,0,0,1-6.56,8.8c-.53.59-1.08,1.16-1.68,1.71a35.36,35.36,0,0,1-18.67,8.84c-6.49.87-11.39-1.94-17.64-3.09a56.61,56.61,0,0,1-23.93-10.6A54.68,54.68,0,0,1,2153,860.69c0-1.93,0-3.87,0-5.81a91.2,91.2,0,0,1,1-16.52c1.14-6.81,2.34-13.37,3.48-19.87q1-5.73,1.92-11.43v0a289.71,289.71,0,0,0,3.77-35c.28.53,2.43,4.52,3,6.1a1.73,1.73,0,0,0,.08.27c.05.19.05.32,0,.36a.7.7,0,0,1,.1-.08c5.07-4.48,8.28-10.75,13.91-14.65a35.75,35.75,0,0,1,4.12-2.37,49.13,49.13,0,0,0,4.46-2.48,1.91,1.91,0,0,0,.37,1c.66.84,2,.44,3,0,5.88-2.57,15.62-5.71,23.06-4.42h0a12.7,12.7,0,0,1,6.44,2.93c3.33,3,5.19,8.18,8.47,11.52a44.76,44.76,0,0,0,6.37,5.39,71,71,0,0,1,3.47,9.71C2243.72,799.11,2248.58,814.8,2247.52,829.26Z"/><g class="cls-25"><path class="cls-12" d="M2247.52,829.26a45.22,45.22,0,0,1-.83,6.07A113.82,113.82,0,0,1,2242,851.9a90.19,90.19,0,0,1-7.95,16.49,45.94,45.94,0,0,1,1.92-14.14,127.93,127.93,0,0,0,5.62-36.14c.14-11.58-2.94-21.63-6.7-32.54-2.07-6-6.37-10.67-10.33-15.64-2.44-3-6.76-3.72-10.65-4-10.89-.87-22.49-.52-31.76,5.26a18.47,18.47,0,0,0-7,7.2c-3.8,7.76-1.95,19-3.24,27.47-1.63,10.62-4,21.11-5.57,31.74-1.84,12.06-2.76,24.49-.8,36.46A54.68,54.68,0,0,1,2153,860.69c0-1.93,0-3.87,0-5.81a91.2,91.2,0,0,1,1-16.52c1.14-6.81,2.34-13.37,3.48-19.87q1-5.73,1.92-11.43v0a289.71,289.71,0,0,0,3.77-35c.28.53,2.43,4.52,3,6.1a1.73,1.73,0,0,0,.08.27c.05.19.05.32,0,.36a.7.7,0,0,1,.1-.08c5.07-4.48,8.28-10.75,13.91-14.65a35.75,35.75,0,0,1,4.12-2.37,49.13,49.13,0,0,0,4.46-2.48,1.91,1.91,0,0,0,.37,1c.66.84,2,.44,3,0,5.88-2.57,15.62-5.71,23.06-4.42h0a12.7,12.7,0,0,1,6.44,2.93c3.33,3,5.19,8.18,8.47,11.52a44.76,44.76,0,0,0,6.37,5.39,71,71,0,0,1,3.47,9.71C2243.72,799.11,2248.58,814.8,2247.52,829.26Z"/></g><path class="cls-22" d="M2199.59,825.56c1.29,1.7,2.55,3.43,3.82,5.14l1.88,2.59,1.86,2.6c.16.2.31.46.47.7a4.37,4.37,0,0,1,.41.77,5.73,5.73,0,0,1,.33.81,5,5,0,0,1,.22.84,6.08,6.08,0,0,1-.33,3.45,6.74,6.74,0,0,1-2.11,2.82c-.24.17-.48.35-.73.51s-.53.28-.8.4a3.88,3.88,0,0,1-1.72.4c-.06-.16,0-.05,0-.08h0l0,0,0,0,.08-.06.18-.11.34-.22.63-.49.57-.52.51-.56a7.3,7.3,0,0,0,1.33-2.52,7.44,7.44,0,0,0,.27-2.73,4.08,4.08,0,0,0-.09-.69,3.37,3.37,0,0,0-.19-.67,4.16,4.16,0,0,0-.27-.66,7.27,7.27,0,0,0-.36-.65l-1.65-2.71-1.64-2.73c-1.07-1.83-2.17-3.65-3.22-5.49Z"/><path class="cls-21" d="M2239.76,805.42c-3.86-6.46-13.36-7.53-20.15-7.54-2,0-5.32,0-7.07,1.08-1.06.64-1.11,2.23-1.93,3.16,4.16,0,8.17.48,12.33.76,3.12.22,6.24.53,9.34.94C2233.68,804,2238.92,804,2239.76,805.42Z"/><path class="cls-21" d="M2151.94,817.14c1.64-7.15,11.17-11.8,17.44-14,3.15-1.09,7.56-3.08,10.23-.6,2.27,2.12-4.3,3.31-5.85,3.88-4.69,1.73-9.09,3.28-13.3,6C2158.93,813.4,2152.33,815.45,2151.94,817.14Z"/><path class="cls-26" d="M2162.78,824a22.26,22.26,0,0,0,2.43-.26q1.22-.18,2.43-.45a27.59,27.59,0,0,0,4.76-1.56c.78-.34,1.57-.69,2.33-1.11a9.58,9.58,0,0,0,2.1-1.55,9.76,9.76,0,0,0,1.61-2.07,6.88,6.88,0,0,0,.84-2.4l-.18-.07c-.61.61-1.17,1.17-1.75,1.69s-1.18,1-1.78,1.46l-1.84,1.38a16.31,16.31,0,0,1-2,1.31,23.72,23.72,0,0,1-2.14,1.07c-.73.34-1.47.65-2.23.93a35.45,35.45,0,0,1-4.63,1.44Z"/><path class="cls-26" d="M2233.51,811.89a43,43,0,0,1-5.53.67c-.92.06-1.84.09-2.75.08s-1.83,0-2.72-.12a17.39,17.39,0,0,1-2.63-.44l-2.54-.58c-.84-.19-1.67-.41-2.51-.68s-1.66-.59-2.56-.94l-.16.15a7.17,7.17,0,0,0,1.89,2.11,11.09,11.09,0,0,0,2.58,1.4,10.91,10.91,0,0,0,2.88.63c1,.08,2,.07,2.94.06a31.08,31.08,0,0,0,5.71-.61c.94-.19,1.86-.41,2.77-.66a27.41,27.41,0,0,0,2.7-.87Z"/><g class="cls-27"><circle class="cls-12" cx="2165.79" cy="845.7" r="14.55"/></g><g class="cls-27"><path class="cls-12" d="M2247.52,829.26a45.22,45.22,0,0,1-.83,6.07A113.82,113.82,0,0,1,2242,851.9a14.83,14.83,0,0,1-5.7,1.14,14.54,14.54,0,1,1,11.24-23.78Z"/></g><path class="cls-22" d="M2206.06,863.79a2.83,2.83,0,0,1-1,1.75,3.15,3.15,0,0,1-.55.38,7.57,7.57,0,0,1-4.17.91,6.16,6.16,0,0,1-4.1-1.56,4.38,4.38,0,0,1,1.6-6.69c3-1.12,6.75.91,7.95,3.75A3.21,3.21,0,0,1,2206.06,863.79Z"/><path class="cls-28" d="M2204.49,865.92a7.57,7.57,0,0,1-4.17.91,6.16,6.16,0,0,1-4.1-1.56,4.08,4.08,0,0,1-.82-3.75,15.18,15.18,0,0,1,8.35,3.63A4.93,4.93,0,0,1,2204.49,865.92Z"/><path class="cls-21" d="M2141.36,834.75c-3.12,12,1.42,25.19.65,37.82-.06.9-.13,1.81-.24,2.71a46.41,46.41,0,0,1-5.4,2.49c.06-1.13.1-2.28.18-3.38a112.32,112.32,0,0,0-.48-21.38c-.1,6.49-1.54,13.14-5.34,18.4a28.88,28.88,0,0,1-9,7.88c-3.89-.09-7.62-.4-8.83-1.19.39-.37.77-.75,1.13-1.13a47,47,0,0,0,8.49-11.64c10.66-21.1,10.86-44.7,11.86-67.62.09-1.67.16-3.36.38-5a20.88,20.88,0,0,1,.7-3.23,42.87,42.87,0,0,1,3.53-7.28c6.45-12,8.91-27.13,2.56-39.2a15,15,0,0,0-1.62-2.55,90.26,90.26,0,0,0-3.81-10.07,45,45,0,0,1,3.45-4.2c.86-.93,1.8-1.84,2.77-2.72,2.59,2.73,4.2,5.3,4.49,9.23,1.79,24.43,2.62,49.21-.21,73.47A211.17,211.17,0,0,1,2141.36,834.75Z"/><path class="cls-19" d="M2136.07,853a112.32,112.32,0,0,1,.48,21.38c-.08,1.1-.12,2.25-.18,3.38a29.88,29.88,0,0,1-3.69,1.16,88,88,0,0,1-11,.36,28.88,28.88,0,0,0,9-7.88C2134.53,866.15,2136,859.5,2136.07,853Z"/><path class="cls-19" d="M2236.53,775.63a44.76,44.76,0,0,1-6.37-5.39c-3.28-3.34-5.14-8.48-8.47-11.52-7-6.36-21.68-2-29.51,1.49-1,.43-2.31.83-3,0a1.91,1.91,0,0,1-.37-1,49.13,49.13,0,0,1-4.46,2.48,35.75,35.75,0,0,0-4.12,2.37c-5.63,3.9-8.84,10.17-13.91,14.65a.7.7,0,0,0-.1.08c.05,0,.05-.17,0-.36a1.73,1.73,0,0,1-.08-.27c-.55-1.58-2.7-5.57-3-6.1a289.71,289.71,0,0,1-3.77,35v0q-.91,5.7-1.92,11.43c-1.14,6.5-2.34,13.06-3.48,19.87a91.2,91.2,0,0,0-1,16.52c0,1.94,0,3.88,0,5.81-.06,3.72-.2,7.42-.24,11.13-.09,6.3-2.55,12.19-1.71,18.6,1.11,8.45,5.89,16.56,13.29,20.8a31.36,31.36,0,0,1-20.81-19.58,31,31,0,0,1-.9-16.86c-.3.18-.59.33-.89.5.11-.9.18-1.81.24-2.71.77-12.63-3.77-25.83-.65-37.82a211.17,211.17,0,0,0,5.25-28.6c2.83-24.26,2-49,.21-73.47-.29-3.93-1.9-6.5-4.49-9.23a76.46,76.46,0,0,1,19.18-12.15c4.18-1.93,12.65-2.6,18.53-4.14a24.57,24.57,0,0,0-4.51,4.33c-5.17,6.36-3.47,13.55.18,20.86a28,28,0,0,1,6.49-7.34c.42-.32.84-.62,1.28-.91a24.85,24.85,0,0,1,27.07,0c9.64,6.55,12.71,20.2,16.55,30.46C2229.71,761.56,2233.51,768.58,2236.53,775.63Z"/><path class="cls-19" d="M2182.66,722.3c.25.61.54,1.21.82,1.8-.44.29-.86.59-1.28.91a28,28,0,0,0-6.49,7.34c-3.65-7.31-5.35-14.5-.18-20.86a24.57,24.57,0,0,1,4.51-4.33h0a14.09,14.09,0,0,0,5.1-2.17C2180.3,708.94,2180.26,716.53,2182.66,722.3Z"/><path class="cls-24" d="M2093.76,957.77c-5.85-.37-12,2.12-18,6.38a83.59,83.59,0,0,0-12.06,10.68c-11.48,12.06-21.94,28-29.06,39.34-1,1.66-6.89,6.86-12.51,12.84-1.43,1.52-16,17.93-8.74,19-12.46-1.76-25.18-10-33.06-19.74-7.11-8.75-5.65-21.73-14.12-30.07a26.38,26.38,0,0,0-8.71-5.63c-1-.42-2-.82-3-1.25-19.43-8.26-31.13-17.77-32.94-62.56-1.09-27.09,27.9-52.66,52.65-69.44,6.31-4.29,12.34-8,17.54-11,6.68,12.18,17.85,29.42,32.76,41.57a76.36,76.36,0,0,0,9.12,6.45c-6.54,4.71-12.39,9.75-13.34,11.31-.8,1.33,2.84,6.64,8.31,13.13,8.46,10.06,21.26,23,28.67,28.33C2069.51,955.87,2115.13,959.14,2093.76,957.77Z"/><path class="cls-20" d="M2154.94,1043.21c-.79,1-4,3-3.57,4.48,0,0,2.73,8.92,0,12.57-4.16,5.52-15.49-.18-20.77-.06a20.38,20.38,0,0,1,1.56,5.94c.53,9.7-11.63,6.55-17.64,5.77a199.34,199.34,0,0,1-25.95-5c-13.68-3.63-36.07-31.53-36.07-31.53s-20.6-4.19-30.36-8.38c5.62-6,11.47-11.18,12.51-12.84,7.12-11.31,17.58-27.28,29.06-39.34,7.51,1.68,16.17,1.27,19.14.53,4.86-1.21,37.6-6.68,37.6-6.68s25.17,12.75,20.1,20-20.1.93-23.75,0c-1.84-.48,2.39,7,2.7,7.56,3.21,5.29,6.86,10.54,11.71,14.47,2.32,1.87,5.32,4,8.29,4.64,4,.84,8.64.88,8.59,6.11,0,2.11-1.41,7.87-4.43,7.23,6.24,1.32,10.68.38,12.79,7.67C2157.26,1039.2,2156.82,1040.88,2154.94,1043.21Z"/><path class="cls-17" d="M2212.75,1037.88a79.85,79.85,0,0,1-3.11,17.92c-.41.46-.85.9-1.3,1.32-2-3.29-4.84-5.71-7-8.81-3.18-4.52-5-10.26-7.67-15.14a184.17,184.17,0,0,0-18.87-28.31c-3.95-4.9-8.34-10-9.11-16.23a15.26,15.26,0,0,1,3.68-11.57c4.54-2,13.69-2.1,16.23-1.79,7.21.93,8.07,5,11.71,11.15,3.8,6.4,8.08,11.92,10.78,19A78,78,0,0,1,2212.75,1037.88Z"/><path class="cls-20" d="M2212.75,1037.88c-1.44.53-2.88,1-4.34,1.53-10.25,3.44-21.14,4.93-31.31,8.35-7.62,2.57-13.27,8.17-21.68,9.58-16.17,2.7-44.59-5.6-52.2-21.54-2.79-5.86-2.68-12.64-2.23-19.11a34.26,34.26,0,0,1,2-10.64c7.14-17.46,35.62-12.82,50.11-11.91,1.79.11,3.62.26,5.42.54,9.61-4.5,20.21-5,28.74-11.2a39.91,39.91,0,0,0,4.37-3.53C2210.83,999.61,2213.72,1022.27,2212.75,1037.88Z"/><path class="cls-29" d="M2128.92,1060.76a22.35,22.35,0,0,1-18.74-7.22"/><path class="cls-29" d="M2150.73,1047.36a95,95,0,0,1-30.89,2"/><path class="cls-29" d="M2146.5,1028.62a61.12,61.12,0,0,1-22.4,0"/><path class="cls-23" d="M2516.42,1541.28c9.25-.7,19.07-3.58,24.83-4.69,9.25-1.78,18.69-2.8,27.94-4.58-.7-11.37,1.11-24.51-9.89-31.1-8.75-5.23-19.35-4.8-29.17-4.49-7.23.23-21.51-.06-25.19,8-4.27,1-7.37,4.86-8.65,9-1.62,5.29-3.45,16.75-.08,21.56C2500.27,1540.76,2508.12,1541.9,2516.42,1541.28Z"/><g class="cls-30"><path class="cls-23" d="M2093.76,957.77c-5.85-.37-12,2.12-18,6.38,2-1.43-15.08-6.92-16-7-7.15-1-14.62-2-21.93-3.46-16.23-3.16-32.61-6.1-48.22-11.68-14.81-5.3-28.25-24.86-44.94-11.35l30.09-24.36c4.2-3.39,8.6-7.08,10.21-12.24s.12-10.52-1.34-15.62c-1.75-6.18-6.45-13.75-9.42-21.12,6.31-4.29,12.34-8,17.54-11,6.68,12.18,17.85,29.42,32.76,41.57a76.36,76.36,0,0,0,9.12,6.45c-6.54,4.71-12.39,9.75-13.34,11.31-.8,1.33,2.84,6.64,8.31,13.13,8.46,10.06,21.26,23,28.67,28.33C2069.51,955.87,2115.13,959.14,2093.76,957.77Z"/></g><path class="cls-17" d="M2028.64,918.71a3.47,3.47,0,0,1-3.1.87,326.72,326.72,0,0,0-30.9-53.05,74.32,74.32,0,0,0,29.91,21.29,76.36,76.36,0,0,0,9.12,6.45c-6.54,4.71-12.39,9.75-13.34,11.31C2019.53,906.91,2023.17,912.22,2028.64,918.71Z"/><g class="cls-30"><path class="cls-23" d="M2328.21,822.73a96.4,96.4,0,0,1-17.47,20c-7.94,7-22.78,13-28.49,21.6-5.24,7.84-6.45,20.23-11.54,28.9a107.83,107.83,0,0,1-35,36.3c-.94.6-1.87,1.18-2.83,1.74,8.56-10.6,15.47-21.57,17.43-31,.07-.37.15-.73.23-1.11,1.35-6.71,2.47-14.2.75-20.9l-.07-.25a14,14,0,0,0-3.41-6.43,1.14,1.14,0,0,0-.22-.22,18.43,18.43,0,0,0-3.36-2.62c-.47-.3-1-.61-1.49-.92l-1.08-.61,0-.08c.43.09.9.17,1.35.23,2.54-3.75,6.1-6.9,9.4-10.3l9.91-14.44a59.09,59.09,0,0,1,4.12-7.21c1.78-2.76,3.66-5.59,5.59-8.47,7-10.47,14.48-21.62,19.56-33.28,1.07.55,2.13,1.11,3.17,1.68a83.48,83.48,0,0,1,11.6,7.36c.1.08.21.16.32.26l1,.77c.46.38.92.75,1.38,1.14,1,.81,1.92,1.61,2.87,2.43.75.65,1.52,1.31,2.27,2,1.15,1,2.29,2,3.42,3.07.87.82,1.76,1.65,2.62,2.48.68.64,1.34,1.28,2,1.93C2324.28,818.68,2326.25,820.69,2328.21,822.73Z"/></g><path class="cls-19" d="M2245.34,780.38a42.8,42.8,0,0,1-8.81-4.75c-3-7-6.82-14.07-9.43-21-3.84-10.26-6.91-23.91-16.55-30.46a24.85,24.85,0,0,0-27.07,0c-.44.29-.86.59-1.28.91a28,28,0,0,0-6.49,7.34c-3.65-7.31-5.35-14.5-.18-20.86a24.57,24.57,0,0,1,4.51-4.33h0c13.69-10.18,36-5,44.89,9,4.5,7.1,6.81,15.33,9,23.42Q2239.66,760,2245.34,780.38Z"/><path class="cls-22" d="M2045,800.59c-1,3.34-2,6.69-3,10l-1.42,5-1.39,5c-.12.4-.22.88-.32,1.34a9.77,9.77,0,0,0-.2,1.41,8.55,8.55,0,0,0,0,1.43,9.61,9.61,0,0,0,.13,1.42,10,10,0,0,0,2.46,5.1,11.19,11.19,0,0,0,4.82,3.13c.48.12.94.26,1.42.36s1,.14,1.44.18a6.4,6.4,0,0,0,2.87-.37c0-.27,0-.08,0-.14h-.07l-.08,0-.17,0-.33-.08-.65-.14-1.24-.39-1.17-.48-1.09-.57a11.88,11.88,0,0,1-3.47-3.12,12,12,0,0,1-2-4,9.09,9.09,0,0,1-.34-2.25,6.32,6.32,0,0,1,0-1.15c.06-.39.09-.77.18-1.21l1-5.09,1-5.11c.61-3.41,1.26-6.81,1.84-10.23Z"/><path class="cls-21" d="M1980.52,785.9c2.57-9.53,15.61-15.31,24.16-17.93,4.28-1.31,10.32-3.77,13.78-.3,4,4-4.08,5.32-6.37,6.13-6.59,2.34-13.28,4.59-19.77,7C1990.94,781.3,1980.89,784.54,1980.52,785.9Z"/><path class="cls-21" d="M2104.53,755.66c-6.84-7.11-21.05-5.89-29.8-4-4.39.92-10.86,1.67-12.22,6.38-1.55,5.4,6.14,2.69,8.54,2.3,6.9-1.14,13.84-2.38,20.69-3.42C2093.19,756.65,2103.56,754.65,2104.53,755.66Z"/><path class="cls-22" d="M2076.7,782.72a7.22,7.22,0,0,0,9.77.16,6.24,6.24,0,0,0,.26-9.2,7.22,7.22,0,0,0-9.78-.16A6.24,6.24,0,0,0,2076.7,782.72Z"/><path class="cls-22" d="M2005.51,796a7,7,0,0,0,9.39,2.24,6.45,6.45,0,0,0,2.46-9A7,7,0,0,0,2008,787,6.45,6.45,0,0,0,2005.51,796Z"/><path class="cls-26" d="M2097.41,768a32.38,32.38,0,0,0-3.41-.59c-1.15-.14-2.32-.24-3.49-.31a38.54,38.54,0,0,0-7.1.29c-1.19.17-2.39.33-3.59.61a13.41,13.41,0,0,0-3.46,1.31,14.22,14.22,0,0,0-3,2.2,9.63,9.63,0,0,0-2.06,3l.21.16c1.07-.59,2-1.15,3-1.64s2-.9,3-1.3l3-1.17a21.46,21.46,0,0,1,3.18-1,33.18,33.18,0,0,1,3.33-.64c1.12-.18,2.25-.32,3.39-.41a52.61,52.61,0,0,1,6.88-.18Z"/><path class="cls-26" d="M1993.11,788a56,56,0,0,1,7-2c1.18-.27,2.36-.5,3.55-.69s2.36-.34,3.54-.43a23.89,23.89,0,0,1,3.49,0l3.4.2c1.12.07,2.25.18,3.39.34s2.27.42,3.51.68l.17-.24a9.4,9.4,0,0,0-2.89-2.32,14.18,14.18,0,0,0-3.63-1.25,13.9,13.9,0,0,0-3.86-.21c-1.29.11-2.56.33-3.81.55a40.61,40.61,0,0,0-7.26,2c-1.16.44-2.31.92-3.44,1.44a36.52,36.52,0,0,0-3.29,1.7Z"/><path class="cls-22" d="M2087,853.1c0,8.66-3.46,17.69-12,21.3a18.59,18.59,0,0,1-13.09.53,12.81,12.81,0,0,1-1.92-.87,6.79,6.79,0,0,1-1.37-1.3c-3-3.47-8.8-12.26-8.82-12.25,11.41-6.82,23.37-12.74,34.67-19.79a27.57,27.57,0,0,1,2.26,7.9A33.16,33.16,0,0,1,2087,853.1Z"/><path class="cls-28" d="M2087,853.1c0,8.66-3.46,17.69-12,21.3a18.59,18.59,0,0,1-13.09.53A161.18,161.18,0,0,1,2087,853.1Z"/><path class="cls-12" d="M1911.66,892.52c-.72.38-1.46.72-2.21,1,1.72,5.9,3.24,11.82,4.48,17.67q-2.13-5-4.51-9.86c-1.21-2.49-2.93-4.68-3.25-6.64-.25-1.48.29-2.83,2.4-4.1l0,0c4.23-2.5,8.59-4.67,13-6.86C1921.29,887.81,1916.08,890.19,1911.66,892.52Z"/><path class="cls-12" d="M2133.69,780.15a65,65,0,0,0,6.54-13.91c1.47-4.4,2.4-9.44.22-13.54-1.38-2.59-5.18-4.43-7.14-2.25-.9,1-1.25,2.68-2.57,2.95C2129.72,762.05,2133.18,771.45,2133.69,780.15Z"/><g class="cls-31"><path class="cls-12" d="M2035.62,895.83c-19.18-10.29-33.65-31-43.83-49.58-1.36-2.47-2.53-4.74-3.53-6.71,13.3,5.52,23.75,17.63,31.75,30C2025.29,877.74,2029.87,887.36,2035.62,895.83Z"/></g><path class="cls-21" d="M2165.89,718.93l-9,14.85a36.45,36.45,0,0,1,24.84-15.64c6.09-.86,12.36-.15,18.38-1.43a52.55,52.55,0,0,0-7.83-.52c-2.81,0-5.68.25-8.4-.48-5.74-1.56-9.47-7-12.31-12.24-2.6-4.79-5.44-11.42-10.67-13.81C2163.6,701.31,2173.92,705.74,2165.89,718.93Z"/><path class="cls-21" d="M2165.72,775.41a19.19,19.19,0,0,0,.45,2.73c-.55-1.58-2.7-5.57-3-6.1a289.71,289.71,0,0,1-3.77,35c.75-12.58,2.21-25.09,2.57-37.65.18-6.1-1.47-11.57-.92-17.67.33-3.6,2.55-8.58,2.2-12,.47,4.58,1.21,9.19,1.28,13.8C2164.67,761,2164.88,767.92,2165.72,775.41Z"/><path class="cls-21" d="M2166.25,778.77c.05,0,.05-.17,0-.36a2.31,2.31,0,0,0,.1.28A.7.7,0,0,0,2166.25,778.77Z"/><path class="cls-32" d="M2187.86,733.88c-.43,4.92,2.41,13.21-.42,17.43C2186.77,745.65,2187.36,739.55,2187.86,733.88Z"/><path class="cls-21" d="M2188.8,733.09c-.2,3.61-.54,7.22-1,10.81,0-2.22.15-4.43.28-6.64A13,13,0,0,1,2188.8,733.09Z"/><path class="cls-21" d="M2190.35,758.07a32.1,32.1,0,0,1-6,3.6,149.34,149.34,0,0,0,3.42-17.77,41.92,41.92,0,0,0,.48,7.43A25.45,25.45,0,0,0,2190.35,758.07Z"/><path class="cls-21" d="M2252.83,829.6c-3.16,9.1-3.81,18.86-3.87,28.42,0,.86,0,1.68,0,2.5a48.65,48.65,0,0,0-5.9,6.79c-.45-.06-.92-.14-1.35-.23l0,.08,1.08.61a20,20,0,0,0-2.14,4.23c-1.12,3-.38-2.92-2.77-.76a13.78,13.78,0,0,0-2.38-5.23A92.23,92.23,0,0,0,2242,851.9a113.82,113.82,0,0,0,4.71-16.57,45.22,45.22,0,0,0,.83-6.07c1.06-14.46-3.8-30.15-7.52-43.92a71,71,0,0,0-3.47-9.71,44.76,44.76,0,0,1-6.37-5.39c-3.28-3.34-5.14-8.48-8.47-11.52a12.7,12.7,0,0,0-6.44-2.93,11,11,0,0,0,1.07-1c1.91-2.06,3.16-5.16,5.9-5.8a5.42,5.42,0,0,1,5.18,2.16,13.5,13.5,0,0,1,2.25,5.44c2,8.35,4.06,17.37,12.26,21.45.4-4,.25-8.17.32-12.21,3.82,7.24,7.7,14.67,8.87,22.78C2253,801.83,2257.27,816.81,2252.83,829.6Z"/><path class="cls-21" d="M2280,814.87c-2.61,4.09-5.29,8.11-7.91,12-1.32,2-2.64,3.94-3.9,5.88,8.17-22.42,10.79-47.17,2.78-69.47C2281.11,778.15,2284.21,797.43,2280,814.87Z"/><path class="cls-14" d="M2548.06,1609.32c-19.77,4-32.94,6.15-36.9,0-2.91-4.52-.13-15.19,1.55-20.54.62-1.94,1.08-3.18,1.08-3.18s-20.8-28.28-17.94-51.19A26.63,26.63,0,0,1,2504,1518c23.45-22.4,54.2-8.78,61.67,6.15a39.44,39.44,0,0,1,2.83,8c4,16,2.45,38.52,2.45,38.52l1.11,1.21c2.38,2.62,7.93,9,10.31,13.73C2585.4,1591.75,2567.83,1605.37,2548.06,1609.32Z"/><path class="cls-15" d="M2548.06,1609.32c-19.77,4-32.94,6.15-36.9,0-2.91-4.52-.13-15.19,1.55-20.54a105.47,105.47,0,0,0,59.31-16.91c2.38,2.62,7.93,9,10.31,13.73C2585.4,1591.75,2567.83,1605.37,2548.06,1609.32Z"/><path class="cls-17" d="M2464,1459.47a64.48,64.48,0,0,0-13.31,16.45c-1.19,0-1.49-2.14-.33-2.45-15.17-8.64-28.16-20.76-40.43-33.18-5.66-5.72-11-11.83-17.34-16.77-17.49-13.6-25.45-24.6-35.19-45.22-10.91-23.09-20.74-46.71-31.07-70.25a58.52,58.52,0,0,0,1-10.84c5.46,26.53,37.24,55.28,54.32,76.34C2406.57,1404.25,2435.8,1431.72,2464,1459.47Z"/><path class="cls-22" d="M2126.84,739.24q-.3,10.39-.63,20.81c-.08,2.61-.23,5.41-1.48,7.65a8.11,8.11,0,0,1-.63.94c-.07-.36-.13-.71-.2-1.07-1.24-6.37-3-12.75-6.58-18.17s-8.87-9.71-14.27-13.69l-.09-.07c-3.4-2.51-6.87-4.95-10.06-7.63-1.15-1-2.26-2-3.34-3a130.48,130.48,0,0,1,28.12,14.87,84.86,84.86,0,0,0,2-28.8c.56,1.07,1.1,2.15,1.63,3.22,1.94,3.86,3.9,7.76,4.84,12S2127,734.89,2126.84,739.24Z"/><path class="cls-22" d="M1988.18,724.24l.67.12c-.47.1-.93.2-1.39.32a41.46,41.46,0,0,0-10.6,9c-1.26,4.85.2,10.67.73,15.47.83,7.5,3.83,15.53,2,23.11-.89,3.62-2.32,7.2-2.12,10.92a25.51,25.51,0,0,0,1.68,6.86c1.61,4.66,3.54,9.31,4.88,14,.52,1.87,0,10.61.79,11.37a64.49,64.49,0,0,1-6-6.77c0,.5,0,1,0,1.48a5.88,5.88,0,0,0-.33-1.93q-1.4-1.83-2.67-3.75a14.38,14.38,0,0,0-2.09-1.48c-2.71-1.56-5.78-2.49-8.3-4.34-3-2.23-4.94-5.61-6.65-9a49.27,49.27,0,0,1-2.82-6.69,14.88,14.88,0,0,1,10.44,2.3c3.05,2,5.71,4.89,8.53,8,1.09,1.23,2.23,2.58,2.34,4.22-.35-5.7-3.39-10.76-3.36-16.9a91.32,91.32,0,0,1,1.33-13.5c.22-1.45.45-2.91.66-4.35.9-6-1.09-12-3.67-17.8-1.7-3.83-3.67-7.56-5.24-11.09-.77-1.74-1.56-3.64-1.11-5.5C1967.43,721.83,1979.71,722.87,1988.18,724.24Z"/><path class="cls-22" d="M2074.67,681.53c-.34,5.31-1.93,10.5-2.86,15.88-.29-.82-.56-1.65-.82-2.49a48.83,48.83,0,0,0-32.8,14.46c-.08.07-.16.16-.23.23l-.8.8c.13-.26.27-.51.39-.76,2-3.83,3.81-7.77,6.84-10.89a76.81,76.81,0,0,1,17-13.59C2065.07,683.05,2070.3,680.4,2074.67,681.53Z"/><path class="cls-21" d="M1949.77,1099.64c-.48.74-1,1.46-1.42,2.15a66.44,66.44,0,0,1-4.39,6.15c-9.33,9.52-20.14,17.92-30.1,26.76l-3.09,2.73c-11.43,10.07-23.19,20-36.93,26.51-22.42,10.65-48.41,11.37-73,7.88-6.12-.88-11-4.07-16.67-6.12-7.17-2.58-14.81-4.19-22.15-6.25l-48.74-13.64a13.53,13.53,0,0,0-5.82-.74c-3.22.55-5.53,3.27-8.06,5.34-6.52,5.29-17,6.82-25.13,6.57a77.66,77.66,0,0,1-24.19-5c-3.58-1.31-7.1-2.83-10.52-4.48-6.56-3.19-11.45-8.17-15.48-14.19a38.81,38.81,0,0,1-5.51-12.51c-.46-2,.25-10.07-.6-11.11,9.76,12,30.11.62,35.27-10.82,7.88-17.51-2.08-28.47-3.13-46.2-.55-9.09,2.56-18,6.16-26.36a221.18,221.18,0,0,1,13.66-26.73c3-5.11,6.35-10.18,8-15.89a36.91,36.91,0,0,0,1-14c-1.67-15.82-11-29.81-14.72-45.29-3.63-15.12-1.67-31.34,4.43-45.65,6.46-15.16,16.29-28,25.31-41.72,7.59-11.54,12.57-24.35,20.87-35.59,8.64-11.72,20.14-22,34.17-25.89,7-2,15.72-1.48,22.18-5,4.66-2.54,7.69-6.8,12.62-9.2,13.31-6.51,29.13-5.88,42.54,0,10.09,4.44,20.6,0,29.78,8.32,5.42,4.89,5.71,10.37,13.81,11.6.59,4.64-3.83,8.6-8.4,9.61-7.28,1.59-13.29-.39-13.5,9.72-.19,8.77,2.78,11,6.19,18.18,1.74,3.69,2.4,7.77,3.25,11.75,4.45,21,14.27,40.49,24,59.67,4.14,8.17,9.35,21.69,9.29,30.45-.1,15.07-4.63,30.82-5.91,46.16-.08,1-.15,2.08-.2,3.11a103.29,103.29,0,0,0,.75,21.81c1.19,7.49,3.72,14.54,8.55,20.35,11.34,13.63,33.75,18.33,38.18,35.51,3.06,11.94-3.65,27.43,5.79,35.35,5.17,4.35,12.75,3.77,19.44,2.94C1958.37,1085.78,1953.88,1093.31,1949.77,1099.64Z"/><path class="cls-33" d="M1778.94,2338.49c.12,5.46-40.89,198.67-40.89,198.67l76.5,48.4,91.84-247.07H1778.94"/><path class="cls-14" d="M1985.33,2589.66c-18.73,7.9-35.71,17.43-53.5,27-24.7,3.07-48.81,6.49-73.4.55s-46.34-22.17-68.25-33.71c-21.44-11.3-79.67-33.75-87.09-57.43-.16-.51-.3-1-.41-1.54-5.3-24.24,31.16-69,51.5-76.08,11.4,22.65,22.55,49.38,45.91,60.45s38.55,5.55,59.52-4.72c14.55,19.22,20.76,40.52,43.59,54.27,16.45,9.89,47.35,2.3,65.5,8.44,17,5.75,12.77,8.12,15.89,20.23h0C1984.81,2587.91,1985,2588.76,1985.33,2589.66Z"/><path class="cls-34" d="M1888,2560.44c-1.42,1.66-2.55,4.54-.5,6.25s4.48-.08,5.7-1.86,2.33-4.4.52-6S1889.45,2558.79,1888,2560.44Z"/><path class="cls-34" d="M1879.91,2552.05c-1.6,1.58-2.75,4.42-.91,6.29s4.39.62,5.92-1.06,2.61-4.41.85-6.26S1881.5,2550.46,1879.91,2552.05Z"/><path class="cls-34" d="M1872.42,2542.76c-1.8,1.58-3.1,4.21-1.44,6.32s4.48,1.36,6.23-.24,3.06-4.25,1.44-6.32S1874.23,2541.19,1872.42,2542.76Z"/><path class="cls-34" d="M1864.94,2532.86c-1.85,1.5-3.33,4.25-1.67,6.39s4.45,1.4,6.27-.16,3.17-4.23,1.6-6.38S1866.78,2531.36,1864.94,2532.86Z"/><path class="cls-34" d="M1856.85,2522c-2,1.59-3.16,4.3-1.51,6.55s4.68,2,6.73.36,3.22-4.37,1.51-6.59S1858.89,2520.38,1856.85,2522Z"/><path class="cls-15" d="M1897.32,2552c.84.64,1.66,1.3,2.48,2-2.4,2.91-5,6.1-7.37,8.88a2.92,2.92,0,0,1-2.15,1.29c-.38.08-.55.06-.71-.26-.58-1.21-.54-1.74.48-3C1892.22,2558.12,1895,2554.89,1897.32,2552Z"/><path class="cls-15" d="M1889.83,2544.62c.76.8,1.48,1.62,2.2,2.44-2.6,2.61-5.31,5.54-7.77,8.14a2.53,2.53,0,0,1-2.28,1c-.37,0-.56,0-.69-.39-.48-1.27-.63-1.93.54-3.16C1884.26,2550.06,1887.29,2547.26,1889.83,2544.62Z"/><path class="cls-15" d="M1883.14,2535.9c.69.94,1.34,1.89,2,2.85-2.72,2.61-5.6,5.51-8.39,7.91a2.53,2.53,0,0,1-2.46.67c-.38,0-.56-.12-.67-.48-.42-1.37-.45-2,.82-3.16C1877.18,2541.22,1880.44,2538.57,1883.14,2535.9Z"/><path class="cls-15" d="M1876.68,2525.75c.68,1.06,1.32,2.14,2,3.22-3.15,2.56-6.51,5.37-9.57,7.88a2.55,2.55,0,0,1-2.48.65c-.39-.05-.58-.13-.67-.51a2.51,2.51,0,0,1,1-3.17C1869.94,2531.22,1873.52,2528.39,1876.68,2525.75Z"/><path class="cls-15" d="M1869.57,2514.39c.8,1.2,1.57,2.41,2.34,3.63-3.37,2.84-6.88,5.87-10.33,8.48a2.62,2.62,0,0,1-2.65.46c-.4-.08-.61-.19-.72-.57-.42-1.41-.44-2.11.89-3.22C1862.47,2520.38,1866.19,2517.33,1869.57,2514.39Z"/><path class="cls-15" d="M1985.54,2610.6c-39.82,13.05-75.68,24.53-119.1,18.51-19.08-2.65-58.07-19.11-73-26.6-33.7-16.86-56.68-33-85.92-51.15-10-6.15-23.26-10.2-11.48-21.52a13.14,13.14,0,0,1,7.1-3.79c8.5-1.37,17.21,7,24.59,11.82,15.12,9.84,31.69,20.73,47,30.09,29.11,17.75,64.21,34.64,96.33,40.25,46.31,8.07,71.87-11.38,113.54-21.1h0l1.07-.25C1995.24,2595,2001.4,2605.39,1985.54,2610.6Z"/><path class="cls-16" d="M1985.54,2610.6c-39.82,13.05-75.68,24.53-119.1,18.51-19.08-2.65-58.07-19.11-73-26.6-33.7-16.86-56.68-33-85.92-51.15-10-6.15-23.26-10.2-11.48-21.52a13.14,13.14,0,0,1,7.1-3.79c-.16-.51-.3-1-.41-1.54-5.3-24.24,31.16-69,51.5-76.08,11.4,22.65,22.55,49.38,45.91,60.45s38.55,5.55,59.52-4.72c14.55,19.22,20.76,40.52,43.59,54.27,16.45,9.89,47.35,2.3,65.5,8.44,17,5.75,12.77,8.12,15.89,20.23l1.07-.25C1995.24,2595,2001.4,2605.39,1985.54,2610.6Z"/><path class="cls-20" d="M1952.8,2538.55c-29.68,7.3-53.38,10.09-84.32,10.63-4.52.09-55.16-1-55.16,4.86,0,0,.75-25.65,1.65-56.43.59-20.11,1.26-42.43,1.81-61.25.72-24.62,1.27-43.3,1.27-43.3l89.21-76,32.43-27.66q-2.43,26.72-4.83,53.42-2,21.81-3.9,43.63c-2,22-5.48,45.6-6.42,68.94a240.83,240.83,0,0,0,.16,24.64c.58,9.33,1.67,18.86,4.39,27.73v0C1932.85,2520.05,1939.75,2531.09,1952.8,2538.55Z"/><path class="cls-14" d="M2082.91,2597.43c-2.86-11.64,2.75-16.35-15-22.79s-56.41-7.4-75.13-17.63c-26-14.2-43.58-31.22-64.13-49.63-14.86,17.41-29.32,27-55.2,25.37s-45.24-21.85-63.53-40.19c-17,8.5-35.1,70.55-24.15,89.09s78.12,21.2,100.52,24.94,47.81,14.66,71.27,16.74,47.36-1.18,70.76-2.53C2046.59,2612.64,2063.85,2604.67,2082.91,2597.43Z"/><path class="cls-34" d="M1977,2559.81c-1.23,2.26-1.3,5.46,1,7s4.92,0,6.15-2.27,1.28-5.42-1.06-7S1978.19,2557.56,1977,2559.81Z"/><path class="cls-34" d="M1965.58,2551.9c-1.33,2.24-1.41,5.46.9,7.08s4.94.21,6.25-2,1.44-5.42-.86-7S1966.91,2549.67,1965.58,2551.9Z"/><path class="cls-34" d="M1954.26,2543.71c-1.41,2.23-1.59,5.39.73,7.09s5.07.47,6.44-1.82,1.53-5.39-.75-7.08S1955.66,2541.48,1954.26,2543.71Z"/><path class="cls-34" d="M1942.83,2535.18c-1.45,2.24-1.56,5.45.75,7.17s5.05.53,6.5-1.74,1.55-5.45-.75-7.16S1944.29,2532.93,1942.83,2535.18Z"/><path class="cls-34" d="M1931,2526.39c-1.51,2.3-1.54,5.45.8,7.18s5.2.71,6.73-1.6,1.47-5.49-.87-7.22S1932.56,2524.1,1931,2526.39Z"/><path class="cls-15" d="M1985.07,2549.85c1.18.7,2.35,1.4,3.53,2.12-1.91,3.42-4,7.21-5.84,10.5a2.36,2.36,0,0,1-2.17,1.43.85.85,0,0,1-.84-.28,2.53,2.53,0,0,1-.45-3.43C1981,2557,1983.24,2553.2,1985.07,2549.85Z"/><path class="cls-15" d="M1973.92,2542.38c1.15.79,2.28,1.59,3.42,2.4-1.93,3.27-4.07,6.9-6,10a2.31,2.31,0,0,1-2.21,1.34.91.91,0,0,1-.85-.31,2.56,2.56,0,0,1-.37-3.47C1969.75,2549.26,1972.05,2545.64,1973.92,2542.38Z"/><path class="cls-15" d="M1963.05,2534c1.12.88,2.22,1.77,3.33,2.66-2.06,3.29-4.27,7-6.28,10.14a2.29,2.29,0,0,1-2.28,1.27.92.92,0,0,1-.85-.34,2.54,2.54,0,0,1-.32-3.49C1958.61,2541.07,1961,2537.37,1963.05,2534Z"/><path class="cls-15" d="M1952.23,2524.92c1.13.95,2.24,1.91,3.35,2.88-2.25,3.45-4.66,7.27-6.85,10.61a2.31,2.31,0,0,1-2.32,1.24.93.93,0,0,1-.86-.36,2.55,2.55,0,0,1-.3-3.51C1947.37,2532.34,1950,2528.44,1952.23,2524.92Z"/><path class="cls-15" d="M1941.11,2515.13c1.17,1,2.33,2,3.49,3.07-2.42,3.78-5,7.92-7.47,11.52a2.38,2.38,0,0,1-2.39,1.19,1,1,0,0,1-.89-.37,2.52,2.52,0,0,1-.32-3.5C1935.92,2523.27,1938.67,2519,1941.11,2515.13Z"/><path class="cls-15" d="M1892.78,2623.66c13.74,2.35,57.09,9.64,74.77,10.6,40.21,2.18,76-5.53,114.54-16.11,15.37-4.21,11.79-14.73,1.18-23.62-43.24,9.72-64.11,21.12-113.93,18-34.27-2.14-68.24-8.63-101.82-15.5-17.7-3.63-35.34-7.54-53-11.49-11-2.47-26-10.19-32.56,2.84-7.37,14.51,8,14.06,18.38,16.44C1831,2611.83,1861.85,2618.36,1892.78,2623.66Z"/><path class="cls-18" d="M1994.32,1598.11S1979,2202,1932.83,2313.63s-64.71,113.29-64.71,113.29-113.65-6.57-105.91-30.82,39.89-385.66,51.1-434.17-20-363.82-20-363.82Z"/><path class="cls-12" d="M1934.86,2342.79q-2,21.81-3.9,43.63c-2,22-5.48,45.6-6.42,68.94-31.63,10.29-67.74,6.13-96.08-11.33-3.88-2.39-7.76-5.06-11.68-7.67.72-24.62,1.27-43.3,1.27-43.3l89.21-76a81.08,81.08,0,0,1,19.84,16A101.87,101.87,0,0,1,1934.86,2342.79Z"/><path class="cls-13" d="M1932.83,2403.37c-40.86,42.46-129.32,14.55-129.32,14.55s4-408.69-60.43-543.31a753.1,753.1,0,0,1-37.24-94.4c-32.1-99.79-39-183.87-39-183.87s180.64-47.8,200-56.76a11.84,11.84,0,0,0,1.2-.64c.61-.39,1.38.49,2.3,2.51,5.45,12,16.21,64.57,28.14,130.24,22.22,122.29,48.56,290.09,52.56,326.62C1957.63,2057.73,1973.7,2360.93,1932.83,2403.37Z"/><path class="cls-23" d="M1778.56,1661.47q7.07,45.48,17.57,90.3c6.8,29.91,14.35,59.65,21.85,89.4,3.75,14.87,7.48,29.76,11,44.69s7,29.89,10.25,44.9q9.66,45,16.66,90.59c4.7,30.36,8.22,60.88,11,91.45,1.49,15.29,2.49,30.61,3.57,45.93l1.21,23,.27,5.75.18,5.76.36,11.51.36,11.51.15,11.51.15,11.51.06,5.76,0,5.75-.13,23-.55,23c-1.07,30.68-2.88,61.33-5.72,91.88a1661.7,1661.7,0,0,0,3.41-183.88l-.47-11.49-.23-5.75-.32-5.73-1.29-23c-1.13-15.29-2.17-30.58-3.7-45.83-2.91-30.52-6.53-61-11.29-91.25s-10-60.49-16.36-90.48-13.66-59.79-20.84-89.61-14.54-59.63-21-89.63c-1.66-7.49-3.14-15-4.7-22.54l-2.18-11.3-1.09-5.65-1-5.66C1782.9,1691.85,1780.65,1676.67,1778.56,1661.47Z"/><path class="cls-22" d="M1948.37,1102.32a70.73,70.73,0,0,1-4.39,6.15c-9.34,9.52-20.14,17.92-30.11,26.76l-3.09,2.73c-5.77-1.09-10.88-4.57-15.57-8.16-24-18.36-43.7-42.93-53.21-71.57s-8.11-61.4,6.82-87.63c2.29-4,5.1-8.08,9.32-10,3.5-1.6,7.53-1.53,11.35-1.06,5.52.68,10.56,4,15.36,7.83-.09,1-.16,2.08-.2,3.11a103.29,103.29,0,0,0,.74,21.81c-.14.15-.27.29-.4.45-6.24,7.24-11.67,15.67-12.91,25.15s2.66,20.12,11.16,24.51c10,5.13,23.94,1.13,31.76,9.17,4.92,5.06,5.2,12.87,5.64,19.94.62,10,1.89,26.28,12.67,30.39C1938.08,1103.72,1943.34,1103.5,1948.37,1102.32Z"/><path class="cls-22" d="M1674.66,1117.33l4.22-.48c-.2.28-.39.56-.59.83a307.29,307.29,0,0,1-28.21,34.35c-3.58-1.31-7.1-2.83-10.52-4.48-6.56-3.19-11.45-8.17-15.48-14.19a38.09,38.09,0,0,1-2.8-4.9c14.68,2.12,30.67-6,36.84-19.62.53-1.18,1-2.4,1.41-3.62,5.1-15.44,15.61-28.38,25.15-41.66,3.21-4.47,7.61-7.91,11.32-12,9.59-10.47,14.22-24.72,15.5-38.87s-.53-28.36-2.33-42.44a63.75,63.75,0,0,0,10,34.48c3.25,5.08,7.26,9.72,9.77,15.21,6.8,14.8,1.18,32.92-9.49,45.23-9.34,10.77-21.83,18-34.3,24.5-10.46,5.49-13.84,12.47-21.38,21.7-2.23,2.72-4.57,5.37-7,7.92Z"/><path class="cls-17" d="M1974.93,1254.28c-.88,15.37-2.78,30.67-4.88,45.48-10.26-5.27-21.86-22.23-27.79-32.13-31.51-52.59-75.9-98.5-95-156.75-8.13-24.79-11.42-45.33-7.38-71.1,4.07,7,12.87,9.53,20.85,11q7.89,1.41,15.84,2.19a208.84,208.84,0,0,0,25.26.94c6.94,7.46,7.6,24.48,13.31,33.57,7.73,12.25,11.74,26.76,19.8,39.35s18.82,23.36,25.41,36.72C1974.22,1191.57,1976.7,1223.05,1974.93,1254.28Z"/><path class="cls-14" d="M1974.93,1254.28c-.88,15.37-2.78,30.67-4.88,45.48-10.26-5.27-21.86-22.23-27.79-32.13-31.51-52.59-75.9-98.5-95-156.75-8.13-24.79-11.42-45.33-7.38-71.1,4.07,7,12.87,9.53,20.85,11q7.89,1.41,15.84,2.19c6.37,24.64,21.4,47.53,37.13,68.11,13.89,18.18,27.28,34.59,38.92,54.32C1966.3,1198.52,1971.22,1226.63,1974.93,1254.28Z"/><path class="cls-23" d="M1797.25,1470.77A23.77,23.77,0,0,1,1795,1474c-5.82,7-10.47,2.28-10.47,2.28a131.63,131.63,0,0,0-23.69,25.74,195.85,195.85,0,0,0-15.49,25.89,226.71,226.71,0,0,0-15.44,39.32c-6,.94-31.12-21.44-59.44-50.71-4.71-4.86-9.5-9.92-14.3-15.09a29.24,29.24,0,0,1,12-5.64,126.32,126.32,0,0,0-3.69-15.88c-4.57-14.82-5.75-37-4.94-62.19a31.57,31.57,0,0,1-5.44-14.85l-7.38-17.17c-2.58-8.33,2.8-16.85,8-23.88q5.32-7.24,10.77-14.45c7.18-58.73,18.13-112.13,18.13-112.13l70.33.91c.08,1.35.12,2.71.09,4.07-.55,53.94-76.91,121-64,137.82,10.2,13.38,73,54.83,97.71,78.14C1794.83,1462.94,1798.79,1468.2,1797.25,1470.77Z"/><g class="cls-35"><path class="cls-18" d="M1898.55,1671.69c-36.83,12.19-76.28,17.17-111.21,34.13-33.53,16.28-61.09,43-81.5,74.39-32.1-99.79-39-183.87-39-183.87s180.64-47.8,200-56.76c1.17.61,2.34,1.24,3.5,1.87C1875.86,1553.48,1886.62,1606,1898.55,1671.69Z"/></g><path class="cls-23" d="M2011.91,1641.77a160.06,160.06,0,0,1-16,9.38c-19.62,10.15-53.33,23.1-78.22,8.8-37.23-21.37-187.76-.45-217.78,13.65s-43.59-14.55-43.59-14.55,4.68-20.74,8.76-49.29c4-27.68,7.35-62.69,5.39-93.29,28.32,29.27,53.46,51.65,59.44,50.71a226.71,226.71,0,0,1,15.44-39.32,195.85,195.85,0,0,1,15.49-25.89,131.63,131.63,0,0,1,23.69-25.74s4.65,4.67,10.47-2.28a23.77,23.77,0,0,0,2.24-3.18c6.81-11.37-94.14-75.49-107.33-92.78s67.43-87.31,64-141.89l-70.33-.91s-37.75,184.19-19.1,244.67a126.32,126.32,0,0,1,3.69,15.88,198.81,198.81,0,0,1,2.34,20.73c-4.71-4.86-9.5-9.92-14.3-15.09-36.83-39.6-74.49-86-80-105.19-10.31-36.36,30.72-175,68.52-254.25.5-1.07,1-2.12,1.52-3.16,38.19-78.64,96.82-105,96.82-105.51,0-.2,4.46.68,11.86,3.54a163.56,163.56,0,0,1,36.21,19.9c.52.36,1,.74,1.55,1.12,16.64,12.19,43.22,20.66,62,25.23,7,1.69,12.83,2.84,16.72,3.44,2.85.43,4.63.58,5,.43,0,0-3.64,14.1,26.38,48.21s54.11,45.48,61.85,86.41,29.56,145.07,29.11,217.38,8.17,102.33,11.82,136.44S2011.91,1641.77,2011.91,1641.77Z"/><path class="cls-17" d="M1791.15,1056.71c-6.11,5.9-7.12,12.28-13.25,22-7.44,11.81-19.72,20.41-32.28,26.08-18.68,8.43-39.27,12-58,20.29-14.09,6.22-28.42,11.41-42.85,16.85.5-1.07,1-2.12,1.52-3.16,38.19-78.64,96.82-105,96.82-105.51,0-.2,4.46.68,11.86,3.54A163.56,163.56,0,0,1,1791.15,1056.71Z"/><path class="cls-17" d="M1774.55,1590.9c-2.23-9.35-1.68-19.33-3.91-28.66a78.62,78.62,0,0,0-25.47.71c1.78,8.74-2.5,17.87-8.92,24s-14.76,10-23,13.36c-15.27,6.3-32.13,11.69-48.14,9.4,4-27.68,7.35-62.69,5.39-93.29,28.32,29.27,53.46,51.65,59.44,50.71a226.71,226.71,0,0,1,15.44-39.32,195.85,195.85,0,0,1,15.49-25.89l1.12.61c4.77,2.61,9.39,5.76,12.61,10.14,9.19,12.48.89,27.45,1.48,42.94C1776.46,1566.57,1774.15,1580,1774.55,1590.9Z"/><path class="cls-20" d="M1921.59,883.74c-.3,4.07-5.51,6.45-9.93,8.78-.72.38-1.46.72-2.21,1-1.08.43-2.17.81-3.28,1.17a64.37,64.37,0,0,0-8.84,3.13l2.83-10.84a175.45,175.45,0,0,0-13.66-36.75c-1.56-3.07-3.25-6.3-3-9.74,2.31,1.53.73.32,2.66,2.31,2.83,2.89,5.52,5.93,8.14,9,3.72,4.39,7.31,8.9,11,13.23,4.19,4.9,10.38,8.25,14.15,13.12C1921.08,880.38,1921.69,882.17,1921.59,883.74Z"/><path class="cls-20" d="M1861,991.33c-.39.74-.77,1.49-1.11,2.25-3.56,7.64-5.07,16.13-6.21,24.52-2.83,20.95-.3,43.25,1,65-5.68-1.38-12.08-3.12-18.7-5.22-15.24-4.83-31.66-11.51-43.26-20a164.46,164.46,0,0,0-37.76-21c-4.74-23.58,7-48,22.71-66.42,7-8.26,15.21-16,25.26-20.09,15.78-6.44,33.43-2.63,47.89,5.34,5.37,3,15.72,8.16,18,14.39C1871.73,978,1864.52,984.74,1861,991.33Z"/><path class="cls-12" d="M1861,991.33c-.39.74-.77,1.49-1.11,2.25a175.91,175.91,0,0,1-53.74-6c1,7.38,6.6,19.07,1.11,24.11s-11.92,9.56-15,16.33c-4.36,9.53-.07,22.12,9.22,27,15.52,8.12,23.94,16.24,34.5,22.87-15.24-4.83-31.66-11.51-43.26-20a164.46,164.46,0,0,0-37.76-21c-4.74-23.58,7-48,22.71-66.42,7-8.26,15.21-16,25.26-20.09,15.78-6.44,33.43-2.63,47.89,5.34,5.37,3,15.72,8.16,18,14.39C1871.73,978,1864.52,984.74,1861,991.33Z"/><path class="cls-20" d="M1913.67,970.51s-16.37,9.1-34.56,9.1c-17.4,0-33.36,1.56-49.39-2.12a74.22,74.22,0,0,1-15.13-5.21c-9.62-4.52-13.82-9.83-17-16s-5.48-13.47-11.33-21.63a15.6,15.6,0,0,0-3.49-3.24s-27.54-9.67-19.55-28.79a27.52,27.52,0,0,1,3.12-5.47s10.61-9.39,24.87,1.82l3.63-16.81.42-1.93,6.28-29.12a20.69,20.69,0,0,0,3.17-4,4.64,4.64,0,0,0,.77-3.07,6.29,6.29,0,0,0-1.56-2.58,2.92,2.92,0,0,1-.23-.29l12.38-57.37,39.41-6.07s6.49,10.13,15.29,26.17c7.07,12.91,15.62,29.66,23.5,48a373.35,373.35,0,0,1,14.32,38.75c.3,1,.59,1.94.88,2.93,1.72,5.9,3.24,11.82,4.48,17.67C1918.53,932.82,1919.46,953.61,1913.67,970.51Z"/><path class="cls-12" d="M1870.75,803.85c-6.94.44-14.65-4.28-20.54-1.19a7.62,7.62,0,0,0-1,.59c-6,4.2-2.12,10.7-2.3,16.66-.22,8.17-5.08,15.92-9.89,22.2-6.72,8.81-14.71,18-14.6,29.11.07,6.83,3,14.79-1.73,19.75-1.84,1.95-4.55,2.92-6.36,4.91-5.3,5.85-.37,14.93-4.27,21.3-4.29-1-11.42-16.1-13.13-20.6s-2-9.55-2.14-14.44l.42-1.93,6.28-29.12a20.69,20.69,0,0,0,3.17-4,4.64,4.64,0,0,0,.77-3.07,6.29,6.29,0,0,0-1.56-2.58,2.92,2.92,0,0,1-.23-.29l12.38-57.37,39.41-6.07S1862,787.81,1870.75,803.85Z"/><path class="cls-20" d="M1804.69,847.06a20.69,20.69,0,0,1-3.17,4l2.15-10a2.92,2.92,0,0,0,.23.29,6.29,6.29,0,0,1,1.56,2.58A4.64,4.64,0,0,1,1804.69,847.06Z"/><path class="cls-21" d="M1754.58,876.53a50,50,0,0,1-9.82-19.22c-4.17-15.94-.26-33.31,8.31-47.39s21.42-25.13,35.39-33.86c10.14-6.33,21.11-11.61,32.86-13.83s24.36-1.18,34.87,4.51c3.67,2,7,4.51,10.74,6.46,3.18,3.12-.55,8.78-4.89,9.75s-8.91-.49-13.31.18a21.66,21.66,0,0,0-8.55,3.73c-4.21,2.83-8.22,6.77-8.81,11.81-1,8.18,7.24,14.78,8.09,23,.94,9-7,16.24-14.19,21.85s-15,13.07-13.68,22.06c.54,3.71,2.63,7,4,10.45s2.06,7.71-.1,10.77c-2.7,3.82-8.85,4.51-10.59,8.85-1.38,3.44.81,7.17,1.44,10.82.37,2.14-.9,6.83-3.68,7-2.13.14-3.78-4.23-4.93-5.79a63,63,0,0,0-15.86-15.11c-4-2.6-5.19-4.78-9.15-7.36-3.38-2.19-7.29-3.37-10.94-5.08S1757.14,879.63,1754.58,876.53Z"/><path class="cls-21" d="M1802.57,982c.45,10.19-7.28,18.63-14,26.3-5.27,6-10.25,12.45-13.48,19.78-3.81,8.64-4.12,18.74-5.88,28a28.32,28.32,0,0,1-4,10.54c-6.46,10-21.46,15.38-31.77,20.5a161.43,161.43,0,0,1-34.65,12.53c-1.61.38-3.22.73-4.83,1.06-3.54.73-7.24,1.39-10.25,3.33a7.11,7.11,0,0,0-.72.5c-3.13,2.34-5,6.92-3,10.27-10.31-6.18-8.35-22.44-.68-31.68s19.06-14.71,27.1-23.63c17.28-19.17,14.91-49.41,4.44-73-5.71-12.84-13.61-27-8.26-40,3.82-9.26,13.49-13.4,18.29-21.44,4.69-7.87,5.95-16.63,15.58-20.46a46.29,46.29,0,0,1,9.15-2.56,54.63,54.63,0,0,1,16.66-.29c-8,19.12,19.55,28.78,19.55,28.78a15.87,15.87,0,0,1,3.49,3.25c5.85,8.16,8.07,15.34,11.32,21.63a33.51,33.51,0,0,0,1.55,11.51C1799.87,971.84,1802.34,976.71,1802.57,982Z"/><path class="cls-20" d="M1804.36,1488.11c-2.91,19-9.28,34.17-18.93,50.83a116.72,116.72,0,0,1-40.07-11.08c8.78-17.48,21.6-37.32,39.18-51.63,0,0,4.65,4.67,10.47-2.28,1.79,1.31,3.53,2.65,5.23,4s3.24,2.62,4,4.52A11.2,11.2,0,0,1,1804.36,1488.11Z"/><path class="cls-23" d="M1810.06,1576.13c-10.74-5.79-30.33-16-34.54-28.22-4.52-13.11,4.59-30,10.27-41.15,9.06-17.79,17.92-36.89,16.32-56.79-.79-9.86-4.15-19.35-5.46-29.16,20.08.81,39,9.23,50.19,25.92,6.69,10,9,22.16,11,34,2.31,13.76,4.37,27.77,2.75,41.64s-7.34,27.76-18.18,36.56Z"/><path class="cls-17" d="M1755.52,1276.08c4.67,13.5,11,34.05,23.21,42.12,31.61,20.88,63.77,12.54,98.67,11.15,19.08-.75,36.59-10.27,55.43-12.74-34.2,4.49-69.33,4.87-103.27-2.2-21.11-4-25.38-19.31-35.6-36.82-7.92-13.57-15.66-27.54-27.23-38.42C1757,1250.82,1750.57,1261.75,1755.52,1276.08Z"/><path class="cls-22" d="M1910,935.6a22.3,22.3,0,0,1-19.79-2,21.51,21.51,0,0,1-4.86-4.31,13.65,13.65,0,0,1-.95-1.21,22.17,22.17,0,0,1-4.25-11.65,151.65,151.65,0,0,1,25.67-3,51.9,51.9,0,0,0,1.24,11.94c.25,1.18.53,2.37.84,3.53C1908.53,931.23,1909.24,933.48,1910,935.6Z"/><path class="cls-17" d="M1841.59,1563a46.85,46.85,0,0,0,5.84-9.86c9.66-21.55,12-42.12,15.56-65.21-3.53,22.76.57,85.88-27.38,95.64-10.92,3.82-22.73-3.79-33.53,1.5C1818.67,1576.9,1832,1575.17,1841.59,1563Z"/><path class="cls-17" d="M1787.63,1456.13c-24.7-23.31-87.51-64.76-97.71-78.14-12.86-16.85,63.5-83.88,64-137.82.34-.35.66-.72,1-1.07-.14,22-6.6,43.33-13,64.34-7.56,24.81-14.72,46.14-28.3,68.4.24.13.42.64.46,1.74.56,14.61,23,32.89,32.42,42.26,9.25,9.19,18.9,18,28.16,27.15C1778.86,1447.11,1784.15,1451.34,1787.63,1456.13Z"/><path class="cls-13" d="M2011.91,1641.77a160.06,160.06,0,0,1-16,9.38c-17.86-112.29-3.68-229-29.62-339.8-5.2-22.22-12-44-18.77-65.86-5.45-17.54-11-35.2-19.64-51.38-14.32-26.67-72.18-73.29-56.51-107.61,2.85.43,4.63.58,5,.43,0,0-3.64,14.1,26.38,48.21s54.11,45.48,61.85,86.41,29.56,145.07,29.11,217.38,8.17,102.33,11.82,136.44S2011.91,1641.77,2011.91,1641.77Z"/><path class="cls-22" d="M1766.32,897.13a27.52,27.52,0,0,0-3.12,5.47,55,55,0,0,0-16.66.29,26,26,0,0,1,7.33-14c4.51-4.53,10.4-7.49,15-12,8.74-8.61,7.18-22.87,16.2-32.7,4.28-4.65,10.1-9.19,15.37-14.19a17.15,17.15,0,0,0,3.28,11.12,2.92,2.92,0,0,0,.23.29,6.29,6.29,0,0,1,1.56,2.58,4.64,4.64,0,0,1-.77,3.07,20.69,20.69,0,0,1-3.17,4c-3.75,3.83-8.47,7-9.61,12.14-1,4.4,1.09,8.84,2.47,13.14a21.19,21.19,0,0,1,.86,3.84l-4,18.74C1776.93,887.74,1766.32,897.13,1766.32,897.13Z"/><path class="cls-22" d="M1803.5,982.88c.44,10.19-7.28,18.63-14,26.31-5.27,6-10.25,12.45-13.48,19.77-3.81,8.64-4.12,18.74-5.88,28a28.43,28.43,0,0,1-4,10.55c-5-9.26-5.49-20.7-4-31.25,1.81-12.47,6.12-24.48,7.85-37,4.1-29.71-16.65-48.69-20.59-76.06-.75-5.16-2.89-10.67-3.12-16a22.08,22.08,0,0,1,.24-4.3,55,55,0,0,1,16.66-.29c-8,19.12,19.55,28.79,19.55,28.79a15.6,15.6,0,0,1,3.49,3.24c5.85,8.16,8.07,15.35,11.33,21.63a33.48,33.48,0,0,0,1.55,11.51C1800.8,972.77,1803.26,977.63,1803.5,982.88Z"/><path class="cls-22" d="M1800.39,830a16.56,16.56,0,0,1,2.42-7.82c3.54-5.68,10.68-9.91,10.77-16.46C1813.82,815.56,1807.62,823.2,1800.39,830Z"/><path class="cls-22" d="M1703.36,915.61c.24-22.21,29.58-29.21,29.32-52.1-.11-8.73-2.13-17.73.62-26,1.74-5.27,5.28-9.73,9-13.85a143.59,143.59,0,0,1,16.9-16c-16.27,1.08-30.32,16.21-30.2,32.51.08,11.31,1.77,17.28-5.19,26.72-3.77,5.11-8.35,10-12.52,14.86-10.87,12.52-25.13,28.86-17.7,46.77,2.94,7.1,9,12.46,12.37,19.38,7.41,15.38-.49,33.56-9.5,48.06s-19.69,30-17.79,46.92c-1.47-24.32,24.58-40.61,34.23-63a50.37,50.37,0,0,0-.23-39.91C1709.08,932,1703.27,924.39,1703.36,915.61Z"/><path class="cls-22" d="M1741.16,1030.15c-5.53,20.71-20.24,37.56-34.24,53.29-3.25,3.64-5.62,10.46-8.14,16.15-1.61.38-3.22.73-4.83,1.06-3.54.73-7.24,1.39-10.25,3.33-5.86-9.37,6.52-20.49,13.4-25.27,10.1-7,20.27-12.7,28.84-22.06C1732.89,1049.07,1738.5,1040.09,1741.16,1030.15Z"/><path class="cls-21" d="M1845.63,852.67c1.65-4.44,2.77-8.51,6.2-12.39a39.8,39.8,0,0,1,11.71-8.58A35.74,35.74,0,0,1,1873.6,828c3.79-.69,4.21.69,5.77,3.82-.52-1-11.16,4.19-12.26,4.73a82.17,82.17,0,0,0-14.47,8.82,26.07,26.07,0,0,0-8.12,10.09C1844.93,854.53,1845.29,853.59,1845.63,852.67Z"/><path class="cls-22" d="M1869.77,858.68a7,7,0,0,0,9.62.78,6.45,6.45,0,0,0,1.06-9.27,7,7,0,0,0-9.62-.78A6.46,6.46,0,0,0,1869.77,858.68Z"/><path class="cls-26" d="M1857.21,854.57a56.77,56.77,0,0,1,6.09-4c1-.61,2.1-1.18,3.18-1.7s2.15-1,3.25-1.46a23,23,0,0,1,3.35-1l3.3-.81c1.1-.26,2.2-.5,3.34-.67s2.29-.28,3.56-.4l.09-.28a9.54,9.54,0,0,0-3.45-1.35,14.08,14.08,0,0,0-3.84-.13,13.51,13.51,0,0,0-3.75.95c-1.2.48-2.34,1.07-3.47,1.64a41,41,0,0,0-6.34,4.07c-1,.77-1.94,1.57-2.86,2.39s-1.81,1.69-2.65,2.6Z"/><path class="cls-28" d="M1910,935.6a22.3,22.3,0,0,1-19.79-2,21.51,21.51,0,0,1-4.86-4.31c1.38-.17,2.76-.31,4.15-.4a144.83,144.83,0,0,1,18.4,0C1908.53,931.23,1909.24,933.48,1910,935.6Z"/><path class="cls-12" d="M1787.59,904.19c1.46-.64-8.58-6.79-11.07-6.6-7.2.54-11.25,10-8.19,16.22,3.29,6.63,14.53,9.85,20.08,14.71C1788.29,921.29,1790.4,910.85,1787.59,904.19Z"/><path class="cls-3" d="M2422.45,1153.23a102,102,0,0,1-10.12,21.7c-6.78,11-19.28,19.64-21,32.85a143.24,143.24,0,0,1-11.45-22.53l0,0a170.72,170.72,0,0,1-6.68-23.1c-2.36-10.93-.31-18.43-9.68-26.21-13-10.79-27.55-6.79-38.09-23a51.82,51.82,0,0,1-4.45-8.57,2.65,2.65,0,0,1,0-.27c26,8.24,52.53,16.78,74.08,33.43,5.62,4.33,10.27,8.33,16.81,10.77A58.56,58.56,0,0,1,2422.45,1153.23Z"/></g></svg>