<svg id="Illustration" xmlns="http://www.w3.org/2000/svg" xmlns:xlink="http://www.w3.org/1999/xlink" viewBox="0 0 1000 740">
  <defs>
    <linearGradient id="linear-gradient" x1="246.0272" y1="282.3661" x2="246.0272" y2="343.8834" gradientUnits="userSpaceOnUse">
      <stop offset="0" stop-color="#a1c8f7"/>
      <stop offset="1" stop-color="#86a8e2"/>
    </linearGradient>
    <linearGradient id="linear-gradient-2" x1="181.6415" y1="170.2053" x2="181.6415" y2="282.3662" gradientUnits="userSpaceOnUse">
      <stop offset="0" stop-color="#ff8b78"/>
      <stop offset="1" stop-color="#e25960"/>
    </linearGradient>
    <linearGradient id="linear-gradient-3" x1="746.4507" y1="254.0299" x2="746.4507" y2="688.256" gradientUnits="userSpaceOnUse">
      <stop offset="0" stop-color="#89bcef"/>
      <stop offset="1" stop-color="#729edd"/>
    </linearGradient>
    <linearGradient id="linear-gradient-4" x1="746.4507" y1="234.6453" x2="746.4507" y2="277.4723" gradientUnits="userSpaceOnUse">
      <stop offset="0" stop-color="#6c97d3"/>
      <stop offset="1" stop-color="#587bbf"/>
    </linearGradient>
    <linearGradient id="linear-gradient-5" x1="823.7849" y1="301.8099" x2="823.7849" y2="686.3281" xlink:href="#linear-gradient-3"/>
    <linearGradient id="linear-gradient-6" x1="790.9078" y1="270.4406" x2="790.9078" y2="654.9588" xlink:href="#linear-gradient-3"/>
    <linearGradient id="linear-gradient-7" x1="790.9078" y1="279.2975" x2="790.9078" y2="663.8157" xlink:href="#linear-gradient-3"/>
    <linearGradient id="linear-gradient-8" x1="701.996" y1="315.7198" x2="701.996" y2="700.2379" xlink:href="#linear-gradient-3"/>
    <linearGradient id="linear-gradient-9" x1="701.996" y1="312.2057" x2="701.996" y2="696.7239" xlink:href="#linear-gradient-3"/>
    <linearGradient id="linear-gradient-10" x1="701.996" y1="307.0078" x2="701.996" y2="691.526" xlink:href="#linear-gradient-3"/>
    <linearGradient id="linear-gradient-11" x1="701.996" y1="301.8099" x2="701.996" y2="686.3281" xlink:href="#linear-gradient-3"/>
    <linearGradient id="linear-gradient-12" x1="745.6862" y1="291.3535" x2="745.6862" y2="675.8717" xlink:href="#linear-gradient-3"/>
    <linearGradient id="linear-gradient-13" x1="745.6862" y1="306.2384" x2="745.6862" y2="690.7566" xlink:href="#linear-gradient-3"/>
    <linearGradient id="linear-gradient-14" x1="745.6862" y1="325.569" x2="745.6862" y2="710.0872" xlink:href="#linear-gradient-3"/>
    <linearGradient id="linear-gradient-15" x1="745.6862" y1="340.4538" x2="745.6862" y2="724.972" xlink:href="#linear-gradient-3"/>
    <linearGradient id="linear-gradient-16" x1="745.6862" y1="359.7844" x2="745.6862" y2="744.3026" xlink:href="#linear-gradient-3"/>
    <linearGradient id="linear-gradient-17" x1="745.6862" y1="374.6693" x2="745.6862" y2="759.1875" xlink:href="#linear-gradient-3"/>
    <linearGradient id="linear-gradient-18" x1="144.4807" y1="317.505" x2="144.4807" y2="406.2269" gradientUnits="userSpaceOnUse">
      <stop offset="0" stop-color="#80f7a8"/>
      <stop offset="1" stop-color="#51cc7b"/>
    </linearGradient>
    <linearGradient id="linear-gradient-19" x1="177.5892" y1="438.6757" x2="177.5892" y2="688.3018" gradientUnits="userSpaceOnUse">
      <stop offset="0" stop-color="#aca1f7"/>
      <stop offset="1" stop-color="#8a83e2"/>
    </linearGradient>
    <linearGradient id="linear-gradient-20" x1="243.9566" y1="594.41" x2="243.9566" y2="688.3018" gradientUnits="userSpaceOnUse">
      <stop offset="0" stop-color="#d29bed"/>
      <stop offset="1" stop-color="#ae7dd8"/>
    </linearGradient>
    <linearGradient id="linear-gradient-21" x1="146.4683" y1="522.1455" x2="146.4683" y2="688.3018" xlink:href="#linear-gradient-20"/>
    <linearGradient id="linear-gradient-22" x1="824.5872" y1="433.9225" x2="824.5872" y2="687.8082" xlink:href="#linear-gradient-20"/>
    <linearGradient id="linear-gradient-23" x1="755.8128" y1="592.7997" x2="755.8128" y2="688.2936" xlink:href="#linear-gradient-19"/>
    <linearGradient id="linear-gradient-24" x1="854.9646" y1="519.3021" x2="854.9646" y2="688.2936" xlink:href="#linear-gradient-19"/>
    <linearGradient id="linear-gradient-25" x1="921.2762" y1="603.8406" x2="921.2762" y2="687.8656" xlink:href="#linear-gradient-20"/>
    <linearGradient id="linear-gradient-26" x1="887.5004" y1="633.7249" x2="887.5004" y2="688.256" xlink:href="#linear-gradient-20"/>
    <linearGradient id="linear-gradient-27" x1="115.2983" y1="633.7249" x2="115.2983" y2="688.256" xlink:href="#linear-gradient-19"/>
    <linearGradient id="linear-gradient-28" x1="81.5599" y1="604.231" x2="81.5599" y2="688.256" xlink:href="#linear-gradient-19"/>
    <linearGradient id="linear-gradient-29" x1="287.6459" y1="642.8503" x2="383.6371" y2="642.8503" xlink:href="#linear-gradient-19"/>
    <linearGradient id="linear-gradient-30" x1="298.1319" y1="545.4815" x2="373.1511" y2="545.4815" xlink:href="#linear-gradient-19"/>
    <linearGradient id="linear-gradient-31" x1="281.7565" y1="596.5142" x2="305.2328" y2="596.5142" xlink:href="#linear-gradient-19"/>
    <linearGradient id="linear-gradient-32" x1="365.2154" y1="596.5142" x2="388.6918" y2="596.5142" xlink:href="#linear-gradient-19"/>
    <linearGradient id="linear-gradient-33" x1="298.5334" y1="499.6563" x2="373.1511" y2="499.6563" xlink:href="#linear-gradient-19"/>
    <linearGradient id="linear-gradient-34" x1="286.0146" y1="457.7946" x2="305.2328" y2="457.7946" xlink:href="#linear-gradient-19"/>
    <linearGradient id="linear-gradient-35" x1="286.0146" y1="398.0533" x2="298.5334" y2="398.0533" xlink:href="#linear-gradient-19"/>
    <linearGradient id="linear-gradient-36" x1="352.1116" y1="209.6141" x2="352.1116" y2="266.0438" gradientUnits="userSpaceOnUse">
      <stop offset="0" stop-color="#5b416d"/>
      <stop offset="1" stop-color="#482d59"/>
    </linearGradient>
    <linearGradient id="linear-gradient-37" x1="347.6293" y1="271.9614" x2="347.6293" y2="305.0709" gradientUnits="userSpaceOnUse">
      <stop offset="0" stop-color="#f1baa6"/>
      <stop offset="1" stop-color="#ff8e86"/>
    </linearGradient>
    <linearGradient id="linear-gradient-38" x1="348.1911" y1="245.1753" x2="348.1911" y2="288.971" xlink:href="#linear-gradient-37"/>
    <linearGradient id="linear-gradient-39" x1="348.3201" y1="254.0773" x2="348.3201" y2="259.4002" xlink:href="#linear-gradient-36"/>
    <linearGradient id="linear-gradient-40" x1="363.6209" y1="254.0773" x2="363.6209" y2="259.4002" xlink:href="#linear-gradient-36"/>
    <linearGradient id="linear-gradient-41" x1="350.7585" y1="259.4002" x2="350.7585" y2="288.971" xlink:href="#linear-gradient-36"/>
    <linearGradient id="linear-gradient-42" x1="343.4946" y1="248.7315" x2="354.4306" y2="248.7315" xlink:href="#linear-gradient-36"/>
    <linearGradient id="linear-gradient-43" x1="358.9264" y1="248.9205" x2="367.9361" y2="248.9205" xlink:href="#linear-gradient-36"/>
    <linearGradient id="linear-gradient-44" x1="438.24" y1="643.5777" x2="438.24" y2="679.6269" gradientUnits="userSpaceOnUse">
      <stop offset="0" stop-color="#ab78f8"/>
      <stop offset="1" stop-color="#8c58dd"/>
    </linearGradient>
    <linearGradient id="linear-gradient-45" x1="399.4605" y1="452.8314" x2="399.4605" y2="643.576" xlink:href="#linear-gradient-36"/>
    <linearGradient id="linear-gradient-46" x1="406.1238" y1="294.9278" x2="406.1238" y2="433.9066" gradientUnits="userSpaceOnUse">
      <stop offset="0" stop-color="#8766bc"/>
      <stop offset="1" stop-color="#724b9b"/>
    </linearGradient>
    <linearGradient id="linear-gradient-47" x1="346.2822" y1="293.5451" x2="346.2822" y2="470.8574" xlink:href="#linear-gradient-44"/>
    <linearGradient id="linear-gradient-48" x1="359.3839" y1="309.29" x2="359.3839" y2="433.9225" xlink:href="#linear-gradient-46"/>
    <linearGradient id="linear-gradient-49" x1="429.2793" y1="418.2367" x2="429.2793" y2="433.9066" xlink:href="#linear-gradient-37"/>
    <linearGradient id="linear-gradient-50" x1="467.9724" y1="420.0251" x2="467.9724" y2="433.9066" xlink:href="#linear-gradient-37"/>
    <linearGradient id="linear-gradient-51" x1="462.272" y1="426.8278" x2="462.272" y2="433.9066" xlink:href="#linear-gradient-37"/>
    <linearGradient id="linear-gradient-52" x1="411.8114" y1="643.5777" x2="411.8114" y2="679.6269" xlink:href="#linear-gradient-44"/>
    <linearGradient id="linear-gradient-53" x1="354.6561" y1="455.3675" x2="354.6561" y2="643.576" xlink:href="#linear-gradient-36"/>
    <linearGradient id="linear-gradient-54" x1="683.981" y1="421.0471" x2="683.981" y2="494.5421" gradientUnits="userSpaceOnUse">
      <stop offset="0" stop-color="#7497ed"/>
      <stop offset="1" stop-color="#5972d8"/>
    </linearGradient>
    <linearGradient id="linear-gradient-55" x1="687.3307" y1="375.0595" x2="687.3307" y2="421.0471" gradientTransform="translate(1374.6614 796.1066) rotate(180)" xlink:href="#linear-gradient-54"/>
    <linearGradient id="linear-gradient-56" x1="643.9632" y1="639.0589" x2="643.9632" y2="646.6418" gradientTransform="translate(1287.9265 1285.7007) rotate(180)" xlink:href="#linear-gradient-54"/>
    <linearGradient id="linear-gradient-57" x1="643.9632" y1="541.6901" x2="643.9632" y2="549.273" gradientTransform="translate(1287.9265 1090.9631) rotate(180)" xlink:href="#linear-gradient-54"/>
    <linearGradient id="linear-gradient-58" x1="602.6511" y1="504.7706" x2="602.6511" y2="688.2577" xlink:href="#linear-gradient-54"/>
    <linearGradient id="linear-gradient-59" x1="686.1101" y1="504.7706" x2="686.1101" y2="688.2577" xlink:href="#linear-gradient-54"/>
    <linearGradient id="linear-gradient-60" x1="643.7624" y1="494.5421" x2="643.7624" y2="510.2119" gradientTransform="translate(1287.5249 1004.754) rotate(180)" xlink:href="#linear-gradient-54"/>
    <linearGradient id="linear-gradient-61" x1="624.3017" y1="217.0675" x2="624.3017" y2="264.8382" xlink:href="#linear-gradient-36"/>
    <linearGradient id="linear-gradient-62" x1="628.8385" y1="271.9614" x2="628.8385" y2="305.0709" xlink:href="#linear-gradient-37"/>
    <linearGradient id="linear-gradient-63" x1="629.3253" y1="242.921" x2="629.3253" y2="323.3171" xlink:href="#linear-gradient-37"/>
    <linearGradient id="linear-gradient-64" x1="629.1933" y1="254.0773" x2="629.1933" y2="259.4002" xlink:href="#linear-gradient-36"/>
    <linearGradient id="linear-gradient-65" x1="613.8925" y1="254.0773" x2="613.8925" y2="259.4002" xlink:href="#linear-gradient-36"/>
    <linearGradient id="linear-gradient-66" x1="541.3636" y1="643.576" x2="541.3636" y2="679.6281" xlink:href="#linear-gradient-2"/>
    <linearGradient id="linear-gradient-67" x1="580.1442" y1="452.8314" x2="580.1442" y2="643.576" xlink:href="#linear-gradient-36"/>
    <linearGradient id="linear-gradient-68" x1="567.7922" y1="643.576" x2="567.7922" y2="679.6281" xlink:href="#linear-gradient-2"/>
    <linearGradient id="linear-gradient-69" x1="503.4964" y1="340.2443" x2="503.4964" y2="372.7601" xlink:href="#linear-gradient-37"/>
    <linearGradient id="linear-gradient-70" x1="513.773" y1="342.4642" x2="513.773" y2="363.8317" xlink:href="#linear-gradient-37"/>
    <linearGradient id="linear-gradient-71" x1="527.563" y1="356.1535" x2="527.563" y2="377.055" xlink:href="#linear-gradient-36"/>
    <linearGradient id="linear-gradient-72" x1="573.8671" y1="296.6249" x2="573.8671" y2="398.2913" gradientUnits="userSpaceOnUse">
      <stop offset="0" stop-color="#db5c56"/>
      <stop offset="1" stop-color="#cc4646"/>
    </linearGradient>
    <linearGradient id="linear-gradient-73" x1="633.2581" y1="293.5592" x2="633.2581" y2="470.8595" xlink:href="#linear-gradient-2"/>
    <linearGradient id="linear-gradient-74" x1="613.9213" y1="315.0201" x2="613.9213" y2="414.1489" xlink:href="#linear-gradient-36"/>
    <linearGradient id="linear-gradient-75" x1="623.6083" y1="304.2317" x2="623.6083" y2="315.0201" xlink:href="#linear-gradient-36"/>
    <linearGradient id="linear-gradient-76" x1="619.9213" y1="296.6251" x2="619.9213" y2="312.2949" xlink:href="#linear-gradient-72"/>
    <linearGradient id="linear-gradient-77" x1="632.6956" y1="293.5592" x2="632.6956" y2="313.6575" xlink:href="#linear-gradient-72"/>
    <linearGradient id="linear-gradient-78" x1="575.9973" y1="354.5354" x2="575.9973" y2="378.8918" xlink:href="#linear-gradient-36"/>
    <linearGradient id="linear-gradient-79" x1="621.6408" y1="309.29" x2="621.6408" y2="422.0236" xlink:href="#linear-gradient-72"/>
    <linearGradient id="linear-gradient-80" x1="557.5803" y1="321.9169" x2="557.5803" y2="369.8581" xlink:href="#linear-gradient-37"/>
    <linearGradient id="linear-gradient-81" x1="495.8827" y1="430.4442" x2="573.8671" y2="430.4442" xlink:href="#linear-gradient"/>
    <linearGradient id="linear-gradient-82" x1="624.9487" y1="455.3675" x2="624.9487" y2="643.576" xlink:href="#linear-gradient-36"/>
    <linearGradient id="linear-gradient-83" x1="482.2557" y1="193.086" x2="482.2557" y2="413.3649" gradientUnits="userSpaceOnUse">
      <stop offset="0" stop-color="#5766bc"/>
      <stop offset="1" stop-color="#5972d8"/>
    </linearGradient>
    <linearGradient id="linear-gradient-84" x1="482.1305" y1="49.4843" x2="482.1305" y2="174.9616" xlink:href="#linear-gradient-54"/>
    <linearGradient id="linear-gradient-85" x1="479.1057" y1="64.1601" x2="485.1522" y2="64.1601" gradientTransform="matrix(1, 0, 0, -1, 0, 108.6607)" xlink:href="#linear-gradient-83"/>
    <linearGradient id="linear-gradient-86" x1="482.2567" y1="438.6757" x2="482.2567" y2="684.6241" gradientUnits="userSpaceOnUse">
      <stop offset="0" stop-color="#4eceaf"/>
      <stop offset="1" stop-color="#3fa880"/>
    </linearGradient>
    <linearGradient id="linear-gradient-87" x1="482.2567" y1="433.9066" x2="482.2567" y2="443.4447" gradientUnits="userSpaceOnUse">
      <stop offset="0" stop-color="#62efc4"/>
      <stop offset="1" stop-color="#4eceaf"/>
    </linearGradient>
    <linearGradient id="linear-gradient-88" x1="482.2567" y1="678.7196" x2="482.2567" y2="688.2577" xlink:href="#linear-gradient-87"/>
    <linearGradient id="linear-gradient-89" x1="282.274" y1="470.1889" x2="282.274" y2="668.4969" gradientUnits="userSpaceOnUse">
      <stop offset="0" stop-color="#fff"/>
      <stop offset="1" stop-color="#dcefea"/>
    </linearGradient>
    <linearGradient id="linear-gradient-90" x1="282.274" y1="480.2356" x2="282.274" y2="658.4502" xlink:href="#linear-gradient-2"/>
    <linearGradient id="linear-gradient-91" x1="691.3283" y1="589.2459" x2="691.3283" y2="688.256" xlink:href="#linear-gradient-89"/>
    <linearGradient id="linear-gradient-92" x1="692.787" y1="592.3083" x2="692.787" y2="568.1222" xlink:href="#linear-gradient-2"/>
    <linearGradient id="linear-gradient-93" x1="691.3283" y1="601.6813" x2="691.3283" y2="589.2459" xlink:href="#linear-gradient-2"/>
    <linearGradient id="linear-gradient-94" x1="691.3283" y1="616.6652" x2="691.3283" y2="672.8713" xlink:href="#linear-gradient-2"/>
  </defs>
  <path id="Background" d="M429.3119,688.2577H920.0036c63.3206-63.2187,58.425-242.9924-37.941-318.4-94.5074-73.9528-105.9275-135.6375-132.3-185.0532-38.8376-72.7722-132.95-110.7709-217.09-87.6068S474.182,69.1118,378.145,91.0831c-77.4273,17.7138-146.3616,114.7-175.0665,186.8424S57.2742,375.712,42.8253,515.45c-8.98,86.8464,58.2878,172.8059,58.2878,172.8059Z" fill="#d6e8fc"/>
  <g id="Ornament">
    <g id="Health">
      <rect x="244.6363" y="343.8832" width="2.782" height="344.3722" fill="#fff"/>
      <g id="Health-2" data-name="Health">
        <path d="M272.815,319.5849l-22.5019,22.5019a6.1337,6.1337,0,0,1-8.6744,0l-22.5019-22.5019c-25.4765-25.4764,1.3626-52.3155,26.8391-26.8391C271.62,267.1016,298.4592,293.9407,272.815,319.5849Z" fill="url(#linear-gradient)"/>
        <polygon points="255.269 310.376 248.776 310.376 248.776 303.883 243.279 303.883 243.279 310.376 236.785 310.376 236.785 315.873 243.279 315.873 243.279 322.367 248.776 322.367 248.776 315.873 255.269 315.873 255.269 310.376" fill="#d0e5fc"/>
      </g>
    </g>
    <g id="Heartbeat">
      <rect x="180.1571" y="274.539" width="2.782" height="413.7164" fill="#fff"/>
      <g id="Heart_Beat" data-name="Heart Beat">
        <path d="M230.4821,238.0642l-41.0265,41.0265a11.1832,11.1832,0,0,1-15.8154,0l-41.0265-41.0265c-46.45-46.45,2.4843-95.3839,48.9342-48.9342C228.3036,142.3743,277.2378,191.3086,230.4821,238.0642Z" fill="url(#linear-gradient-2)"/>
        <path d="M178.5155,250.3163a2.7817,2.7817,0,0,1-2.674-2.0179l-7.5934-26.5747-3.7763,12.512a2.7817,2.7817,0,0,1-2.6631,1.9778H139.7676a2.782,2.782,0,0,1,0-5.5639h19.975l5.9158-19.6a2.7814,2.7814,0,0,1,2.6631-1.9785h.02a2.782,2.782,0,0,1,2.6543,2.0179L178.34,236.79l9.112-36.3741a2.7818,2.7818,0,0,1,5.3934-.0143l7.8067,30.4747h23.3268a2.782,2.782,0,0,1,0,5.5639h-25.486a2.7813,2.7813,0,0,1-2.695-2.0919L190.18,212.42l-8.9653,35.79a2.78,2.78,0,0,1-2.6529,2.1055C178.5467,250.3163,178.5311,250.3163,178.5155,250.3163Z" fill="#fff"/>
      </g>
    </g>
    <g id="Clipboard">
      <rect x="601.2465" y="254.0299" width="290.4084" height="434.2261" rx="5.5639" fill="url(#linear-gradient-3)"/>
      <rect x="613.5976" y="266.0418" width="265.7061" height="410.2023" rx="5.5639" fill="#d0e5fc"/>
      <path d="M671.03,234.6453v42.827H821.8718v-42.827Z" fill="url(#linear-gradient-4)"/>
      <g>
        <rect x="789.2121" y="300.1052" width="69.1457" height="69.1596" rx="5.5639" fill="url(#linear-gradient-5)"/>
        <g>
          <path d="M847.28,357.8794H800.29a23.4953,23.4953,0,1,1,46.9905,0Z" fill="#d0e5fc"/>
          <circle cx="823.7851" cy="319.9298" r="10.5303" fill="#d0e5fc"/>
        </g>
      </g>
      <g>
        <rect x="723.4578" y="601.7784" width="134.9" height="8.8569" fill="url(#linear-gradient-6)"/>
        <rect x="723.4578" y="582.8156" width="134.9" height="8.8569" fill="url(#linear-gradient-7)"/>
      </g>
      <rect x="633.0146" y="359.1241" width="137.9628" height="8.8569" fill="url(#linear-gradient-8)"/>
      <rect x="633.0146" y="341.7002" width="137.9628" height="8.8569" fill="url(#linear-gradient-9)"/>
      <rect x="633.0146" y="322.5925" width="137.9628" height="8.8569" fill="url(#linear-gradient-10)"/>
      <rect x="633.0146" y="303.4848" width="137.9628" height="8.8569" fill="url(#linear-gradient-11)"/>
      <g>
        <g>
          <rect x="633.0146" y="422.3898" width="225.3432" height="8.8569" fill="url(#linear-gradient-12)"/>
          <rect x="633.0146" y="405.282" width="225.3432" height="8.8569" fill="url(#linear-gradient-13)"/>
        </g>
        <g>
          <rect x="633.0146" y="456.6052" width="225.3432" height="8.8569" fill="url(#linear-gradient-14)"/>
          <rect x="633.0146" y="439.4975" width="225.3432" height="8.8569" fill="url(#linear-gradient-15)"/>
        </g>
        <g>
          <rect x="633.0146" y="490.8207" width="225.3432" height="8.8569" fill="url(#linear-gradient-16)"/>
          <rect x="633.0146" y="473.713" width="225.3432" height="8.8569" fill="url(#linear-gradient-17)"/>
        </g>
      </g>
    </g>
    <g id="Money">
      <rect x="143.0898" y="406.2269" width="2.782" height="282.0313" fill="#fff"/>
      <g id="Money-2" data-name="Money">
        <path d="M183.1148,371.183l-32.4529,32.4529a8.8463,8.8463,0,0,1-12.51,0L105.6986,371.183c-36.7429-36.7428,1.9652-75.4509,38.7081-38.7081C181.3915,295.49,220.1,334.1982,183.1148,371.183Z" fill="url(#linear-gradient-18)"/>
        <path d="M155.3551,374.2653a9.039,9.039,0,0,1-3.8792,3.2691,14.3237,14.3237,0,0,1-6.1889,1.2211v3.4869h-1.8742v-3.5747a13.5018,13.5018,0,0,1-7.7369-2.8767,9.1062,9.1062,0,0,1-3.2907-6.6251h7.9332a4.15,4.15,0,0,0,.9371,2.3535,4.0435,4.0435,0,0,0,2.1573,1.308v-6.9307q-.7418-.2163-.9595-.3046a37.1008,37.1008,0,0,1-5.2078-1.8527,9.4417,9.4417,0,0,1-3.4869-2.7889,8.5612,8.5612,0,0,1,0-9.5673,9.2587,9.2587,0,0,1,3.9877-3.073,15.5769,15.5769,0,0,1,5.6665-1.1557v-3.5737h1.8742v3.6176a12.6526,12.6526,0,0,1,7.6277,2.7245,9.0972,9.0972,0,0,1,3.1814,6.385H148.033a4.083,4.083,0,0,0-.8717-2.1358,3.543,3.543,0,0,0-1.8743-1.1333v6.8l1.3511.4354a42.0731,42.0731,0,0,1,5.1648,1.94,9.4669,9.4669,0,0,1,3.4214,2.7683,7.5316,7.5316,0,0,1,1.4389,4.794A8.1761,8.1761,0,0,1,155.3551,374.2653Zm-14.2743-16.541a7.3711,7.3711,0,0,0,2.332,1.46v-6.32a3.6871,3.6871,0,0,0-2.31.8278,2.61,2.61,0,0,0-.8278,2.0489A2.6905,2.6905,0,0,0,141.0808,357.7243Zm6.6906,14.4276a2.8676,2.8676,0,0,0,.9156-2.2012,2.6462,2.6462,0,0,0-.8717-2.0266,7.5825,7.5825,0,0,0-2.5283-1.4164v6.5374A3.6657,3.6657,0,0,0,147.7714,372.1519Z" fill="#d0e5fc"/>
      </g>
    </g>
  </g>
  <g id="Plants">
    <g>
      <g>
        <path d="M210.4146,688.3018s26.133-51.3649,8.0409-123.4215-75.9316-126.2046-75.9316-126.2046-30.0563,94.5954,4.2564,158.3337S210.4146,688.3018,210.4146,688.3018Z" fill="url(#linear-gradient-19)"/>
        <path d="M211.0189,609.2205a.479.479,0,0,0-.8687-.404l-7.7037,16.6c-4.7675-20.09-11.0018-41.479-17.3726-61.52a.4727.4727,0,0,0,.1673-.165l9.5217-16.2326a.4786.4786,0,1,0-.8257-.4843l-9.228,15.7317c-6.3159-19.802-12.7331-38.2149-17.9538-52.6649.0034-.0071.01-.012.0133-.0194l6.4991-15.4929a.4786.4786,0,0,0-.8827-.37l-6.1083,14.5607c-6.3236-17.454-10.78-28.8037-10.941-29.2121a.4786.4786,0,1,0-.89.3516c.16.4059,4.5679,11.6323,10.8348,28.918l-21.249-10.65a.479.479,0,0,0-.4292.8565l22.1521,11.1018c5.2016,14.3864,11.6064,32.7471,17.9186,52.5094l-25.2108-7.72a.4791.4791,0,0,0-.28.9163l25.8448,7.9137c6.4418,20.2334,12.7532,41.8608,17.5557,62.136l-25.0327-12.482a.4786.4786,0,0,0-.4273.8565l25.7487,12.8389c5.6,23.8806,9.0519,45.79,8.0662,61.1774a.4792.4792,0,0,0,.4474.5087l.0309.0009a.4785.4785,0,0,0,.4773-.4479c.99-15.46-2.4725-37.4527-8.0884-61.4118Z"/>
      </g>
      <g>
        <path d="M210.4146,688.3018s-4.3671-20.7955,20.5876-53.2365,46.79-40.6553,46.79-40.6553S261.5716,674.7847,210.4146,688.3018Z" fill="url(#linear-gradient-20)"/>
        <path d="M222.8917,674.1172a.4789.4789,0,0,1-.3441-.8117c10.81-11.186,31.0753-46.3984,31.2786-46.7528a.4788.4788,0,0,1,.83.4769c-.2039.3553-20.5292,35.6705-31.4208,46.9417A.4766.4766,0,0,1,222.8917,674.1172Z" fill="#fff"/>
      </g>
      <g>
        <path d="M210.4146,688.3018s0-45.8541-46.79-86.9253a1073.81,1073.81,0,0,1-81.1025-79.231S85.2073,631.74,130.3427,660.02,210.4146,688.3018,210.4146,688.3018Z" fill="url(#linear-gradient-21)"/>
        <path d="M205.4908,682.5159c-.1868-.138-14.8416-11.0168-33.6418-26.9644a.47.47,0,0,0,.0518-.1832l1.4035-24.9286a.4783.4783,0,0,0-.4507-.5049.4534.4534,0,0,0-.505.4507l-1.3752,24.4206c-5.0378-4.2864-10.3538-8.92-15.762-13.8058a143.61,143.61,0,0,1-15.3036-16.6553h1.0982a.4789.4789,0,0,0,.4755-.4236l2.8108-24.2058a.4793.4793,0,0,0-.42-.5311.4855.4855,0,0,0-.5307.4208L140.58,623.3875h-1.4348a373.6576,373.6576,0,0,1-25.3522-37.2087l2.4218-13.5723a.4788.4788,0,1,0-.9426-.1683l-2.23,12.4959c-7.4049-12.3164-12.2-21.4462-12.3155-21.667a.4789.4789,0,0,0-.8491.4432c.1164.2227,4.973,9.4688,12.4654,21.9162l-11.9488-2.3436a.4784.4784,0,1,0-.1842.9388l12.8006,2.5114a377.7555,377.7555,0,0,0,24.92,36.6544H119.0181a.4788.4788,0,0,0,0,.9575h19.6663A146.4366,146.4366,0,0,0,154.57,641.7109c5.2215,4.7169,10.3568,9.199,15.24,13.3619l-19.5059,2.6005a.4789.4789,0,0,0,.0627.9537.488.488,0,0,0,.0635-.0037l20.361-2.7144c19.0363,16.1724,33.9414,27.2378,34.13,27.3774a.479.479,0,0,0,.57-.77Z" fill="#fff"/>
      </g>
    </g>
    <g>
      <g>
        <path d="M791.2017,687.8082s-26.5789-52.2414-8.1781-125.5275,77.2273-128.3582,77.2273-128.3582,30.5691,96.21-4.329,161.0356S791.2017,687.8082,791.2017,687.8082Z" fill="url(#linear-gradient-22)"/>
        <g>
          <path d="M834.7674,507.31a.4963.4963,0,0,1-.1693-.03.485.485,0,0,1-.28-.2682l-6.6105-15.7573a.4868.4868,0,1,1,.8978-.3766l6.4088,15.277,22.4287-11.2409a.487.487,0,1,1,.4356.8711l-22.8937,11.474A.4861.4861,0,0,1,834.7674,507.31Z" fill="#fff"/>
          <path d="M815.95,561.8377a.4877.4877,0,0,1-.42-.2406l-9.6841-16.51a.4872.4872,0,1,1,.8407-.4926l9.4892,16.1776,26.5912-8.1425a.4874.4874,0,1,1,.2854.932l-26.9594,8.2548A.4954.4954,0,0,1,815.95,561.8377Z" fill="#fff"/>
          <path d="M789.9262,688.7807a.4866.4866,0,0,1-.485-.4555c-3.77-58.861,55.9014-210.82,56.5044-212.3487a.4867.4867,0,1,1,.9053.3575c-.6019,1.5264-60.1943,153.2842-56.4378,211.9284a.4873.4873,0,0,1-.4546.5174C789.9481,688.7807,789.9367,688.7807,789.9262,688.7807Z" fill="#fff"/>
          <path d="M798.1429,626.22a.4914.4914,0,0,1-.1607-.0276.4823.4823,0,0,1-.2805-.2539l-8.3889-18.0759a.4867.4867,0,0,1,.8825-.4109l8.1787,17.6223,25.9969-12.9623a.4865.4865,0,1,1,.4337.8711L798.36,626.1689A.4781.4781,0,0,1,798.1429,626.22Z" fill="#fff"/>
        </g>
      </g>
      <g>
        <path d="M789.9272,688.2936s4.4416-21.15-20.9389-54.1449S721.4,592.8,721.4,592.8,737.8973,674.5459,789.9272,688.2936Z" fill="url(#linear-gradient-23)"/>
        <path d="M777.2368,673.867a.4838.4838,0,0,1-.35-.1484c-11.0774-11.4635-31.7486-47.3814-31.956-47.7427a.487.487,0,0,1,.8445-.4851c.2074.3605,20.8186,36.1747,31.8114,47.5507a.487.487,0,0,1-.35.8255Z"/>
      </g>
      <g>
        <path d="M789.9272,688.2936s0-46.6365,47.5884-88.4086a1092.1362,1092.1362,0,0,0,82.4864-80.5829s-2.731,111.4641-48.6366,140.227S789.9272,688.2936,789.9272,688.2936Z" fill="url(#linear-gradient-24)"/>
        <path d="M901.8242,581.4827l-12.1521,2.3838c7.62-12.66,12.56-22.0639,12.678-22.29a.487.487,0,1,0-.8635-.4507c-.1171.2245-4.9939,9.51-12.5249,22.036l-2.2681-12.7085a.4869.4869,0,1,0-.9586.1712l2.4631,13.8039a380.0057,380.0057,0,0,1-25.7851,37.8437h-1.46l-2.8083-24.1881a.4943.4943,0,0,0-.54-.4279.488.488,0,0,0-.428.54l2.8588,24.6189a.4874.4874,0,0,0,.4841.4308h1.117a146.0718,146.0718,0,0,1-15.5648,16.9394c-5.5,4.9689-10.9072,9.6819-16.031,14.0415l-1.3982-24.8374a.4646.4646,0,0,0-.5136-.4583.4864.4864,0,0,0-.4584.5135l1.4275,25.354a.48.48,0,0,0,.0525.186c-19.1211,16.22-34.0267,27.2845-34.2167,27.4247a.4875.4875,0,0,0,.58.7837c.1915-.1421,15.35-11.3963,34.7117-27.8447l20.7086,2.7608a.5154.5154,0,0,0,.0656.0038.4872.4872,0,0,0,.0637-.97l-19.84-2.6448c4.9668-4.2339,10.19-8.7925,15.5-13.59a148.9487,148.9487,0,0,0,16.1566-17.6622h20.0018a.4869.4869,0,1,0,0-.9738H863.6484a384.2238,384.2238,0,0,0,25.3448-37.28l13.0193-2.5543a.4866.4866,0,1,0-.1883-.9549Z"/>
      </g>
    </g>
    <g>
      <g>
        <path d="M900.4154,687.8656s4.8826-37.6968,23.2776-60.8609l18.3951-23.1641S945.2675,674.4651,900.4154,687.8656Z" fill="url(#linear-gradient-25)"/>
        <path d="M933.866,625.3862a.5173.5173,0,0,0-.673.3053c-.1276.3411-12.9837,34.3674-33.1991,61.8646a.51.51,0,0,0-.092.3095h1.1587c20.1733-27.562,32.9835-61.4667,33.1107-61.8065A.5222.5222,0,0,0,933.866,625.3862Z" fill="#fff"/>
      </g>
      <g>
        <path d="M901.4237,688.256s-25.7758-2.0439-28.501-42.0125S908.1231,673.4929,901.4237,688.256Z" fill="url(#linear-gradient-26)"/>
        <path d="M894.8059,680.7883a.522.522,0,0,1-.4115-.2c-7.9087-10.0766-14.4573-25.3232-15.2344-35.4661a.5244.5244,0,0,1,.482-.5617.5416.5416,0,0,1,.5616.482c.75,9.7988,7.3441,25.1291,15.0138,34.9a.5228.5228,0,0,1-.4115.8455Z" fill="#fff"/>
      </g>
    </g>
    <g>
      <g>
        <path d="M101.3751,688.256s25.7758-2.0439,28.501-42.0125S94.6757,673.4929,101.3751,688.256Z" fill="url(#linear-gradient-27)"/>
        <path d="M106.4879,682.8826a.5228.5228,0,0,1-.3962-.8638c9.7738-11.3683,15.7577-24.5931,16.0058-35.3753a.5515.5515,0,0,1,.5351-.51.5233.5233,0,0,1,.5106.5351c-.2538,11.016-6.3321,24.4868-16.2591,36.0328A.5191.5191,0,0,1,106.4879,682.8826Z"/>
      </g>
      <g>
        <path d="M102.4208,688.256s-4.8827-37.6967-23.2777-60.8609L60.7481,604.231S57.5687,674.8555,102.4208,688.256Z" fill="url(#linear-gradient-28)"/>
        <path d="M102.4208,688.256s-.0515-.3945-.1618-1.12C82.41,659.77,70.8976,625.2248,70.7829,624.876a.523.523,0,0,0-.9936.3267c.1161.3519,11.7417,35.2448,31.793,62.7828C101.8624,688.0749,102.1368,688.1712,102.4208,688.256Z"/>
      </g>
    </g>
  </g>
  <g id="Chair_1" data-name="Chair 1">
    <rect x="287.6459" y="639.0589" width="95.9912" height="7.5829" fill="url(#linear-gradient-29)"/>
    <rect x="298.1319" y="541.6901" width="75.0193" height="7.5829" fill="url(#linear-gradient-30)"/>
    <polygon points="288.456 688.258 281.756 688.258 298.533 504.771 305.233 504.771 288.456 688.258" fill="url(#linear-gradient-31)"/>
    <polygon points="381.992 688.258 388.692 688.258 371.915 504.771 365.215 504.771 381.992 688.258" fill="url(#linear-gradient-32)"/>
    <rect x="298.5334" y="494.5421" width="74.6177" height="10.2285" fill="url(#linear-gradient-33)"/>
    <polygon points="292.714 421.047 286.015 421.047 298.533 494.542 305.233 494.542 292.714 421.047" fill="url(#linear-gradient-34)"/>
    <rect x="286.0146" y="375.0595" width="12.5188" height="45.9876" fill="url(#linear-gradient-35)"/>
  </g>
  <g id="Person_1" data-name="Person 1">
    <g id="Head">
      <path d="M369.8105,249.9043S378.1592,246.2,385.6,232.7678c8.6265-15.5726-8.7386-26.44-20.8293-22.2487-8.3513,2.8949-11.9575,6.49-19.6147,6.9-14.9952.8035-28.5019,8.1287-28.8426,24.1391s11.5821,22.5474,13.4556,24.3564S369.8105,249.9043,369.8105,249.9043Z" fill="url(#linear-gradient-36)"/>
      <path d="M359.358,283.4583v13.1668s-3.7307,10.2194-11.1669,8.1756-12.2905-11.2415-12.2905-11.2415V271.9614Z" fill="url(#linear-gradient-37)"/>
      <path d="M359.358,283.4582l-23.4574-11.4969v8.514c3.2615,5.6577,9.1094,13.1371,14.8334,13.9557a10.77,10.77,0,0,0,8.624-1.9121Z" fill="#19171a" opacity="0.2"/>
      <path d="M370.1307,283.4642c-1.6969,3.7417-14.647,9.5283-24.1753,1.3631-9.5421-8.1789-10.2237-10.9052-10.2237-10.9052a14.02,14.02,0,0,1-2.309-.32c-2.5455-.57-6.4541-2.0727-7.567-6.12-1.5161-5.4526,2.0587-10.3628,4.785-8.0816a4.2623,4.2623,0,0,1,1.0015,1.238c.5147.89.9876.9319,1.4466.3894,2.017-2.309,1.8626-6.95,5.4082-13.47,1.5859-2.9162,16.2093-2.539,25.0084-2.0353a7.3421,7.3421,0,0,1,6.9171,7.0444c.1976,4.9493.4283,11.8987.4593,17.9891C370.9236,276.7736,370.7567,282.1011,370.1307,283.4642Z" fill="url(#linear-gradient-38)"/>
      <ellipse cx="348.3201" cy="256.7387" rx="1.1497" ry="2.6615" fill="url(#linear-gradient-39)"/>
      <ellipse cx="363.6209" cy="256.7387" rx="1.1497" ry="2.6615" fill="url(#linear-gradient-40)"/>
      <path d="M370.1307,283.4642c-1.6969,3.7417-14.647,9.5283-24.1753,1.3631-9.5421-8.1789-10.2237-10.9052-10.2237-10.9052s-5.3831-12.2129-5.091-14.5219a4.2623,4.2623,0,0,1,1.0015,1.238c.5147.89.9876.9319,1.4466.3894,3.1576,8.2208,13.6345,13.1113,17.29,11.4617,3.53-1.5928,9.017.0493,12.2615.2977,3.8647.296,6.0986-.2521,8.2416-2.2311C370.9236,276.7736,370.7567,282.1011,370.1307,283.4642Z" fill="url(#linear-gradient-41)"/>
      <path d="M355.85,282.0081a8.77,8.77,0,0,1-2.7351-.4653,19.77,19.77,0,0,1-3.7457-2.2542.6955.6955,0,1,1,.8259-1.1193,18.7439,18.7439,0,0,0,3.3518,2.0512c4.4935,1.4718,6.4536-1.6376,6.472-1.67a.6953.6953,0,1,1,1.1872.724A6.4747,6.4747,0,0,1,355.85,282.0081Z" fill="#d35b67"/>
      <path d="M344.1893,250.6a.6956.6956,0,0,1-.5692-1.0942,5.6659,5.6659,0,0,1,4.0527-2.6081c3.3-.3674,6.3987,2.3738,6.5284,2.4906a.6954.6954,0,0,1-.9311,1.0331c-.0272-.0245-2.7569-2.44-5.4451-2.1408a4.3369,4.3369,0,0,0-3.0652,2.0226A.6939.6939,0,0,1,344.1893,250.6Z" fill="url(#linear-gradient-42)"/>
      <path d="M367.241,250.6a.696.696,0,0,1-.6133-.3654,2.7246,2.7246,0,0,0-1.8963-1.5554c-1.734-.328-3.9515,1.156-4.6606,1.7564a.6954.6954,0,1,1-.8979-1.0622c.1236-.1053,3.0808-2.5776,5.818-2.0607a4.0831,4.0831,0,0,1,2.8621,2.2617.6958.6958,0,0,1-.612,1.0256Z" fill="url(#linear-gradient-43)"/>
      <path d="M358.8116,273.1827a3.28,3.28,0,0,1-1.9683-.69.6959.6959,0,0,1,.8992-1.0622,1.8327,1.8327,0,0,0,1.2973.3443,2.9117,2.9117,0,0,0,1.8338-1.4344c1.3088-1.9337-1.0446-7.5214-2.8349-10.5893a.6954.6954,0,0,1,1.2008-.7016c.52.89,5.011,8.7826,2.786,12.0706a4.1832,4.1832,0,0,1-2.8125,2.0348A2.922,2.922,0,0,1,358.8116,273.1827Z" fill="#d35b67"/>
    </g>
    <g id="Body_Leg" data-name="Body &amp; Leg">
      <g>
        <path d="M467.1287,678.7139H428.8072s-16.2467,3.5887-19.3208-3.4636c-2.0865-4.7988.2921-17.7628,2.003-25.5384.8068-3.63,1.4745-6.1342,1.4745-6.1342h20.6978a19.0228,19.0228,0,0,0,1.8918,6.1342,17.28,17.28,0,0,0,6.5376,7.15c7.6643,4.6042,23.5076,8.805,25.0376,15.3287S467.1287,678.7139,467.1287,678.7139Z" fill="url(#linear-gradient-44)"/>
        <path d="M444.8705,671.9c-1.5329-6.82-17.3731-11.2077-25.0377-16.0111a17.344,17.344,0,0,1-5.8507-6.177h21.5714a19.0228,19.0228,0,0,1-1.8918-6.1342H412.9639s-.6677,2.5037-1.4745,6.1342h.0421c-1.7242,8.0979-4.144,21.793-2.0384,26.8433a5.7241,5.7241,0,0,0,1.598,2.1643h33.7794S446.4034,678.72,444.8705,671.9Z" fill="#19171a" opacity="0.2"/>
        <g>
          <path d="M394.0287,453.3236s26.7409-3.9175,36.623,10.3533c5.4711,7.9009,4.9361,110.9177,4.4251,137.9992s-1.0219,41.9-1.0219,41.9H411.8125s-5.18-80.2229-7.5644-122.6336-40.7075-50.927-40.7075-50.927S378.5291,456.2191,394.0287,453.3236Z" fill="url(#linear-gradient-45)"/>
          <path d="M404.2481,520.9424c2.0076,35.7055,5.9961,98.2071,7.2072,117.0795.5507-14.2909,5.1614-136.4012,2.7568-158.0426-2.5548-22.9938-25.5585-20.3845-25.5585-20.3845l-8.9713-.8958a88.8161,88.8161,0,0,0-16.1417,11.3164S401.8636,478.5316,404.2481,520.9424Z" fill="#19171a" opacity="0.2"/>
        </g>
      </g>
      <g>
        <path d="M361.3306,294.9278s19.0721,1.3566,25.2038,32.015,14.9885,79.3712,14.9885,79.3712l49.3941,11.2414v16.3512H391.3115s-13.634-38.834-19.7657-74.2615S361.3306,294.9278,361.3306,294.9278Z" fill="url(#linear-gradient-46)"/>
        <path d="M450.9171,424.1129s-32.7024-7.2388-46.25-9.9127-14.7266-21.5122-21.6236-67.4653-19.5033-50.11-19.5033-50.11l27.7709,137.2814h59.6056Z" fill="#19171a" opacity="0.2"/>
        <path d="M394.0326,453.319s.3338,11.5869-30.49,16.6918c-30.8242,5.1188-63.1924-14.647-63.1924-14.647s-1.9751-42.0356-1.8082-81.2613c0-1.4327.0138-2.8515.0277-4.27q.0419-4.8615.1392-9.5978c.0139-1.4327.0556-2.8515.0835-4.27.0834-3.2688.1947-6.4681.3338-9.57.0556-1.4326.1113-2.8375.1808-4.2285.1808-3.3384.3756-6.5237.626-9.5144.1112-1.4466.2364-2.8515.3755-4.2007.0139-.167.026-.32.0417-.4869,3.4283-36.397,37.64-34.399,37.64-34.399l23.3407,1.3632s8.1651,4.0755,10.5576,10.14c.5981,1.53,2.309,11.6843,4.5207,26.0253.2087,1.3493.4173,2.74.6259,4.159.459,2.9907.932,6.1483,1.4327,9.4031.1948,1.3631.4034,2.7541.612,4.159q.6886,4.59,1.391,9.3892c.1948,1.377.4035,2.7542.6121,4.159q.6676,4.632,1.3632,9.3753c.1947,1.377.4033,2.7541.5981,4.1451C388.5661,414.0376,394.0326,453.319,394.0326,453.319Z" fill="url(#linear-gradient-47)"/>
        <path d="M392.9941,445.8847c-11.7756.6622-28.8172,6.0048-41.8872,5.0543-18.7357-1.3626-42.24-9.1975-45.8741-47.6908-2.9275-31.0139-3.2013-70.5361-3.1973-84.7315a60.5817,60.5817,0,0,0-1.6856,9.4469c-.0139.1669-.0278.32-.0417.4869-.1391,1.3492-.2643,2.7541-.3755,4.2007-.25,2.9907-.4452,6.176-.626,9.5144-.07,1.391-.1252,2.7959-.1808,4.2285-.1391,3.1019-.25,6.3012-.3338,9.57-.0279,1.4188-.07,2.8376-.0835,4.27q-.1043,4.7364-.1392,9.5978c-.0139,1.4188-.0277,2.8376-.0277,4.27-.1669,39.2257,1.8082,81.2613,1.8082,81.2613a125.0354,125.0354,0,0,0,28.6935,11.9941c8.9667.7355,21.204,1.8836,33.1391,2.8448.4533-.0646.9071-.1167,1.36-.1919,30.8241-5.1049,30.49-16.6918,30.49-16.6918S393.6518,450.5824,392.9941,445.8847Z" fill="#19171a" opacity="0.2"/>
        <g>
          <path d="M379.08,348.8144a177.6539,177.6539,0,0,1-30.6711,2.49,264.6783,264.6783,0,0,1-49.2825-4.91c.0556-1.4326.1113-2.8375.1808-4.2285,12.9917,2.5316,47.5438,8.04,79.1608,2.49C378.6623,346.0185,378.8709,347.41,379.08,348.8144Z" fill="#cdb9fc"/>
          <path d="M377.0348,335.2523a179.7153,179.7153,0,0,1-28.6264,2.1422,266.0085,266.0085,0,0,1-48.4757-4.7433c.1112-1.4466.2364-2.8515.3755-4.2007,13.3951,2.5454,45.8329,7.4834,76.1007,2.6428C376.6176,332.4426,376.8262,333.8336,377.0348,335.2523Z" fill="#cdb9fc"/>
          <path d="M381.0826,362.3626a174.9068,174.9068,0,0,1-32.6742,2.8516,266.6375,266.6375,0,0,1-49.7-4.98c.0139-1.4327.0556-2.8515.0835-4.27,12.8387,2.5455,49.1156,8.4711,81.6784,2.24C380.6653,359.5806,380.874,360.9578,381.0826,362.3626Z" fill="#cdb9fc"/>
          <path d="M383.0439,375.883a172.4413,172.4413,0,0,1-34.6355,3.241,265.8555,265.8555,0,0,1-49.8667-5.0215c0-1.4327.0138-2.8515.0277-4.27,12.8945,2.5594,50.6179,8.791,83.8764,1.9057C382.6405,373.1149,382.8491,374.492,383.0439,375.883Z" fill="#cdb9fc"/>
        </g>
        <path d="M309.8272,319.3567c2.3821-10.0389,15.1139-13.5682,22.0887-5.9652,2.53,2.7577,4.7294,7.0357,6.076,13.5513,5.28,25.5487,14.8334,74.6021,14.8334,74.6021l57.2139,13.9666v18.3951H343.9533s-4.0878,1.3626-13.626-21.12C322.0709,393.3247,304.1257,343.3841,309.8272,319.3567Z" fill="url(#linear-gradient-48)"/>
        <path d="M410.0392,418.2367s17.1176.2555,21.4608,3.3214,11.4969,7.6646,11.4969,7.6646l4.1411,1.4647a2.0715,2.0715,0,0,1,1.0985,2.9966l-.13.2226H410.0392Z" fill="url(#linear-gradient-49)"/>
        <path d="M412.8757,418.3288c-1.7245-.0753-2.8365-.0921-2.8365-.0921v15.67h4.1858Z" fill="#19171a" opacity="0.2"/>
        <path d="M440.1866,433.5659s0-2.6667-1.7033-3.1217-6.4723-1.3067-6.4723-1.3067l-3.9175-2.1716s7.1537,1.8309,8.5163,2.0013S440.8679,430.5,440.1866,433.5659Z" fill="#19171a" opacity="0.2"/>
        <path d="M432.0962,424.1129l2.095,1.9588s9.487,3.8323,10.2535,5.5355a7.0232,7.0232,0,0,1,.7664,2.2994s.3407-2.2994-.6813-3.151-9.7936-5.1949-9.7936-5.1949Z" fill="#19171a" opacity="0.2"/>
        <g>
          <path d="M450.917,420.0251s17.8841,1.533,20.1835,1.7884,7.4942,7.1537,11.1562,7.92a3.2089,3.2089,0,0,1,2.64,4.173h-33.98Z" fill="url(#linear-gradient-50)"/>
          <path d="M456.14,426.9659s7.4091-.8091,10.475,1.49,7.6646,1.2774,8.1755,2.81a3.8237,3.8237,0,0,1,0,2.64H452.308v-7.0788Z" fill="#19171a" opacity="0.2"/>
          <path d="M454.7493,426.9659s7.4091-.8091,10.475,1.49,7.6646,1.2774,8.1755,2.81a3.8237,3.8237,0,0,1,0,2.64H450.917v-7.0788Z" fill="url(#linear-gradient-51)"/>
          <path d="M452.3936,420.152c-.9187-.0791-1.4765-.1269-1.4765-.1269v13.8814H454.15Z" fill="#19171a" opacity="0.2"/>
        </g>
      </g>
      <g>
        <path d="M440.7,678.7139H402.3785s-16.2467,3.5887-19.3208-3.4636c-2.0864-4.7988.2922-17.7628,2.0031-25.5384.8067-3.63,1.4744-6.1342,1.4744-6.1342H407.233a19.0259,19.0259,0,0,0,1.8918,6.1342,17.28,17.28,0,0,0,6.5376,7.15c7.6643,4.6042,23.5076,8.805,25.0377,15.3287S440.7,678.7139,440.7,678.7139Z" fill="url(#linear-gradient-52)"/>
        <path d="M409.1248,649.7119h-24.064c.8067-3.63,1.4744-6.1342,1.4744-6.1342H407.233A19.0259,19.0259,0,0,0,409.1248,649.7119Z" fill="#19171a" opacity="0.2"/>
        <path d="M384.4806,463.7677s23.0037-2.6092,25.5586,20.3846-2.81,159.4237-2.81,159.4237H386.5344S373.76,550.5788,373.76,520.9424s-4.0877-25.5487-4.0877-25.5487-61.8278,10.2195-67.9595-7.6646-1.3626-32.3616-1.3626-32.3616Z" fill="url(#linear-gradient-53)"/>
      </g>
    </g>
  </g>
  <g id="Chair_2" data-name="Chair 2">
    <polygon points="686.891 421.047 693.59 421.047 681.071 494.542 674.372 494.542 686.891 421.047" fill="url(#linear-gradient-54)"/>
    <rect x="681.0713" y="375.0595" width="12.5188" height="45.9876" transform="translate(1374.6614 796.1066) rotate(-180)" fill="url(#linear-gradient-55)"/>
    <g>
      <rect x="595.9676" y="639.0589" width="95.9912" height="7.5829" transform="translate(1287.9265 1285.7007) rotate(-180)" fill="url(#linear-gradient-56)"/>
      <rect x="606.4536" y="541.6901" width="75.0193" height="7.5829" transform="translate(1287.9265 1090.9631) rotate(-180)" fill="url(#linear-gradient-57)"/>
      <polygon points="597.612 688.258 590.913 688.258 607.69 504.771 614.389 504.771 597.612 688.258" fill="url(#linear-gradient-58)"/>
      <polygon points="691.149 688.258 697.848 688.258 681.071 504.771 674.372 504.771 691.149 688.258" fill="url(#linear-gradient-59)"/>
      <rect x="606.4536" y="494.5421" width="74.6177" height="15.6698" transform="translate(1287.5249 1004.754) rotate(-180)" fill="url(#linear-gradient-60)"/>
    </g>
  </g>
  <g id="Person_2" data-name="Person 2">
    <g id="Head-2" data-name="Head">
      <path d="M595.5869,242.782c-9.3678-17.7138,4.96-28.7309,12.9654-24.9838s9.7556,5.9613,24.7713,6.1317,22.4085,6.0463,22.7492,22.0568-6.4548,16.7281-8.3283,18.5372S604.9548,260.4957,595.5869,242.782Z" fill="url(#linear-gradient-61)"/>
      <path d="M616.0641,283.4583v13.1668s5.822,10.2194,13.2582,8.1756,12.29-11.2415,12.29-11.2415V271.9614Z" fill="url(#linear-gradient-62)"/>
      <path d="M641.6128,271.9613l-25.5487,11.4969v3.8152s5.5177,12.6779,16.6315,2.8275a52.2185,52.2185,0,0,0,8.9172-10.1373Z" fill="#19171a" opacity="0.2"/>
      <path d="M631.558,284.8273c11.6413-4.7357,10.2237-10.9052,10.2237-10.9052a14.02,14.02,0,0,0,2.3091-.32c2.5454-.57,6.4541-2.0727,7.5669-6.12,1.5161-5.4526-2.0587-10.3628-4.785-8.0816a4.2623,4.2623,0,0,0-1.0015,1.238c-.5147.89-.9876.9319-1.4466.3894-2.017-2.309-3.867-15.3147-7.7478-15.0365-4.7711.3338-29.2941,0-29.2941,0s-.751,13.6593-.7511,24.5648C606.6315,287.0773,616.0641,291.13,631.558,284.8273Z" fill="url(#linear-gradient-63)"/>
      <ellipse cx="629.1933" cy="256.7387" rx="1.1497" ry="2.6615" fill="url(#linear-gradient-64)"/>
      <ellipse cx="613.8925" cy="256.7387" rx="1.1497" ry="2.6615" fill="url(#linear-gradient-65)"/>
      <path d="M633.3229,250.6a.6956.6956,0,0,1-.5705-.2968,4.3317,4.3317,0,0,0-3.0645-2.0226c-2.676-.2975-5.4172,2.1163-5.4444,2.1408a.6952.6952,0,0,1-.9305-1.0331c.13-.1175,3.2465-2.856,6.5284-2.4906a5.6656,5.6656,0,0,1,4.052,2.6081.6964.6964,0,0,1-.5705,1.0942Z" fill="#482d59"/>
      <path d="M610.2725,250.6a.6953.6953,0,0,1-.6126-1.0256,4.0806,4.0806,0,0,1,2.8635-2.2617c2.7358-.5182,5.6943,1.9554,5.8179,2.0607a.6954.6954,0,0,1-.8979,1.0622c-.0271-.021-2.5917-2.1564-4.6646-1.7557a2.7251,2.7251,0,0,0-1.8936,1.5547A.6966.6966,0,0,1,610.2725,250.6Z" fill="#482d59"/>
      <path d="M620.2208,278.6892l10.1222-4.4285S627.035,287.2054,620.2208,278.6892Z" fill="#fe7078"/>
      <path d="M615.7808,273.11a1.674,1.674,0,0,1-1.0473-.2839,1.0293,1.0293,0,0,1-.3831-.9339c.106-1.0507,2.5877-10.0758,2.87-11.1014a.696.696,0,0,1,1.342.37c-.9644,3.4945-2.4641,9.0774-2.7738,10.5621a7.7608,7.7608,0,0,0,1.876-.4184.6955.6955,0,0,1,.4537,1.315A7.76,7.76,0,0,1,615.7808,273.11Z" fill="#d35b67"/>
    </g>
    <g id="Body_Leg-2" data-name="Body &amp; Leg">
      <path d="M545.9472,643.576s-.7664,8.6865-8.431,13.2853-23.5048,8.8-25.0377,15.3292,0,6.5291,0,6.5291h38.323s16.2442,3.5768,19.31-3.4633-3.47-31.68-3.47-31.68Z" fill="url(#linear-gradient-66)"/>
      <path d="M545.9472,643.576a19.0376,19.0376,0,0,1-1.9034,6.1316h11.1117s2.0525,10.22-13.792,14.3073c-13.1443,3.3912-16.7874,6.3192-17.065,14.7046h26.503s16.2443,3.5769,19.31-3.4632-3.47-31.68-3.47-31.68Z" fill="#19171a" opacity="0.2"/>
      <path d="M585.5761,453.3236s-26.741-3.9175-36.623,10.3533c-5.4711,7.9009-4.9362,110.9177-4.4252,137.9992s1.0219,41.9,1.0219,41.9h22.2424s5.18-80.2229,7.5644-122.6336,40.7075-50.927,40.7075-50.927S601.0756,456.2191,585.5761,453.3236Z" fill="url(#linear-gradient-67)"/>
      <path d="M585.5761,453.3236a63.2475,63.2475,0,0,0-8.7877-.4876c1.4022,1.458,1.6853,3.82-.7911,7.6486-7.0455,10.8933-14.1991-.2346-14.71,32.9219-.3079,19.9737,5.7674,57.7637,10.6476,84.6607,1.2536-20.2185,2.5321-41.3027,3.4217-57.1248,1.5412-27.4114,18.0878-40.6523,29.6045-46.5975l2.2558-11.192C601.4759,459.2386,593.5973,454.822,585.5761,453.3236Z" fill="#19171a" opacity="0.2"/>
      <path d="M572.3759,643.576s-.7664,8.6865-8.431,13.2853-23.5048,8.8-25.0377,15.3292,0,6.5291,0,6.5291H577.23s16.2442,3.5768,19.31-3.4633-3.47-31.68-3.47-31.68Z" fill="url(#linear-gradient-68)"/>
      <path d="M594.71,650.4953c-.88-4.0534-1.6395-6.9193-1.6395-6.9193H572.3759a18.6516,18.6516,0,0,1-1.446,5.149Z" fill="#19171a" opacity="0.2"/>
      <g>
        <path d="M525.0081,356.1535s-13.8961-3.2758-17.2175-4.6135A174.76,174.76,0,0,1,487.81,340.8243c-4.4744-3.0659-.3866,6.8981,3.7012,9.453,3.14,1.9622-4.7925-4.3544-8.1194-6.6959a.8948.8948,0,0,0-1.3889.9151c.4392,2.2548,2.5948,7.2024,4.9095,8.6514,3.5769,2.2391-3.6345-3.6744-4.6565-1.4353s4.4011,8.3,10.7882,12.1191,12.5189,6.629,18.026,7.3955,11.3834,1.5329,11.3834,1.5329Z" fill="url(#linear-gradient-69)"/>
        <path d="M507.7906,351.54s.3538.6006.8516,1.6076a35.4181,35.4181,0,0,1,2.4277,6.3272c1.1639,4.3433,7.5511,0,7.5511,0S511.2676,349.9923,507.7906,351.54Z" fill="#19171a" opacity="0.2"/>
        <path d="M525.0081,356.1535s-6.1316-7.1713-9.1975-8.6954-8.1755-2.2906-11.2414-4.59-2.81,5.8762,1.7884,7.92,5.2747,5.3652,5.2747,5.3652,3.7648,8.053,8.0106,7.6646S525.0081,356.1535,525.0081,356.1535Z" fill="url(#linear-gradient-70)"/>
        <polygon points="532.673 357.942 525.008 356.153 522.453 372.76 531.67 377.055 532.673 357.942" fill="url(#linear-gradient-71)"/>
        <path d="M616.0641,296.6251s-16.8621-.3407-22.9938,30.3177-11.0035,47.6909-11.0035,47.6909l-49.3941-16.6918L531.67,377.055l45.88,19.8323a16.9878,16.9878,0,0,0,22.1642-8.4057c2.9826-6.4389,6.0691-15.6914,8.3442-28.8365C614.1906,324.2176,616.0641,296.6251,616.0641,296.6251Z" fill="url(#linear-gradient-72)"/>
        <path d="M599.0993,321.9169c-3.0659,22.74-7.63,59.6433-13.5234,59.0756s-20.1723-7.5662-20.1723-7.5662l-1.3912,7.5662c2.8787,3.9155,11.6265,6.4247,11.9849,7.6077.5062,1.6714-32.1863-10.7481-44.1284-15.3339l-.1988,3.7886,45.88,19.8323a16.9877,16.9877,0,0,0,22.1642-8.4056c2.9826-6.4389,6.0691-15.6915,8.3442-28.8365,6.1316-35.4275,8.0052-63.02,8.0052-63.02S602.1651,299.1771,599.0993,321.9169Z" fill="#19171a" opacity="0.2"/>
        <path d="M641.6128,293.5592s34.4519.29,37.6417,34.4056c3.7929,40.5658,0,127.4027,0,127.4027s-32.3616,19.7576-63.19,14.6479-30.488-16.6918-30.488-16.6918,19.7576-142.1914,22.1421-148.2527a16.3415,16.3415,0,0,1,8.3459-8.4458l7.5442,10.6453Z" fill="url(#linear-gradient-73)"/>
        <path d="M674.3719,422.0236c-9.038,17.0722-29.2851,23.8057-45.0465,21.4211-13.43-2.0318-35.7239-2.3745-42.03-2.4315-1.0718,7.648-1.72,12.31-1.72,12.31s-.3407,11.582,30.488,16.6918,63.19-14.648,63.19-14.648.8515-18.1014,1.3886-41.6312A29.1562,29.1562,0,0,0,674.3719,422.0236Z" fill="#19171a" opacity="0.2"/>
        <path d="M623.7784,315.02s-18.3039,64.1122-19.5694,75.4821a128.4391,128.4391,0,0,0,0,23.6467l12.2564-15.8576S626.3154,333.7558,623.7784,315.02Z" fill="url(#linear-gradient-74)"/>
        <polygon points="617.891 305.071 623.778 315.02 629.325 307.185 623.778 304.232 617.891 305.071" fill="url(#linear-gradient-75)"/>
        <polygon points="623.778 304.232 617.891 312.295 616.064 296.625 623.778 304.232" fill="url(#linear-gradient-76)"/>
        <polygon points="623.778 304.232 630.343 313.658 641.613 293.559 623.778 304.232" fill="url(#linear-gradient-77)"/>
        <polygon points="586.591 360.45 580.144 354.535 565.404 373.426 572.376 378.892 586.591 360.45" fill="url(#linear-gradient-78)"/>
        <path d="M669.7775,319.3567c-2.3821-10.0389-15.1139-13.5682-22.0887-5.9652-2.53,2.7577-4.7294,7.0357-6.076,13.5513-5.28,25.5487-12.7743,64.0674-12.7743,64.0674l-42.2475-30.56-14.2151,18.4413,53.1651,39.9689a15.6682,15.6682,0,0,0,23.6011-5.7839q.0678-.1447.1353-.2905C658.1636,393.6041,675.479,343.3841,669.7775,319.3567Z" fill="url(#linear-gradient-79)"/>
        <path d="M579.1151,355.8542l-6.7392-6.7692s-1.21-10.73-4.2757-14.4776-4.9394-4.5987-6.6426-6.302-1.7033,6.6427,1.3626,10.2195,1.0219,3.9393,1.0219,3.9393-6.6267-2.7649-9.3519-6.001-10.86-14.3746-13.2445-14.5449,3.2935,15.6519,4.9678,18.326c2.8383,4.533-7.0117-13.046-9.0555-13.7273s-1.93,10.2107,6.0749,20.9411,9.3678,10.6541,11.2414,12.187,13.7135,10.213,13.7135,10.213Z" fill="url(#linear-gradient-80)"/>
        <path d="M568.1878,369.8581l10.9274-14.0039-2.1559-2.1654-12.2679,13.5987C566.6923,368.7614,568.1878,369.8581,568.1878,369.8581Z" fill="#19171a" opacity="0.2"/>
        <rect x="495.8827" y="426.9659" width="77.9844" height="6.9566" fill="url(#linear-gradient-81)"/>
        <path d="M546.2135,340.2443l4.3433,5.6432S546.2135,345.7959,546.2135,340.2443Z" fill="#19171a" opacity="0.2"/>
        <path d="M491.511,350.2773l3.52,2.8706h2.3846S493.1289,351.6573,491.511,350.2773Z" fill="#19171a" opacity="0.2"/>
        <path d="M486.9122,353.1479l3.35,3.3543,2.7252.7584S487.6906,353.764,486.9122,353.1479Z" fill="#19171a" opacity="0.2"/>
      </g>
      <path d="M595.1241,463.7677s-23.0037-2.6092-25.5585,20.3846,2.81,159.4237,2.81,159.4237H593.07s12.7744-92.9972,12.7744-122.6336,4.0878-25.5487,4.0878-25.5487,61.8277,10.2195,67.9594-7.6646,1.3626-32.3616,1.3626-32.3616Z" fill="url(#linear-gradient-82)"/>
    </g>
  </g>
  <g id="Table">
    <g id="Umbrella">
      <polygon points="488.049 438.672 476.462 438.672 478.799 174.962 485.712 174.962 488.049 438.672" fill="url(#linear-gradient-83)"/>
      <rect x="478.7991" y="174.9616" width="6.9132" height="1.6655" fill="#19171a" opacity="0.2"/>
      <path d="M689.2269,165.7535a18.7344,18.7344,0,0,1-16.6146,9.2081H291.6488a18.7346,18.7346,0,0,1-16.6147-9.2081,15.118,15.118,0,0,1,.855-16.4571c32.81-46.8241,82.6207-71.7206,125.0878-84.9375s77.5742-14.754,81.0111-14.8746h.3018c6.84.2411,140.4618,6.1639,206.0822,99.8121A15.1178,15.1178,0,0,1,689.2269,165.7535Z" fill="url(#linear-gradient-84)"/>
      <path d="M482.129,39.3909h0a3.0233,3.0233,0,0,1,3.0233,3.0233V49.61a0,0,0,0,1,0,0h-6.0465a0,0,0,0,1,0,0V42.4142a3.0233,3.0233,0,0,1,3.0233-3.0233Z" fill="url(#linear-gradient-85)"/>
      <path d="M614.9439,152.6372c-33.2054-47.2531-67.4195-70.078-90.2746-80.9056-24.8-11.7487-41.9948-12.3088-42.1786-12.3134h-.5677c-.1629.0046-16.5608.5647-40.5733,12.3164-22.1245,10.8271-55.4676,33.6521-88.6719,80.9026a.523.523,0,0,0,.8557.6015c33.0516-47.0341,66.211-69.7539,88.2083-80.532,21.9859-10.7724,37.4867-12.0843,39.8662-12.226V164.0658a.5228.5228,0,0,0,1.0456,0V60.4714c1.8186.0876,18.3131,1.1764,41.6317,12.2353,22.7244,10.7776,56.7507,33.4974,89.8028,80.532a.5233.5233,0,0,0,.4279.2221.5232.5232,0,0,0,.4279-.8236Z" fill="#fff"/>
    </g>
    <g id="Table-2" data-name="Table">
      <rect x="476.4657" y="438.6757" width="11.5821" height="245.9485" fill="url(#linear-gradient-86)"/>
      <rect x="351.1069" y="433.9066" width="262.2996" height="9.5382" rx="4.7691" fill="url(#linear-gradient-87)"/>
      <rect x="404.2481" y="678.7196" width="156.0172" height="9.5382" rx="4.7691" fill="url(#linear-gradient-88)"/>
    </g>
  </g>
  <g id="Shield">
    <path d="M367.5377,488.54c-51.0121,1.1864-85.2637-18.3509-85.2637-18.3509S248.0224,489.7262,197.01,488.54c0,0-25.8446,109.408,78.1949,177.8367a12.8429,12.8429,0,0,0,14.1376,0C393.3823,597.9478,367.5377,488.54,367.5377,488.54Z" fill="url(#linear-gradient-89)"/>
    <path d="M358.8984,496.7271c-45.8433,1.0662-76.6244-16.4915-76.6244-16.4915s-30.7811,17.5577-76.6245,16.4915c0,0-23.2258,98.3223,70.272,159.8176a11.5417,11.5417,0,0,0,12.7051,0C382.1244,595.0494,358.8984,496.7271,358.8984,496.7271Z" fill="url(#linear-gradient-90)"/>
    <polygon points="307.764 555.993 288.951 555.993 288.951 537.179 275.597 537.179 275.597 555.993 256.784 555.993 256.784 569.346 275.597 569.346 275.597 588.16 288.951 588.16 288.951 569.346 307.764 569.346 307.764 555.993" fill="#fff"/>
  </g>
  <g id="Medkit">
    <polygon points="765.252 688.256 617.405 688.256 627.823 601.681 629.325 589.246 753.331 589.246 754.834 601.681 765.252 688.256" fill="url(#linear-gradient-91)"/>
    <path d="M692.787,568.1222a22.6531,22.6531,0,0,0-22.6531,22.6531v1.533H715.44v-1.533A22.6531,22.6531,0,0,0,692.787,568.1222Zm-13.0053,18.5956a13.0053,13.0053,0,1,1,26.0106,0Z" fill="url(#linear-gradient-92)"/>
    <polygon points="754.834 601.681 627.823 601.681 629.325 589.246 753.331 589.246 754.834 601.681" fill="url(#linear-gradient-93)"/>
    <circle cx="691.3283" cy="644.7682" r="28.103" fill="url(#linear-gradient-94)"/>
    <polygon points="706.47 641.977 695.294 641.977 695.294 630.802 687.362 630.802 687.362 641.977 676.187 641.977 676.187 649.909 687.362 649.909 687.362 661.085 695.294 661.085 695.294 649.909 706.47 649.909 706.47 641.977" fill="#fff"/>
  </g>
</svg>
