<svg id="Layer_1" data-name="Layer 1" xmlns="http://www.w3.org/2000/svg" xmlns:xlink="http://www.w3.org/1999/xlink" viewBox="0 0 4680 3120"><defs><style>.cls-1{fill:#d9ebf9;}.cls-2{fill:#5d83ce;}.cls-3{fill:#f8b3a3;}.cls-4{fill:#fff;}.cls-5{fill:#ed4370;}.cls-6{fill:#5a92e5;}.cls-7{fill:#f5838d;}.cls-8{fill:#f9b2bb;}.cls-9{fill:#081ea0;}.cls-10{fill:#322f7c;}.cls-11{fill:#cfe1f9;}.cls-12{opacity:0.65;}.cls-13{clip-path:url(#clip-path);}.cls-14{opacity:0.39;}.cls-15{fill:#71a6f4;}.cls-16{fill:#88adea;}.cls-17{clip-path:url(#clip-path-2);}.cls-18{fill:#f9a5af;}.cls-19{clip-path:url(#clip-path-3);}.cls-20{fill:#e52e66;}.cls-21{clip-path:url(#clip-path-4);}.cls-22{clip-path:url(#clip-path-5);}.cls-23{opacity:0.59;}.cls-24{fill:#ed5d75;}.cls-25{clip-path:url(#clip-path-6);}.cls-26{fill:#db265e;}.cls-27,.cls-36{fill:none;stroke:#fff;}.cls-27{stroke-linecap:round;stroke-linejoin:round;stroke-width:10px;opacity:0.36;}.cls-28{clip-path:url(#clip-path-7);}.cls-29{fill:#010f4c;}.cls-30{clip-path:url(#clip-path-8);}.cls-31{clip-path:url(#clip-path-9);}.cls-32{fill:#e26a6a;}.cls-33{fill:#4949a5;}.cls-34{clip-path:url(#clip-path-10);}.cls-35{fill:#100e63;}.cls-36{stroke-miterlimit:10;stroke-width:6px;opacity:0.32;}.cls-37{clip-path:url(#clip-path-11);}.cls-38{clip-path:url(#clip-path-12);}.cls-39{fill:#fbd2da;}.cls-40{fill:#ffbbcb;}.cls-41{fill:#ffdce5;}.cls-42{fill:#26217d;}.cls-43{clip-path:url(#clip-path-13);}.cls-44{clip-path:url(#clip-path-14);}.cls-45{clip-path:url(#clip-path-15);}.cls-46{opacity:0.55;}.cls-47{fill:#ff99a1;}.cls-48{fill:#13136d;}.cls-49{clip-path:url(#clip-path-16);}.cls-50{fill:#0841b5;}.cls-51{clip-path:url(#clip-path-17);}.cls-52{fill:#444bd8;}.cls-53{fill:#97c1ff;}.cls-54{fill:#6f89dd;}.cls-55{fill:#8bbfea;}.cls-56{fill:#f7c1c1;}.cls-57{fill:#ff5876;}.cls-58{fill:#4f4085;}</style><clipPath id="clip-path"><path class="cls-1" d="M1007.35,914.78c17-318.15,406.55-650,955-529.48s402.59,466.07,770.31,500.94S3397,752.7,3648.1,1196.77s-53.38,732.58-398.84,805.5-999.53,145.84-1688.48-196.57S1000.21,1047.94,1007.35,914.78Z"/></clipPath><clipPath id="clip-path-2"><path class="cls-2" d="M1347.21,1930.71s-147.59-257.35-412.72-269.91c0,0-31.44,234.84,164,465.3,182.6,215.33,328,220.58,328,220.58S1486.61,2172.17,1347.21,1930.71Z"/></clipPath><clipPath id="clip-path-3"><polygon class="cls-7" points="1332.37 2110.38 1311.74 2132.04 1209.61 2132.04 1209.61 2214.58 1114.71 2214.58 1114.71 2296.09 1023.93 2296.09 1023.93 2383.78 1878.06 2383.78 1878.06 2110.38 1332.37 2110.38"/></clipPath><clipPath id="clip-path-4"><rect class="cls-8" x="1311.74" y="1507.85" width="268.2" height="624.19"/></clipPath><clipPath id="clip-path-5"><rect class="cls-7" x="1579.94" y="1507.85" width="340.15" height="624.19"/></clipPath><clipPath id="clip-path-6"><polygon class="cls-5" points="1458.22 1131.53 1459.76 1109.09 1920.09 1109.09 1920.09 1517.65 1623.01 1517.65 1561.89 1495.99 1458.22 1131.53"/></clipPath><clipPath id="clip-path-7"><path class="cls-9" d="M1797.59,2344.46H1467.5a25.78,25.78,0,0,1-25.79-25.79v-40.49a25.79,25.79,0,0,1,25.79-25.8h330.09a25.79,25.79,0,0,1,25.79,25.8v40.49A25.78,25.78,0,0,1,1797.59,2344.46Z"/></clipPath><clipPath id="clip-path-8"><path class="cls-9" d="M1797.59,2436.55H1467.5a25.79,25.79,0,0,1-25.79-25.8v-40.49a25.79,25.79,0,0,1,25.79-25.8h330.09a25.79,25.79,0,0,1,25.79,25.8v40.49A25.79,25.79,0,0,1,1797.59,2436.55Z"/></clipPath><clipPath id="clip-path-9"><path class="cls-9" d="M1797.59,2528.63H1467.5a25.79,25.79,0,0,1-25.79-25.8v-40.49a25.78,25.78,0,0,1,25.79-25.79h330.09a25.78,25.78,0,0,1,25.79,25.79v40.49A25.79,25.79,0,0,1,1797.59,2528.63Z"/></clipPath><clipPath id="clip-path-10"><path class="cls-10" d="M3259.82,1798.28l-3.76,16s22.51,464.79,74,653.6l119.57-3.87s-35.59-396.18-37.91-482.85c0,0,70.4,325,169.43,462l97-50s-138.23-419.91-149.58-593.24l-43.32-8.25Z"/></clipPath><clipPath id="clip-path-11"><path class="cls-3" d="M3185,1440.79s-37.13,78.93-48,115,52.61,125.35,125.85,188.29l-5.68-71.19s-47.63-69.13-57.85-96.47,39.8-103.69,39.8-103.69Z"/></clipPath><clipPath id="clip-path-12"><path class="cls-4" d="M3365.38,1289.47l19.78-2.4s98.51-2.07,121.2,59.83,37.14,133.61,37.14,133.61-28.88,24.25-46.94,27.34c0,0,23.73,243.49,32,292,0,0-125.12,96-272.48,14.44,0,0-19.08-199.39-19.08-313.14,0,0-68.45-2.3-76.7-37.64,0,0,56.22-121.23,64.73-147.79s63.95-33,90-31.21S3365.38,1289.47,3365.38,1289.47Z"/></clipPath><clipPath id="clip-path-13"><path class="cls-3" d="M3276.33,1088.46s-31.47,120.71-2.58,136.19,46.93,3.61,51.06,25.79-9.8,34-9.8,34,1.55,19.08,32.49,21.15,37.66-18.57,37.66-18.57-12.21-49.36-7.57-58.64-15-18.74-7.39-27.17,24.41-11.18,28-30.61-22.35-22.18-28.37-30.6-13.06-23.73-11.51-35.77C3358.34,1104.28,3301.77,1112.19,3276.33,1088.46Z"/></clipPath><clipPath id="clip-path-14"><path class="cls-3" d="M3541.32,1472.05s25.9,86.87,45,90,98-50,106.25-66-.69-74.11,23.72-88.21,49.17,3.44,54.68,39.2-12.73,58.81-39.55,80.13S3632,1631.64,3577,1649.2,3479,1503,3479,1503Z"/></clipPath><clipPath id="clip-path-15"><path class="cls-5" d="M3687.82,2337.63c14.68,18.72,24,15.82,42.79,2.41s27.68,8.26,27.68,8.26L3747,1432.79c-59.79-37.31-114.52,1.86-114.52,1.86l1.6,917.66a110.41,110.41,0,0,1,19.82-2C3664.86,2350.14,3673.14,2318.9,3687.82,2337.63Z"/></clipPath><clipPath id="clip-path-16"><path class="cls-4" d="M1962.73,2576.24l1251.19-22.71s-255.83-581.82-164.64-1188.9c116.29-774.2-67.47-797.29-67.47-797.29H1730.15s257.25,21.8,168.54,830.67C1893.36,1609.32,1783.13,2232.7,1962.73,2576.24Z"/></clipPath><clipPath id="clip-path-17"><path class="cls-6" d="M2408.71,1069.49q-161.19,5.49-322.37,11c7.49-77.07,1.94-153.24-15.2-228.7l318.54-11.2C2408.06,915.89,2414.89,992.13,2408.71,1069.49Z"/></clipPath></defs><title>Artboard 1 copy 3</title><rect class="cls-4" width="4680" height="3120"/><ellipse class="cls-11" cx="2388.49" cy="2563.69" rx="1427.27" ry="196.31"/><g class="cls-12"><path class="cls-4" d="M3050.14,961.69a2.45,2.45,0,0,1-.2-4.89c.16,0,10.24-1.06,27.77-13.56a2.45,2.45,0,1,1,2.85,4c-18.88,13.46-29.78,14.42-30.24,14.46Z"/></g><path class="cls-1" d="M1007.35,914.78c17-318.15,406.55-650,955-529.48s402.59,466.07,770.31,500.94S3397,752.7,3648.1,1196.77s-53.38,732.58-398.84,805.5-999.53,145.84-1688.48-196.57S1000.21,1047.94,1007.35,914.78Z"/><g class="cls-13"><g class="cls-14"><path class="cls-15" d="M1280.27,360s-66.4,322.88,408.88,511.06,993.41,178.9,1171.16,382,1078.1,52.7,1078.1,52.7L3771.94,2081l-387.79,452.85L2082.84,2252.38s-1203.77-547.71-1199.79-566S961.22,498.53,961.22,498.53Z"/></g><g class="cls-14"><path class="cls-15" d="M1093.41,644.09S1027,967,1502.3,1155.15s993.4,178.9,1171.15,382,1078.1,52.7,1078.1,52.7l-166.47,775.2-387.79,452.84L1896,2536.48s-1203.77-547.72-1199.79-566S774.36,782.62,774.36,782.62Z"/></g><g class="cls-14"><path class="cls-15" d="M1017.51,919.67s-66.4,322.88,408.88,511.06,993.41,178.91,1171.16,382,1078.1,52.7,1078.1,52.7l-166.47,775.2-387.79,452.84L1820.08,2812.06S616.31,2264.34,620.29,2246,698.46,1058.2,698.46,1058.2Z"/></g></g><rect x="807.5" y="2281.64" width="3065" height="13.93"/><path class="cls-16" d="M1252.27,2062.35S1067.88,1935,883.05,2012.73c0,0,55,170.34,263.26,263.82,194.56,87.34,295.4,43.57,295.4,43.57S1425.9,2181.58,1252.27,2062.35Z"/><path class="cls-2" d="M1347.21,1930.71s-147.59-257.35-412.72-269.91c0,0-31.44,234.84,164,465.3,182.6,215.33,328,220.58,328,220.58S1486.61,2172.17,1347.21,1930.71Z"/><g class="cls-17"><path class="cls-4" d="M1443,2392.52a6.37,6.37,0,0,1-5.88-3.91l-16.35-39.06c-6.93-11.69-169.29-284.21-402.8-580.86a6.38,6.38,0,0,1,10-7.89c238,302.42,402.35,579.88,404,582.64a5.68,5.68,0,0,1,.39.78l16.52,39.47a6.38,6.38,0,0,1-3.42,8.34A6.28,6.28,0,0,1,1443,2392.52Z"/></g><path class="cls-18" d="M1039.66,2316.67a5.88,5.88,0,0,1-5.88-5.88v-382a5.89,5.89,0,0,1,5.88-5.88h297.86a5.89,5.89,0,1,1,0,11.77h-292v376.11A5.89,5.89,0,0,1,1039.66,2316.67Z"/><path class="cls-18" d="M1128.12,2239a5.88,5.88,0,0,1-5.88-5.88V1928.79a5.88,5.88,0,0,1,11.76,0v304.36A5.88,5.88,0,0,1,1128.12,2239Z"/><path class="cls-18" d="M1219.93,2239a5.88,5.88,0,0,1-5.88-5.88V1928.79a5.88,5.88,0,1,1,11.76,0v304.36A5.88,5.88,0,0,1,1219.93,2239Z"/><polygon class="cls-7" points="1332.37 2110.38 1311.74 2132.04 1209.61 2132.04 1209.61 2214.58 1114.71 2214.58 1114.71 2296.09 1023.93 2296.09 1023.93 2383.78 1878.06 2383.78 1878.06 2110.38 1332.37 2110.38"/><g class="cls-19"><path class="cls-20" d="M1162.47,2168.58h-77.91v-41h77.91Zm-75.73-2.19h73.55v-36.61h-73.55Z"/><path class="cls-20" d="M1238.19,2168.58h-77.9v-41h77.9Zm-75.72-2.19H1236v-36.61h-73.54Z"/><path class="cls-20" d="M1313.92,2168.58H1236v-41h77.91Zm-75.73-2.19h73.55v-36.61h-73.55Z"/><path class="cls-20" d="M1389.65,2168.58h-77.91v-41h77.91Zm-75.73-2.19h73.55v-36.61h-73.55Z"/><path class="cls-20" d="M1465.38,2168.58h-77.91v-41h77.91Zm-75.73-2.19h73.55v-36.61h-73.55Z"/><path class="cls-20" d="M1541.1,2168.58h-77.9v-41h77.9Zm-75.72-2.19h73.54v-36.61h-73.54Z"/><path class="cls-20" d="M1616.83,2168.58h-77.91v-41h77.91Zm-75.73-2.19h73.55v-36.61H1541.1Z"/><path class="cls-20" d="M1692.56,2168.58h-77.91v-41h77.91Zm-75.73-2.19h73.55v-36.61h-73.55Z"/><path class="cls-20" d="M1768.29,2168.58h-77.91v-41h77.91Zm-75.73-2.19h73.55v-36.61h-73.55Z"/><path class="cls-20" d="M1844,2168.58h-77.9v-41H1844Zm-75.72-2.19h73.54v-36.61h-73.54Z"/><path class="cls-20" d="M1919.74,2168.58h-77.91v-41h77.91Zm-75.73-2.19h73.55v-36.61H1844Z"/><path class="cls-20" d="M1124.6,2207.37h-77.91v-41h77.91Zm-75.72-2.18h73.54v-36.61h-73.54Z"/><path class="cls-20" d="M1200.33,2207.37h-77.91v-41h77.91Zm-75.73-2.18h73.55v-36.61H1124.6Z"/><path class="cls-20" d="M1276.06,2207.37h-77.91v-41h77.91Zm-75.73-2.18h73.55v-36.61h-73.55Z"/><path class="cls-20" d="M1351.79,2207.37h-77.91v-41h77.91Zm-75.73-2.18h73.54v-36.61h-73.54Z"/><path class="cls-20" d="M1427.51,2207.37H1349.6v-41h77.91Zm-75.72-2.18h73.54v-36.61h-73.54Z"/><path class="cls-20" d="M1503.24,2207.37h-77.91v-41h77.91Zm-75.73-2.18h73.55v-36.61h-73.55Z"/><path class="cls-20" d="M1579,2207.37h-77.91v-41H1579Zm-75.73-2.18h73.55v-36.61h-73.55Z"/><path class="cls-20" d="M1654.69,2207.37h-77.9v-41h77.9Zm-75.72-2.18h73.54v-36.61H1579Z"/><path class="cls-20" d="M1730.42,2207.37h-77.91v-41h77.91Zm-75.73-2.18h73.55v-36.61h-73.55Z"/><path class="cls-20" d="M1806.15,2207.37h-77.91v-41h77.91Zm-75.73-2.18H1804v-36.61h-73.55Z"/><path class="cls-20" d="M1881.88,2207.37H1804v-41h77.91Zm-75.73-2.18h73.55v-36.61h-73.55Z"/><path class="cls-20" d="M1957.6,2207.37h-77.9v-41h77.9Zm-75.72-2.18h73.54v-36.61h-73.54Z"/><path class="cls-20" d="M1086.74,2246.17h-77.91v-41h77.91ZM1011,2244h73.55v-36.62H1011Z"/><path class="cls-20" d="M1162.47,2246.17h-77.91v-41h77.91Zm-75.73-2.18h73.55v-36.62h-73.55Z"/><path class="cls-20" d="M1238.19,2246.17h-77.9v-41h77.9Zm-75.72-2.18H1236v-36.62h-73.54Z"/><path class="cls-20" d="M1313.92,2246.17H1236v-41h77.91Zm-75.73-2.18h73.55v-36.62h-73.55Z"/><path class="cls-20" d="M1389.65,2246.17h-77.91v-41h77.91Zm-75.73-2.18h73.55v-36.62h-73.55Z"/><path class="cls-20" d="M1465.38,2246.17h-77.91v-41h77.91Zm-75.73-2.18h73.55v-36.62h-73.55Z"/><path class="cls-20" d="M1541.1,2246.17h-77.9v-41h77.9Zm-75.72-2.18h73.54v-36.62h-73.54Z"/><path class="cls-20" d="M1616.83,2246.17h-77.91v-41h77.91ZM1541.1,2244h73.55v-36.62H1541.1Z"/><path class="cls-20" d="M1692.56,2246.17h-77.91v-41h77.91Zm-75.73-2.18h73.55v-36.62h-73.55Z"/><path class="cls-20" d="M1768.29,2246.17h-77.91v-41h77.91Zm-75.73-2.18h73.55v-36.62h-73.55Z"/><path class="cls-20" d="M1844,2246.17h-77.9v-41H1844Zm-75.72-2.18h73.54v-36.62h-73.54Z"/><path class="cls-20" d="M1919.74,2246.17h-77.91v-41h77.91ZM1844,2244h73.55v-36.62H1844Z"/><path class="cls-20" d="M1124.6,2285h-77.91v-41h77.91Zm-75.72-2.19h73.54v-36.61h-73.54Z"/><path class="cls-20" d="M1200.33,2285h-77.91v-41h77.91Zm-75.73-2.19h73.55v-36.61H1124.6Z"/><path class="cls-20" d="M1276.06,2285h-77.91v-41h77.91Zm-75.73-2.19h73.55v-36.61h-73.55Z"/><path class="cls-20" d="M1351.79,2285h-77.91v-41h77.91Zm-75.73-2.19h73.54v-36.61h-73.54Z"/><path class="cls-20" d="M1427.51,2285H1349.6v-41h77.91Zm-75.72-2.19h73.54v-36.61h-73.54Z"/><path class="cls-20" d="M1503.24,2285h-77.91v-41h77.91Zm-75.73-2.19h73.55v-36.61h-73.55Z"/><path class="cls-20" d="M1579,2285h-77.91v-41H1579Zm-75.73-2.19h73.55v-36.61h-73.55Z"/><path class="cls-20" d="M1654.69,2285h-77.9v-41h77.9Zm-75.72-2.19h73.54v-36.61H1579Z"/><path class="cls-20" d="M1730.42,2285h-77.91v-41h77.91Zm-75.73-2.19h73.55v-36.61h-73.55Z"/><path class="cls-20" d="M1806.15,2285h-77.91v-41h77.91Zm-75.73-2.19H1804v-36.61h-73.55Z"/><path class="cls-20" d="M1881.88,2285H1804v-41h77.91Zm-75.73-2.19h73.55v-36.61h-73.55Z"/><path class="cls-20" d="M1957.6,2285h-77.9v-41h77.9Zm-75.72-2.19h73.54v-36.61h-73.54Z"/><path class="cls-20" d="M1086.74,2323.76h-77.91v-41h77.91Zm-75.73-2.18h73.55V2285H1011Z"/><path class="cls-20" d="M1162.47,2323.76h-77.91v-41h77.91Zm-75.73-2.18h73.55V2285h-73.55Z"/><path class="cls-20" d="M1238.19,2323.76h-77.9v-41h77.9Zm-75.72-2.18H1236V2285h-73.54Z"/><path class="cls-20" d="M1313.92,2323.76H1236v-41h77.91Zm-75.73-2.18h73.55V2285h-73.55Z"/><path class="cls-20" d="M1389.65,2323.76h-77.91v-41h77.91Zm-75.73-2.18h73.55V2285h-73.55Z"/><path class="cls-20" d="M1465.38,2323.76h-77.91v-41h77.91Zm-75.73-2.18h73.55V2285h-73.55Z"/><path class="cls-20" d="M1541.1,2323.76h-77.9v-41h77.9Zm-75.72-2.18h73.54V2285h-73.54Z"/><path class="cls-20" d="M1616.83,2323.76h-77.91v-41h77.91Zm-75.73-2.18h73.55V2285H1541.1Z"/><path class="cls-20" d="M1692.56,2323.76h-77.91v-41h77.91Zm-75.73-2.18h73.55V2285h-73.55Z"/><path class="cls-20" d="M1768.29,2323.76h-77.91v-41h77.91Zm-75.73-2.18h73.55V2285h-73.55Z"/><path class="cls-20" d="M1844,2323.76h-77.9v-41H1844Zm-75.72-2.18h73.54V2285h-73.54Z"/><path class="cls-20" d="M1919.74,2323.76h-77.91v-41h77.91Zm-75.73-2.18h73.55V2285H1844Z"/><path class="cls-20" d="M1124.6,2362.56h-77.91v-41h77.91Zm-75.72-2.18h73.54v-36.62h-73.54Z"/><path class="cls-20" d="M1200.33,2362.56h-77.91v-41h77.91Zm-75.73-2.18h73.55v-36.62H1124.6Z"/><path class="cls-20" d="M1276.06,2362.56h-77.91v-41h77.91Zm-75.73-2.18h73.55v-36.62h-73.55Z"/><path class="cls-20" d="M1351.79,2362.56h-77.91v-41h77.91Zm-75.73-2.18h73.54v-36.62h-73.54Z"/><path class="cls-20" d="M1427.51,2362.56H1349.6v-41h77.91Zm-75.72-2.18h73.54v-36.62h-73.54Z"/><path class="cls-20" d="M1503.24,2362.56h-77.91v-41h77.91Zm-75.73-2.18h73.55v-36.62h-73.55Z"/><path class="cls-20" d="M1579,2362.56h-77.91v-41H1579Zm-75.73-2.18h73.55v-36.62h-73.55Z"/><path class="cls-20" d="M1654.69,2362.56h-77.9v-41h77.9Zm-75.72-2.18h73.54v-36.62H1579Z"/><path class="cls-20" d="M1730.42,2362.56h-77.91v-41h77.91Zm-75.73-2.18h73.55v-36.62h-73.55Z"/><path class="cls-20" d="M1806.15,2362.56h-77.91v-41h77.91Zm-75.73-2.18H1804v-36.62h-73.55Z"/><path class="cls-20" d="M1881.88,2362.56H1804v-41h77.91Zm-75.73-2.18h73.55v-36.62h-73.55Z"/><path class="cls-20" d="M1086.74,2401.36h-77.91v-41h77.91Zm-75.73-2.18h73.55v-36.62H1011Z"/><path class="cls-20" d="M1162.47,2401.36h-77.91v-41h77.91Zm-75.73-2.18h73.55v-36.62h-73.55Z"/><path class="cls-20" d="M1238.19,2401.36h-77.9v-41h77.9Zm-75.72-2.18H1236v-36.62h-73.54Z"/><path class="cls-20" d="M1313.92,2401.36H1236v-41h77.91Zm-75.73-2.18h73.55v-36.62h-73.55Z"/><path class="cls-20" d="M1389.65,2401.36h-77.91v-41h77.91Zm-75.73-2.18h73.55v-36.62h-73.55Z"/><path class="cls-20" d="M1465.38,2401.36h-77.91v-41h77.91Zm-75.73-2.18h73.55v-36.62h-73.55Z"/><path class="cls-20" d="M1541.1,2401.36h-77.9v-41h77.9Zm-75.72-2.18h73.54v-36.62h-73.54Z"/><path class="cls-20" d="M1616.83,2401.36h-77.91v-41h77.91Zm-75.73-2.18h73.55v-36.62H1541.1Z"/><path class="cls-20" d="M1692.56,2401.36h-77.91v-41h77.91Zm-75.73-2.18h73.55v-36.62h-73.55Z"/><path class="cls-20" d="M1768.29,2401.36h-77.91v-41h77.91Zm-75.73-2.18h73.55v-36.62h-73.55Z"/><path class="cls-20" d="M1844,2401.36h-77.9v-41H1844Zm-75.72-2.18h73.54v-36.62h-73.54Z"/></g><rect class="cls-8" x="1311.74" y="1507.85" width="268.2" height="624.19"/><g class="cls-21"><rect class="cls-7" x="1293.47" y="1510.81" width="302.34" height="33.04"/></g><rect class="cls-7" x="1579.94" y="1507.85" width="340.15" height="624.19"/><g class="cls-22"><g class="cls-23"><path class="cls-24" d="M1788,1533.09s42,51.82,46.55,137.43S1773,2112.21,1597.31,2132h0l138.91,64.14,239.51-29.28s-34.54-407.77-36.79-436.31-12.76-188.49-12.76-188.49Z"/></g><rect class="cls-24" x="1564.78" y="1517.65" width="403.95" height="25.7"/></g><rect class="cls-20" x="1664.01" y="1686.34" width="194.19" height="194.22"/><polygon class="cls-5" points="1458.22 1131.53 1459.76 1109.09 1920.09 1109.09 1920.09 1517.65 1623.01 1517.65 1561.89 1495.99 1458.22 1131.53"/><g class="cls-25"><path class="cls-26" d="M1829.07,1090.28s106.12,177.94-18,307.25-182.2,120.12-182.2,120.12l303.33,16.19,41-162.2,39-314.87Z"/><line class="cls-27" x1="1439.64" y1="1146.27" x2="1992.25" y2="1146.27"/><line class="cls-27" x1="1437.53" y1="1208.59" x2="1993.15" y2="1208.59"/><line class="cls-27" x1="1435.43" y1="1270.91" x2="1994.05" y2="1270.91"/><line class="cls-27" x1="1433.33" y1="1333.24" x2="1994.95" y2="1333.24"/><line class="cls-27" x1="1431.23" y1="1395.56" x2="1995.85" y2="1395.56"/><line class="cls-27" x1="1429.13" y1="1457.88" x2="1996.75" y2="1457.88"/></g><polygon class="cls-18" points="1459.76 1109.09 1280.27 1517.65 1623.01 1517.65 1459.76 1109.09"/><path class="cls-20" d="M1389.08,1447.52s0-103.75,57.36-103.75,58.17,103.47,58.17,103.47Z"/><rect class="cls-20" x="1391.17" y="1773" width="109.34" height="359.04"/><path class="cls-9" d="M1797.59,2344.46H1467.5a25.78,25.78,0,0,1-25.79-25.79v-40.49a25.79,25.79,0,0,1,25.79-25.8h330.09a25.79,25.79,0,0,1,25.79,25.8v40.49A25.78,25.78,0,0,1,1797.59,2344.46Z"/><g class="cls-28"><rect class="cls-29" x="1431.63" y="2336.26" width="406.45" height="18.52"/></g><path class="cls-9" d="M1464.57,2226.4,1308.8,2517.47a25.78,25.78,0,0,1-34.91,10.57l-35.7-19.11a25.8,25.8,0,0,1-10.56-34.91L1383.4,2183a25.78,25.78,0,0,1,34.91-10.57l35.69,19.11A25.79,25.79,0,0,1,1464.57,2226.4Z"/><path class="cls-9" d="M1797.59,2436.55H1467.5a25.79,25.79,0,0,1-25.79-25.8v-40.49a25.79,25.79,0,0,1,25.79-25.8h330.09a25.79,25.79,0,0,1,25.79,25.8v40.49A25.79,25.79,0,0,1,1797.59,2436.55Z"/><g class="cls-30"><rect class="cls-29" x="1429.67" y="2429.67" width="406.45" height="18.52"/></g><path class="cls-9" d="M1797.59,2528.63H1467.5a25.79,25.79,0,0,1-25.79-25.8v-40.49a25.78,25.78,0,0,1,25.79-25.79h330.09a25.78,25.78,0,0,1,25.79,25.79v40.49A25.79,25.79,0,0,1,1797.59,2528.63Z"/><g class="cls-31"><rect class="cls-29" x="1429.67" y="2522.33" width="406.45" height="18.52"/></g><path class="cls-32" d="M3384.15,2533.82c19.09-3.13,42.92-16.32,58.72-26.21-15.91-39.31-20.38-81.55-20.38-92.44l-74.59,4c-.25,1,8.28,70.82-9.52,97.65-.13.2-.29.4-.44.61C3348.23,2526.34,3364.83,2537,3384.15,2533.82Z"/><path class="cls-33" d="M3442.87,2507.61c-15.8,9.89-39.63,23.08-58.72,26.21-19.32,3.17-35.92-7.48-46.21-16.41-19,26.41-122.2,39.44-108.39,83,13.93,43.85,108.83,18.32,142.87,19.61s97.49,1.29,82-59.84C3450,2542.76,3446.16,2524.79,3442.87,2507.61Z"/><path class="cls-32" d="M3652.09,2477.34c16-10.82,32.18-32.76,42.39-48.34-33-29.55-45.8-68.69-50.35-78.58l-63.84,34.93c.2,1.05,28.07,63.84,23.1,95.65,0,.24-.09.49-.14.74C3616.33,2485.55,3635.85,2488.3,3652.09,2477.34Z"/><path class="cls-33" d="M3694.48,2429c-10.21,15.58-26.36,37.52-42.39,48.34-16.24,11-35.76,8.21-48.84,4.4-6.21,31.92-94.56,86.9-63.83,120.66,31,34,106.53-28.83,138-41.89s89.1-39.55,49.51-88.63C3715.68,2457.94,3704.66,2443.23,3694.48,2429Z"/><path class="cls-10" d="M3259.82,1798.28l-3.76,16s22.51,464.79,74,653.6l119.57-3.87s-35.59-396.18-37.91-482.85c0,0,70.4,325,169.43,462l97-50s-138.23-419.91-149.58-593.24l-43.32-8.25Z"/><g class="cls-34"><path class="cls-35" d="M3420.33,2034l-8.61-52.83s-25.17,107.8-21.42,169.68,4.5,147.31-22.53,188.32S3334,2474.78,3334,2474.78l108.88,3.78s-16.53-380.75-17.28-386S3420.33,2034,3420.33,2034Z"/><path class="cls-35" d="M3536.71,1808.69s11.26,199.76,24,271.85-18,137.42,11.26,183.23,50.31,134.42,15.77,184c0,0,158.27-28.44,152.57-32.58s-61.74-180.69-61.74-180.69Z"/><path class="cls-36" d="M3262.92,1779.06s26.38,495.31,79.63,695.72"/><path class="cls-36" d="M3295.89,1792.92s24.55,516.89,71.74,684.44"/><path class="cls-36" d="M3328.86,1806.79s22.71,538.47,63.85,673.15"/><path class="cls-36" d="M3361.83,1820.66s20.88,560.05,56,661.86"/><path class="cls-36" d="M3394.8,1834.53s19,581.62,48.07,650.57"/><path class="cls-36" d="M3404.82,1834.53s14,150.79,38,238.9,96.82,310.51,157.52,372"/><path class="cls-36" d="M3432.85,1823.79s15,140.43,40.22,238.86c26.14,102.33,92.4,311.67,150.85,375.24"/><path class="cls-36" d="M3460.88,1813.05s15.88,130.07,42.39,238.82c28.26,116.55,88,312.84,144.17,378.44"/><path class="cls-36" d="M3488.91,1802.32s16.81,119.7,44.57,238.76c30.38,130.78,83.56,314,137.48,381.66"/><path class="cls-36" d="M3516.94,1791.58s79.78,491.73,177.54,623.59"/></g><path class="cls-3" d="M3185,1440.79s-37.13,78.93-48,115,52.61,125.35,125.85,188.29l-5.68-71.19s-47.63-69.13-57.85-96.47,39.8-103.69,39.8-103.69Z"/><g class="cls-37"><path class="cls-32" d="M3204.09,1494s8.76,2.51,3,24.53-21.78,34.8-15.77,54.32,41.46,63.07,41.46,63.07l-21.44-61.57,22.78-79.35Z"/></g><path class="cls-4" d="M3365.38,1289.47l19.78-2.4s98.51-2.07,121.2,59.83,37.14,133.61,37.14,133.61-28.88,24.25-46.94,27.34c0,0,23.73,243.49,32,292,0,0-125.12,96-272.48,14.44,0,0-19.08-199.39-19.08-313.14,0,0-68.45-2.3-76.7-37.64,0,0,56.22-121.23,64.73-147.79s63.95-33,90-31.21S3365.38,1289.47,3365.38,1289.47Z"/><g class="cls-38"><path class="cls-39" d="M3233.63,1510.81l3.35-9.68,10.66-121.82s-23,107.81-46.72,119.82C3200.92,1499.13,3204.26,1511.48,3233.63,1510.81Z"/><path class="cls-40" d="M3496.92,1297.29s28.93,134.29,5.68,202.28c-.14.41-.28.82-.43,1.23-24,67.59,51.48-22.69,51.48-22.69Z"/><path class="cls-41" d="M3484.24,1508.14,3479,1503s-16.48-81.55-22.16-100.14-4,21.8-4.33,57.18S3316,1625.13,3351.89,1616s103-44.14,72,20.94-141.16,210.13-141.16,210.13l196.35,69,64.47-97.9L3523,1571.79Z"/></g><path class="cls-42" d="M3278.65,1102.39s-24.76-12.13-22.44-50.56,43.84-45.13,58.54-38.94c0,0,55.45-42.56,127.66,10.06s38.16,132.57,14.44,155.27-79.95,52.44-79.95,52.44l-57.25-51.93Z"/><path class="cls-3" d="M3276.33,1088.46s-31.47,120.71-2.58,136.19,46.93,3.61,51.06,25.79-9.8,34-9.8,34,1.55,19.08,32.49,21.15,37.66-18.57,37.66-18.57-12.21-49.36-7.57-58.64-15-18.74-7.39-27.17,24.41-11.18,28-30.61-22.35-22.18-28.37-30.6-13.06-23.73-11.51-35.77C3358.34,1104.28,3301.77,1112.19,3276.33,1088.46Z"/><g class="cls-43"><path class="cls-32" d="M3267.16,1100.79c0,.5,35.71,19.53,73.25,21.36,0,0,27.7,54.91,69.75,61.25l10.34-30L3359.1,1095l-92.1-17Z"/><path class="cls-32" d="M3304.45,1243.85l7.16-8.13s26.77,3.62,40.28-11c0,0-22.16,38.55-32.29,35.55Z"/></g><path class="cls-3" d="M3541.32,1472.05s25.9,86.87,45,90,98-50,106.25-66-.69-74.11,23.72-88.21,49.17,3.44,54.68,39.2-12.73,58.81-39.55,80.13S3632,1631.64,3577,1649.2,3479,1503,3479,1503Z"/><g class="cls-44"><path class="cls-32" d="M3525.62,1474.57s19.68,111.72,75.41,102.71,50.39-49.31,51.39-50-97.1-77.09-97.1-77.09Z"/></g><path class="cls-5" d="M3687.82,2337.63c14.68,18.72,24,15.82,42.79,2.41s27.68,8.26,27.68,8.26L3747,1432.79c-59.79-37.31-114.52,1.86-114.52,1.86l1.6,917.66a110.41,110.41,0,0,1,19.82-2C3664.86,2350.14,3673.14,2318.9,3687.82,2337.63Z"/><g class="cls-45"><g class="cls-46"><path class="cls-4" d="M3713.61,1382a3.48,3.48,0,0,1,5.54,2.78l6,967.6a3.48,3.48,0,1,1-6.95.05l-6-967.61A3.48,3.48,0,0,1,3713.61,1382Z"/></g><g class="cls-46"><path class="cls-4" d="M3660.92,1391.83a3.47,3.47,0,0,1,5.53,2.77l6.66,962.59a3.48,3.48,0,1,1-7,.06l-6.66-962.59A3.47,3.47,0,0,1,3660.92,1391.83Z"/></g></g><path d="M3718.35,2454.26c-8.44-2.94-24.23-6.1-39.75,3.2l20.31,48.39Z"/><path class="cls-47" d="M3718.35,2454.26l39.94-106s-8.9-21.66-27.68-8.26-28.11,16.31-42.79-2.41-23,12.51-33.9,12.64a61.11,61.11,0,0,0-19,3.16l43.67,104C3694.12,2448.16,3709.91,2451.32,3718.35,2454.26Z"/><path class="cls-48" d="M1747.22,570.74l-17.07-3.4s-291-52-339,390.64l571-51.07L1821.32,616.48Z"/><path class="cls-4" d="M1962.73,2576.24l1251.19-22.71s-255.83-581.82-164.64-1188.9c116.29-774.2-67.47-797.29-67.47-797.29H1730.15s257.25,21.8,168.54,830.67C1893.36,1609.32,1783.13,2232.7,1962.73,2576.24Z"/><g class="cls-49"><path class="cls-50" d="M2941.47,540.25s80.74,29,116.9,167S3079,1018.5,3067.55,1129s-37.34,241.59-45.64,346.18-12.61,281.73,27.31,538.22c38.59,248,154.9,581,154.9,581l76.07,1.38-62.67-1120.56S3165,606.64,3167.73,598.34s-52.55-80.22-52.55-80.22Z"/><polygon class="cls-50" points="1702.51 575.73 3089.67 575.73 3051.57 537.62 1703.9 537.62 1702.51 575.73"/></g><path class="cls-1" d="M1919.72,655.43S2034,831.57,1998.26,1155.3h474.08s42-361.34-93.93-499.87Z"/><path class="cls-6" d="M2408.71,1069.49q-161.19,5.49-322.37,11c7.49-77.07,1.94-153.24-15.2-228.7l318.54-11.2C2408.06,915.89,2414.89,992.13,2408.71,1069.49Z"/><g class="cls-51"><path class="cls-4" d="M2215.22,1047.11a763.37,763.37,0,0,0-2.47-96.83l70.87-4a766.82,766.82,0,0,1,4,97.14"/><path class="cls-4" d="M2193.77,1047.75l115.23-6c-.29,6.81-.48,10.21-.95,17l-114.39,5.54C2193.79,1057.68,2193.81,1054.38,2193.77,1047.75Z"/><path class="cls-4" d="M2177.44,1064.85l147.07-8c-.27,6.93-.45,10.38-.9,17.26l-147.26,7.17C2176.87,1074.7,2177.09,1071.42,2177.44,1064.85Z"/><path class="cls-4" d="M2381.69,954.1l-53.87,3.53c-2.14-19.45-5.06-38.84-8.85-58l53.57-3.53C2376.43,915.25,2379.45,934.65,2381.69,954.1Z"/><path class="cls-52" d="M2377.14,950l-45.77,3c-1.89-16.54-4.58-33-7.55-49.34l45.56-3C2372.42,917.06,2375.18,933.47,2377.14,950Z"/><path class="cls-4" d="M2172.68,961.91l-54.08,1.5c-1.25-19.44-3.29-38.86-6.22-58.12l53.95-1.5C2169.3,923.05,2171.39,942.47,2172.68,961.91Z"/><path class="cls-52" d="M2168.32,957.67l-46,1.28c-1.13-16.53-3-33-5.3-49.41l45.87-1.27C2165.28,924.66,2167.16,941.15,2168.32,957.67Z"/></g><path class="cls-53" d="M2185.27,724.33q-61.76,68.91-129.18,132.24l355.57-10.2Q2300,782.55,2185.27,724.33Z"/><path class="cls-54" d="M2190.71,736.51q-51.2,56.15-106.1,108.58l291.69-8.36Q2284.5,784.76,2190.71,736.51Z"/><path class="cls-48" d="M2534.2,836.79l5.34,68.58h-12.65l-5.34-68.59Z"/><path class="cls-48" d="M2554,905.37l-5.34-68.58h14.4l20.18,29.41a206.27,206.27,0,0,1,13.61,23h.21c-1.54-9.16-2.54-18-3.35-28.49l-1.86-23.91h11.72l5.34,68.58h-13.06l-20.44-30.13a264,264,0,0,1-14.29-23.71l-.3.1c1.2,8.85,2,17.91,2.89,29.2l1.91,24.53Z"/><path class="cls-48" d="M2622.16,891.76a37.4,37.4,0,0,0,17.1,4.38c8.13,0,12.36-3.76,11.92-9.36-.4-5.19-4.14-8.24-13.22-11.4-11.73-4.07-19.5-10.08-20.27-20-.87-11.19,7.92-19.73,22.93-19.73a38.59,38.59,0,0,1,16.93,3.47l-2.3,10.07a31.27,31.27,0,0,0-14-3.26c-8,0-11.18,4.27-10.88,8.24.42,5.29,4.62,7.73,14.15,11.3,12.38,4.48,18.7,10.48,19.47,20.35.86,11-6.83,20.55-24.72,20.55-7.3,0-15.07-2-19-4.28Z"/><path class="cls-48" d="M2684.1,836.83l3.11,40c1.05,13.43,7.18,19.64,15.72,19.65,9.15,0,14.11-6.21,13.07-19.64l-3.12-40h12.65l3,39.17c1.65,21.17-8.62,30.52-25.28,30.52-16,0-27.11-8.86-28.79-30.43l-3.06-39.28Z"/><path class="cls-48" d="M2740.1,837.77a118.39,118.39,0,0,1,19-1.42c10,0,16.88,1.63,21.81,5.5a18.82,18.82,0,0,1,7,13.74c.69,8.85-4.9,14.85-11.2,17.19l0,.31c5.08,1.83,8.44,6.61,10.7,13.23,2.82,8.54,5.29,16.48,6.94,19.13h-13.06c-1.19-2-3.27-7.63-5.89-16.18-2.65-9-6.16-11.8-13.37-12h-6.38l2.2,28.19h-12.54Zm14.9,30.32h7.51c8.53,0,13.53-4.48,13-11.29-.59-7.53-6.21-11-14.43-11a36.41,36.41,0,0,0-7.77.61Z"/><path class="cls-48" d="M2817,886l-4.45,19.43h-13.06l16.87-68.58h16.14l27.86,68.59h-13.57L2839,886Zm19.11-9.46-6.77-16.89c-1.66-4.17-3.16-8.85-4.49-12.82h-.21c-.72,4-1.37,8.75-2.29,12.82l-4,16.89Z"/><path class="cls-48" d="M2870,905.47l-5.34-68.58H2879l20.18,29.42a208,208,0,0,1,13.62,23h.2c-1.53-9.16-2.53-18-3.35-28.49l-1.86-23.92h11.72l5.34,68.58h-13l-20.45-30.12a263.86,263.86,0,0,1-14.28-23.71l-.3.1c1.2,8.85,2,17.91,2.89,29.2l1.91,24.53Z"/><path class="cls-48" d="M2989,903.47c-2.86,1.53-9.32,3-17.65,3-22,0-36.43-13.64-38.06-34.5-1.75-22.59,13-36.22,34.2-36.22,8.33,0,14.42,1.74,17.1,3.06l-2,10a35.6,35.6,0,0,0-13.78-2.65c-14.09,0-23.58,8.75-22.3,25.23,1.17,15.06,10.87,24.73,26.09,24.73,5.14,0,10.41-1,13.58-2.54Z"/><path class="cls-48" d="M3036.32,875.1H3010.2l1.57,20.15H3041l.8,10.27h-41.85l-5.34-68.58h40.31l.8,10.28H3008l1.38,17.71h26.11Z"/><path class="cls-48" d="M2525.93,683.68l3.45,44.28,47.24,0-3.45-44.29h20.38l8.61,110.55h-20.38l-3.8-48.71-47.23,0,3.79,48.72h-20.39l-8.61-110.55Z"/><path class="cls-48" d="M2720.25,737.86c2.89,37.07-18.17,58.23-49,58.22-31.49,0-53.23-23.8-55.76-56.28-2.65-33.95,17-57.9,48.52-57.89C2696.67,681.93,2717.8,706.37,2720.25,737.86ZM2637,739.48c1.75,22.47,14.58,40.35,34.13,40.36,19.73,0,29.43-18,27.63-41.16-1.63-20.83-13.6-40.52-34-40.53C2644.56,698.15,2635.23,716.68,2637,739.48Z"/><path class="cls-48" d="M2753.82,683.75l5,64.46c1.68,21.65,11.58,31.66,25.34,31.66,14.75,0,22.75-10,21.07-31.65l-5-64.46h20.38l4.92,63.15c2.66,34.11-13.9,49.2-40.75,49.19-25.86,0-43.71-14.28-46.42-49.06l-4.93-63.31Z"/><path class="cls-48" d="M2850.38,772.35a60.22,60.22,0,0,0,27.56,7.06c13.1,0,19.92-6.06,19.21-15.08-.65-8.37-6.67-13.29-21.32-18.38-18.91-6.57-31.43-16.25-32.67-32.16-1.4-18,12.77-31.82,37-31.81,12.1,0,21.26,2.63,27.29,5.59l-3.71,16.23a50.35,50.35,0,0,0-22.62-5.25c-12.93,0-18,6.88-17.53,13.28.67,8.53,7.44,12.47,22.8,18.21,20,7.22,30.16,16.91,31.4,32.82,1.38,17.71-11,33.12-39.85,33.12-11.77,0-24.29-3.29-30.71-6.9Z"/><path class="cls-48" d="M2997.27,745.33h-42.1l2.53,32.47,47.07,0,1.29,16.57-67.46,0L2930,683.8l65,0,1.29,16.57-44.58,0,2.22,28.54,42.1,0Z"/><rect class="cls-55" x="2524.01" y="967.27" width="511.22" height="34.56" rx="17.28"/><rect class="cls-55" x="2524.01" y="1039.49" width="511.22" height="34.56" rx="17.28"/><rect class="cls-55" x="2524.01" y="1111.71" width="511.22" height="34.56" rx="17.28"/><rect class="cls-55" x="2100.51" y="1209.2" width="658.13" height="60.36"/><rect class="cls-55" x="2249.75" y="1397.53" width="658.13" height="60.36"/><rect class="cls-55" x="2231.64" y="1585.85" width="658.13" height="60.36"/><rect class="cls-55" x="2238.97" y="1774.18" width="658.13" height="60.36"/><rect class="cls-55" x="2100.51" y="1962.5" width="658.13" height="60.36"/><rect class="cls-55" x="2303.21" y="2150.83" width="658.13" height="60.36"/><rect class="cls-55" x="2351.18" y="2339.15" width="658.13" height="60.36"/><ellipse class="cls-56" cx="2122.41" cy="1427.71" rx="47.45" ry="47.46"/><ellipse class="cls-56" cx="2104.74" cy="1616.03" rx="47.45" ry="47.46"/><ellipse class="cls-56" cx="2100.51" cy="1804.36" rx="47.45" ry="47.46"/><ellipse class="cls-56" cx="2144.2" cy="2181.01" rx="47.45" ry="47.46"/><ellipse class="cls-56" cx="2191.65" cy="2369.33" rx="47.45" ry="47.46"/><path class="cls-57" d="M3515.85,991.21A37.19,37.19,0,1,1,3553,954,37.22,37.22,0,0,1,3515.85,991.21Zm0-66.52A29.34,29.34,0,1,0,3545.19,954,29.37,29.37,0,0,0,3515.85,924.69Z"/><polygon class="cls-4" points="3273.19 933.9 3243.57 955.01 3279.53 974.16 3273.19 933.9"/><path class="cls-58" d="M3393.93,942.31a3.94,3.94,0,0,1-2.41-.82l-37.11-28.87a3.92,3.92,0,0,1,.71-6.63l47.49-22.78a3.92,3.92,0,0,1,5.53,4.31l-10.37,51.64a3.92,3.92,0,0,1-2.48,2.91A4,4,0,0,1,3393.93,942.31Zm-29.71-32,27.11,21.08,7.58-37.71Z"/><path class="cls-58" d="M3515.45,1110.44a3.85,3.85,0,0,1-1-.14,3.9,3.9,0,0,1-2.38-1.82l-15-26a3.91,3.91,0,0,1,1.43-5.35l26-15a3.92,3.92,0,0,1,5.36,1.44l15,26a3.92,3.92,0,0,1-1.44,5.36l-26,15A3.87,3.87,0,0,1,3515.45,1110.44Zm-9.64-28.47,11.08,19.19,19.19-11.08L3525,1070.89Z"/></svg>