<svg id="Layer_1" data-name="Layer 1" xmlns="http://www.w3.org/2000/svg" xmlns:xlink="http://www.w3.org/1999/xlink" viewBox="0 0 4680 3120"><defs><style>.cls-1{fill:#d9ebf9;}.cls-2{fill:#4949a5;}.cls-3{fill:#fff;}.cls-4{fill:#f8b3a3;}.cls-5{fill:#26217d;}.cls-6{fill:#00025b;}.cls-7{fill:#f5838d;}.cls-8{fill:#fffffa;}.cls-9{fill:#ed4370;}.cls-10{fill:#88ace5;}.cls-11{clip-path:url(#clip-path);}.cls-12{fill:none;stroke:#fff;stroke-linecap:round;stroke-linejoin:round;stroke-width:13px;}.cls-13{fill:#d5e7f5;}.cls-14{fill:#f7c1c1;}.cls-15{fill:#5d83ce;}.cls-16{clip-path:url(#clip-path-2);}.cls-17{fill:#4f4085;}.cls-18{clip-path:url(#clip-path-3);}.cls-19{fill:#a0cfef;}.cls-20{fill:#33317c;}.cls-21{fill:#ff5876;}.cls-22{clip-path:url(#clip-path-4);}.cls-23{fill:#dd647b;}.cls-24{clip-path:url(#clip-path-5);}.cls-25{fill:#e26a6a;}.cls-26{clip-path:url(#clip-path-6);}.cls-27{fill:#d93c6f;}.cls-28{fill:#383166;}.cls-29{clip-path:url(#clip-path-7);}.cls-30{fill:#ff928a;}.cls-31{clip-path:url(#clip-path-8);}.cls-32{clip-path:url(#clip-path-9);}.cls-33{fill:#6898dd;}.cls-34{clip-path:url(#clip-path-10);}.cls-35{clip-path:url(#clip-path-11);}.cls-36{fill:#ffdaae;}.cls-37{fill:#a83d35;}.cls-38{clip-path:url(#clip-path-12);}.cls-39{opacity:0.65;}.cls-40{clip-path:url(#clip-path-13);}.cls-41{fill:#000049;}.cls-42{clip-path:url(#clip-path-14);}.cls-43{fill:#d35454;}.cls-44{fill:#d83b6e;}.cls-45{fill:#28104f;}.cls-46{clip-path:url(#clip-path-15);}.cls-47{fill:#000211;}.cls-48{opacity:0.41;}.cls-49{opacity:0.38;}.cls-50{clip-path:url(#clip-path-16);}.cls-51{fill:#ef4471;}.cls-52{clip-path:url(#clip-path-17);}.cls-53{clip-path:url(#clip-path-18);}.cls-54{fill:#becbeb;}</style><clipPath id="clip-path"><path class="cls-1" d="M1760.44,752c205.42-131.39,259.83-324.28,586.88-370.61s494.08-25.27,610.58,141.79,172.65,366.4,372,454.84,393,89.84,554.43,405.71,79.54,748.59-390.21,913.13-1344.37,138.34-1590.16,95.28-689.34-27-956-364-300.37-664.09-95.44-891.51S1308.3,1041.19,1760.44,752Z"/></clipPath><clipPath id="clip-path-2"><path class="cls-2" d="M3144.06,2003.49s182.85-318.79,511.29-334.35c0,0,38.94,290.91-203.16,576.4-226.2,266.74-406.32,273.25-406.32,273.25S2971.38,2302.61,3144.06,2003.49Z"/></clipPath><clipPath id="clip-path-3"><path class="cls-8" d="M2628.17,2489.08H1473.55S1679,1912.62,1592.06,1333.73c-110.89-738.25,64.33-760.26,64.33-760.26H2850s-140.88-48.81-121.9,704.38C2733.14,1479.35,2799.44,2161.49,2628.17,2489.08Z"/></clipPath><clipPath id="clip-path-4"><path class="cls-7" d="M2421.26,2657s-59.25-240.43,31.32-386.9,226-195.57,331.83-256.52,248.87-191.34,315.75-195.57c22,0,32,55.5,24.45,86.35s-123.21,182.87-235.51,255.12c0,0,195.26-110.63,286.68-266.41s66.59-184.28,149.55-327.36,176.07-73.65,155.75,9.32-97.63,375.61-119.07,450.12-67.72,219-143.34,301.39S2889.08,2473,2877.81,2570.36c-9.95,85.93-5,97.64-5,97.64s-37.9,69.42-239.93,64.91S2421.26,2657,2421.26,2657Z"/></clipPath><clipPath id="clip-path-5"><path class="cls-4" d="M2783.75,1227.43c-.37,1.51-14.29,85.42-3,124.17s39.88,31.24,57.57,27.1,17.68,12,8.65,30.47-33.86,39.51-33.86,39.51,39.5,15.43,65.46,5.27,28.22-26.71,28.22-26.71-17.31-23.33-3.39-51.93l20.69-52.87-5.36-89.74-104.12-66.32-20.59,12.7Z"/></clipPath><clipPath id="clip-path-6"><path class="cls-9" d="M2809.53,1133.37s-29.63-2.54-42.89,28.78-9.32,70.83-9.32,70.83,6.49,10.73,42.89,17.22a99.5,99.5,0,0,1,7.9-31.89s-1.69,24.27,1.42,34.43,25.67,20.88,46.55,27.09,23.42,5.64,23.42,5.64,25.12-2.54,29.63,24.84-18.34,18.34-20.32,32.73-9,40.08,16.37,45.72,57.84-31,79.85-29.07,54.46,18.35,94.53,47.7,100.73,19.47,114.28-28.79,35.83-53,76.46-56.16,94.25-16.65,112.87-67.73,8.18-67.44-14.67-62.36-86.35,52.49-119.92,8.18-47.69-61.24-101.3-56.16-57.56,36.12-107.22,30.2-72.52-66.6-140.52-69.43S2809.53,1133.37,2809.53,1133.37Z"/></clipPath><clipPath id="clip-path-7"><path class="cls-4" d="M2239.55,2084.4c-1.69,1.69-68.29,121.35-101.58,154.08-10.18,10-19.83,17.42-29.73,22.72,2.58,11.37,13.93,34.51,63.24,39.62,9.17-42.14,79-99.79,103.06-125,26.9-28.19,77.31-97.08,77.31-97.08Z"/></clipPath><clipPath id="clip-path-8"><path class="cls-4" d="M2426.12,2234.22c8.92-37.93,17.49-122.87,17.49-122.87l-95.78-27.14c-.6,2.32,4.39,228.12-7.74,273.22-4.63,17.23-10.61,30.55-18.76,41.52,12.77,8.51,41.41,20.52,78.55-7C2388.22,2350.21,2418.29,2267.52,2426.12,2234.22Z"/></clipPath><clipPath id="clip-path-9"><path class="cls-10" d="M2748.72,1702.68c-1.29,2.52-2.64,5-4.09,7.51-19.75,33.87-61.52,33.3-142.22,54.75s-195.82,42.9-256.77,112.88S2210.77,2073.68,2217,2096.25s109.48-44,154.62,11.88,172.12,87.46,172.12,87.46,206.55-136,266.93-180.05,88.6-98.77,86.35-128.12c-2-26-9.75-110.12-6.21-155.32C2808.75,1740.73,2768,1720.12,2748.72,1702.68Z"/></clipPath><clipPath id="clip-path-10"><path class="cls-4" d="M2801.91,1457.41s-102.71,58.34-148.42,49.6-244.45-15.81-269.28-21.08-84.28-42.51-131.68-12.41,82,56.81,119.26,51.17c0,0,210.31,41.39,246.8,42.9s153.12-26,153.12-26Z"/></clipPath><clipPath id="clip-path-11"><path class="cls-3" d="M2957.92,1489.07a63.93,63.93,0,0,0-18.15-41.42,111.44,111.44,0,0,0-14.37-12.51c-17.49-12.56-20.72-11.28-20.72-11.28-30.28,34.86-81.53,15.5-81.53,15.5-7.67,2.63-31.82,21.93-41.65,34.53-35.74,45.53-18.25,67-15.43,116.08,1.1,19.12,1.08,36.44-.51,52.46,19.94,17.45,61.42,37.47,144,28.18,13.68-29.7,31.53-62.12,40.49-89.48C2959.34,1552.75,2959.17,1513.24,2957.92,1489.07Z"/></clipPath><clipPath id="clip-path-12"><path class="cls-4" d="M2925.4,1463.92c14.84-5.4,29.35-3.57,38.75,29.73s34.8,164.24,43.08,202.62,37.9,157.28,37.9,157.28-31.88,30.48-33.57,21.45-45.2-132.2-61.52-193.38S2910.82,1533.82,2909,1509,2909.65,1469.66,2925.4,1463.92Z"/></clipPath><clipPath id="clip-path-13"><path class="cls-5" d="M1720.73,1037.42s9.78-28.23,7.14-74.51-45.52-71.49-96.68-68.86-64.34,29-64.34,29-47.78-1.13-49.66,57.19,16.55,115.89,74.49,146.37c15,8.28,18.81,3.76,18.81,3.76Z"/></clipPath><clipPath id="clip-path-14"><path class="cls-4" d="M1716.21,971.94s11.66,83.91,13.92,130.19-56.81,39.14-62.45,46.66-15,58.32-15,58.32-31.6,24.84-64.71-16.93c0,0,21.44-66,17.68-88.61s-37.62,1.88-41.19-34,27.65-28.22,27.65-28.22,15.24-25.59,15.42-43.46C1607.48,995.84,1697.4,1009.76,1716.21,971.94Z"/></clipPath><clipPath id="clip-path-15"><path class="cls-6" d="M1495,1621.58l-3.57,2.07s-37.34,59.73-56.81,133.39-37.25,229.43-55.87,280.23-194.69,297.16-194.69,297.16-1.7,67.73,82.11,88.9c0,0,222.63-239.59,261.56-294.62s53.33-110.91,53.33-110.91,5.08,173.56,5.93,266.68-7.62,181.18-7.62,181.18,65.18,44,134.59,0c0,0,21.17-204.88,24.55-351.35s-1.6-482.82-1.6-482.82l-56,10.41Z"/></clipPath><clipPath id="clip-path-16"><path class="cls-7" d="M1573.62,1190.56s-51.82,7.46-86.25,15.49-37.52,41-65,95.51-90.48,177.79-90.48,177.79,35.55,64.34,94.81,36.12l69.41-150.7,1.13,224.64s28.22,46.28,121.9,41.77S1736,1595.62,1736,1595.62s22.2-182.31,28.41-210.53L1955.49,1472s40.07-31,30.47-85.79c0,0-157.63-91.24-197.14-135.83s-129.15-47.32-129.15-47.32Z"/></clipPath><clipPath id="clip-path-17"><path class="cls-4" d="M2005.71,1404.28s142.78,51.52,186.23,53.13,87.48-16.44,131.49-5.72,64.34,70.55-19.75,64.35-103.83-13-103.83-13l-212.4-33.3S1974.3,1426.86,2005.71,1404.28Z"/></clipPath><clipPath id="clip-path-18"><path class="cls-4" d="M1328.89,1512.65s-23.51,182.87-33.11,220.12-36.11,63.21,0,75.07,92.39,17.49,78.65-33.87-10.53-51.92,0-115.14,28.39-134.14,28.39-134.14Z"/></clipPath></defs><title>Artboard 1</title><rect class="cls-3" width="4680" height="3120"/><path class="cls-1" d="M885,1033.59a9.16,9.16,0,0,1-3.08-17.78c1.21-.47,5.68-2.94,10.41-5.56,20.62-11.4,68.91-38.09,148.25-69.28,98.55-38.74,211.8-71.6,336.61-97.64,109.28-22.81,182.14-90.65,266.5-169.22,45-41.92,96-89.44,157.86-134.68,70.81-51.82,145.72-93.31,229-126.84a9.15,9.15,0,1,1,6.84,17c-183.64,73.93-288.62,171.69-381.24,257.94-86.37,80.43-161,149.89-275.23,173.74-193.18,40.31-354.59,95.83-479.74,165-7.66,4.24-10.86,6-13.15,6.79A9,9,0,0,1,885,1033.59Z"/><rect x="854.15" y="2506.34" width="2880.23" height="8.49"/><path class="cls-1" d="M1760.44,752c205.42-131.39,259.83-324.28,586.88-370.61s494.08-25.27,610.58,141.79,172.65,366.4,372,454.84,393,89.84,554.43,405.71,79.54,748.59-390.21,913.13-1344.37,138.34-1590.16,95.28-689.34-27-956-364-300.37-664.09-95.44-891.51S1308.3,1041.19,1760.44,752Z"/><g class="cls-11"><path class="cls-12" d="M765.37,343.19s1287.25,23.7,1617.1,314.94S3594.47,624.65,3862,394"/><path class="cls-12" d="M734.05,843.74c-.86-4.15,1217.5-137.34,1621.59,142s1264.62,223.68,1534.66-21.6"/><path class="cls-12" d="M702.73,1344.28C701,1336,1850.47,1045.9,2328.8,1313.42s1317.26,480.86,1589.83,221"/><path class="cls-12" d="M671.41,1844.83c-2.57-12.43,1078-459.42,1630.55-203.76s1369.89,738,1645,463.51"/><path class="cls-12" d="M640.09,2345.38c-3.42-16.58,1008.23-620.47,1635-376.67s1422.51,995.21,1700.17,706.06"/></g><ellipse class="cls-13" cx="2830.85" cy="2674.77" rx="549.96" ry="85.23"/><ellipse class="cls-13" cx="1517.06" cy="2656.04" rx="472.35" ry="80.71"/><path class="cls-14" d="M1495.16,1627.31c-11.65-.59-23-1-34.36-1.77-104.28-7.3-204.48-31.11-299.88-74.25-3.3-1.5-5.47-1.19-8.38.87-59.56,42.3-123.83,75.72-192.12,101.52a912.19,912.19,0,0,1-122,36.4c.29,3.07.45,5.62.79,8.14q15.63,118.59,31.24,237.17c4.79,36.95,11.1,73.58,22.46,109.12q85.36,266.84,342.56,378.07c3.51,1.52,5.92,1.06,9-1,70.91-47.2,129.41-106.61,174.77-178.71q81.75-130,91-283.38c2.36-38.18-.43-76.19-2.51-114.23q-5.78-106.2-12-212.37C1495.59,1631.13,1495.35,1629.35,1495.16,1627.31Z"/><path class="cls-7" d="M1426.23,1710.77c-9-.45-17.68-.75-26.39-1.36-80.07-5.6-157-23.89-230.28-57-2.54-1.14-4.2-.91-6.43.67-45.74,32.49-95.1,58.15-147.53,78a701.41,701.41,0,0,1-93.73,28c.23,2.36.36,4.32.61,6.25,8,60.71,16.12,121.41,24,182.13,3.68,28.38,8.52,56.5,17.25,83.79q65.55,204.91,263.06,290.33c2.69,1.17,4.55.82,6.89-.74,54.46-36.25,99.38-81.87,134.21-137.24q62.77-99.79,69.87-217.61c1.81-29.32-.34-58.51-1.93-87.72q-4.42-81.56-9.18-163.08C1426.56,1713.7,1426.38,1712.33,1426.23,1710.77Z"/><path class="cls-15" d="M3261.68,2166.57s228.42-157.8,457.39-61.47c0,0-68.15,211-326.12,326.81-241,108.19-365.94,54-365.94,54S3046.59,2314.26,3261.68,2166.57Z"/><path class="cls-2" d="M3144.06,2003.49s182.85-318.79,511.29-334.35c0,0,38.94,290.91-203.16,576.4-226.2,266.74-406.32,273.25-406.32,273.25S2971.38,2302.61,3144.06,2003.49Z"/><g class="cls-16"><path class="cls-3" d="M3025.4,2573.94a6.25,6.25,0,0,1-5.77-8.68l20.46-48.89a5.45,5.45,0,0,1,.39-.76c.5-.86,51.55-87.25,138.35-218.76,80.1-121.36,207.92-307.1,362-502.82a6.26,6.26,0,0,1,9.84,7.75c-290,368.46-491.44,706.8-499.16,719.82l-20.3,48.5A6.25,6.25,0,0,1,3025.4,2573.94Z"/></g><path class="cls-17" d="M2747.81,591,2850,573.47s208.24,11.29,209.36,278.82h-449.2Z"/><path class="cls-8" d="M2628.17,2489.08H1473.55S1679,1912.62,1592.06,1333.73c-110.89-738.25,64.33-760.26,64.33-760.26H2850s-140.88-48.81-121.9,704.38C2733.14,1479.35,2799.44,2161.49,2628.17,2489.08Z"/><g class="cls-18"><path class="cls-17" d="M1673.92,561.62c-1.7,2.54-133.53,48.25-105.28,443.33,8.83,123.49,26.32,378.52,52.26,719s-149.54,849.14-149.54,849.14l-53-148.44,43.06-1919.73Z"/></g><rect class="cls-1" x="1691.95" y="1179.11" width="853.27" height="63.19"/><rect class="cls-1" x="1987.45" y="1360.72" width="557.77" height="63.19"/><rect class="cls-1" x="2016.57" y="1542.32" width="557.77" height="63.19"/><rect class="cls-1" x="2049.17" y="1723.92" width="557.77" height="63.19"/><rect class="cls-1" x="1746.52" y="1905.53" width="853.27" height="63.19"/><rect class="cls-1" x="1996.24" y="2078.34" width="557.77" height="63.19"/><rect class="cls-1" x="1960.08" y="2268.74" width="557.77" height="63.19"/><ellipse class="cls-14" cx="1802.93" cy="1392.31" rx="66.03" ry="66.04"/><ellipse class="cls-14" cx="1830.35" cy="1573.91" rx="66.03" ry="66.04"/><ellipse class="cls-14" cx="1845.28" cy="1755.52" rx="66.03" ry="66.04"/><ellipse class="cls-14" cx="1820.78" cy="2118.73" rx="66.03" ry="66.04"/><ellipse class="cls-14" cx="1779.25" cy="2300.33" rx="66.03" ry="66.04"/><path class="cls-19" d="M1687.71,609.87s-66.55,53.06-65,242.42,7.55,261.42,7.55,261.42h385.91s-60.1-337.05,33-503.84Z"/><ellipse class="cls-3" cx="1812.12" cy="773.65" rx="78.57" ry="78.59"/><path class="cls-3" d="M1747.57,840.08s21.08,18.8,39.81,24.91,41.09,4.88,57.27-3.91a262,262,0,0,0,31.72-21s16.1-1.2,31.67,11.44,25.6,38.38,29.43,71.1,7.93,106.71-4,122.38-24.54,19.6-59.88,19.6H1728c-10.22,0-37.47-8.79-41.51-39.31s-.64-110.73,6.17-132.46S1713.09,840.08,1747.57,840.08Z"/><path class="cls-20" d="M2508.54,1142.55a114.17,114.17,0,1,1,114.14-114.17A114.29,114.29,0,0,1,2508.54,1142.55Zm0-223.51a109.35,109.35,0,1,0,109.33,109.34A109.46,109.46,0,0,0,2508.54,919Z"/><path class="cls-9" d="M2529.09,1060.87v23a12,12,0,0,1-12,12H2500a12,12,0,0,1-12-12V1061a12,12,0,0,0-12-12h-22.94a12,12,0,0,1-12-12v-17.18a12,12,0,0,1,12-12H2476a12,12,0,0,0,12-12V972.92a12,12,0,0,1,12-12h17.12a12,12,0,0,1,12,12v22.83a12,12,0,0,0,12,12H2564a12,12,0,0,1,12,12v17.13a12,12,0,0,1-12,12h-22.89A12,12,0,0,0,2529.09,1060.87Z"/><rect class="cls-9" x="2053.12" y="948.8" width="308.69" height="25.96"/><rect class="cls-9" x="2053.12" y="1011.45" width="308.69" height="25.96"/><rect class="cls-9" x="2053.12" y="1074.1" width="308.69" height="25.96"/><path class="cls-20" d="M2138.13,630.14l-5.85,65.39h-12.06l5.85-65.4Z"/><path class="cls-20" d="M2146.1,695.54l5.85-65.4h13.72l14.55,28a161.34,161.34,0,0,1,9.31,21.93h.2c0-8.73.46-17.17,1.35-27.16l2-22.8h11.18l-5.85,65.39H2186l-14.69-28.73a203.44,203.44,0,0,1-9.83-22.61l-.31.1c-.26,8.44-.94,17.08-1.9,27.85l-2.09,23.38Z"/><path class="cls-20" d="M2213.24,682.56a31.51,31.51,0,0,0,15.61,4.17c7.74,0,12.37-3.58,12.85-8.92.44-4.95-2.63-7.86-10.79-10.87-10.53-3.88-17-9.61-16.14-19,1-10.67,10.7-18.82,25-18.82,7.15,0,12.31,1.56,15.58,3.31l-3.8,9.6a26.48,26.48,0,0,0-12.86-3.11c-7.64,0-11.34,4.07-11.68,7.86-.45,5,3.16,7.37,11.68,10.77,11.09,4.27,16.17,10,15.32,19.41-.93,10.48-9.79,19.6-26.85,19.59-7,0-14-1.94-17.47-4.08Z"/><path class="cls-20" d="M2281.06,630.18l-3.41,38.13c-1.15,12.81,3.72,18.73,11.85,18.73,8.73,0,14.45-5.91,15.6-18.72l3.41-38.13h12.06l-3.35,37.36c-1.8,20.18-13.09,29.1-29,29.1-15.29,0-24.44-8.45-22.6-29l3.35-37.45Z"/><path class="cls-20" d="M2334.31,631.07a119,119,0,0,1,18.36-1.35c9.51,0,15.84,1.56,19.92,5.25,3.36,3,5,7.56,4.51,13.09-.75,8.45-7,14.17-13.42,16.4l0,.29c4.55,1.75,7,6.31,8.09,12.61,1.33,8.16,2.41,15.72,3.56,18.25h-12.45c-.81-1.94-1.9-7.27-3-15.43-1.1-8.53-4-11.25-10.84-11.45h-6.08l-2.4,26.88h-12Zm9.38,28.92h7.15c8.14,0,13.62-4.26,14.2-10.76.64-7.18-4.16-10.48-12-10.49a35.87,35.87,0,0,0-7.5.58Z"/><path class="cls-20" d="M2399.9,677.08l-7.35,18.53H2380.1l27-65.39h15.39l15.62,65.4H2425.2l-4.32-18.53Zm19.72-9L2415.87,652c-.92-4-1.6-8.44-2.24-12.23h-.19c-1.32,3.79-2.71,8.35-4.24,12.23l-6.53,16.1Z"/><path class="cls-20" d="M2447.35,695.63l5.86-65.39h13.72l14.55,28a161.53,161.53,0,0,1,9.31,21.93h.2c0-8.74.45-17.18,1.35-27.17l2-22.8h11.17l-5.85,65.4h-12.45l-14.68-28.72a206.24,206.24,0,0,1-9.84-22.61l-.3.09c-.27,8.45-.94,17.08-1.91,27.85l-2.09,23.38Z"/><path class="cls-20" d="M2561.15,693.72c-3,1.46-9.38,2.91-17.32,2.91-21,0-32.56-13-30.78-32.9,1.93-21.54,18.19-34.54,38.38-34.53,7.94,0,13.48,1.65,15.82,2.91l-3.5,9.51A30.68,30.68,0,0,0,2551,639.1c-13.43,0-23.88,8.33-25.29,24-1.29,14.36,6.42,23.58,20.93,23.58a35.46,35.46,0,0,0,13.35-2.42Z"/><path class="cls-20" d="M2610.82,666.67h-24.9l-1.71,19.21h27.84l-.88,9.8h-39.9l5.85-65.4,38.43,0-.88,9.8H2588.3L2586.79,657h24.9Z"/><path class="cls-20" d="M2110.91,756.55a175.37,175.37,0,0,1,30.14-2.2c14.33,0,24.58,3,30.92,8.68,5.9,5.21,9.3,13.56,8.41,23.49-.91,10.09-4.84,18.44-11.4,24.11-8.49,7.73-21.08,11.35-34.93,11.34a55,55,0,0,1-9.5-.63l-3.59,40h-19.43Zm15,49.5a39.11,39.11,0,0,0,9.49.79c14.65,0,24.2-7.08,25.32-19.54,1.06-11.82-6.66-18.13-20.2-18.13a56.32,56.32,0,0,0-11.39.94Z"/><path class="cls-20" d="M2290.64,807.2c-3.18,35.63-26.82,55.95-56.44,55.94-30.26,0-47.33-22.87-44.53-54.08,2.92-32.62,25.68-55.63,55.94-55.62C2277,753.45,2293.35,776.94,2290.64,807.2Zm-80.24,1.56c-1.93,21.59,7.52,38.77,26.31,38.78,18.95,0,31.17-17.33,33.16-39.55,1.79-20-6.55-38.94-26.14-39C2224.3,769,2212.36,786.85,2210.4,808.76Z"/><path class="cls-20" d="M2312.18,755.19h19.59l-8.06,90,44.12,0-1.45,16.23-63.71,0Z"/><path class="cls-20" d="M2410.28,755.23l-9.51,106.23h-19.58l9.5-106.24Z"/><path class="cls-20" d="M2500.43,858.34c-4.83,2.36-15.23,4.72-28.13,4.72-34.08,0-52.9-21.14-50-53.45,3.14-35,29.55-56.11,62.36-56.1,12.9,0,21.89,2.69,25.69,4.74l-5.68,15.45a49.88,49.88,0,0,0-20.65-4.11c-21.82,0-38.8,13.55-41.09,39.08-2.08,23.33,10.43,38.31,34,38.31,8,0,16.39-1.57,21.69-3.93Z"/><path class="cls-20" d="M2542,861.5l4-44.29-28.37-62h22.29l10.46,27.27c3,7.88,5.13,13.87,7.35,21.12h.32c3.31-6.77,6.93-13.39,11.28-21.12l15.34-27.26h22.14l-41.18,61.46-4,44.76Z"/><path class="cls-21" d="M2934.9,1069.21a29.6,29.6,0,1,1,29.59-29.6A29.64,29.64,0,0,1,2934.9,1069.21Zm0-56.31a26.71,26.71,0,1,0,26.7,26.71A26.74,26.74,0,0,0,2934.9,1012.9Z"/><circle class="cls-3" cx="2943.57" cy="942.3" r="19.48"/><path class="cls-7" d="M2421.26,2657s-59.25-240.43,31.32-386.9,226-195.57,331.83-256.52,248.87-191.34,315.75-195.57c22,0,32,55.5,24.45,86.35s-123.21,182.87-235.51,255.12c0,0,195.26-110.63,286.68-266.41s66.59-184.28,149.55-327.36,176.07-73.65,155.75,9.32-97.63,375.61-119.07,450.12-67.72,219-143.34,301.39S2889.08,2473,2877.81,2570.36c-9.95,85.93-5,97.64-5,97.64s-37.9,69.42-239.93,64.91S2421.26,2657,2421.26,2657Z"/><g class="cls-22"><path class="cls-23" d="M2494.49,2748.71c2.25-9,208.8-4.51,228-143.36s89.16-164.63,214.44-229.62,307-88.71,386-392.36,170.43-369.13,170.43-369.13l-162.53,647-427.77,331.73L2867,2761.13s-241.94,53-248.51,50.8S2494.49,2748.71,2494.49,2748.71Z"/><path class="cls-23" d="M3127.1,1917.9c0-2.54,29.63-88.9-26.24-33S2946.8,2063,2876.54,2108.13s-127.82,104-127.82,104l140.38-52.65s144.36-96.54,142.09-101.75S3127.1,1917.9,3127.1,1917.9Z"/></g><path class="cls-4" d="M2783.75,1227.43c-.37,1.51-14.29,85.42-3,124.17s39.88,31.24,57.57,27.1,17.68,12,8.65,30.47-33.86,39.51-33.86,39.51,39.5,15.43,65.46,5.27,28.22-26.71,28.22-26.71-17.31-23.33-3.39-51.93l20.69-52.87-5.36-89.74-104.12-66.32-20.59,12.7Z"/><g class="cls-24"><path class="cls-4" d="M2833.09,1384.72l5.22-6s29.58-19.19,32.59-11.29-28,32.17-28,32.17Z"/><path class="cls-25" d="M2774.11,1251.33s15,7.9,32.73,16.37,54.75,20.6,81.83,32.17,24.27,19.47,25.12,19.47c.45,0,38.08-19.79,16.93-49.95-18.56-26.46-96.22-63.78-96.22-63.78l-26.53-4.52Z"/></g><path class="cls-9" d="M3064.15,1413c-17.82,0-39.46-10.37-63.08-30.57-27.56-23.58-62.86-9.32-63.22-9.17a1.45,1.45,0,0,1-1.11-2.67c.37-.15,37.28-15.11,66.21,9.64,19.05,16.3,54.86,41.12,80.67,24.35a1.44,1.44,0,0,1,1.57,2.42A37.9,37.9,0,0,1,3064.15,1413Z"/><path class="cls-9" d="M2809.53,1133.37s-29.63-2.54-42.89,28.78-9.32,70.83-9.32,70.83,6.49,10.73,42.89,17.22a99.5,99.5,0,0,1,7.9-31.89s-1.69,24.27,1.42,34.43,25.67,20.88,46.55,27.09,23.42,5.64,23.42,5.64,25.12-2.54,29.63,24.84-18.34,18.34-20.32,32.73-9,40.08,16.37,45.72,57.84-31,79.85-29.07,54.46,18.35,94.53,47.7,100.73,19.47,114.28-28.79,35.83-53,76.46-56.16,94.25-16.65,112.87-67.73,8.18-67.44-14.67-62.36-86.35,52.49-119.92,8.18-47.69-61.24-101.3-56.16-57.56,36.12-107.22,30.2-72.52-66.6-140.52-69.43S2809.53,1133.37,2809.53,1133.37Z"/><g class="cls-26"><path class="cls-27" d="M2749.85,1204.48c-.57,2,40.63,38.66,47.4,25.4s21.45-53.62,35.27-13.83,47.69,33.3,73.37,53.06,8.74,62.93,30.75,71.39,64.62-24.55,109.2,4.52,96.78,24,130.36-9.31,63.21-26.53,112.59-32.74,88.88-32.17,88.88-32.17l-28.41,42.8s-118.13,29-119.26,29-36.12,87.3-37.25,87.3-73.36,15.43-78.25,13.92-82-42.52-82-42.52l-58.31-27.09-85.78,44-19.19-46.28-1.13-60-51.91-19-70-42.9Z"/></g><path class="cls-28" d="M2108.24,2261.2c-22.48,12-46.23,13.13-80.32,8.7-45.6-5.93-61.75,35.48-15.52,58.61,43.46,21.73,57.85,11.57,95.09,39.22s56.72-22,63.49-64.34c.14-.85.31-1.71.5-2.57C2122.17,2295.71,2110.82,2272.57,2108.24,2261.2Z"/><path class="cls-4" d="M2239.55,2084.4c-1.69,1.69-68.29,121.35-101.58,154.08-10.18,10-19.83,17.42-29.73,22.72,2.58,11.37,13.93,34.51,63.24,39.62,9.17-42.14,79-99.79,103.06-125,26.9-28.19,77.31-97.08,77.31-97.08Z"/><g class="cls-29"><path class="cls-30" d="M2216.61,2106.65s58.69-27.1,11.29,140L2334,2149.54l64.33-114s-66.59-11.49-70-12-63.65,6.31-63.65,6.31Z"/></g><path class="cls-4" d="M2426.12,2234.22c8.92-37.93,17.49-122.87,17.49-122.87l-95.78-27.14c-.6,2.32,4.39,228.12-7.74,273.22-4.63,17.23-10.61,30.55-18.76,41.52,12.77,8.51,41.41,20.52,78.55-7C2388.22,2350.21,2418.29,2267.52,2426.12,2234.22Z"/><g class="cls-31"><path class="cls-30" d="M2332.24,2136.32s93.42,1.7,70,214.2L2455,2226.07l19.47-107.34-122.6-65.33-23.8,54.73Z"/></g><path class="cls-28" d="M2321.33,2399c-13.18,17.75-32.06,29.35-60.21,41.31-42.33,18-35.28,61.88,16.3,58.4,48.47-3.28,55.74-19.33,101.86-14.35s37.75-47.71,22.15-87.64c-.58-1.5-1.09-3.07-1.55-4.7C2362.74,2419.47,2334.1,2407.46,2321.33,2399Z"/><path class="cls-17" d="M2765.56,1642.43c-2.2,22.12-7.4,41.76-16.84,60.25,19.3,17.44,60,38,142.07,29.42a131.68,131.68,0,0,1,2-15.42c2.74-13.58,9.11-29.4,16.79-46.07C2827,1679.9,2785.5,1659.88,2765.56,1642.43Z"/><path class="cls-10" d="M2748.72,1702.68c-1.29,2.52-2.64,5-4.09,7.51-19.75,33.87-61.52,33.3-142.22,54.75s-195.82,42.9-256.77,112.88S2210.77,2073.68,2217,2096.25s109.48-44,154.62,11.88,172.12,87.46,172.12,87.46,206.55-136,266.93-180.05,88.6-98.77,86.35-128.12c-2-26-9.75-110.12-6.21-155.32C2808.75,1740.73,2768,1720.12,2748.72,1702.68Z"/><g class="cls-32"><path class="cls-33" d="M2332,2099.64c3.37,1.27,25.68-4.09,25.68-4.09s63.48,53.19,130.64,9.17,48.34-99.45,149.55-114.58,231.69-172.71,221.09-294.06l55.43,2.26,6.21,114.58-16.09,163.39-106.65,131.82-173.54,87.46L2554,2226.91l-125.27-37.12Z"/></g><path class="cls-4" d="M2801.91,1457.41s-102.71,58.34-148.42,49.6-244.45-15.81-269.28-21.08-84.28-42.51-131.68-12.41,82,56.81,119.26,51.17c0,0,210.31,41.39,246.8,42.9s153.12-26,153.12-26Z"/><g class="cls-34"><path class="cls-30" d="M2382.46,1526.78s181.89,29.61,236,27.92,117.43-10,132.25-44.31,38.38-53,38.38-53l20.31,5.95-52.61,97.45-162.58,18.82Z"/></g><path class="cls-3" d="M2957.92,1489.07a63.93,63.93,0,0,0-18.15-41.42,111.44,111.44,0,0,0-14.37-12.51c-17.49-12.56-20.72-11.28-20.72-11.28-30.28,34.86-81.53,15.5-81.53,15.5-7.67,2.63-31.82,21.93-41.65,34.53-35.74,45.53-18.25,67-15.43,116.08,1.1,19.12,1.08,36.44-.51,52.46,19.94,17.45,61.42,37.47,144,28.18,13.68-29.7,31.53-62.12,40.49-89.48C2959.34,1552.75,2959.17,1513.24,2957.92,1489.07Z"/><g class="cls-35"><path class="cls-36" d="M2858.92,1682.73s41.51-39.51,43.77-81.28,6.86-109.87,6.86-109.87l60.86,119.28L2943.07,1673l-37.37,20.29Z"/><path class="cls-4" d="M2911.62,1505.31l-2.9-.37s-1.33,29.16,3,51.73,19.18,89.75,19.18,89.75,10.91-18.63,10.91-19.19S2911.62,1505.31,2911.62,1505.31Z"/><path class="cls-37" d="M2768.75,1651.87s3-30.24-1.13-78-13-62.69,18.44-98.51c28.82-32.85,46.65-36.5,46.65-36.5l-13.17-6-50.41,31.61-16.93,54.56,4.57,74.12V1641Z"/></g><path class="cls-4" d="M2925.4,1463.92c14.84-5.4,29.35-3.57,38.75,29.73s34.8,164.24,43.08,202.62,37.9,157.28,37.9,157.28-31.88,30.48-33.57,21.45-45.2-132.2-61.52-193.38S2910.82,1533.82,2909,1509,2909.65,1469.66,2925.4,1463.92Z"/><g class="cls-38"><path class="cls-30" d="M2908.47,1470.88s48.49,192.93,73,263.25,55.86,157.52,55.86,157.52l-26.52,10.16L2958.53,1763l-61.41-228.59Z"/></g><path class="cls-9" d="M3042.9,1168.24c-27.07,0-52.72-13.27-54.17-14a1.45,1.45,0,0,1,1.35-2.56c.46.25,47,24.29,79.76,7.89l3.44-1.73c32-16,48-24.07,95.38-11.94a1.43,1.43,0,0,1,1,1.75,1.46,1.46,0,0,1-1.76,1.05c-46.33-11.86-62.05-4-93.36,11.73l-3.45,1.73C3062.21,1166.58,3052.47,1168.24,3042.9,1168.24Z"/><g class="cls-39"><path class="cls-3" d="M3031.72,1266.56a15.07,15.07,0,0,1-1.65-.09c-4.14-.47-7.84-2.8-11-6.91-22.71-29.73-78.26-30.65-78.81-30.66a2.41,2.41,0,0,1,0-4.82c2.38,0,58.45.94,82.59,32.56,2.35,3.07,4.86,4.72,7.7,5,7.76.89,18.62-8.11,31.18-18.53,24.72-20.5,58.58-48.58,107-38.77a2.41,2.41,0,0,1-1,4.72c-46.14-9.36-79,17.87-103,37.76C3051.69,1257.79,3041.11,1266.56,3031.72,1266.56Z"/></g><polygon class="cls-3" points="3094.26 994.41 3069.18 1012.28 3099.63 1028.49 3094.26 994.41"/><path class="cls-17" d="M3160.74,1121.41a1.42,1.42,0,0,1-1.44-1.44v-39.81a1.44,1.44,0,0,1,2.09-1.29l39.89,19.9a1.45,1.45,0,0,1,0,2.59l-39.89,19.9A1.51,1.51,0,0,1,3160.74,1121.41Zm1.45-38.91v35.13l35.21-17.57Z"/><path class="cls-5" d="M1720.73,1037.42s9.78-28.23,7.14-74.51-45.52-71.49-96.68-68.86-64.34,29-64.34,29-47.78-1.13-49.66,57.19,16.55,115.89,74.49,146.37c15,8.28,18.81,3.76,18.81,3.76Z"/><g class="cls-40"><g class="cls-39"><path class="cls-3" d="M1537.38,1039.14a1.43,1.43,0,0,1-1.29-.8c-.2-.39-17.33-43.71-.85-76.08,13.87-27.24,31.17-24.49,35.91-23.11,3.82-6.3,25.23-38.33,64.26-35a1.44,1.44,0,1,1-.24,2.87c-41.19-3.54-61.89,34.14-62.09,34.52a1.45,1.45,0,0,1-1.87.64c-.75-.33-18.55-7.81-33.39,21.35-15.62,30.67.66,73.1.85,73.48a1.44,1.44,0,0,1-1.29,2.09Z"/></g><path class="cls-41" d="M1526.94,1073.26s28.21,23.14,27.65-.29,37.81-69.7,30.76-94.25c0,0,74.72,16.8,105.53-12.14s46.27-11.29,49.66,5.36,5.08,74.51,5.08,74.51-21.17,31.6-22,31.6-72.52,68.58-72.52,68.58-32.73,7-38.09,6.49-77.32-27.94-77.32-27.94Z"/></g><path class="cls-4" d="M1716.21,971.94s11.66,83.91,13.92,130.19-56.81,39.14-62.45,46.66-15,58.32-15,58.32-31.6,24.84-64.71-16.93c0,0,21.44-66,17.68-88.61s-37.62,1.88-41.19-34,27.65-28.22,27.65-28.22,15.24-25.59,15.42-43.46C1607.48,995.84,1697.4,1009.76,1716.21,971.94Z"/><g class="cls-42"><path class="cls-43" d="M1560.37,1071.42c-.14-.42,2.26-32.31,22.72-24.27s33.44-39.65,33.44-40.21,68,14.67,105.1-25.12l-3.38-19.47-123.73,28.36-36.4,61.8Z"/><path class="cls-43" d="M1692.26,1146.06s-41.71-11.44-53.75-7.23,29.18,22.6,36.11,23.9Z"/></g><path class="cls-4" d="M1648.8,2558.45a67.39,67.39,0,0,0,39.45-27.09c-15.06-18.25-7.38-55.26-7.38-55.26l-76-5.08v72.07C1612.28,2551.67,1626.91,2564,1648.8,2558.45Z"/><path class="cls-44" d="M1743.35,2597.28l9.53-25.28c-2-.89-4.06-1.82-6.21-2.83l-11.21,23.54Z"/><path class="cls-44" d="M1721.45,2587.52l10-25.95q-2.67-1.43-5.46-3l-11.28,26.21Z"/><path class="cls-45" d="M1786.43,2585.55c-5.91-2.92-17.08-6.25-33.55-13.55l-9.53,25.28-7.89-4.57,11.21-23.54c-4.7-2.2-9.77-4.72-15.22-7.6l-10,25.95-6.74-2.7,11.28-26.21q-6.27-3.46-13.14-7.59l-11.12,27.57-8-2.9,12.91-28.51c-8.31-5.42-14.23-10.76-18.4-15.82a67.39,67.39,0,0,1-39.45,27.09c-21.89,5.53-36.52-6.78-43.9-15.36V2636h201.45S1812.89,2598.63,1786.43,2585.55Z"/><path class="cls-44" d="M1701.73,2578.59l11.12-27.57c-1.2-.72-2.42-1.46-3.64-2.22-.88-.54-1.73-1.08-2.56-1.62l-12.91,28.51Z"/><path class="cls-4" d="M1164,2431.88a67.4,67.4,0,0,0,45,16.41c6.12-22.86,40.72-38.08,40.72-38.08l-40-64.83L1151,2387.21C1148.31,2398.2,1146.77,2417.26,1164,2431.88Z"/><path class="cls-44" d="M1187.24,2531.43l26.11-6.92c-.44-2.14-.87-4.36-1.3-6.7l-25.67,4.54Z"/><path class="cls-44" d="M1182.48,2507.93l26.93-6.92c-.26-2-.52-4.06-.76-6.17l-27.89,6Z"/><path class="cls-45" d="M1221.79,2559.7c-1-6.5-4.83-17.54-8.44-35.19l-26.11,6.92-.86-9.08,25.67-4.54c-.93-5.1-1.83-10.69-2.64-16.8l-26.93,6.92-1.72-7.07,27.89-6c-.55-4.75-1-9.77-1.45-15.11l-28.9,6.95-2.27-8.19,30.71-6a80.56,80.56,0,0,1,2.19-24.17,67.4,67.4,0,0,1-45-16.41c-17.21-14.62-15.67-33.68-13-44.67l-75.65,53.92,116.92,164.08S1226.5,2588.85,1221.79,2559.7Z"/><path class="cls-44" d="M1178.3,2486.68l28.9-6.95c-.11-1.39-.21-2.81-.3-4.25-.07-1-.12-2-.16-3l-30.71,6Z"/><path class="cls-6" d="M1495,1621.58l-3.57,2.07s-37.34,59.73-56.81,133.39-37.25,229.43-55.87,280.23-194.69,297.16-194.69,297.16-1.7,67.73,82.11,88.9c0,0,222.63-239.59,261.56-294.62s53.33-110.91,53.33-110.91,5.08,173.56,5.93,266.68-7.62,181.18-7.62,181.18,65.18,44,134.59,0c0,0,21.17-204.88,24.55-351.35s-1.6-482.82-1.6-482.82l-56,10.41Z"/><g class="cls-46"><path class="cls-47" d="M1575.75,2052.69l5.56-25.86s34.51-151.83,45.8-215.61-3.39-29.91-7.9-.56S1585.91,1984.5,1565,2037s-44,84.71-96.5,147.77-218.88,242.8-218.88,242.8,25.31,11.29,25.31,9.6,201.47-226.33,201.47-226.33l80.7-95.95Z"/><g class="cls-48"><path class="cls-47" d="M1714.91,1631.49s.56,130.33,0,184.38-5.64,195.44-6.77,307.76-137.7,401-137.7,401l169.24-52.16L1790.2,1919l-50.52-292.22Z"/></g><g class="cls-49"><path class="cls-3" d="M1186,2356.26s44.75-45.53,71.46-82.78,120.48-168.39,151.2-234.42,28.93-156.72,53.19-240.82,123.25-146.56,123.25-146.56l-92.67-39.88-90.86,163.11L1346,2058.71l-153.72,235.18-12.43,46.56Z"/></g><g class="cls-39"><path class="cls-3" d="M1427.14,1726.81a2.89,2.89,0,0,1-.06-5.77c52.82-1.14,91-20.93,113.43-58.84,16.76-28.3,18-56.52,18-56.8a2.89,2.89,0,0,1,5.78.21c0,1.21-1.31,30-18.81,59.53a118.12,118.12,0,0,1-41.07,41.58c-21.09,12.69-47.07,19.45-77.22,20.09Z"/></g><g class="cls-39"><path class="cls-3" d="M1174.72,2399.73a2.89,2.89,0,0,1-2-4.93c1.27-1.27,127.59-128.52,189.33-227.83,61.65-99.15,134.29-457.89,135-461.51a2.89,2.89,0,0,1,5.66,1.14c-.18.91-18.5,91.68-44.23,193.59-34.61,137-65.4,227.8-91.54,269.83-62.09,99.87-188.87,227.58-190.15,228.86A2.89,2.89,0,0,1,1174.72,2399.73Z"/></g></g><path class="cls-44" d="M1502.89,1587.72l-5.64,1.69-5.83,34.24s28,44.78,136,42.14,109.48-34.3,109.48-34.3l-.94-35.87-7-1.13Z"/><path class="cls-7" d="M1573.62,1190.56s-51.82,7.46-86.25,15.49-37.52,41-65,95.51-90.48,177.79-90.48,177.79,35.55,64.34,94.81,36.12l69.41-150.7,1.13,224.64s28.22,46.28,121.9,41.77S1736,1595.62,1736,1595.62s22.2-182.31,28.41-210.53L1955.49,1472s40.07-31,30.47-85.79c0,0-157.63-91.24-197.14-135.83s-129.15-47.32-129.15-47.32Z"/><g class="cls-50"><path class="cls-51" d="M1491.42,1385.09l4.7-20.32s18.68-37.81,11.91-60.39-1.13,10.16-11.28,29.92-66,156.81-66,156.81l20.88,2.37Z"/><path class="cls-51" d="M1768.75,1404.28l-4.38-19.19s6.36-37.81.72-66.32-10.73-20-7.9,11-1.7,64.34-6.49,93.13-24.27,192.46-24.27,192.46l13.25-9.86Z"/><path class="cls-51" d="M1619.21,1219.72s-17.87,14.11-22.76,98.77,4.13,220.46,11.47,231.86,56.37,52.61,56.37,52.61l30-60.64-61-209.15-3.38-111.76Z"/><path class="cls-51" d="M1760.85,1319.34s59.54,68.86,127,90.3,83.8,6.5,80.42,35.56.84,45.16-65.75,19.76-143.34-80.15-143.34-80.15Z"/><g class="cls-49"><path class="cls-3" d="M1498.2,1190.56c-5.07,3.48-39.86,39.86-44.48,88.13s-46.4,69.75-54.29,113.62-29,86.19-29,86.19l-50.79-18.12s88.89-192.68,89.73-196.92,62.64-64.34,62.64-64.34Z"/></g></g><path class="cls-4" d="M2005.71,1404.28s142.78,51.52,186.23,53.13,87.48-16.44,131.49-5.72,64.34,70.55-19.75,64.35-103.83-13-103.83-13l-212.4-33.3S1974.3,1426.86,2005.71,1404.28Z"/><g class="cls-52"><path class="cls-43" d="M1984.72,1406.54s-27.4,35.61,166.69,88.92h0s-118,2.52-119.68,2.52-58.12-13.87-59.82-14.84-26-13.39-26-13.39Z"/></g><path class="cls-44" d="M1965.13,1375l-31,88.77a8.69,8.69,0,0,0,5,11L1979,1490.5a8.7,8.7,0,0,0,11.42-5.22l32.06-91.7a8.71,8.71,0,0,0-5.61-11.18l-41-12.85A8.7,8.7,0,0,0,1965.13,1375Z"/><path class="cls-4" d="M1328.89,1512.65s-23.51,182.87-33.11,220.12-36.11,63.21,0,75.07,92.39,17.49,78.65-33.87-10.53-51.92,0-115.14,28.39-134.14,28.39-134.14Z"/><g class="cls-53"><path class="cls-43" d="M1340.1,1507.88s44.91,19.82,42.27,46.16S1366.13,1710,1366.13,1710l53.49-189.43Z"/></g><path class="cls-44" d="M1340.44,1450.11l98.2,26.33a10.79,10.79,0,0,1,7.35,14.08l-14.27,39.57a10.79,10.79,0,0,1-12.39,6.89l-99.28-21.1a10.79,10.79,0,0,1-8-14.05l15.35-44.8A10.78,10.78,0,0,1,1340.44,1450.11Z"/><path class="cls-3" d="M1612.94,1206.05s24.69,7.35,31.32,0l2.12,14.94s-10.44,12.28-9.32,19.9,12.56,169,40.5,218.14,27.08,72.25,27.08,72.25l-28.78,63.21-51.6-44.59A856.52,856.52,0,0,0,1609,1459c-11.29-50.8-2.26-117.4,0-168.19s13-46.66,7.34-61-7.15-16.74-7.15-16.74Z"/><path class="cls-44" d="M1624.1,1188.57l-13,44.41s-35.69-6.77-42.46-41.76c0,0,18.2-35,24.69-31.33,6,3.4,8.39,16.73,27.21,22.49A5.17,5.17,0,0,1,1624.1,1188.57Z"/><path class="cls-44" d="M1641,1188l1.32,45s19.76-2.82,22-24l-2.62-29a1,1,0,0,0-1.7-.66c-2.32,2-7.45,5.42-16.27,5.66A2.84,2.84,0,0,0,1641,1188Z"/><path class="cls-15" d="M1383.26,1789.59h-105a16.17,16.17,0,0,0-16.18,16.18v33.86a16.17,16.17,0,0,0,16.18,16.18h105a16.17,16.17,0,0,0,16.17-16.18v-33.86A16.17,16.17,0,0,0,1383.26,1789.59Zm-2.69,46.32a10.8,10.8,0,0,1-10.8,10.81h-78a10.81,10.81,0,0,1-10.8-10.81v-19.1a10.81,10.81,0,0,1,10.8-10.81h78a10.8,10.8,0,0,1,10.8,10.81Z"/><path class="cls-3" d="M1142.65,1843.4h93.6a0,0,0,0,1,0,0v224.35a0,0,0,0,1,0,0h-93.6a25.19,25.19,0,0,1-25.19-25.19v-174a25.19,25.19,0,0,1,25.19-25.19Z"/><rect class="cls-54" x="1198.15" y="1843.4" width="283.01" height="224.35" rx="20.88"/><path class="cls-21" d="M1305.53,1144.84a29.6,29.6,0,1,1,29.6-29.6A29.63,29.63,0,0,1,1305.53,1144.84Zm0-56.31a26.71,26.71,0,1,0,26.71,26.71A26.74,26.74,0,0,0,1305.53,1088.53Z"/><circle class="cls-3" cx="1340.1" cy="1004.95" r="19.48"/><polygon class="cls-3" points="1423.26 1142.59 1398.18 1160.45 1428.63 1176.66 1423.26 1142.59"/><path class="cls-17" d="M1418.38,1049.73a1.51,1.51,0,0,1-.77-.21,1.46,1.46,0,0,1-.68-1.23v-39.81a1.44,1.44,0,0,1,2.09-1.29l39.89,19.9a1.45,1.45,0,0,1,0,2.59l-39.89,19.9A1.43,1.43,0,0,1,1418.38,1049.73Zm1.44-38.91V1046l35.21-17.57Z"/><path class="cls-3" d="M3053.19,1114.25a1.14,1.14,0,0,1-.37,0,1.45,1.45,0,0,1-.88-.67l-12.7-22a1.44,1.44,0,0,1,.53-2l22-12.7a1.46,1.46,0,0,1,1.1-.14,1.48,1.48,0,0,1,.88.67l12.69,22a1.45,1.45,0,0,1-.52,2l-22,12.7A1.41,1.41,0,0,1,3053.19,1114.25Zm-10.72-22.91,11.25,19.49,19.49-11.25L3062,1080.09Z"/><g class="cls-39"><path class="cls-3" d="M3040.34,1193c-13.8,0-44.06-7.92-63.23-34.55-19.35-26.88-42-29.09-42.26-29.11a2.41,2.41,0,0,1,.38-4.8c1,.08,25.06,2.3,45.78,31.09,19,26.43,49.37,33.31,61.09,32.5a2.41,2.41,0,1,1,.33,4.8C3041.79,1193,3041.09,1193,3040.34,1193Z"/></g><g class="cls-39"><path class="cls-3" d="M3076.12,1188.45a2.41,2.41,0,0,1-.19-4.81c.16,0,9.75-1,26.45-12.92a2.41,2.41,0,0,1,2.8,3.93c-18,12.84-28.44,13.76-28.87,13.8Z"/></g><g class="cls-39"><path class="cls-3" d="M2773.27,1181.77h0a2.4,2.4,0,0,1-2.4-2.41c0-.33.45-33,38.81-36.27,4.27-5.1,27.42-30,70.24-26.8a2.41,2.41,0,1,1-.35,4.8c-44.09-3.25-66.53,25.49-66.76,25.78a2.4,2.4,0,0,1-1.74.94c-34.85,2.44-35.38,30.37-35.39,31.56A2.4,2.4,0,0,1,2773.27,1181.77Z"/></g></svg>