<svg id="_01" data-name="01" xmlns="http://www.w3.org/2000/svg" xmlns:xlink="http://www.w3.org/1999/xlink" viewBox="0 0 4680 3120"><defs><style>.cls-1{fill:none;}.cls-2{fill:#9d1107;}.cls-3{fill:#ffbca9;}.cls-19,.cls-4{fill:#fff;}.cls-4{opacity:0;}.cls-5{fill:#ffe8c2;}.cls-6{opacity:0.63;}.cls-7{opacity:0.65;}.cls-8{fill:#edb66e;}.cls-9{fill:#f4d4d4;}.cls-10{fill:#e88989;}.cls-11{fill:#e07373;}.cls-12{clip-path:url(#clip-path);}.cls-13{fill:#edb2b2;}.cls-14{fill:#aa5757;}.cls-15{fill:#4c2323;}.cls-16{fill:#304556;}.cls-17{clip-path:url(#clip-path-2);}.cls-18{fill:#20323d;}.cls-20{clip-path:url(#clip-path-3);}.cls-21{fill:#efefef;}.cls-22{fill:#560b0a;}.cls-23{clip-path:url(#clip-path-4);}.cls-24{fill:#7c0805;}.cls-25{fill:#f4a992;}.cls-26{clip-path:url(#clip-path-5);}.cls-27{fill:#ff8b74;}.cls-28{fill:#892e0e;}.cls-29{fill:#f97f76;}.cls-30{fill:#8e5442;}.cls-31{fill:#3e566b;}.cls-32{clip-path:url(#clip-path-6);}.cls-33{fill:#283d4c;}.cls-34{opacity:0.49;}.cls-35{fill:#cec0bc;}.cls-36{fill:#f7d17c;}.cls-37{clip-path:url(#clip-path-7);}.cls-38{fill:#eabf68;}.cls-39{clip-path:url(#clip-path-8);}.cls-40{fill:#649987;}.cls-41{fill:#4d8970;}.cls-42{fill:#c6e5d9;}.cls-43{clip-path:url(#clip-path-9);}.cls-44{fill:#afdbc9;}.cls-45{fill:#ffa95c;}.cls-46{opacity:0.4;}.cls-47{opacity:0.64;}.cls-48{fill:#f78c34;}.cls-49{opacity:0.53;}.cls-50{opacity:0.56;}.cls-51{opacity:0.35;}.cls-52{opacity:0.38;}.cls-53{fill:#a59283;}.cls-54{fill:#bcaa9c;}.cls-55{clip-path:url(#clip-path-10);}.cls-56{fill:#6b3030;}.cls-57{clip-path:url(#clip-path-11);}.cls-58{fill:#816161;}.cls-59{clip-path:url(#clip-path-12);}.cls-60{fill:#684a4a;}.cls-61{fill:#e83640;}.cls-62{clip-path:url(#clip-path-13);}.cls-63{fill:#b2162d;}.cls-64{clip-path:url(#clip-path-14);}.cls-65{clip-path:url(#clip-path-15);}.cls-66{opacity:0.68;}.cls-67{fill:#f79646;}.cls-68{opacity:0.39;}.cls-69{clip-path:url(#clip-path-16);}.cls-70{fill:#d86d4c;}.cls-71{clip-path:url(#clip-path-17);}.cls-72{fill:#6788a0;}.cls-73{fill:#d68e8e;}.cls-74{opacity:0.51;}.cls-75{opacity:0.82;}.cls-76{opacity:0.57;}.cls-77{opacity:0.61;}.cls-78{clip-path:url(#clip-path-18);}.cls-79{clip-path:url(#clip-path-19);}.cls-80{fill:#85baa7;}.cls-81{fill:#5c9982;}.cls-82{clip-path:url(#clip-path-20);}</style><clipPath id="clip-path"><path class="cls-1" d="M1914.6,720.72l371.72,1329.91s33.37,7.29,52.43-20.32c-28.6-103.86-376.5-1323.89-376.5-1323.89l281.18-9.53s17.48-17.47-6.35-27c-33.36,0-268.47,11.12-268.47,11.12L2388,493.55s8-20.65-15.88-14.29S1955.9,663.53,1955.9,663.53l189-197s1.59-15.89-17.47-11.12c-17.48,14.29-190.63,200.16-190.63,200.16l-55.6-155.68-27,9.53,49.25,155.68-117.56-58.78s-14.3,1.59-9.53,17.48c47.66,25.41,120.73,65.13,120.73,65.13l-187.45-14.3s-28.59-6.35-19.06,20.65c35,6.36,181.09,12.71,181.09,12.71L1569.87,817.62s-17.47,20.66,0,27C1598.47,835.1,1914.6,720.72,1914.6,720.72Z"/></clipPath><clipPath id="clip-path-2"><path class="cls-1" d="M1729,1531.08s-14.65,248.19-32.86,333.26-18.21,365.94-18.21,365.94l97.76,3.74s44.4-361.69,59.83-432,30-110.4,30-110.4L1939,2224.28h109.83l-72.49-693.2S1806.4,1460.13,1729,1531.08Z"/></clipPath><clipPath id="clip-path-3"><path class="cls-1" d="M1818.87,1062.39s-24.16,22.37-39.37,26.85-22.38,25.71-22.38,25.71L1814.4,1372l4.47,145.87s80.55,13.42,111,0,26-403,26-403-48.42-21.22-68.11-31.52S1818.87,1062.39,1818.87,1062.39Z"/></clipPath><clipPath id="clip-path-4"><path class="cls-2" d="M1818.1,893.08s22.44-29.73,54.45-26.43,42.58,3.31,70.82,24,23.12,43.5,12.39,60-41.9,27.26-41.9,27.26l-102.5,40.7S1726.68,917.84,1818.1,893.08Z"/></clipPath><clipPath id="clip-path-5"><path class="cls-3" d="M1925.92,938.91c-14.45,2.41-13.61-14.81-20.71-8.42s-13.61,16.37-26,4.33c-13.73,15.66-27.1,2.29-27.1,2.29s-.36,6.74-11.2,4.09c2,12.29-18.54,49.14-18.54,49.14l-.07.51c-6.32-4.12-13.68-4.92-19.27-1.36-8.35,5.33-9.57,18.36-2.72,29.1,4.26,6.67,10.62,10.89,16.83,11.85l-.31,2.41s1.44,13.12-2,45.64c46,48.77,82.49,40.46,82.37,21.91s-7-28.54-7-28.54,13.12,3,40.82-13.49,15.65-119.94,15.65-119.94S1940.37,936.51,1925.92,938.91Z"/></clipPath><clipPath id="clip-path-6"><path class="cls-1" d="M1779.5,1089.24s14.32,27.74,34,91.28,26.21,169.14,29.66,221-3.7,187-3.7,187-62.65-14.32-97.55-15.21-42.06-9-42.06-9,32.22-102,30.43-133.35-10.74-108.29-10.74-108.29,6.26,74.28-51,96.66-70.7-26-66.23-61.75,32.22-161.09,55.49-187.94S1779.5,1089.24,1779.5,1089.24Z"/></clipPath><clipPath id="clip-path-7"><path class="cls-1" d="M1858.16,1133.44l12.51,22.67v244.27l31.17,72.49,12.53-69.8-25.63-247,9.1-26S1872.27,1118.11,1858.16,1133.44Z"/></clipPath><clipPath id="clip-path-8"><path class="cls-1" d="M1924.13,1100.74c2.22,1,13.77,138,12.88,177.33s0,296.22,0,296.22l64.39-7.16-16.11-204.94s2.69,25.06,50.12,37.59a61.09,61.09,0,0,0,38.59-2c23.3-9.09,34.76-35.42,26.05-58.86-22.14-59.54-72.69-192.33-87.91-205.26C1992.49,1117,1924.13,1100.74,1924.13,1100.74Z"/></clipPath><clipPath id="clip-path-9"><path class="cls-1" d="M1850.74,2275.43s64.22,114.68,68.49,148.87c82.68-60.82,84.12-70.92,146.07-71.09s121.43,16.4,161.23-18.69,158.67-86.16,158.67-86.16-48.17-25-73-66.91-42.89-64.58-42.89-64.58-107.11,65.67-175.27,70.55S1850.74,2275.43,1850.74,2275.43Z"/></clipPath><clipPath id="clip-path-10"><path class="cls-1" d="M3355.55,2488.77s1.54,41.42,0,50.33,9.15,20,23.41,20,120,10,128.27-5.57-1.18-56.79-40.38-60.13-34.15-17.13-34.15-17.13S3376.09,2461.82,3355.55,2488.77Z"/></clipPath><clipPath id="clip-path-11"><path class="cls-1" d="M3122.83,2465.6s-28.62,34.52-72.51,34.52-51.52-8.91-55.33,18.93,3.81,44.54,46.75,44.54,57.24-11.13,86.82-6.68,43.89-2.23,47.7-17.81,0-73.5,0-73.5Z"/></clipPath><clipPath id="clip-path-12"><path class="cls-1" d="M3171.72,1828.67s-27.94,184.1-35.07,245-13.46,106.89-13.46,154.4-25.75,253.88-25.75,253.88,17.83,19.31,92.27,7.43c17.07-120.26,33.25-170.74,34.84-200.43s-1.19-82.78-1.19-82.78,32.67-191.89,64.44-194.86c0,0,20.68,133.62,27,176.68s3.16,1.48,0,43.05,33.6,262.2,33.6,262.2,61.42-18.71,82-11.29,0-41.57,0-106.89-7.91-198.95-4.75-253.88-23.75-282.09-25.34-292.49S3171.72,1828.67,3171.72,1828.67Z"/></clipPath><clipPath id="clip-path-13"><path class="cls-1" d="M3248.9,1464.55s-66.86,5.55-95.27,50.76-56.9,133.68-56.9,133.68l39.88,31.17,17,166.64s101.19,41.3,246.47,0v-34.19l38.46-91.15h10s38.29-142.26-38.46-215.07C3354.52,1453.69,3248.9,1464.55,3248.9,1464.55Z"/></clipPath><clipPath id="clip-path-14"><path class="cls-2" d="M3298.19,1280.38s3.72-29.17-41.59-32.27-27.93,18.62-27.93,18.62-32.9-9.93-43.46,4.34-.62,19.87-.62,19.87-52.14,5.58-21.1,42.83,152.08,59.59,152.08,59.59,49.66-37.87,13-46.56C3359,1332.53,3351,1289.07,3298.19,1280.38Z"/></clipPath><clipPath id="clip-path-15"><path class="cls-3" d="M3179,1420.46c1.51,8.12,3.86,14.78,7.39,18.94,18.51,21.84,42.08,14.66,42.08,14.66s-3.5,17.31-8.17,25.68,8.87,36.34,29.67,35.55,59.53-47.63,59.53-47.63-12.57-44.19-9.11-52.78a4.89,4.89,0,0,0,.22-.76,25.14,25.14,0,0,0,15.72-5c10.57-7.71,14.28-21.42,8.27-30.62s-19.45-10.42-30-2.72l-.11.09c-2.26-12.56-3.59-25.35-.69-34-15.88-5.55-18.64-21.2-18.64-21.2s-11.85-.2-27.43-17.55c-18.74,20.27-53.19,23.83-66.13,22.77,0,0-9,60-2.58,94.53Z"/></clipPath><clipPath id="clip-path-16"><path class="cls-1" d="M3362.36,1699l-4.49,31.46-92.61,27.82s-25.26-6.79-38.77,1.45-11.5,12.73-13.56,18.61,2.59,12.55,2.59,12.55-12.52,26.58-6.1,31.25,13.62-.08,18.77,3.77,7,12.74,18.18,8.8,21.06,1.65,24.07-2.24,15.09-16.75,15.09-16.75,102.4-8.56,129.26-18.46,32.54-90,32.54-90S3408.73,1675.23,3362.36,1699Z"/></clipPath><clipPath id="clip-path-17"><path class="cls-1" d="M2996.45,1764.26s-6.3,15.75,12.3,33.6c10.08,9.67,20.1,10.33,27.17,8.91a22.19,22.19,0,0,0,15-11.1c2.39-4.42,2.87-8.8-6.9-6.4l-17.72,4.35s25.21-9.5,25.58-16.15c.3-5.51-20.18.14-27.21,2.24a.42.42,0,0,1-.36-.74c5.31-4,19.69-15.13,22.56-21.4,3.15-6.89-23.59,3.35-29.45,5.66a.38.38,0,0,1-.46-.56c1.72-2.67,6.31-10.26,8.09-17.73C3027.26,1735.67,3002.06,1753.14,2996.45,1764.26Z"/></clipPath><clipPath id="clip-path-18"><path class="cls-3" d="M2036.16,1345.07s10-21.09,45.47-19c19.2,1.16,29.22,10.67,34.38,19.15a30.5,30.5,0,0,1,2.8,25.54c-2.23,6.54-6.21,11.11-12.91-1l-12.16-22s14,34.37,7.57,40.94c-5.29,5.46-18.71-20.52-23.16-29.59a.57.57,0,0,0-1.08.33c.94,9.08,3.1,34-.57,42.8-4,9.62-18.65-27-21.79-35.07a.52.52,0,0,0-1,.06c-1.1,4.24-4.48,16-10.37,24.75C2036,1402.92,2030.17,1361.12,2036.16,1345.07Z"/></clipPath><clipPath id="clip-path-19"><path class="cls-1" d="M1788,1982.22s-97.78,87.83-112.85,118.82c-58.64-84.23-56.74-94.26-115.33-114.41s-120.24-23.64-146.59-69.69-122.4-132.73-122.4-132.73,53.66-8.13,90.72-39.78,61.43-47.3,61.43-47.3,80.2,96.72,143.14,123.32S1788,1982.22,1788,1982.22Z"/></clipPath><clipPath id="clip-path-20"><path class="cls-1" d="M1547,1997.28s-27.67,128.49-47.08,157c102.24,9.06,110,2.43,156.59,43.27s80.23,92.61,133.29,92.61,176,40.3,176,40.3-19.6-50.61-10.54-98.49,10.54-76.81,10.54-76.81-123.78-21.57-178.13-63S1547,1997.28,1547,1997.28Z"/></clipPath></defs><title>01</title><rect id="_01-2" data-name="01" class="cls-4" width="4680" height="3120"/><ellipse class="cls-5" cx="2398.4" cy="2521.49" rx="1236.9" ry="238.51"/><g class="cls-6"><g class="cls-7"><ellipse class="cls-8" cx="1775.65" cy="2450.75" rx="334.05" ry="117.81"/></g><g class="cls-7"><ellipse class="cls-8" cx="2784.63" cy="2397.21" rx="428.09" ry="95.78"/></g><g class="cls-7"><ellipse class="cls-8" cx="3216.25" cy="2521.62" rx="280.49" ry="110.87"/></g></g><path class="cls-5" d="M2599.56,770.18c-172.33,25.58-343.35,65.66-499.88-10.25-136.41-66.16-327.23-110.57-562.49-43.61C1034.81,859.31,479,2051.44,2291.91,2227.81,3849.57,2379.35,3678.34,610.06,2599.56,770.18Z"/><path class="cls-9" d="M2673.52,479.21q-7.21-12-14-24.69c-270.26-46-444.69-57.88-444.69-57.88l-316.4,74.25a.17.17,0,0,0-.12,0l-31.64,7.41-78.37,18.39L1478.53,627.78s-173.87,165.73-293.78,300.6c-63.67,71.61-112.14,134.51-111.3,159.3,0,0,243,100.08,297.86,247.81,319.3-193,526.61-82.49,526.61-82.49s15.25-16.39,44.11-40.65c92.33-77.71,323.85-236.1,639.77-196.16,0-221.61,276.42-338.37,276.42-338.37l-.1-.07C2854.62,675.39,2747.91,603.21,2673.52,479.21Z"/><path class="cls-10" d="M1866.68,478.33l-78.38,18.4L1478.53,627.79s-407.47,388.41-405.09,459.89c0,0,243.06,100.08,297.86,247.82,4.77-100.08,109.61-293.09,152.51-400.32s104.84-162,185.86-260.52c54.64-66.43,122.29-133.94,160.53-170.85.55-.55,1.1-1.05,1.62-1.57,17.54-16.88,28.48-27,28.48-27L1881.16,477Z"/><path class="cls-11" d="M2087.23,598.72c-54.8-35.75-193.51-100.49-208.81-85.86-61.17,125.46,26.81,526,71.82,708.55,92.34-77.71,323.86-236.1,639.78-196.16C2399.39,779.81,2142,634.46,2087.23,598.72Z"/><path class="cls-10" d="M2659.53,454.53c-270.26-46-444.69-57.88-444.69-57.88l-316.4,74.25a.22.22,0,0,0-.12,0c-5.88,2.08-11.6,4.13-17.16,6.1-117.09,41.9-160.79,62.82-9.34,25.22,3-.74,6.2-1.53,9.42-2.34,438.87-110.06,969.18,173.74,976.88,177.86C2854.38,675.26,2733.69,593.59,2659.53,454.53Z"/><path class="cls-10" d="M2372.11,479.26c-23.83,6.35-416.21,184.27-416.21,184.27l189-197s1.59-15.89-17.47-11.12c-17.48,14.29-190.63,200.16-190.63,200.16l-55.6-155.68-27,9.53,49.25,155.68-117.56-58.78s-14.3,1.59-9.53,17.48c47.66,25.41,120.73,65.13,120.73,65.13l-187.45-14.3s-28.59-6.35-19.06,20.65c35,6.36,181.09,12.71,181.09,12.71L1569.87,817.62s-17.47,20.66,0,27c28.6-9.53,344.73-123.91,344.73-123.91l371.72,1329.91s33.36,7.29,52.43-20.32c-28.6-103.86-376.5-1323.89-376.5-1323.89l281.18-9.53s17.48-17.47-6.35-27c-33.36,0-268.47,11.12-268.47,11.12L2388,493.55S2395.94,472.9,2372.11,479.26Z"/><g class="cls-12"><polygon class="cls-13" points="2026.71 747.02 2253.09 743.45 2274.53 683.1 1936.05 692.22 2327.74 2082.44 2409.57 2026.62 2289.17 1602.31 2026.71 747.02"/><polygon class="cls-13" points="1653.8 696.98 1936.05 692.22 1758.64 599.28 1653.8 696.98"/><polygon class="cls-13" points="1936.05 670.77 2148.24 446.78 1860.52 484.47 1936.05 670.77"/></g><path class="cls-14" d="M2148.12,375.2c-49,10.43-92.93-38.12-207.31-1-43.3,14.06-74.33,70.08-123.91,62.93-9.44-1.36-457.51,47.66-743.46,650.52,0,0,560.31-825.79,1586.08-633.14C2348.28,368.06,2226.75,358.47,2148.12,375.2Z"/><path class="cls-15" d="M2145.23,2254.32c-83.52-8.17-120.52-55.6-120.52-55.6l-74.93,25.56s-6,52-8.4,67.08,67.89,25.69,142.52,28.43S2228.75,2262.49,2145.23,2254.32Z"/><path class="cls-15" d="M1775.32,2232.33l-74.93-25.56s-37,47.43-120.53,55.61-13.3,68.21,61.33,65.47,144.94-13.34,142.52-28.43S1775.32,2232.33,1775.32,2232.33Z"/><path class="cls-16" d="M1729,1531.08s-14.65,248.19-32.86,333.26-18.21,365.94-18.21,365.94l97.76,3.74s44.4-361.69,59.83-432,30-110.4,30-110.4L1939,2224.28h109.83l-72.49-693.2S1806.4,1460.13,1729,1531.08Z"/><g class="cls-17"><path class="cls-18" d="M1774.36,2247.36c-9.1-3.22-19.11-2.94-28.36-5.73-32.85-9.9-42.43-51.4-43.48-85.69-1.77-57.31,4.51-114.53,10.77-171.52l2-18.54c1.68-15.27,3.36-30.53,5.17-45.79-18.88-9.92-29.73-31.08-32.68-52.21s.82-42.54,4.58-63.53L1668,1880.4a748.65,748.65,0,0,1-35.36,253.75c-7.76,24.19-16.85,48.39-18.15,73.76s6.67,52.8,27,68c19.81,14.72,46.48,15,71.16,14.65,19.87-.27,40.08-.6,59-6.64,7.85-2.5,16.32-7,18.13-15.08C1792,2259.38,1783.47,2250.58,1774.36,2247.36Z"/><path class="cls-18" d="M2086.11,2216.05c-38.88-25.36-86.45-40.7-114.12-78-23.28-31.38-27.85-72.41-31.63-111.3-1.71-17.55-2.95-36.92,7.54-51.09,4.91-6.64,12.61-13.39,10.45-21.35-1.07-3.94-4.37-6.79-7.33-9.6-25.55-24.23-34.63-60.67-42-95.1q-21-98.18-36.17-197.5a460.79,460.79,0,0,0-15.76,84.93l28.23,225.82,27.66,232c2.92,24.54,6.47,50.59,22.29,69.58,20.4,24.5,56,30.5,87.69,26.85,26-3,52.8-12.33,69-32.88,7-8.84,11.61-21.36,6.16-31.19C2095.42,2222.42,2090.74,2219.07,2086.11,2216.05Z"/></g><path class="cls-19" d="M1887.78,1083.43c-19.68-10.3-68.91-21-68.91-21s-24.16,22.37-39.37,26.85-22.38,25.71-22.38,25.71L1814.4,1372l4.47,145.87s80.55,13.42,111,0,26-403,26-403S1907.47,1093.73,1887.78,1083.43Z"/><g class="cls-20"><path class="cls-21" d="M1964,1125.52a271.29,271.29,0,0,1-12.82,95.72c-8.66,26.82-21.91,52.76-42.37,72.14-16.55,15.67-37.09,26.4-57.74,36q-22.86,10.68-46.38,19.91c-15.34,6-32.29,12.8-39.55,27.6-5.73,11.68-3.87,25.5-1.88,38.36q5.87,38,11.74,75.91c2.12,13.69,4.89,28.59,15.4,37.62,7.54,6.48,17.76,8.7,27.54,10.45a595,595,0,0,0,88.33,9c11,.31,22.12.3,32.93-1.87,32.63-6.53,59-32.48,73.07-62.62s17.62-64.14,18.18-97.42c1.47-86.72-15.58-172.66-35.82-257Z"/></g><path class="cls-22" d="M1943.37,890.6c-28.24-20.64-38.8-20.64-70.82-24s-54.45,26.43-54.45,26.43c-91.42,24.76-6.74,125.49-6.74,125.49l102.5-40.7s31.17-10.74,41.9-27.26S1971.62,911.24,1943.37,890.6Z"/><path class="cls-2" d="M1818.1,893.08s22.44-29.73,54.45-26.43,42.58,3.31,70.82,24,23.12,43.5,12.39,60-41.9,27.26-41.9,27.26l-102.5,40.7S1726.68,917.84,1818.1,893.08Z"/><g class="cls-23"><path class="cls-24" d="M1991.9,935.23c-7.93-6.41-19.34-5.6-28.94-9.05-13.76-4.94-22.65-18.07-34.51-26.61-20.34-14.64-50.37-14-70,1.54a43.36,43.36,0,0,1,8.3-13.49,45.4,45.4,0,0,0-16.89,7.76c-3.64,2.69-7.14,7.42-4.92,11.37l-6.54.21a76.57,76.57,0,0,0-35.31,15.79,10.35,10.35,0,0,0,11.07.14c-15.12,10.45-24.72,28-27.15,46.18s2,37,10.63,53.21c3.63,6.79,8.34,13.48,15.29,16.78,7.2,3.42,15.58,2.68,23.5,1.82,27.52-3,55.2-6.46,81.51-15.06s51.43-22.67,69.25-43.85c5.64-6.69,10.61-14.29,12.23-22.89S1998.71,940.73,1991.9,935.23Z"/></g><path class="cls-25" d="M1925.92,938.91c-14.45,2.41-13.61-14.81-20.71-8.42s-13.61,16.37-26,4.33c-13.73,15.66-27.1,2.29-27.1,2.29s-.36,6.74-11.2,4.09c2,12.29-18.54,49.14-18.54,49.14l-.07.51c-6.32-4.12-13.68-4.92-19.27-1.36-8.35,5.33-9.57,18.36-2.72,29.1,4.26,6.67,10.62,10.89,16.83,11.85l-.31,2.41s1.44,13.12-2,45.64c46,48.77,82.49,40.46,82.37,21.91s-7-28.54-7-28.54,13.12,3,40.82-13.49,15.65-119.94,15.65-119.94S1940.37,936.51,1925.92,938.91Z"/><path class="cls-3" d="M1925.92,938.91c-14.45,2.41-13.61-14.81-20.71-8.42s-13.61,16.37-26,4.33c-13.73,15.66-27.1,2.29-27.1,2.29s-.36,6.74-11.2,4.09c2,12.29-18.54,49.14-18.54,49.14l-.07.51c-6.32-4.12-13.68-4.92-19.27-1.36-8.35,5.33-9.57,18.36-2.72,29.1,4.26,6.67,10.62,10.89,16.83,11.85l-.31,2.41s1.44,13.12-2,45.64c46,48.77,82.49,40.46,82.37,21.91s-7-28.54-7-28.54,13.12,3,40.82-13.49,15.65-119.94,15.65-119.94S1940.37,936.51,1925.92,938.91Z"/><g class="cls-26"><path class="cls-27" d="M1918.39,906.55c-39.49-3.19-80.34,5.31-113.66,26.75a2.53,2.53,0,0,0-1.25,1.37c-.14.62.52,1.37,1.07,1.06l7.68,20.6c4.25,11.13,9.61,22.1,10.13,34,12.92-8.78,19.89-21.08,24.75-35.92a8,8,0,0,1,2-3.74c3.62-3.09,10.44,2,13.56-1.58.79-.91,1.1-2.24,2.08-2.94,1.17-.82,2.75-.45,4.14-.13a34.29,34.29,0,0,0,17.81-.74c3.79-1.2,7.39-3.06,11.3-3.74,5.52-.94,11.12.54,16.65,1.39a73.25,73.25,0,0,0,36.2-3.63,13,13,0,0,0,5.4-3.17c3.3-3.7,1.83-9.67-1-13.74C1947.34,911,1932.18,907.66,1918.39,906.55Z"/><path class="cls-27" d="M1904.73,1069.67c-22,5.29-45-1.76-65.81-10.55.57,11.17,6.77,21.57,15.29,28.8s19.21,11.52,30.11,14c7.74,1.78,16.78,2.4,22.76-2.83,6.68-5.86,6.42-16.67,2.54-24.66Z"/><path class="cls-27" d="M1824,999.23c-5.32-3.07-11.67-2-14.18,2.31s-.23,10.36,5.09,13.43,11.67,2,14.17-2.31S1829.27,1002.3,1824,999.23Z"/></g><path class="cls-28" d="M1870.55,948.23a13.29,13.29,0,0,0-5.24-1,14.19,14.19,0,0,0-2.68.3,12.69,12.69,0,0,0-2.55.91,9.55,9.55,0,0,0-4,3.5c1.86-.1,3.37-.4,4.91-.48.75-.1,1.5-.09,2.22-.17s1.47-.09,2.2-.07c1.47,0,2.95,0,4.5,0s3.14.09,5,.06A10.1,10.1,0,0,0,1870.55,948.23Z"/><path class="cls-28" d="M1928.36,951a13.61,13.61,0,0,0-7.92-.65,12.19,12.19,0,0,0-2.56.91,9.63,9.63,0,0,0-4,3.49c1.86-.09,3.37-.39,4.91-.47.74-.11,1.5-.1,2.22-.18s1.46-.08,2.2-.06c1.46,0,3,0,4.49,0s3.15.09,5,.07A10.1,10.1,0,0,0,1928.36,951Z"/><path class="cls-28" d="M1907.7,995.2a17.94,17.94,0,0,1-3.61-6.3,29.07,29.07,0,0,1-1.36-7.56,53,53,0,0,1,.23-8.12,20.08,20.08,0,0,0-1.71,3.85,24.24,24.24,0,0,0-1,4.14,22.05,22.05,0,0,0,.29,8.7,17.79,17.79,0,0,0,4.2,8,18.69,18.69,0,0,0,5.88,4.26l.69-1.66.86,2.34c-.52-.2-1-.43-1.55-.68l-.65,1.56c-.46,1.07-.91,2.14-1.39,3.2s-1,2.12-1.54,3.13c-.28.51-.55,1-.87,1.52a7.21,7.21,0,0,1-1.08,1.39,9.11,9.11,0,0,0,3-2.12,27.26,27.26,0,0,0,2.41-2.75c.73-1,1.45-2,2.1-3s1.26-2.05,1.85-3.1l.81-1.45-1.67-.89A21.12,21.12,0,0,1,1907.7,995.2Z"/><path class="cls-28" d="M1911.32,1000.48l-.69,1.66c.51.25,1,.48,1.55.68Z"/><path class="cls-22" d="M1924.54,966.33c-3.25-.09-6,3.39-6.12,7.79s2.39,8,5.64,8.14,6-3.39,6.13-7.78S1927.79,966.43,1924.54,966.33Z"/><path class="cls-22" d="M1871.13,969.15c-3.25-.1-6,3.38-6.13,7.78s2.4,8,5.65,8.14,6-3.39,6.12-7.78S1874.38,969.24,1871.13,969.15Z"/><path class="cls-19" d="M1925.62,969.84c-1.34,0-2.47,1.39-2.52,3.19s1,3.3,2.32,3.34,2.46-1.39,2.52-3.19S1927,969.88,1925.62,969.84Z"/><path class="cls-19" d="M1871.87,972.35c-1.34,0-2.47,1.39-2.52,3.2s1,3.3,2.32,3.34,2.46-1.39,2.52-3.2S1873.2,972.39,1871.87,972.35Z"/><path class="cls-28" d="M1884.68,1026.76l-2.81,2.13a38.6,38.6,0,0,0,3.74,1.46l-.3-.88Z"/><path class="cls-28" d="M1892.63,1031.77a27.08,27.08,0,0,0,5.55-.14,17.55,17.55,0,0,0,5.3-1.47,42.39,42.39,0,0,1-10.37-1.37,48.19,48.19,0,0,1-4.87-1.52c-.8-.26-1.57-.63-2.36-.93s-1.54-.71-2.31-1l-3.62-1.55.81,3.68c.23,1.06.44,2.13.75,3.18l.57,1.55a9,9,0,0,0,.68,1.52,15.47,15.47,0,0,0,4.17,5.24,13.78,13.78,0,0,0,6,2.81,13.43,13.43,0,0,0,6.28-.16,20.39,20.39,0,0,1-5.63-1.79,14.51,14.51,0,0,1-4.41-3.26,9.39,9.39,0,0,1-.86-1l-.42-.52-.34-.57c-.23-.39-.48-.75-.69-1.14s-.37-.83-.57-1.23a6.66,6.66,0,0,1-.48-1.27l-.15-.41a38.6,38.6,0,0,1-3.74-1.46l2.81-2.13.63,2.71.3.88c.5.16,1,.31,1.52.45A30.18,30.18,0,0,0,1892.63,1031.77Z"/><circle class="cls-29" cx="1853.96" cy="1009.59" r="17.52" transform="translate(-149.76 1674.07) rotate(-46.92)"/><path class="cls-30" d="M1957.41,977.85a5.66,5.66,0,0,0-4.06-1.52l-35.69,1.19a5.67,5.67,0,0,0-5.47,5.86l.7,21a5.67,5.67,0,0,0,5.66,5.48h.19l35.69-1.2a5.65,5.65,0,0,0,5.47-5.85l-.7-21A5.67,5.67,0,0,0,1957.41,977.85Zm-2,26.27a1.67,1.67,0,0,1-1.16.52l-35.69,1.2a1.71,1.71,0,0,1-1.2-.45,1.65,1.65,0,0,1-.52-1.16l-.71-21a1.68,1.68,0,0,1,1.62-1.72l35.68-1.19h.06a1.69,1.69,0,0,1,1.14.45,1.63,1.63,0,0,1,.52,1.16l.71,21A1.71,1.71,0,0,1,1955.46,1004.12Z"/><path class="cls-30" d="M1895.61,979.92a5.67,5.67,0,0,0-4.06-1.52l-35.69,1.19a5.67,5.67,0,0,0-5.47,5.86l.7,21a5.67,5.67,0,0,0,5.66,5.48h.19l35.69-1.2a5.66,5.66,0,0,0,5.47-5.85l-.7-21A5.67,5.67,0,0,0,1895.61,979.92Zm-3.12,26.79-35.68,1.2a1.71,1.71,0,0,1-1.2-.45,1.67,1.67,0,0,1-.52-1.16l-.71-21a1.67,1.67,0,0,1,1.61-1.72l35.69-1.19h.06a1.67,1.67,0,0,1,1.66,1.61l.7,21A1.66,1.66,0,0,1,1892.49,1006.71Z"/><path class="cls-30" d="M1894.26,995.08l3.11,2.52c5.93-7.29,15.82-2.24,16.24-2l1.86-3.54C1910.94,989.64,1900.67,987.2,1894.26,995.08Z"/><path class="cls-30" d="M1851.89,994,1823,986.36a2,2,0,0,0-2.44,1.42,2,2,0,0,0,1.42,2.45l28.88,7.62a1.79,1.79,0,0,0,.51.07,2,2,0,0,0,.51-3.94Z"/><path class="cls-31" d="M1813.5,1180.52c-19.68-63.54-34-91.28-34-91.28s-98.45,53.69-121.71,80.54-51,152.14-55.49,187.94,9,84.12,66.23,61.75,51-96.66,51-96.66,9,77,10.74,108.29-30.43,133.35-30.43,133.35,7.16,8,42.06,9,97.55,15.21,97.55,15.21,7.16-135.14,3.7-187S1833.19,1244.06,1813.5,1180.52Z"/><g class="cls-32"><path class="cls-33" d="M1784.42,1083.28c-3.5-4.32-7.41-8.74-12.72-10.39-4.21-1.31-8.76-.69-13.12,0q-20.36,3.16-40.46,7.73l5,20.14,32,60.41a66.34,66.34,0,0,1,21.58-6.74c-8.07,2.49-12.94,11.17-13.59,19.59s2,16.69,4.71,24.71c16,48,32.41,97,62.62,137.66,13.09,17.61,28.75,33.63,38.17,53.45-17.37-70.71-12.44-146-34.82-215.3A284.71,284.71,0,0,0,1784.42,1083.28Z"/><path class="cls-33" d="M1863.73,1534.2c-1.48,6.54-3.11,13.36-7.5,18.41-5.87,6.75-15.58,8.91-24.5,8.3s-17.49-3.56-26.24-5.39c-15.81-3.3-33.23-2.65-46.87,6-10.93,6.93-18.31,18.19-28.1,26.65a68.33,68.33,0,0,1-36.83,16.08c-2.51.28-5.46.24-7-1.73-1-1.27-1.16-3-1.25-4.64A206,206,0,0,1,1728,1462.44c8.48-10.92,18.43-21.74,20.74-35.37,2.23-13.1-3.09-26.2-4.41-39.42-2.24-22.46,7-45.84,0-67.27l-8.79,26.21q-3.32-25.42-6.64-50.85c-1-7.78-3.55-17.3-11.23-18.89a371.64,371.64,0,0,0,1.81,62.31l-2.91,53c3,11.52-11.59,18.75-19.51,27.63-4.33,4.86-6.87,11-9.34,17l-49.77,121.39c-5.39,13.12-10.87,26.8-10,41,.91,15.3,9.38,29.53,21,39.53s26.12,16.14,41,20c24.63,6.34,50.41,6.65,75.83,5.52,30.24-1.34,61.25-4.93,88-19.09s48.61-41,49.19-71.24c.65-33.77-24.17-63.56-26-97.29Q1870.26,1505.38,1863.73,1534.2Z"/></g><g class="cls-34"><path class="cls-35" d="M1851,1127.05a32.8,32.8,0,0,0-11.88,7.17l-1.26,1.22-.63.61-.57.67c-.75.89-1.52,1.78-2.23,2.71l-2,2.89-.88,1.31a9.26,9.26,0,0,1-.88,1c-.15.16-.3.25-.44.38l-.42.26a1.56,1.56,0,0,1-.69.16,3.19,3.19,0,0,1-1.74-.93,19.44,19.44,0,0,1-3.5-4.91,86.6,86.6,0,0,1-5.25-12c-1.58-4.14-2.92-8.39-4.32-12.63-2.71-8.51-5.24-17.11-7.88-25.72a207.18,207.18,0,0,0,4.87,26.57c2.24,8.75,4.74,17.45,9.08,25.74a22.66,22.66,0,0,0,4.41,5.9,9,9,0,0,0,1.8,1.23,5.82,5.82,0,0,0,2.43.64,5.58,5.58,0,0,0,2.55-.61,7.14,7.14,0,0,0,1.79-1.4,12.72,12.72,0,0,0,1.25-1.58l.93-1.52,1.7-2.75a47.47,47.47,0,0,1,4-5,33.92,33.92,0,0,1,10.41-7.57,31.75,31.75,0,0,1,12.83-2.93A27.73,27.73,0,0,0,1851,1127.05Z"/></g><g class="cls-34"><path class="cls-35" d="M1917.16,1131.58a4.83,4.83,0,0,1-.11.57c0,.13-.11.25,0,.08a1.11,1.11,0,0,1,.19-.2,1.43,1.43,0,0,1,.43-.25,1.46,1.46,0,0,1,.93,0c.29.13.16.09.09,0a4.21,4.21,0,0,1-.37-.42l-.2-.27-.3-.37c-.18-.22-.37-.43-.56-.65v.07A12.87,12.87,0,0,1,1917.16,1131.58Z"/><path class="cls-35" d="M1920.06,1120.06a79.83,79.83,0,0,0-3.57-12.92c0,4.49.21,8.91.44,13.31.12,2.19.26,4.37.32,6.52,0,1,0,2.09,0,3.09.19.22.38.43.56.65l.3.37.2.27a4.21,4.21,0,0,0,.37.42c.07.08.2.12-.09,0a1.46,1.46,0,0,0-.93,0,1.43,1.43,0,0,0-.43.25,1.11,1.11,0,0,0-.19.2c-.11.17,0,0,0-.08a4.83,4.83,0,0,0,.11-.57,12.87,12.87,0,0,0,.1-1.45v-.07c-.22-.27-.44-.54-.67-.79-.47-.42-.94-.84-1.42-1.25a18.55,18.55,0,0,0-6.52-3.14,26.69,26.69,0,0,0-13.61.15,44.82,44.82,0,0,1,12.61,2.83,18.65,18.65,0,0,1,5.11,3.08c.33.34.68.67,1,1l.87,1.12.22.28.29.4a8.36,8.36,0,0,0,.71.84,3.9,3.9,0,0,0,1.43,1,2.55,2.55,0,0,0,1.73,0,2.31,2.31,0,0,0,.79-.45,2.73,2.73,0,0,0,.47-.51,4.14,4.14,0,0,0,.63-1.44,9.56,9.56,0,0,0,.19-1.06,17.35,17.35,0,0,0,.1-1.86c0-1.2-.07-2.34-.17-3.47C1920.82,1124.47,1920.48,1122.26,1920.06,1120.06Z"/></g><path class="cls-36" d="M1897.84,1130.11s-25.57-12-39.68,3.33l12.51,22.67v244.27l31.17,72.49,12.53-69.8-25.63-247Z"/><g class="cls-37"><path class="cls-38" d="M1937.85,1410.18c-2.37-1.7-5.63-1-8.44-.18-7.09,2-14.29,4.12-21.66,4.06s-15.09-2.64-19.65-8.44c-3.39-4.31-4.68-9.88-5.71-15.28-6.14-32.21-6.41-65.22-6.65-98q-.46-62.16-.92-124.33c0-3.67.47-8.17,3.85-9.57,2.66-1.09,5.59.42,8.44.78s6.59-2,5.28-4.58c-8.06-1.93-17.15-4.65-20.71-12.14-3.46-7.28,1-17.16,8.72-19.39l-12.68-20.91c-6.1,2.1-12.27,4.22-17.61,7.84-9.47,6.4-15.46,17-18.52,28s-3.49,22.55-3.9,34c-3.28,93-5.63,188.44,25,276.3,6.75,19.36,15.81,39.14,32.55,51,4.25,3,9.14,5.49,14.36,5.59,11.22.21,19.5-10.13,25.21-19.78,12.41-21,21.91-45.8,16-69.46C1940.29,1413.59,1939.57,1411.42,1937.85,1410.18Z"/></g><path class="cls-31" d="M2012.18,1133.69c-19.69-16.71-88-33-88-33,2.22,1,13.77,138,12.88,177.33s0,296.22,0,296.22l64.39-7.16-16.11-204.94s2.69,25.06,50.12,37.59a61.09,61.09,0,0,0,38.59-2c23.3-9.09,34.76-35.42,26.05-58.86C2078,1279.41,2027.4,1146.62,2012.18,1133.69Z"/><g class="cls-39"><path class="cls-33" d="M1919.22,1086.76c-3.31.57-6.7,1.33-9.45,3.27-3.52,2.49-5.51,6.6-6.81,10.72-4.45,14.12-2.16,29.36-.11,44a1185.88,1185.88,0,0,1,9.58,230.71c4.33,3.6,10.25-2,12.82-7,17.82-34.67,24.46-73.82,30.87-112.27q3.74-22.34,7.45-44.68c2.73-16.33,4-36.35-9.38-46l13.32,7.78q3.12-33.72,3.29-67.62l-2.91-17.33A120.58,120.58,0,0,0,1919.22,1086.76Z"/><path class="cls-33" d="M2083,1365.6c-7.59,3.9-16.45,4.54-25,4.09-19.78-1-40-8.06-53.18-22.8-14.62-16.3-18.72-39.21-22.23-60.83q1.62,46.82,3.23,93.63l1.25-.75,33.56,53.34c5.88,9.36,12.57,19.36,23.07,22.82,10.27,3.39,21.59-.52,30.81-6.18,21.1-13,35.82-35.2,41.37-59.33s2.31-49.87-7.24-72.71C2105.23,1335.62,2100,1356.89,2083,1365.6Z"/></g><path class="cls-3" d="M1663.16,1342.5c2.68-14.32-15.22-39.37-15.22-39.37s-21.32-38.17-23.39-48.49-16,.78-16,15.37c0,17,10.74,29.25,10.74,29.25s-22.69,3.3-26,8.34c0,0-11.63,15.21-7.16,26s9,21.48,7.16,34,9,28.64,26,28.64,41.17-6.27,43.86-21.48S1660.47,1356.82,1663.16,1342.5Z"/><path class="cls-27" d="M1618.09,1374.47l-.06,0,1,2.26c1.4-.55,2.76-1.13,4.11-1.75-1.39.51-2.75,1.09-4.05,1.72Z"/><path class="cls-27" d="M1633.22,1347.72l-1,.22c-.12.3-.24.61-.37.9Z"/><path class="cls-27" d="M1612.78,1331l-.36-.06-.15,0a.24.24,0,0,1,.12,0,.88.88,0,0,1,.47.46.77.77,0,0,1,0,.56.84.84,0,0,1-.46.45.45.45,0,0,1-.11,0l.16,0,.36-.08,1.41-.33c.6-.14,1.2-.31,1.81-.46l-2.54-.43Z"/><path class="cls-27" d="M1623.14,1375a33.24,33.24,0,0,1,3.47-1.1,18.08,18.08,0,0,1,3.88-.6,5.87,5.87,0,0,1,3.49.82,3.42,3.42,0,0,1,1.08,1.32,4.33,4.33,0,0,1,.3.88,5.06,5.06,0,0,1,.23.93,7.23,7.23,0,0,1-.38,3.84,13.5,13.5,0,0,1-5.17,6.15,15.56,15.56,0,0,0,3.39-2.43,11.37,11.37,0,0,0,2.52-3.41,8.17,8.17,0,0,0,.78-4.28,5.85,5.85,0,0,0-.17-1.1,5.12,5.12,0,0,0-.29-1.1,4.89,4.89,0,0,0-1.4-2,7.33,7.33,0,0,0-4.35-1.41c-.31,0-.6,0-.9,0-.94.57-1.89,1.11-2.84,1.63C1625.58,1373.84,1624.36,1374.44,1623.14,1375Z"/><path class="cls-27" d="M1635,1351.38l.39-.9a28.66,28.66,0,0,0,1.83-5.86,14.93,14.93,0,0,0,.29-3.26,7.34,7.34,0,0,0-1-3.69,5.36,5.36,0,0,0-1.58-1.6l-.48-.28-.4-.18a7.61,7.61,0,0,0-.78-.32c-1-.37-1.94-.63-2.9-.89-1.89-.49-3.77-.89-5.65-1.27-2.92-.58-5.83-1.09-8.74-1.57-.61.15-1.21.32-1.81.46l-1.41.33-.36.08-.16,0a.45.45,0,0,0,.11,0,.84.84,0,0,0,.46-.45.77.77,0,0,0,0-.56.88.88,0,0,0-.47-.46.24.24,0,0,0-.12,0l.15,0,.36.06.7.11,2.54.43c1.27-.34,2.53-.7,3.79-1.11a38.76,38.76,0,0,0,5.48-2.21,12.49,12.49,0,0,0,4.92-4,4.93,4.93,0,0,0,.73-3.59,7,7,0,0,0-1.55-3,12.77,12.77,0,0,0-5.05-3.48,26.18,26.18,0,0,0-5.68-1.5,43,43,0,0,0-5.75-.49,63.77,63.77,0,0,0-11.4.78c1.89-.11,3.79-.12,5.68-.07s3.78.15,5.65.35a33.22,33.22,0,0,1,10.74,2.65,13.92,13.92,0,0,1,2.27,1.36,9.5,9.5,0,0,1,1.81,1.77,4.89,4.89,0,0,1,.95,2,2.52,2.52,0,0,1-.5,1.82,10.73,10.73,0,0,1-4,2.84,37.89,37.89,0,0,1-5.15,1.85c-1.77.5-3.58.92-5.41,1.29l-1.37.26-.35.06-.18,0a2.54,2.54,0,0,0-.45.13,2.52,2.52,0,0,0-1.43,1.43,2.57,2.57,0,0,0,1.46,3.37l.46.13.2,0,.35.06.7.13c3.71.69,7.42,1.42,11.09,2.24,1.83.41,3.65.85,5.42,1.34s3.77,1.1,3.85,1.63a3.63,3.63,0,0,1,.4,1.76,12.12,12.12,0,0,1-.24,2.4,24.24,24.24,0,0,1-1.23,4.06l1-.22-1.4,1.12c.13-.29.25-.6.37-.9-5.13,1-10.24,2.15-15.36,3.23l-2,.43-.51.11-.13,0-.11,0-.19.06a2.26,2.26,0,0,0-.39.18,2.24,2.24,0,0,0-1.07,1.44,2.26,2.26,0,0,0,1.7,2.74l.2,0,.13,0h.2l.25,0c1.36.11,2.73.25,4.08.42a65.25,65.25,0,0,1,8,1.44,25.23,25.23,0,0,1,3.71,1.24,8.75,8.75,0,0,1,2.89,1.83,1.71,1.71,0,0,1,.42,2.08,8.15,8.15,0,0,1-2.06,2.74,35.92,35.92,0,0,1-6.51,4.66c-2.35,1.37-4.82,2.66-7.28,3.79h0a41.86,41.86,0,0,1,8.08-2.54,21.94,21.94,0,0,1,3.45-.37,31.34,31.34,0,0,0,4.42-3.18,11.33,11.33,0,0,0,3-3.82,5.39,5.39,0,0,0,.4-3,5.6,5.6,0,0,0-1.35-2.67,12,12,0,0,0-4-2.78,30.31,30.31,0,0,0-4.2-1.52c-1.27-.35-2.54-.65-3.81-.92l-6.45,1.32-2.05.42-.52.1-.12,0h0l.13,0a2.14,2.14,0,0,0,.28-.12,1.68,1.68,0,0,0,.76-1,1.54,1.54,0,0,0-.17-1.16,1.66,1.66,0,0,0-1-.77l-.14,0h.13l.26,0c1.42.12,2.84.28,4.25.47s3.09.47,4.64.79c3.32-.67,6.64-1.35,10-2.07Z"/><path class="cls-27" d="M1615.19,1352.41l-.26,0h-.13l.14,0a1.66,1.66,0,0,1,1,.77,1.54,1.54,0,0,1,.17,1.16,1.68,1.68,0,0,1-.76,1,2.14,2.14,0,0,1-.28.12l-.13,0h0l.12,0,.52-.1,2.05-.42,6.45-1.32c-1.55-.32-3.09-.58-4.64-.79S1616.61,1352.53,1615.19,1352.41Z"/><path class="cls-27" d="M1626.17,1371.93a41.86,41.86,0,0,0-8.08,2.54l1,2.26c1.3-.63,2.66-1.21,4.05-1.72,1.22-.57,2.44-1.17,3.64-1.82,1-.52,1.9-1.06,2.84-1.63A21.94,21.94,0,0,0,1626.17,1371.93Z"/><path class="cls-40" d="M2325.57,2129.4c-30.53-51.45-33-66.23-33-66.23s-93.51,90.91-177.17,96.9-303,93.49-303,93.49,72.24,175.62,77.47,217.59c101.5-74.65,103.26-87.06,179.32-87.27S2218.25,2404,2267.1,2361s166.67-108.82,166.67-108.82S2356.1,2180.84,2325.57,2129.4Z"/><path class="cls-41" d="M2331,2177.36c-26.75-45.09-46.13-69.48-46.13-69.48s-115.23,70.64-188.55,75.89-261.68,94.68-261.68,94.68,69.08,123.36,73.67,160.14c88.94-65.42,90.49-76.29,157.14-76.48s130.62,17.65,173.44-20.09,170.68-92.69,170.68-92.69S2357.76,2222.44,2331,2177.36Z"/><path class="cls-42" d="M2312.16,2181.45c-24.87-41.9-42.89-64.58-42.89-64.58s-107.11,65.67-175.27,70.55-243.26,88-243.26,88,64.22,114.68,68.49,148.87c82.68-60.82,84.12-70.92,146.07-71.09s121.43,16.4,161.23-18.69,158.67-86.16,158.67-86.16S2337,2223.36,2312.16,2181.45Z"/><g class="cls-43"><path class="cls-44" d="M2474.76,2232.66c-20.23-5.46-40.87-9.85-60.22-17.91-57.76-24.07-97.16-77.35-133.6-128.22a93.53,93.53,0,0,1-45.11,64.72c-11.51,6.59-24.43,10.68-35.28,18.31-18.91,13.3-29.18,35.46-44.22,53-30.61,35.71-78.44,50.07-121.63,68.69a532.4,532.4,0,0,0-81.61,44c-5,3.32-10.1,6.79-13.82,11.53-4.87,6.2-7,14-9,21.66q-10.53,40-19,80.54l25.51,7.28c18.5-13.44,39.52-27.56,62.18-24.5,8.5,1.15,16.48,4.7,24.2,8.46,42.37,20.62,83.37,49.43,130.46,51.14,40.42,1.46,78.62-17.55,113.16-38.59,33.54-20.43,65.58-43.23,97.09-66.67,30.52-22.7,60.6-46,89-71.31,16-14.2,31.82-29.58,40.28-49.21,2.81-6.53,4.71-14.21,1.57-20.6C2491.17,2237.72,2482.56,2234.76,2474.76,2232.66Z"/></g><ellipse class="cls-40" cx="2130.04" cy="2264.18" rx="69.77" ry="62.65" transform="translate(-129.89 129.63) rotate(-3.38)"/><path class="cls-36" d="M2151.83,2269.19a26.35,26.35,0,0,0-2.32-3.85,19.14,19.14,0,0,0-6.13-5.41,22.76,22.76,0,0,0-3.66-1.63,34.53,34.53,0,0,0-3.81-1.05q-2-.42-4.38-.72l-2-.27-9.18-18.47a7,7,0,0,1,5.66-.45c1.76.66,3.61,2.26,5.55,4.78l4.53-2.25-5.42-10.89c-1.92.22-3.53.47-4.84.74a31.28,31.28,0,0,0-4,1.14c-1.34.48-2.71,1-4.12,1.71L2114,2225l-3.9,1.94,3.88,7.81a19.77,19.77,0,0,0-4.25,4.11,14.8,14.8,0,0,0-2.53,5.18,16.09,16.09,0,0,0-.36,6.16,22.07,22.07,0,0,0,2.27,7.05,21.57,21.57,0,0,0,1.93,3.19,19.1,19.1,0,0,0,5.41,4.87,21.1,21.1,0,0,0,3.61,1.71,30.52,30.52,0,0,0,4.16,1.19c1.46.32,2.86.56,4.22.74,1.81.29,2.73.42,2.75.41l9.94,20a10.74,10.74,0,0,1-4.75,1.33,6.91,6.91,0,0,1-3.92-1.3,19.33,19.33,0,0,1-4.15-4.28l-4.52,2.25,5.59,11.24a48,48,0,0,0,7.55-1.5,43.33,43.33,0,0,0,6.8-2.52l3.75,7.54,3.89-1.94-3.84-7.72a16.87,16.87,0,0,0,5.21-5.89,15.73,15.73,0,0,0,1.71-8A22.79,22.79,0,0,0,2151.83,2269.19Zm-33-15.14a10.28,10.28,0,0,1-3.61-4.28,9.56,9.56,0,0,1-1.12-5.53,6.26,6.26,0,0,1,2.44-4.25l8,16A15.49,15.49,0,0,1,2118.85,2254.05Zm28.17,28.53a6,6,0,0,1-2.23,4.42l-8.59-17.27a13.25,13.25,0,0,1,5.59,2.12,13.64,13.64,0,0,1,5.23,10.73Z"/><path class="cls-36" d="M2852.73,1835.62c-4-1.35-8.19-2.62-12.69-3.84-2.26-.61-4.58-1.2-7-1.77-5-1.21-10.24-2.34-15.74-3.39q-10.71-2-22.57-3.61-10-1.34-20.7-2.31-8.72-.81-17.86-1.35l-3.41-.2c-10.36-.59-21.08-.91-32-.94h-.07c-.9,0-1.79,0-2.69,0-5.87,0-11.69.09-17.41.24-8.48.23-16.79.61-24.86,1.16q-5.11.33-10.09.76c-3.23.29-6.43.59-9.57.91l-2.15.22c-7.94.85-15.59,1.86-22.89,3l-3,.49c-7.1,1.16-13.86,2.46-20.21,3.89q-2.52.56-5,1.15a203.36,203.36,0,0,0-27.24,8.41c-1.87.74-3.66,1.49-5.36,2.27-14.79,6.71-23.27,14.53-23.27,22.86v68.84l0,24.25,0,48.89v26.34l0,51v24.24l0,51v24.26l0,50.95v24.26l0,50.93v27.69a12.36,12.36,0,0,0-.2,2.11,12.58,12.58,0,0,0,.2,2.12v5.54l2.23-.05c3.48,5.46,10.66,11.93,20.84,18.52q2.55,1.67,5.36,3.32a219.43,219.43,0,0,0,27.24,13.53q2.43,1,5,2c7.26,2.86,15,5.57,23.24,8q8,2.37,16.41,4.4c2.83.68,5.72,1.32,8.63,1.94,6.37,1.34,12.94,2.51,19.66,3.47,8.07,1.16,16.37,2,24.86,2.53,5.56.35,11.21.52,16.94.55h.94c2.3,0,4.59,0,6.86-.07,10.47-.22,20.69-.93,30.58-2.07l.29,0q9.14-1,17.86-2.55,10.69-1.83,20.7-4.25c7.1-1.7,13.92-3.6,20.41-5.66.29-.09.6-.19.9-.3a246.61,246.61,0,0,0,24-9q6.75-3,12.69-6.09c1.38-.72,2.74-1.44,4.05-2.18,20.29-11.35,32.23-23.75,32.23-33.68v-474.7C2889,1853,2875.46,1843.31,2852.73,1835.62Z"/><path class="cls-45" d="M2547,1881.41v51c50.14,45.42,186.51,139.79,342,1.1v-47.24C2836.27,1930.14,2697.82,2017.08,2547,1881.41Z"/><path class="cls-45" d="M2547,1956.65l0,48.89v2.1c49,44.87,185.75,141.44,342,3.2v-47.3C2835.25,2007.82,2697.17,2092.81,2547,1956.65Z"/><path class="cls-45" d="M2547,2031.88l0,51c47.88,44.26,185,143.11,342,5.32V2040.8C2834.29,2085.45,2696.56,2168.54,2547,2031.88Z"/><path class="cls-45" d="M2547.07,2107.1l0,51c46.68,43.61,184.15,144.82,341.92,7.44v-47.44C2833.36,2163.05,2696,2244.26,2547.07,2107.1Z"/><path class="cls-45" d="M2547.09,2182.32l0,50.95c45.41,42.85,183.28,146.55,341.89,9.56v-47.52C2832.45,2240.59,2695.39,2320,2547.09,2182.32Z"/><path class="cls-45" d="M2547.13,2257.53l0,50.93c44.08,42,182.38,148.29,341.86,11.7v-47.6C2831.59,2318.09,2694.83,2395.73,2547.13,2257.53Z"/><g class="cls-46"><path class="cls-19" d="M2607.78,1828.87q-2.52.56-5,1.15a203.36,203.36,0,0,0-27.24,8.41v529.28a219.43,219.43,0,0,0,27.24,13.53q2.43,1,5,2c7.26,2.86,15,5.57,23.24,8V1824.49l-3,.49C2620.89,1826.14,2614.13,1827.44,2607.78,1828.87Z"/></g><g class="cls-47"><path class="cls-48" d="M2656.06,1821.26v576.35c6.37,1.34,12.94,2.51,19.66,3.47V1819.59q-5.11.33-10.09.76C2662.4,1820.64,2659.2,1820.94,2656.06,1821.26Z"/></g><g class="cls-46"><path class="cls-19" d="M2756.19,2402l17.86-2.55V1820.7q-8.72-.81-17.86-1.35Z"/></g><path class="cls-45" d="M2713,1754.92c-78.47.12-143.69,32.65-162.5,76.85a66.44,66.44,0,0,0-5.46,24.5c0,1.21-.05,2.42,0,3.62a66.36,66.36,0,0,0,3.21,18.6c3.69,11.58,10.49,22.5,19.84,32.4,16.7,17.74,41.52,32.28,71.26,41.68a262.15,262.15,0,0,0,75,11.72c1.47,0,2.94,0,4.41,0a278,278,0,0,0,29-1.56c1.43-.15,2.86-.32,4.28-.49l-13.43-105.79,32.85-1.78,12.88,101.45q6.73-1.74,13.13-3.82c1.52-.5,3-1,4.5-1.52a192.39,192.39,0,0,0,26.91-11.69q5.07-2.7,9.77-5.64a131.2,131.2,0,0,0,22.85-17.84c16.49-16.27,25.76-35.6,25.18-56.29C2885.11,1801.52,2807.33,1754.77,2713,1754.92Z"/><g class="cls-49"><path class="cls-19" d="M2785.19,1855.38l12.3,96.95c1.52-.5,3-1,4.5-1.52a192.39,192.39,0,0,0,26.91-11.69L2818,1853.6Z"/></g><path class="cls-48" d="M2738.63,1856.48l13.43,105.79a250.69,250.69,0,0,0,32.3-6.12l-12.88-101.45Z"/><g class="cls-49"><path class="cls-19" d="M2624.25,1833.86l15.07,118.71a262.15,262.15,0,0,0,75,11.72l-17.05-134.4Z"/></g><path class="cls-36" d="M2864.22,1787c-30.84-33.55-90.83-55.35-157.82-53.19-30.22,1-58.19,6.72-82.08,16-28.64,11.08-51.43,27.23-65.2,46.26a77.1,77.1,0,0,0-12.73,27,64.7,64.7,0,0,0-1.6,20.9,68.2,68.2,0,0,0,2.62,13.64c15.32,50.94,90.26,88.23,176.9,85.43,50.36-1.64,94.46-16.48,123.86-38.79,11.81-9,21.24-19.1,27.75-30.08a71.28,71.28,0,0,0,9.69-27.44,65,65,0,0,0,.29-13.82C2884.48,1816.2,2876.76,1800.64,2864.22,1787Z"/><g class="cls-50"><path class="cls-19" d="M2544.79,1844a68.2,68.2,0,0,0,2.62,13.64l300.76,46.64c11.81-9,21.24-19.1,27.75-30.08l-329.53-51.1A64.7,64.7,0,0,0,2544.79,1844Z"/></g><g class="cls-50"><path class="cls-19" d="M2864.22,1787l-239.9-37.2c-28.64,11.08-51.43,27.23-65.2,46.26l326.49,50.64a65,65,0,0,0,.29-13.82C2884.48,1816.2,2876.76,1800.64,2864.22,1787Z"/></g><ellipse class="cls-45" cx="2716.86" cy="1838.43" rx="86.27" ry="140.82" transform="translate(840.67 4529.35) rotate(-89.2)"/><path class="cls-36" d="M2820.64,1806.54c-22.67-21.09-61.67-35-105.62-35-27.16.05-52.13,5.42-72.31,14.52-20.51,9.24-36.1,22.32-44,37.52a49.44,49.44,0,0,0-5.73,20.62c-.07,1.2-.08,2.42-.05,3.64a48.5,48.5,0,0,0,3.06,15.64c12.72,34.52,63.39,60.37,123.23,60.27,43.28-.07,81-13.71,102.67-34.33a67.93,67.93,0,0,0,13.45-17.37,50,50,0,0,0,5.9-20.62c.07-1.32.08-2.64.05-4C2840.88,1832.41,2833.32,1818.35,2820.64,1806.54Z"/><g class="cls-51"><path class="cls-19" d="M2644.94,1784.66c-20.88,8.81-37,21.55-45.47,36.57l241.45,32.87c.13-1.32.19-2.64.21-4,.19-15.09-6.83-29.29-19-41.35Z"/></g><g class="cls-51"><path class="cls-19" d="M2592.73,1845.36a47.75,47.75,0,0,0,2.46,15.68l224.9,30.61a69.91,69.91,0,0,0,14.13-17.08l-241.3-32.86C2592.81,1842.91,2592.75,1844.13,2592.73,1845.36Z"/></g><path class="cls-45" d="M2788.49,1828.89a26.06,26.06,0,0,0-6.7-7.85,35.61,35.61,0,0,0-10.5-5.65,54.51,54.51,0,0,0-14.6-2.74,50,50,0,0,0-7.46,0,44.63,44.63,0,0,0-7,1.13,40.48,40.48,0,0,0-13.3,5.89,53,53,0,0,0-6.08,4.77c-1.95,1.76-3.74,3.51-5.35,5.24q-3.37,3.42-3.37,3.48l-44.74-2.92a14.44,14.44,0,0,1,2.21-7.71,12.48,12.48,0,0,1,6.06-4.36,45.81,45.81,0,0,1,11.52-2.18l.38-8.16-25.16-1.64a63.6,63.6,0,0,0-4.6,11.74,55.42,55.42,0,0,0-2.09,11.55l-16.88-1.1-.33,7,17.28,1.13a25.23,25.23,0,0,0,5.39,12.16,32.22,32.22,0,0,0,12.4,9.06,56.12,56.12,0,0,0,19.09,4.26,62.89,62.89,0,0,0,9,0,45.28,45.28,0,0,0,8.08-1.33,40.69,40.69,0,0,0,7.33-2.65,43.84,43.84,0,0,0,6.39-3.71,58.89,58.89,0,0,0,5.51-4.42q2.61-2.37,5.46-5.48l2.43-2.59,41.34,2.7a10.11,10.11,0,0,1-4.64,8.25q-4.29,2.82-13.74,3.7l-.38,8.17,24.36,1.59a69.54,69.54,0,0,0,3.35-7.35,40.75,40.75,0,0,0,1.8-6.45,60.31,60.31,0,0,0,.93-7.15l16.88,1.11.33-7-17.48-1.14A28.44,28.44,0,0,0,2788.49,1828.89Zm-88.83,17a28.51,28.51,0,0,1-11.69,1.38,29.11,29.11,0,0,1-12.22-3.09q-4.74-2.62-5.65-6.8l38.65,2.52A24.69,24.69,0,0,1,2699.66,1845.87Zm44.47-10.73a28.15,28.15,0,0,1,8.9-6.23,24.56,24.56,0,0,1,11-1.44,23.11,23.11,0,0,1,10.82,3.07,10.58,10.58,0,0,1,5.14,6.94Z"/><g class="cls-52"><path class="cls-53" d="M2888.91,1846.06c.07-.45.16-.91.22-1.37a65,65,0,0,0,.29-13.82c-1.42-16.69-9.14-32.25-21.68-45.89-30.84-33.54-90.83-55.34-157.82-53.18-30.22,1-58.19,6.72-82.08,16-28.64,11.08-51.43,27.22-65.2,46.26a77.1,77.1,0,0,0-12.73,27,64.66,64.66,0,0,0-1.6,20.89c.17,1.91.43,3.8.76,5.68a63.86,63.86,0,0,0-.53,6.65c0,1.21-.05,2.42,0,3.62a65.92,65.92,0,0,0,2,14.21v58.3l0,24.25,0,48.89v26.34l0,51v24.24l0,51v24.26l0,50.95v24.26l0,50.93v27.69a12.36,12.36,0,0,0-.2,2.11,12.58,12.58,0,0,0,.2,2.12v5.53l2.23,0c3.48,5.46,10.66,11.93,20.84,18.52q2.55,1.66,5.36,3.32a217.39,217.39,0,0,0,27.24,13.52q2.43,1,5,2c7.26,2.86,15,5.57,23.24,8,5.29,1.57,10.77,3.05,16.4,4.4,2.84.68,5.73,1.32,8.63,1.94,6.38,1.34,12.95,2.51,19.67,3.47,8.07,1.16,16.37,2,24.86,2.53q8.34.51,16.94.55h.94c2.3,0,4.59,0,6.86-.07,10.47-.22,20.68-.93,30.58-2.07l.28,0q9.15-1,17.87-2.55,10.69-1.83,20.7-4.25c7.1-1.7,13.92-3.6,20.4-5.66.3-.09.61-.19.91-.3a246.61,246.61,0,0,0,24-9q6.75-3,12.69-6.09c1.38-.72,2.74-1.44,4.05-2.18,20.29-11.35,32.23-23.75,32.23-33.68v-474.7a14.17,14.17,0,0,0-2.56-7.85A65.41,65.41,0,0,0,2888.91,1846.06Z"/></g><path class="cls-36" d="M3229.91,1824.88q-7.17-2.45-15.34-4.64c-2.74-.74-5.55-1.46-8.45-2.15-6-1.46-12.39-2.83-19-4.1q-12.95-2.45-27.31-4.37-12.09-1.62-25-2.79-10.56-1-21.62-1.63c-1.37-.09-2.74-.18-4.12-.25-12.53-.7-25.5-1.09-38.75-1.14h-3.33c-7.11,0-14.15.1-21.07.29-10.25.27-20.3.73-30.06,1.4-4.13.27-8.19.57-12.22.92s-7.77.7-11.58,1.09l-2.59.28c-9.61,1-18.86,2.25-27.69,3.63l-3.66.59c-8.6,1.42-16.77,3-24.46,4.72q-3,.67-6,1.38a246.19,246.19,0,0,0-33,10.18q-3.4,1.35-6.49,2.74c-17.9,8.12-28.15,17.58-28.15,27.66v21.59l0,58.57v32.45l0,59.15v31.86l0,61.67v13.36l0,16,0,61.65v29.35l0,61.63v29.34l0,61.62v33.5a15.51,15.51,0,0,0-.24,2.55,16,16,0,0,0,.24,2.57v6.69l2.7-.06c4.21,6.61,12.89,14.44,25.21,22.41q3.09,2,6.49,4a262,262,0,0,0,33,16.37q2.94,1.23,6,2.43c8.78,3.47,18.18,6.74,28.12,9.71,6.4,1.9,13,3.69,19.84,5.32,3.43.82,6.92,1.6,10.44,2.35q11.58,2.43,23.8,4.2c9.76,1.4,19.8,2.43,30.06,3q10.11.63,20.49.67h1.14c2.79,0,5.55,0,8.31-.09,12.66-.26,25-1.12,37-2.49l.34,0q11.05-1.25,21.62-3.08,12.93-2.2,25-5.14c8.6-2.06,16.85-4.35,24.69-6.85.36-.11.74-.23,1.1-.36a298.61,298.61,0,0,0,29-10.91c5.44-2.38,10.56-4.85,15.34-7.37q2.52-1.31,4.91-2.64c24.54-13.73,39-28.73,39-40.74V1858.68C3273.81,1845.93,3257.41,1834.18,3229.91,1824.88Z"/><path class="cls-45" d="M2860,1880.27l0,58.57V1942c60.65,54.94,225.62,169.11,413.76,1.33v-57.15C3210,1939.22,3042.52,2044.4,2860,1880.27Z"/><path class="cls-45" d="M2860.06,1971.29l0,59.15V2033c59.33,54.28,224.71,171.1,413.72,3.86v-57.21C3208.77,2033.2,3041.73,2136,2860.06,1971.29Z"/><path class="cls-45" d="M2860.1,2062.3l0,61.67c57.93,53.55,223.76,173.13,413.68,6.43v-57.3C3207.6,2127.1,3041,2227.63,2860.1,2062.3Z"/><path class="cls-45" d="M2860.15,2153.3l0,61.65c56.47,52.75,222.76,175.19,413.63,9v-57.39C3206.48,2221,3040.27,2319.22,2860.15,2153.3Z"/><path class="cls-45" d="M2860.18,2244.3l0,61.63c54.94,51.84,221.72,177.28,413.6,11.56V2260C3205.38,2314.78,3039.58,2410.85,2860.18,2244.3Z"/><path class="cls-45" d="M2860.22,2335.27l0,61.62c53.32,50.86,220.63,179.39,413.56,14.15v-57.58C3204.35,2408.54,3038.9,2502.46,2860.22,2335.27Z"/><g class="cls-46"><path class="cls-19" d="M2933.59,1816.72q-3,.67-6,1.38a246.19,246.19,0,0,0-33,10.18v640.28a262,262,0,0,0,33,16.37q2.94,1.23,6,2.43c8.78,3.47,18.18,6.74,28.12,9.71V1811.41l-3.66.59C2949.45,1813.42,2941.28,1815,2933.59,1816.72Z"/></g><g class="cls-47"><path class="cls-48" d="M2992,1807.5v697.24q11.58,2.43,23.8,4.2V1805.49c-4.13.27-8.19.57-12.22.92S2995.8,1807.11,2992,1807.5Z"/></g><g class="cls-46"><path class="cls-19" d="M3113.12,2510l21.62-3.08V1806.83q-10.56-1-21.62-1.63Z"/></g><path class="cls-45" d="M3060.85,1727.25c-94.92.15-173.82,39.5-196.57,93a80.27,80.27,0,0,0-6.61,29.64c0,1.46-.06,2.92,0,4.38a80.31,80.31,0,0,0,3.89,22.5c4.47,14,12.69,27.22,24,39.2,20.2,21.46,50.23,39,86.2,50.41,27.38,8.67,58.19,13.72,90.76,14.18,1.78,0,3.55,0,5.33,0a332.73,332.73,0,0,0,35.12-1.89c1.73-.18,3.47-.38,5.18-.59l-16.25-128,39.74-2.15,15.59,122.73q8.14-2.1,15.89-4.63c1.83-.6,3.64-1.2,5.43-1.84a231.48,231.48,0,0,0,32.55-14.14q6.14-3.27,11.82-6.81a158.73,158.73,0,0,0,27.65-21.59c19.95-19.68,31.16-43.06,30.46-68.1C3269.09,1783.62,3175,1727.07,3060.85,1727.25Z"/><g class="cls-49"><path class="cls-19" d="M3148.21,1848.79l14.89,117.27c1.83-.6,3.64-1.2,5.43-1.84a231.48,231.48,0,0,0,32.55-14.14L3188,1846.64Z"/></g><path class="cls-48" d="M3091.88,1850.11l16.25,128a301.83,301.83,0,0,0,39.08-7.4L3131.62,1848Z"/><g class="cls-49"><path class="cls-19" d="M2953.52,1822.75l18.22,143.6c27.38,8.67,58.19,13.72,90.76,14.18L3041.87,1818Z"/></g><path class="cls-36" d="M3243.82,1766.07c-37.31-40.59-109.88-67-190.92-64.34-36.56,1.19-70.4,8.13-99.29,19.34-34.66,13.4-62.23,32.94-78.88,56a93,93,0,0,0-15.4,32.64,78,78,0,0,0-1.93,25.27,81.49,81.49,0,0,0,3.17,16.51c18.53,61.62,109.18,106.73,214,103.35,60.92-2,114.27-19.94,149.83-46.94,14.29-10.81,25.7-23.09,33.57-36.37a86.31,86.31,0,0,0,11.72-33.2,78.39,78.39,0,0,0,.36-16.72C3268.33,1801.39,3259,1782.56,3243.82,1766.07Z"/><g class="cls-50"><path class="cls-19" d="M2857.4,1835a81.49,81.49,0,0,0,3.17,16.51l363.83,56.41c14.29-10.81,25.7-23.09,33.57-36.37l-398.64-61.82A78,78,0,0,0,2857.4,1835Z"/></g><g class="cls-50"><path class="cls-19" d="M3243.82,1766.07l-290.21-45c-34.66,13.4-62.23,32.94-78.88,56l395,61.26a78.39,78.39,0,0,0,.36-16.72C3268.33,1801.39,3259,1782.56,3243.82,1766.07Z"/></g><ellipse class="cls-45" cx="3065.55" cy="1828.28" rx="104.36" ry="170.36" transform="translate(1194.64 4867.99) rotate(-89.2)"/><path class="cls-36" d="M3191.09,1789.7c-27.41-25.51-74.6-42.36-127.77-42.28-32.85.06-63.06,6.56-87.47,17.57-24.82,11.17-43.67,27-53.23,45.38a59.86,59.86,0,0,0-6.94,25c-.08,1.45-.09,2.93,0,4.41a58.45,58.45,0,0,0,3.7,18.91c15.39,41.76,76.68,73,149.07,72.91,52.37-.08,98-16.58,124.21-41.52a82.43,82.43,0,0,0,16.27-21,60.42,60.42,0,0,0,7.13-24.94c.09-1.6.1-3.2.07-4.82C3215.58,1821,3206.43,1804,3191.09,1789.7Z"/><g class="cls-51"><path class="cls-19" d="M2978.55,1763.23c-25.26,10.66-44.73,26.07-55,44.24l292.1,39.76c.15-1.59.23-3.19.26-4.81.22-18.25-8.27-35.44-23-50Z"/></g><g class="cls-51"><path class="cls-19" d="M2915.39,1836.66a57.68,57.68,0,0,0,3,19l272.07,37a84.87,84.87,0,0,0,17.1-20.66l-291.91-39.75C2915.48,1833.7,2915.41,1835.18,2915.39,1836.66Z"/></g><path class="cls-45" d="M3152.2,1816.74a31.5,31.5,0,0,0-8.1-9.5,43.19,43.19,0,0,0-12.71-6.83,65.92,65.92,0,0,0-17.65-3.32,61.58,61.58,0,0,0-9,0,54,54,0,0,0-8.43,1.36,49.38,49.38,0,0,0-16.08,7.12,66.2,66.2,0,0,0-7.36,5.78q-3.54,3.19-6.47,6.34c-2.72,2.76-4.07,4.17-4.08,4.21l-54.12-3.53c.18-3.94,1.08-7.05,2.68-9.33a15,15,0,0,1,7.33-5.27c3.29-1.24,7.94-2.11,13.94-2.64l.46-9.87-30.45-2a77.48,77.48,0,0,0-5.56,14.21,66.58,66.58,0,0,0-2.53,14l-20.42-1.34-.39,8.51,20.89,1.37a30.59,30.59,0,0,0,6.53,14.7q5.32,6.67,15,11t23.09,5.16a77.61,77.61,0,0,0,10.9,0,56.13,56.13,0,0,0,9.77-1.6,50.42,50.42,0,0,0,8.88-3.22,51.91,51.91,0,0,0,7.72-4.49,70.35,70.35,0,0,0,6.67-5.35q3.17-2.87,6.61-6.62l2.93-3.13,50,3.26a12.25,12.25,0,0,1-5.62,10q-5.19,3.42-16.63,4.48l-.45,9.88,29.47,1.92a83.79,83.79,0,0,0,4-8.88,49.26,49.26,0,0,0,2.18-7.81,73.67,73.67,0,0,0,1.13-8.64l20.42,1.33.39-8.51-21.14-1.38A34.44,34.44,0,0,0,3152.2,1816.74Zm-107.46,20.53a34.24,34.24,0,0,1-14.14,1.68q-9.06-.59-14.79-3.74T3009,1827l46.76,3A29.8,29.8,0,0,1,3044.74,1837.27Zm53.8-13a33.91,33.91,0,0,1,10.77-7.54,29.64,29.64,0,0,1,13.29-1.74q8,.52,13.09,3.71a12.84,12.84,0,0,1,6.22,8.4Z"/><g class="cls-52"><path class="cls-54" d="M3269.83,1840c.08-.55.18-1.1.25-1.66a78.39,78.39,0,0,0,.36-16.72c-1.72-20.19-11.06-39-26.23-55.51-37.31-40.59-109.88-67-190.91-64.34-36.56,1.19-70.4,8.13-99.3,19.34-34.65,13.4-62.22,32.94-78.87,56a93.07,93.07,0,0,0-15.41,32.64,78.32,78.32,0,0,0-1.93,25.27c.2,2.31.52,4.59.91,6.87a79.44,79.44,0,0,0-.64,8c0,1.46-.06,2.92,0,4.38a80.71,80.71,0,0,0,2.37,17.19v99.86l0,59.15V2033l0,29.32,0,61.67v29.33l0,61.65v29.35l0,61.63v29.34l0,61.62v5.81l0,27.69a14.5,14.5,0,0,0-.25,2.55,14.91,14.91,0,0,0,.25,2.57v6.69l2.69-.06c4.21,6.61,12.89,14.44,25.21,22.41q3.09,2,6.49,4a262.67,262.67,0,0,0,32.95,16.37q2.94,1.23,6,2.43c8.79,3.47,18.19,6.74,28.12,9.71,6.41,1.9,13,3.69,19.85,5.32,3.43.82,6.92,1.6,10.44,2.35,7.71,1.62,15.66,3,23.79,4.2q14.64,2.1,30.07,3,10.1.63,20.49.67h1.14q4.17,0,8.3-.09c12.66-.26,25-1.12,37-2.49l.35,0q11.05-1.25,21.61-3.08,12.95-2.2,25-5.14c8.59-2.06,16.84-4.35,24.68-6.85.36-.11.74-.23,1.1-.36a298.61,298.61,0,0,0,29-10.91c5.44-2.38,10.56-4.85,15.35-7.37,1.67-.87,3.31-1.75,4.9-2.64,24.54-13.73,39-28.73,39-40.74V1858.68a17.2,17.2,0,0,0-3.09-9.49A81.3,81.3,0,0,0,3269.83,1840Z"/></g><path class="cls-15" d="M3466.85,2493.44c-39.2-3.34-34.15-17.13-34.15-17.13s-56.61-14.49-77.15,12.46c0,0,1.54,41.42,0,50.32s9.15,20,23.41,20,120,10,128.27-5.57S3506.05,2496.78,3466.85,2493.44Z"/><g class="cls-55"><path class="cls-56" d="M3460.65,2481.72c-12.25-1-24.86-.11-36.25,4.5s-21.47,13.27-26.07,24.67c-.9,2.21-1.36,5.23.62,6.57l1.43,2.9c14.15-14.76,32.46-26,52.57-29.6s42,.78,57.84,13.71C3498.87,2489.85,3479.45,2483.26,3460.65,2481.72Z"/><path class="cls-56" d="M3406,2551.68c-10.6,1.14-21.27-.62-31.79-2.38s-22.15-4.13-28.65-12.63l-24.27,13c-1.84.65-.89,3.45.44,4.87,8,8.52,19.1,13.32,30.25,16.71,32,9.69,66.11,9.44,99.4,6.66,27.59-2.3,55.9-6.56,79.59-20.88-13.8-13.74-30.84-26.14-50.29-26.93C3454.59,2529.08,3431.92,2548.89,3406,2551.68Z"/></g><path class="cls-15" d="M3122.83,2465.6s-28.62,34.52-72.51,34.52-51.52-8.91-55.33,18.93,3.81,44.54,46.75,44.54,57.24-11.13,86.82-6.68,43.89-2.23,47.7-17.82,0-73.49,0-73.49Z"/><g class="cls-57"><path class="cls-56" d="M3190,2527.74a4.7,4.7,0,0,0-3.06.81c-12.75,6.84-25.92,13.66-40.27,15.49-14.91,1.9-30-1.74-45-1.15-9.62.38-19.07,2.48-28.59,3.92A210.57,210.57,0,0,1,3019,2548c-11.33-1.23-23.49-3.88-30.94-12.51l-8.05,21.37c.09,9.45,7.62,17.54,16.32,21.22s18.43,3.85,27.88,3.9c41.46.22,83.13-.74,123.92-8.15,8.15-1.48,16.38-3.26,23.69-7.14,12.54-6.65,21.75-20.34,20.74-34.49C3192.41,2530.34,3191.77,2528.13,3190,2527.74Z"/><path class="cls-56" d="M3068.11,2489c-2.44-1.91-5.39-3.69-8.45-3.18l-7.67,3.5c6.32,1.13,11.19,6.41,13.87,12.24s3.6,12.27,5.06,18.52a6.31,6.31,0,0,0,1.09,2.66,4.46,4.46,0,0,0,3.16,1.44c4.57.35,8.47-4,9-8.56s-1.39-9-3.81-12.93A53,53,0,0,0,3068.11,2489Z"/><path class="cls-56" d="M3081,2479.13l-.47,3.19c5,3.12,7.41,9.11,9,14.81s2.87,11.76,6.7,16.28a4.16,4.16,0,0,0,2,1.52,3.16,3.16,0,0,0,3.25-1.55,7.76,7.76,0,0,0,1-3.68,33.72,33.72,0,0,0-9.23-25.52C3090.1,2480.84,3085.55,2478.05,3081,2479.13Z"/></g><path class="cls-58" d="M3425.67,2121.16c3.17-54.94-23.75-282.09-25.34-292.49s-228.61,0-228.61,0-27.94,184.1-35.07,245-13.46,106.89-13.46,154.4-25.75,253.88-25.75,253.88,17.83,19.31,92.27,7.43c17.07-120.26,33.25-170.74,34.84-200.43s-1.19-82.78-1.19-82.78,32.67-191.89,64.44-194.86c0,0,20.68,133.62,27,176.68s3.16,1.48,0,43.05,33.6,262.2,33.6,262.2,61.42-18.71,82-11.29,0-41.57,0-106.89S3422.51,2176.09,3425.67,2121.16Z"/><g class="cls-59"><path class="cls-60" d="M3388.66,1769.65c-49.13-1.16-98.73.55-146.53,11.94s-94,33-129.08,67.42c-10.54,10.36-20.65,24-17.9,38.55,3.61,19.11,26.32,27.11,45.56,30,103.8,15.31,213.78-18.33,291.25-89.09l8.08-34C3434.45,1774.75,3409.09,1770.13,3388.66,1769.65Z"/><path class="cls-60" d="M3439.78,2466.8c-10.72,1.2-20.68,6.71-31.45,7.34-15.74.92-30.58-9.09-39.47-22.11s-12.87-28.73-16.07-44.17c-6.49-31.28-10.51-63-14.52-94.69-2.38-18.8-4.59-38.79,3.47-55.93,5.62-12,16.23-22.94,14.68-36.06l-21.3-1.91a78.82,78.82,0,0,1,25.94-43.41c-15.95,2.23-31.5-8.29-40.07-21.92s-11.59-29.92-14.44-45.76q-8.33-46.18-16.64-92.36l-1.07-9c-.64,1.67-1.25,3.34-1.85,5l.4-2.61c-37.63,13.84-57.37,55.06-67.16,94s-14.05,80.62-36.51,113.84c-1.32,1.95-2.74,4-2.93,6.32-.48,6,6.56,9.23,11.53,12.62,10.77,7.36,14.66,21.51,15,34.55.7,29.29-12.41,57-17.89,85.75-5.22,27.43-3.53,56.08-11.45,82.85s-29.91,52.76-57.82,52.14c-18.93-.42-36.14-12.93-55.08-12.75-3.42,0-7.25.72-9.22,3.52-2.45,3.48-.78,8.29,1.31,12,16.24,28.69,52.05,40.41,85,41.43,28.16.88,58.74-5.53,77.2-26.81,12.29-14.17,17.57-33.06,20.73-51.55,9.38-55,3-111.37,3.85-167.19A643,643,0,0,1,3271,2115.1c.15,30.55,3.64,61.35,8.48,91.42,10.72,66.58,27.71,132.64,28.15,200.08.17,27-2.32,54.11.83,80.92,1.56,13.27,5.31,27.65,16.3,35.25,8.13,5.63,18.6,6.34,28.49,6.57,37.8.89,79.95-4.56,104.3-33.48,3.24-3.85,6.19-8.38,6.2-13.41C3463.76,2471.66,3450.5,2465.6,3439.78,2466.8Z"/></g><path class="cls-61" d="M3410.07,1506.39c-55.55-52.7-161.17-41.84-161.17-41.84s-66.86,5.55-95.27,50.76-56.9,133.68-56.9,133.68l39.88,31.17,17,166.64s101.19,41.3,246.47,0v-34.19l38.46-91.15h10S3486.82,1579.2,3410.07,1506.39Z"/><g class="cls-62"><path class="cls-63" d="M3486.37,1713.39c-7.63-6.92-7.17-20.89-17.22-23.12-21.15-4.69-47.66-9.26-72.58-9-9.12.12-28.71,5.86-35.45-.3-12-11-8.31-19.66-10.32-35.82s2.18-54,5-70q3.87-21.74,9.62-43.08l-14.65,30.73c-10.94,29.94-11.58,38.89-11.92,71-.23,22.31-3.17,42.89-4.76,64.65,10.5,20.32,29.16,9,51.84,11.93,22.51,3,45.39,3,67.64,7.47,9.94,2,19.72,4.85,29.78,6,1.57.19,3.29.3,4.63-.55C3491.32,1721.29,3489.28,1716,3486.37,1713.39Z"/><path class="cls-63" d="M3275.37,1847.53c-2.07-.21-4.27-.5-5.84-1.86s-2.11-3.25-3.28-4.82c-3.64-4.87-10.91-4.45-17-3.9a149.23,149.23,0,0,1-70.27-10.73c-6.93-2.88-13.9-6.48-18.42-12.47s-6.14-14-7.17-21.6c-3.34-24.82-2.87-50-2.38-75l3.21-166.16q-8.64,37.9-17.26,75.82c-1.54,6.76-3.32,14-8.36,18.7-5.25,5-13.16,6.22-20.26,5s-13.59-4.75-19.85-8.31l-27.41,42.43c17.82,29.13,36.09,59.56,39.52,93.55,2.44,24.12-2.14,51.07,12.34,70.52,10.08,13.55,27.11,19.82,43.46,24.06,55.58,14.44,114,13.6,171.17,8,31.47-3.1,65.86-9.26,86.05-33.61,4.74-5.71,8.62-13,7.18-20.28A307.49,307.49,0,0,1,3275.37,1847.53Z"/></g><path class="cls-22" d="M3298.19,1280.38s3.72-29.17-41.59-32.27-27.93,18.62-27.93,18.62-32.9-9.93-43.46,4.34-.62,19.87-.62,19.87-52.14,5.58-21.1,42.83,152.08,59.59,152.08,59.59,49.66-37.87,13-46.56C3359,1332.53,3351,1289.07,3298.19,1280.38Z"/><path class="cls-2" d="M3298.19,1280.38s3.72-29.17-41.59-32.27-27.93,18.62-27.93,18.62-32.9-9.93-43.46,4.34-.62,19.87-.62,19.87-52.14,5.58-21.1,42.83,152.08,59.59,152.08,59.59,49.66-37.87,13-46.56C3359,1332.53,3351,1289.07,3298.19,1280.38Z"/><g class="cls-64"><path class="cls-24" d="M3223.2,1294.6a31,31,0,0,0,7.88,2.85A21.39,21.39,0,0,0,3223.2,1294.6Z"/><path class="cls-24" d="M3291.17,1289.52l-5.17-2a78.91,78.91,0,0,0-27.5-18.69c-1.25-.5-2.7-1-3.91-.36-2.3,1.16-1.43,4.67,0,6.8a31.36,31.36,0,0,0,8.66,8.52c-12.33-4.13-25.61-8.28-38.08-4.61-2.65.79-5.4,2.09-6.64,4.56-1.6,3.19,0,7.25,2.74,9.55a13.39,13.39,0,0,0,1.9,1.31,21.39,21.39,0,0,1,7.88,2.85,31,31,0,0,1-7.88-2.85c-7.86-1.25-16.57,1.28-24.17,4.45a173.13,173.13,0,0,0-34,18.93c-2.65,1.9-5.34,4-6.73,6.93-2,4.21-.89,9.16.32,13.65,1.75,6.5,3.73,13.09,7.66,18.55,6.93,9.62,18.71,14.23,29.89,18.15a1039.62,1039.62,0,0,0,116.49,33.41,5.82,5.82,0,0,0,3.33.09,5.58,5.58,0,0,0,2.63-2.84,52,52,0,0,0,5.79-21.53,39.15,39.15,0,0,0-2-16.1c-4.07-10.86-14.38-18.33-19.12-28.92a2.88,2.88,0,0,1-.3-2.26c.41-1,1.63-1.21,2.67-1.33l12.43-1.46c2.54-.29,5.27-.68,7.1-2.45a9.11,9.11,0,0,0,2.34-5.14c1.3-7.76-2.13-15.57-6.61-22C3314.16,1294.91,3302.64,1286.4,3291.17,1289.52Z"/></g><path class="cls-25" d="M3294.55,1375.76l-.11.09c-2.26-12.56-3.59-25.35-.69-34-15.88-5.55-18.64-21.2-18.64-21.2s-11.85-.2-27.43-17.55c-18.74,20.27-53.19,23.83-66.13,22.77,0,0-9,60-2.58,94.53,1.51,8.12,3.87,14.82,7.4,19,18.51,21.84,42.08,14.66,42.08,14.66s-3.5,17.31-8.17,25.68,8.87,36.34,29.67,35.55,59.53-47.63,59.53-47.63-12.57-44.19-9.11-52.78a4.89,4.89,0,0,0,.22-.76,25.14,25.14,0,0,0,15.72-5c10.57-7.71,14.28-21.42,8.27-30.62S3305.13,1368.06,3294.55,1375.76Z"/><path class="cls-3" d="M3179,1420.46c1.51,8.12,3.86,14.78,7.39,18.94,18.51,21.84,42.08,14.66,42.08,14.66s-3.5,17.31-8.17,25.68,8.87,36.34,29.67,35.55,59.53-47.63,59.53-47.63-12.57-44.19-9.11-52.78a4.89,4.89,0,0,0,.22-.76,25.14,25.14,0,0,0,15.72-5c10.57-7.71,14.28-21.42,8.27-30.62s-19.45-10.42-30-2.72l-.11.09c-2.26-12.56-3.59-25.35-.69-34-15.88-5.55-18.64-21.2-18.64-21.2s-11.85-.2-27.43-17.55c-18.74,20.27-53.19,23.83-66.13,22.77,0,0-9,60-2.58,94.53Z"/><g class="cls-65"><path class="cls-27" d="M3281.17,1292.11c-13.83-9.08-30.46-12.78-46.84-15.1-17.37-2.47-35.85-3.41-51.69,4.11-6.76,3.21-12.93,8-16.64,14.53s-4.71,14.75-1.55,21.53l7.82,3.13c21,12.64,48.7,13.25,70.23,1.55,2.19-1.19,4.71-2.53,7-1.61a7.46,7.46,0,0,1,2.92,2.58c2.18,2.86,4.13,6.14,7.35,7.74,4.13,2.07,9.57.94,13.17,3.84,2.61,2.1,3.4,5.65,4.28,8.88a68.07,68.07,0,0,0,17.41,30c1.7-13.75,9.77-26.29,10.31-40.15C3305.6,1316.64,3295,1301.2,3281.17,1292.11Z"/><path class="cls-27" d="M3250,1444.26c-8.65,5.7-18.56,9.87-28.91,10.28l-7.25,4.87c-3.84,5.26-7.12,11.92-5,18.08,1.66,4.86,6.48,8.17,11.52,9.14s10.28-.11,15.12-1.83a57.79,57.79,0,0,0,38.17-60.62C3266.17,1431.34,3258.65,1438.55,3250,1444.26Z"/><path class="cls-27" d="M3296.36,1385c-5.17,3.51-7.3,9.39-4.77,13.12s8.79,3.92,14,.41,7.31-9.39,4.77-13.13S3301.53,1381.48,3296.36,1385Z"/></g><path class="cls-28" d="M3219,1370.05c-.69,2.91-2,5.58-3.91,6.34a4.87,4.87,0,0,1-.79.26l-.61.15a5.47,5.47,0,0,0-.77.23,5.71,5.71,0,0,0-1.62.89,4,4,0,0,0-1.3,1.85,4.37,4.37,0,0,0-.11,2.07,4.79,4.79,0,0,0,.21.83c.09.27.2.5.3.73a11.13,11.13,0,0,0,1.53,2.34,22.25,22.25,0,0,0,3.71,3.45,25.27,25.27,0,0,0,4.25,2.59c-1.89-2.71-3.91-5.25-5.38-7.84a11,11,0,0,1-.84-1.86c-.18-.57-.16-1.06-.08-1.06s0,0,.11,0a2,2,0,0,1,.51-.21,2,2,0,0,1,.39-.1l.56-.13a7.53,7.53,0,0,0,1.51-.47,8.11,8.11,0,0,0,2.59-1.83,9.1,9.1,0,0,0,1.64-2.49,11.71,11.71,0,0,0,.86-2.63,14.81,14.81,0,0,0,.34-2.62,22.81,22.81,0,0,0-1.7-9.83A75.56,75.56,0,0,1,3219,1370.05Z"/><path class="cls-28" d="M3258,1335.22a6.81,6.81,0,0,0-3-1.52,6.44,6.44,0,0,0-3.45.12,4.22,4.22,0,0,0-2.68,2.3c1.22.28,2.07.58,2.89.82s1.54.47,2.32.65a21.07,21.07,0,0,0,2.5.46,11.07,11.07,0,0,0,1.47.12,8.49,8.49,0,0,0,1.72-.05,6.49,6.49,0,0,0-.71-1.63A7.84,7.84,0,0,0,3258,1335.22Z"/><path class="cls-28" d="M3207.25,1336a6.83,6.83,0,0,0-3.2-.92,6.36,6.36,0,0,0-3.36.79,4.2,4.2,0,0,0-2.18,2.78c1.25,0,2.14.17,3,.24s1.61.16,2.41.19a24.44,24.44,0,0,0,2.54,0,13.67,13.67,0,0,0,1.46-.17,9.63,9.63,0,0,0,1.68-.38,6.3,6.3,0,0,0-1-1.47A7.52,7.52,0,0,0,3207.25,1336Z"/><circle class="cls-29" cx="3263.49" cy="1391.78" r="13.25" transform="translate(1153.42 4243.98) rotate(-76.6)"/><ellipse class="cls-22" cx="3199.63" cy="1362.42" rx="5.67" ry="7.67" transform="matrix(1, -0.04, 0.04, 1, -52.31, 130.05)"/><path class="cls-22" d="M3250.79,1356.94c-3.13.13-5.53,3.66-5.36,7.89s2.85,7.57,6,7.44,5.53-3.66,5.35-7.89S3253.92,1356.81,3250.79,1356.94Z"/><path class="cls-19" d="M3198.32,1358.14c-1.28,0-2.27,1.5-2.2,3.24s1.17,3.1,2.45,3,2.28-1.5,2.21-3.24S3199.61,1358.09,3198.32,1358.14Z"/><path class="cls-19" d="M3250.11,1360c-1.29,0-2.27,1.5-2.2,3.24s1.17,3.1,2.45,3,2.28-1.51,2.21-3.24S3251.4,1360,3250.11,1360Z"/><path class="cls-28" d="M3231.14,1406c0,.88-.07,1.74-.16,2.6.92-.22,1.83-.5,2.74-.74Z"/><path class="cls-28" d="M3235,1403.31l-2.54.81-2.68.86c-.91.23-1.81.53-2.73.71a45.56,45.56,0,0,1-5.59.92,41.83,41.83,0,0,1-5.72.15,31.43,31.43,0,0,1-5.8-.78,18.29,18.29,0,0,0,5.52,2.46,28.65,28.65,0,0,0,6.05,1,29,29,0,0,0,3.09,0c.51,0,1,0,1.54-.09l1.54-.19c1-.09,2-.36,3-.54l.24-.06c.09-.86.15-1.72.16-2.6l2.58,1.86c-.91.24-1.82.52-2.74.74a20.4,20.4,0,0,1-.92,4.55,10,10,0,0,1-3.82,5.33,13.93,13.93,0,0,1-6.76,2.14,34.39,34.39,0,0,1-7.8-.38,20.64,20.64,0,0,0,7.76,2.54,14.39,14.39,0,0,0,8.53-1.39,12.65,12.65,0,0,0,5.79-6.9,22.88,22.88,0,0,0,1.3-8.49Z"/><path class="cls-45" d="M3268.61,1576.64a164,164,0,0,0-103.9-41.19c-2.35-.08-4.71-.09-7.07-.07A164.66,164.66,0,0,0,2995,1702q.08,7,.75,13.89h0a164.68,164.68,0,1,0,272.9-139.24Z"/><g class="cls-66"><path class="cls-19" d="M2995.71,1715.87h0a163.45,163.45,0,0,0,18,60.54l214.33-226.18a163.75,163.75,0,0,0-63.34-14.79Z"/></g><g class="cls-66"><path class="cls-19" d="M3268.61,1576.64c-46.57,47.28-171.47,178-228,237.22a164.52,164.52,0,0,0,68,42.78l208.91-203.16A164.46,164.46,0,0,0,3268.61,1576.64Z"/></g><circle class="cls-67" cx="3159.58" cy="1698.5" r="135.68" transform="translate(-275.6 2731.64) rotate(-45)"/><path class="cls-36" d="M3261.38,1650.55a112.53,112.53,0,1,0-116,159.59,110.31,110.31,0,0,0,15.51.87,112.55,112.55,0,0,0,109.64-131.08A110.39,110.39,0,0,0,3261.38,1650.55Z"/><path class="cls-1" d="M3180.54,1707.34a13.79,13.79,0,0,0-1.73-1.77,19.65,19.65,0,0,0-7.63-4,25.07,25.07,0,0,0-2.85-.6,46.12,46.12,0,0,0-8.2-.55l-7.69.09-4.58.06.56,46.77c1.43.05,3,.09,4.58.11,2.3,0,4.76,0,7.42,0a50.37,50.37,0,0,0,8.45-.78,29.94,29.94,0,0,0,5.34-1.46,16,16,0,0,0,6.73-4.94,18.94,18.94,0,0,0,1.61-2.4q2.94-5.19,2.83-14.2a33.34,33.34,0,0,0-1.71-10.88A18,18,0,0,0,3180.54,1707.34Z"/><path class="cls-1" d="M3179.92,1654.9a15.66,15.66,0,0,0-7.69-5.52,29.48,29.48,0,0,0-4.53-1.09,47.61,47.61,0,0,0-8.46-.61c-2.53,0-5,.14-7.42.28-1.54.08-3.08.17-4.58.31l.5,42,4.58,0,7.16-.09a41.57,41.57,0,0,0,8.71-1,21.25,21.25,0,0,0,5.11-1.77,17.64,17.64,0,0,0,6.93-6.4c.2-.33.43-.63.62-1q2.55-4.76,2.45-13-.09-7.32-3-11.57C3180.21,1655.23,3180.05,1655.08,3179.92,1654.9Z"/><path class="cls-45" d="M3201.25,1712a37.18,37.18,0,0,0-5.24-7.18,51.18,51.18,0,0,0-6.88-6.18,86.9,86.9,0,0,0-8-5.29q-4.24-2.49-9.73-5.19l-4.59-2.29v-41.31q9.08.11,14.27,4.24t7.68,13.52h13.66V1638q-7.38-2-12.62-3a107.13,107.13,0,0,0-11-1.5q-5.73-.49-12-.6v-16.86h-11.77v17.46a68.6,68.6,0,0,0-15.27,3.59,41,41,0,0,0-12.37,7,31.65,31.65,0,0,0-8.28,10.72,33.85,33.85,0,0,0-3,14.67,30.79,30.79,0,0,0,.85,7.43,30.39,30.39,0,0,0,2.64,6.88,35.61,35.61,0,0,0,4.59,6.69,47.16,47.16,0,0,0,6.68,6.28,82.14,82.14,0,0,0,8.63,5.84q4.74,2.79,9.33,5.08,6.09,3.19,6.19,3.2v44.69q-8.19,0-13.12-1.85A17.16,17.16,0,0,1,3134,1748q-3-4-4.89-11.37h-13.67v25.14a168.16,168.16,0,0,0,20.1,4,154.43,154.43,0,0,0,19.51,1.54v16.86h11.77V1766.9a55.38,55.38,0,0,0,19.7-5.93,34.57,34.57,0,0,0,18.81-32,38.49,38.49,0,0,0-1-9A32,32,0,0,0,3201.25,1712Zm-46.19-31q-7.79-4.2-11.38-8.58a16.64,16.64,0,0,1-3.59-10.88,15.65,15.65,0,0,1,3.94-10.92q3.94-4.34,11-5.44Zm22.49,67.69a16.4,16.4,0,0,1-10.72,5.93V1716q7.38,3.9,11,8.78a19,19,0,0,1,3.59,11.58Q3181.39,1743.85,3177.55,1748.7Z"/><g class="cls-68"><path class="cls-19" d="M3202.85,1594.62l-149.44,141.23a112.51,112.51,0,0,0,30.67,46.08l160.2-157.5A112.6,112.6,0,0,0,3202.85,1594.62Z"/></g><g class="cls-68"><path class="cls-19" d="M3108.14,1798.59a112,112,0,0,0,37.27,11.55l125.15-130.21a110.39,110.39,0,0,0-9.18-29.38Z"/></g><path class="cls-3" d="M3362.36,1699l-4.49,31.46-92.61,27.82s-25.26-6.79-38.77,1.45-11.5,12.73-13.56,18.61,2.59,12.55,2.59,12.55-12.52,26.58-6.1,31.25,13.62-.08,18.77,3.77,7,12.74,18.18,8.8,21.06,1.65,24.07-2.24,15.09-16.75,15.09-16.75,102.4-8.56,129.26-18.46,32.54-90,32.54-90S3408.73,1675.23,3362.36,1699Z"/><g class="cls-69"><path class="cls-27" d="M3478.34,1655.73c-4.29-3.14-9.6-4.51-14.81-5.56-28.7-5.77-59.19-3.5-86.2,7.8s-50.34,31.78-63.78,57.8l20.17,14.57c4.81-4.2,10.65,3.82,16.59,1.49,5.56-2.18,11.66-2.51,17.64-2.45,9.82.08,19.67,1.14,29.46.2,15.93-1.52,31-8.32,44.22-17.36s24.73-20.29,36-31.67c3.17-3.2,6.47-6.7,7.22-11.14C3485.71,1664.17,3482.63,1658.87,3478.34,1655.73Z"/><path class="cls-27" d="M3251.73,1832.13c-4.95.89-10.93,1.93-14.24-1.85-2.9-3.31-2.18-9-5.56-11.77-4-3.34-10.37-.18-15.18-2.19-3.84-1.59-5.68-6.23-5.29-10.37s2.54-7.87,4.72-11.41c1.73-2.8,3.59-5.93,3-9.17-.46-2.49-2.31-4.47-3.47-6.72a13,13,0,0,1-1.27-7.55l-8.27,18.36c-9,8.72-16.12,21.56-12.21,33.46,2.79,8.45,10.48,14.3,18.35,18.45,11,5.79,23.37,9.39,35.72,8.37s24.59-7.09,31.42-17.44A76.53,76.53,0,0,0,3251.73,1832.13Z"/><path class="cls-70" d="M3217.65,1764a13,13,0,0,0-3.23,7.15Z"/></g><path class="cls-3" d="M3044,1789.27l-17.72,4.35s25.22-9.5,25.58-16.15c.3-5.51-20.18.14-27.21,2.24a.42.42,0,0,1-.36-.74c5.31-4,19.69-15.13,22.56-21.4,3.15-6.89-23.59,3.35-29.45,5.66a.38.38,0,0,1-.46-.56c1.72-2.67,6.31-10.26,8.09-17.73,2.21-9.27-23,8.2-28.6,19.32,0,0-6.3,15.75,12.3,33.6,10.08,9.67,20.1,10.33,27.17,8.91a22.19,22.19,0,0,0,15-11.1C3053.31,1791.25,3053.79,1786.87,3044,1789.27Z"/><g class="cls-71"><path class="cls-70" d="M3055.57,1771.08l-.63,2.11A13.52,13.52,0,0,0,3055.57,1771.08Z"/><path class="cls-27" d="M3054.32,1775.24l.62-2c-1.7,4.32-5.72,7.58-9.84,9.94-4.77,2.72-10,4.77-14,8.56a2.44,2.44,0,0,0-1,2,2.21,2.21,0,0,0,.91,1.24c2.56,2,6.15,2.3,9.31,1.54a32.79,32.79,0,0,0,8.81-4.13l11.81-7.06c.7-.42,1.46-.91,1.65-1.7a2.86,2.86,0,0,0-.68-2.21A17.43,17.43,0,0,0,3054.32,1775.24Z"/><path class="cls-27" d="M3038.27,1734.66c-1.75-1.36-3.83-2.73-6-2.32l-1,1.9c-3.52,9.29-11.36,16.16-17.07,24.29a11.58,11.58,0,0,0-2.23,4.68,4.5,4.5,0,0,0,1.8,4.58,6.2,6.2,0,0,0,3.84.51c8.11-.82,15.66-4.35,23-7.82,4.2-2,8.63-4.15,11.07-8.1a5.26,5.26,0,0,0,.94-3.09,6.51,6.51,0,0,0-2.17-3.68A113.2,113.2,0,0,0,3038.27,1734.66Z"/></g><path class="cls-36" d="M2542.17,1689.26h-20.71V1594c0-61.49-50.31-111.8-111.8-111.8h-22.78c-61.49,0-111.8,50.31-111.8,111.8v95.24h-16.56a18.7,18.7,0,0,0-18.64,18.64v272.26a18.7,18.7,0,0,0,18.64,18.64h283.65a18.69,18.69,0,0,0,18.63-18.64V1707.9A18.69,18.69,0,0,0,2542.17,1689.26Zm-56.94,0H2312.76l-.41-108.69c0-26.2,28.67-65.22,54.86-65.22h54.87c36.23,0,63.15,40.06,63.15,66.25Z"/><path class="cls-72" d="M2416.57,1836.92c0-.47.08-1,.08-1.43V1799a18.64,18.64,0,1,0-37.27,0v36.49a17.2,17.2,0,0,0,.1,1.91,33.79,33.79,0,1,0,37.09-.48Z"/><path class="cls-73" d="M2919.81,1531.15c-.08-32.43-1.18-62.59-2.41-89.67-1.91-40.66-4.18-74.41-4.18-98.6-93,31-184.61,22.14-263.73-1.92-44.57-13.54-85.19-31.89-119.88-50.65-20.63-11.16-39.15-22.44-55.18-33a666.77,666.77,0,0,1-62.59-46.11c-.08-.09-.2-.15-.28-.24,0-2.23-4-2.23-4,0-32.58,27.58-262.43,211.63-501.65,131.89,0,103.9-42.13,383.61,86.16,630.2a670,670,0,0,0,46.09,76,649.17,649.17,0,0,0,43,55,684,684,0,0,0,97.28,91.71c61.89,48.07,137.2,90.42,228.7,124.38,0,1.23,4.74,1.23,4.74,0q13.82-5.1,27.12-10.5,36.19-14.57,68.87-31c365.78-182.79,412.63-520.91,411.87-747.59Z"/><g class="cls-74"><g class="cls-75"><path class="cls-19" d="M2081.23,2104.16a684,684,0,0,0,97.28,91.71l471-854.91c-44.57-13.54-85.19-31.89-119.88-50.65Z"/></g><g class="cls-75"><path class="cls-19" d="M1992.11,1973.08a670,670,0,0,0,46.09,76l436.23-791.78a666.77,666.77,0,0,1-62.59-46.11Z"/></g><g class="cls-75"><path class="cls-19" d="M2439.07,2309.75q36.19-14.57,68.87-31l411.87-747.59v0l-2.41-89.67Z"/></g></g><path class="cls-14" d="M2543.56,1365.89c-13.33-6.25-25.93-12.69-37.69-19.07-24.06-13.11-44.57-26-60.49-36.9-17-11.61-28.82-20.82-34.07-25.27,0-1.92-3.46-1.92-3.46,0-14.11,11.94-75.36,57.93-159,92.25s-189.48,56.91-293.14,22.35c0,77.64-21.89,268.37,46.45,456.4,19.26,53,45.7,105.75,81.79,155.72a594.27,594.27,0,0,0,48.93,59.28q14.9,15.93,31.46,31.16c61.75,56.91,141.18,106.85,243.21,144.69,0,1.05,4.12,1.05,4.12,0,523.69-194.29,452.68-704.49,452.68-845.2C2749.1,1439.71,2630.8,1406.83,2543.56,1365.89Z"/><path class="cls-19" d="M2565.62,1673.83h-21.43v-98.58c0-63.65-52.08-115.72-115.73-115.72h-23.57c-63.65,0-115.72,52.07-115.72,115.72v98.58H2272a19.34,19.34,0,0,0-19.28,19.29v281.8a19.34,19.34,0,0,0,19.28,19.29h293.6a19.34,19.34,0,0,0,19.28-19.29v-281.8A19.34,19.34,0,0,0,2565.62,1673.83Zm-58.94,0H2328.17l-.43-112.51c0-27.11,29.68-67.5,56.79-67.5h56.79c37.5,0,65.36,41.46,65.36,68.57Z"/><path class="cls-14" d="M2435.62,1826.66c0-.49.08-1,.08-1.48v-37.77a19.29,19.29,0,1,0-38.58,0v37.77c0,.67,0,1.33.1,2a35,35,0,1,0,38.4-.5Z"/><g class="cls-76"><g class="cls-77"><path class="cls-19" d="M2407.85,1284.65c-14.11,11.94-75.36,57.93-159,92.25l-246.69,478.75c19.26,53,45.7,105.75,81.79,155.72l361.46-701.45c-17-11.61-28.82-20.82-34.07-25.27C2411.31,1282.73,2407.85,1282.73,2407.85,1284.65Z"/></g><g class="cls-77"><path class="cls-19" d="M2132.85,2070.65l31.46,31.16,379.25-735.92c-13.33-6.25-25.93-12.69-37.69-19.07Z"/></g></g><path class="cls-25" d="M2081.63,1326.1c-35.43-2.12-45.47,19-45.47,19-6,16-.12,57.85,7.19,47,5.89-8.78,9.27-20.51,10.37-24.75a.52.52,0,0,1,1-.06c3.14,8.1,17.78,44.69,21.8,35.07,3.66-8.77,1.5-33.72.56-42.8a.57.57,0,0,1,1.08-.33c4.45,9.07,17.87,35,23.16,29.59,6.38-6.57-7.57-40.94-7.57-40.94l12.16,22c6.7,12.12,10.68,7.55,12.91,1a30.5,30.5,0,0,0-2.8-25.54C2110.85,1336.77,2100.83,1327.26,2081.63,1326.1Z"/><path class="cls-3" d="M2036.16,1345.07s10-21.09,45.47-19c19.2,1.16,29.22,10.67,34.38,19.15a30.5,30.5,0,0,1,2.8,25.54c-2.23,6.54-6.21,11.11-12.91-1l-12.16-22s14,34.37,7.57,40.94c-5.29,5.46-18.71-20.52-23.16-29.59a.57.57,0,0,0-1.08.33c.94,9.08,3.1,34-.57,42.8-4,9.62-18.65-27-21.79-35.07a.52.52,0,0,0-1,.06c-1.1,4.24-4.48,16-10.37,24.75C2036,1402.92,2030.17,1361.12,2036.16,1345.07Z"/><g class="cls-78"><path class="cls-27" d="M2076.08,1390.29c-.35,1.35-1,2.9-2.39,3.14a3.58,3.58,0,0,1-2.88-1.29c-8.28-7.88-9.67-22.72-20.36-26.77a107.92,107.92,0,0,1-6.08,16.3c-.9,1.9-2.08,4-4.11,4.5-2.21.57-4.51-1.06-5.48-3.13s-.94-4.44-.88-6.73q.28-12.51.58-25a79.58,79.58,0,0,0-6.83,42.63c1.27,10.66,5,21.46,12.74,28.88s20.15,10.58,29.62,5.53c8.68-4.63,13.07-15,13.32-24.8s-2.95-19.39-6.11-28.71A41.9,41.9,0,0,1,2076.08,1390.29Z"/><path class="cls-70" d="M2034.48,1351.27c.27-.59.51-1.19.8-1.78l-.53-9.73Z"/><path class="cls-27" d="M2128.37,1356a1.74,1.74,0,0,0-1.2.76c-2.36,2.78-3.16,6.53-4.77,9.82s-4.8,6.41-8.41,5.81c-3.07-.51-5-3.46-6.62-6.14q-6-10.07-11.93-20.12a24.72,24.72,0,0,0,2.21,11.46l5.42,21.45c-1.84,1.24-1.09,4.82-3.12,5.84-1.47.73-3.14-.52-4.23-1.75-3.56-4-6.19-8.76-8.79-13.46l-8.22-14.83a9.41,9.41,0,0,0,1.2,11.53l4.62,5.54A70.32,70.32,0,0,0,2094,1398c1.16,1.89,2.5,3.81,4.48,4.81s4.78.73,6-1.15a6.59,6.59,0,0,0,.78-2.8,48.29,48.29,0,0,0-.43-13c2.49,2.73,5.66,5.68,9.29,5,2.22-.4,4-2.09,5.45-3.79a49.52,49.52,0,0,0,11.07-22.64c.53-2.7.71-5.87-1.2-7.86A1.63,1.63,0,0,0,2128.37,1356Z"/></g><path class="cls-36" d="M1798.84,1940.25c-4-1.35-8.19-2.62-12.68-3.84-2.27-.61-4.59-1.2-7-1.77-5-1.21-10.24-2.34-15.73-3.39q-10.71-2-22.58-3.61-10-1.35-20.69-2.31-8.73-.81-17.87-1.35l-3.41-.2c-10.36-.59-21.08-.91-32-1h-2.75c-5.88,0-11.7.09-17.42.24-8.48.23-16.78.61-24.85,1.16-3.41.22-6.77.47-10.1.76s-6.42.58-9.57.91l-2.15.22c-7.94.85-15.59,1.86-22.88,3l-3,.48c-7.11,1.17-13.87,2.47-20.22,3.9-1.68.37-3.32.75-5,1.15a202.74,202.74,0,0,0-27.23,8.41c-1.88.74-3.66,1.49-5.37,2.27-14.79,6.71-23.27,14.53-23.27,22.86l0,17.83v75.26l0,48.89v2.1l0,24.23,0,51v24.24l0,51V2287l0,51v24.26l0,50.93v4.8l0,22.89a12.37,12.37,0,0,0-.21,2.11,12.69,12.69,0,0,0,.21,2.12v5.53l2.23,0c3.48,5.46,10.65,11.93,20.83,18.52,1.71,1.11,3.49,2.22,5.37,3.31a215.82,215.82,0,0,0,27.23,13.53c1.63.68,3.27,1.35,5,2,7.26,2.86,15,5.57,23.25,8,5.29,1.57,10.76,3,16.4,4.4,2.83.68,5.72,1.32,8.63,1.94,6.38,1.34,12.94,2.51,19.67,3.47,8.07,1.16,16.36,2,24.85,2.53q8.36.51,16.94.55h.94c2.3,0,4.59,0,6.87-.07,10.46-.22,20.68-.93,30.57-2.07l.29,0q9.14-1,17.87-2.55,10.69-1.83,20.69-4.25c7.1-1.7,13.92-3.6,20.41-5.66.3-.09.61-.19.9-.3a247.82,247.82,0,0,0,24-9q6.73-3,12.68-6.09c1.38-.72,2.74-1.44,4.05-2.18,20.29-11.35,32.24-23.75,32.24-33.68v-474.7C1835.13,1957.65,1821.57,1947.94,1798.84,1940.25Z"/><path class="cls-45" d="M1493.09,1986v51c50.13,45.42,186.5,139.79,342,1.1v-47.24C1782.38,2034.77,1643.94,2121.71,1493.09,1986Z"/><path class="cls-45" d="M1493.11,2061.28l0,48.89v2.1c49,44.87,185.76,141.43,342,3.2v-47.3C1781.37,2112.45,1643.28,2197.44,1493.11,2061.28Z"/><path class="cls-45" d="M1493.15,2136.5l0,51c47.88,44.26,185,143.11,342,5.31v-47.37C1780.4,2190.07,1642.67,2273.17,1493.15,2136.5Z"/><path class="cls-45" d="M1493.18,2211.73l0,51c46.68,43.61,184.15,144.82,341.93,7.44v-47.44C1779.47,2267.68,1642.08,2348.89,1493.18,2211.73Z"/><path class="cls-45" d="M1493.2,2287l0,51c45.41,42.85,183.28,146.55,341.9,9.56v-47.52C1778.56,2345.22,1641.51,2424.63,1493.2,2287Z"/><path class="cls-45" d="M1493.24,2362.16l0,50.93c44.09,42,182.38,148.29,341.87,11.69v-47.59C1777.71,2422.72,1640.94,2500.36,1493.24,2362.16Z"/><g class="cls-46"><path class="cls-19" d="M1553.89,1933.5c-1.68.37-3.32.75-5,1.15a202.74,202.74,0,0,0-27.23,8.41v529.27a215.82,215.82,0,0,0,27.23,13.53c1.63.68,3.27,1.35,5,2,7.26,2.86,15,5.57,23.25,8V1929.12l-3,.48C1567,1930.77,1560.24,1932.07,1553.89,1933.5Z"/></g><g class="cls-47"><path class="cls-48" d="M1602.17,1925.89v576.35c6.38,1.34,12.94,2.51,19.67,3.47V1924.22c-3.41.22-6.77.47-10.1.76S1605.32,1925.56,1602.17,1925.89Z"/></g><g class="cls-46"><path class="cls-19" d="M1702.3,2506.62l17.87-2.55V1925.33q-8.73-.81-17.87-1.35Z"/></g><path class="cls-45" d="M1659.09,1859.55c-78.47.12-143.68,32.65-162.49,76.85a66.45,66.45,0,0,0-5.47,24.5c0,1.2-.05,2.42,0,3.62a66.72,66.72,0,0,0,3.21,18.6c3.69,11.58,10.49,22.5,19.84,32.4,16.7,17.74,41.53,32.28,71.26,41.67a262.14,262.14,0,0,0,75,11.73q2.21,0,4.41,0a277.75,277.75,0,0,0,29-1.56c1.43-.15,2.87-.32,4.28-.49l-13.43-105.8,32.85-1.78,12.89,101.46q6.72-1.74,13.13-3.82c1.51-.5,3-1,4.49-1.52a192.39,192.39,0,0,0,26.91-11.69q5.07-2.71,9.77-5.64a131.67,131.67,0,0,0,22.86-17.84c16.48-16.27,25.75-35.6,25.18-56.3C1831.22,1906.15,1753.44,1859.39,1659.09,1859.55Z"/><g class="cls-49"><path class="cls-19" d="M1731.3,1960l12.31,97c1.51-.5,3-1,4.49-1.52a192.39,192.39,0,0,0,26.91-11.69l-10.86-85.52Z"/></g><path class="cls-48" d="M1684.74,1961.1l13.43,105.8a251.17,251.17,0,0,0,32.31-6.12l-12.89-101.46Z"/><g class="cls-49"><path class="cls-19" d="M1570.36,1938.49l15.07,118.7a262.14,262.14,0,0,0,75,11.73l-17-134.4Z"/></g><path class="cls-36" d="M1810.33,1891.63c-30.84-33.54-90.83-55.35-157.81-53.18-30.22,1-58.19,6.72-82.08,16-28.65,11.07-51.44,27.22-65.2,46.26a77,77,0,0,0-12.74,27,64.66,64.66,0,0,0-1.59,20.89,66.78,66.78,0,0,0,2.62,13.65c15.32,50.94,90.25,88.23,176.9,85.43,50.36-1.64,94.46-16.48,123.86-38.8,11.81-8.94,21.23-19.09,27.74-30.07a71.18,71.18,0,0,0,9.69-27.44,65,65,0,0,0,.3-13.82C1830.6,1920.83,1822.87,1905.27,1810.33,1891.63Z"/><g class="cls-50"><path class="cls-19" d="M1490.91,1948.57a66.78,66.78,0,0,0,2.62,13.65l300.76,46.63c11.81-8.94,21.23-19.09,27.74-30.07l-329.53-51.1A64.66,64.66,0,0,0,1490.91,1948.57Z"/></g><g class="cls-50"><path class="cls-19" d="M1810.33,1891.63l-239.89-37.19c-28.65,11.07-51.44,27.22-65.2,46.26l326.48,50.64a65,65,0,0,0,.3-13.82C1830.6,1920.83,1822.87,1905.27,1810.33,1891.63Z"/></g><ellipse class="cls-45" cx="1662.97" cy="1943.06" rx="86.27" ry="140.82" transform="translate(-303.12 3578.73) rotate(-89.2)"/><path class="cls-36" d="M1766.75,1911.17c-22.66-21.09-61.67-35-105.62-35-27.15,0-52.13,5.42-72.31,14.52-20.51,9.24-36.09,22.31-44,37.52a49.44,49.44,0,0,0-5.73,20.62c-.07,1.2-.08,2.42,0,3.64a48.25,48.25,0,0,0,3.07,15.64c12.72,34.52,63.38,60.36,123.22,60.27,43.29-.07,81-13.71,102.67-34.33a68.2,68.2,0,0,0,13.46-17.37,50.11,50.11,0,0,0,5.89-20.62c.07-1.32.08-2.64.05-4C1787,1937,1779.43,1923,1766.75,1911.17Z"/><g class="cls-51"><path class="cls-19" d="M1591.05,1889.29c-20.87,8.81-37,21.55-45.47,36.57L1787,1958.72c.12-1.31.18-2.64.21-4,.18-15.09-6.83-29.29-19-41.35Z"/></g><g class="cls-51"><path class="cls-19" d="M1538.84,1950a47.75,47.75,0,0,0,2.46,15.68l224.9,30.61a70,70,0,0,0,14.14-17.08L1539,1946.34C1538.92,1947.54,1538.86,1948.76,1538.84,1950Z"/></g><path class="cls-45" d="M1734.6,1933.52a26.17,26.17,0,0,0-6.69-7.85,35.8,35.8,0,0,0-10.51-5.65,54.51,54.51,0,0,0-14.59-2.74,50.15,50.15,0,0,0-7.47,0,44.63,44.63,0,0,0-7,1.13,40.53,40.53,0,0,0-6.82,2.3,41.3,41.3,0,0,0-6.48,3.58,54.27,54.27,0,0,0-6.08,4.78q-2.93,2.64-5.35,5.24c-2.24,2.28-3.37,3.44-3.37,3.48l-44.74-2.92a14.44,14.44,0,0,1,2.21-7.71,12.51,12.51,0,0,1,6.07-4.36,45.72,45.72,0,0,1,11.52-2.18l.38-8.16-25.17-1.64a64.31,64.31,0,0,0-4.6,11.74,55.42,55.42,0,0,0-2.09,11.55L1587,1933l-.33,7,17.28,1.13a25.19,25.19,0,0,0,5.4,12.16,32.05,32.05,0,0,0,12.4,9.05,56,56,0,0,0,19.08,4.27,64.52,64.52,0,0,0,9,0,46.24,46.24,0,0,0,8.07-1.33,41.1,41.1,0,0,0,7.34-2.66,43.69,43.69,0,0,0,6.38-3.7,59,59,0,0,0,5.51-4.43q2.63-2.37,5.47-5.47l2.42-2.59,41.34,2.7a10.11,10.11,0,0,1-4.64,8.25q-4.29,2.82-13.74,3.7l-.38,8.16,24.37,1.6a72.28,72.28,0,0,0,3.34-7.35,39.71,39.71,0,0,0,1.8-6.45,62.42,62.42,0,0,0,.94-7.15l16.87,1.11.33-7-17.47-1.14A28.69,28.69,0,0,0,1734.6,1933.52Zm-88.83,17a28.48,28.48,0,0,1-11.69,1.39,29.15,29.15,0,0,1-12.22-3.1q-4.74-2.61-5.65-6.79l38.65,2.52A24.46,24.46,0,0,1,1645.77,1950.49Zm44.47-10.72a28.15,28.15,0,0,1,8.9-6.23,24.56,24.56,0,0,1,11-1.44,23.11,23.11,0,0,1,10.82,3.07,10.58,10.58,0,0,1,5.14,6.94Z"/><path class="cls-40" d="M1438.18,1638.78s-7.09,13.21-52.58,52-142,81.28-142,81.28,90.31,100.23,122.66,156.76,108,60.81,179.94,85.55,69.6,37,141.58,140.44c18.5-38,143.52-181,143.52-181s-179.4-153.57-256.66-186.23S1438.18,1638.78,1438.18,1638.78Z"/><path class="cls-41" d="M1431.07,1683.59s-26.22,16.84-66.08,50.89-97.59,42.78-97.59,42.78,103.32,93.25,131.67,142.79,94.66,53.29,157.68,75,61,32.47,124.08,123.08c16.2-33.34,121.38-127.82,121.38-127.82s-149.45-145.4-217.15-174S1431.07,1683.59,1431.07,1683.59Z"/><path class="cls-42" d="M1442.93,1697.13s-24.37,15.66-61.43,47.3-90.72,39.78-90.72,39.78,96,86.68,122.4,132.73,88,49.54,146.59,69.69,56.69,30.18,115.33,114.41c15.07-31,112.85-118.82,112.85-118.82S1649,1847.05,1586.07,1820.45,1442.93,1697.13,1442.93,1697.13Z"/><g class="cls-79"><path class="cls-44" d="M1671.77,2005.82a531.66,531.66,0,0,0-63.06-68c-34.88-31.55-75.52-60.57-93-104.24-8.58-21.47-11.15-45.76-24.76-64.44-7.81-10.73-18.72-18.77-27.49-28.72a93.55,93.55,0,0,1-21.82-75.81c-50.9,36.4-105.38,74.13-167.81,78.27-20.92,1.39-41.87-1.11-62.79-2.47-8.06-.52-17.16-.5-22.87,5.22-5,5-5.71,12.91-5.15,20,1.67,21.31,11.71,41,22.25,59.58,18.74,33.08,39.68,64.88,61.24,96.2,22.27,32.35,45.25,64.26,70.41,94.43,25.9,31,55.93,61.37,94.66,73,45.13,13.58,93.22-.47,140-6.33,8.52-1.06,17.22-1.85,25.64-.19,22.43,4.41,37.78,24.56,51,43.24l26.49,1.34q5.11-41.05,8-82.35c.56-7.86,1-16-1.58-23.42C1679.15,2015.51,1675.47,2010.58,1671.77,2005.82Z"/></g><ellipse class="cls-40" cx="1527.21" cy="1881.49" rx="62.65" ry="69.77" transform="translate(-791.84 2584.59) rotate(-67.8)"/><path class="cls-36" d="M1555,1849.61l-6,5.92c-1.12-1.07-2.23-2.06-3.34-2.94a32.42,32.42,0,0,0-3.39-2.36q-1.71-1-4.35-2.26l-8.63,8.56,3.56,3.59c2.65-1.76,4.91-2.68,6.79-2.74a7,7,0,0,1,5.22,2.26l-14.65,14.52-2-.4c-1.59-.33-3-.57-4.37-.73a33,33,0,0,0-4-.24,21.87,21.87,0,0,0-4,.37,18.89,18.89,0,0,0-3.91,1.15,19.91,19.91,0,0,0-3.64,2,26.35,26.35,0,0,0-3.44,2.9,22.74,22.74,0,0,0-5.5,8.07,15.69,15.69,0,0,0-1,8.11,17,17,0,0,0,3,7.26l-6.12,6.06,3.07,3.09,6-5.92a42.12,42.12,0,0,0,5.62,4.57,47.52,47.52,0,0,0,6.66,3.86l8.92-8.84-3.56-3.59a19.45,19.45,0,0,1-5.3,2.72,7,7,0,0,1-4.14,0,10.85,10.85,0,0,1-4.06-2.8l15.85-15.71s.93.19,2.74.5q2,.4,4.23.66a30.36,30.36,0,0,0,4.32.22,21.8,21.8,0,0,0,4-.46,18.74,18.74,0,0,0,3.56-1.14,19.22,19.22,0,0,0,3.13-1.73,20.94,20.94,0,0,0,2.86-2.39,22,22,0,0,0,4.42-5.94,16,16,0,0,0,1.65-6,15,15,0,0,0-.72-5.72,20.4,20.4,0,0,0-2.7-5.27l6.19-6.13Zm-49.15,48.71a5.88,5.88,0,0,1-.69-4.9,13.66,13.66,0,0,1,8.41-8.47,13.3,13.3,0,0,1,6-.2Zm42.82-30.58a9.52,9.52,0,0,1-2.85,4.88,10.29,10.29,0,0,1-4.79,2.88,15.41,15.41,0,0,1-6,0l12.71-12.59A6.27,6.27,0,0,1,1548.71,1867.74Z"/><path class="cls-80" d="M1821.84,2085.78c-66.72-50.83-289.12-130.26-289.12-130.26s-62,179.51-85.78,214.45c125.49,11.12,135,3,192.22,53.12s98.49,113.69,163.62,113.69,197,28.59,197,28.59-11.12-104.85,0-163.62,19.07-71.49,19.07-71.49S1888.56,2136.61,1821.84,2085.78Z"/><path class="cls-81" d="M1983.46,2158.69s-133.15-23.21-191.62-67.76-258.9-102-258.9-102-29.76,138.22-50.64,168.85c110,9.74,118.33,2.61,168.45,46.55s86.31,99.62,143.39,99.62,189.32,43.35,189.32,43.35-21.08-54.44-11.34-106S1983.46,2158.69,1983.46,2158.69Z"/><path class="cls-42" d="M1965.82,2155.12s-123.78-21.57-178.13-63S1547,1997.28,1547,1997.28s-27.67,128.49-47.08,157c102.24,9.06,110,2.43,156.59,43.27s80.23,92.61,133.29,92.61,176,40.3,176,40.3-19.6-50.61-10.54-98.49S1965.82,2155.12,1965.82,2155.12Z"/><g class="cls-82"><path class="cls-44" d="M2010.06,2324.6c-27.41-56.24-21.73-122.26-15.42-184.52a93.54,93.54,0,0,1-76.64,18.71c-13-2.67-25.39-8.14-38.57-9.59-23-2.53-45.34,7.3-68.23,10.52-46.58,6.54-92-14.32-136.66-28.91a532.52,532.52,0,0,0-90.3-21c-6-.84-12.07-1.59-18-.49-7.75,1.43-14.56,5.87-21.11,10.26q-34.35,23.05-67.47,47.88l14.32,22.33c22.76,2.16,47.87,5.47,62.84,22.75,5.62,6.48,9.26,14.42,12.56,22.34,18.15,43.5,29.84,92.22,64,124.64,29.35,27.83,70.58,38.83,110.4,45.89,38.68,6.85,77.79,10.94,116.93,14.2,37.89,3.15,75.89,5.54,113.92,5.37,21.37-.09,43.43-1.15,62.76-10.28,6.43-3,12.92-7.55,14.79-14.41,2.13-7.79-2.37-15.71-6.83-22.44C2031.82,2360.39,2019.24,2343.45,2010.06,2324.6Z"/></g><ellipse class="cls-80" cx="1763.96" cy="2173.54" rx="62.65" ry="69.77" transform="translate(-1034.83 2224.61) rotate(-51.98)"/><path class="cls-36" d="M1779.84,2143.13a44.11,44.11,0,0,0-4.21-1.44l2.17-8.14-4.2-1.12-2.25,8.42a20.1,20.1,0,0,0-5.92.28,14.71,14.71,0,0,0-5.32,2.21,16.06,16.06,0,0,0-4.34,4.39,22,22,0,0,0-3,6.79,21.47,21.47,0,0,0-.66,3.66,19.55,19.55,0,0,0,.06,3.58,18.4,18.4,0,0,0,.78,3.66,21,21,0,0,0,1.57,3.67,30.93,30.93,0,0,0,2.33,3.64q1.33,1.8,2.68,3.34c1.17,1.42,1.77,2.13,1.8,2.14l-5.77,21.56a10.88,10.88,0,0,1-4.44-2.14,6.89,6.89,0,0,1-2.08-3.58,19.29,19.29,0,0,1-.28-6l-4.88-1.3-3.25,12.12a48,48,0,0,0,6.66,3.87,42.48,42.48,0,0,0,6.77,2.61l-2.18,8.13,4.21,1.13,2.22-8.33a16.94,16.94,0,0,0,7.8-1,15.71,15.71,0,0,0,6.57-4.85,22.73,22.73,0,0,0,4.27-8.78,25.78,25.78,0,0,0,.8-4.43,19.15,19.15,0,0,0-.07-4.15,19.34,19.34,0,0,0-.94-4,22.37,22.37,0,0,0-1.67-3.64,34.87,34.87,0,0,0-2.16-3.32c-.8-1.07-1.73-2.21-2.81-3.43l-1.34-1.54,5.32-19.93a7,7,0,0,1,4.55,3.41q1.32,2.49,1,7.25l4.88,1.31,3.14-11.75q-2.39-1.66-4.12-2.65A29.85,29.85,0,0,0,1779.84,2143.13ZM1767.49,2193a12,12,0,0,1-3,5.58,5.9,5.9,0,0,1-4.59,1.84l5-18.63a13.08,13.08,0,0,1,2.79,5.29A11.78,11.78,0,0,1,1767.49,2193Zm-2.27-29.22a15.51,15.51,0,0,1-3-5.23,10.27,10.27,0,0,1,.12-5.59,9.49,9.49,0,0,1,2.81-4.89,6.26,6.26,0,0,1,4.64-1.57Z"/><path class="cls-45" d="M1163.78,2023.45l57,6.94c-.27-2.17-.62-4.3-1-6.39-.15-.74-.3-1.48-.47-2.21a84.48,84.48,0,0,0-4.24-13.57q-1.08-2.62-2.31-5.1a68.08,68.08,0,0,0-8-12.52c-7.62-9.46-17.52-16.06-29-18.39-32-6.54-64.2,22.58-71.85,65-6.37,35.31,6.22,68.73,29.06,82.73a46.61,46.61,0,0,0,13.07,5.54c.66.16,1.33.32,2,.46a45.68,45.68,0,0,0,10.51.89,49,49,0,0,0,19.51-4.86c11.15-5.29,21.21-14.63,28.83-26.83a96.68,96.68,0,0,0,12.62-32.27c.13-.66.25-1.32.38-2a105,105,0,0,0,1.52-13.26c0-.66,0-1.33.08-2l-59.46-7.24Z"/><g class="cls-49"><path class="cls-19" d="M1215.06,2008.22l-48.06-5.85-1.71,15,54.48,6.63c-.15-.74-.3-1.48-.47-2.21A84.48,84.48,0,0,0,1215.06,2008.22Z"/></g><path class="cls-48" d="M1163.78,2023.45l-1.71,15,59.46,7.24a98.82,98.82,0,0,0-.73-15.3Z"/><g class="cls-49"><path class="cls-19" d="M1140.22,2087.07l66.71,8.11a96.68,96.68,0,0,0,12.62-32.27l-75.53-9.2Z"/></g><path class="cls-36" d="M1183.08,1978.91a48.5,48.5,0,0,0-14.34-7.8,45.34,45.34,0,0,0-7.6-1.86,46.92,46.92,0,0,0-27.09,4c-21,9.66-38,33.91-42.28,64.32a98.46,98.46,0,0,0,2.09,38.92c3.76,14.28,10.8,26.56,20.17,35.14a50.76,50.76,0,0,0,13.84,9.11,45.69,45.69,0,0,0,11.39,3.34,44.91,44.91,0,0,0,7.74.53c29.36-.5,56.07-29.52,61.63-68.85,3.23-22.86-1.34-44.56-11.24-60.58A61.12,61.12,0,0,0,1183.08,1978.91Z"/><g class="cls-50"><path class="cls-19" d="M1183.08,1978.91l-55.21,141.82a45.69,45.69,0,0,0,11.39,3.34,44.91,44.91,0,0,0,7.74.53l50.39-129.43A61.12,61.12,0,0,0,1183.08,1978.91Z"/></g><g class="cls-50"><path class="cls-19" d="M1134.05,1973.24l-40.19,103.24c3.76,14.28,10.8,26.56,20.17,35.14l54.71-140.51a45.34,45.34,0,0,0-7.6-1.86A46.92,46.92,0,0,0,1134.05,1973.24Z"/></g><ellipse class="cls-45" cx="1150.33" cy="2045.98" rx="64.41" ry="48.74" transform="translate(-1042.38 2883.43) rotate(-81.56)"/><path class="cls-36" d="M1178.62,1996.91a34.6,34.6,0,0,0-10.89-5.24c-.72-.2-1.45-.37-2.19-.52a35,35,0,0,0-24.29,4.15c-13.49,7.55-24.37,23.34-27.94,43.12a70.59,70.59,0,0,0,2.08,34.35c3.41,10.39,9.35,19,17.09,24.5a34.16,34.16,0,0,0,10.9,5.17c.66.18,1.33.33,2,.47a32.4,32.4,0,0,0,8.87.59c20.09-1.39,38.5-20.94,43.35-47.87,3.52-19.48-.91-38.16-10.51-50.49A41,41,0,0,0,1178.62,1996.91Z"/><g class="cls-51"><path class="cls-19" d="M1142.6,1994.93l-27.83,76.65c3.15,10.5,8.86,19.34,16.45,25.05l37.93-104.49c-.72-.22-1.44-.42-2.18-.59A34.73,34.73,0,0,0,1142.6,1994.93Z"/></g><g class="cls-51"><path class="cls-19" d="M1179.89,1997.72,1142,2102.14c.65.2,1.32.38,2,.54a32.49,32.49,0,0,0,8.85.87l35.33-97.33A41.43,41.43,0,0,0,1179.89,1997.72Z"/></g><path class="cls-45" d="M1169,2018c-1.21-.48-2.5-.92-3.86-1.31l2-7.46-3.85-1-2.06,7.71a18.1,18.1,0,0,0-5.42.26,13.49,13.49,0,0,0-4.88,2,14.65,14.65,0,0,0-4,4,20.14,20.14,0,0,0-2.71,6.22,19.88,19.88,0,0,0-.6,3.36,17.18,17.18,0,0,0,0,3.28,17.41,17.41,0,0,0,.71,3.35,19.91,19.91,0,0,0,1.45,3.37,29.08,29.08,0,0,0,2.13,3.33c.82,1.1,1.63,2.12,2.45,3.06,1.08,1.3,1.63,1.95,1.65,2l-5.28,19.75a10,10,0,0,1-4.08-2,6.32,6.32,0,0,1-1.9-3.27,18.12,18.12,0,0,1-.26-5.46l-4.47-1.19-3,11.11a44.18,44.18,0,0,0,6.1,3.55,38.7,38.7,0,0,0,6.2,2.38l-2,7.46,3.85,1,2-7.63a15.4,15.4,0,0,0,7.15-.9,14.42,14.42,0,0,0,6-4.44,21,21,0,0,0,3.92-8,23.22,23.22,0,0,0,.73-4.06,17.19,17.19,0,0,0-.07-3.8,16.83,16.83,0,0,0-.86-3.63,20.74,20.74,0,0,0-1.52-3.34,31,31,0,0,0-2-3c-.73-1-1.58-2-2.57-3.15l-1.23-1.41,4.88-18.26a6.44,6.44,0,0,1,4.17,3.12c.8,1.52,1.11,3.74.91,6.65l4.48,1.19,2.87-10.76a43.89,43.89,0,0,0-3.77-2.42A30,30,0,0,0,1169,2018Zm-11.32,45.7a11.06,11.06,0,0,1-2.71,5.11,5.41,5.41,0,0,1-4.21,1.68l4.56-17.06a12,12,0,0,1,2.55,4.84A10.86,10.86,0,0,1,1157.68,2063.74Zm-2.07-26.78a14.14,14.14,0,0,1-2.71-4.79,9.43,9.43,0,0,1,.11-5.12,8.81,8.81,0,0,1,2.58-4.49,5.74,5.74,0,0,1,4.25-1.44Z"/><path class="cls-45" d="M3035.85,1089.13a82.25,82.25,0,0,0-4-17.44c-4.84-13.82-13.41-25.31-25.49-32.61-33.73-20.37-82-.3-107.9,44.83-21.51,37.53-20.72,80.58-.44,105.72a55.78,55.78,0,0,0,12.61,11.57c.68.45,1.37.9,2.08,1.33a54.06,54.06,0,0,0,11.59,5.26,59,59,0,0,0,24.11,2.37c14.81-1.5,30-8,43.59-18.81a116.67,116.67,0,0,0,27.38-31.56q.63-1,1.23-2.1a123.52,123.52,0,0,0,7.09-14.44c.3-.73.6-1.48.89-2.22l-64.6-32.25,8-16.35,61.95,30.93q.86-3.85,1.41-7.67c.13-.91.26-1.8.36-2.7a101.25,101.25,0,0,0,.67-17.13C3036.3,1093.59,3036.12,1091.34,3035.85,1089.13Z"/><g class="cls-49"><path class="cls-19" d="M2984.19,1069.79l-8,16.34,59.2,29.56c.13-.91.26-1.8.36-2.7a101.25,101.25,0,0,0,.67-17.13Z"/></g><path class="cls-48" d="M2964,1108.78l64.6,32.25a117.4,117.4,0,0,0,5.36-17.67L2972,1092.43Z"/><g class="cls-49"><path class="cls-19" d="M2919.53,1155.16l72.49,36.19a116.67,116.67,0,0,0,27.38-31.56l-82.07-41Z"/></g><path class="cls-36" d="M3011.94,1049.65a58.65,58.65,0,0,0-13.13-14.66,55,55,0,0,0-7.88-5.19,56.7,56.7,0,0,0-32.38-6.42c-27.8,2.48-56.85,23.17-74,56a119,119,0,0,0-13.36,45.06c-1.5,17.73,1.53,34.52,8.71,48.06a61.31,61.31,0,0,0,12,15.94,55,55,0,0,0,11.59,8.4,54.36,54.36,0,0,0,8.57,3.73c33.55,11.31,75.62-10.86,97.84-53.28,12.91-24.66,16.49-51.15,11.72-73.35A73.72,73.72,0,0,0,3011.94,1049.65Z"/><g class="cls-50"><path class="cls-19" d="M2891.9,1188.4a55,55,0,0,0,11.59,8.4,54.36,54.36,0,0,0,8.57,3.73l109.56-126.63a73.72,73.72,0,0,0-9.68-24.25Z"/></g><g class="cls-50"><path class="cls-19" d="M2958.55,1023.38l-87.39,101c-1.5,17.73,1.53,34.52,8.71,48.06L2998.81,1035a55,55,0,0,0-7.88-5.19A56.7,56.7,0,0,0,2958.55,1023.38Z"/></g><ellipse class="cls-45" cx="2947.63" cy="1112.58" rx="77.65" ry="58.76" transform="translate(580.14 3191.37) rotate(-61.96)"/><path class="cls-36" d="M2999.6,1068.28a41.65,41.65,0,0,0-10.25-10.35c-.74-.51-1.5-1-2.28-1.48-8.8-5.32-19-6.85-29.26-5.1-18.38,3.11-37.12,16.66-49.17,37.68a85,85,0,0,0-11.52,39.85c-.33,13.18,2.92,25.4,9.5,34.74a41.16,41.16,0,0,0,10.29,10.27c.68.48,1.38.92,2.09,1.36a39.18,39.18,0,0,0,9.84,4.25c23.38,6.54,52.19-8.22,68.59-36.84,11.87-20.71,14.39-43.72,8.47-61.6A49.43,49.43,0,0,0,2999.6,1068.28Z"/><g class="cls-51"><path class="cls-19" d="M2959.49,1051.47l-62.6,75.82c-.67,13.19,2.24,25.54,8.55,35.09L2990.77,1059c-.73-.54-1.47-1.06-2.23-1.56C2979.9,1051.88,2969.79,1050,2959.49,1051.47Z"/></g><g class="cls-51"><path class="cls-19" d="M2915.44,1173c.66.5,1.34,1,2,1.42a38.7,38.7,0,0,0,9.71,4.56l79.47-96.25a49.5,49.5,0,0,0-5.95-13Z"/></g><path class="cls-45" d="M2980.13,1088.4c-1.18-1-2.47-2.06-3.85-3.06l5.27-7.66-4-2.72-5.46,7.93a21.81,21.81,0,0,0-6.26-1.9,16.25,16.25,0,0,0-6.36.33,17.62,17.62,0,0,0-6.14,3,24.14,24.14,0,0,0-5.59,6,22.72,22.72,0,0,0-2.05,3.57,22.21,22.21,0,0,0-1.26,3.74,20.45,20.45,0,0,0-.55,4.1,23.93,23.93,0,0,0,.28,4.41,34.53,34.53,0,0,0,1.08,4.65q.72,2.37,1.54,4.47c.7,1.91,1.06,2.87,1.09,2.88l-14,20.31a11.94,11.94,0,0,1-3.83-3.88,7.5,7.5,0,0,1-.84-4.49,21.38,21.38,0,0,1,1.91-6.3l-4.6-3.16L2918.7,1132a53.14,53.14,0,0,0,5.49,6.49,46.81,46.81,0,0,0,6.08,5.22l-5.28,7.66,4,2.73,5.4-7.84a18.62,18.62,0,0,0,8.49,1.86,17.3,17.3,0,0,0,8.62-2.61,25,25,0,0,0,7.7-7.56,28.61,28.61,0,0,0,2.48-4.31,22,22,0,0,0,1.46-4.34,21,21,0,0,0,.48-4.48,24.42,24.42,0,0,0-.38-4.4,35.52,35.52,0,0,0-1-4.25q-.65-2.12-1.65-4.61l-.82-2.11,12.92-18.76a7.69,7.69,0,0,1,3.47,5.23q.45,3.07-1.64,7.92L2979,1107l7.62-11.06q-1.86-2.61-3.31-4.28A33.74,33.74,0,0,0,2980.13,1088.4Zm-28.91,41.23a15.13,15.13,0,0,1-7.56,10.8,6.56,6.56,0,0,1-5.47.21l12.08-17.54A14.56,14.56,0,0,1,2951.22,1129.63Zm6.05-25.17a17,17,0,0,1-1.14-6.53,11.4,11.4,0,0,1,2.19-5.77,10.67,10.67,0,0,1,4.75-4.05,6.92,6.92,0,0,1,5.41.08Z"/><path class="cls-45" d="M1198.88,1404.49c-12.08,7.29-20.66,18.78-25.49,32.61a82.88,82.88,0,0,0-4,17.44c-.26,2.21-.45,4.45-.55,6.73a100.07,100.07,0,0,0,.67,17.12c.1.9.23,1.8.36,2.71q.55,3.81,1.4,7.67l62-30.93,8,16.34-64.6,32.26.89,2.22a124.3,124.3,0,0,0,7.09,14.44q.6,1.05,1.23,2.1a116.47,116.47,0,0,0,27.38,31.55c13.59,10.77,28.78,17.32,43.59,18.81a58.83,58.83,0,0,0,24.11-2.36,54.1,54.1,0,0,0,11.59-5.27c.7-.42,1.4-.87,2.08-1.33a56,56,0,0,0,12.61-11.56c20.27-25.14,21.07-68.19-.44-105.72C1280.92,1404.19,1232.61,1384.12,1198.88,1404.49Z"/><g class="cls-49"><path class="cls-19" d="M1168.85,1461.27a100.07,100.07,0,0,0,.67,17.12c.1.9.23,1.8.36,2.71l59.2-29.56-8-16.34Z"/></g><path class="cls-48" d="M1171.28,1488.77a118.63,118.63,0,0,0,5.37,17.67l64.6-32.26-8-16.34Z"/><g class="cls-49"><path class="cls-19" d="M1185.86,1525.2a116.47,116.47,0,0,0,27.38,31.55l72.49-36.19-17.8-36.34Z"/></g><path class="cls-36" d="M1320.73,1444.75c-17.17-32.8-46.22-53.49-74-56a56.69,56.69,0,0,0-32.38,6.41,55.92,55.92,0,0,0-7.88,5.2,58.48,58.48,0,0,0-13.13,14.66,73.89,73.89,0,0,0-9.69,24.24c-4.76,22.2-1.18,48.7,11.73,73.36,22.22,42.41,64.29,64.58,97.84,53.28a54.73,54.73,0,0,0,20.16-12.13,61.36,61.36,0,0,0,12-16c7.18-13.53,10.21-30.32,8.71-48.06A118.78,118.78,0,0,0,1320.73,1444.75Z"/><g class="cls-50"><path class="cls-19" d="M1183.63,1439.3l109.57,126.64a54.73,54.73,0,0,0,20.16-12.13l-120-138.75A73.89,73.89,0,0,0,1183.63,1439.3Z"/></g><g class="cls-50"><path class="cls-19" d="M1246.71,1388.79a56.69,56.69,0,0,0-32.38,6.41,55.92,55.92,0,0,0-7.88,5.2l118.94,137.46c7.18-13.53,10.21-30.32,8.71-48.06Z"/></g><ellipse class="cls-45" cx="1257.63" cy="1477.99" rx="58.76" ry="77.65" transform="translate(-547.12 764.57) rotate(-28.04)"/><path class="cls-36" d="M1296.62,1454.44c-12-21-30.79-34.57-49.17-37.69-10.28-1.74-20.46-.21-29.26,5.11-.78.47-1.54,1-2.28,1.48a41.48,41.48,0,0,0-10.25,10.35,49.43,49.43,0,0,0-6.3,12.78c-5.92,17.88-3.4,40.89,8.47,61.6,16.4,28.62,45.21,43.38,68.59,36.83a38.82,38.82,0,0,0,9.84-4.25c.71-.43,1.41-.88,2.09-1.35a41,41,0,0,0,10.29-10.28c6.58-9.33,9.82-21.55,9.5-34.73A85,85,0,0,0,1296.62,1454.44Z"/><g class="cls-51"><path class="cls-19" d="M1245.77,1416.88c-10.3-1.43-20.41.41-29,6-.76.5-1.5,1-2.23,1.55l85.32,103.35c6.32-9.56,9.23-21.9,8.55-35.1Z"/></g><g class="cls-51"><path class="cls-19" d="M1198.6,1448.12l79.47,96.26a39.41,39.41,0,0,0,9.71-4.56c.69-.45,1.38-.93,2-1.42l-85.28-103.27A49.73,49.73,0,0,0,1198.6,1448.12Z"/></g><path class="cls-45" d="M1274.1,1489.11a21.68,21.68,0,0,1,1.91,6.3,7.58,7.58,0,0,1-.84,4.49,12,12,0,0,1-3.83,3.88l-14-20.31s.39-1,1.08-2.88c.56-1.41,1.07-2.9,1.55-4.48a33.84,33.84,0,0,0,1.08-4.65,23.82,23.82,0,0,0,.28-4.4,20.87,20.87,0,0,0-1.82-7.84,21.86,21.86,0,0,0-2-3.57,24.14,24.14,0,0,0-5.59-6,17.82,17.82,0,0,0-6.14-3,16.25,16.25,0,0,0-6.36-.33,22.15,22.15,0,0,0-6.26,1.91l-5.46-7.94-4,2.73,5.27,7.66c-1.38,1-2.67,2-3.85,3.06a32.62,32.62,0,0,0-3.22,3.22q-1.46,1.67-3.31,4.28l7.62,11.06,4.59-3.16c-1.4-3.23-1.94-5.87-1.64-7.93a7.7,7.7,0,0,1,3.47-5.23l12.92,18.77-.83,2.1c-.66,1.67-1.21,3.2-1.64,4.61a36,36,0,0,0-1,4.25,23.72,23.72,0,0,0-.38,4.41,21.12,21.12,0,0,0,.48,4.48,21.53,21.53,0,0,0,1.46,4.34,29.4,29.4,0,0,0,2.47,4.31,25.3,25.3,0,0,0,7.71,7.56,17.4,17.4,0,0,0,8.62,2.61,18.5,18.5,0,0,0,8.49-1.87l5.4,7.85,4-2.73-5.28-7.66a46.81,46.81,0,0,0,6.08-5.22,53.14,53.14,0,0,0,5.49-6.49L1278.7,1486ZM1248,1469.87l-11.21-16.27a6.92,6.92,0,0,1,5.41-.08,10.47,10.47,0,0,1,4.74,4,11.33,11.33,0,0,1,2.2,5.77A17,17,0,0,1,1248,1469.87Zm13.61,36a13.36,13.36,0,0,1-5.14-4.71A13.23,13.23,0,0,1,1254,1495a14.55,14.55,0,0,1,1-6.53l12.08,17.54A6.56,6.56,0,0,1,1261.6,1505.84Z"/></svg>