<svg id="Layer_1" data-name="Layer 1" xmlns="http://www.w3.org/2000/svg" xmlns:xlink="http://www.w3.org/1999/xlink" viewBox="0 0 4680 3120"><defs><style>.cls-1{fill:#dcf1ff;}.cls-2{fill:#4949a5;}.cls-3{fill:#ff527b;}.cls-4{fill:#2e4dce;}.cls-5{fill:#080887;}.cls-6{fill:#fff;}.cls-7{fill:#f8b3a3;}.cls-8{fill:#cfe1f9;}.cls-9{fill:#d4f0ff;}.cls-10{clip-path:url(#clip-path);}.cls-11{opacity:0.39;}.cls-12{fill:#71a6f4;}.cls-13{fill:#5d83ce;}.cls-14{clip-path:url(#clip-path-2);}.cls-15{fill:#ff5876;}.cls-16{fill:#4f4085;}.cls-17{fill:#073163;}.cls-18{fill:#1d4fbf;}.cls-19{clip-path:url(#clip-path-3);}.cls-20{fill:#d8074c;}.cls-21{fill:#ef9cac;}.cls-22{fill:#ffe9f0;}.cls-23{opacity:0.12;}.cls-24{fill:#490c1d;}.cls-25{opacity:0.32;}.cls-26{opacity:0.51;}.cls-27{opacity:0.18;}.cls-28{fill:#a80038;}.cls-29{fill:#d80053;}.cls-30{fill:#ea9d03;}.cls-31{fill:#2c86f2;}.cls-32{fill:#1b7fe2;}.cls-33{fill:#0b5aa8;}.cls-34{fill:#5a9dff;}.cls-35{fill:#b0caff;}.cls-36{clip-path:url(#clip-path-4);}.cls-37{opacity:0.49;}.cls-38{fill:#053e91;}.cls-39{fill:#f49987;}.cls-40{fill:#ed4370;}.cls-41{clip-path:url(#clip-path-5);}.cls-42{fill:#13136d;}.cls-43{clip-path:url(#clip-path-6);}.cls-44{fill:#ffdce5;}.cls-45{clip-path:url(#clip-path-7);}.cls-46{fill:#d35454;}.cls-47{fill:#0248b7;}.cls-48{opacity:0.36;}.cls-49{fill:#3378dd;}.cls-50{fill:#85bce5;}.cls-51{fill:#f5838d;}.cls-52{fill:#3289e0;}</style><clipPath id="clip-path"><path class="cls-1" d="M1310,1247.85c-74.6-302.06,139.43-727.53,603.25-778s425.19,105.57,730,163.83c327.68,62.64,660.62-63.35,817.76,92.93,329.17,327.35,160.66,699.74-90.36,870.44s-744.31,433.06-1379.83,318.06S1341.22,1374.28,1310,1247.85Z"/></clipPath><clipPath id="clip-path-2"><path class="cls-2" d="M1513.38,1479.33s-206-362.28-578.28-381.33c0,0-45.41,329.7,227.87,654.47,255.32,303.43,459.53,311.58,459.53,311.58S1707.89,1819.24,1513.38,1479.33Z"/></clipPath><clipPath id="clip-path-3"><path class="cls-3" d="M2898.79,1097.5H1853a99.72,99.72,0,0,0-63.62,22.81h0L1542.25,1284a100.19,100.19,0,0,0-59.81,91.71v1046A100.17,100.17,0,0,0,1582.6,2522H2628.42a99.87,99.87,0,0,0,73.63-32.27l237-154.23a99.94,99.94,0,0,0,27.13-17.66h0a99.91,99.91,0,0,0,32.73-74.08v-1046A100.17,100.17,0,0,0,2898.79,1097.5Z"/></clipPath><clipPath id="clip-path-4"><path class="cls-4" d="M3268.92,814.92c-.54-8.58-41.54-27.55-104.73-5.3s-253.91,243-462.29,197.87-220.81,273.22-37.56,329.6,514.11-84,598.8-179.6,94.33-149.75,101.43-224C3375.32,821.2,3268.92,814.92,3268.92,814.92Z"/></clipPath><clipPath id="clip-path-5"><path class="cls-5" d="M3154.68,1550.66l-4.75,16.92s-1.16,28.21-6,40.56-84.86,162.08,0,245.69,443.64,125.44,443.64,125.44S3596.17,1835,3695,1819.63c0,0-229.34-168.84-286.27-190l-38.83-71.8Z"/></clipPath><clipPath id="clip-path-6"><path class="cls-6" d="M3178.23,1139.89h0s-49.82-1.92-97.37,9.36c-45.85,10.87-214.63,171.55-214.63,171.55s-.56,49.24,78.87,57.67c0,0,120.6-102.5,135-94.12s69.81,283.23,69.81,283.23,121.5,73.85,220-9.75c0,0-11.19-69.65-18.25-161.88-.72-9.46,1-6.32,13.69-20.69l12.51,31s75.23,11.2,89-58.9c0,0-68.58-149.11-90.57-174.1S3273,1141.6,3231.85,1142Z"/></clipPath><clipPath id="clip-path-7"><path class="cls-7" d="M3178.23,1139.89s6.59-27.16,1.93-49.66c0,0-37.93-19.92-45.18-68.26-2.91-35.5-6.09-76.47-6.09-76.47s16.76-21.41,49.92-4.54,70.53-13.68,89.72-27.06c0,0,4.15,20.47,26.5,37.6l12.73,9.76s-8.53,115-71.36,128.2l-3.1,54.31S3206.15,1166.52,3178.23,1139.89Z"/></clipPath></defs><title>Artboard 1 copy 7</title><rect class="cls-6" width="4680" height="3120"/><ellipse class="cls-8" cx="1085.88" cy="2424.02" rx="272.67" ry="53.03"/><ellipse class="cls-8" cx="2245.65" cy="2323.29" rx="847.91" ry="325.74"/><ellipse class="cls-8" cx="3589.39" cy="2552.62" rx="296.67" ry="107.38"/><ellipse class="cls-8" cx="3313.13" cy="2403.39" rx="296.67" ry="107.38"/><path class="cls-9" d="M3258.82,660a7.6,7.6,0,0,1-1.07,0c-1,0-105.81-1.53-249.66-16.09-132.85-13.45-327.28-41.09-499.07-96.39-168-54.1-276.12-63.74-337.21-62.31-66,1.56-92.69,16-93,16.17a9.12,9.12,0,0,1-9-15.85c1.17-.67,29.38-16.46,98.85-18.48,40.05-1.17,86,2.44,136.59,10.72,63,10.31,133.4,27.93,209.36,52.38,170.28,54.82,363.34,82.25,495.31,95.6,143.07,14.48,247,16,248.07,16a9.12,9.12,0,0,1,.83,18.19Z"/><path class="cls-1" d="M1310,1247.85c-74.6-302.06,139.43-727.53,603.25-778s425.19,105.57,730,163.83c327.68,62.64,660.62-63.35,817.76,92.93,329.17,327.35,160.66,699.74-90.36,870.44s-744.31,433.06-1379.83,318.06S1341.22,1374.28,1310,1247.85Z"/><g class="cls-10"><g class="cls-11"><path class="cls-12" d="M1353.52,516.29s41.4,320.57,466.74,347.24,827.1-143.39,1024.5-10.13,856.77-287,856.77-287l93.89,771.85-171.94,541.44L2526.42,2023.8s-1097.8-133.6-1100-151.86-282-1127.57-282-1127.57Z"/></g><g class="cls-11"><path class="cls-12" d="M1289.69,838.37s41.4,320.58,466.74,347.25,827.1-143.4,1024.5-10.13,856.77-287,856.77-287l93.9,771.85-171.95,541.43L2462.6,2345.89s-1097.81-133.6-1100-151.86-282-1127.57-282-1127.57Z"/></g><g class="cls-11"><path class="cls-12" d="M1310,1118s41.39,320.57,466.73,347.25,827.11-143.4,1024.51-10.14,856.77-287,856.77-287L3751.92,1940,3580,2481.38,2482.92,2625.49s-1097.8-133.6-1100-151.86-282-1127.57-282-1127.57Z"/></g></g><rect x="736.89" y="2165.52" width="3211.11" height="33.54"/><path class="cls-13" d="M1379.32,1663.74S1121,1483.82,861,1592.07c0,0,76.36,239.55,368.37,372,272.82,123.72,414.69,62.79,414.69,62.79S1622.56,1832.13,1379.32,1663.74Z"/><path class="cls-2" d="M1513.38,1479.33s-206-362.28-578.28-381.33c0,0-45.41,329.7,227.87,654.47,255.32,303.43,459.53,311.58,459.53,311.58S1707.89,1819.24,1513.38,1479.33Z"/><g class="cls-14"><path class="cls-6" d="M1645.49,2125.82a6.25,6.25,0,0,1-5.77-3.85l-22.82-55.14c-3.93-6.69-60.75-103.15-155.42-247.79-90.15-137.72-234-348.53-407.56-570.72a6.24,6.24,0,0,1,9.84-7.68c173.81,222.56,317.93,433.71,408.21,571.65,97.84,149.48,155.34,247.63,155.91,248.61a5.39,5.39,0,0,1,.38.76l23,55.53a6.23,6.23,0,0,1-5.76,8.63Z"/></g><path class="cls-15" d="M3298.87,721.62a44.62,44.62,0,1,1,26.51-8.73A44.63,44.63,0,0,1,3298.87,721.62Zm-.1-81.67a37,37,0,1,0,29.8,15A36.85,36.85,0,0,0,3298.77,640Z"/><polygon class="cls-3" points="2977.45 731.62 2949.51 817.33 3049.39 802.49 2977.45 731.62"/><path class="cls-16" d="M3168.46,712.44h-.09l-52.75-1.29a3.84,3.84,0,0,1-3.3-5.63L3140,653.27a3.86,3.86,0,0,1,3.39-2h.1a3.85,3.85,0,0,1,3.38,2.21L3171.94,707a3.85,3.85,0,0,1-3.48,5.48ZM3122,703.62l40.33,1-19.18-40.93Z"/><rect class="cls-17" x="3375.11" y="755.16" width="42.81" height="42.8" transform="translate(1329.18 3581.1) rotate(-66.48)"/><path class="cls-6" d="M3407.59,808.57a3.89,3.89,0,0,1-1.53-.32l-39.25-17.09a3.84,3.84,0,0,1-2-2.11,3.89,3.89,0,0,1,.05-2.94l17.09-39.25a3.83,3.83,0,0,1,5.05-2L3426.21,762a3.84,3.84,0,0,1,2,5.06l-17.08,39.25a3.85,3.85,0,0,1-3.52,2.31Zm-34.19-22.92,32.2,14,14-32.21-32.2-14Z"/><path class="cls-18" d="M1412.24,1698.47a35.71,35.71,0,0,1-7.56-49.88l39.86-54.11A35.67,35.67,0,1,1,1502,1636.8l-39.87,54.11A35.68,35.68,0,0,1,1412.24,1698.47Zm70.26-95.38a15.61,15.61,0,0,0-21.8,3.3l-39.86,54.11a15.59,15.59,0,1,0,25.1,18.5l39.87-54.11A15.62,15.62,0,0,0,1482.5,1603.09Z"/><path class="cls-3" d="M2898.79,1097.5H1853a99.72,99.72,0,0,0-63.62,22.81h0L1542.25,1284a100.19,100.19,0,0,0-59.81,91.71v1046A100.17,100.17,0,0,0,1582.6,2522H2628.42a99.87,99.87,0,0,0,73.63-32.27l237-154.23a99.94,99.94,0,0,0,27.13-17.66h0a99.91,99.91,0,0,0,32.73-74.08v-1046A100.17,100.17,0,0,0,2898.79,1097.5Z"/><g class="cls-19"><polygon class="cls-20" points="2642.22 1350.12 3006.68 1097.5 3054.32 2515.29 2674.07 2596.28 2642.22 1350.12"/></g><path class="cls-21" d="M2628.42,2522H1582.6a100.17,100.17,0,0,1-100.16-100.18v-1046a100.17,100.17,0,0,1,100.16-100.18H2628.42a100.17,100.17,0,0,1,100.16,100.18v1046A100.17,100.17,0,0,1,2628.42,2522Z"/><rect class="cls-22" x="1556.98" y="1350.12" width="1097.05" height="1097.27" rx="88.18"/><g class="cls-23"><path class="cls-24" d="M1954.22,1996a34.06,34.06,0,0,1-45.18,16.57l-58.18-27a34,34,0,0,1,28.62-61.76l58.17,27A34.08,34.08,0,0,1,1954.22,1996Zm-102.55-47.53a14.91,14.91,0,0,0,7.25,19.76l58.17,27a14.88,14.88,0,0,0,12.51-27l-58.18-27A14.89,14.89,0,0,0,1851.67,1948.49Z"/><path class="cls-24" d="M1820.91,1930.46a34.06,34.06,0,0,1-45.36,16.08L1717.68,1919A34,34,0,0,1,1747,1857.5l57.87,27.59A34.08,34.08,0,0,1,1820.91,1930.46Zm-102-48.63a14.89,14.89,0,0,0,7,19.83l57.88,27.59a14.87,14.87,0,0,0,12.79-26.86l-57.87-27.59A14.89,14.89,0,0,0,1718.89,1881.83Z"/><path class="cls-24" d="M1690.88,1871.48a34.06,34.06,0,0,1-45.16,16.62l-58.21-26.89a34,34,0,0,1,28.55-61.8l58.2,26.9A34.08,34.08,0,0,1,1690.88,1871.48Zm-102.6-47.41a14.91,14.91,0,0,0,7.26,19.75l58.21,26.89a14.88,14.88,0,0,0,12.48-27L1608,1816.8A14.89,14.89,0,0,0,1588.28,1824.07Z"/><path class="cls-24" d="M1569.81,1817.36a34.06,34.06,0,0,1-46.83,11.08l-54.56-33.7a34,34,0,1,1,35.77-57.91l54.55,33.69A34.08,34.08,0,0,1,1569.81,1817.36ZM1473.65,1758a14.89,14.89,0,0,0,4.84,20.47l54.55,33.7a14.88,14.88,0,0,0,15.63-25.32l-54.55-33.7A14.89,14.89,0,0,0,1473.65,1758Z"/><path class="cls-24" d="M2011.59,2020.76c-2.86,6.45-9.65,9.69-15.17,7.25l-84.83-37.57c-5.52-2.45-7.68-9.66-4.83-16.11s9.65-9.69,15.17-7.25l84.83,37.57C2012.28,2007.1,2014.44,2014.31,2011.59,2020.76Z"/><path class="cls-24" d="M1877.63,1960.73c-3.17,6.3-10.12,9.2-15.51,6.48l-82.83-41.79c-5.39-2.72-7.19-10-4-16.33s10.12-9.19,15.51-6.47l82.83,41.78C1879,1947.12,1880.81,1954.44,1877.63,1960.73Z"/><path class="cls-24" d="M1749.64,1895.67c-2.76,6.49-9.51,9.84-15.06,7.47l-85.36-36.34c-5.56-2.36-7.83-9.54-5.06-16s9.5-9.84,15.06-7.47l85.36,36.34C1750.13,1882,1752.4,1889.18,1749.64,1895.67Z"/><path class="cls-24" d="M1619.14,1837.58c-2.94,6.41-9.77,9.57-15.26,7.06L1519.54,1806c-5.49-2.52-7.56-9.76-4.62-16.17s9.77-9.57,15.26-7l84.33,38.64C1620,1823.93,1622.08,1831.17,1619.14,1837.58Z"/></g><g class="cls-25"><path class="cls-24" d="M2750.64,1664.42l49.84-45.08a35.67,35.67,0,0,1,47.85,52.91l-49.84,45.09a35.67,35.67,0,0,1-47.85-52.92Zm63.31-30.19-49.84,45.08a15.59,15.59,0,1,0,20.91,23.13l49.84-45.08a15.59,15.59,0,0,0-20.91-23.13Z"/><path class="cls-24" d="M2858.57,1566.24l49.84-45.08a35.67,35.67,0,0,1,47.84,52.91l-49.84,45.09a35.67,35.67,0,0,1-47.84-52.92Zm63.3-30.19L2872,1581.13a15.59,15.59,0,0,0,20.92,23.13l49.84-45.08a15.59,15.59,0,0,0-20.92-23.13Z"/><g class="cls-26"><path class="cls-24" d="M2261.38,1939.72l58.18-27a34,34,0,0,1,28.61,61.76l-58.17,27a34,34,0,0,1-28.62-61.76Zm66.23-9.58-58.17,27a14.88,14.88,0,0,0,12.5,27l58.18-27a14.87,14.87,0,0,0-12.51-27Z"/><path class="cls-24" d="M2394.2,1874l57.88-27.59a34,34,0,0,1,29.28,61.45l-57.88,27.59A34,34,0,0,1,2394.2,1874Zm66.12-10.3-57.88,27.59a14.88,14.88,0,1,0,12.8,26.86l57.88-27.59a14.88,14.88,0,0,0-12.8-26.86Z"/><path class="cls-24" d="M2524.77,1815.2l58.21-26.9a34,34,0,0,1,28.54,61.79l-58.2,26.9a34,34,0,0,1-28.55-61.79Zm66.24-9.51-58.2,26.9a14.87,14.87,0,1,0,12.47,27l58.21-26.9a14.88,14.88,0,0,0-12.48-27Z"/><path class="cls-24" d="M2654.36,1755.3l54.55-33.7a34,34,0,0,1,35.76,57.92l-54.55,33.7a34,34,0,0,1-35.76-57.92Zm64.61-17.4-54.55,33.7a14.88,14.88,0,0,0,15.63,25.32l54.55-33.7A14.88,14.88,0,0,0,2719,1737.9Z"/><path class="cls-24" d="M2187.44,2009.64c2.86,6.45,9.65,9.7,15.17,7.25l84.83-37.57c5.52-2.44,7.68-9.66,4.83-16.1s-9.65-9.7-15.17-7.25l-84.83,37.57C2186.75,1996,2184.59,2003.19,2187.44,2009.64Z"/><path class="cls-24" d="M2321.4,1949.62c3.18,6.3,10.12,9.2,15.52,6.48l82.82-41.79c5.4-2.72,7.19-10,4-16.33s-10.13-9.2-15.52-6.48l-82.83,41.79C2320,1936,2318.22,1943.32,2321.4,1949.62Z"/><path class="cls-24" d="M2449.39,1884.56c2.76,6.49,9.51,9.83,15.07,7.47l85.35-36.34c5.56-2.37,7.83-9.55,5.07-16s-9.51-9.83-15.07-7.46l-85.35,36.34C2448.9,1870.89,2446.63,1878.07,2449.39,1884.56Z"/><path class="cls-24" d="M2579.89,1826.47c2.94,6.41,9.78,9.57,15.27,7l84.33-38.65c5.49-2.51,7.56-9.75,4.63-16.16s-9.77-9.57-15.26-7.06l-84.34,38.65C2579,1812.82,2577,1820.06,2579.89,1826.47Z"/><path class="cls-24" d="M2715.79,1763.15c5.44,4.49,13,4.35,16.81-.31l59-71.58c3.84-4.66,2.54-12.08-2.9-16.57s-13-4.34-16.8.32l-59,71.57C2709.05,1751.24,2710.35,1758.66,2715.79,1763.15Z"/><path class="cls-24" d="M2815.23,1654.38c4.81,5.16,12.29,6,16.71,1.87l67.8-63.32c4.42-4.12,4.1-11.64-.72-16.8s-12.29-6-16.7-1.87l-67.81,63.32C2810.09,1641.71,2810.42,1649.23,2815.23,1654.38Z"/><path class="cls-24" d="M2924,1554.51c4.81,5.15,12.29,6,16.7,1.87l67.81-63.32c4.42-4.13,4.1-11.65-.72-16.8s-12.29-6-16.7-1.87l-67.81,63.32C2918.85,1541.83,2919.17,1549.35,2924,1554.51Z"/></g></g><g class="cls-27"><path class="cls-24" d="M2234,2045.26h-8.13c0-1.33.08-2.67.08-4v-50.13a111.69,111.69,0,0,0-111.69-111.71h0a111.69,111.69,0,0,0-111.68,111.71v50.13c0,1.35,0,2.69.07,4h-8.12a27.84,27.84,0,0,0-27.84,27.85V2246.4a27.84,27.84,0,0,0,27.84,27.85H2234a27.84,27.84,0,0,0,27.84-27.85V2073.11A27.85,27.85,0,0,0,2234,2045.26Zm-45.17-5.15c0,1.73-.09,3.45-.2,5.15H2039.85c-.12-1.7-.2-3.42-.2-5.15v-47.87a74.57,74.57,0,0,1,74.56-74.57h0a74.57,74.57,0,0,1,74.57,74.57Z"/></g><rect class="cls-3" x="1931.92" y="1446.38" width="328.78" height="83.46" rx="22.6"/><path class="cls-12" d="M2095.34,1874.78h0a111.7,111.7,0,0,0-111.69,111.71v50.13a111.7,111.7,0,0,0,111.69,111.71h0A111.7,111.7,0,0,0,2207,2036.62v-50.13A111.7,111.7,0,0,0,2095.34,1874.78Zm74.56,160.71a74.57,74.57,0,0,1-74.56,74.57h0a74.57,74.57,0,0,1-74.56-74.57v-47.87a74.57,74.57,0,0,1,74.56-74.58h0a74.57,74.57,0,0,1,74.56,74.58Z"/><path class="cls-21" d="M2215.07,2269.63H1975.61a27.85,27.85,0,0,1-27.85-27.85V2068.49a27.85,27.85,0,0,1,27.85-27.85h239.46a27.85,27.85,0,0,1,27.85,27.85v173.29A27.85,27.85,0,0,1,2215.07,2269.63Z"/><ellipse class="cls-28" cx="2095.34" cy="2125.34" rx="38.67" ry="38.68"/><rect class="cls-28" x="2077.09" y="2139.05" width="37.13" height="83.55" rx="18.56"/><path class="cls-18" d="M1972.73,1963.22a34.06,34.06,0,0,1-45.18,16.57l-58.17-27a34,34,0,0,1,28.61-61.76l58.17,27A34.07,34.07,0,0,1,1972.73,1963.22Zm-102.54-47.53a14.9,14.9,0,0,0,7.24,19.76l58.17,27a14.88,14.88,0,0,0,12.51-27l-58.17-27A14.89,14.89,0,0,0,1870.19,1915.69Z"/><path class="cls-18" d="M1839.42,1897.66a34.06,34.06,0,0,1-45.35,16.08l-57.88-27.59a34,34,0,0,1,29.28-61.45l57.88,27.59A34.07,34.07,0,0,1,1839.42,1897.66Zm-102-48.64a14.89,14.89,0,0,0,7,19.83l57.88,27.6a14.88,14.88,0,0,0,12.8-26.86l-57.88-27.6A14.91,14.91,0,0,0,1737.4,1849Z"/><path class="cls-18" d="M1709.39,1838.68a34.06,34.06,0,0,1-45.16,16.62L1606,1828.4a34,34,0,0,1,28.55-61.79l58.2,26.9A34.08,34.08,0,0,1,1709.39,1838.68Zm-102.6-47.41a14.89,14.89,0,0,0,7.27,19.74l58.2,26.9a14.88,14.88,0,0,0,12.48-27l-58.2-26.9A14.9,14.9,0,0,0,1606.79,1791.27Z"/><path class="cls-18" d="M1574.26,1780.45a34.06,34.06,0,0,1-46.83,11.08l-54.55-33.7a34,34,0,0,1,35.76-57.91l54.55,33.69A34.08,34.08,0,0,1,1574.26,1780.45Zm-96.16-59.39a14.9,14.9,0,0,0,4.84,20.47l54.55,33.7a14.88,14.88,0,0,0,15.64-25.32l-54.55-33.69A14.9,14.9,0,0,0,1478.1,1721.06Z"/><path class="cls-18" d="M2030.1,1988c-2.85,6.45-9.65,9.7-15.17,7.25l-84.82-37.57c-5.52-2.44-7.69-9.65-4.83-16.1s9.65-9.7,15.17-7.25l84.82,37.57C2030.79,1974.29,2033,1981.51,2030.1,1988Z"/><path class="cls-18" d="M1896.15,1927.93c-3.18,6.3-10.13,9.2-15.52,6.48l-82.83-41.79c-5.39-2.72-7.19-10-4-16.33s10.12-9.2,15.51-6.48l82.83,41.79C1897.52,1914.32,1899.32,1921.63,1896.15,1927.93Z"/><path class="cls-18" d="M1768.15,1862.87c-2.76,6.49-9.5,9.83-15.06,7.47L1667.73,1834c-5.56-2.37-7.82-9.55-5.06-16s9.51-9.83,15.06-7.46l85.36,36.34C1768.65,1849.2,1770.91,1856.38,1768.15,1862.87Z"/><path class="cls-18" d="M1637.65,1804.78c-2.94,6.41-9.77,9.57-15.26,7l-84.34-38.65c-5.49-2.51-7.56-9.75-4.62-16.16s9.77-9.57,15.26-7.06l84.34,38.65C1638.52,1791.13,1640.59,1798.37,1637.65,1804.78Z"/><path class="cls-18" d="M1501.76,1741.46c-5.44,4.49-13,4.35-16.81-.31l-59-71.58c-3.84-4.66-2.55-12.08,2.89-16.56s13-4.35,16.81.31l59,71.58C1508.49,1729.56,1507.2,1737,1501.76,1741.46Z"/><path class="cls-18" d="M2944.9,1439.55l49.85-45.08a35.67,35.67,0,0,1,47.84,52.91l-49.84,45.09a35.67,35.67,0,0,1-47.85-52.92Zm63.31-30.19-49.84,45.09a15.59,15.59,0,1,0,20.91,23.13l49.85-45.09a15.59,15.59,0,0,0-20.92-23.13Z"/><path class="cls-18" d="M2235.94,1918l58.17-27a34,34,0,0,1,28.62,61.76l-58.18,27a34,34,0,0,1-28.61-61.76Zm66.22-9.58-58.17,27a14.88,14.88,0,0,0,12.51,27l58.17-27a14.88,14.88,0,0,0-12.51-27Z"/><path class="cls-18" d="M2368.75,1852.29l57.88-27.59a34,34,0,0,1,29.28,61.45L2398,1913.74a34,34,0,0,1-29.28-61.45Zm66.12-10.3-57.88,27.6a14.88,14.88,0,0,0,12.8,26.86l57.88-27.6a14.88,14.88,0,0,0-12.8-26.86Z"/><path class="cls-18" d="M2499.33,1793.51l58.2-26.9a34,34,0,0,1,28.55,61.79l-58.21,26.9a34,34,0,0,1-28.54-61.79Zm66.24-9.51-58.21,26.9a14.88,14.88,0,0,0,12.48,27L2578,1811a14.87,14.87,0,1,0-12.47-27Z"/><path class="cls-18" d="M2628.91,1733.61l54.55-33.69a34,34,0,0,1,35.76,57.91l-54.55,33.7a34,34,0,0,1-35.76-57.92Zm64.62-17.39L2639,1749.91a14.88,14.88,0,0,0,15.63,25.32l54.55-33.7a14.87,14.87,0,1,0-15.63-25.31Z"/><path class="cls-18" d="M2162,1988c2.86,6.45,9.65,9.7,15.17,7.25l84.82-37.57c5.53-2.44,7.69-9.65,4.83-16.1s-9.64-9.7-15.17-7.25l-84.82,37.57C2161.31,1974.29,2159.15,1981.51,2162,1988Z"/><path class="cls-18" d="M2296,1927.93c3.17,6.3,10.12,9.2,15.51,6.48l82.83-41.79c5.39-2.72,7.19-10,4-16.33s-10.12-9.2-15.51-6.48L2300,1911.6C2294.58,1914.32,2292.78,1921.63,2296,1927.93Z"/><path class="cls-18" d="M2424,1862.87c2.76,6.49,9.51,9.83,15.06,7.47l85.36-36.34c5.56-2.37,7.82-9.55,5.06-16s-9.5-9.83-15.06-7.46L2429,1846.84C2423.45,1849.2,2421.19,1856.38,2424,1862.87Z"/><path class="cls-18" d="M2554.45,1804.78c2.94,6.41,9.77,9.57,15.26,7l84.34-38.65c5.49-2.51,7.56-9.75,4.62-16.16s-9.77-9.57-15.26-7.06l-84.34,38.65C2553.58,1791.13,2551.51,1798.37,2554.45,1804.78Z"/><path class="cls-18" d="M2690.34,1741.46c5.44,4.49,13,4.35,16.81-.31l59-71.58c3.84-4.66,2.55-12.08-2.89-16.56s-13-4.35-16.81.31l-59,71.58C2683.61,1729.56,2684.9,1737,2690.34,1741.46Z"/><path class="cls-18" d="M2789.78,1632.7c4.82,5.15,12.3,6,16.71,1.87l67.81-63.32c4.41-4.13,4.09-11.65-.72-16.8s-12.29-6-16.71-1.87l-67.81,63.32C2784.65,1620,2785,1627.54,2789.78,1632.7Z"/><path class="cls-18" d="M2898.54,1532.82c4.81,5.15,12.3,6,16.71,1.87l67.81-63.32c4.41-4.13,4.09-11.65-.72-16.8s-12.29-6-16.71-1.87L2897.82,1516C2893.41,1520.14,2893.73,1527.66,2898.54,1532.82Z"/><path class="cls-18" d="M2729.38,1637.16l49.84-45.09a35.67,35.67,0,0,1,47.85,52.92l-49.85,45.08a35.67,35.67,0,0,1-47.84-52.91Zm63.31-30.19-49.85,45.08a15.59,15.59,0,0,0,20.92,23.13l49.84-45.08a15.59,15.59,0,1,0-20.91-23.13Z"/><path class="cls-18" d="M2837.3,1539l49.85-45.09a35.67,35.67,0,0,1,47.84,52.92l-49.84,45.08A35.67,35.67,0,0,1,2837.3,1539Zm63.31-30.19-49.84,45.08a15.59,15.59,0,1,0,20.91,23.13l49.84-45.08a15.59,15.59,0,1,0-20.91-23.13Z"/><ellipse class="cls-3" cx="2085.8" cy="1709.8" rx="111.92" ry="111.94"/><ellipse class="cls-6" cx="2085.8" cy="1709.8" rx="92.09" ry="92.11"/><polygon class="cls-3" points="2136.97 1679.87 2162.72 1679.87 2142.96 1696.49 2136.97 1679.87"/><ellipse class="cls-29" cx="2085.8" cy="1709.8" rx="64.04" ry="64.05"/><path class="cls-30" d="M3098,2253c0-41.51,87.18-75.17,194.7-75.17s194.7,33.66,194.7,75.17a28.76,28.76,0,0,1-.25,3.83v0c-5.23,39.71-90.29,71.3-194.45,71.3s-189.1-31.54-194.43-71.21A30.87,30.87,0,0,1,3098,2253Z"/><path class="cls-31" d="M3293.08,2440.67c-155.68,0-282-48.53-282.94-108.56,0-.23.67-49.54.67-49.77,0-4.56-.18-12,.27-18.74,16.64,57.08,137.15,98.61,281.63,98.61s263.68-41.81,280.87-95.81a44.58,44.58,0,0,1,2.12,13.46c0,2.74.1,57-.42,59.69C3564.52,2396.09,3442.27,2440.67,3293.08,2440.67Z"/><path class="cls-30" d="M3292.71,2328.12c-104.09,0-189.1-31.54-194.43-71.21a30.87,30.87,0,0,1-.27-4c0-41.51,87.18-75.17,194.7-75.17s194.7,33.66,194.7,75.17a28.76,28.76,0,0,1-.25,3.83v0C3481.93,2296.53,3396.87,2328.12,3292.71,2328.12Z"/><path class="cls-32" d="M3292.71,2328.12c-104.09,0-189.1-31.54-194.43-71.21a30.87,30.87,0,0,1-.27-4c0-41.51,87.18-75.17,194.7-75.17s194.7,33.66,194.7,75.17a28.76,28.76,0,0,1-.25,3.83v0C3481.93,2296.53,3396.87,2328.12,3292.71,2328.12Z"/><path class="cls-33" d="M3573.58,2266.4c.27-.83.49-1.66.71-2.49s.41-1.67.58-2.5v0c.17-.89.32-1.76.44-2.65,0-.06,0-.13,0-.19.1-.73.17-1.44.22-2.16a6.64,6.64,0,0,0,0-.77c.07-.87.1-1.76.1-2.64,0-60.34-126.71-109.26-283-109.26s-283,48.92-283,109.26c0,.88,0,1.77.1,2.64,0,.26,0,.51,0,.77.05.72.12,1.43.22,2.16a.62.62,0,0,0,0,.19c.13.89.27,1.76.44,2.65v0c.17.83.37,1.67.59,2.5s.44,1.66.7,2.49c17.19,54,136.37,95.81,280.85,95.81S3556.39,2320.4,3573.58,2266.4ZM3098,2253c0-41.51,87.18-75.17,194.7-75.17s194.7,33.66,194.7,75.17a28.76,28.76,0,0,1-.25,3.83v0c-5.23,39.71-90.29,71.3-194.45,71.3s-189.1-31.54-194.43-71.21A30.87,30.87,0,0,1,3098,2253Z"/><path class="cls-34" d="M3292.7,2328.12c-104.09,0-189.1-31.54-194.43-71.21,3.14-18,90.18-54.93,194.44-54.93s188.3,31.81,194.44,54.8v0C3481.92,2296.53,3396.86,2328.12,3292.7,2328.12Z"/><path class="cls-30" d="M3098,2162.5c0-41.52,87.18-75.18,194.7-75.18s194.7,33.66,194.7,75.18a28.87,28.87,0,0,1-.25,3.83v0c-5.23,39.7-90.29,71.3-194.45,71.3s-189.1-31.54-194.43-71.22A30.72,30.72,0,0,1,3098,2162.5Z"/><path class="cls-31" d="M3293.08,2350.22c-155.68,0-282-48.54-282.94-108.57,0-.22.67-49.54.67-49.77,0-4.55-.18-12,.27-18.73,16.64,57.07,137.15,98.6,281.63,98.6s263.68-41.8,280.87-95.8a44.52,44.52,0,0,1,2.12,13.45c0,2.74.1,57-.42,59.69C3564.52,2305.64,3442.27,2350.22,3293.08,2350.22Z"/><path class="cls-30" d="M3292.71,2237.67c-104.09,0-189.1-31.54-194.43-71.22a30.72,30.72,0,0,1-.27-3.95c0-41.52,87.18-75.18,194.7-75.18s194.7,33.66,194.7,75.18a28.87,28.87,0,0,1-.25,3.83v0C3481.93,2206.07,3396.87,2237.67,3292.71,2237.67Z"/><path class="cls-32" d="M3292.71,2237.67c-104.09,0-189.1-31.54-194.43-71.22a30.72,30.72,0,0,1-.27-3.95c0-41.52,87.18-75.18,194.7-75.18s194.7,33.66,194.7,75.18a28.87,28.87,0,0,1-.25,3.83v0C3481.93,2206.07,3396.87,2237.67,3292.71,2237.67Z"/><path class="cls-33" d="M3573.58,2176c.27-.83.49-1.67.71-2.5s.41-1.67.58-2.5v0c.17-.89.32-1.77.44-2.66,0-.06,0-.13,0-.19.1-.72.17-1.44.22-2.15a6.78,6.78,0,0,0,0-.77c.07-.88.1-1.77.1-2.64,0-60.35-126.71-109.26-283-109.26s-283,48.91-283,109.26c0,.87,0,1.76.1,2.64,0,.25,0,.51,0,.77.05.71.12,1.43.22,2.15a.62.62,0,0,0,0,.19c.13.89.27,1.77.44,2.66v0c.17.83.37,1.67.59,2.5s.44,1.67.7,2.5c17.19,54,136.37,95.8,280.85,95.8S3556.39,2230,3573.58,2176ZM3098,2162.5c0-41.52,87.18-75.18,194.7-75.18s194.7,33.66,194.7,75.18a28.87,28.87,0,0,1-.25,3.83v0c-5.23,39.7-90.29,71.3-194.45,71.3s-189.1-31.54-194.43-71.22A30.72,30.72,0,0,1,3098,2162.5Z"/><path class="cls-34" d="M3292.7,2237.67c-104.09,0-189.1-31.54-194.43-71.22,3.14-18,90.18-54.93,194.44-54.93s188.3,31.82,194.44,54.81v0C3481.92,2206.07,3396.86,2237.67,3292.7,2237.67Z"/><path class="cls-30" d="M3098,2073.3c0-41.52,87.18-75.18,194.7-75.18s194.7,33.66,194.7,75.18a28.87,28.87,0,0,1-.25,3.83v0c-5.23,39.7-90.29,71.3-194.45,71.3s-189.1-31.54-194.43-71.22A30.72,30.72,0,0,1,3098,2073.3Z"/><path class="cls-31" d="M3293.08,2261c-155.68,0-282-48.54-282.94-108.57,0-.22.67-49.54.67-49.77,0-4.55-.18-11.95.27-18.73,16.64,57.07,137.15,98.6,281.63,98.6s263.68-41.8,280.87-95.8a44.52,44.52,0,0,1,2.12,13.45c0,2.74.1,57-.42,59.69C3564.52,2216.44,3442.27,2261,3293.08,2261Z"/><path class="cls-30" d="M3292.71,2148.47c-104.09,0-189.1-31.54-194.43-71.22a30.72,30.72,0,0,1-.27-3.95c0-41.52,87.18-75.18,194.7-75.18s194.7,33.66,194.7,75.18a28.87,28.87,0,0,1-.25,3.83v0C3481.93,2116.87,3396.87,2148.47,3292.71,2148.47Z"/><path class="cls-32" d="M3292.71,2148.47c-104.09,0-189.1-31.54-194.43-71.22a30.72,30.72,0,0,1-.27-3.95c0-41.52,87.18-75.18,194.7-75.18s194.7,33.66,194.7,75.18a28.87,28.87,0,0,1-.25,3.83v0C3481.93,2116.87,3396.87,2148.47,3292.71,2148.47Z"/><path class="cls-33" d="M3573.58,2086.75c.27-.83.49-1.67.71-2.5s.41-1.67.58-2.5v0c.17-.89.32-1.77.44-2.66,0-.06,0-.13,0-.19.1-.72.17-1.44.22-2.15a6.78,6.78,0,0,0,0-.77c.07-.88.1-1.77.1-2.64,0-60.35-126.71-109.26-283-109.26s-283,48.91-283,109.26c0,.87,0,1.76.1,2.64,0,.25,0,.51,0,.77.05.71.12,1.43.22,2.15a.62.62,0,0,0,0,.19c.13.89.27,1.77.44,2.66v0c.17.83.37,1.67.59,2.5s.44,1.67.7,2.5c17.19,54,136.37,95.8,280.85,95.8S3556.39,2140.75,3573.58,2086.75ZM3098,2073.3c0-41.52,87.18-75.18,194.7-75.18s194.7,33.66,194.7,75.18a28.87,28.87,0,0,1-.25,3.83v0c-5.23,39.7-90.29,71.3-194.45,71.3s-189.1-31.54-194.43-71.22A30.72,30.72,0,0,1,3098,2073.3Z"/><path class="cls-34" d="M3292.7,2148.47c-104.09,0-189.1-31.54-194.43-71.22,3.14-18,90.18-54.93,194.44-54.93s188.3,31.82,194.44,54.81v0C3481.92,2116.87,3396.86,2148.47,3292.7,2148.47Z"/><path class="cls-30" d="M3098,1986.52c0-41.51,87.18-75.17,194.7-75.17s194.7,33.66,194.7,75.17a28.91,28.91,0,0,1-.25,3.84v0c-5.23,39.71-90.29,71.31-194.45,71.31s-189.1-31.55-194.43-71.22A30.75,30.75,0,0,1,3098,1986.52Z"/><path class="cls-31" d="M3293.08,2174.24c-155.68,0-282-48.53-282.94-108.56,0-.23.67-49.54.67-49.77,0-4.55-.18-12,.27-18.73,16.64,57.07,137.15,98.6,281.63,98.6s263.68-41.8,280.87-95.8a44.52,44.52,0,0,1,2.12,13.45c0,2.74.1,57-.42,59.69C3564.52,2129.67,3442.27,2174.24,3293.08,2174.24Z"/><path class="cls-30" d="M3292.71,2061.7c-104.09,0-189.1-31.55-194.43-71.22a30.75,30.75,0,0,1-.27-4c0-41.51,87.18-75.17,194.7-75.17s194.7,33.66,194.7,75.17a28.91,28.91,0,0,1-.25,3.84v0C3481.93,2030.1,3396.87,2061.7,3292.71,2061.7Z"/><path class="cls-32" d="M3292.71,2061.7c-104.09,0-189.1-31.55-194.43-71.22a30.75,30.75,0,0,1-.27-4c0-41.51,87.18-75.17,194.7-75.17s194.7,33.66,194.7,75.17a28.91,28.91,0,0,1-.25,3.84v0C3481.93,2030.1,3396.87,2061.7,3292.71,2061.7Z"/><path class="cls-33" d="M3573.58,2000c.27-.83.49-1.67.71-2.5s.41-1.67.58-2.5v0c.17-.88.32-1.76.44-2.65,0-.06,0-.13,0-.19.1-.72.17-1.44.22-2.16a6.47,6.47,0,0,0,0-.76c.07-.88.1-1.77.1-2.65,0-60.34-126.71-109.25-283-109.25s-283,48.91-283,109.25c0,.88,0,1.77.1,2.65,0,.25,0,.51,0,.76.05.72.12,1.44.22,2.16a.62.62,0,0,0,0,.19c.13.89.27,1.77.44,2.65v0c.17.83.37,1.67.59,2.5s.44,1.67.7,2.5c17.19,54,136.37,95.8,280.85,95.8S3556.39,2054,3573.58,2000ZM3098,1986.52c0-41.51,87.18-75.17,194.7-75.17s194.7,33.66,194.7,75.17a28.91,28.91,0,0,1-.25,3.84v0c-5.23,39.71-90.29,71.31-194.45,71.31s-189.1-31.55-194.43-71.22A30.75,30.75,0,0,1,3098,1986.52Z"/><path class="cls-34" d="M3292.7,2061.7c-104.09,0-189.1-31.55-194.43-71.22,3.14-18,90.18-54.93,194.44-54.93s188.3,31.81,194.44,54.81v0C3481.92,2030.1,3396.86,2061.7,3292.7,2061.7Z"/><path class="cls-30" d="M3098,1897.55c0-41.52,87.18-75.18,194.7-75.18s194.7,33.66,194.7,75.18a28.87,28.87,0,0,1-.25,3.83v0c-5.23,39.71-90.29,71.3-194.45,71.3s-189.1-31.54-194.43-71.22A30.72,30.72,0,0,1,3098,1897.55Z"/><path class="cls-31" d="M3293.08,2085.27c-155.68,0-282-48.54-282.94-108.56,0-.23.67-49.55.67-49.78,0-4.55-.18-12,.27-18.73,16.64,57.07,137.15,98.6,281.63,98.6s263.68-41.8,280.87-95.8a44.52,44.52,0,0,1,2.12,13.45c0,2.74.1,57-.42,59.69C3564.52,2040.69,3442.27,2085.27,3293.08,2085.27Z"/><path class="cls-30" d="M3292.71,1972.72c-104.09,0-189.1-31.54-194.43-71.22a30.72,30.72,0,0,1-.27-4c0-41.52,87.18-75.18,194.7-75.18s194.7,33.66,194.7,75.18a28.87,28.87,0,0,1-.25,3.83v0C3481.93,1941.13,3396.87,1972.72,3292.71,1972.72Z"/><path class="cls-32" d="M3292.71,1972.72c-104.09,0-189.1-31.54-194.43-71.22a30.72,30.72,0,0,1-.27-4c0-41.52,87.18-75.18,194.7-75.18s194.7,33.66,194.7,75.18a28.87,28.87,0,0,1-.25,3.83v0C3481.93,1941.13,3396.87,1972.72,3292.71,1972.72Z"/><path class="cls-35" d="M3573.58,1911c.27-.83.49-1.67.71-2.5s.41-1.67.58-2.49v0c.17-.89.32-1.77.44-2.66,0-.06,0-.13,0-.19.1-.72.17-1.43.22-2.15a6.64,6.64,0,0,0,0-.77c.07-.88.1-1.77.1-2.64,0-60.35-126.71-109.26-283-109.26s-283,48.91-283,109.26c0,.87,0,1.76.1,2.64,0,.26,0,.51,0,.77.05.72.12,1.43.22,2.15a.62.62,0,0,0,0,.19c.13.89.27,1.77.44,2.66v0c.17.82.37,1.66.59,2.49s.44,1.67.7,2.5c17.19,54,136.37,95.8,280.85,95.8S3556.39,1965,3573.58,1911ZM3098,1897.55c0-41.52,87.18-75.18,194.7-75.18s194.7,33.66,194.7,75.18a28.87,28.87,0,0,1-.25,3.83v0c-5.23,39.71-90.29,71.3-194.45,71.3s-189.1-31.54-194.43-71.22A30.72,30.72,0,0,1,3098,1897.55Z"/><path class="cls-34" d="M3292.7,1972.72c-104.09,0-189.1-31.54-194.43-71.22,3.14-18,90.18-54.92,194.44-54.92s188.3,31.81,194.44,54.8v0C3481.92,1941.13,3396.86,1972.72,3292.7,1972.72Z"/><path class="cls-7" d="M3443.05,1354.21s20.77,55,36.76,53.53,97.31-39.75,150.05-49.2,106.6-18.25,137.19,18.39,29.11,105.61-14.84,88.66-63-70.92-63-70.92-201.3,94.09-229.22,94.59-74.81-96.45-74.81-96.45Z"/><path class="cls-7" d="M3778.09,1402.74l5.17,4.14s3.86,21.91-19.21,26.47-54.29-2.62-60-42.86l20-5.33Z"/><path class="cls-4" d="M3268.92,814.92c-.54-8.58-41.54-27.55-104.73-5.3s-253.91,243-462.29,197.87-220.81,273.22-37.56,329.6,514.11-84,598.8-179.6,94.33-149.75,101.43-224C3375.32,821.2,3268.92,814.92,3268.92,814.92Z"/><g class="cls-36"><g class="cls-37"><path class="cls-38" d="M2520.94,1239.25s140.66,59.91,334.07,0S3128.89,945.5,3128.89,945.5s2.56-29,57.75-23.61,83-38,80.84-57.85c0,0,17.82,63.22,50.54,77.88s21.66,87.54,7.32,121.15-73.49,129-73.49,129l-285,279.35s-276.93-42.94-281.32-42.94S2520.94,1239.25,2520.94,1239.25Z"/></g></g><path class="cls-39" d="M3482.31,2417.73c12.89-80.56,197.65-311.6,258.88-424.37S3695,1819.63,3695,1819.63l-24.44-7.08-129.71,82,93.46,67.84c-28.2,16.11-122.46,165.19-153.08,257s-64.45,193.39-64.45,193.39,6,27.26,64.74,26.93A89.17,89.17,0,0,1,3482.31,2417.73Z"/><path class="cls-40" d="M3416.78,2412.87c-38.67,18.54-51.56,96.7-51.56,96.7L3391,2527.3l18.53-25.79s.81,12.89,18.53,45.12,108.76,74.94,125.68,37.88c15.32-33.56-66.19-77-72.22-144.71C3422.8,2440.13,3416.78,2412.87,3416.78,2412.87Z"/><path class="cls-7" d="M3664.7,2461.57c-22.31-78.47,47.66-365.93,55.57-494s-115.19-138-115.19-138l-25.15,3.9L3497,1962.61l113.35,22c-18.76,26.52-41.29,201.46-30.28,297.66l23.2,202.53s17,22.17,70.06-2.93A88.44,88.44,0,0,1,3664.7,2461.57Z"/><path class="cls-40" d="M3603.25,2484.83c-27.23,33.13-5.93,109.43-5.93,109.43l30.85,5.18,5.92-31.2s6.17,11.35,35.84,33.09,130.22,22,129.92-18.74c-.28-36.88-92.51-41.86-126.54-100.69C3620.21,2507,3603.25,2484.83,3603.25,2484.83Z"/><path class="cls-5" d="M3154.68,1550.66l-4.75,16.92s-1.16,28.21-6,40.56-84.86,162.08,0,245.69,443.64,125.44,443.64,125.44S3596.17,1835,3695,1819.63c0,0-229.34-168.84-286.27-190l-38.83-71.8Z"/><g class="cls-41"><path class="cls-42" d="M3280.41,1580.24s-121.24,97.85-62.08,165.26,409.34,143.85,409.34,143.85l-18.86,115.88-218.44-14.56-299-137.17-58.33-226.39,77-93.44Z"/></g><path class="cls-6" d="M3178.23,1139.89h0s-49.82-1.92-97.37,9.36c-45.85,10.87-214.63,171.55-214.63,171.55s-.56,49.24,78.87,57.67c0,0,120.6-102.5,135-94.12s69.81,283.23,69.81,283.23,121.5,73.85,220-9.75c0,0-11.19-69.65-18.25-161.88-.72-9.46,1-6.32,13.69-20.69l12.51,31s75.23,11.2,89-58.9c0,0-68.58-149.11-90.57-174.1S3273,1141.6,3231.85,1142Z"/><g class="cls-43"><path class="cls-44" d="M3022.15,1130.14s-154.47,199.28-95.14,264.38l-108.14-76.72L2977,1164.18Z"/><path class="cls-44" d="M3074.26,1287.73l.24-13.65s27.74-4.68,46.63,57.92,42.18,75.47,100.86,48.12,60.23,19.71,14.36,73.4,148.78,157.62,147.12,157.31-244.12,44.26-243.89,42.07-105-135.21-105-135.21Z"/><path class="cls-44" d="M3363.2,1385.23l2.14-10s13.48-18.6,16.17-43.76-23.93-65.22-31.75-96.48L3409.84,1365s31.26,32.74,25.39,41-60.56,16.61-60.56,16.61Z"/></g><path class="cls-7" d="M3178.23,1139.89s6.59-27.16,1.93-49.66c0,0-37.93-19.92-45.18-68.26-2.91-35.5-6.09-76.47-6.09-76.47s16.76-21.41,49.92-4.54,70.53-13.68,89.72-27.06c0,0,4.15,20.47,26.5,37.6l12.73,9.76s-8.53,115-71.36,128.2l-3.1,54.31S3206.15,1166.52,3178.23,1139.89Z"/><g class="cls-45"><path class="cls-46" d="M3113.21,952.67s.66,16.6,32.24,15.63,79.45,11.4,113.31-27.68c0,0,22.14,50.15,57.3,45.92l9.77-53.09L3236.62,882l-104.85,43Z"/><path class="cls-46" d="M3176.22,1094l3.94-3.78s16.73,4.92,39.53,2.8c0,0-14,16.93-42,14.33Z"/></g><path class="cls-7" d="M2887.67,1320.83s143.28-13.92,265.94-25.51c0,0,18.2-21.59,39.78-32.3s39.18-35.17,39.48-17.61-20.12,30.82-20.12,30.82,30.38-2.3,37.51,13.45-10,71.93-45.83,65.66-48.55-16.53-48.55-16.53-91.2,21.77-147.14,34.41-150.83,46.43-158.69-10.83C2844.9,1324.88,2887.67,1320.83,2887.67,1320.83Z"/><path class="cls-47" d="M2686,1012.21a2.88,2.88,0,0,1-.43-5.73c11-1.68,21.31-3.23,31-4.7,87.67-13.22,127.68-19.25,189.84-45.3,88.09-36.93,208.52-114.39,209.73-115.17a2.88,2.88,0,0,1,3.12,4.84c-1.21.78-122.06,78.51-210.63,115.64-62.81,26.33-105.72,32.8-191.2,45.69-9.74,1.46-20.06,3-31,4.7A3.25,3.25,0,0,1,2686,1012.21Z"/><g class="cls-48"><path class="cls-17" d="M2740.91,1077.34A318.62,318.62,0,0,1,2634.19,1059a2.4,2.4,0,1,1,1.6-4.53c218.24,77,412.18-111,485.19-181.73l6.24-6.05c66.57-64.23,102.3-45.89,103.79-45.08a2.4,2.4,0,0,1-2.29,4.22c-.21-.1-8.67-4.36-24.69-1.2-15.08,3-40.08,13.29-73.48,45.52q-2.94,2.83-6.23,6c-36.05,34.94-103.15,100-188.92,146.68C2868.75,1059.15,2803.68,1077.34,2740.91,1077.34Z"/></g><g class="cls-48"><path class="cls-17" d="M2707.31,1203.47a364.28,364.28,0,0,1-82.39-9.59,2.4,2.4,0,0,1,1.08-4.68c261.07,60.43,439.9-188.78,498.66-270.67l2.28-3.17c34.9-48.59,60.08-61.63,75.06-64,11.48-1.82,17.49,2.47,17.75,2.66a2.4,2.4,0,0,1-2.82,3.88h0c-.29-.2-7.11-4.81-20.94-.08-13.18,4.5-35.18,18.63-65.15,60.35l-2.28,3.17c-31.68,44.16-90.66,126.34-175.7,191.32C2873.77,1173.09,2791.48,1203.47,2707.31,1203.47Z"/></g><polygon class="cls-49" points="3812.81 1408.26 3480.1 1392.81 3467.73 1404.53 3459.98 1800.85 3792.69 1816.29 3805.06 1804.58 3812.81 1408.26"/><polygon class="cls-50" points="3805.06 1804.58 3472.35 1789.13 3480.1 1392.81 3812.81 1408.26 3805.06 1804.58"/><path class="cls-51" d="M3622.69,1390.89c3.7-4,2.49-8.34-1.48-24.21s9.51-32.58,35.92-28.72,19.13,28.43,16.34,34.44-4.95,14.25-1.82,20.1Z"/><ellipse class="cls-6" cx="3648.99" cy="1358.54" rx="12.81" ry="9.71" transform="matrix(0.99, -0.1, 0.1, 0.99, -118.53, 375.42)"/><polygon class="cls-6" points="3505.76 1418.14 3786.82 1431.18 3784.82 1781.26 3498.96 1767.99 3505.76 1418.14"/><path class="cls-51" d="M3578.53,1424.64l1-30.54a9.51,9.51,0,0,1,9.75-8.93l114.73,5.32a7.39,7.39,0,0,1,7.19,7.92l-1.68,30.51a9.52,9.52,0,0,1-9.74,8.76l-114.08-5.3A7.37,7.37,0,0,1,3578.53,1424.64Z"/><path class="cls-52" d="M3759.75,1455.33l-233.33-10.83a1.89,1.89,0,0,1-1.82-2.23,2.44,2.44,0,0,1,2.47-2l233.33,10.83a1.89,1.89,0,0,1,1.82,2.23A2.43,2.43,0,0,1,3759.75,1455.33Z"/><path class="cls-52" d="M3760.35,1486.56l-235.08-10.91a1.9,1.9,0,0,1-1.82-2.24,2.46,2.46,0,0,1,2.47-2L3761,1482.29a1.9,1.9,0,0,1,1.81,2.23A2.45,2.45,0,0,1,3760.35,1486.56Z"/><path class="cls-52" d="M3761,1517.79l-236.83-11a1.89,1.89,0,0,1-1.82-2.23,2.43,2.43,0,0,1,2.47-2l236.83,11a1.89,1.89,0,0,1,1.82,2.23A2.45,2.45,0,0,1,3761,1517.79Z"/><path class="cls-52" d="M3761.55,1549,3523,1537.94a1.9,1.9,0,0,1-1.81-2.23,2.45,2.45,0,0,1,2.47-2l238.58,11.08A1.89,1.89,0,0,1,3764,1547,2.43,2.43,0,0,1,3761.55,1549Z"/><path class="cls-52" d="M3762.15,1580.24l-240.34-11.16a1.89,1.89,0,0,1-1.81-2.23,2.43,2.43,0,0,1,2.47-2L3762.8,1576a1.9,1.9,0,0,1,1.82,2.24A2.45,2.45,0,0,1,3762.15,1580.24Z"/><path class="cls-52" d="M3762.75,1611.47l-242.09-11.24a1.89,1.89,0,0,1-1.81-2.23,2.45,2.45,0,0,1,2.47-2l242.08,11.24a1.89,1.89,0,0,1,1.82,2.23A2.45,2.45,0,0,1,3762.75,1611.47Z"/><path class="cls-52" d="M3763.35,1642.69l-243.84-11.31a1.91,1.91,0,0,1-1.82-2.24,2.44,2.44,0,0,1,2.47-2L3764,1638.43a1.89,1.89,0,0,1,1.82,2.23A2.43,2.43,0,0,1,3763.35,1642.69Z"/><path class="cls-52" d="M3764,1673.92l-245.59-11.4a1.89,1.89,0,0,1-1.82-2.23,2.46,2.46,0,0,1,2.47-2l245.59,11.4a1.9,1.9,0,0,1,1.82,2.24A2.46,2.46,0,0,1,3764,1673.92Z"/><path class="cls-52" d="M3764.55,1705.15l-247.34-11.48a1.9,1.9,0,0,1-1.82-2.24,2.45,2.45,0,0,1,2.47-2l247.34,11.48a1.89,1.89,0,0,1,1.82,2.23A2.45,2.45,0,0,1,3764.55,1705.15Z"/><path class="cls-52" d="M3765.15,1736.37l-249.09-11.56a1.89,1.89,0,0,1-1.82-2.23,2.44,2.44,0,0,1,2.47-2l249.09,11.56a1.89,1.89,0,0,1,1.82,2.23A2.44,2.44,0,0,1,3765.15,1736.37Z"/><path class="cls-52" d="M3765.75,1767.6,3514.91,1756a1.9,1.9,0,0,1-1.82-2.24,2.46,2.46,0,0,1,2.47-2l250.84,11.64a1.9,1.9,0,0,1,1.82,2.24A2.45,2.45,0,0,1,3765.75,1767.6Z"/><ellipse class="cls-31" cx="1060.08" cy="2104.42" rx="328.08" ry="328.14"/><ellipse class="cls-35" cx="1095.59" cy="2104.42" rx="328.08" ry="328.14"/><path class="cls-32" d="M1321,2104.43c0,124.52-100.93,225.46-225.43,225.46a229.22,229.22,0,0,1-26.88-1.58c111.81-13.3,198.52-108.46,198.52-223.88s-86.71-210.59-198.52-223.89a229.22,229.22,0,0,1,26.88-1.58C1220.09,1879,1321,1979.9,1321,2104.43Z"/><path class="cls-34" d="M1267.23,2104.43c0,115.42-86.71,210.58-198.52,223.88-111.82-13.3-198.54-108.46-198.54-223.88s86.72-210.59,198.54-223.89C1180.52,1893.84,1267.23,1989,1267.23,2104.43Z"/><path class="cls-33" d="M1186.21,2135.57a49.6,49.6,0,0,0-11-24,60.63,60.63,0,0,0-19.86-14.94c-11.88-5.86-24.64-9.08-37.45-12.07-1.66-.39-2-1-2-2.5,0-8.84,0-17.69,0-26.53v-4.21q0-11.37,0-22.74c0-1-.32-2.09,1.46-1.35,8.22,3.43,14.8,8.76,19.16,16.58a3.33,3.33,0,0,0,3.42,2c15,0,30-.25,45,.15.87,0,1-.31,1-1.13a47.15,47.15,0,0,0-4.59-18.4c-6.46-13.4-17-22.81-29.73-29.93a104.3,104.3,0,0,0-33.68-12c-1.49-.25-2.17-.82-2.14-2.56.13-7.09,0-14.18.09-21.27,0-1.75-.47-2.26-2.23-2.25q-13.79.13-27.57,0c-1.81,0-2.42.4-2.38,2.32.12,6.67,0,13.34.06,20,0,1.29-.16,2.11-1.77,2.17a82.1,82.1,0,0,0-17.74,2.94c-14.27,3.79-26.48,11-36.14,22.19-12,13.88-17.16,29.89-14.68,48.22a60.58,60.58,0,0,0,14.71,32,80.26,80.26,0,0,0,31.64,22,122.91,122.91,0,0,0,21.72,6.3c1.05.21,2.3.14,2.29,2-.08,17.76-.05,35.52,0,53.28,0,1.35-.39,1.8-1.75,1.26-8.82-3.48-16-8.85-20.54-17.4a2.06,2.06,0,0,0-2.08-1.35q-22.51.06-45,0c-1.37,0-1.81.41-1.77,1.8a43,43,0,0,0,4.44,17.57c6.39,13.47,17.07,22.74,29.75,29.91A107,107,0,0,0,1082,2215.8c1.61.28,1.9.91,1.89,2.32,0,7.09,0,14.18-.06,21.26,0,1.8.57,2.23,2.28,2.21,9.19-.07,18.38-.09,27.58,0,1.88,0,2.35-.54,2.32-2.37-.1-6.81,0-13.62,0-20.43,0-1,0-1.91,1.4-2.08a116.41,116.41,0,0,0,29.59-7.45c10.42-4.1,19.34-10.23,26-19.24C1185,2173.79,1189.7,2155.62,1186.21,2135.57ZM1082,2074.87c-10.6-5.4-15.52-14.2-15.37-25.88.14-10.4,5.21-17.89,14.24-22.83.25-.13.5-.25.76-.36,2.23-1,2.27-.93,2.27,1.5v23.17c0,7.72,0,15.44,0,23.16C1083.92,2075.34,1083.66,2075.73,1082,2074.87ZM1122.1,2172a22.55,22.55,0,0,1-3.85,2.14c-2,1-2.29.76-2.3-1.41v-23.13q0-11.57,0-23.12c0-2.21.08-2.27,2.06-1.3,9.12,4.49,13.92,12,15.18,21.91C1134.53,2157.58,1130.32,2165.68,1122.1,2172Z"/></svg>