<svg xmlns="http://www.w3.org/2000/svg" xmlns:xlink="http://www.w3.org/1999/xlink" viewBox="0 0 4680 3120"><defs><style>.cls-1{fill:none;}.cls-2{fill:#649987;}.cls-13,.cls-3{fill:#fff;}.cls-3{opacity:0;}.cls-4{fill:#ffe8c2;}.cls-5{fill:#e8e8e8;}.cls-6{clip-path:url(#clip-path);}.cls-7{fill:#c1c1c1;}.cls-8{clip-path:url(#clip-path-2);}.cls-9{fill:#0d8389;}.cls-10{clip-path:url(#clip-path-3);}.cls-11{fill:#508773;}.cls-12{fill:#f4c887;}.cls-14{fill:#e83640;}.cls-15{clip-path:url(#clip-path-4);}.cls-16{fill:#d68e8e;}.cls-17{fill:#aa5757;}.cls-18{clip-path:url(#clip-path-5);}.cls-19{fill:#e4ecf2;}.cls-20{fill:#c99a85;}.cls-21{fill:#3e566b;}.cls-22{fill:#4f6b7f;}.cls-23{fill:#1b3a43;}.cls-24{fill:#ffbca9;}.cls-25{clip-path:url(#clip-path-6);}.cls-26{fill:#ff8b74;}.cls-27{clip-path:url(#clip-path-7);}.cls-28{clip-path:url(#clip-path-8);}.cls-29{clip-path:url(#clip-path-9);}.cls-30{fill:#fc9fad;}.cls-31{clip-path:url(#clip-path-10);}.cls-32{fill:#e57389;}.cls-33{fill:#9d1107;}.cls-34{clip-path:url(#clip-path-11);}.cls-35{fill:#7a0d0a;}.cls-36{clip-path:url(#clip-path-12);}.cls-37{fill:#7a1a10;}.cls-38{fill:#f97f76;}.cls-39{clip-path:url(#clip-path-13);}.cls-40{clip-path:url(#clip-path-14);}.cls-41{fill:#11282d;}.cls-42{fill:#326350;}.cls-43{clip-path:url(#clip-path-15);}.cls-44{fill:#182551;}.cls-45{clip-path:url(#clip-path-16);}.cls-46{fill:#0a1535;}.cls-47{clip-path:url(#clip-path-17);}.cls-48{fill:#2d6b9e;}.cls-49{clip-path:url(#clip-path-18);}.cls-50{clip-path:url(#clip-path-19);}.cls-51{fill:#c1e0ec;}</style><clipPath id="clip-path"><path class="cls-1" d="M1486.48,379.85c-16.61-5.2-35.65-9.74-52.07-1.4-19.41,9.87-28.51,35.32-38.4,53.26L1360,497.11c-6,10.9-12.09,21.76-18,32.7-4.88,9-8,16.68-6.16,27,2.61,14.92,25.41,9,22.8-5.89-1.09-6.22,8.58-18.07,11.38-23.16l13.52-24.52,28.18-51.1c8.35-15.15,15.59-33.06,26.51-46.54,10.74-13.24,28-7.39,41.9-3.06C1494.53,407,1500.94,384.38,1486.48,379.85Z"/></clipPath><clipPath id="clip-path-2"><path class="cls-1" d="M1859.1,502c-9-8.38-22.87-12.67-33.8-17.93l-40-19.28c-13.55-6.53-25.87,13.56-12.22,20.14,21.27,10.25,43.13,19.75,64,30.84,9.84,5.23,8.34,11.25,5.58,21.14-3.17,11.36-7.12,22.58-11.24,33.63-16.72,44.77-40.13,86.74-68.53,125.14-9,12.19,11.2,24.3,20.14,12.21a532.49,532.49,0,0,0,77-147.65C1866,542.08,1875.7,517.45,1859.1,502Z"/></clipPath><clipPath id="clip-path-3"><path class="cls-2" d="M1884.06,1351.54c-3-5.5-9.7-8.8-16.2-4a697.72,697.72,0,0,1-191.75,99.87c-70.06,23.48-149,41.19-222.53,24.62a202.07,202.07,0,0,1-54.94-20.94c-34.74-22.74-60.51-56.71-71.12-100.12-17.91-73.32,7-148.4,32.22-216.8q45.72-124.17,92-248.17c30.31,14.59,63.71,23.46,96.19,24,58.85,1,104.71-37.85,145.12-76.26a581.77,581.77,0,0,0,112.87-149.47c4.63-8.76-26.3-26.5-31.31-17a561,561,0,0,1-87.22,122.18,541.55,541.55,0,0,1-55.53,51.44c-21.06,16.86-43.75,33-70.92,37.65-41.72,7.16-87.57-6.81-124.72-28.21-2.14-1.38-4.26-2.77-6.33-4.19-42.19-28.91-66.07-71.18-73.74-121.39-4.33-28.31-5.44-57.28-5.86-85.89-.42-29,1.69-58.3,15.39-84.45,4.61-8.78-26.33-26.53-31.3-17.05-12.83,24.48-17.07,51.46-17.86,78.82a647.72,647.72,0,0,0,3.66,87.08c5.88,54.87,24.68,105.22,67.52,141.76a243.76,243.76,0,0,0,32.9,23.56q-44.16,119.15-88.32,238.29c-27,72.89-54.74,150.2-40.78,229.06,10.47,59.14,44.43,106.78,94.63,135.32a208.15,208.15,0,0,0,41.77,20.86c74.33,27.35,156.24,15.43,230.69-5.2a717.1,717.1,0,0,0,232.64-113.39C1901.39,1366,1894,1350.88,1884.06,1351.54Z"/></clipPath><clipPath id="clip-path-4"><path class="cls-1" d="M3392.67,1713.92c-215.63-125-311.16,71.83-311.16,71.83l-.25-.14s110.34-188.95-113.57-298.46c-190.1-93-385.82,113-270.05,468.76,90,276.65,117.18,312.19,123.2,316.67a2.25,2.25,0,0,0,.55.36,2.12,2.12,0,0,0,.6.25c7.08,2.52,51.71,5.28,331.65-74C3513.61,2097.33,3575.74,1820.06,3392.67,1713.92Z"/></clipPath><clipPath id="clip-path-5"><rect class="cls-1" x="1611.58" y="854.85" width="1140.87" height="1604.4"/></clipPath><clipPath id="clip-path-6"><path class="cls-1" d="M1509.84,2342.18S1480.54,2474,1486,2506.44s20.61,40.56-.69,40.56-54.26-22.31-68.91-64.89,4.58-36,0-64.9-5.61-94.3-5.61-94.3Z"/></clipPath><clipPath id="clip-path-7"><path class="cls-1" d="M1677.24,2328.29s-40.63,153.44-21.2,183.47,70.66,37.1,56.53,47.7-121.89-13.59-136-25.35-15.72-195.47-15.72-195.47Z"/></clipPath><clipPath id="clip-path-8"><path class="cls-1" d="M1730.11,2030.17l11,337.71s-76.93-17.15-185.46,0c-64,10.11-59.07-30.34-166-29.9-55.22.23-88.19-12.31-88.19-12.31S1402,2046,1403,1972.13s51.53-370.61,51.53-370.61l214.23,12.14Z"/></clipPath><clipPath id="clip-path-9"><path class="cls-1" d="M1890.83,1505.25c15.22,1.53,13.6-24.73,27.27-40.42s37.49-28.77,45-29.84.54,21.17-6.7,25.91,24.78-12.14,34.37-19,22.45-10.16,21.29-5.66-5.59,10-5.59,10,13-3.66,16.57-1.33-2.67,10.33-2.67,10.33,11.85.66,4.16,9.49a142.42,142.42,0,0,1-13.09,13.44s6.23-3.2,7.59,3.16-14.82,17.8-14.82,17.8-55.13,37.61-60.39,40.67C1892.21,1569.85,1875.6,1503.71,1890.83,1505.25Z"/></clipPath><clipPath id="clip-path-10"><path class="cls-1" d="M1587.39,1252.48l34.52,17.89,20.2,274.75v93.41s-115.32,8.25-159.28,0S1433.38,1257,1433.38,1257l62.73-8.16Z"/></clipPath><clipPath id="clip-path-11"><path class="cls-1" d="M1510.08,1011.26s54-30.74,97.8-1.87,50.29,88.48-8.39,122-178.82,67.06-145.29-66.13C1323.05,1045.94,1458.86,936.75,1510.08,1011.26Z"/></clipPath><clipPath id="clip-path-12"><path class="cls-1" d="M1474,1128.7c8.43-12.77,21.2-7.35,28.77-1.18,10.91-15.76,24.92-30.64,23.94-67.76,39.1,22.85,98.56,27.42,110.66,14.4,0,0-3,76.18-7.29,101.24s-8.76,44.2-49,50c-.43.07-.85.09-1.28.15.35,9.57,1.91,22.45,7.51,26.93,9.31,7.45-20.93,59.3-30.25,63s-61-66.68-61-66.68,13.11-40.55,12.92-60.42a68.37,68.37,0,0,1-9.36-15.25c-8.94,3.13-19.34-2.8-25.77-12.33C1466.45,1149.79,1467.79,1138.15,1474,1128.7Z"/></clipPath><clipPath id="clip-path-13"><path class="cls-1" d="M1389.42,1784.15c5.49,29.32-69.6,384.65-69.6,384.65s20.14-1.84,89.74,12.83,98.91,0,98.91,0S1525,1938,1528.63,1848.25c2-48.77-1.42-143-6.73-234.09-4.45-76.6-10.24-151-15.25-194.52-11-95.23-37.83-170.81-37.83-170.81-24.89,3.93-46.71,10.41-65.33,19.92-33.88,17.17-57.21,44.15-69,83.14-8.24,27.2-25.64,238.09-14.65,290.3S1383.92,1754.83,1389.42,1784.15Z"/></clipPath><clipPath id="clip-path-14"><path class="cls-1" d="M1612.24,1601.52c2.17,22,4.84,43.19,8,63.11,11,70.07,20.44,313.22,21.9,332.45s0,166.23,0,166.23,72.89-12.37,99,0,34.81,0,34.81,0-18.33-219.8-31.16-294.89-42.12-226.23-42.12-226.23,45.34,10.08,81.06-9.15,148.36-79.68,148.36-79.68-30.22-42.59-28.85-59.07-120,33-134.19,24.73-43-39.84-44.4-79.68c-1-28.27-16-99.68-55.83-142.84-16.26-17.64-36.65-30.58-61.9-33.91,0,0,3.19,92.37,0,168.89C1604.63,1486.27,1606.8,1546.19,1612.24,1601.52Z"/></clipPath><clipPath id="clip-path-15"><path class="cls-1" d="M2824.23,1878s-10.62,157.49,0,215.89,33.62,387.54,33.62,422.93v58.39h134.49s19.46-403.46,0-468.93-10.62-198.2-10.62-198.2Z"/></clipPath><clipPath id="clip-path-16"><path class="cls-1" d="M2916.74,932.15s-3-24.86-42.18-18.29-51.24,37-70.36,38.24-30.41,15.47-23.21,27.11,5.35,20.74,6.21,32.08,52.08,18.07,52.08,18.07,80.79,124.69,101.53,119.34,21.36-18,21.36-18,5.18-19.52,24.39-36.94,35.71-80.89,17.89-106.47S2946.78,924.43,2916.74,932.15Z"/></clipPath><clipPath id="clip-path-17"><path class="cls-1" d="M2962.46,1130.67s-8.12,7.38-19.48-5.89a125.85,125.85,0,0,1-10.34-15,35.7,35.7,0,0,0,4.8-4.94c10.58-13.22,10.2-31.12-.86-40-7.69-6.15-18.5-6.3-27.93-1.39a158,158,0,0,1-8.19-22.71c-5.92-23.59-7.41-36.38-7.41-36.38s-23.46,3.1-30.64-23.38-44.44,35.27-63.27,23.05c0,0,5.38,27.45,9.38,54.13s-28.89,49.44-21.65,53,23.3.07,24.15,4.35,7.91,62.53,34.61,65.24,29.79-2,34.34,6-.92,41-.92,41,89.15-22.25,110.89-19.07C2973.7,1179.63,2962.46,1130.67,2962.46,1130.67Z"/></clipPath><clipPath id="clip-path-18"><path class="cls-1" d="M2657.25,1498.52s-15-26.37-37.56-33.53-33.19-10.72-35.69-8.34,15,17.88,15,17.88-23.79-4.77-42-10.13-25.67-2.39-19.41,3.57,33.81,21.36,33.81,21.36-32.56-17.78-38.82-14.8,28.18,28.21,28.18,28.21-26.3-16.71-31.93-13.22,30.05,26.73,30.05,26.73-20.66-11.32-23.79-7.15,30,26.82,45.07,31,70.58,21.78,70.58,21.78Z"/></clipPath><clipPath id="clip-path-19"><path class="cls-1" d="M3086.09,1700.49c-24.42-214.12,61.53-304.54-55.41-469.56,0,0-11.27-44.14-24.42-44.14a35,35,0,0,0-7.92,1.15l0,0c-15.83,3.77-43.14,16.57-73.74,32-36.62,18.49-48.83,20.36-59.16,42.9s-32.87,36.63-40.39,99.55c-6.12,51.33-16.64,101.4-20.28,138a.39.39,0,0,1,0,.15c-.09,1-.19,2-.28,3v.08c-.17,1.8-.32,3.58-.45,5.31-.36,5-.56,9.73-.56,14.11,0,36.62-9.25,25.35-9.25,25.35l-138.05-61.83-25,80.85s105.61,100.25,187.31,106.82c-6.39,13.35-25.08,260.92-25.08,304.72,105.38,17.69,316.41,4.35,314-15.93C3096.31,1870.11,3110.5,1914.6,3086.09,1700.49Z"/></clipPath></defs><title>09</title><g id="_09" data-name="09"><rect id="_09-2" data-name="09" class="cls-3" width="4680" height="3120"/><path class="cls-4" d="M3275.49,722.58c-249.45-123.19-472-112.66-638.21-66.64-190.69,52.81-373.79-27.12-561.33-91.1C902,164.36,347.37,2108.54,2121,2258.63,4185.3,2433.3,3808.17,985.62,3275.49,722.58Z"/><path class="cls-5" d="M1486.48,379.85c-16.61-5.2-35.65-9.74-52.07-1.4-19.41,9.87-28.51,35.32-38.4,53.26L1360,497.11c-6,10.9-12.09,21.76-18,32.7-4.88,9-8,16.68-6.16,27,2.61,14.92,25.41,9,22.8-5.89-1.09-6.22,8.58-18.07,11.38-23.16l13.52-24.52,28.18-51.1c8.35-15.15,15.59-33.07,26.51-46.54,10.74-13.24,28-7.39,41.9-3.06C1494.53,407,1500.94,384.38,1486.48,379.85Z"/><g class="cls-6"><path class="cls-7" d="M1498.38,392.06c-16.6-5.2-35.65-9.74-52.07-1.4-19.4,9.87-28.51,35.32-38.4,53.26l-36.06,65.4c-6,10.9-12.09,21.76-18,32.7-4.87,9-8,16.68-6.16,27,2.62,14.92,25.41,9,22.81-5.89-1.09-6.22,8.57-18.07,11.37-23.16l13.53-24.52,28.17-51.1c8.36-15.15,15.59-33.06,26.51-46.54,10.74-13.24,28-7.39,41.91-3C1506.43,419.24,1512.85,396.59,1498.38,392.06Z"/></g><path class="cls-5" d="M1859.1,502c-9-8.38-22.88-12.67-33.8-17.93l-40-19.28c-13.55-6.53-25.87,13.56-12.22,20.14,21.27,10.25,43.13,19.75,64,30.84,9.84,5.23,8.34,11.25,5.58,21.14-3.17,11.36-7.12,22.58-11.24,33.63-16.72,44.77-40.13,86.74-68.53,125.14-9,12.19,11.2,24.3,20.14,12.21a532.49,532.49,0,0,0,77-147.65C1866,542.08,1875.7,517.45,1859.1,502Z"/><g class="cls-8"><path class="cls-7" d="M1840.78,502c-9-8.38-22.87-12.67-33.79-17.93l-40-19.28c-13.55-6.53-25.86,13.56-12.22,20.14,21.27,10.25,43.14,19.75,64,30.84,9.83,5.23,8.34,11.25,5.58,21.14-3.17,11.36-7.12,22.58-11.25,33.63-16.71,44.77-40.12,86.74-68.52,125.14-9,12.19,11.19,24.3,20.14,12.21a532.73,532.73,0,0,0,77-147.65C1847.72,542.08,1857.38,517.45,1840.78,502Z"/></g><path class="cls-9" d="M1884.06,1351.54c-3-5.5-9.7-8.8-16.2-4a697.72,697.72,0,0,1-191.75,99.87c-70.06,23.48-149,41.19-222.53,24.62a202.07,202.07,0,0,1-54.94-20.94c-34.74-22.74-60.51-56.71-71.12-100.12-17.91-73.32,7-148.4,32.22-216.8q45.72-124.19,92-248.17c30.31,14.59,63.71,23.46,96.19,24,58.85,1,104.71-37.85,145.12-76.26a581.77,581.77,0,0,0,112.87-149.47c4.63-8.76-26.3-26.5-31.31-17a561,561,0,0,1-87.22,122.18,541.55,541.55,0,0,1-55.53,51.44c-21.06,16.86-43.75,33-70.92,37.65-41.72,7.16-87.57-6.81-124.72-28.21-2.14-1.37-4.26-2.77-6.33-4.19-42.19-28.91-66.07-71.18-73.74-121.39-4.33-28.31-5.44-57.28-5.86-85.89-.42-29,1.69-58.3,15.39-84.45,4.61-8.78-26.33-26.53-31.3-17.05-12.83,24.48-17.07,51.46-17.86,78.82a647.72,647.72,0,0,0,3.66,87.08c5.87,54.87,24.68,105.22,67.52,141.76a244.29,244.29,0,0,0,32.89,23.56q-44.15,119.15-88.31,238.29c-27,72.89-54.74,150.2-40.78,229.06,10.47,59.14,44.43,106.78,94.63,135.32a208.15,208.15,0,0,0,41.77,20.86c74.33,27.35,156.24,15.43,230.69-5.2a717.1,717.1,0,0,0,232.64-113.39C1901.39,1366,1894,1350.88,1884.06,1351.54Z"/><path class="cls-2" d="M1884.06,1351.54c-3-5.5-9.7-8.8-16.2-4a697.72,697.72,0,0,1-191.75,99.87c-70.06,23.48-149,41.19-222.53,24.62a202.07,202.07,0,0,1-54.94-20.94c-34.74-22.74-60.51-56.71-71.12-100.12-17.91-73.32,7-148.4,32.22-216.8q45.72-124.17,92-248.17c30.31,14.59,63.71,23.46,96.19,24,58.85,1,104.71-37.85,145.12-76.26a581.77,581.77,0,0,0,112.87-149.47c4.63-8.76-26.3-26.5-31.31-17a561,561,0,0,1-87.22,122.18,541.55,541.55,0,0,1-55.53,51.44c-21.06,16.86-43.75,33-70.92,37.65-41.72,7.16-87.57-6.81-124.72-28.21-2.14-1.38-4.26-2.77-6.33-4.19-42.19-28.91-66.07-71.18-73.74-121.39-4.33-28.31-5.44-57.28-5.86-85.89-.42-29,1.69-58.3,15.39-84.45,4.61-8.78-26.33-26.53-31.3-17.05-12.83,24.48-17.07,51.46-17.86,78.82a647.72,647.72,0,0,0,3.66,87.08c5.88,54.87,24.68,105.22,67.52,141.76a243.76,243.76,0,0,0,32.9,23.56q-44.16,119.15-88.32,238.29c-27,72.89-54.74,150.2-40.78,229.06,10.47,59.14,44.43,106.78,94.63,135.32a208.15,208.15,0,0,0,41.77,20.86c74.33,27.35,156.24,15.43,230.69-5.2a717.1,717.1,0,0,0,232.64-113.39C1901.39,1366,1894,1350.88,1884.06,1351.54Z"/><g class="cls-10"><path class="cls-11" d="M1895.58,1365.23c-3-5.49-9.7-8.8-16.2-4a698,698,0,0,1-191.75,99.87c-70.06,23.48-149,41.19-222.53,24.61a201.92,201.92,0,0,1-54.94-20.93c-34.75-22.74-60.51-56.71-71.12-100.12-17.91-73.33,7-148.4,32.21-216.8q45.74-124.18,92-248.18c30.31,14.6,63.71,23.46,96.19,24,58.85,1,104.7-37.85,145.12-76.26A581.5,581.5,0,0,0,1817.39,698c4.64-8.76-26.29-26.5-31.3-17a560.43,560.43,0,0,1-87.23,122.17,538.18,538.18,0,0,1-55.52,51.44c-21.06,16.87-43.75,33-70.92,37.66-41.72,7.16-87.57-6.81-124.72-28.21-2.14-1.38-4.26-2.77-6.33-4.19-42.19-28.91-66.07-71.19-73.74-121.39-4.33-28.31-5.44-57.29-5.86-85.89-.42-29,1.68-58.3,15.39-84.46,4.61-8.78-26.33-26.52-31.3-17-12.83,24.48-17.07,51.45-17.86,78.82a647.78,647.78,0,0,0,3.65,87.08c5.88,54.87,24.69,105.22,67.53,141.76a244.29,244.29,0,0,0,32.89,23.56q-44.16,119.14-88.31,238.29c-27,72.89-54.74,150.2-40.78,229.06,10.47,59.13,44.43,106.78,94.63,135.31a207.4,207.4,0,0,0,41.77,20.87c74.33,27.35,156.24,15.43,230.69-5.21a716.88,716.88,0,0,0,232.64-113.38C1912.91,1379.65,1905.48,1364.57,1895.58,1365.23Z"/></g><path class="cls-12" d="M1538.89,374.28l-49-13.88a10.49,10.49,0,0,0-12.92,7.21L1467,403a10.49,10.49,0,0,0,7.21,12.93l49,13.89a10.5,10.5,0,0,0,12.93-7.22l10-35.36A10.5,10.5,0,0,0,1538.89,374.28Z"/><rect class="cls-12" x="1746.72" y="433.72" width="57.69" height="75.36" rx="10.47" transform="translate(837.58 2050.96) rotate(-74.17)"/><ellipse class="cls-4" cx="2324.79" cy="2576.88" rx="1229.94" ry="183.12"/><path class="cls-13" d="M1214.65,1529a32.61,32.61,0,0,0-11.12,3.37l-43.16,22.12v0l-47.22,24.19a32.82,32.82,0,0,0,30,58.4l44.94-23.08,45.44-23.28a32.8,32.8,0,0,0-18.86-61.76Z"/><path class="cls-14" d="M1160.37,1554.5l-47.22,24.19a32.82,32.82,0,0,0,30,58.4l44.94-23.08C1157.17,1597.17,1160.24,1556.22,1160.37,1554.5Z"/><path class="cls-13" d="M2985.06,536.21a110.36,110.36,0,0,0-37.2,12.8l-149.08,83.67L2648,717.09c-53.34,29.9-72.38,98-42.51,151.21,23.27,41.52,69.48,62.17,114,55.31a110.38,110.38,0,0,0,37.2-12.81l143.2-80.19,0-.16,156.65-87.73c53.34-29.9,72.38-98,42.5-151.21C3075.8,550,3029.59,529.34,2985.06,536.21Z"/><path class="cls-12" d="M2985.06,536.21a110.36,110.36,0,0,0-37.2,12.8l-149.08,83.67c106.59,53.08,101.36,192,101.13,197.77l156.65-87.73c53.34-29.9,72.38-98,42.5-151.21C3075.8,550,3029.59,529.34,2985.06,536.21Z"/><path class="cls-13" d="M3019.52,711.59a4,4,0,0,0-5.46-1.54l-62.75,35.09a4,4,0,0,0-1.55,5.46l7.81,14a4,4,0,0,0,5.46,1.54L3025.79,731a4,4,0,0,0,1.54-5.46Z"/><rect class="cls-13" x="3049.72" y="685.14" width="24.03" height="24.03" rx="4.01" transform="translate(49.17 1582.99) rotate(-29.21)"/><path class="cls-13" d="M3350.77,1496.88l-42.66-23.08,0,0-46.66-25.24a32.8,32.8,0,0,0-40.26,50.49,32.55,32.55,0,0,0,9.07,7.26l44.46,24,44.9,24.29a32.8,32.8,0,0,0,40.25-50.49A32.41,32.41,0,0,0,3350.77,1496.88Z"/><path class="cls-14" d="M3217,1461.87a32.89,32.89,0,0,0,13.28,44.47l44.46,24c-3.6-35,31.9-55.65,33.39-56.51l-46.66-25.24A32.9,32.9,0,0,0,3217,1461.87Z"/><path class="cls-14" d="M3392.67,1713.92c-215.63-125-311.16,71.83-311.16,71.83l-.25-.14s110.34-188.95-113.57-298.46c-190.1-93-385.83,113-270.05,468.76,90,276.65,117.18,312.19,123.2,316.67a2.25,2.25,0,0,0,.55.36,2.12,2.12,0,0,0,.6.25c7.08,2.52,51.71,5.28,331.65-74C3513.61,2097.33,3575.74,1820.06,3392.67,1713.92Z"/><g class="cls-15"><path class="cls-13" d="M3313.91,1814.7l-208.52,228.72-74.17-40.87-59.37,58.74,5.55-84.35-69.07-38.06,35.49-198.74-161.64,129.21c-29.55-16.77-239.19-135.62-250-137.62l-.72,3.94c7.82,1.44,153.77,83.21,250,137.83l1.18.67L2938,1749.9,2903.89,1941l69.36,38.21-6.08,92.34,64.74-64.05,74.32,40.94L3305.39,1830l-76.11,266.69,133.17,73.37,1.93-3.51L3234,2094.71Z"/></g><rect class="cls-16" x="1540.94" y="755.96" width="1296.28" height="1787.24"/><rect class="cls-17" x="1582.05" y="823.77" width="1199.71" height="1674.28"/><rect class="cls-13" x="1611.58" y="854.85" width="1140.87" height="1604.4"/><g class="cls-18"><path class="cls-19" d="M2760.25,2101.18c-67.5-11.66-136.63-7-205-11-243.85-13.94-478.64-143-621.06-341.46-63.33-88.24-108.6-188.26-145.27-290.5a2037.48,2037.48,0,0,1-99.22-400.77c-16.18-114-24.77-235.12-90.48-329.62l-185.41,399.07q-26,423.54-52,847.09c-6.06,98.64-12.09,198.17,2.86,295.86s52.74,194.71,123.05,264.16c60.54,59.8,141,95.4,222.59,119.67,268.37,79.83,555.82,48.35,833.37,11.4,98.79-13.15,201.64-28.47,283.33-85.55,82.55-57.67,134.65-156.6,135.51-257.29.35-41.87-8-84.67-30.21-120.19C2896,2144,2827.75,2112.84,2760.25,2101.18Z"/></g><rect class="cls-17" x="1661.02" y="936.09" width="339.1" height="339.08"/><rect class="cls-14" x="2080.21" y="936.09" width="615.72" height="98.9"/><rect class="cls-17" x="1661.03" y="1352.56" width="628.71" height="47.5"/><rect class="cls-14" x="1671.01" y="1594.24" width="618.73" height="55.34"/><rect class="cls-14" x="1661.03" y="2091.09" width="1034.91" height="37.63"/><rect class="cls-17" x="1661.03" y="2320.68" width="628.71" height="56.51"/><rect class="cls-17" x="2381.58" y="2320.68" width="314.36" height="56.51"/><path class="cls-13" d="M1873,1124.55a71.2,71.2,0,1,0-78.27-.64c-45.5,15.9-78.37,59.32-78.37,110.07v41.18h233.13V1234C1949.49,1183.91,1917.53,1141,1873,1124.55Z"/><rect class="cls-20" x="2080.21" y="1099.05" width="615.72" height="6.57" rx="1.19"/><rect class="cls-20" x="2080.21" y="1169.69" width="615.72" height="6.57" rx="1.19"/><rect class="cls-20" x="2080.21" y="1240.32" width="615.72" height="6.57" rx="1.19"/><rect class="cls-20" x="1661.03" y="1436.58" width="622.24" height="14.13" rx="2.56"/><rect class="cls-20" x="1661.03" y="1506.81" width="622.24" height="14.13" rx="2.56"/><rect class="cls-20" x="1755.79" y="2183.86" width="734.71" height="14.13" rx="2.56"/><rect class="cls-20" x="1755.79" y="2245.08" width="887" height="14.13" rx="2.56"/><circle class="cls-14" cx="2532.69" cy="1512.13" r="183.09"/><polygon class="cls-13" points="2569.78 1419.54 2507.38 1419.54 2507.38 1482.67 2444.25 1482.67 2444.25 1545.07 2507.38 1545.07 2507.38 1608.2 2569.78 1608.2 2569.78 1545.07 2632.91 1545.07 2632.91 1482.67 2569.78 1482.67 2569.78 1419.54"/><path class="cls-20" d="M1700.24,2001.83h251.25V1750.58H1700.24Zm4-247.25h243.25v243.25H1704.24Z"/><polygon class="cls-21" points="1803.28 1895.39 1759.71 1847.11 1740.87 1865.95 1809.16 1934.24 1916.31 1828.27 1891.58 1804.72 1803.28 1895.39"/><path class="cls-20" d="M2057,2001.83h251.25V1750.58H2057Zm4-247.25h243.25v243.25H2061Z"/><polygon class="cls-21" points="2160.02 1895.39 2116.45 1847.11 2097.62 1865.95 2165.91 1934.24 2273.05 1828.27 2248.33 1804.72 2160.02 1895.39"/><path class="cls-20" d="M2413.72,2001.83H2665V1750.58H2413.72Zm4-247.25H2661v243.25H2417.72Z"/><polygon class="cls-21" points="2516.76 1895.39 2473.2 1847.11 2454.36 1865.95 2522.65 1934.24 2629.8 1828.27 2605.07 1804.72 2516.76 1895.39"/><path class="cls-22" d="M2171.42,569.64A140.4,140.4,0,0,0,2031,710h-98V890.18h476.84V710h-98A140.4,140.4,0,0,0,2171.42,569.64ZM2080.21,710a91.21,91.21,0,0,1,182.42,0Z"/><rect class="cls-13" x="2131.08" y="952.7" width="13.51" height="69.17"/><polygon class="cls-13" points="2200.53 1005.69 2199.39 1003.34 2199.39 1006.93 2200.53 1005.69"/><polygon class="cls-13" points="2199.39 1003.34 2200.53 1005.69 2199.39 1006.93 2199.39 1003.34 2174.8 952.7 2158.86 952.7 2158.86 1021.82 2171.33 1021.82 2171.33 971.96 2170.18 969.63 2171.33 968.4 2171.33 971.96 2195.82 1021.82 2211.86 1021.82 2211.86 952.7 2199.39 952.7 2199.39 1003.34"/><polygon class="cls-13" points="2170.18 969.63 2171.33 971.96 2171.33 968.4 2170.18 969.63"/><path class="cls-13" d="M2264.88,984.5a58.3,58.3,0,0,0-11-3.12,4.88,4.88,0,0,1-.55-.12l-.54-.12-.38-.07a2.32,2.32,0,0,1-.38-.07,66.21,66.21,0,0,1-7.09-1.71,10.29,10.29,0,0,1-4.24-2.55A6.43,6.43,0,0,1,2239,972v0a6.17,6.17,0,0,1,3.28-5.54q3.28-2,9.28-2a25.14,25.14,0,0,1,8.35,1.52,34.94,34.94,0,0,1,8.35,4.28l5.52-11a42.76,42.76,0,0,0-7-3.9,41.26,41.26,0,0,0-7.59-2.47,35.27,35.27,0,0,0-7.59-.86,34.44,34.44,0,0,0-13.8,2.5,18.93,18.93,0,0,0-8.7,7.26,21,21,0,0,0-3,11.46v0q0,7.56,3.19,11.68a16.92,16.92,0,0,0,7.75,5.75,64,64,0,0,0,11.52,2.74l1,.14a.91.91,0,0,0,.26.05.71.71,0,0,1,.27,0,49.18,49.18,0,0,1,6.47,1.38,9.34,9.34,0,0,1,4.09,2.37,6.05,6.05,0,0,1,1.57,4.38v.05a6.81,6.81,0,0,1-3.52,6.11q-3.53,2.17-9.9,2.17a33.08,33.08,0,0,1-10.75-1.79,29.49,29.49,0,0,1-9.23-5.06l-6,10.75a34.38,34.38,0,0,0,7.44,4.64,41.46,41.46,0,0,0,8.9,2.92l4.73,1h5a36.91,36.91,0,0,0,14.25-2.47,19.32,19.32,0,0,0,9-7.19,20.09,20.09,0,0,0,3.1-11.32v-.09q0-7.05-2.95-11.11A17.12,17.12,0,0,0,2264.88,984.5Z"/><path class="cls-13" d="M2321.7,997.18q0,5.94-3.21,9.23t-9.06,3.28q-5.8,0-9-3.28t-3.19-9.23V952.7h-13v44.14a30.38,30.38,0,0,0,2.94,13.92,20.08,20.08,0,0,0,8.62,8.8,32.43,32.43,0,0,0,27.33,0,20.15,20.15,0,0,0,8.65-8.8,30,30,0,0,0,3-13.92V952.7h-13Z"/><polygon class="cls-13" points="2353.24 981.48 2361.09 981.48 2361.09 965.21 2353.24 965.21 2353.24 952.65 2348.06 952.65 2348.06 1021.87 2361.09 1021.87 2361.09 994.04 2353.24 994.04 2353.24 981.48"/><rect class="cls-13" x="2353.24" y="952.65" width="7.85" height="12.56"/><rect class="cls-13" x="2353.24" y="981.48" width="7.85" height="12.56"/><path class="cls-13" d="M2381.74,989.71l2.11,3.64a18.06,18.06,0,0,0,4.53-1.88,17.32,17.32,0,0,0,6.73-7.26,26,26,0,0,0,0-21.74,17.37,17.37,0,0,0-6.71-7.25,19.23,19.23,0,0,0-10-2.57h-17.27v12.56h16.22a6.3,6.3,0,0,1,3.57,1,6.43,6.43,0,0,1,2.36,2.85,10.47,10.47,0,0,1,.83,4.28,10.91,10.91,0,0,1-.88,4.28,6.56,6.56,0,0,1-2.35,2.86,6.34,6.34,0,0,1-3.53,1h-16.22V994H2369l-1.2-2.14Z"/><path class="cls-13" d="M2378.36,994H2369l15.59,27.83h15.8l-16.54-28.52A21.5,21.5,0,0,1,2378.36,994Z"/><path class="cls-13" d="M2383.85,993.35l-2.11-3.64-13.94,2.19L2369,994h9.36A21.5,21.5,0,0,0,2383.85,993.35Z"/><polygon class="cls-13" points="2415.23 998.22 2415.23 1010.78 2420.45 1010.78 2424.85 998.22 2415.23 998.22"/><polygon class="cls-13" points="2424.85 998.22 2420.45 1010.78 2445.79 1010.78 2441.39 998.22 2424.85 998.22"/><polygon class="cls-13" points="2428.98 952.7 2402.53 1021.87 2416.56 1021.87 2420.45 1010.78 2415.23 1010.78 2415.23 998.22 2424.85 998.22 2433.12 974.63 2441.39 998.22 2451.62 998.22 2451.62 1010.78 2445.79 1010.78 2449.67 1021.87 2463.71 1021.87 2437.26 952.7 2428.98 952.7"/><polygon class="cls-13" points="2451.62 998.22 2441.39 998.22 2445.79 1010.78 2451.62 1010.78 2451.62 998.22"/><polygon class="cls-13" points="2513.94 1005.69 2512.8 1003.34 2512.8 1006.93 2513.94 1005.69"/><polygon class="cls-13" points="2512.8 1003.34 2513.94 1005.69 2512.8 1006.93 2512.8 1003.34 2488.21 952.7 2472.27 952.7 2472.27 1021.82 2484.73 1021.82 2484.73 971.96 2483.59 969.63 2484.73 968.4 2484.73 971.96 2509.23 1021.82 2525.26 1021.82 2525.26 952.7 2512.8 952.7 2512.8 1003.34"/><polygon class="cls-13" points="2483.59 969.63 2484.73 971.96 2484.73 968.4 2483.59 969.63"/><path class="cls-13" d="M2553.93,970.89a9.66,9.66,0,0,1,3.92-4.37,12.18,12.18,0,0,1,6.23-1.5,10.13,10.13,0,0,1,5.07,1.28A11.33,11.33,0,0,1,2573,970a17.41,17.41,0,0,1,2.36,5.85h13.51a35.18,35.18,0,0,0-4.64-12.91,22.92,22.92,0,0,0-8.49-8.16,23.94,23.94,0,0,0-11.66-2.81,28,28,0,0,0-13.51,3,20.32,20.32,0,0,0-8.56,8.82,30.39,30.39,0,0,0-3,14v19a30.37,30.37,0,0,0,3,14,20.17,20.17,0,0,0,8.56,8.8l5.62,3h7.89a23.81,23.81,0,0,0,11.64-2.81,22.92,22.92,0,0,0,8.46-8.16,35.69,35.69,0,0,0,4.69-12.91h-13.51a17.39,17.39,0,0,1-2.28,5.9,10.82,10.82,0,0,1-3.86,3.68,10.34,10.34,0,0,1-5.14,1.27,12.18,12.18,0,0,1-6.23-1.5,9.69,9.69,0,0,1-3.92-4.36,15.85,15.85,0,0,1-1.36-6.89v-19A16.06,16.06,0,0,1,2553.93,970.89Z"/><rect class="cls-13" x="2604.52" y="981.24" width="8.33" height="12.56"/><rect class="cls-13" x="2612.85" y="1009.31" width="33.3" height="12.56"/><rect class="cls-13" x="2612.85" y="981.24" width="28.07" height="12.56"/><rect class="cls-13" x="2604.52" y="1009.31" width="8.33" height="12.56"/><rect class="cls-13" x="2612.85" y="952.7" width="33.3" height="12.56"/><polygon class="cls-13" points="2604.52 952.7 2599.81 952.7 2599.81 1021.87 2604.52 1021.87 2604.52 1009.31 2612.85 1009.31 2612.85 993.8 2604.52 993.8 2604.52 981.24 2612.85 981.24 2612.85 965.25 2604.52 965.25 2604.52 952.7"/><rect class="cls-13" x="2604.52" y="952.7" width="8.33" height="12.56"/><path class="cls-23" d="M1756.73,2562.08c-35.33-9.74-118.81-53.85-118.81-53.85h-68.58s-24.89,56.53-.16,88.32,152.6,29.24,187.55,23C1799.9,2611.77,1792.06,2571.82,1756.73,2562.08Z"/><path class="cls-23" d="M1516.25,2563.23c-26.1-19.78-38.46-94.31-38.46-94.31L1416,2435s-37.07,78.07-20.59,99.37,30.23,62.36,52.21,88.21,89.29,13.69,101.32,0S1542.36,2583,1516.25,2563.23Z"/><path class="cls-24" d="M1410.82,2322.91s1,65.4,5.61,94.3-14.66,22.31,0,64.9,47.62,64.89,68.91,64.89,6.19-8.11.69-40.56,23.81-164.26,23.81-164.26Z"/><g class="cls-25"><path class="cls-26" d="M1468,2258.86c-20.92-1.09-42.55,0-61.61,8.7s-35.14,26.27-37.12,47.12c-1.91,20.17,9,39,17.11,57.55a217.19,217.19,0,0,1,17.77,78.61c4.75-32,21.42-65.62,52-76.39,14.18-5,29.68-4.5,44.35-7.82a87,87,0,0,0,44.73-26.1l-8.83-61.74C1516.94,2264.48,1492,2260.11,1468,2258.86Z"/></g><path class="cls-24" d="M1656,2511.76c-19.43-30,21.2-183.47,21.2-183.47l-116.41,10.35s1.58,183.72,15.72,195.47,121.89,35.95,136,25.35S1675.47,2541.79,1656,2511.76Z"/><g class="cls-27"><path class="cls-26" d="M1582.78,2279.73c-18.7,2.44-39.07,5.74-51.64,19.8-9.93,11.11-12.86,27.06-11.43,41.89s6.73,29,11.5,43.07a653.53,653.53,0,0,1,30.21,135.69c-1.94-42.66,10.24-89.5,45.09-114.18,16.26-11.51,35.84-17.1,54.18-24.88s36.7-18.93,45.35-36.88l-57.92-60.78C1628,2274.17,1604.72,2276.85,1582.78,2279.73Z"/></g><path class="cls-2" d="M1668.78,1613.66l-214.23-12.14s-50.48,296.74-51.53,370.61-101.52,353.54-101.52,353.54,33,12.54,88.19,12.31c106.88-.44,102,40,166,29.9,108.53-17.15,185.46,0,185.46,0l-11-337.71Z"/><g class="cls-28"><path class="cls-11" d="M1758.91,2254.3c-2.09,1.13-3.37,3.28-4.64,5.29-17.33,27.3-50.26,41.53-82.49,44.19s-64.36-4.61-95.88-11.83c-17-3.9-35.65-8.9-45.24-23.47-6.05-9.17-7.33-20.62-7.81-31.6-2.73-62.64,15.14-124.06,29.67-185.05,37.17-156.06,53.21-318.62,30.74-477.46l-68.5,43.21q-21.78,141.23-55,280.38c-22.17,92.74-49.58,187.46-109.57,261.59-29.63,36.61-68.08,70.15-77.09,116.38-4.91,25.16-.27,51.11,4.88,76.22,4.46,21.77,9.94,44.66,25.44,60.57,17.52,18,43.95,23.17,68.65,27.51l172.07,30.22c42.63,7.49,85.53,15,128.81,14.87,34.8-.1,69.9-5.27,102.09-18.49,70.79-29.07,120.12-93,166-154.27a409.31,409.31,0,0,1-169.59-55.68C1767.59,2254.58,1762.84,2252.18,1758.91,2254.3Z"/></g><path class="cls-24" d="M2020.34,1455.21s6.27-8,2.67-10.33-16.57,1.33-16.57,1.33,4.42-5.47,5.59-10-11.7-1.22-21.29,5.66-41.6,23.75-34.37,19,14.19-27,6.7-25.91-31.29,14.14-45,29.84-12,42-27.27,40.42,1.38,64.6,53,34.52c5.26-3.06,60.39-40.67,60.39-40.67s16.18-11.44,14.82-17.8-7.59-3.16-7.59-3.16a142.42,142.42,0,0,0,13.09-13.44C2032.19,1455.87,2020.34,1455.21,2020.34,1455.21Z"/><g class="cls-29"><path class="cls-26" d="M1999.82,1466c2.89-1.54,5.89-3.22,8.72-5.11a217.48,217.48,0,0,0-30.89,16.87Z"/><path class="cls-26" d="M2035.57,1428.68c-4.25-2-8.72-4-13.44-4.1s-9.77,1.8-12.11,5.9c-1.91,3.33-1.77,7.46-3.24,11-2,4.77-6.53,7.87-10.85,10.68l-16.78,10.93,28-16.25c4.58-2.65,9.74-5.41,14.91-4.25-.87,7.9-6.7,13.7-13.55,18.28,1.93-.86,3.86-1.7,5.81-2.5,5.17-2.13,11.2-4,16.17-1.46-.67,7.77-7.72,13.5-15,16.39s-15.18,4-22.13,7.49a34.24,34.24,0,0,0-14.4,14,99.05,99.05,0,0,1,49.45-17.69l20.94-16.9c5.63-4.08,5.91-12.88,2.33-18.84S2041.83,1431.7,2035.57,1428.68Z"/></g><path class="cls-26" d="M1946.44,1496.75l-.84.3-.83.39c-.55.27-1.11.52-1.64.82a21.56,21.56,0,0,0-2.91,2.22,34.33,34.33,0,0,0-4.65,5.07,31.93,31.93,0,0,0-5.81,12.17,67.54,67.54,0,0,1,8.19-10.12,52.1,52.1,0,0,1,4.72-4.23,20.45,20.45,0,0,1,2.42-1.68c.43-.23.89-.42,1.32-.63l.67-.31.72-.23c.48-.17.94-.35,1.43-.5l1.5-.37c1-.3,2-.4,3.06-.64,2.09-.3,4.2-.58,6.36-.72,4.3-.35,8.67-.42,13.14-.56a47.91,47.91,0,0,0-13.17-2.57A35,35,0,0,0,1946.44,1496.75Z"/><path class="cls-26" d="M1949.38,1469.36l-3.22,5c-1.06,1.65-2.11,3.25-3.27,4.77a19.18,19.18,0,0,1-4.24,4.19,8.82,8.82,0,0,0,6.4-1.91,18.24,18.24,0,0,0,4.48-4.89,24.2,24.2,0,0,0,2.69-5.88,18.58,18.58,0,0,0,.88-6.42A53.06,53.06,0,0,0,1949.38,1469.36Z"/><path class="cls-30" d="M1587.39,1252.48l-91.28-3.66-62.73,8.16s5.49,373.31,49.45,381.55,159.28,0,159.28,0v-93.41l-20.2-274.75Z"/><g class="cls-31"><path class="cls-32" d="M1642.17,1434.68a87.49,87.49,0,0,1-68.1,5.06c-5.41-1.86-10.78-4.3-16.5-4.49-6.73-.22-13.11,2.69-19.43,5-37.23,13.66-81.2,7.09-112.81-16.86L1435.78,1545c1.6,18.59,3.25,37.43,9.7,54.93,16.57,44.94,62.33,73.4,108.86,84.75,38.25,9.33,82,8.24,112.9-16.13,31.34-24.7,42.29-72,25-107.93Z"/></g><path class="cls-33" d="M1607.88,1009.39c-43.78-28.87-97.8,1.86-97.8,1.86-51.22-74.5-187,34.69-55.88,54-33.53,133.19,86.62,99.66,145.29,66.13S1651.65,1038.26,1607.88,1009.39Z"/><g class="cls-34"><path class="cls-35" d="M1459.94,1032.38a54.56,54.56,0,0,0,16.51,2.28A20.17,20.17,0,0,0,1459.94,1032.38Z"/><path class="cls-35" d="M1603.86,1027.62c-28.34-13-64-15.1-89.14,3.38-14.26-20.07-42.94-28.4-65.74-19.11-3.41,1.39-7.14,3.82-7.21,7.5-.06,3.31,2.9,5.81,5.74,7.51a54.3,54.3,0,0,0,12.43,5.48,20.17,20.17,0,0,1,16.51,2.28,54.56,54.56,0,0,1-16.51-2.28,19.57,19.57,0,0,0-10.89,7.46,84.72,84.72,0,0,0,40.61,9.55c-18.61,10.29-30.8,30.67-32.64,51.86s6.17,42.72,20.21,58.69a65.7,65.7,0,0,0,19.89,15.78c21.74,10.74,47.62,5.18,71.17-.6l69.16-77.95c8.75-11.91,7.62-29.12.12-41.85S1617.28,1033.79,1603.86,1027.62Z"/></g><path class="cls-24" d="M1526.75,1059.76c1,37.12-13,52-23.94,67.76-7.57-6.17-20.34-11.59-28.77,1.18-6.25,9.45-7.6,21.09-.14,32.12,6.43,9.53,16.83,15.46,25.77,12.33a68.37,68.37,0,0,0,9.36,15.25c.19,19.87-12.92,60.42-12.92,60.42s51.72,70.41,61,66.68,39.56-55.57,30.25-63c-5.6-4.48-7.16-17.36-7.51-26.93.43-.06.85-.08,1.28-.15,40.2-5.8,44.65-24.93,49-50s7.29-101.24,7.29-101.24C1625.31,1087.18,1565.85,1082.61,1526.75,1059.76Z"/><g class="cls-36"><path class="cls-26" d="M1638.75,1051.13A144.54,144.54,0,0,0,1544,1020c-10,.39-20.64,2.09-28.3,8.6-11.85,10.08-12.74,27.75-12.7,43.31l.12,52.48a75,75,0,0,0,46.23-36.44,6.08,6.08,0,0,1,2.58-3c1.59-.68,3.38.18,4.93,1,30.17,15.31,70,8.55,93.41-15.86l-9.57-12.73C1642.66,1055.74,1640.7,1052.69,1638.75,1051.13Z"/><path class="cls-26" d="M1594.88,1231l-6.26-4.92a70.18,70.18,0,0,1-60.46-21.52c3.73,8.3,7.48,16.65,12.68,24.12s12,14.07,20.33,17.66a48.85,48.85,0,0,0,19.27,3.51c5.51,0,11.49-.84,15.39-4.74S1599.83,1233.39,1594.88,1231Z"/><path class="cls-26" d="M1499.49,1140.42c-5.58-4-12.82-3.36-16.19,1.36s-1.56,11.76,4,15.73,12.82,3.37,16.18-1.35S1505.07,1144.4,1499.49,1140.42Z"/></g><path class="cls-37" d="M1599.51,1143.93a6.69,6.69,0,0,0-2-.94,5.08,5.08,0,0,0-1-.22l-.81-.15c-.2,0-.41-.07-.6-.12l-.57-.18c-3-1-4.87-4.69-5.93-8.53a77.49,77.49,0,0,1-2.1-12.34,32.63,32.63,0,0,0-1,13,20.57,20.57,0,0,0,.7,3.33,15,15,0,0,0,1.33,3.27,11.67,11.67,0,0,0,2.26,3,10.24,10.24,0,0,0,3.35,2.07l.94.29c.32.07.64.12,1,.18l.76.13a3.26,3.26,0,0,1,.59.11,3.15,3.15,0,0,1,.86.33.6.6,0,0,1,.22.17c.08,0,.09.12.15.17a2.78,2.78,0,0,1-.06,1.81,13.82,13.82,0,0,1-1.06,2.6,47,47,0,0,1-3.21,5.24c-1.16,1.76-2.43,3.46-3.66,5.24a35.54,35.54,0,0,0,9.56-8.85,14.7,14.7,0,0,0,1.72-3.11,6.33,6.33,0,0,0,.3-.93,5.71,5.71,0,0,0-.09-3.47A4.72,4.72,0,0,0,1599.51,1143.93Z"/><path class="cls-37" d="M1543.33,1089.13a8.92,8.92,0,0,0-4.36.24,9.94,9.94,0,0,0-3.71,2.06,13.07,13.07,0,0,0-1.41,1.57,8.76,8.76,0,0,0-1,2,11.44,11.44,0,0,0,2.09-.33c.66-.12,1.26-.3,1.85-.46,1.18-.29,2.25-.68,3.31-1s2.09-.64,3.19-.93a35.5,35.5,0,0,1,3.74-.81A5.68,5.68,0,0,0,1543.33,1089.13Z"/><path class="cls-38" d="M1528.46,1143.18a17.47,17.47,0,1,0,21.15,12.77A17.48,17.48,0,0,0,1528.46,1143.18Z"/><path class="cls-37" d="M1610.83,1108.06c-4.1.37-7,5.15-6.52,10.69s4.21,9.74,8.3,9.38,7-5.16,6.52-10.69S1614.92,1107.7,1610.83,1108.06Z"/><path class="cls-37" d="M1543.64,1117.52c-4.1.36-7,5.15-6.53,10.69s4.22,9.73,8.31,9.37,7-5.15,6.52-10.69S1547.73,1117.15,1543.64,1117.52Z"/><path class="cls-13" d="M1612.7,1112.3c-1.68.15-2.88,2.12-2.68,4.39s1.73,4,3.41,3.84,2.89-2.11,2.68-4.38S1614.38,1112.15,1612.7,1112.3Z"/><path class="cls-13" d="M1545,1121.43c-1.68.15-2.88,2.12-2.68,4.39s1.73,4,3.42,3.84,2.88-2.11,2.68-4.38S1546.73,1121.28,1545,1121.43Z"/><path class="cls-37" d="M1618.09,1087a10.82,10.82,0,0,0-5.6-.56,14.83,14.83,0,0,0-5,1.73,12.18,12.18,0,0,0-4,3.49,42.24,42.24,0,0,0,5.07-.53l4.58-.74a27.5,27.5,0,0,1,4.29-.33,11.78,11.78,0,0,1,4.55,1A6.11,6.11,0,0,0,1618.09,1087Z"/><path class="cls-37" d="M1570,1172.47l-3.1,2a25.16,25.16,0,0,0,4.25,2.27c-.2-.58-.37-1.17-.57-1.74Z"/><path class="cls-37" d="M1578.88,1175.45a40.64,40.64,0,0,1-5.12-1.77,29.21,29.21,0,0,1-4.62-2.49l-4.29-2.8,1.19,4.8c.24,1,.46,2,.73,2.92l.53,1.43a8.68,8.68,0,0,0,.6,1.4,15.35,15.35,0,0,0,1.56,2.65,16,16,0,0,0,2,2.36,14.89,14.89,0,0,0,5.19,3.18,11.66,11.66,0,0,0,5.8.57,16.4,16.4,0,0,1-4.94-2.32,15.86,15.86,0,0,1-3.73-3.52,20,20,0,0,1-2.4-4.43,5.63,5.63,0,0,1-.24-.69,25.16,25.16,0,0,1-4.25-2.27l3.1-2,.58,2.53c.2.57.37,1.16.57,1.74.42.18.85.34,1.28.49a29.09,29.09,0,0,0,5.89,1.32,34.5,34.5,0,0,0,5.92.11,25.7,25.7,0,0,0,5.78-1.05c-1.94-.28-3.82-.54-5.67-.92S1580.65,1175.92,1578.88,1175.45Z"/><path class="cls-13" d="M1506.65,1419.64c-11-95.23-37.83-170.81-37.83-170.81-24.89,3.93-46.71,10.41-65.33,19.92-33.88,17.17-57.21,44.15-69,83.14-8.24,27.2-25.64,238.09-14.65,290.3s64.1,112.65,69.6,142-69.6,384.65-69.6,384.65,20.14-1.84,89.74,12.83,98.91,0,98.91,0S1525,1938,1528.63,1848.25c2-48.77-1.42-143-6.73-234.09C1517.45,1537.56,1511.65,1463.13,1506.65,1419.64Z"/><g class="cls-39"><path class="cls-5" d="M1550.3,1856.38l-16.43-187.73-17.37,275.19c-2.59,41-5.41,83-21.86,120.71s-49.57,70.79-90.42,75.42c-24.87,2.82-49.72-5-74.75-5.1s-53.77,11.37-59.57,35.72c-5.9,24.8,15,47.94,36.87,61.11,36.8,22.21,80,31,122.6,37,44.14,6.22,96.82,6.52,124-28.82,19.65-25.58,18.42-61,16.27-93.14Z"/></g><path class="cls-5" d="M1456.46,1685.28l-.19-2.38c-.14-1.58-.23-3.17-.41-4.75l-.74-4.71c-.13-.78-.22-1.58-.39-2.35l-.54-2.32-1.08-4.64,0-.22-.14-.25c-4.43-7.65-8.86-15.3-13.1-23s-8.42-15.53-12.26-23.47c-1.91-4-3.8-8-5.52-12-.87-2-1.69-4.06-2.51-6.12a31.44,31.44,0,0,0-1.4-3.13,4.84,4.84,0,0,0-1.27-1.58,3.67,3.67,0,0,0-1-.51l-.73-.26c-1-.4-2-.91-3-1.39a24.38,24.38,0,0,0-3.18-1.24,17.83,17.83,0,0,0-6.76-.74,30.23,30.23,0,0,0-12.55,4.4c1-.44,2-.92,3-1.34s2-.81,3.12-1.07a24.46,24.46,0,0,1,6.43-1.08,16.68,16.68,0,0,1,6.31,1.05,22.16,22.16,0,0,1,2.94,1.34c1,.51,1.9,1.08,3,1.59l.81.34a1.62,1.62,0,0,1,.48.29,3.21,3.21,0,0,1,.72,1c.42.92.77,2,1.14,3,.73,2.09,1.48,4.19,2.27,6.27q2.38,6.24,5.11,12.34,5.49,12.15,11.72,23.93c4.09,7.77,8.29,15.48,12.67,23.08l0-.21.19.46-.15-.25,1,4.25.5,2.24c.16.74.24,1.5.36,2.25l.69,4.53c.16,1.51.24,3,.36,4.55l.18,2.28,0,2.28c0,1.52,0,3,0,4.57-.22,3-.3,6.09-.81,9.09-.32,3-1,6-1.65,9-.82,2.94-1.54,5.91-2.6,8.78a101,101,0,0,1-7.44,16.76,141.14,141.14,0,0,1-22,29.58,173.69,173.69,0,0,1-28.31,24.1,133.38,133.38,0,0,0,15.58-10.37,159.21,159.21,0,0,0,14.28-12.19,134.73,134.73,0,0,0,23.42-29.45,104.65,104.65,0,0,0,8-17.2c1.15-3,2-6,2.82-9.09.64-3.11,1.41-6.2,1.77-9.37.54-3.14.66-6.32.9-9.49,0-1.59,0-3.19,0-4.78C1456.47,1686.87,1456.49,1686.07,1456.46,1685.28Z"/><path class="cls-5" d="M1449.37,1665.14l0,.21.15.25Z"/><path class="cls-5" d="M1417,1530.6c-.36,5.32-.61,10.64-.92,16s-.6,10.65-.84,16c-.43,8.66-.78,17.32-1.11,26,1,1.75,2,3.52,2.92,5.33l-3.15.64q.12-3,.23-6c-1-1.81-2.1-3.59-3.21-5.36a113.37,113.37,0,0,0-7.08-10.08,57.18,57.18,0,0,0-8.54-8.92,23.37,23.37,0,0,0-5.29-3.25,9.73,9.73,0,0,0-6-.68,9.56,9.56,0,0,1,5.77,1.28,22.09,22.09,0,0,1,4.77,3.57,59.6,59.6,0,0,1,7.65,9.25c2.31,3.3,4.38,6.76,6.37,10.26s3.86,7.1,5.55,10.7l2.71,5.82.44-6.45c.71-10.64,1.39-21.28,2-31.93.31-5.32.57-10.64.82-16s.53-10.64.72-16q.64-16,1.06-32c.26-10.66.43-21.33.38-32-1.15,10.62-2.08,21.25-2.92,31.88S1417.63,1520,1417,1530.6Z"/><path class="cls-5" d="M1417,1593.85c-.94-1.81-1.91-3.58-2.92-5.33q-.1,3-.23,6Z"/><path class="cls-5" d="M1468.82,1248.83c-24.89,3.93-46.71,10.41-65.33,19.92L1433.38,1394l35.44-5.49-21.7,33,74.78,192.68c-4.45-76.6-10.25-151-15.25-194.52C1495.66,1324.41,1468.82,1248.83,1468.82,1248.83Z"/><path class="cls-13" d="M1903.2,1494.29c1.38-16.49-120,33-134.19,24.73s-43-39.84-44.4-79.68c-1-28.27-16-99.68-55.83-142.84-16.26-17.64-36.65-30.58-61.9-33.91,0,0,3.19,92.37,0,168.89-2.25,54.79-.08,114.71,5.36,170,2.17,22,4.84,43.19,8,63.11,11,70.07,20.44,313.22,21.9,332.45s0,166.23,0,166.23,72.89-12.37,99,0,34.81,0,34.81,0-18.33-219.8-31.16-294.89-42.12-226.23-42.12-226.23,45.34,10.08,81.06-9.15,148.36-79.68,148.36-79.68S1901.83,1510.77,1903.2,1494.29Z"/><g class="cls-40"><path class="cls-5" d="M1821.4,2108.38c-76-26-122-104.46-142.28-182.15s-21.74-159.49-43.66-236.75c-4.65-16.39-10.79-33.38-23.89-44.28l-22.68,102,27.74,412.86c2.31,34.37,5.79,71.6,29,97,29.16,31.94,81.76,33.2,119.68,12.41s63.42-58.67,82.31-97.58c7.28-15,13.52-33.93,3.65-47.39C1844.47,2115.27,1832.3,2112.12,1821.4,2108.38Z"/></g><path class="cls-5" d="M1749.14,1531.54a28.48,28.48,0,0,0-4.45,11.32,29.06,29.06,0,0,0,.53,11.87,78.1,78.1,0,0,1,2.53-11.14,40,40,0,0,1,4.71-9.84,40.94,40.94,0,0,1,7.25-8.17A56.68,56.68,0,0,1,1769,1519a26,26,0,0,0-11.18,4A29.21,29.21,0,0,0,1749.14,1531.54Z"/><path class="cls-5" d="M1698.66,1440.37a540.81,540.81,0,0,0-24.87-62.85c4,10.52,8,21,11.59,31.7s7.17,21.29,10.31,32.06a285.35,285.35,0,0,1,7.74,32.61,100.89,100.89,0,0,1,1.53,16.45c0,1.37-.11,2.69-.18,4.06l-.32,4.24c-.24,2.82-.39,5.63-.55,8.45-1.15,22.54-1.6,45-1.79,67.56-.11,11.26-.09,22.52,0,33.77l.21,16.89.12,8.44.21,8.45.4-8.44.33-8.44.69-16.87,1.2-33.73,1.19-33.73c.39-11.24.83-22.47,1.46-33.68.15-2.8.28-5.6.5-8.39l.29-4.18c.07-1.44.18-2.93.17-4.37a100.13,100.13,0,0,0-1.7-17.11A260.58,260.58,0,0,0,1698.66,1440.37Z"/><path class="cls-5" d="M1606.88,1262.59s3.19,92.37,0,168.89c-2.25,54.79-.08,114.71,5.36,170,18.11-45.77,40.11-170,40.11-170l-21.45-38.85h23.65l14.23-96.13C1652.52,1278.86,1632.13,1265.92,1606.88,1262.59Z"/><path class="cls-41" d="M2961.59,2516.86s4.72,49.54-64.89,54.85-90.83,7.08-89.06,35.39,42.47,46,162.8,40.7,100.86-5.3,84.94-102.63S2961.59,2516.86,2961.59,2516.86Z"/><path class="cls-42" d="M3058.91,1890.43l-157.49-30.08s-10.61,157.49,0,215.88S2935,2463.77,2935,2499.16v58.4h134.49s19.47-403.47,0-468.94S3058.91,1890.43,3058.91,1890.43Z"/><path class="cls-23" d="M2884.39,2534.55s4.72,49.55-64.88,54.86-90.84,7.08-89.07,35.39,42.47,46,162.8,40.7,100.87-5.31,84.94-102.63S2884.39,2534.55,2884.39,2534.55Z"/><path class="cls-2" d="M2981.72,1908.12,2824.23,1878s-10.62,157.49,0,215.89,33.62,387.53,33.62,422.93v58.39h134.49s19.46-403.46,0-468.93S2981.72,1908.12,2981.72,1908.12Z"/><g class="cls-43"><path class="cls-11" d="M3018.19,1840.86l-52.85,10.2c-16.46,23.58-15.48,55-11.11,83.36s11.45,57.49,5,85.5-32.21,54.37-60.53,49.4c-1.65,20.59,34,16.79,48.3,31.74,6.1,6.39,7.49,15.81,8.54,24.58a3099.41,3099.41,0,0,1,22,361.34c0,13.22-.18,27.1-6.62,38.65-13,23.3-44.72,27.25-71.3,24.93s-55.4-7.7-78.34,5.92c-4.47,2.65-8.73,6.22-10.47,11.12-5.44,15.35,15.34,26.1,31.43,28.63a601.73,601.73,0,0,0,147.78,4.78c11-1,23.17-2.88,30.36-11.33,6.91-8.12,7.13-19.81,7-30.47Z"/></g><path class="cls-5" d="M2804.41,1629.86s-28,273.63-35.95,292.21,96.79,45.13,96.79,45.13l63.64-188.46L2886,1629.86Z"/><path class="cls-44" d="M2916.74,932.15s-3-24.86-42.18-18.29-51.24,37-70.36,38.24-30.41,15.47-23.21,27.11,5.35,20.74,6.21,32.08,52.08,18.07,52.08,18.07,80.79,124.69,101.53,119.34,21.36-18,21.36-18,5.18-19.52,24.39-36.94,35.71-80.89,17.89-106.47S2946.78,924.43,2916.74,932.15Z"/><g class="cls-45"><path class="cls-46" d="M2940.41,980.84c-.51-.4-1-.81-1.51-1.2A4.16,4.16,0,0,0,2940.41,980.84Z"/><path class="cls-46" d="M2940.41,980.84a4.16,4.16,0,0,1-1.51-1.2c.51.39,1,.8,1.51,1.2,3.59,1.69,9.12-2.26,9.05-6.8-.09-5.24-4.47-9.32-8.74-12.36a100,100,0,0,0-24.81-12.86,12,12,0,0,0-10.87,1.54c-.17-14.91-18-26.58-31.71-20.79a19.11,19.11,0,0,0,5.21,7.11,18,18,0,0,1,4.94,3.08,18.62,18.62,0,0,1-4.94-3.08c-7.66-3.22-17.39-1.4-24.8,3-9.12,5.41-15.9,13.91-23.73,21.06s-17.8,13.31-28.34,12.18c-6.27-.67-12.07-3.86-18.35-4.4-16.77-1.44-29.69,17.78-27.2,34.41s15.56,29.74,29.6,39,29.76,16.1,42.5,27.09c8.51,7.34,15.41,16.32,22.25,25.23l39,50.87c9.43,12.29,20.08,25.39,35.19,28.84,15.78,3.6,32.35-4.84,42.92-17.1s16.32-27.84,21.86-43c4.4-12.06,8.86-24.45,8.67-37.29-.15-10.43-3.39-20.59-7.5-30.19A168,168,0,0,0,2940.41,980.84Z"/><path class="cls-46" d="M2878.54,936.68a18.62,18.62,0,0,0,4.94,3.08A18,18,0,0,0,2878.54,936.68Z"/></g><path class="cls-24" d="M2942.68,1124.78a125.85,125.85,0,0,1-10.34-15,35.7,35.7,0,0,0,4.8-4.94c10.59-13.22,10.2-31.12-.86-40-7.68-6.15-18.5-6.3-27.93-1.39a158,158,0,0,1-8.19-22.71c-5.91-23.59-7.41-36.38-7.41-36.38s-23.45,3.1-30.64-23.38-44.44,35.27-63.26,23.05c0,0,5.37,27.45,9.37,54.13s-28.89,49.44-21.65,53,23.3.07,24.16,4.35,7.9,62.53,34.6,65.24,29.79-2,34.34,6-.92,41-.92,41,89.16-22.25,110.89-19.07c-16.24-29-27.47-78-27.47-78S2954,1138.05,2942.68,1124.78Z"/><g class="cls-47"><path class="cls-26" d="M2864.51,955.34c-14.35-.24-28.46,3.55-42.13,8-11.18,3.6-22.75,8-30.41,16.91s-9.69,23.72-1.36,32c8.88,8.85,23.94,6.09,35.17.52s22.17-13.53,34.71-13.39c2.06,7.45,10.46,11.12,14.77,17.54,3.15,4.71,3.89,10.57,5.53,16a48.38,48.38,0,0,0,26.54,29.86l8.4-38.94c2.83-18.57.65-39.35-12.23-53C2893.66,960.31,2878.86,955.59,2864.51,955.34Z"/><path class="cls-26" d="M2924.43,1166a10,10,0,0,0-4.66.32c-14.6,3.48-28,10.8-42.39,15.09s-31.09,5.13-43.35-3.54l2.7,14.65c1.93,10.22,5,20.47,11.17,28.85s15.85,14.68,26.25,14.68c6.67,0,13.12-2.53,18.92-5.82a74.41,74.41,0,0,0,36.12-51.54C2930,1173.77,2929.29,1167.17,2924.43,1166Z"/><path class="cls-26" d="M2909.69,1080.19c-6,4.41-8.14,11.82-4.69,16.54s11.15,5,17.19.57,8.14-11.82,4.69-16.54S2915.73,1075.78,2909.69,1080.19Z"/></g><path class="cls-37" d="M2845,1023.1c-.23-.11-.46-.2-.7-.29l-.73-.19c-.5-.11-1-.22-1.51-.31s-1,0-1.56,0a8.36,8.36,0,0,0-1.57.16,8.78,8.78,0,0,0-1.53.38,10.9,10.9,0,0,0-5.11,3.47,9.66,9.66,0,0,0-2.29,5.46,52.6,52.6,0,0,1,4.39-3.13,18.39,18.39,0,0,1,4.25-2,5.78,5.78,0,0,1,1.1-.31,6.05,6.05,0,0,1,1.12-.25c.39-.07.77-.12,1.17-.21l1.21-.09c.21,0,.42,0,.63-.07h.63c.43,0,.87,0,1.32,0a24.93,24.93,0,0,0,2.84-.05,12.88,12.88,0,0,0-2.31-1.84C2845.89,1023.52,2845.44,1023.3,2845,1023.1Z"/><path class="cls-37" d="M2839.12,1057.34c-3.62.72-5.78,5.27-4.81,10.16s4.68,8.3,8.3,7.58,5.77-5.26,4.81-10.16S2842.74,1056.63,2839.12,1057.34Z"/><path class="cls-13" d="M2838.57,1061.47c-1.49.29-2.38,2.16-2,4.17s1.92,3.4,3.41,3.11,2.37-2.16,2-4.17S2840.05,1061.17,2838.57,1061.47Z"/><circle class="cls-38" cx="2874.6" cy="1092.59" r="21.19"/><path class="cls-37" d="M2854.31,1129.71a4.27,4.27,0,0,0-.53-.8,3.67,3.67,0,0,0-.68-.57,2.84,2.84,0,0,0-.66-.32,4.58,4.58,0,0,0-1.18-.27c-.34,0-.65,0-1,0a11.37,11.37,0,0,0-1.64.23l-2.64.58c-1.71.37-3.45.63-5.2.86a75.35,75.35,0,0,1-10.83.57,27.13,27.13,0,0,0,10.95,2.57,35.05,35.05,0,0,0,5.7-.26c1.35-.18,2.9-.51,3.76-.57a2,2,0,0,0,.12-.27c.1-.24.09-.44.1-.29a.31.31,0,0,0,.06.19.41.41,0,0,0,.15.24c.08.13.23.17.19.17a1.16,1.16,0,0,0-.62,0,9,9,0,0,1-1,1.55,24.82,24.82,0,0,1-3.53,3.58,28.2,28.2,0,0,1-4.26,3,17,17,0,0,1-5,1.91,11.63,11.63,0,0,0,5.71-.08,20,20,0,0,0,5.37-2.22,20.81,20.81,0,0,0,4.62-3.71,10.74,10.74,0,0,0,1.86-2.76,4.65,4.65,0,0,0,.39-2.38A6.46,6.46,0,0,0,2854.31,1129.71Z"/><path class="cls-37" d="M2851,1131.75s-.11,0-.19-.17a.41.41,0,0,1-.15-.24.31.31,0,0,1-.06-.19c0-.15,0,0-.1.29a2,2,0,0,1-.12.27A1.16,1.16,0,0,1,2851,1131.75Z"/><path class="cls-48" d="M2962.87,1171.29c-29.9,7.71-94.91,42.44-98.58,60.77s0,41.48,0,41.48l139.1-81S2992.78,1163.57,2962.87,1171.29Z"/><path class="cls-24" d="M2619.69,1465c-22.54-7.15-33.19-10.72-35.69-8.34s15,17.88,15,17.88-23.79-4.77-42-10.13-25.67-2.39-19.41,3.57,33.81,21.36,33.81,21.36-32.56-17.78-38.82-14.8,28.18,28.21,28.18,28.21-26.3-16.71-31.93-13.22,30.05,26.73,30.05,26.73-20.66-11.32-23.79-7.15,30,26.82,45.07,31,70.58,21.78,70.58,21.78l6.43-63.35S2642.22,1472.15,2619.69,1465Z"/><g class="cls-49"><path class="cls-26" d="M2599.23,1463.77c-6.78-4.12-14.32-9.27-15.19-17.15l9.12,4.12c-6.72-6.74-16.49-9.9-26-9.88s-18.83,3-27.42,7.12c-3.82,1.84-8,4.57-8.35,8.8-.33,3.78,2.76,7.15,6.28,8.56s7.42,1.36,11.21,1.56a78.92,78.92,0,0,1,21.08,4c7.29,2.46,14.18,6,21.48,8.44s15.26,3.79,22.67,1.74C2613.48,1473.22,2606,1467.89,2599.23,1463.77Z"/><path class="cls-26" d="M2534.75,1470l-4.08,2.54c1.1,2.89,3.9,4.71,6.53,6.33l12.61,7.8c7.55,4.66,15.26,9.4,23.88,11.51,2,.49,4.6.54,5.46-1.31a275.61,275.61,0,0,0-37.06-25C2539.83,1470.68,2537.27,1469.4,2534.75,1470Z"/><path class="cls-26" d="M2527.93,1477.46l-3.77,4.42a83.73,83.73,0,0,0,43.63,28.9c.79.22,1.83.32,2.24-.39C2557.56,1497.54,2538.63,1491.81,2527.93,1477.46Z"/><path class="cls-26" d="M2527.5,1501.26c8.12,9.35,19.75,14.76,31,19.9,3.35,1.53,6.86,3.09,10.54,2.87a338.58,338.58,0,0,0-38.87-25.39Z"/></g><path class="cls-13" d="M3086.09,1700.49c-24.42-214.12,61.53-304.54-55.41-469.56,0,0-11.27-44.14-24.42-44.14a35,35,0,0,0-7.92,1.15l0,0c-15.83,3.77-43.14,16.56-73.74,32-36.62,18.49-48.83,20.36-59.16,42.9s-32.87,36.63-40.39,99.55c-6.12,51.33-16.64,101.4-20.28,138a.36.36,0,0,1,0,.15c-.09,1-.19,2-.28,3v.08c-.17,1.8-.32,3.58-.45,5.31-.36,5-.56,9.73-.56,14.11,0,36.62-9.25,25.35-9.25,25.35l-138.05-61.83-25,80.85s105.61,100.25,187.31,106.82c-6.39,13.35-25.08,260.92-25.08,304.72,105.38,17.69,316.41,4.35,314-15.93C3096.31,1870.11,3110.5,1914.6,3086.09,1700.49Z"/><g class="cls-50"><path class="cls-5" d="M2849.07,1489.94c-5.38,13.59-10.7,27.52-19.92,38.87s-23.22,19.89-37.79,18.64c-8.61-.75-16.54-4.75-24.23-8.68l-135.24-69.17c4,27.88,33.34,44.08,60.16,52.62s57.08,15.48,73.36,38.44c5,7,8.72,15.58,16.34,19.56,5.84,3.06,14.51.32,17.08-4.83.25,14,12,27.48,26.23,28.44,8.72-91.91,50.25-180.13,114.41-246.4C2895.34,1386.62,2869,1439.51,2849.07,1489.94Z"/><path class="cls-5" d="M2820.77,1668.74c-8.3.34-16.62.49-24.9.6A113.89,113.89,0,0,0,2820.77,1668.74Z"/><path class="cls-5" d="M2965.81,1499.32c-8.7,20.49-14.59,42.71-23.06,63.39-12.29,30-30.95,57.82-56.44,77.82-18.92,14.84-41.8,25.08-65.54,28.21,16.87-.69,33.67-2.28,50-6.59,24.3-6.43,47.74-19.57,61.6-40.54,2-3,3.94-6.33,7.18-7.95,12-6,22.75,16.06,35.81,13.17a232,232,0,0,0,.05-46.47C2972.7,1553.48,2965.44,1525.87,2965.81,1499.32Z"/></g><path class="cls-5" d="M2865.4,1262.86c-10.33,22.54-32.87,36.63-40.39,99.55-6.12,51.33-16.64,101.4-20.28,138,5-34.07,64.54-131.74,64.54-131.74l-15-42.56,24.58,10s6.26-12.52,33.25-65.73c26.57-52.39,84.39-81.52,86.19-82.42-15.83,3.77-43.14,16.56-73.74,32C2887.94,1238.45,2875.73,1240.32,2865.4,1262.86Z"/><path d="M2803.48,1508.85l1,.11c.21-1.6.36-3.4.46-5.36l-1-.07C2803.76,1505.33,2803.61,1507.12,2803.48,1508.85Z"/><rect class="cls-51" x="2912.1" y="1688.25" width="102.35" height="21.23" transform="translate(-213.89 444.76) rotate(-8.29)"/></g></svg>