<svg xmlns="http://www.w3.org/2000/svg" viewBox="0 0 48 48"><defs><style>.cls-1{fill:#bec6c6;}.cls-2{fill:#f8f9f9;}.cls-3{fill:#414141;}.cls-4{fill:#6457ff;}</style></defs><title>Money</title><g id="Money"><circle class="cls-1" cx="24" cy="14" r="12"/><circle class="cls-2" cx="24" cy="14" r="9"/><path class="cls-1" d="M11,40h9a2,2,0,0,1,2,2v4a0,0,0,0,1,0,0H9a0,0,0,0,1,0,0V42a2,2,0,0,1,2-2Z"/><path class="cls-2" d="M20,32.5V40H11V38L6.77,34.62a3,3,0,0,1-1-1.57L2,19l.91-.45a3,3,0,0,1,4.18,1.73L10,29h0a2.54,2.54,0,0,1,4-2.48L18.8,30.1A3,3,0,0,1,20,32.5Z"/><path class="cls-1" d="M26,40H39a0,0,0,0,1,0,0v4a2,2,0,0,1-2,2H28a2,2,0,0,1-2-2V40A0,0,0,0,1,26,40Z" transform="translate(65 86) rotate(-180)"/><path class="cls-2" d="M28,32.5V40h9V38l4.23-3.38a3,3,0,0,0,1-1.57L46,19l-.91-.45a3,3,0,0,0-4.18,1.73L38,29h0a2.54,2.54,0,0,0-4-2.48L29.2,30.1A3,3,0,0,0,28,32.5Z"/><path class="cls-3" d="M11,41a1,1,0,0,1-1-1V38.48L6.15,35.4a3.93,3.93,0,0,1-1.37-2.09L1,19.26a1,1,0,0,1,.52-1.15l.91-.46A4,4,0,0,1,8,20L11,28.68a1,1,0,1,1-1.9.64L6.15,20.6a2,2,0,0,0-2.8-1.16l-.17.09L6.71,32.79a2,2,0,0,0,.69,1.05l4.22,3.38A1,1,0,0,1,12,38v2A1,1,0,0,1,11,41Z"/><path class="cls-3" d="M22,47H9a1,1,0,0,1-1-1V42a3,3,0,0,1,3-3h9a3,3,0,0,1,3,3v4A1,1,0,0,1,22,47ZM10,45H21V42a1,1,0,0,0-1-1H11a1,1,0,0,0-1,1Z"/><path class="cls-3" d="M20,41a1,1,0,0,1-1-1V32.5a2,2,0,0,0-.8-1.6l-4.77-3.58a1.54,1.54,0,0,0-1.88,2.44l3.07,2.46a1,1,0,0,1-1.24,1.56L10.3,31.32a3.54,3.54,0,0,1,4.33-5.6L19.4,29.3A4,4,0,0,1,21,32.5V40A1,1,0,0,1,20,41Z"/><path class="cls-3" d="M37,41a1,1,0,0,1-1-1V38a1,1,0,0,1,.38-.78l4.22-3.38a2,2,0,0,0,.69-1.05l3.53-13.26-.17-.09a2,2,0,0,0-2.8,1.16L39,29.32a1,1,0,1,1-1.9-.64L40,20a4,4,0,0,1,2.26-2.44c1.83-.75,3.13,0,4.23.58A1,1,0,0,1,47,19.26l-3.75,14a3.92,3.92,0,0,1-1.37,2.1L38,38.48V40A1,1,0,0,1,37,41Z"/><path class="cls-3" d="M39,47H26a1,1,0,0,1-1-1V42a3,3,0,0,1,3-3h9a3,3,0,0,1,3,3v4A1,1,0,0,1,39,47ZM27,45H38V42a1,1,0,0,0-1-1H28a1,1,0,0,0-1,1Z"/><path class="cls-3" d="M28,41a1,1,0,0,1-1-1V32.5a4,4,0,0,1,1.6-3.2l4.77-3.58a3.54,3.54,0,0,1,4.33,5.6l-3.08,2.46a1,1,0,0,1-1.24-1.56l3.07-2.46a1.54,1.54,0,0,0-1.88-2.44L29.8,30.9a2,2,0,0,0-.8,1.6V40A1,1,0,0,1,28,41Z"/><path class="cls-4" d="M25,19H21a1,1,0,0,1,0-2h4a1,1,0,0,0,0-2H23a3,3,0,0,1,0-6h4a1,1,0,0,1,0,2H23a1,1,0,0,0,0,2h2a3,3,0,0,1,0,6Z"/><path class="cls-4" d="M24,11a1,1,0,0,1-1-1V8a1,1,0,0,1,2,0v2A1,1,0,0,1,24,11Z"/><path class="cls-4" d="M24,21a1,1,0,0,1-1-1V18a1,1,0,0,1,2,0v2A1,1,0,0,1,24,21Z"/><path class="cls-3" d="M24,27A13,13,0,1,1,37,14,13,13,0,0,1,24,27ZM24,3A11,11,0,1,0,35,14,11,11,0,0,0,24,3Z"/></g></svg>