<svg xmlns="http://www.w3.org/2000/svg" viewBox="0 0 48 48"><defs><style>.cls-1{fill:#bec6c6;}.cls-2{fill:#f8f9f9;}.cls-3{fill:#414141;}.cls-4{fill:#6457ff;}</style></defs><title>Online</title><g id="Online"><path class="cls-1" d="M31,46H17a6.84,6.84,0,0,0,2-4.83V40H29v1.17A6.84,6.84,0,0,0,31,46Z"/><rect class="cls-2" x="8" y="18" width="32" height="22" rx="3"/><path class="cls-3" d="M31,47H17a1,1,0,0,1-.71-1.71A5.79,5.79,0,0,0,18,41.17V40a1,1,0,0,1,1-1H29a1,1,0,0,1,1,1v1.17a5.79,5.79,0,0,0,1.71,4.12A1,1,0,0,1,31,47ZM19,45H29a7.82,7.82,0,0,1-1-4H20A7.77,7.77,0,0,1,19,45Z"/><path class="cls-3" d="M32,47H16a1,1,0,0,1,0-2H32a1,1,0,0,1,0,2Z"/><path class="cls-3" d="M37,41H11a4,4,0,0,1-4-4V21a4,4,0,0,1,4-4H37a4,4,0,0,1,4,4V37A4,4,0,0,1,37,41ZM11,19a2,2,0,0,0-2,2V37a2,2,0,0,0,2,2H37a2,2,0,0,0,2-2V21a2,2,0,0,0-2-2Z"/><path class="cls-1" d="M43,22v0l-.58-.47A6.33,6.33,0,0,0,34,22l-1-.84a6.32,6.32,0,0,0-7.9,0L24,22h0l-1-.84a6.32,6.32,0,0,0-7.9,0L14,22a6.32,6.32,0,0,0-8.42-.47L5,22v0a19,19,0,0,1,38,0Z"/><path class="cls-3" d="M43,23c-.44,0-.63-.22-1.21-.69a5.31,5.31,0,0,0-7.08.4,1,1,0,0,1-1.33.07l-1.05-.84a5.3,5.3,0,0,0-6.66,0l-1,.84a1.05,1.05,0,0,1-1.28,0l-1-.84a5.28,5.28,0,0,0-6.65,0l-1.05.84a1,1,0,0,1-1.33-.07,5.33,5.33,0,0,0-7.09-.4l-.57.47A1,1,0,0,1,4,22a20,20,0,0,1,40-.09A1,1,0,0,1,43,23ZM23.58,20.38l.42.34.42-.34a7.28,7.28,0,0,1,9.16,0l.39.31a7.33,7.33,0,0,1,7.79-.76,18,18,0,0,0-35.52,0,7.3,7.3,0,0,1,7.79.76l.39-.31A7.28,7.28,0,0,1,23.58,20.38Z"/><path class="cls-3" d="M34,23a1,1,0,0,1-1-.94L32.94,21C32.41,12,28.49,5,24,5s-8.41,7-8.94,16L15,22.06a1,1,0,0,1-2-.12l.07-1.1C13.66,10.67,18.36,3,24,3s10.34,7.67,10.93,17.84l.07,1.1A1,1,0,0,1,34,23Z"/><path class="cls-3" d="M24,36a1,1,0,0,1-1-1V2a1,1,0,0,1,2,0V35A1,1,0,0,1,24,36Z"/><path class="cls-1" d="M20,28H12a1,1,0,0,1,0-2h8a1,1,0,0,1,0,2Z"/><path class="cls-1" d="M20,32H12a1,1,0,0,1,0-2h8a1,1,0,0,1,0,2Z"/><path class="cls-1" d="M36,32H28a1,1,0,0,1,0-2h8a1,1,0,0,1,0,2Z"/><path class="cls-1" d="M36,28H28a1,1,0,0,1,0-2h8a1,1,0,0,1,0,2Z"/><path class="cls-4" d="M39,35v2a2,2,0,0,1-2,2H11a2,2,0,0,1-2-2V35Z"/></g></svg>