<svg xmlns="http://www.w3.org/2000/svg" xmlns:xlink="http://www.w3.org/1999/xlink" viewBox="0 0 4680 3120"><defs><style>.cls-1{fill:none;}.cls-2,.cls-7{fill:#fff;}.cls-2{opacity:0;}.cls-3{fill:#ffe8c2;}.cls-4{clip-path:url(#clip-path);}.cls-5{fill:#fff2de;}.cls-6{fill:#ffbca9;}.cls-8{clip-path:url(#clip-path-2);}.cls-9{fill:#e8e8e8;}.cls-10{fill:#9d1107;}.cls-11{clip-path:url(#clip-path-3);}.cls-12{fill:#7c0b08;}.cls-13{clip-path:url(#clip-path-4);}.cls-14{fill:#ff8b74;}.cls-15{fill:#f97f76;}.cls-16{fill:#dddcdb;}.cls-17{fill:#f7d17c;}.cls-18{clip-path:url(#clip-path-5);}.cls-19{fill:#f4c260;}.cls-20{fill:#3e566b;}.cls-21{clip-path:url(#clip-path-6);}.cls-22{fill:#293d4c;}.cls-23{fill:#f4d4d4;}.cls-24{fill:#e88989;}.cls-25{fill:#e07373;}.cls-26{clip-path:url(#clip-path-7);}.cls-27{fill:#aa5757;}.cls-28{fill:#edb2b2;}.cls-29{clip-path:url(#clip-path-8);}.cls-30{fill:#649987;}.cls-31{clip-path:url(#clip-path-9);}.cls-32{fill:#487a68;}.cls-33{fill:#afdbc9;}.cls-34{fill:#f28c20;}.cls-35{opacity:0.24;}.cls-36{fill:#60564d;}.cls-37{fill:#cb4441;}.cls-38{clip-path:url(#clip-path-10);}.cls-39{fill:#eaacac;}.cls-40{fill:#ffb776;}.cls-41{fill:#ffd3ae;}.cls-42{clip-path:url(#clip-path-11);}.cls-43{opacity:0.38;}.cls-44{fill:#a12324;}.cls-45{fill:#ffa255;}.cls-46{fill:#6788a0;}.cls-47{opacity:0.51;}.cls-48{opacity:0.82;}.cls-49{opacity:0.57;}.cls-50{opacity:0.61;}</style><clipPath id="clip-path"><path class="cls-1" d="M2367.51,816.2c-167.43,57.12-330.89,128.47-501.12,81.33C1718,856.44,1519.33,847,1296.64,957,821.1,1191.85,484.42,2484.24,2327.26,2328.3,3910.66,2194.31,3415.55,458.68,2367.51,816.2Z"/></clipPath><clipPath id="clip-path-2"><path class="cls-1" d="M1857.14,1166.07s-41.83,51.5-70.9,64.75-37.3,57.66-37.3,57.66l187.38,496.44,50.43,289.66s164.46,3.86,221.32-31.57-62.7-811.09-62.7-811.09-102.61-28.55-144.81-43.49S1857.14,1166.07,1857.14,1166.07Z"/></clipPath><clipPath id="clip-path-3"><path class="cls-1" d="M1807.42,828.6s36.29-65.66,101.08-68.18,85.87-5.53,148.07,27.6,58.48,80.18,41.77,116.17-75.8,66.29-75.8,66.29l-192.86,110.34S1632.14,904,1807.42,828.6Z"/></clipPath><clipPath id="clip-path-4"><path class="cls-1" d="M2035.5,891.75c-28.13,8.91-31.35-25.67-43.71-10.92s-22.48,36.54-50.64,16c-22.93,35.13-53.39,12.27-53.39,12.27s1.2,13.56-21.17,11.36c7.58,23.91-23,103.27-23,103.27l0,1c-13.78-6.43-28.68-5.93-38.82,2.77-15.15,13-13.87,39.34,2.86,58.82,10.38,12.09,24.27,18.68,36.93,18.84l.06,4.89s6.62,25.76,8.91,91.6c105.62,84.19,176,57.23,170.52,20.28s-22.06-54.94-22.06-54.94,27,2.27,77.59-38.52-2.91-243.67-2.91-243.67S2063.64,882.83,2035.5,891.75Z"/></clipPath><clipPath id="clip-path-5"><path class="cls-1" d="M1955.71,1296.6l31.41,41.66,69.5,487.18,82.78,135.71L2151,1807.83l-127.82-474.71,10.75-54.45S1979.48,1262,1955.71,1296.6Z"/></clipPath><clipPath id="clip-path-6"><path class="cls-1" d="M2101.32,1219.41s31.9,108,43.21,194.41,33.7,475,33.7,475l23.19,295.87,144.74,9.59L2327,1717.64s171.07,136,268.62,99.19,121.05-373.55,121.05-373.55l-173-15.17-55.19,164s-175.92-274.32-225.5-317.47S2101.32,1219.41,2101.32,1219.41Z"/></clipPath><clipPath id="clip-path-7"><path class="cls-1" d="M2981.42,741.83l-644.71,1268.8s-35.19.62-48.87-31.14c49.91-99.17,648.31-1261.75,648.31-1261.75l-282.23-66.52s-14.13-21.19,11.88-26c33.71,6.75,269.07,65.55,269.07,65.55L2549,416.48s-3.85-22.47,18.94-11.23,383.35,270.43,383.35,270.43l-151.2-237.32s1.61-16.37,19.91-7.7c14.77,18,152.16,240.85,152.16,240.85l87.68-146.09,25.36,15.1L3003.9,687.89l130.69-35.62s14.13,4.5,6.1,19.59c-53.3,16-135.19,41.39-135.19,41.39l192.34,23.48s30.18-.64,15.08,24.72c-36.6-.64-185.59-23.79-185.59-23.79l282.86,171.83s13.48,24.41-5.46,27.3C3277.76,921.37,2981.42,741.83,2981.42,741.83Z"/></clipPath><clipPath id="clip-path-8"><path class="cls-1" d="M1786.24,1230.82s64.65,110.93,108.72,182.9,96.13,181.48,148.74,206.67,363.1-123.91,363.1-123.91-6.08,105.76,21.58,165.51c-107.14,89.11-378.13,247.26-378.13,247.26L2072.4,2248s-302.48,3.15-302.48,0V1909.25s-24.59-136.26-30.29-152.18S1417.56,1379,1786.24,1230.82Z"/></clipPath><clipPath id="clip-path-9"><path class="cls-1" d="M3210.86,2665.9H1181.76s10.1-98.43,108.53-95.91c-73.19-106,12.62-247.32,159-146.37C1398.8,2141,1689,2181.35,1757.17,2287.33s648.61,196.86,769.75,60.58,285.18-90.86,373.52,55.52c73.19-85.81,217-83.29,169.08,78.24,83.29-55.52,141.34-2.52,106,133.75C3228.53,2602.8,3210.86,2665.9,3210.86,2665.9Z"/></clipPath><clipPath id="clip-path-10"><polygon class="cls-1" points="1829.52 1902.99 2486.4 1902.99 2486.4 2270.02 1637.6 2270.02 1829.52 1902.99"/></clipPath><clipPath id="clip-path-11"><polygon class="cls-1" points="2761.89 1953.36 2474.02 1663.89 2403.66 1611.12 2074.2 1946.97 2067.81 1967.76 2067.81 2554.69 2761.89 2554.69 2761.89 1967.76 2761.89 1953.36"/></clipPath></defs><title>05</title><g id="_05" data-name="05"><rect id="_05-2" data-name="05" class="cls-2" width="4680" height="3120"/><path class="cls-3" d="M2367.51,816.2c-167.43,57.12-330.89,128.47-501.12,81.33C1718,856.44,1519.33,847,1296.64,957,821.1,1191.85,484.42,2484.24,2327.26,2328.3,3910.66,2194.31,3415.55,458.68,2367.51,816.2Z"/><g class="cls-4"><path class="cls-5" d="M3408,1079.36c-65.53-70.65-164.28-115.23-259.14-98.27-116.66,20.85-198.61,123.77-264.85,222-98.27,145.75-187.45,298-296.51,435.88s-240.77,262.58-401.39,334c-190.51,84.74-412.55,88-611.41,25.33S1199.9,1810,1062.11,1653.46c-34.66-39.36-67.64-81.22-110.64-111.22s-99.09-46.8-148.56-29.42l-9.74,319c-47.87,72-37.75,168.87-5.54,249.08,61.58,153.36,194.13,270.55,343.26,341.77s314.62,100.77,478.95,118.31a3624.76,3624.76,0,0,0,1023.08-36.4c131.67-23.62,263.22-55,383.84-112.8,190-91.13,347.49-248.3,439.55-437.88s118.23-410.29,73.71-616.28C3509.67,1243.41,3473.54,1150,3408,1079.36Z"/></g><path class="cls-6" d="M2631.84,1300.84c3.78-11.54,22.66-66.55,2.65-71.32s-43.24,60-66.33,103.43,5.24,94.28,5.24,94.28c17.59,13,80.36,15.35,80.36,15.35S2724,1325,2723.42,1326.1,2628.06,1312.38,2631.84,1300.84Z"/><path class="cls-7" d="M2000.56,1188.43c-42.2-15-143.42-22.36-143.42-22.36s-41.83,51.5-70.9,64.75-37.3,57.66-37.3,57.66l187.38,496.44,50.43,289.66s164.46,3.86,221.32-31.57-62.7-811.09-62.7-811.09S2042.76,1203.37,2000.56,1188.43Z"/><g class="cls-8"><path class="cls-9" d="M2260.71,1571.19c-29-21.68-69.1-15.9-105.28-17.58-68.87-3.21-133.68-37.53-184-84.62s-87.71-106.35-120.26-167.13c-19.46-36.35-41.75-77.19-81.49-88.19l-173.17,57.15c-10.25,12.34,3.27,29.61,14.34,41.22,32.78,34.38,49.88,81.21,57.1,128.17s5.39,94.75,5.21,142.25a2040.94,2040.94,0,0,0,17.79,277.09c7.81,58.75,18.39,117.86,42.4,172s62.75,103.61,115.5,130.64c56.41,28.89,123,29.78,186,23a855.27,855.27,0,0,0,141.92-27.56c53.29-15.11,109.71-39.41,134.55-88.91,12.51-24.93,15.41-53.47,17.11-81.31a1180.66,1180.66,0,0,0-28.93-340.84C2292.87,1618.5,2283.84,1588.48,2260.71,1571.19Z"/></g><path class="cls-10" d="M2056.57,788c-62.2-33.13-83.27-30.13-148.07-27.6s-101.08,68.18-101.08,68.18c-175.28,75.42,22.26,252.22,22.26,252.22l192.86-110.34s59.09-30.3,75.8-66.29S2118.76,821.15,2056.57,788Z"/><g class="cls-11"><path class="cls-12" d="M2109.66,872c-33.95-29.37-71.45-56.4-114.73-68.33s-93.45-6.45-127,23.35a79.33,79.33,0,0,1,25.48-36.81,92,92,0,0,0-55.7,44.46l-.2,4.71-31.42,29.25c-4.27,4-8.16,11.88-2.93,14.47,1.92,1,4.21.43,6.29-.1l20.17-5.17a136.72,136.72,0,0,0-45.81,81c-3.65,22.06-1.8,44.63.8,66.83q3,26.1,7.45,52c3,17.41,8.26,37.27,24.35,44.56,12.35,5.6,26.76,1.59,39.52-3,73.91-26.54,142.58-71.61,188.49-135.32,9.4-13,17.79-26.77,26.18-40.48l39.82-65.1c.72-1.17,1.46-2.52,1.12-3.85A5.23,5.23,0,0,0,2109.66,872Z"/></g><path class="cls-6" d="M2035.5,891.75c-28.13,8.91-31.35-25.67-43.71-10.92s-22.48,36.54-50.64,16c-22.93,35.13-53.39,12.27-53.39,12.27s1.2,13.56-21.17,11.36c7.58,23.91-23,103.27-23,103.27l0,1c-13.78-6.43-28.68-5.93-38.82,2.77-15.15,13-13.87,39.34,2.86,58.82,10.38,12.09,24.27,18.68,36.93,18.84l.06,4.89s6.62,25.76,8.91,91.6c105.62,84.19,176,57.23,170.52,20.28s-22.06-54.94-22.06-54.94,27,2.27,77.59-38.52-2.91-243.67-2.91-243.67S2063.64,882.83,2035.5,891.75Z"/><g class="cls-13"><path class="cls-14" d="M2062,809.06c-88.77-26-192.17,10.18-245.41,85.82-5.68,8.08-11,17.24-10.47,27.1l22.3,58.82,15,40.39A165,165,0,0,0,1896,945.7c1-3,2.07-6.25,4.66-8.07,5.14-3.61,11.95.6,18.16,1.51,15.72,2.3,27-17,42.74-18.7,5.49-.6,11.25,1,16.46-.82,6-2.12,9.76-8.29,15.44-11.26,8.92-4.66,19.6-.37,29.5,1.49,32.5,6.09,63.1-15.4,89.21-35.69,5.41-4.21,11.24-9.13,12.11-15.93.77-6-2.68-11.8-6.57-16.48C2103.75,825,2083,815.2,2062,809.06Z"/><path class="cls-14" d="M2048.63,1170.25l-23.94-6.81c-18,9.35-39.8,7.7-59.6,3.11s-39.14-11.9-59.42-13.21c.3,6,2.93,11.54,5.83,16.75a146.8,146.8,0,0,0,85.21,68.4c10.88,3.25,22.93,5.14,33.35.63,9.84-4.26,16.68-13.71,20.22-23.83s4.22-21,4.81-31.68C2055.4,1178.11,2054.13,1170.68,2048.63,1170.25Z"/><path class="cls-14" d="M1847.86,1047.76c-8.87-4-18.54-1.62-21.61,5.23s1.64,15.62,10.51,19.59,18.55,1.62,21.61-5.23S1856.73,1051.72,1847.86,1047.76Z"/></g><path class="cls-10" d="M1917.31,925.17a33.8,33.8,0,0,0-5,1.23c-.81.31-1.62.64-2.41,1a12.75,12.75,0,0,0-1.19.54l-1.12.64a24.12,24.12,0,0,0-7.67,6.73,93.1,93.1,0,0,1,9-3.75c1.46-.58,3-.89,4.49-1.36,1.54-.29,3-.71,4.59-.9a67.57,67.57,0,0,1,9.39-.83c3.19-.06,6.42,0,9.8.24a25.75,25.75,0,0,0-9.55-3.49A31.78,31.78,0,0,0,1917.31,925.17Z"/><path class="cls-10" d="M2033.39,914.19a34.23,34.23,0,0,0-5.06,1.23c-.81.32-1.61.64-2.41,1-.39.18-.8.32-1.18.53l-1.13.65a24.05,24.05,0,0,0-7.66,6.72,93.39,93.39,0,0,1,9-3.74c1.46-.59,3-.89,4.49-1.36,1.53-.3,3-.71,4.58-.9a66.34,66.34,0,0,1,9.4-.83c3.19-.07,6.41,0,9.8.23a26.17,26.17,0,0,0-9.55-3.49A32.35,32.35,0,0,0,2033.39,914.19Z"/><path class="cls-10" d="M2024.31,1008.28c-.18.59-.35,1.18-.52,1.78.58.17,1.16.34,1.74.49Z"/><path class="cls-10" d="M2019.22,1004.05a33.41,33.41,0,0,1-6.5-4.29,35.57,35.57,0,0,1-9.4-12.3,53.74,53.74,0,0,1-4.42-15.32,83.25,83.25,0,0,1-.66-16.36,48,48,0,0,0-1.59,8.19,56,56,0,0,0-.32,8.4,47,47,0,0,0,3.51,16.64,41.17,41.17,0,0,0,1.87,3.91,40.33,40.33,0,0,0,2.39,3.66,32.82,32.82,0,0,0,6,6.36,38.86,38.86,0,0,0,13.7,7.12c.17-.6.34-1.19.52-1.78l1.22,2.27c-.58-.15-1.16-.32-1.74-.49-.16.54-.32,1.07-.47,1.61-.32,1.14-.69,2.26-1,3.39-.72,2.25-1.44,4.49-2.23,6.72s-1.63,4.42-2.62,6.55c-.49,1.07-1,2.14-1.58,3.16a13.17,13.17,0,0,1-2,2.9,11.68,11.68,0,0,0,2.64-2.47,36.22,36.22,0,0,0,2.16-2.93,66.3,66.3,0,0,0,3.58-6.3c1-2.16,2.07-4.35,3-6.59s1.78-4.47,2.57-6.74l.57-1.66-1.8-.61A46.29,46.29,0,0,1,2019.22,1004.05Z"/><ellipse class="cls-10" cx="2044.16" cy="972.56" rx="11.86" ry="16.05" transform="translate(-55.64 126.81) rotate(-3.51)"/><ellipse class="cls-10" cx="1937.51" cy="988.01" rx="11.86" ry="16.05" transform="translate(-56.78 120.3) rotate(-3.5)"/><ellipse class="cls-7" cx="2046.75" cy="980.13" rx="4.88" ry="6.58" transform="translate(-56.08 126.93) rotate(-3.5)"/><path class="cls-7" d="M1940,988.51c-2.68.16-4.68,3.24-4.46,6.87s2.58,6.44,5.27,6.27,4.68-3.24,4.46-6.87S1942.64,988.34,1940,988.51Z"/><path class="cls-10" d="M1973.82,1079.48l3.93,1c-.49-1.2-1-2.41-1.37-3.64Z"/><path class="cls-10" d="M1984.57,1081.85a65.12,65.12,0,0,0,11,.69,60,60,0,0,0,10.88-1.27,40,40,0,0,0,10.27-3.56,58.63,58.63,0,0,1-10.54,1.65,80.77,80.77,0,0,1-10.55.06c-.88-.05-1.75-.15-2.62-.22l-1.31-.13-1.3-.17-2.6-.34-2.58-.48c-.86-.15-1.72-.31-2.57-.54l-2.55-.58c-1.7-.42-3.37-1-5-1.41l-3.66-1,1.1,3.61a44.07,44.07,0,0,0,5.44,11.48,31,31,0,0,0,4.11,5,27.11,27.11,0,0,0,5,4,28.53,28.53,0,0,0,5.78,2.8,32,32,0,0,0,6.19,1.42,29.18,29.18,0,0,0,12.32-1.13,35,35,0,0,1-6.06,0,33.78,33.78,0,0,1-5.87-1,29.78,29.78,0,0,1-5.51-2,26.53,26.53,0,0,1-5-3,30.46,30.46,0,0,1-7.7-8.41,39.86,39.86,0,0,1-3.51-6.89l-3.93-1,2.56-2.6c.42,1.23.88,2.44,1.37,3.64l1.4.35C1981,1081.23,1982.74,1081.66,1984.57,1081.85Z"/><circle class="cls-15" cx="1912.09" cy="1050.78" r="35.29" transform="translate(-269.41 1015.17) rotate(-27.86)"/><path class="cls-16" d="M1940,1286.71a66.28,66.28,0,0,0-21,17.75,79.49,79.49,0,0,0-7.53,11.61l-1.56,3.09c-.5,1-1,2.09-1.43,3.14l-1.37,3a20.12,20.12,0,0,1-1.59,2.59,14.18,14.18,0,0,1-.93,1.08,11.4,11.4,0,0,1-1,.87,5,5,0,0,1-2.19.87,8.11,8.11,0,0,1-5-1.64,26.93,26.93,0,0,1-4.71-4.16,58.66,58.66,0,0,1-4.18-5.05,175.65,175.65,0,0,1-14-22.81c-4.26-7.92-8.13-16-12-24.21-7.58-16.36-14.68-33-21.65-49.67a540,540,0,0,0,18.68,51q5.26,12.54,11.44,24.71a172.56,172.56,0,0,0,14.15,23.5,62.9,62.9,0,0,0,4.5,5.36,31.15,31.15,0,0,0,5.48,4.74,15.33,15.33,0,0,0,3.49,1.72,9.45,9.45,0,0,0,4.21.51,9.15,9.15,0,0,0,4-1.6,14.51,14.51,0,0,0,1.54-1.36,17.2,17.2,0,0,0,1.24-1.52,23.43,23.43,0,0,0,1.89-3.21l1.39-3.21c.44-1,.85-2,1.31-3l1.44-3a85.4,85.4,0,0,1,6.88-11.32,67,67,0,0,1,19.37-17.94,65.15,65.15,0,0,1,12.09-5.7,63,63,0,0,1,6.47-1.88,44,44,0,0,1,6.67-1.09,50.57,50.57,0,0,0-13.48,1.87A63.45,63.45,0,0,0,1940,1286.71Z"/><path class="cls-16" d="M2074.6,1278.27c.05-.08.12-.11.25-.2a.91.91,0,0,1,.56-.1,2.51,2.51,0,0,1-.64-.37l-.05,0a3.55,3.55,0,0,1-.18.78S2074.55,1278.34,2074.6,1278.27Z"/><path class="cls-16" d="M2078.61,1272.45c-.3-2.29-.72-4.52-1.22-6.73-1-4.4-2.18-8.74-3.53-13a236.44,236.44,0,0,0-9.3-25.17c2,8.74,4.12,17.38,6.16,26,1,4.33,2,8.63,2.81,13,.4,2.15.8,4.31,1,6.43a30.92,30.92,0,0,1,.22,3.12,10.55,10.55,0,0,1-.06,1.41.22.22,0,0,1,0,.08l.05,0a2.51,2.51,0,0,0,.64.37.91.91,0,0,0-.56.1c-.13.09-.2.12-.25.2s-.06,0-.06.07a3.55,3.55,0,0,0,.18-.78,12.59,12.59,0,0,1-1-.87l-1.17-1.17a26.63,26.63,0,0,0-5.65-4.39,36,36,0,0,0-13.22-4.47,54.83,54.83,0,0,0-13.66-.19,60.47,60.47,0,0,0-13.16,2.87,92.52,92.52,0,0,1,13.26-.84,63.59,63.59,0,0,1,13,1.34,36.1,36.1,0,0,1,11.75,4.64,25.79,25.79,0,0,1,4.8,3.89l.55.55.63.67a17,17,0,0,0,1.45,1.3,6.1,6.1,0,0,0,2.32,1.15,3.36,3.36,0,0,0,1,0,2.87,2.87,0,0,0,1.15-.34,3,3,0,0,0,.91-.71,4.31,4.31,0,0,0,.53-.75,6.45,6.45,0,0,0,.63-2.36,14.16,14.16,0,0,0,.06-1.93A33.74,33.74,0,0,0,2078.61,1272.45Z"/><path class="cls-17" d="M2033.9,1278.67s-54.42-16.67-78.19,17.93l31.41,41.66,69.5,487.18,82.78,135.71L2151,1807.83l-127.82-474.71Z"/><g class="cls-18"><path class="cls-19" d="M2162,1811.3c-5.38-3.43-12.17-3.37-18.38-4.8-24.42-5.64-36.44-32.61-44.48-56.34a2220.73,2220.73,0,0,1-66.75-241.23c-9.51-43.84-17.72-88.18-19.28-133-.17-5-.15-10.46,2.8-14.54,7.68-10.66,31-7.68,30.63-20.81-.17-5.59-5.83-9.61-11.34-10.56s-11.18.17-16.77-.06c-14.46-.61-27.26-10.43-35.2-22.52s-11.85-26.32-15.64-40.28l-62.36,65.25c-3.84,32.22,4.06,64.55,6.55,96.91,2.46,31.93-.37,64-2.69,95.94-6.53,89.74-8.76,181.92,18.94,267.52s90.55,164.52,177,189.39c17.63,5.07,38.53,7.19,52.57-4.61,11.74-9.86,15-26.39,16.61-41.63a419.72,419.72,0,0,0-1.33-101C2171.66,1826,2169.51,1816.12,2162,1811.3Z"/></g><path class="cls-20" d="M2488.49,1592.13s-175.92-274.32-225.5-317.47-161.67-55.25-161.67-55.25,31.9,108,43.21,194.41,33.7,475,33.7,475l23.19,295.87,144.74,9.59L2327,1717.64s171.07,136,268.62,99.19,121.05-373.55,121.05-373.55l-173-15.17Z"/><g class="cls-21"><path class="cls-22" d="M2138.9,1166.77a729,729,0,0,0-98.87,36.47c-1.93.88-4,1.88-5,3.75-1.48,2.74-.09,6.08,1.26,8.89,31.26,65,45.84,136.54,60.14,207.23q27.22,134.58,54.44,269.14c46.81-77.33,27.13-178.59,61-262.42,3.52-8.73,7.7-18.16,5.1-27.2-5.06-17.63-30.22-19.72-41.51-34.17l44.29,9.27a636.89,636.89,0,0,0-6.14-144.08Z"/><path class="cls-22" d="M2554.86,1351.14a350.08,350.08,0,0,0-94.41-16.76l-71.65,106.74a278.6,278.6,0,0,1,53.95,186.45c-1.82,23.35-5.74,49.78,9.41,67.63l24.45-77.12c-.52,36,1.72,77.78,30.85,98.9,15.66-50.28-2.39-104.87,3.77-157.18,7.38-62.75,48.67-116.52,63.42-178,1.27-5.28,2.32-10.94.46-16C2572.15,1357.67,2563.08,1353.8,2554.86,1351.14Z"/></g><path class="cls-23" d="M3440.9,736.12,3154.36,541l-75.48-34.44-30.48-13.89s-.07,0-.12-.05l-304.73-139s-178.69-23.25-461.11-31.47q-9.39,11.42-19.13,22.12C2163,454.5,2040.6,505.85,2036.58,507.53l-.11.05S2292.2,681.5,2247.36,905.45c327.35,23.55,529.29,230.46,606.88,327.67,24.26,30.35,36.35,50,36.35,50s231.87-69.75,515.51,189.9c85.27-138.21,351.15-190.18,351.15-190.18,5.86-24.88-30.4-98.26-80.26-183.5C3583.1,938.78,3440.9,736.12,3440.9,736.12Z"/><path class="cls-24" d="M3154.36,541l-75.48-34.44-14.38-4.26-19-5.63s9,12.4,23.32,33c.43.63.88,1.25,1.32,1.92,31.19,45,85.9,126.94,127.67,205.13,62,115.92,113.48,183.84,135.14,300.89s88.56,333.31,73.13,435.41c85.28-138.21,351.15-190.19,351.15-190.19,16.87-71.76-316.35-546.71-316.35-546.71Z"/><path class="cls-25" d="M2831.63,583.6c-62.62,25-352.1,119.87-594.4,329.35,327.35,23.55,529.28,230.45,606.87,327.66,82.41-175.33,252.36-562.37,215.92-701.53C3047.52,521.2,2894.25,558.57,2831.63,583.6Z"/><path class="cls-24" d="M3064.5,502.31c-5.21-3.12-10.57-6.35-16.1-9.63,0,0-.07,0-.12-.05l-304.73-139s-178.68-23.24-461.11-31.46c-103.08,125.53-241.57,183.64-245.85,185.42,8.61-2.61,602-182.14,1023.21,17.87,3.09,1.47,6.11,2.91,9,4.27C3214.3,598.32,3174.36,568.33,3064.5,502.31Z"/><path class="cls-24" d="M3027.33,737.66s149,23.15,185.59,23.79c15.1-25.36-15.08-24.72-15.08-24.72L3005.5,713.25s81.89-25.35,135.19-41.39c8-15.09-6.1-19.59-6.1-19.59L3003.9,687.89l81.26-147.37-25.36-15.1-87.68,146.09S2834.73,448.64,2820,430.66c-18.3-8.67-19.91,7.7-19.91,7.7l151.2,237.32S2590.7,416.49,2567.9,405.25,2549,416.48,2549,416.48l385.91,274.29S2699.51,632,2665.8,625.22c-26,4.81-11.88,26-11.88,26l282.23,66.52s-598.4,1162.58-648.31,1261.75c13.68,31.76,48.87,31.14,48.87,31.14l644.71-1268.8s296.34,179.54,323.31,195c18.94-2.89,5.46-27.3,5.46-27.3Z"/><g class="cls-26"><polygon class="cls-27" points="2634.74 696.32 2862.79 745.73 2424.53 1556.98 2217.01 1961.44 2288.42 2034.4 2965.51 708.68 2625.28 630.99 2634.74 696.32"/><polygon class="cls-28" points="2965.51 708.68 3249.79 770.6 3163.59 650.65 2965.51 708.68"/><polygon class="cls-28" points="2969.85 687.01 3083.86 514.02 2800.72 417.72 2969.85 687.01"/></g><path class="cls-27" d="M3137.51,475c-51.55-2.8-71.57-65.68-112.49-88.66-108.07-60.68-162.29-20.5-209.7-40.95-76.09-32.82-200.84-47.72-532.87-23.29,1075.61,12.83,1474.8,960.72,1474.8,960.72C3590.23,615.74,3147.32,475.56,3137.51,475Z"/><path class="cls-6" d="M2575.15,1482.62c-15.2-13.18-47.64-6.08-47.64-6.08s-10.14-17.24-30.41-23.32-48.66,24.33-69.95,45.62-40.54,23.26-40.54,23.26c-47.46,15.35-17.49,82.16-17.49,82.16s47.9,34.47,66.13,36.5,75-8.11,85.84-7.1,12.82-24.13,27.23-22.72,11.54-28,11.54-28,16.31,1,22.39-8.28-6.08-26.19-6.08-26.19,27.37-6.08,26.35-17.81S2590.36,1495.8,2575.15,1482.62Z"/><path class="cls-14" d="M2559.39,1524.69a48.21,48.21,0,0,0-9.73-8.66,28,28,0,0,0-5.91-3,15,15,0,0,0-6.48-.89,22.57,22.57,0,0,1,5.6,2.73,42.28,42.28,0,0,1,4.82,3.74,100.56,100.56,0,0,1,8.58,8.8c2.73,3.1,5.37,6.31,8,9.55s5.3,6.51,8.15,9.74a59.92,59.92,0,0,0-5.48-11.62A72.52,72.52,0,0,0,2559.39,1524.69Z"/><path class="cls-14" d="M2518.87,1479.06a112.16,112.16,0,0,0-15.56,2.88,129,129,0,0,0-15,4.88,91,91,0,0,0-14.19,7c5.15-1.19,10.18-2.54,15.21-3.86l15-4c5-1.3,10-2.49,15.06-3.68s10.12-2.18,15.29-3.36A74.14,74.14,0,0,0,2518.87,1479.06Z"/><path class="cls-14" d="M2546.55,1565.52a55.84,55.84,0,0,0-8.67-6.89,36.62,36.62,0,0,0-4.94-2.65c-.9-.31-1.78-.65-2.67-.93s-1.85-.38-2.76-.5a60.82,60.82,0,0,1,8.39,6.69c2.63,2.39,5.21,4.82,7.78,7.29s5.18,4.92,7.84,7.37,5.38,4.83,8.34,7.08a54.33,54.33,0,0,0-5.94-9.29A74,74,0,0,0,2546.55,1565.52Z"/><path class="cls-14" d="M2531.63,1605.21a72.35,72.35,0,0,0-6.33-5.16,70.48,70.48,0,0,0-6.86-4.44,43.37,43.37,0,0,0-7.56-3.48,42.91,42.91,0,0,0,5.64,6.13,70.79,70.79,0,0,0,6.33,5.15,72.4,72.4,0,0,0,6.86,4.44,44.12,44.12,0,0,0,7.56,3.48A43.37,43.37,0,0,0,2531.63,1605.21Z"/><path class="cls-20" d="M2406.8,1496.48s-310.48,149.1-363.1,123.91S1939,1485.68,1895,1413.72s-108.72-182.9-108.72-182.9c-368.68,148.14-52.3,510.33-46.61,526.25s30.29,152.18,30.29,152.18V2248c0,3.15,302.48,0,302.48,0l-22.15-338.79s271-158.15,378.13-247.26C2400.72,1602.24,2406.8,1496.48,2406.8,1496.48Z"/><g class="cls-29"><path class="cls-22" d="M2075,1597.86A1920.6,1920.6,0,0,1,1981.61,1404c-12.28-29.66-23.87-59.75-39.74-87.66-26.76-47.06-64.95-86.64-105.74-122.24-17.91-15.64-37.08-31-59.92-37.6s-50.32-2.54-65.52,15.75l2.58,84.68,65.75,91.6c2.35,3.27,5,6.75,8.87,7.82,3.2.89,6.58-.06,9.76-1l38.65-11.53q-15.54,28.34-31.1,56.66c-2.29,4.17-4.66,8.69-4.18,13.43.54,5.36,4.56,9.63,8.37,13.45,65.63,65.91,136.45,133.55,221.71,166.81-3.8-.84-7.58-1.8-11.33-2.94-29.9-9.07-56-27.42-80.92-46.26-51.3-38.78-85-50.29-130.92-95.37-24.43-24-64.34-39.83-98.59-40,53.8,18.07,85.43,71.75,123.85,113.53a348.57,348.57,0,0,0,112.87,81.5c20.36,9.17,43.12,17.62,54.7,36.72,13.15,21.68,9.22,53,19.89,74.1,6.07,12,23.62,11,28.34-1.65,8.14-21.77,3.76-56.65,26.44-61.88,6.69-1.54,13.64.57,20.5.56,10.25,0,19.84-4.72,29-9.32l304-152.66c-91.11,9.47-173.22,56.81-259.68,87.07C2139,1588.18,2106.82,1596.7,2075,1597.86Z"/><path class="cls-22" d="M2224.43,1854.69l-48.8-23c-31.1,29.1-76.72,36.24-119.3,36.25a477.61,477.61,0,0,1-239.41-64.65l104.41,95.88c28.57,26.23,58.65,55.06,66.42,93,8.13,39.73-10.09,81.8.26,121,6.93,26.27,26.16,54,13.16,77.83-7.93,14.55-25.33,21-41.65,23.9-79.21,14.09-159.47-27.52-239.41-18.53-5.3.6-10.88,1.55-14.91,5-6.6,5.74-6.55,16-4.7,24.54,7.59,35.14,35.27,62.36,64.4,83.43,74.17,53.64,166.76,81.27,258.19,77,42.57-2,85.8-11,121.79-33.86s63.87-60.93,67.08-103.43c2.54-33.52-9.9-66.11-21.19-97.77-18-50.44-33.76-102.88-32.32-156.41S2181,1886.05,2224.43,1854.69Z"/></g><path class="cls-6" d="M2764.17,1309.63c-16.37-10.14-42.91-42.56-59.54-41.63-7.76.43-17.93,5.18-26.59,10.13a28.42,28.42,0,0,0-13.56,30.85l2.15,9.64s-20.89-3.94-21.58,13.22a101.22,101.22,0,0,1-6.56,31.29s-25.5,15.63-21.85,26.93-13.31,6.4-19.71,23.47a33.84,33.84,0,0,0-1.58,5.91c-4.93,28.26,23.05,51.15,50.27,42.12,18.11-6,43.66-15.09,56.42-22.47,21-12.15,17.31-36.49,32.79-48.34s29.94-13.77,30.38-30.44S2780.54,1319.77,2764.17,1309.63Z"/><polygon class="cls-14" points="2717.82 1332.97 2715.9 1334.41 2717.59 1336.11 2717.82 1332.97"/><path class="cls-14" d="M2695.58,1313.6c.18.2.38.4.56.59l.91-.15Z"/><path class="cls-14" d="M2709.29,1322.14c-3.81-3.61-7.56-7.29-11.42-10.84l-.68-.63-.79.19c-2.62.62-5.24,1.24-7.83,1.92l-7.64,2.06-7.31,2c-2.38.63-4.7,1.23-7,1.77,2.72-.48,5.42-.92,8-1.31s5.21-.75,7.74-1.08l7.41-1c2.12-.3,4.21-.65,6.31-1-.18-.19-.38-.39-.56-.59l1.47.44-.91.15c3.41,3.63,6.91,7.17,10.35,10.76l9.41,9.46,1.93-1.44-.24,3.14-1.69-1.7-5.7,4.25,1.13.55-2.1.17,1-.72c-3.15-1.57-6.33-3.06-9.5-4.57-3.56-1.68-7.23-3.28-10.9-4.94l-11.38-5.05c-3.85-1.75-7.79-3.57-11.79-5.48q4.93,2.73,10.1,5.72l10.52,6.14c3.62,2.06,7.26,4.2,11,6.25s7.48,4.1,11.26,6.06l1.1.56,1-.73,8.68-6.31,2-1.43-1.74-1.71Z"/><path class="cls-14" d="M2711.33,1339.21l-1.13-.55-1,.72Z"/><path class="cls-14" d="M2664.81,1365q-5.68-2.91-11.56-5.41a105.33,105.33,0,0,0-12.1-4.34,105.25,105.25,0,0,0,10.61,7.25q5.47,3.32,11.15,6.2t11.56,5.41a100.9,100.9,0,0,0,12.09,4.34,102.51,102.51,0,0,0-10.6-7.26Q2670.48,1367.84,2664.81,1365Z"/><path class="cls-14" d="M2634.07,1400.92q-6-2.57-12.16-4.71a108.86,108.86,0,0,0-12.63-3.61,110.68,110.68,0,0,0,11.35,6.62q5.8,3,11.8,5.53t12.16,4.7a105,105,0,0,0,12.63,3.61,108.73,108.73,0,0,0-11.34-6.62Q2640.06,1403.47,2634.07,1400.92Z"/><ellipse class="cls-3" cx="2142.26" cy="2686.91" rx="1156.82" ry="123.09"/><path class="cls-30" d="M3175.53,2615.42c35.33-136.27-22.72-189.27-106-133.75,48-161.53-95.89-164.05-169.08-78.24-88.34-146.38-252.37-191.81-373.52-55.52s-701.6,45.43-769.75-60.58S1398.8,2141,1449.28,2423.62c-146.37-100.95-232.18,40.38-159,146.37-98.43-2.52-108.53,95.91-108.53,95.91h2029.1S3228.53,2602.8,3175.53,2615.42Z"/><g class="cls-31"><path class="cls-32" d="M3057.37,2667.92c31.32-120.8-20.14-167.79-94-118.57,42.51-143.19-85-145.43-149.89-69.36-78.31-129.77-223.73-170-331.13-49.22s-622,40.27-682.4-53.7-317.7-129.76-273,120.82c-129.76-89.5-205.83,35.8-141,129.76-87.26-2.24-96.21,85-96.21,85H3088.69S3104.35,2656.74,3057.37,2667.92Z"/></g><path class="cls-33" d="M2805.09,2469.61a4.52,4.52,0,0,0-3.4,1.53l-34.85,40v-59.35a5,5,0,0,0-10.09,0v69.09l-47.7-27.54a4.48,4.48,0,1,0-4.48,7.77l50.51,29.18a4.45,4.45,0,0,0,1.67.55v135.1h10.09v-61.18a4.43,4.43,0,0,0,2.61-1.45l27-30.91a4.49,4.49,0,0,0-.43-6.32l-.46-.41a4.5,4.5,0,0,0-6.33.44l-22.36,25.64v-69.2a4.38,4.38,0,0,0,3.28-1.52l38.33-43.95a4.5,4.5,0,0,0-.42-6.34A4.44,4.44,0,0,0,2805.09,2469.61Z"/><path class="cls-33" d="M1441,2519.06l-41.91,24.19v-60.69a4.44,4.44,0,1,0-8.87,0v52.15l-30.62-35.12a4,4,0,0,0-3-1.35,3.9,3.9,0,0,0-2.58,1,4,4,0,0,0-.37,5.57l33.69,38.62a3.85,3.85,0,0,0,2.87,1.33v60.79L1370.55,2583a3.92,3.92,0,0,0-5.55-.39l-.41.35a4,4,0,0,0-.38,5.55l23.7,27.18a3.84,3.84,0,0,0,2.29,1.26v49h8.87V2552a3.66,3.66,0,0,0,1.46-.49l44.39-25.62a3.94,3.94,0,1,0-3.94-6.83Z"/><path class="cls-33" d="M3112.72,2575.93a2.41,2.41,0,0,0-1.79.82l-18.46,21.14v-31.4a2.67,2.67,0,1,0-5.33,0V2603l-25.24-14.56a2.38,2.38,0,0,0-3.25.86,2.41,2.41,0,0,0,.88,3.25l26.73,15.43a2.55,2.55,0,0,0,.88.3v57.58h5.33v-18.48a2.26,2.26,0,0,0,1.38-.75l14.29-16.36a2.38,2.38,0,0,0-.24-3.35l-.23-.22a2.38,2.38,0,0,0-3.35.24l-11.85,13.56v-36.61a2.38,2.38,0,0,0,1.74-.81l20.29-23.25a2.38,2.38,0,0,0-1.78-3.94Z"/><rect class="cls-34" x="1695.18" y="2226.84" width="491.78" height="440.9"/><g class="cls-35"><rect class="cls-36" x="1695.18" y="2224.44" width="491.78" height="117.55"/></g><polygon class="cls-37" points="1637.6 2270.02 2486.4 2270.02 2486.4 1902.99 1829.52 1902.99 1637.6 2270.02"/><g class="cls-38"><path class="cls-39" d="M1732.54,1962.34a43,43,0,0,1-43-43h-4.16a47.14,47.14,0,1,0,94.27,0h-4.17A43,43,0,0,1,1732.54,1962.34Z"/><path class="cls-39" d="M1822.65,1962.34a43,43,0,0,1-43-43h-4.17a47.14,47.14,0,1,0,94.27,0h-4.16A43,43,0,0,1,1822.65,1962.34Z"/><path class="cls-39" d="M1912.75,1962.34a43,43,0,0,1-43-43h-4.16a47.14,47.14,0,1,0,94.27,0h-4.17A43,43,0,0,1,1912.75,1962.34Z"/><path class="cls-39" d="M2002.86,1962.34a43,43,0,0,1-43-43h-4.17a47.14,47.14,0,0,0,94.28,0h-4.17A43,43,0,0,1,2002.86,1962.34Z"/><path class="cls-39" d="M2093.24,1962.34a43,43,0,0,1-43-43h-4.17a47.14,47.14,0,1,0,94.27,0h-4.16A43,43,0,0,1,2093.24,1962.34Z"/><path class="cls-39" d="M2183.34,1962.34a43,43,0,0,1-43-43h-4.16a47.14,47.14,0,1,0,94.27,0h-4.17A43,43,0,0,1,2183.34,1962.34Z"/><path class="cls-39" d="M2273.45,1962.34a43,43,0,0,1-43-43h-4.17a47.14,47.14,0,1,0,94.27,0h-4.16A43,43,0,0,1,2273.45,1962.34Z"/><path class="cls-39" d="M2363.55,1962.34a43,43,0,0,1-43-43h-4.16a47.14,47.14,0,1,0,94.27,0h-4.17A43,43,0,0,1,2363.55,1962.34Z"/><path class="cls-39" d="M2452.81,1962.34a43,43,0,0,1-43-43h-4.16a47.14,47.14,0,1,0,94.27,0h-4.17A43,43,0,0,1,2452.81,1962.34Z"/><path class="cls-39" d="M2542.92,1962.34a43,43,0,0,1-43-43h-4.17a47.14,47.14,0,1,0,94.28,0h-4.17A43,43,0,0,1,2542.92,1962.34Z"/><path class="cls-39" d="M2633,1962.34a43,43,0,0,1-43-43h-4.17a47.14,47.14,0,1,0,94.27,0H2676A43,43,0,0,1,2633,1962.34Z"/><path class="cls-39" d="M1682.57,2049.7c-25.86,0-46.91-19.27-46.91-43h-4.16c0,26,22.91,47.14,51.07,47.14s51.08-21.15,51.08-47.14h-4.17C1729.48,2030.43,1708.44,2049.7,1682.57,2049.7Z"/><path class="cls-39" d="M1780.56,2049.7c-25.87,0-46.91-19.27-46.91-43h-4.17c0,26,22.91,47.14,51.08,47.14s51.07-21.15,51.07-47.14h-4.17C1827.46,2030.43,1806.42,2049.7,1780.56,2049.7Z"/><path class="cls-39" d="M1878.54,2049.7c-25.87,0-46.91-19.27-46.91-43h-4.17c0,26,22.92,47.14,51.08,47.14s51.07-21.15,51.07-47.14h-4.16C1925.45,2030.43,1904.4,2049.7,1878.54,2049.7Z"/><path class="cls-39" d="M1976.52,2049.7c-25.86,0-46.91-19.27-46.91-43h-4.16c0,26,22.91,47.14,51.07,47.14s51.08-21.15,51.08-47.14h-4.17C2023.43,2030.43,2002.39,2049.7,1976.52,2049.7Z"/><path class="cls-39" d="M2074.8,2049.7c-25.86,0-46.91-19.27-46.91-43h-4.16c0,26,22.91,47.14,51.07,47.14s51.08-21.15,51.08-47.14h-4.17C2121.71,2030.43,2100.67,2049.7,2074.8,2049.7Z"/><path class="cls-39" d="M2172.78,2049.7c-25.86,0-46.9-19.27-46.9-43h-4.17c0,26,22.91,47.14,51.07,47.14s51.08-21.15,51.08-47.14h-4.17C2219.69,2030.43,2198.65,2049.7,2172.78,2049.7Z"/><path class="cls-39" d="M2270.77,2049.7c-25.87,0-46.91-19.27-46.91-43h-4.17c0,26,22.91,47.14,51.08,47.14s51.07-21.15,51.07-47.14h-4.16C2317.68,2030.43,2296.63,2049.7,2270.77,2049.7Z"/><path class="cls-39" d="M2368.75,2049.7c-25.86,0-46.91-19.27-46.91-43h-4.16c0,26,22.91,47.14,51.07,47.14s51.08-21.15,51.08-47.14h-4.17C2415.66,2030.43,2394.62,2049.7,2368.75,2049.7Z"/><path class="cls-39" d="M2465.82,2049.7c-25.87,0-46.91-19.27-46.91-43h-4.17c0,26,22.91,47.14,51.08,47.14s51.07-21.15,51.07-47.14h-4.16C2512.73,2030.43,2491.68,2049.7,2465.82,2049.7Z"/><path class="cls-39" d="M2563.8,2049.7c-25.86,0-46.91-19.27-46.91-43h-4.16c0,26,22.91,47.14,51.07,47.14s51.08-21.15,51.08-47.14h-4.17C2610.71,2030.43,2589.67,2049.7,2563.8,2049.7Z"/><path class="cls-39" d="M2661.78,2049.7c-25.86,0-46.9-19.27-46.9-43h-4.17c0,26,22.91,47.14,51.07,47.14s51.08-21.15,51.08-47.14h-4.17C2708.69,2030.43,2687.65,2049.7,2661.78,2049.7Z"/><path class="cls-39" d="M1634.68,2137.06c-27.92,0-50.64-19.28-50.64-43h-4.16c0,26,24.58,47.14,54.8,47.14s54.81-21.15,54.81-47.14h-4.17C1685.32,2117.78,1662.6,2137.06,1634.68,2137.06Z"/><path class="cls-39" d="M1740.12,2137.06c-27.92,0-50.63-19.28-50.63-43h-4.17c0,26,24.59,47.14,54.8,47.14s54.81-21.15,54.81-47.14h-4.17C1790.76,2117.78,1768.05,2137.06,1740.12,2137.06Z"/><path class="cls-39" d="M1845.57,2137.06c-27.92,0-50.64-19.28-50.64-43h-4.17c0,26,24.59,47.14,54.81,47.14s54.8-21.15,54.8-47.14h-4.16C1896.21,2117.78,1873.49,2137.06,1845.57,2137.06Z"/><path class="cls-39" d="M1951,2137.06c-27.92,0-50.64-19.28-50.64-43h-4.16c0,26,24.58,47.14,54.8,47.14s54.8-21.15,54.8-47.14h-4.16C2001.65,2117.78,1978.93,2137.06,1951,2137.06Z"/><path class="cls-39" d="M2056.77,2137.06c-27.92,0-50.64-19.28-50.64-43H2002c0,26,24.58,47.14,54.8,47.14s54.81-21.15,54.81-47.14h-4.17C2107.41,2117.78,2084.69,2137.06,2056.77,2137.06Z"/><path class="cls-39" d="M2162.21,2137.06c-27.92,0-50.63-19.28-50.63-43h-4.17c0,26,24.58,47.14,54.8,47.14s54.81-21.15,54.81-47.14h-4.17C2212.85,2117.78,2190.14,2137.06,2162.21,2137.06Z"/><path class="cls-39" d="M2267.66,2137.06c-27.92,0-50.64-19.28-50.64-43h-4.17c0,26,24.59,47.14,54.81,47.14s54.8-21.15,54.8-47.14h-4.16C2318.3,2117.78,2295.58,2137.06,2267.66,2137.06Z"/><path class="cls-39" d="M2373.1,2137.06c-27.92,0-50.64-19.28-50.64-43h-4.16c0,26,24.58,47.14,54.8,47.14s54.8-21.15,54.8-47.14h-4.16C2423.74,2117.78,2401,2137.06,2373.1,2137.06Z"/><path class="cls-39" d="M2477.56,2137.06c-27.93,0-50.64-19.28-50.64-43h-4.17c0,26,24.59,47.14,54.81,47.14s54.8-21.15,54.8-47.14h-4.17C2528.19,2117.78,2505.48,2137.06,2477.56,2137.06Z"/><path class="cls-39" d="M2583,2137.06c-27.92,0-50.64-19.28-50.64-43h-4.17c0,26,24.59,47.14,54.81,47.14s54.8-21.15,54.8-47.14h-4.16C2633.64,2117.78,2610.92,2137.06,2583,2137.06Z"/><path class="cls-39" d="M2688.44,2137.06c-27.92,0-50.64-19.28-50.64-43h-4.16c0,26,24.58,47.14,54.8,47.14s54.81-21.15,54.81-47.14h-4.17C2739.08,2117.78,2716.36,2137.06,2688.44,2137.06Z"/><path class="cls-39" d="M1590,2224.42c-29.42,0-53.36-19.28-53.36-43h-4.16c0,26,25.8,47.14,57.52,47.14s57.52-21.15,57.52-47.14h-4.17C1643.32,2205.14,1619.39,2224.42,1590,2224.42Z"/><path class="cls-39" d="M1700.85,2224.42c-29.42,0-53.36-19.28-53.36-43h-4.17c0,26,25.81,47.14,57.53,47.14s57.52-21.15,57.52-47.14h-4.17C1754.2,2205.14,1730.27,2224.42,1700.85,2224.42Z"/><path class="cls-39" d="M1811.73,2224.42c-29.42,0-53.36-19.28-53.36-43h-4.17c0,26,25.81,47.14,57.53,47.14s57.52-21.15,57.52-47.14h-4.17C1865.08,2205.14,1841.15,2224.42,1811.73,2224.42Z"/><path class="cls-39" d="M1922.61,2224.42c-29.42,0-53.36-19.28-53.36-43h-4.17c0,26,25.81,47.14,57.53,47.14s57.52-21.15,57.52-47.14H1976C1976,2205.14,1952,2224.42,1922.61,2224.42Z"/><path class="cls-39" d="M2033.82,2224.42c-29.42,0-53.36-19.28-53.36-43h-4.16c0,26,25.8,47.14,57.52,47.14s57.52-21.15,57.52-47.14h-4.16C2087.18,2205.14,2063.24,2224.42,2033.82,2224.42Z"/><path class="cls-39" d="M2144.7,2224.42c-29.42,0-53.36-19.28-53.36-43h-4.16c0,26,25.8,47.14,57.52,47.14s57.52-21.15,57.52-47.14h-4.16C2198.06,2205.14,2174.12,2224.42,2144.7,2224.42Z"/><path class="cls-39" d="M2255.58,2224.42c-29.42,0-53.36-19.28-53.36-43h-4.16c0,26,25.8,47.14,57.52,47.14s57.52-21.15,57.52-47.14h-4.17C2308.93,2205.14,2285,2224.42,2255.58,2224.42Z"/><path class="cls-39" d="M2366.46,2224.42c-29.42,0-53.36-19.28-53.36-43h-4.17c0,26,25.81,47.14,57.53,47.14s57.52-21.15,57.52-47.14h-4.17C2419.81,2205.14,2395.88,2224.42,2366.46,2224.42Z"/><path class="cls-39" d="M2476.3,2224.42c-29.42,0-53.36-19.28-53.36-43h-4.16c0,26,25.8,47.14,57.52,47.14s57.52-21.15,57.52-47.14h-4.17C2529.65,2205.14,2505.72,2224.42,2476.3,2224.42Z"/><path class="cls-39" d="M2587.18,2224.42c-29.42,0-53.36-19.28-53.36-43h-4.17c0,26,25.81,47.14,57.53,47.14s57.52-21.15,57.52-47.14h-4.17C2640.53,2205.14,2616.6,2224.42,2587.18,2224.42Z"/></g><rect class="cls-40" x="1783.29" y="2507.87" width="181.15" height="24.15" rx="5.24"/><rect class="cls-37" x="1811.24" y="2356.92" width="125.25" height="150.96"/><rect class="cls-41" x="1827.37" y="2368.23" width="39.25" height="58.73"/><rect class="cls-41" x="1827.37" y="2441.3" width="39.25" height="58.73"/><rect class="cls-41" x="1882.02" y="2368.23" width="39.25" height="58.73"/><rect class="cls-41" x="1882.02" y="2441.3" width="39.25" height="58.73"/><polygon class="cls-40" points="2403.66 1611.12 2074.2 1946.97 2067.81 1967.76 2067.81 2554.69 2761.89 2554.69 2761.89 1967.76 2761.89 1953.36 2474.02 1663.89 2403.66 1611.12"/><g class="cls-42"><g class="cls-43"><path class="cls-7" d="M1982.47,1954h174.94v-93.54H1982.47Zm2.09-91.46h170.76v89.37H1984.56Z"/><path class="cls-7" d="M2155.32,1954h174.94v-93.54H2155.32Zm2.09-91.46h170.76v89.37H2157.41Z"/><path class="cls-7" d="M2328.17,1954H2503.1v-93.54H2328.17Zm2.09-91.46H2501v89.37H2330.26Z"/><path class="cls-7" d="M2501,1954H2676v-93.54H2501Zm2.08-91.46h170.77v89.37H2503.1Z"/><path class="cls-7" d="M2673.87,1954H2848.8v-93.54H2673.87Zm2.08-91.46h170.77v89.37H2676Z"/><path class="cls-7" d="M2061.37,2045.71h174.94v-93.54H2061.37Zm2.09-91.46h170.76v89.38H2063.46Z"/><path class="cls-7" d="M2234.22,2045.71h174.94v-93.54H2234.22Zm2.09-91.46h170.76v89.38H2236.31Z"/><path class="cls-7" d="M2407.07,2045.71H2582v-93.54H2407.07Zm2.09-91.46h170.76v89.38H2409.16Z"/><path class="cls-7" d="M2579.92,2045.71h174.94v-93.54H2579.92Zm2.09-91.46h170.76v89.38H2582Z"/><path class="cls-7" d="M2752.77,2045.71H2927.7v-93.54H2752.77Zm2.09-91.46h170.76v89.38H2754.86Z"/><path class="cls-7" d="M1970.23,1771.53h174.93V1678H1970.23Zm2.08-91.46h170.77v89.37H1972.31Z"/><path class="cls-7" d="M2143.08,1771.53H2318V1678H2143.08Zm2.08-91.46h170.77v89.37H2145.16Z"/><path class="cls-7" d="M2315.93,1771.53h174.93V1678H2315.93Zm2.08-91.46h170.77v89.37H2318Z"/><path class="cls-7" d="M2488.78,1771.53h174.93V1678H2488.78Zm2.08-91.46h170.77v89.37H2490.86Z"/><path class="cls-7" d="M2661.63,1771.53h174.93V1678H2661.63Zm2.08-91.46h170.77v89.37H2663.71Z"/><path class="cls-7" d="M2049.13,1863.26h174.93v-93.54H2049.13Zm2.08-91.46H2222v89.38H2051.21Z"/><path class="cls-7" d="M2222,1863.26h174.93v-93.54H2222Zm2.08-91.46h170.77v89.38H2224.06Z"/><path class="cls-7" d="M2394.83,1863.26h174.93v-93.54H2394.83Zm2.08-91.46h170.77v89.38H2396.91Z"/><path class="cls-7" d="M2567.68,1863.26h174.93v-93.54H2567.68Zm2.08-91.46h170.77v89.38H2569.76Z"/><path class="cls-7" d="M2740.53,1863.26h174.93v-93.54H2740.53Zm2.08-91.46h170.77v89.38H2742.61Z"/><path class="cls-7" d="M1995.16,2136.43h174.93v-93.54H1995.16Zm2.08-91.46H2168v89.37H1997.24Z"/><path class="cls-7" d="M2168,2136.43h174.93v-93.54H2168Zm2.08-91.46h170.77v89.37H2170.09Z"/><path class="cls-7" d="M2340.86,2136.43h174.93v-93.54H2340.86Zm2.08-91.46h170.77v89.37H2342.94Z"/><path class="cls-7" d="M2513.71,2136.43h174.93v-93.54H2513.71Zm2.08-91.46h170.77v89.37H2515.79Z"/><path class="cls-7" d="M2686.56,2136.43h174.93v-93.54H2686.56Zm2.08-91.46h170.77v89.37H2688.64Z"/><path class="cls-7" d="M1901.21,2228.16h174.93v-93.54H1901.21Zm2.08-91.46h170.77v89.37H1903.29Z"/><path class="cls-7" d="M2074.06,2228.16H2249v-93.54H2074.06Zm2.08-91.46h170.77v89.37H2076.14Z"/><path class="cls-7" d="M2246.91,2228.16h174.93v-93.54H2246.91Zm2.08-91.46h170.77v89.37H2249Z"/><path class="cls-7" d="M2419.76,2228.16h174.93v-93.54H2419.76Zm2.08-91.46h170.77v89.37H2421.84Z"/><path class="cls-7" d="M2592.61,2228.16h174.93v-93.54H2592.61Zm2.08-91.46h170.77v89.37H2594.69Z"/><path class="cls-7" d="M2765.46,2228.16h174.93v-93.54H2765.46Zm2.08-91.46h170.77v89.37H2767.54Z"/><path class="cls-7" d="M2007.85,2318.88h174.93v-93.55H2007.85Zm2.08-91.46H2180.7v89.37H2009.93Z"/><path class="cls-7" d="M2180.7,2318.88h174.93v-93.55H2180.7Zm2.08-91.46h170.76v89.37H2182.78Z"/><path class="cls-7" d="M2353.54,2318.88h174.94v-93.55H2353.54Zm2.09-91.46h170.76v89.37H2355.63Z"/><path class="cls-7" d="M2526.39,2318.88h174.94v-93.55H2526.39Zm2.09-91.46h170.76v89.37H2528.48Z"/><path class="cls-7" d="M2699.24,2318.88h174.94v-93.55H2699.24Zm2.09-91.46h170.76v89.37H2701.33Z"/><path class="cls-7" d="M1913.9,2410.61h174.93v-93.54H1913.9Zm2.08-91.46h170.77v89.37H1916Z"/><path class="cls-7" d="M2086.75,2410.61h174.93v-93.54H2086.75Zm2.08-91.46H2259.6v89.37H2088.83Z"/><path class="cls-7" d="M2259.6,2410.61h174.93v-93.54H2259.6Zm2.08-91.46h170.77v89.37H2261.68Z"/><path class="cls-7" d="M2432.45,2410.61h174.93v-93.54H2432.45Zm2.08-91.46H2605.3v89.37H2434.53Z"/><path class="cls-7" d="M2605.3,2410.61h174.93v-93.54H2605.3Zm2.08-91.46h170.77v89.37H2607.38Z"/><path class="cls-7" d="M2778.15,2410.61h174.93v-93.54H2778.15Zm2.08-91.46H2951v89.37H2780.23Z"/><path class="cls-7" d="M2020.53,2501.33h174.94v-93.55H2020.53Zm2.09-91.46h170.76v89.37H2022.62Z"/><path class="cls-7" d="M2193.38,2501.33h174.94v-93.55H2193.38Zm2.09-91.46h170.76v89.37H2195.47Z"/><path class="cls-7" d="M2366.23,2501.33h174.93v-93.55H2366.23Zm2.09-91.46h170.76v89.37H2368.32Z"/><path class="cls-7" d="M2539.08,2501.33H2714v-93.55H2539.08Zm2.08-91.46h170.77v89.37H2541.16Z"/><path class="cls-7" d="M2711.93,2501.33h174.93v-93.55H2711.93Zm2.08-91.46h170.77v89.37H2714Z"/><path class="cls-7" d="M1926.58,2593.06h174.94v-93.55H1926.58Zm2.09-91.46h170.76V2591H1928.67Z"/><path class="cls-7" d="M2099.43,2593.06h174.94v-93.55H2099.43Zm2.09-91.46h170.76V2591H2101.52Z"/><path class="cls-7" d="M2272.28,2593.06h174.94v-93.55H2272.28Zm2.09-91.46h170.76V2591H2274.37Z"/><path class="cls-7" d="M2445.13,2593.06h174.94v-93.55H2445.13Zm2.09-91.46H2618V2591H2447.22Z"/><path class="cls-7" d="M2618,2593.06h174.93v-93.55H2618Zm2.09-91.46h170.76V2591H2620.07Z"/><path class="cls-7" d="M2790.83,2593.06h174.94v-93.55H2790.83Zm2.08-91.46h170.77V2591H2792.91Z"/></g></g><polygon class="cls-44" points="2007.57 1985.92 2037.61 2015.98 2409.53 1624.73 2794.13 2016.32 2824.19 1986.28 2410.46 1579.48 2007.57 1985.92"/><rect class="cls-34" x="2253.07" y="2114.98" width="325.63" height="43.42" rx="7.29"/><rect class="cls-37" x="2303.31" y="1843.62" width="225.15" height="271.35"/><rect class="cls-41" x="2332.3" y="1863.96" width="70.55" height="105.57"/><rect class="cls-41" x="2332.3" y="1995.3" width="70.55" height="105.57"/><rect class="cls-41" x="2430.53" y="1863.96" width="70.55" height="105.57"/><rect class="cls-41" x="2430.53" y="1995.3" width="70.55" height="105.57"/><rect class="cls-34" x="2486.4" y="2312.32" width="175.53" height="242.21"/><rect class="cls-41" x="2496.43" y="2326.16" width="155.48" height="214.55"/><path class="cls-7" d="M2519.47,2433.43a5.53,5.53,0,1,0,5.27,5.52A5.4,5.4,0,0,0,2519.47,2433.43Z"/><rect class="cls-37" x="2131.78" y="2284.41" width="284.1" height="139.14"/><rect class="cls-41" x="2150.97" y="2300.41" width="152.34" height="105.55"/><rect class="cls-41" x="2318.69" y="2301.21" width="76.17" height="105.55"/><rect class="cls-37" x="2052.62" y="2554.69" width="721.27" height="134.34"/><rect class="cls-40" x="2465.81" y="2554.69" width="214.52" height="36.78"/><rect class="cls-45" x="2449.02" y="2591.63" width="257.7" height="36.78"/><rect class="cls-40" x="2429.83" y="2628.56" width="296.08" height="36.78"/><rect class="cls-45" x="2396.24" y="2665.5" width="365.65" height="36.78"/><path class="cls-17" d="M1535.23,1728.69h-11.1v-51.1a60.17,60.17,0,0,0-60-60h-12.22a60.16,60.16,0,0,0-60,60v51.1h-8.89a10,10,0,0,0-10,10v146.08a10,10,0,0,0,10,10h152.18a10,10,0,0,0,10-10V1738.68A10,10,0,0,0,1535.23,1728.69Zm-30.54,0h-92.54l-.22-58.32c0-14.06,15.39-35,29.44-35h29.44c19.43,0,33.88,21.5,33.88,35.55Z"/><path class="cls-46" d="M1467.85,1807.91c0-.26,0-.51,0-.77v-19.58a10,10,0,0,0-20,0v19.58a8.77,8.77,0,0,0,.06,1,18.12,18.12,0,1,0,19.9-.26Z"/><path class="cls-27" d="M1737.85,1643.85c0-17.39-.63-33.58-1.3-48.1-1-21.82-2.24-39.93-2.24-52.91-49.91,16.64-99,11.88-141.5-1a349.6,349.6,0,0,1-64.31-27.18c-11.07-6-21-12-29.61-17.68a357,357,0,0,1-33.58-24.74s-.11-.08-.15-.13c0-1.2-2.12-1.2-2.12,0-17.49,14.8-140.81,113.55-269.15,70.76,0,55.75-22.61,205.82,46.23,338.12a359.17,359.17,0,0,0,24.72,40.79,347.23,347.23,0,0,0,23.09,29.54,367.57,367.57,0,0,0,52.19,49.2c33.21,25.79,73.61,48.51,122.71,66.73,0,.67,2.54.67,2.54,0,4.94-1.82,9.79-3.71,14.55-5.63q19.42-7.82,36.95-16.62c196.25-98.07,221.39-279.48,221-401.1Z"/><g class="cls-47"><g class="cls-48"><path class="cls-7" d="M1287.93,1951.29a367.57,367.57,0,0,0,52.19,49.2l252.69-458.68a349.6,349.6,0,0,1-64.31-27.18Z"/></g><g class="cls-48"><path class="cls-7" d="M1240.12,1881a359.17,359.17,0,0,0,24.72,40.79L1498.89,1497a357,357,0,0,1-33.58-24.74Z"/></g><g class="cls-48"><path class="cls-7" d="M1479.92,2061.59q19.42-7.82,36.95-16.62l221-401.1v0l-1.3-48.1Z"/></g></g><path class="cls-24" d="M1536,1555.19c-7.15-3.36-13.91-6.81-20.22-10.23-12.91-7-23.92-14-32.45-19.8-9.15-6.23-15.47-11.17-18.29-13.56,0-1-1.85-1-1.85,0-7.57,6.41-40.43,31.08-85.32,49.5s-101.67,30.53-157.28,12c0,41.65-11.75,144,24.92,244.86a340.19,340.19,0,0,0,43.89,83.55,319.3,319.3,0,0,0,26.24,31.81q8,8.55,16.88,16.72c33.13,30.53,75.75,57.32,130.49,77.62,0,.57,2.21.57,2.21,0,281-104.23,242.88-378,242.88-453.47C1646.26,1594.79,1582.79,1577.15,1536,1555.19Z"/><path class="cls-7" d="M1547.81,1720.4h-11.49v-52.89a62.27,62.27,0,0,0-62.09-62.08h-12.65a62.27,62.27,0,0,0-62.09,62.08v52.89h-9.2a10.38,10.38,0,0,0-10.34,10.35V1882a10.38,10.38,0,0,0,10.34,10.35h157.52a10.38,10.38,0,0,0,10.35-10.35v-151.2A10.38,10.38,0,0,0,1547.81,1720.4Zm-31.61,0h-95.78l-.23-60.36c0-14.54,15.92-36.22,30.47-36.22h30.47c20.12,0,35.07,22.25,35.07,36.8Z"/><path class="cls-24" d="M1478.07,1802.4c0-.26,0-.52,0-.79v-20.27a10.35,10.35,0,0,0-20.7,0v20.27a9.28,9.28,0,0,0,.06,1.06,18.75,18.75,0,1,0,20.6-.27Z"/><g class="cls-49"><g class="cls-50"><path class="cls-7" d="M1463.17,1511.6c-7.57,6.41-40.43,31.08-85.32,49.5L1245.49,1818a340.19,340.19,0,0,0,43.89,83.55l193.93-376.34c-9.15-6.23-15.47-11.17-18.29-13.56C1465,1510.57,1463.17,1510.57,1463.17,1511.6Z"/></g><g class="cls-50"><path class="cls-7" d="M1315.62,1933.31,1332.5,1950,1536,1555.19c-7.15-3.36-13.91-6.81-20.22-10.23Z"/></g></g></g></svg>