<svg xmlns="http://www.w3.org/2000/svg" xmlns:xlink="http://www.w3.org/1999/xlink" viewBox="0 0 4680 3120"><defs><style>.cls-1{fill:none;}.cls-12,.cls-2{fill:#fff;}.cls-2{opacity:0;}.cls-3{fill:#ffe8c2;}.cls-4{clip-path:url(#clip-path);}.cls-5{fill:#ffc476;}.cls-6{fill:#dcebef;}.cls-7{fill:#ffd392;}.cls-8{fill:#afdbc9;}.cls-9{opacity:0.43;}.cls-10{fill:#649987;}.cls-11{opacity:0.63;}.cls-13{opacity:0.4;}.cls-14{fill:#edb66e;}.cls-15{fill:#aa5757;}.cls-16{clip-path:url(#clip-path-2);}.cls-17{opacity:0.65;}.cls-18{fill:#e4ecf2;}.cls-19{fill:#304556;}.cls-20{fill:#f4c887;}.cls-21{fill:#ffe1a4;}.cls-22{fill:#e83640;}.cls-23{fill:#c6e5d9;}.cls-24{fill:#ea8b3d;}.cls-25{clip-path:url(#clip-path-3);}.cls-26{fill:#e0792d;}.cls-27{fill:#4c2323;}.cls-28{fill:#ffa95c;}.cls-29{fill:#ffd5b3;}.cls-30{fill:#6b3030;}.cls-31{opacity:0.67;}.cls-32{fill:#3e566b;}.cls-33{clip-path:url(#clip-path-4);}.cls-34{fill:#2d4354;}.cls-35{fill:#9d1107;}.cls-36{clip-path:url(#clip-path-5);}.cls-37{fill:#720a07;}.cls-38{fill:#ffbca9;}.cls-39{clip-path:url(#clip-path-6);}.cls-40{fill:#ff8b74;}.cls-41{clip-path:url(#clip-path-7);}.cls-42{clip-path:url(#clip-path-8);}.cls-43{fill:#f7d17c;}.cls-44{clip-path:url(#clip-path-9);}.cls-45{fill:#f2bc51;}.cls-46{clip-path:url(#clip-path-10);}.cls-47{fill:#e3e4e5;}.cls-48{clip-path:url(#clip-path-11);}.cls-49{clip-path:url(#clip-path-12);}.cls-50{clip-path:url(#clip-path-13);}.cls-51{clip-path:url(#clip-path-14);}.cls-52{fill:#c98383;}.cls-53{clip-path:url(#clip-path-15);}.cls-54{clip-path:url(#clip-path-16);}.cls-55{fill:#f97f76;}.cls-56{clip-path:url(#clip-path-17);}.cls-57{clip-path:url(#clip-path-18);}.cls-58{clip-path:url(#clip-path-19);}.cls-59{fill:#2b4151;}.cls-60{fill:#d3b8b8;}.cls-61{clip-path:url(#clip-path-20);}.cls-62{fill:#ba9e9e;}.cls-63{clip-path:url(#clip-path-21);}.cls-64{clip-path:url(#clip-path-22);}.cls-65{clip-path:url(#clip-path-23);}.cls-66{fill:#cc2737;}.cls-67{clip-path:url(#clip-path-24);}.cls-68{fill:#a0608d;}.cls-69{clip-path:url(#clip-path-25);}.cls-70{fill:#894c79;}.cls-71{clip-path:url(#clip-path-26);}.cls-72{clip-path:url(#clip-path-27);}.cls-73{fill:#724161;}.cls-74{clip-path:url(#clip-path-28);}.cls-75{clip-path:url(#clip-path-29);}.cls-76{clip-path:url(#clip-path-30);}.cls-77{clip-path:url(#clip-path-31);}.cls-78{opacity:0.35;}.cls-79{fill:#999187;}</style><clipPath id="clip-path"><path class="cls-1" d="M2624.85,512.11c-206.15,48.94-409.21,115.3-606.78,39.61-172.17-66-408-99.91-686.1,5.72C738.11,783,188.78,2285.35,2403.8,2310.34,4307,2331.82,3915.33,205.79,2624.85,512.11Z"/></clipPath><clipPath id="clip-path-2"><rect class="cls-1" x="1507.58" y="904.12" width="741.76" height="1028.47"/></clipPath><clipPath id="clip-path-3"><path class="cls-1" d="M2217.67,1584h0c-75.14,0-136.63,61.48-136.63,136.62v234.12a136.45,136.45,0,0,0,48.29,104,93.59,93.59,0,0,1-5.46-31.58V1727.39a93.8,93.8,0,0,1,93.8-93.8h0a93.81,93.81,0,0,1,93.8,93.8v299.76a93.59,93.59,0,0,1-5.46,31.58,136.44,136.44,0,0,0,48.28-104V1720.64C2354.29,1645.5,2292.81,1584,2217.67,1584Z"/></clipPath><clipPath id="clip-path-4"><path class="cls-1" d="M2696.25,1098.82s97.62-15.3,175.72,7.44,69.31,239.43,71.93,303.26-95,73.84-176.65,73.27S2696.25,1098.82,2696.25,1098.82Z"/></clipPath><clipPath id="clip-path-5"><path class="cls-1" d="M2591.56,898.94S2610.72,843.26,2672,850s150.91,55.83,96.62,123.86-104,146.13-104,146.13l-99.26,105.46s-45.56-72.56-11-136.68c21.09-54.11-85.43-111-23.63-179.71C2568.78,866.88,2591.56,898.94,2591.56,898.94Z"/></clipPath><clipPath id="clip-path-6"><path class="cls-1" d="M2617.26,2025.37,2590.64,2407l72.77,11.41s79.88-316.71,87-377.06S2617.26,2025.37,2617.26,2025.37Z"/></clipPath><clipPath id="clip-path-7"><path class="cls-1" d="M2803.64,2018.27s12.42,284,30.17,388.73c78.1,33.43,87,19.52,87,19.52L2938,2000Z"/></clipPath><clipPath id="clip-path-8"><path class="cls-1" d="M2530.28,1366.32s-38.54,93-54.7,105.4-169.07,87.85-169.07,87.85-62.16,12.85-83.29,11.61-2.49,28.59,29.83,23.62,29.84,9.94,29.84,9.94-24.87,24.86-13.68,23.62,49.73-9.94,73.35-22.38,141.72-38.07,177.77-55.08,97.34-124.75,97.34-124.75Z"/></clipPath><clipPath id="clip-path-9"><path class="cls-1" d="M2688.63,1498.55s-24.08,83.15-68,237-61.77,296.72-61.77,296.72,1.06,60.45,115.21,49.46,162.19-27.55,212.35,1.33,112,0,112,0-20-352.09-56.36-451.92-40.3-148.36-40.3-148.36Z"/></clipPath><clipPath id="clip-path-10"><path class="cls-1" d="M2666.06,1111s-43.52,24.85-88.33,79.8-60.9,134.88-78.17,159.41,111.71,86.84,148.34,82.25c15.41,55.86,18.37,101.78,18.37,101.78s180.53-.13,235.47-51.42c-11-110.84-22.89-137.37-22.89-137.37s106.32-58.12,119.55-94.08c-142.45-122-115.94-126-154.41-131.55S2666.06,1111,2666.06,1111Z"/></clipPath><clipPath id="clip-path-11"><path class="cls-1" d="M2647.9,1432.43s-97.08-253.78-34.34-280.3C2531.61,1190.77,2540.59,1349.11,2647.9,1432.43Z"/></clipPath><clipPath id="clip-path-12"><path class="cls-1" d="M2882.48,1366.32s-112.37-147.63-72.2-257.36c39.58-11.1,57.76,15.59,57.76,15.59s-43.94,135,18.34,216.63A85.2,85.2,0,0,1,2882.48,1366.32Z"/></clipPath><clipPath id="clip-path-13"><path class="cls-1" d="M2897.37,1337.71l57.73,89.09-49.39,104.53s-18.93-11.52-32.93-8.23l-14,3.29s-43.37,5.76-49.68,13.17,14.28,12.4,17.57,11.14-21.14,2.86-17.57,8.62,20.87,7.41,20.87,7.41-14.82,6.13-10.71,11.3,27.94,6,27.94,6-5,9,0,11.52,30.51-3.29,30.51-3.29,36.22,18.11,53.51,8.23,101-144,109.48-173.68S2976.16,1279,2976.16,1279Z"/></clipPath><clipPath id="clip-path-14"><path class="cls-1" d="M2572.8,2377.59s51.47-13.78,118.92,22c0,124.54-14.2,168.92-14.2,168.92s-262.7,28.4-273.35-7.1,5.33-65.68,67.45-65.68,74.8-18.62,74.8-18.62Z"/></clipPath><clipPath id="clip-path-15"><path class="cls-1" d="M2822.89,2401s67.22-26.33,117.63-10.35l6.72,84.16s35.29,22.34,50.41,47.19,21.85,48.13,0,58.68-132.75,9-156.27,0a72.24,72.24,0,0,1-9.58-4.52c-20.24-11.31-31.22-35.16-27.42-59Z"/></clipPath><clipPath id="clip-path-16"><path class="cls-1" d="M2774.64,1028c-1.69-27.84-10.13-82.77-10.13-82.77s-54.84,6.84-113.89-17.63c6.75,80.15-30.38,86.9-30.38,86.9s-.08.68-.16,1.89c-9.15-1.36-17.71,1.66-21.7,8.57-5.67,9.82,0,23.73,12.77,31.07a30.44,30.44,0,0,0,20.44,4c.42.58.86,1.16,1.31,1.73,16,20.25,6.75,81,6.75,81s21.09,47.25,53.15,50.63,42.18-66.66,42.18-66.66-18.56-5.9-18.56-35.43C2753.55,1094.67,2776.33,1055.86,2774.64,1028Z"/></clipPath><clipPath id="clip-path-17"><path class="cls-1" d="M3199.12,2444.59s9.29,55.08-48,58.12-69.48,53.46-56.63,80.86,89.92,8.7,106.21,7.06,96.22-42.49,107.21-65.46-7.57-90.79-7.57-90.79Z"/></clipPath><clipPath id="clip-path-18"><path class="cls-1" d="M3347.15,2456.4s4.95,55.79-55.69,53.07-78,46.26-66.82,74.83S3318.69,2602,3336,2602s105.19-32.66,118.8-54.43,0-91.16,0-91.16Z"/></clipPath><clipPath id="clip-path-19"><path class="cls-1" d="M3201.54,1548.88s-77.55,330.17-87.45,411.8,54.45,399.12,59.4,437.22,21.45,79.82,21.45,79.82,67.65,12.7,108.9-20c-13.2-152.39-9.9-335.62-18.15-375.53s-18.15-96.15-18.15-96.15l37.73-177.79s.22,261.24,5.17,295.71,23.43,376.15,23.43,376.15,34.32,33.85,126.72-7.87c0-61.68,8.25-317.48,0-382.79s42.9-420.89,36.3-500.71S3201.54,1548.88,3201.54,1548.88Z"/></clipPath><clipPath id="clip-path-20"><path class="cls-1" d="M3325.39,1061.55s-42,17.75-70.22,28.4-62,16-104.58,79.87-106.5,140.23-81.65,198.8,136.68,24.85,136.68,24.85-15.37,182.83-11.24,184.6,96.79-10.65,157,0,139.76,17.75,139.76,17.75l39.34-97.62s51.48-30.18,85.2-88.75-16-236.08-30.17-266.25S3385,1037.22,3325.39,1061.55Z"/></clipPath><clipPath id="clip-path-21"><path class="cls-1" d="M3398.2,767.79s62.13,9.76,73.67,30.17-5.33,20.41-5.33,20.41,71.49,92.3-29.49,148.22-218.12-57.69-190.61-134.9c-13.31,4.43-12.59-14.2-4.07-26.63s70.58-61.24,127.41-37.27C3363.63,746.49,3379.57,750,3398.2,767.79Z"/></clipPath><clipPath id="clip-path-22"><path class="cls-1" d="M3450.84,936.16c-5.71-9.08-17-13-28.85-11.36,1.44-6.18,2.39-10.13,2.39-10.13s-81.87-55.25-88.52-87.2c-36,20-76.55,28.62-76.55,28.62s-9.32,94.52,0,126.47,30.62,53.25,51.92,53.25c0,34.61-9.32,39.94-9.32,39.94s2.66,46.59,42.6,43.93,79.87-51.92,79.87-51.92-17.3-53.8-17.3-67.5a104.61,104.61,0,0,1,1.85-14.45c8.43,1.13,18-.87,26.68-6.3C3452.42,969,3459.24,949.55,3450.84,936.16Z"/></clipPath><clipPath id="clip-path-23"><path class="cls-1" d="M3471.65,1394.34s-48-308.67,25.83-303,40.85,18.31,40.85,18.31l-23.86,284.67Z"/></clipPath><clipPath id="clip-path-24"><path class="cls-1" d="M3205.62,1393.47s-55.67-305.12,17.85-313.66,43.6,10.15,43.6,10.15l-34.52,297.83Z"/></clipPath><clipPath id="clip-path-25"><path class="cls-1" d="M3136.45,1299.4s-63.9,257.37-71,356.77,12.42,244.95,35.5,213,58.57-198.8,85.2-236.07,110-197,110-197Z"/></clipPath><clipPath id="clip-path-26"><path class="cls-1" d="M3248.43,1195.05s258.33-59.9,357.83-65.46,244.73,16.23,212.42,38.8-199.68,55.49-237.36,81.53-198.71,107-198.71,107Z"/></clipPath><clipPath id="clip-path-27"><path class="cls-1" d="M3874.85,1653.51c-186.38,82.54-278.1,253.82-278.1,253.82s-27.34-24.84-32.67-64.78,44.52-125.14,44.52-125.14-287.55-197-327.49-234.3q-2.88-2.67-6.55-6.07c-28.22-26.12-90.34-82.75-147.45-139.06-41.45-40.87-80.27-81.53-101.6-110.2a200.84,200.84,0,0,1-38.31-99c-3.44-32.19,28.73-68.08,60.49-61.91,27.42,5.33,52.45,11.45,110.07,37.28,30.78,13.79,70.61,44.38,114.51,84.4,18.59,16.93,37.92,35.57,57.62,55.33q8.46,8.5,17,17.25c18.23,18.66,36.68,38.18,55.06,58.07,5.45,5.88,10.89,11.82,16.32,17.76,18,19.81,36,39.85,53.43,59.74,113.64,129.37,208.8,251.48,208.8,251.48s68.51-29.53,97.8-32.2S3816.27,1613.57,3874.85,1653.51Z"/></clipPath><clipPath id="clip-path-28"><path class="cls-1" d="M3352.05,1395.55s-13-22.37-37.69-34.54-13.91,10.74-13.91,10.74-24.38-4.81-45.09-.79-5,11.68,3.7,13.41-20.31,7.71-22.79,12.65,18.8,7.37,18.8,7.37-22,6.46-22.51,10.89,26.48,5.28,26.48,5.28-14.61,9.76-17.22,13.76,29.59,5.9,29.59,5.9,37.53,15.62,44.14,20S3366.09,1471.54,3352.05,1395.55Z"/></clipPath><clipPath id="clip-path-29"><path class="cls-1" d="M3321.4,1461.81c-11.2.54,158.9,71.89,228.12,45.26,38.54-14.82,56-51.75,63.83-81.58,5.63-21.3-11.34-41.83-33.33-40.55-67.31,3.94-198.42,10.53-220.38,3.65C3329.87,1379.27,3348.87,1460.48,3321.4,1461.81Z"/></clipPath><clipPath id="clip-path-30"><path class="cls-1" d="M3232,1255.8s17.09-19.41,43.72-26.51,11.54,13.25,11.54,13.25,24.85.06,44.37,8,2.59,12.42-6.25,12.42,18.41,11.54,19.87,16.86-19.87,3.55-19.87,3.55,20.33,10.65,20,15.09-27,0-27,0,12.42,12.43,14.2,16.86-30.18,0-30.18,0-39.85,8-47.18,11S3203.38,1327.57,3232,1255.8Z"/></clipPath><clipPath id="clip-path-31"><path class="cls-1" d="M3234.48,1246.15s-23.37,78.62,13.36,83.14c-96.85,77.83-150.51,122.46-195.36,98.55C3022.57,1411.9,2928.92,1309.9,3234.48,1246.15Z"/></clipPath></defs><title>03</title><g id="_03" data-name="03"><rect id="_03-2" data-name="03" class="cls-2" width="4680" height="3120"/><path class="cls-3" d="M2624.85,512.11c-206.15,48.94-409.21,115.3-606.78,39.61-172.17-66-408-99.91-686.11,5.72C738.11,783,188.78,2285.35,2403.8,2310.34,4307,2331.82,3915.33,205.79,2624.85,512.11Z"/><g class="cls-4"><rect class="cls-5" x="2833.52" y="378.99" width="977.14" height="2171.42"/><rect class="cls-6" x="2900.3" y="453.16" width="856.07" height="2023.07"/><rect class="cls-7" x="1856.38" y="378.99" width="977.14" height="2171.42"/><rect class="cls-6" x="1923.16" y="453.16" width="856.07" height="2023.07"/><polygon class="cls-7" points="1315.4 958.17 1025.98 1126.43 1316.41 1292.95 1316.1 1189.04 1585.93 1189.04 1585.93 1062.66 1315.72 1062.66 1315.4 958.17"/><path class="cls-8" d="M2549.94,1786.25c-34-16.51-76.65-.16-101.87,28s-37,65.52-48.19,101.65c-9.42-13.41-29.85-17.49-43.69-8.7s-18.88,29-10.76,43.24c-26.92-5.67-51.36,20.55-53.51,46.62-15.61-25.62-51.71-40.13-81.77-30.94-39.62,12.14-64.67,53.78-68.59,95-3.27,34.37,7.62,71.49,31.72,95.19-14.06-.86-30,7.69-28.57,22.52-16.32-39.11-66.35-55.46-107.54-45.56s-74.58,39.81-102.62,71.57q-5.82,6.6-11.39,13.37v258h856.07v-856.9C2677.05,1611.88,2573.4,1685.93,2549.94,1786.25Z"/><g class="cls-9"><path class="cls-10" d="M2512.66,2004.58c-34-16.51-76.65-.16-101.86,28s-37,65.52-48.19,101.65c-9.43-13.42-29.85-17.49-43.7-8.71s-18.87,29-10.75,43.24c-26.92-5.67-51.36,20.56-53.52,46.62-15.6-25.61-51.7-40.12-81.76-30.94-39.62,12.15-64.68,53.79-68.59,95.06-3.28,34.37,7.61,71.48,31.71,95.18-14.06-.85-30,7.7-28.57,22.53-16.32-39.12-66.35-55.46-107.54-45.56-29.23,7-54.5,24.12-76.73,44.76v79.82h856.07V1871.5l-22.39-32.16C2650.05,1823.07,2537.27,1899.38,2512.66,2004.58Z"/></g><path class="cls-8" d="M3686.35,991.65q-19.14,27.89-38.26,55.78c-32.62,47.56-66.72,100.46-61.05,157.86,1.73,17.63,7.05,36.51-1.09,52.24-7.38,14.3-23.57,21.28-38,28.33-76.07,37.12-135.42,107.06-159.65,188.16-25.72-7.56-56,6.5-66.8,31,10.31-34,20.69-68.9,18.35-104.34s-20.18-72.1-52.56-86.74c-33.82-15.29-75-2.69-103.31,21.3s-46.46,57.56-63.95,90.28q-32-10.45-63.95-21c14.88-9.27,21.64-29.72,15.2-46q-26.36.33-52.69.62c18.48-11.11,37.81-23,48.3-41.88s8-46.76-10.81-57.25c-9.22-5.14-20.32-5.24-30.83-4.84a472.43,472.43,0,0,0-124.9,21.51V2476.24h856.07V928.34a121.31,121.31,0,0,0-34.58,20.32C3707.59,960.72,3696.89,976.29,3686.35,991.65Z"/><g class="cls-9"><path class="cls-10" d="M3713,1252.58l-38.26,55.78c-32.61,47.55-66.72,100.46-61.05,157.86,1.73,17.62,7.06,36.5-1.09,52.24-7.38,14.29-23.56,21.27-38.05,28.33-76.06,37.11-135.41,107-159.64,188.15-25.72-7.56-56,6.5-66.8,31,10.3-34,20.68-68.91,18.34-104.34s-20.18-72.1-52.56-86.75c-33.81-15.28-75-2.69-103.3,21.3s-46.46,57.57-63.95,90.29q-32-10.47-64-21c14.89-9.26,21.65-29.71,15.21-46q-26.37.32-52.7.61c18.48-11.1,37.81-23,48.3-41.88s8-46.75-10.81-57.24c-9.21-5.14-20.31-5.25-30.83-4.85a473.25,473.25,0,0,0-137.7,25.72,52.71,52.71,0,0,0-13.82,7.46v926.92h856.07V1203.43c-2.74,1.92-5.38,4-8,6.15C3734.22,1221.64,3723.52,1237.22,3713,1252.58Z"/></g><g class="cls-11"><polygon class="cls-12" points="1923.16 1401.84 1923.16 1695.43 2728.86 453.16 2538.44 453.16 1923.16 1401.84"/><polygon class="cls-12" points="1923.16 2067.28 2779.23 747.34 2779.23 561.42 1923.16 1881.38 1923.16 2067.28"/></g></g><ellipse class="cls-3" cx="2497.98" cy="2587.68" rx="1285.28" ry="172.32"/><g class="cls-13"><ellipse class="cls-14" cx="2069.54" cy="2561.92" rx="363.41" ry="71.88"/></g><g class="cls-13"><ellipse class="cls-14" cx="3035.98" cy="2561.92" rx="619" ry="79.87"/></g><rect class="cls-15" x="1465.48" y="849.44" width="820.64" height="1137.85"/><rect class="cls-12" x="1507.58" y="904.12" width="741.76" height="1028.47"/><g class="cls-16"><g class="cls-17"><path class="cls-18" d="M2459.55,1742.15c-30-16.55-66.06-17-100.29-15.22-68,3.47-135.8,13.8-203.83,11.15-149.95-5.87-294.34-76.88-398.42-185s-168.75-251.22-191.94-399.47c-19.19-122.6-16.86-262.12-105-349.45l-98.47,127.39c14.88,44.94,10.64,93.74,4.72,140.71-24.46,194.22-74.58,384.49-99.52,578.64-14.91,116-17.82,244,51.39,338.33,55.86,76.14,149,115.67,241,137.19,242.86,56.83,499,10.85,735.3-69,47.8-16.16,95.8-34,136.84-63.4s74.91-71.84,83.9-121.49S2503.75,1766.51,2459.55,1742.15Z"/></g></g><rect class="cls-10" x="1692.69" y="809.73" width="388.09" height="103.84"/><rect class="cls-19" x="1729.56" y="1016.68" width="13.25" height="57.56"/><rect class="cls-19" x="1729.56" y="1009.67" width="13.25" height="7.01"/><polygon class="cls-19" points="1710.4 1016.68 1729.56 1016.68 1729.56 1009.67 1742.81 1009.67 1742.81 1016.68 1761.97 1016.68 1761.97 1003.91 1710.4 1003.91 1710.4 1016.68"/><rect class="cls-19" x="1774.98" y="1003.86" width="7.98" height="12.77"/><polygon class="cls-19" points="1774.98 1033.17 1782.96 1033.17 1782.96 1016.63 1774.98 1016.63 1774.98 1003.86 1769.7 1003.86 1769.7 1074.24 1782.96 1074.24 1782.96 1045.94 1774.98 1045.94 1774.98 1033.17"/><path class="cls-19" d="M1806.1,1045.24l-2.15-3.7-14.17,2.23,1.22,2.17h9.52A21.38,21.38,0,0,0,1806.1,1045.24Z"/><rect class="cls-19" x="1774.98" y="1033.17" width="7.98" height="12.77"/><path class="cls-19" d="M1800.52,1045.94H1791l15.85,28.3h16.06l-16.81-29A21.38,21.38,0,0,1,1800.52,1045.94Z"/><path class="cls-19" d="M1804,1041.54l2.15,3.7a18.25,18.25,0,0,0,4.6-1.91,17.57,17.57,0,0,0,6.84-7.38,26.44,26.44,0,0,0,0-22.1,17.65,17.65,0,0,0-6.82-7.38,19.6,19.6,0,0,0-10.2-2.61H1783v12.77h16.49a6.44,6.44,0,0,1,3.63,1,6.51,6.51,0,0,1,2.39,2.9,10.45,10.45,0,0,1,.85,4.35,11.14,11.14,0,0,1-.89,4.36,6.71,6.71,0,0,1-2.4,2.9,6.41,6.41,0,0,1-3.58,1H1783v12.77h8l-1.22-2.17Z"/><polygon class="cls-19" points="1838 1050.2 1838 1062.97 1843.31 1062.97 1847.78 1050.2 1838 1050.2"/><polygon class="cls-19" points="1875 1050.2 1864.6 1050.2 1869.07 1062.97 1875 1062.97 1875 1050.2"/><polygon class="cls-19" points="1851.98 1003.91 1825.09 1074.24 1839.36 1074.24 1843.31 1062.97 1838 1062.97 1838 1050.2 1847.78 1050.2 1856.19 1026.21 1864.6 1050.2 1875 1050.2 1875 1062.97 1869.07 1062.97 1873.02 1074.24 1887.29 1074.24 1860.4 1003.91 1851.98 1003.91"/><polygon class="cls-19" points="1847.78 1050.2 1843.31 1062.97 1869.07 1062.97 1864.6 1050.2 1847.78 1050.2"/><polygon class="cls-19" points="1912.97 1050.83 1898.03 1003.91 1884.39 1003.91 1907.8 1074.24 1918.15 1074.24 1941.56 1003.91 1927.92 1003.91 1912.97 1050.83"/><rect class="cls-19" x="1963.52" y="1061.47" width="33.86" height="12.77"/><rect class="cls-19" x="1955.05" y="1061.47" width="8.46" height="12.77"/><rect class="cls-19" x="1963.52" y="1032.93" width="28.54" height="12.77"/><rect class="cls-19" x="1955.05" y="1032.93" width="8.46" height="12.77"/><polygon class="cls-19" points="1955.06 1003.91 1950.27 1003.91 1950.27 1074.24 1955.06 1074.24 1955.06 1061.47 1963.52 1061.47 1963.52 1045.7 1955.06 1045.7 1955.06 1032.93 1963.52 1032.93 1963.52 1016.68 1955.06 1016.68 1955.06 1003.91"/><rect class="cls-19" x="1963.52" y="1003.91" width="33.86" height="12.77"/><rect class="cls-19" x="1955.05" y="1003.91" width="8.46" height="12.77"/><polygon class="cls-19" points="2022.72 1061.47 2022.72 1003.91 2009.47 1003.91 2009.47 1074.24 2015.37 1074.24 2015.37 1061.47 2022.72 1061.47"/><rect class="cls-19" x="2022.72" y="1061.47" width="33.86" height="12.77"/><rect class="cls-19" x="2015.37" y="1061.47" width="7.35" height="12.77"/><rect class="cls-19" x="1631.25" y="1122.78" width="13.74" height="70.33"/><polygon class="cls-19" points="1671.01 1140 1672.17 1142.36 1672.17 1138.74 1671.01 1140"/><polygon class="cls-19" points="1701.87 1176.66 1700.71 1174.27 1700.71 1177.92 1701.87 1176.66"/><polygon class="cls-19" points="1700.71 1174.27 1701.87 1176.66 1700.71 1177.92 1700.71 1174.27 1675.7 1122.78 1659.5 1122.78 1659.5 1193.06 1672.17 1193.06 1672.17 1142.36 1671.01 1140 1672.17 1138.74 1672.17 1142.36 1697.08 1193.06 1713.38 1193.06 1713.38 1122.78 1700.71 1122.78 1700.71 1174.27"/><path class="cls-19" d="M1767.29,1155.12a58.3,58.3,0,0,0-11.15-3.17c-.2,0-.38-.08-.56-.12a4.61,4.61,0,0,0-.56-.12,2.33,2.33,0,0,0-.38-.08,2.66,2.66,0,0,1-.39-.07,67.84,67.84,0,0,1-7.21-1.74,10.41,10.41,0,0,1-4.3-2.59,6.56,6.56,0,0,1-1.74-4.81v-.05a6.23,6.23,0,0,1,3.34-5.63q3.33-2,9.43-2a25.48,25.48,0,0,1,8.49,1.55,35.3,35.3,0,0,1,8.48,4.35l5.62-11.22a43.5,43.5,0,0,0-7.16-4,41.66,41.66,0,0,0-7.72-2.51,35.74,35.74,0,0,0-7.71-.87,35,35,0,0,0-14,2.53,19.29,19.29,0,0,0-8.85,7.38,21.46,21.46,0,0,0-3.05,11.66v0q0,7.68,3.24,11.87a17.19,17.19,0,0,0,7.89,5.85,64.36,64.36,0,0,0,11.7,2.78l1.07.15a.85.85,0,0,0,.26.05.71.71,0,0,1,.27,0,50.22,50.22,0,0,1,6.58,1.4,9.58,9.58,0,0,1,4.16,2.42,6.12,6.12,0,0,1,1.59,4.45v0A6.91,6.91,0,0,1,1761,1179q-3.57,2.2-10.06,2.2a33.63,33.63,0,0,1-10.93-1.81,29.83,29.83,0,0,1-9.38-5.15l-6.15,10.93a34.54,34.54,0,0,0,7.57,4.71,42.32,42.32,0,0,0,9,3l4.81,1h5a37.51,37.51,0,0,0,14.49-2.51,19.66,19.66,0,0,0,9.16-7.3,20.5,20.5,0,0,0,3.15-11.52v-.09q0-7.15-3-11.3A17.39,17.39,0,0,0,1767.29,1155.12Z"/><path class="cls-19" d="M1825.06,1168q0,6-3.26,9.38t-9.22,3.34q-5.89,0-9.14-3.34t-3.24-9.38v-45.23H1787v44.89a30.83,30.83,0,0,0,3,14.15,20.38,20.38,0,0,0,8.75,8.94,33,33,0,0,0,27.79,0,20.49,20.49,0,0,0,8.8-8.94,30.57,30.57,0,0,0,3-14.15v-44.89h-13.26Z"/><path class="cls-19" d="M1882.67,1164.81h-9.52l15.86,28.3h16.06l-16.82-29A21.33,21.33,0,0,1,1882.67,1164.81Z"/><polygon class="cls-19" points="1857.13 1152.04 1865.11 1152.04 1865.11 1135.5 1857.13 1135.5 1857.13 1122.73 1851.86 1122.73 1851.86 1193.11 1865.11 1193.11 1865.11 1164.81 1857.13 1164.81 1857.13 1152.04"/><rect class="cls-19" x="1857.13" y="1122.73" width="7.98" height="12.77"/><path class="cls-19" d="M1888.25,1164.11l-2.15-3.7-14.17,2.23,1.22,2.17h9.52A21.33,21.33,0,0,0,1888.25,1164.11Z"/><path class="cls-19" d="M1886.1,1160.41l2.15,3.7a18.09,18.09,0,0,0,4.6-1.91,17.69,17.69,0,0,0,6.85-7.37,26.56,26.56,0,0,0,0-22.11,17.78,17.78,0,0,0-6.82-7.38,19.66,19.66,0,0,0-10.21-2.61h-17.56v12.77h16.5a6.43,6.43,0,0,1,3.62,1,6.53,6.53,0,0,1,2.4,2.9,10.62,10.62,0,0,1,.84,4.35,11.14,11.14,0,0,1-.89,4.36,6.62,6.62,0,0,1-2.39,2.9,6.38,6.38,0,0,1-3.58,1h-16.5v12.77h8l-1.22-2.17Z"/><rect class="cls-19" x="1857.13" y="1152.04" width="7.98" height="12.77"/><polygon class="cls-19" points="1929.93 1169.07 1925.46 1181.84 1951.23 1181.84 1946.75 1169.07 1929.93 1169.07"/><polygon class="cls-19" points="1920.16 1169.07 1920.16 1181.84 1925.46 1181.84 1929.93 1169.07 1920.16 1169.07"/><polygon class="cls-19" points="1957.16 1169.07 1946.75 1169.07 1951.23 1181.84 1957.16 1181.84 1957.16 1169.07"/><polygon class="cls-19" points="1934.13 1122.78 1907.24 1193.11 1921.51 1193.11 1925.46 1181.84 1920.16 1181.84 1920.16 1169.07 1929.93 1169.07 1938.34 1145.08 1946.75 1169.07 1957.16 1169.07 1957.16 1181.84 1951.23 1181.84 1955.17 1193.11 1969.44 1193.11 1942.55 1122.78 1934.13 1122.78"/><polygon class="cls-19" points="2019.36 1174.27 2020.52 1176.66 2019.36 1177.92 2019.36 1174.27 1994.35 1122.78 1978.15 1122.78 1978.15 1193.06 1990.82 1193.06 1990.82 1142.36 1989.66 1140 1990.82 1138.74 1990.82 1142.36 2015.73 1193.06 2032.03 1193.06 2032.03 1122.78 2019.36 1122.78 2019.36 1174.27"/><polygon class="cls-19" points="2020.52 1176.66 2019.36 1174.27 2019.36 1177.92 2020.52 1176.66"/><polygon class="cls-19" points="1989.66 1140 1990.82 1142.36 1990.82 1138.74 1989.66 1140"/><path class="cls-19" d="M2061.18,1141.28a9.79,9.79,0,0,1,4-4.45,12.41,12.41,0,0,1,6.33-1.52,10.24,10.24,0,0,1,5.15,1.3,11.47,11.47,0,0,1,3.92,3.78,17.75,17.75,0,0,1,2.4,5.95h13.73a35.86,35.86,0,0,0-4.71-13.14,23.37,23.37,0,0,0-8.64-8.29,24.32,24.32,0,0,0-11.85-2.85,28.45,28.45,0,0,0-13.73,3.09,20.62,20.62,0,0,0-8.71,9,30.93,30.93,0,0,0-3,14.2v19.3a30.93,30.93,0,0,0,3,14.2,20.45,20.45,0,0,0,8.71,8.94l5.7,3.07h8a24.22,24.22,0,0,0,11.83-2.85,23.44,23.44,0,0,0,8.61-8.29,36.44,36.44,0,0,0,4.76-13.14H2083a17.34,17.34,0,0,1-2.33,6,10.92,10.92,0,0,1-3.91,3.75,10.69,10.69,0,0,1-5.23,1.28,12.41,12.41,0,0,1-6.33-1.52,9.79,9.79,0,0,1-4-4.43,16.2,16.2,0,0,1-1.38-7v-19.3A16.4,16.4,0,0,1,2061.18,1141.28Z"/><rect class="cls-19" x="2112.62" y="1180.34" width="8.46" height="12.77"/><rect class="cls-19" x="2112.62" y="1151.8" width="8.46" height="12.77"/><rect class="cls-19" x="2121.08" y="1151.8" width="28.54" height="12.77"/><rect class="cls-19" x="2121.08" y="1180.34" width="33.86" height="12.77"/><rect class="cls-19" x="2121.08" y="1122.78" width="33.86" height="12.77"/><rect class="cls-19" x="2112.62" y="1122.78" width="8.46" height="12.77"/><polygon class="cls-19" points="2112.62 1122.78 2107.83 1122.78 2107.83 1193.11 2112.62 1193.11 2112.62 1180.34 2121.08 1180.34 2121.08 1164.57 2112.62 1164.57 2112.62 1151.8 2121.08 1151.8 2121.08 1135.55 2112.62 1135.55 2112.62 1122.78"/><path class="cls-20" d="M1878.21,1260.33c0-1-1.61-1-1.61,0-13.21,11.79-106.47,90.51-203.53,56.4,0,69.4-41.68,322.17,203.38,418,0,.53,1.92.53,1.92,0,245.06-95.82,203.38-348.59,203.38-418C1984.69,1350.84,1891.43,1272.12,1878.21,1260.33Z"/><path class="cls-21" d="M1878.11,1291.83c0-.83-1.4-.83-1.4,0-11.46,10.22-99.3,78.59-183.46,49,0,60.18-29.16,279.25,183.32,362.33,0,.46,1.67.46,1.67,0,212.49-83.08,183.67-301.28,183.67-361.45C1977.75,1371.29,1889.57,1302.05,1878.11,1291.83Z"/><circle class="cls-12" cx="1872.96" cy="1518.25" r="74.15" transform="translate(-438.44 832.32) rotate(-22.5)"/><polygon class="cls-22" points="1875.45 1518.29 1817.18 1440.37 1788.15 1466.86 1875.27 1551.89 2002.11 1420.8 1967.5 1405.93 1875.45 1518.29"/><rect class="cls-23" x="1585.1" y="1778.65" width="128.28" height="63.9"/><rect class="cls-23" x="1742.2" y="1778.65" width="70.43" height="63.9"/><rect class="cls-23" x="2043.69" y="1778.65" width="128.28" height="63.9"/><path class="cls-24" d="M2217.67,1584c-75.14,0-136.62,61.48-136.62,136.62v234.12a136.44,136.44,0,0,0,48.28,104,93.59,93.59,0,0,1-5.46-31.58V1727.39a93.8,93.8,0,1,1,187.6,0v299.76a93.59,93.59,0,0,1-5.46,31.58,136.44,136.44,0,0,0,48.28-104V1720.64C2354.29,1645.5,2292.81,1584,2217.67,1584Z"/><g class="cls-25"><path class="cls-26" d="M2216.28,1606.7c-60.29,0-109.62,58.54-109.62,130.1v222.93c0,39.54,15.08,75.09,38.74,99a104.29,104.29,0,0,1-4.38-30.07V1743.23c0-49.33,33.69-89.32,75.26-89.32s75.26,40,75.26,89.32v285.43a104.29,104.29,0,0,1-4.39,30.07c23.66-23.91,38.74-59.46,38.74-99V1736.8C2325.89,1665.24,2276.57,1606.7,2216.28,1606.7Z"/></g><circle class="cls-27" cx="2080.78" cy="2550.8" r="36.88"/><circle class="cls-27" cx="2335.58" cy="2550.8" r="36.88"/><path class="cls-28" d="M2386,1912.73H2042.5a70.26,70.26,0,0,0-8,.46,73.46,73.46,0,0,0-65.23,72.76V2465.2a73.47,73.47,0,0,0,65.23,72.77,72.65,72.65,0,0,0,8,.45H2386a73.45,73.45,0,0,0,73.22-73.22V1986A73.45,73.45,0,0,0,2386,1912.73Z"/><path class="cls-24" d="M2034.51,1913.19a73.46,73.46,0,0,0-65.23,72.76V2465.2a65.62,65.62,0,1,0,130.46,0V1986A73.46,73.46,0,0,0,2034.51,1913.19Z"/><rect class="cls-29" x="2166.3" y="1981.96" width="10.65" height="497.89" rx="2"/><rect class="cls-29" x="2275.47" y="1981.96" width="10.65" height="497.89" rx="2"/><rect class="cls-29" x="2384.63" y="1981.96" width="10.65" height="497.89" rx="2"/><circle class="cls-30" cx="2139.31" cy="2550.8" r="36.88"/><g class="cls-31"><path class="cls-12" d="M2143.31,2527a24.33,24.33,0,1,0,24.32,24.33A24.33,24.33,0,0,0,2143.31,2527Z"/></g><circle class="cls-30" cx="2387.59" cy="2550.8" r="36.88"/><g class="cls-31"><path class="cls-12" d="M2394.21,2528a24.33,24.33,0,1,0,24.33,24.33A24.33,24.33,0,0,0,2394.21,2528Z"/></g><path class="cls-32" d="M2872,1106.26c-78.1-22.74-175.72-7.44-175.72-7.44s-10.65,383.4,71,384,179.27-9.44,176.65-73.27S2950.07,1129,2872,1106.26Z"/><g class="cls-33"><path class="cls-34" d="M2889.41,1081l-14.69,1.71c20.33,35.09,21.71,77.66,21.67,118.21-.06,54.22-1.72,108.42-3.8,162.59-2,51.77-3.42,107.25,24.44,150.93,8.16,12.8,20.62,25,35.8,24.78,13.85-.22,25.68-11.27,31-24s5.39-27.07,5.07-40.91A915.12,915.12,0,0,0,2889.41,1081Z"/></g><path class="cls-35" d="M2672,850c-61.29-6.75-80.45,48.94-80.45,48.94s-22.78-32.06-60.75,10.12c-61.8,68.67,44.72,125.6,23.63,179.71-34.6,64.12,11,136.68,11,136.68L2664.66,1120s49.67-78.1,104-146.13S2733.3,856.75,2672,850Z"/><g class="cls-36"><path class="cls-37" d="M2605.05,945.81a10.23,10.23,0,0,0,.89.56c-.08-.76-.19-1.51-.25-2.27Z"/><path class="cls-37" d="M2784.29,926.61c-17.6-22.42-45.09-35.55-73.18-40.42-18.65-3.23-39.24-2.71-54.67,8.26-14.21,10.1-21.45,27.06-30.24,42.12-3.39,5.79-7.26,11.58-12.93,15.15-5.37,3.39-12.71,4.25-18,.86,4.49,46.94,31.22,91.32,70.74,117.07,8.67,5.65,18.34,10.56,28.68,10.71,16.43.24,30.5-11.35,41.86-23.23A294,294,0,0,0,2786.78,986c5.48-10.88,10.38-22.78,8.9-34.87C2794.58,942.08,2789.93,933.79,2784.29,926.61Z"/><path class="cls-37" d="M2685.15,1099.08l.76-.58c-27.19-18.88-59.88-28.14-78.7-55.36S2587,947.69,2586.06,953a180.34,180.34,0,0,1,.84-19.72c-15.21,11.24-23.87,29.92-25.64,48.75s2.77,37.8,10,55.27c5.27,12.68,12.09,25.21,12.7,38.93.81,18.25-9.43,35-14.13,52.62a89.36,89.36,0,0,0,9.47,67.87c4.93,8.28,11.49,16,20.18,20.14s19.76,4.29,27.45-1.53c4.31-3.26,7.21-8,10-12.62l37.81-62.48c7.72-12.76,15.67-26.26,16.2-41.16C2689,1099.15,2687.09,1099.13,2685.15,1099.08Z"/></g><path class="cls-38" d="M2617.26,2025.37,2590.64,2407l72.77,11.41s79.88-316.71,87-377.06S2617.26,2025.37,2617.26,2025.37Z"/><g class="cls-39"><path class="cls-40" d="M2689.67,1900l-106.31,122c2.74,25.11,20.12,46.14,39,62.93s40.21,31.29,55.37,51.49c16.38,21.81,24.33,48.66,31.24,75q17.05,65.1,28.17,131.57c-1.84-77.33,2.91-155.48,23.67-230,8.33-29.91,19.25-59.27,23.75-90s2-63.83-14.87-89.92S2719.2,1890.39,2689.67,1900Z"/></g><path class="cls-38" d="M2833.81,2407c78.1,33.43,87,19.52,87,19.52L2938,2000l-134.33,18.24S2816.06,2302.27,2833.81,2407Z"/><g class="cls-41"><path class="cls-40" d="M2962.16,1942c-55-31.81-133.24-13.67-168.62,39.08-25.54,38.09-28.57,86.71-27,132.54,3.39,102.38,25.22,203.14,47,303.24-9.66-72.73,9.53-146.11,33-215.63,10.5-31.1,22.63-63.07,46.4-85.7,15.54-14.8,35.19-24.69,51-39.24s27.75-36.74,21-57.12Z"/></g><path class="cls-38" d="M2475.58,1471.72c-16.16,12.43-169.07,87.85-169.07,87.85s-62.16,12.85-83.29,11.61-2.49,28.59,29.83,23.62,29.84,9.94,29.84,9.94-24.87,24.86-13.68,23.62,49.73-9.94,73.35-22.38,141.72-38.07,177.77-55.08,97.34-124.75,97.34-124.75l-87.39-59.83S2491.74,1459.29,2475.58,1471.72Z"/><g class="cls-42"><path class="cls-40" d="M2652.42,1375.28l-80.63-50.84c-19.66-12.4-39.48-24.88-61.16-33.27-4.72-1.83-9.87-3.48-14.78-2.23-4.07,1-7.38,3.92-10.35,6.89a104.91,104.91,0,0,0-26.09,43.73l-10.62,133.81c35.46-.3,64.31-30.6,99.46-35.29,11.15-1.49,22.49-.31,33.72-1a104.84,104.84,0,0,0,74.53-38.39c3.19-4,6.25-8.91,5-13.85C2660.36,1380.51,2656.24,1377.69,2652.42,1375.28Z"/><path class="cls-40" d="M2277.89,1592.91c-5.15-1-10.45-.1-15.69.18a64.72,64.72,0,0,1-42.95-13.52c-2.6-2-5.16-4.34-8.34-5.23s-7.24.19-8.42,3.28a7.69,7.69,0,0,0-.19,4c1.28,7.32,7.53,12.89,14.31,15.94s14.24,4.18,21.36,6.34c2.07.63,4.29,1.49,5.38,3.36.9,1.57.81,3.49.7,5.29l-1.14,17.48c-.43,6.63-.77,13.67,2.45,19.48s11.47,9.31,16.74,5.27l13.77-6.89c-3.73-1.11-5.61-5.57-5.13-9.43s2.72-7.25,4.89-10.48q4.41-6.53,8.8-13.06c2.47-3.66,5-7.77,4.45-12.13C2288.16,1597.54,2283,1593.92,2277.89,1592.91Z"/></g><path class="cls-43" d="M2901.74,1482.79l-213.11,15.76s-24.08,83.15-68,237-61.77,296.72-61.77,296.72,1.06,60.45,115.21,49.46,162.19-27.55,212.35,1.33,112,0,112,0-20-352.09-56.36-451.92S2901.74,1482.79,2901.74,1482.79Z"/><g class="cls-44"><path class="cls-45" d="M3003,1974c4.48-68.73-4.63-137.52-8.17-206.3-3.06-59.22-3-122.26-35.1-172.14-11.05-17.19-25.65-32.24-34-50.9-13-29.09-9-62.58-4.82-94.15L2876.44,1439l-12.9,1.35a350.39,350.39,0,0,0,16.81,154.6c7.67,22.19,17.74,45.55,11.9,68.29-2.58,10-8.23,19.74-6.92,30,1,7.92,6,14.7,8.52,22.29,2,6,2.32,12.37,2.66,18.67q5.2,97.18,10.42,194.38c1,18.86,2,38.24-4,56.16s-20.56,34.27-39.3,36.57c-32.06,3.94-55.71-32-87.57-37.29-34.31-5.69-62.49,24.52-88.28,47.84a299,299,0,0,1-64.2,44.34c-16.67,8.54-35.63,15.64-53.8,11.1-26.17-6.54-40.4-33.7-57.6-54.49a154.26,154.26,0,0,0-87-52.28c-4.64-1-10.05-1.49-13.56,1.69-2.36,2.13-3.22,5.44-3.83,8.57-9.37,48.7,18.17,99.54,59.14,127.5s92.8,35.92,142.32,33.18c46.36-2.57,93.45-13.74,138.6-2.92,45.66,10.94,86.3,43.82,133.24,42.51,29-.81,57.26-15.82,74.4-39.26,9.9-13.53,44-25.12,49.35-41C3019.17,2068,3000.05,2019.06,3003,1974Z"/></g><path class="cls-12" d="M2844,1119.79c-38.46-5.49-177.93-8.82-177.93-8.82s-43.52,24.85-88.33,79.8-60.9,134.88-78.17,159.41,111.71,86.84,148.34,82.25c15.41,55.86,18.37,101.78,18.37,101.78s180.53-.13,235.47-51.42c-11-110.84-22.89-137.37-22.89-137.37s106.32-58.12,119.55-94.08C2856,1129.29,2882.46,1125.29,2844,1119.79Z"/><g class="cls-46"><path class="cls-47" d="M2634.34,1289.54c-1.39-15.73-4.77-57.75-4.77-57.75-16.29,19.44-3.31,49.13-8.28,74s-28.08,46.88-21,71.08c1.19,4.05,3.17,8.61,1,12.22-1.52,2.52-4.61,3.59-7.51,4.12-16.66,3-33.1-5.56-47.2-14.92a339.07,339.07,0,0,1-61-51.85c-8,32.14,6.43,66.86,30.08,90.06s55.22,36.56,86.94,46.12c15.95,4.81,36.53,7.35,46.25-6.17,10-14-25.67-58.3-29.15-75.17C2614.39,1355.83,2635.55,1303.19,2634.34,1289.54Z"/><path class="cls-47" d="M2994.35,1222.18c-1.94-1.61-4-3.28-6.52-3.61-4-.55-7.57,2.47-10.51,5.28l-52.11,49.83c-9.35,8.94-19.84,18.4-32.75,19.19-10.46.65-20.59-4.8-27.85-12.37s-12.08-17.09-16.53-26.58a560.85,560.85,0,0,1-21.94-53.91l-5.33,9.35c-1.07,23.2,14.6,43.46,21.54,65.61,4.59,14.65,5.38,30.4,11.07,44.66s18.59,27.54,33.92,26.52c13.75-.92,23.92-12.51,33.92-22a152.23,152.23,0,0,1,44.41-29.38c11.08-4.8,22.87-8.35,32.7-15.34s17.61-18.6,15.8-30.53C3012.46,1237.67,3003.1,1229.41,2994.35,1222.18Z"/></g><path class="cls-32" d="M2610.63,1153.61c1-.5,1.94-1,2.93-1.48A25.91,25.91,0,0,0,2610.63,1153.61Z"/><path class="cls-32" d="M2610.63,1153.61c-78.78,41-68.74,196.51,37.27,278.82C2647.9,1432.43,2554,1186.84,2610.63,1153.61Z"/><g class="cls-48"><path class="cls-34" d="M2629.26,1147c1-.5,1.94-1,2.94-1.47A25.19,25.19,0,0,0,2629.26,1147Z"/><path class="cls-34" d="M2629.26,1147c-78.77,41-68.73,196.51,37.28,278.83C2666.54,1425.78,2572.59,1180.19,2629.26,1147Z"/></g><path class="cls-32" d="M2868,1124.55s-18.18-26.69-57.76-15.59c-40.17,109.73,72.2,257.36,72.2,257.36a85.2,85.2,0,0,0,3.9-25.14C2824.11,1259.51,2868,1124.55,2868,1124.55Z"/><g class="cls-49"><path class="cls-34" d="M2890.67,1125.88s-18.18-26.69-57.75-15.59c-40.18,109.73,72.19,257.36,72.19,257.36a85.2,85.2,0,0,0,3.9-25.14C2846.74,1260.84,2890.67,1125.88,2890.67,1125.88Z"/></g><path class="cls-38" d="M2897.37,1337.71l57.73,89.09-49.39,104.53s-18.93-11.52-32.93-8.23l-14,3.29s-43.37,5.77-49.68,13.17c-5.31,6.25,8.49,10.78,14.92,11.29,2.28-.43,3.59-.51,2.65-.15a7,7,0,0,1-2.65.15c-5.7,1.07-17.47,4.35-14.92,8.47,3.58,5.76,20.87,7.41,20.87,7.41s-14.82,6.13-10.71,11.3,27.94,6,27.94,6-5,9,0,11.52,30.51-3.29,30.51-3.29,36.22,18.11,53.51,8.23,101-144,109.48-173.68S2976.16,1279,2976.16,1279Z"/><path class="cls-38" d="M2826.68,1550.7c.94-.36-.37-.28-2.65.15A7,7,0,0,0,2826.68,1550.7Z"/><g class="cls-50"><path class="cls-40" d="M2970.35,1244.46a60.94,60.94,0,0,0-82.82,38.5l-16,25.84c3.39,18.79,15.83,35.21,31.63,45.93s34.71,16.14,53.68,18.31c14.13,1.61,28.47,1.5,42.43,4.2a108,108,0,0,1,53.44,27.45c-18.36-24.87-23.1-56.82-31.26-86.63S2998.67,1256.84,2970.35,1244.46Z"/><path class="cls-40" d="M2967.28,1583.54a9.21,9.21,0,0,0-4.55-.41c-10.1.91-19.69,4.66-29.53,7.08s-20.64,3.41-29.78-1c-7-3.33-12.94-9.68-20.64-9.75-5.49,0-10.38,3.16-15.33,5.53a53.92,53.92,0,0,1-32.5,4.42l-3.41,9.09c28.68,22.46,67.94,30.76,103.26,21.83,14.5-3.66,29.56-11.35,34.92-25.31C2971.27,1591,2971.26,1585.29,2967.28,1583.54Z"/><path class="cls-40" d="M2809.49,1572.67l7.6,9.8a31.95,31.95,0,0,0,49.22-13.16l-28.62,4.57C2828.25,1575.39,2818.11,1576.81,2809.49,1572.67Z"/><path class="cls-40" d="M2802,1554.1l1.73,4c4.84,9.91,18.29,11,29.31,10.59,5.56-.23,11.3-.56,16.26-3.07s9-7.79,8.22-13.3A80.88,80.88,0,0,1,2802,1554.1Z"/><path class="cls-40" d="M2847.51,1540.59c-2.54-1.4-5.61-1.36-8.51-1.18-14.73.91-31.33,3.84-42.75-5.52l.71,5.92a52.41,52.41,0,0,0,48.22,11.33c2-.56,4.19-1.39,5.19-3.23C2851.75,1545.35,2850.06,1542,2847.51,1540.59Z"/><path class="cls-40" d="M2908.49,1506.41c-.91-3.63-.72-7.55-2.19-11s-5.67-6.26-8.92-4.4l.76,32.79,21.1,16.56c7.79,6.12,17.81,12.57,26.86,8.55a2.83,2.83,0,0,0,1.54-1.27,3,3,0,0,0-.11-2.05C2941.6,1527.64,2913.09,1524.75,2908.49,1506.41Z"/></g><path class="cls-15" d="M2572.8,2377.59l-26.38,99.54s-12.67,18.62-74.8,18.62-78.1,30.18-67.45,65.68,273.35,7.1,273.35,7.1,14.2-44.38,14.2-168.92C2624.27,2363.81,2572.8,2377.59,2572.8,2377.59Z"/><g class="cls-51"><path class="cls-52" d="M2468,2549.66c-26.62-5-53.8-12.71-80.34-7.33l-7.58,3.91c-6.57,7.12-5.82,18.87-.52,27s14.12,13.22,23,17.11c26.21,11.49,55.21,14.74,83.76,16.49,56.29,3.46,113.53,1.5,167.8-13.81,12.14-3.43,24.51-7.75,33.72-16.38s14.48-22.61,9.57-34.24C2621.65,2555.77,2543.63,2563.82,2468,2549.66Z"/><path class="cls-52" d="M2504.7,2477.54l-10.19,6.23c5.23,3.41,7.8,9.76,8.85,15.92s.89,12.49,2.23,18.6c.8,3.66,2.21,7.32,4.89,9.94s6.82,4,10.3,2.59c4-1.61,5.92-6.12,6.93-10.3,2.17-8.95,2-18.7-1.95-27S2513.85,2478.52,2504.7,2477.54Z"/><path class="cls-52" d="M2531.34,2460.36l-3,6.4q6.93,18.88,13.85,37.75c1.4,3.81,3.72,8.31,7.78,8.34,3.72,0,6.17-3.84,7.38-7.35,3.27-9.5,2.86-20.38-1.91-29.22S2541.37,2461,2531.34,2460.36Z"/><path class="cls-52" d="M2683.23,2360.59c-25.31-15.67-56.74-18.2-86.36-15.22-24.85,2.5-49.63,8.7-71.34,21l15.09,38.45a283,283,0,0,1,164.46,35.3c3,1.67,6.65,3.41,9.53,1.62,1.84-1.14,2.65-3.35,3.22-5.44C2725.68,2407.63,2708.53,2376.27,2683.23,2360.59Z"/></g><path class="cls-15" d="M2947.24,2474.85l-6.72-84.16c-50.41-16-117.63,10.35-117.63,10.35l-18.51,116.15c-3.8,23.85,7.18,47.7,27.42,59a72.24,72.24,0,0,0,9.58,4.52c23.52,9,134.43,10.54,156.27,0s15.13-33.83,0-58.68S2947.24,2474.85,2947.24,2474.85Z"/><g class="cls-53"><path class="cls-52" d="M2907.71,2347.61c-51.2-3.69-105.08,17.13-135.44,58.53l28.08,23.9c22.08-11.88,47.79-14.54,72.76-16.8,29-2.63,60.06-4.63,85.59,9.45,4.82-15.93,8.53-33.81,1-48.65C2950.52,2355.88,2928,2349.07,2907.71,2347.61Z"/><path class="cls-52" d="M3008.77,2545.54c-17.8-13.39-39.36-26.44-61-21.16-10.74,2.62-19.85,9.47-29.5,14.86a118.51,118.51,0,0,1-88.42,10.6c-18.33-5.09-36.76-16.38-42.37-34.55l-19.36,9c-15.83,13.69-13.05,40.72.8,56.42s35.09,22.46,55.57,26.75a367.37,367.37,0,0,0,243.5-33.88C3045.7,2574,3026.57,2558.94,3008.77,2545.54Z"/><path class="cls-52" d="M2961.42,2458.22c-10.39-3.47-21.15-6.19-32.1-6.34-27.45-.39-54.33,16.93-65.32,42.07a10,10,0,0,0-1.16,5.4c.54,3.59,4.69,5.7,8.31,5.38s6.83-2.35,10-4.2a130,130,0,0,1,76.66-17.47c6.89.59,14.52,2.21,18.4,7.93l16.07-13.43C2985.11,2467.49,2973.13,2462.13,2961.42,2458.22Z"/></g><path class="cls-38" d="M2764.51,945.25s-54.84,6.84-113.89-17.63c6.75,80.15-30.38,86.9-30.38,86.9s-.08.68-.16,1.89c-9.15-1.36-17.71,1.66-21.7,8.57-5.67,9.82,0,23.73,12.77,31.07a30.44,30.44,0,0,0,20.44,4c.42.58.86,1.16,1.31,1.73,16,20.25,6.75,81,6.75,81s21.09,47.25,53.15,50.63,42.18-66.66,42.18-66.66-18.56-5.9-18.56-35.43c37.13,3.37,59.91-35.44,58.22-63.28S2764.51,945.25,2764.51,945.25Z"/><g class="cls-54"><path class="cls-40" d="M2736.92,896.61c-39.82-11.22-84.73-10.38-120.16,11-9.59,5.79-19.36,16.22-15.48,26.73l12.21,53,3.89,26.24c8.68,4.29,18.71-1.9,26.11-8.13,13.38-11.28,26.79-26.31,25-43.73a294.72,294.72,0,0,0,85.17,2c5.77-.7,11.7-1.64,16.63-4.72,12.74-7.95,13.31-27.69,4.62-39.94S2751.38,900.68,2736.92,896.61Z"/><path class="cls-40" d="M2719,1092.89c-17.16.29-33-8.51-49.53-13.08a1.89,1.89,0,0,0-2.77,2.38,53.77,53.77,0,0,0,14.6,30.61,47.23,47.23,0,0,0,30.62,14.14c4.06.23,8.26-.14,11.89-2,5.17-2.62,8.51-7.92,10.46-13.39,1.49-4.2,2.1-9.43-1-12.66Z"/><ellipse class="cls-40" cx="2624.96" cy="1037.37" rx="11.54" ry="8.43"/></g><path class="cls-35" d="M2674.19,957.31a11.32,11.32,0,0,0-4.79,2.18,13.12,13.12,0,0,0-3.35,3.9,10.13,10.13,0,0,0-1.39,4.93c1.45-1,2.65-2,3.82-3s2.26-1.85,3.36-2.71a41.7,41.7,0,0,1,3.42-2.39c1.2-.8,2.52-1.39,4.1-2.27A8.07,8.07,0,0,0,2674.19,957.31Z"/><path class="cls-35" d="M2744.5,965.82c-4,.42-6.69,5.11-6.12,10.46s4.25,9.34,8.21,8.91,6.69-5.11,6.12-10.46S2748.45,965.39,2744.5,965.82Z"/><path class="cls-35" d="M2680.25,978.19c-3.95.42-6.69,5.11-6.11,10.46s4.25,9.34,8.2,8.91,6.7-5.11,6.12-10.46S2684.21,977.76,2680.25,978.19Z"/><ellipse class="cls-12" cx="2746.82" cy="973.86" rx="2.96" ry="4" transform="translate(-88.62 300.27) rotate(-6.16)"/><path class="cls-12" d="M2681.69,982c-1.63.17-2.76,2.1-2.52,4.29s1.75,3.83,3.37,3.66,2.75-2.1,2.52-4.29S2683.31,981.77,2681.69,982Z"/><path class="cls-35" d="M2736.05,992c-.14.64-.25,1.29-.38,1.94,0,.13-.06.26-.09.4.81,0,1.62,0,2.43,0Z"/><path class="cls-35" d="M2735,990.34c-.92-.16-1.88-.22-2.79-.41a15.58,15.58,0,0,1-5-1.95,11.9,11.9,0,0,1-3.68-4c-.24-.41-.42-.86-.66-1.29s-.4-.92-.54-1.4a18.19,18.19,0,0,1-.78-3A12,12,0,0,0,2725,990.7a15.43,15.43,0,0,0,6.28,3.1c1.12.25,2.25.37,3.37.51h.91c0-.14.07-.27.09-.4.13-.65.24-1.3.38-1.94l2,2.33c-.81,0-1.62,0-2.43,0l-.33,1.52c-.31,1.27-.66,2.51-1.09,3.73a18.08,18.08,0,0,1-1.62,3.48,6.34,6.34,0,0,1-2.85,2.63,5.6,5.6,0,0,0,4-1.53,13.89,13.89,0,0,0,2.89-3.37,24.69,24.69,0,0,0,1.91-3.9,35.23,35.23,0,0,0,1.29-4.09l.59-2.19-2.54-.14C2736.9,990.4,2735.93,990.35,2735,990.34Z"/><path class="cls-35" d="M2703.32,1029.42c1,.2,2,.37,3,.53-.24-.89-.43-1.81-.59-2.73Z"/><path class="cls-35" d="M2715.11,1030.45c1.31-.1,2.62-.16,3.91-.34a44.68,44.68,0,0,0,7.64-1.59,34.94,34.94,0,0,0,7.16-2.92,72.74,72.74,0,0,1-7.51,1.19c-1.25.13-2.5.24-3.74.32s-2.5.1-3.74.11a56.81,56.81,0,0,1-7.39-.39,58.6,58.6,0,0,1-7.22-1.26l-2.82-.63.41,2.84a20.86,20.86,0,0,0,3.8,9.78,17.52,17.52,0,0,0,8.6,6.08,26.6,26.6,0,0,0,10,1.13,31.94,31.94,0,0,0,9.57-2.09,55.34,55.34,0,0,1-9.55,0,34.42,34.42,0,0,1-4.58-.73,22,22,0,0,1-4.29-1.4,15.62,15.62,0,0,1-6.64-5.27,15.37,15.37,0,0,1-2-3.78,15,15,0,0,1-.49-1.52c-1-.16-2-.33-3-.53l2.41-2.2c.16.92.35,1.84.59,2.73a39.64,39.64,0,0,0,4.85.49C2712.48,1030.52,2713.8,1030.48,2715.11,1030.45Z"/><path class="cls-55" d="M2664.86,1003.88a16.93,16.93,0,1,0,16.93,16.93A16.93,16.93,0,0,0,2664.86,1003.88Z"/><path class="cls-22" d="M3521.76,1065.35c-59.24-54.48-125.34-24.76-125.34-24.76-223.94,22.93-151.62,482.49-109.65,507s228.69,61,310.24,24.82,18.56-186.25-.81-309.67S3581,1119.82,3521.76,1065.35Z"/><path class="cls-12" d="M3199.12,2444.59s9.29,55.08-48,58.12-69.48,53.46-56.63,80.86,89.92,8.7,106.21,7.06,96.22-42.49,107.21-65.46-7.57-90.79-7.57-90.79Z"/><g class="cls-56"><path class="cls-45" d="M3233.42,2548.52c-24.81,9.8-52.53,19.67-77.43,10.11-14.24-5.46-25.6-16.71-39.63-22.69s-34-4-39.75,10.16l-3.54,48c26.26,14.5,53.75,29.37,83.73,30.58,21.27.86,42.16-5.28,62.37-12,27.46-9.11,55.33-19.85,76.4-39.68s33.94-50.9,24.78-78.34C3299.25,2522,3265.54,2535.83,3233.42,2548.52Z"/><path class="cls-45" d="M3230.05,2402.42c-9.36-7-23.9-8.87-32.13-.56l-56.25,87.94c14.07,1.59,25.66,11.19,37.88,18.35s28.34,11.85,40,3.78c5.9-4.1,9.43-10.75,12.63-17.2,7.44-15,14.37-30.75,15.58-47.47S3243.45,2412.48,3230.05,2402.42Z"/></g><path class="cls-12" d="M3347.15,2456.4s4.95,55.79-55.69,53.07-78,46.26-66.82,74.83S3318.69,2602,3336,2602s105.19-32.66,118.8-54.43,0-91.16,0-91.16Z"/><g class="cls-57"><path class="cls-45" d="M3471.92,2513.75c-29.38,34.38-73.64,52.47-117.66,62.8-14.12,3.31-28.67,6-43.06,4.26-18.9-2.25-36-11.8-54.22-17.43s-40.06-6.51-54.12,6.31l-38.56,2.21-11.18,7.42c23.55,49.73,82.43,75.55,137.42,73.52s106.52-27.09,153.08-56.4c14.91-9.38,30.14-20,38-35.7S3487.09,2522.69,3471.92,2513.75Z"/><path class="cls-45" d="M3342.41,2432.67c-13.28,9.09-21.42,23.79-29.08,37.95l-34.59,31.55,38.33,23.47c8.45,5.17,17.63,10.54,27.52,9.86,12.35-.84,22-10.84,29-21.1a135.62,135.62,0,0,0,18-38.85c4-14.05,5-30.87-4.91-41.58C3375.73,2422.17,3355.69,2423.57,3342.41,2432.67Z"/></g><path class="cls-32" d="M3496.89,1588.78c-6.6-79.82-295.35-39.9-295.35-39.9s-77.55,330.17-87.45,411.8,54.45,399.12,59.4,437.22,21.45,79.82,21.45,79.82,67.65,12.7,108.9-20c-13.2-152.39-9.9-335.62-18.15-375.53s-18.15-96.15-18.15-96.15l37.73-177.79s.22,261.24,5.17,295.71,23.43,376.15,23.43,376.15,34.32,33.85,126.72-7.87c0-61.68,8.25-317.48,0-382.79S3503.49,1668.6,3496.89,1588.78Z"/><g class="cls-58"><path class="cls-59" d="M3488.83,1557.81a1038.93,1038.93,0,0,1-90.62,467.47c-3.2,7.1-6.53,15.2-3.54,22.39,5.61,13.52,28.76,13.27,32.64,27.38,2.44,8.89-4.7,17.39-6.34,26.46-1.78,9.9,3.09,19.6,6.74,29,10.5,27,11.32,56.7,12,85.69q1.77,73,3.52,146c.69,28.32.87,58.53-14.32,82.44-21.26,33.44-72.52,42.7-104.14,18.82-14.2,27,4.47,62.45,32.22,75.19s60.39,8,89.41-1.52c18.39-6,36.69-14.19,50.09-28.15,19.36-20.17,25.7-49.26,29.89-76.9a872.24,872.24,0,0,0,6.06-212c-6.65-70.88-22-141.71-15.48-212.6,3.8-41.23,14.92-81.37,24-121.76a1265.71,1265.71,0,0,0,27.06-375.91Z"/><path class="cls-59" d="M3291.49,1936.23l11.35-72.16q-.18-61.17-.35-122.36c-11.71,56.62-24.73,116-62.69,159.56-11.16,12.81-24.57,24.46-30.67,40.31s-1,37.85,15.25,42.7c5.68,1.7,11.85,1.08,17.51,2.82s11,7.55,8.91,13.1c-1.84,4.89-8,6.32-11.94,9.73-8.89,7.64-4.71,21.89-.5,32.83,22.32,58,24.76,121.38,26.94,183.45q4.93,140.74,9.88,281.48c9.42,6.06,19.06-7.62,21.7-18.51C3340.6,2309.35,3272.51,2120.32,3291.49,1936.23Z"/></g><path class="cls-60" d="M3325.39,1061.55s-42,17.75-70.22,28.4-62,16-104.58,79.87-106.5,140.23-81.65,198.8,136.68,24.85,136.68,24.85-15.37,182.83-11.24,184.6,96.79-10.65,157,0,139.76,17.75,139.76,17.75l39.34-97.62s51.48-30.18,85.2-88.75-16-236.08-30.17-266.25S3385,1037.22,3325.39,1061.55Z"/><g class="cls-61"><path class="cls-62" d="M3602.68,1383.6c-23.94-6.59-49.08-8.37-72.7-16s-46.75-23-54.59-46.61c-3.17-9.55-3.61-19.78-3.55-29.85.24-40.12,20.61-137.35,20.61-137.35l-45.6,121.35c-5.16,13.72-10.35,27.56-12.56,42.05a107.06,107.06,0,0,0,15.63,73.38c20.07,31.19,56.72,52.63,65.23,88.72,1.24,5.31,2,11.15,5.88,15,5,5,13,4.59,20,3.55a227.12,227.12,0,0,0,68.5-21.69c20.8-10.46,42.35-29,39.49-52.12C3646.33,1402.38,3623.66,1389.38,3602.68,1383.6Z"/><path class="cls-62" d="M3520.16,1607.92c-85.18-43.34-181.74-57.12-275.59-75.2-6.68-1.28-13.49-2.65-19.38-6-16.7-9.64-20.66-31.87-20.53-51.16.31-43.73,12.37-86.37,21.19-129.19a885.84,885.84,0,0,0,18-197.67,813.06,813.06,0,0,1-42.78,139.5c-10.25,25.14-23.26,51.41-47.09,64.4-19.91,10.86-45.66,10.06-64.87-2a65.51,65.51,0,0,1-30-57.55l-45.35,99.43c30.32,24,68.59,44.58,79.17,81.8,5.58,19.63,2.12,40.64-2.64,60.49-4.65,19.36-8.79,43.91,7.33,55.61,5.87,4.26,13.29,5.64,20.45,6.89,132.86,23.11,268.1,38.2,402.54,27.56,2.68-.21,5.64-.57,7.42-2.59C3532.19,1617.45,3525.79,1610.79,3520.16,1607.92Z"/></g><path class="cls-35" d="M3471.87,798c-11.54-20.41-73.67-30.17-73.67-30.17-18.63-17.75-34.57-21.3-28.42,0-56.83-24-118.9,24.85-127.41,37.27s-9.24,31.06,4.07,26.63c-27.51,77.21,89.64,190.81,190.61,134.9s29.49-148.22,29.49-148.22S3483.4,818.37,3471.87,798Z"/><g class="cls-63"><path class="cls-37" d="M3433.76,818c-1.11-1.34-2.23-2.67-3.34-4A6.62,6.62,0,0,0,3433.76,818Z"/><path class="cls-37" d="M3433.76,818a6.62,6.62,0,0,1-3.34-4c1.11,1.33,2.23,2.66,3.34,4a9.25,9.25,0,0,0,10.32-1.05c4.09-3.8,4.14-10.65,1.24-15.42s-8.05-7.75-13.33-9.57a47.7,47.7,0,0,0-29.88-.29,3,3,0,0,0-2,3.74l3.14,10.4a55.32,55.32,0,0,0-23.08-22.65,3,3,0,0,0-4.39,2.2,38.64,38.64,0,0,0,.11,12.65,3,3,0,0,1-4.52,3.12c-14.17-9.56-34.38-9.52-52.15-7.76-26.51,2.64-54.58,7.81-74.84,24.59a3,3,0,0,0,2,5.28h.17a3,3,0,0,1,2.31,4.95c-23.15,26.45-26.66,68-11.84,100.34,16.19,35.38,50.58,60.1,87.69,71.79,29.78,9.39,62.7,11.15,92,.24s54.09-35.66,60.71-66.17c4.73-21.84.06-44.92-9.32-65.2C3459.42,850.45,3447,833.83,3433.76,818Z"/></g><path class="cls-38" d="M3422,924.8c1.44-6.18,2.39-10.13,2.39-10.13s-81.87-55.25-88.52-87.2c-36,20-76.55,28.62-76.55,28.62s-9.32,94.52,0,126.47,30.62,53.25,51.92,53.25c0,34.61-9.32,39.94-9.32,39.94s2.66,46.59,42.6,43.93,79.87-51.92,79.87-51.92-17.3-53.8-17.3-67.5a104.61,104.61,0,0,1,1.85-14.45,40.64,40.64,0,0,0,26.68-6.3c16.81-10.55,23.63-30,15.23-43.34C3445.13,927.08,3433.88,923.12,3422,924.8Z"/><g class="cls-64"><path class="cls-40" d="M3353.08,790.18c-18.63-11.89-39.41-22-61.5-22.36S3246,779,3238.1,799.64l8,58.29a67.82,67.82,0,0,0,63.27.19c2.61-1.4,5.47-3,8.34-2.31,2.08.52,3.64,2.17,5.11,3.72a232.59,232.59,0,0,0,101.7,62.57c7-25.86.41-54.16-13.7-76.94S3375.66,804.6,3353.08,790.18Z"/><path class="cls-40" d="M3321.73,1039.83c-7.93-.07-15.87-1.53-23.75-.59l-26.55,19.23c-3.64,2.61-4.57,8-3,12.15s5.13,7.38,9,9.65c15.29,8.94,35.19,5.34,50.66-3.3a90.25,90.25,0,0,0,43.5-58.44A68.59,68.59,0,0,1,3321.73,1039.83Z"/><path class="cls-40" d="M3414.85,940.42c-8.3,1.63-13.94,8.5-12.6,15.35s9.15,11.1,17.45,9.48,13.94-8.5,12.6-15.35S3423.15,938.8,3414.85,940.42Z"/></g><path class="cls-35" d="M3297.47,862.41a25.65,25.65,0,0,0-8-1.86,30.61,30.61,0,0,0-8.06.62,23.58,23.58,0,0,0-7.49,2.91c2.71.14,5.27.17,7.81.21s5,.11,7.48.25,4.86.46,7.29.87a61.47,61.47,0,0,1,7.38,2A16.16,16.16,0,0,0,3297.47,862.41Z"/><path class="cls-35" d="M3378.32,872.14a25.64,25.64,0,0,0-8-1.86,30.53,30.53,0,0,0-8.05.62,23.25,23.25,0,0,0-7.49,2.91c2.71.14,5.27.17,7.81.21s5,.11,7.47.25,4.87.46,7.3.87a60.84,60.84,0,0,1,7.37,2A16.13,16.13,0,0,0,3378.32,872.14Z"/><path class="cls-35" d="M3298.27,894.12a13.49,13.49,0,0,0-3.84-5.73,10.43,10.43,0,0,0-3.23-1.84,9.88,9.88,0,0,0-3.73-.54,9.11,9.11,0,0,0-3.69,1,12.19,12.19,0,0,0-2.93,2.11,19.61,19.61,0,0,0-3.8,5.44,32.24,32.24,0,0,0-3.1,12.14,83.93,83.93,0,0,1,5.82-10.57,21.11,21.11,0,0,1,3.63-4.21,7.15,7.15,0,0,1,4.27-1.9,6.26,6.26,0,0,1,2.29.3,7.09,7.09,0,0,1,2.11,1.06,12.14,12.14,0,0,1,3.33,4,30.41,30.41,0,0,1,2.24,5.38c.64,1.9,1.12,3.87,1.61,5.89a25.17,25.17,0,0,0,.32-6.26A23.34,23.34,0,0,0,3298.27,894.12Z"/><path class="cls-35" d="M3389.28,900.4a17.66,17.66,0,0,0-5.62-6.77,16.45,16.45,0,0,0-8.48-2.93,21.41,21.41,0,0,0-4.45.19,19.65,19.65,0,0,0-4.27,1.21,21.78,21.78,0,0,0-7.16,4.86,31.13,31.13,0,0,0-8,14.38,45.94,45.94,0,0,1,10-12.05,19,19,0,0,1,13.52-4.6,14.86,14.86,0,0,1,3.47.63,12.39,12.39,0,0,1,3.16,1.45,15,15,0,0,1,2.74,2.25,21,21,0,0,1,2.25,2.91,31.36,31.36,0,0,1,3.24,7,55.83,55.83,0,0,1,2,7.76,30.52,30.52,0,0,0-.09-8.21A27.05,27.05,0,0,0,3389.28,900.4Z"/><path class="cls-35" d="M3312.47,911.93a35.86,35.86,0,0,1-3,6.58,17.71,17.71,0,0,1-4.43,5.07,14.15,14.15,0,0,1-6,2.53l-2.35.42.82,2.07a62.81,62.81,0,0,0,3.83,8.19,36.87,36.87,0,0,0,2.47,3.84,17.5,17.5,0,0,0,1.44,1.78,9.55,9.55,0,0,0,1.69,1.55,28,28,0,0,1-1.79-4.06c-.5-1.39-1-2.76-1.44-4.16l-2-6.27a20.65,20.65,0,0,1-2.2.38l1.54-2.49.66,2.11a14,14,0,0,0,2-.6,15.4,15.4,0,0,0,3.77-2.12,17.53,17.53,0,0,0,5.15-6.59,24.88,24.88,0,0,0,2.14-7.71,26.13,26.13,0,0,0-.16-7.8C3314,907.17,3313.28,909.59,3312.47,911.93Z"/><path class="cls-35" d="M3299.49,929.85a20.65,20.65,0,0,0,2.2-.38l-.66-2.11Z"/><path class="cls-35" d="M3343.81,954.81l-2.42,1.55c-1.27.81-2.49,1.69-3.77,2.47a39.59,39.59,0,0,1-4,2.12,40.82,40.82,0,0,1-8.5,3,39.56,39.56,0,0,1-9,1.06,36.63,36.63,0,0,1-9.22-1.07,28.08,28.08,0,0,0,9.1,2.75,33.62,33.62,0,0,0,4.81.34l2.43-.06c.8-.08,1.61-.16,2.42-.26s1.6-.28,2.4-.42a20.88,20.88,0,0,0,2.37-.54l2.36-.68c.76-.28,1.51-.59,2.27-.89a44.51,44.51,0,0,0,4.42-2.08c.57-.3,1.11-.63,1.64-1l-.5-2.77,3,1.16c-.85.53-1.67,1.08-2.52,1.61l.07.34c.18,1,.27,2.08.41,3.12s.16,2.07.26,3.1,0,2.05,0,3.08a25.81,25.81,0,0,1-1,5.88,12.45,12.45,0,0,1-2.81,4.88c-2.55,2.79-6.65,4-10.8,4.27a37.59,37.59,0,0,1-6.35-.18,50.21,50.21,0,0,1-6.4-1.05,34.86,34.86,0,0,0,12.75,3.41,21.66,21.66,0,0,0,6.86-.61,15,15,0,0,0,6.33-3.41,16.23,16.23,0,0,0,3.95-6.09,25.31,25.31,0,0,0,1.34-6.91,49.18,49.18,0,0,0-1.38-13.43Z"/><path class="cls-35" d="M3340.62,958.35l.5,2.77c.85-.53,1.67-1.08,2.52-1.61Z"/><circle class="cls-55" cx="3376.67" cy="945.51" r="19.32"/><path class="cls-22" d="M3497.48,1091.36c-73.79-5.69-25.83,303-25.83,303h42.82l23.86-284.67S3571.27,1097.05,3497.48,1091.36Z"/><g class="cls-65"><path class="cls-66" d="M3529.43,1093.13c-73.79-5.69-25.83,303-25.83,303h42.82l23.86-284.67S3603.22,1098.82,3529.43,1093.13Z"/></g><path class="cls-22" d="M3223.47,1079.81c-73.52,8.54-17.85,313.66-17.85,313.66l26.93-5.68L3267.07,1090S3297,1071.27,3223.47,1079.81Z"/><g class="cls-67"><path class="cls-66" d="M3255.42,1081.58c-73.52,8.54-17.85,313.67-17.85,313.67l26.93-5.69L3299,1091.73S3328.93,1073,3255.42,1081.58Z"/></g><path class="cls-68" d="M3065.45,1656.17c-7.1,99.4,12.42,244.95,35.5,213s58.57-198.8,85.2-236.07,110-197,110-197L3136.45,1299.4S3072.55,1556.77,3065.45,1656.17Z"/><g class="cls-69"><path class="cls-70" d="M3237.58,1366.9c-27.95,21-46.22,52.34-60.24,84.34-67.33,153.7-50.66,330.2-87.09,494,33.84-69.54,91.57-124.1,136.13-187.31a568.92,568.92,0,0,0,66.06-123.81c21.86-57,34.59-117.62,62.17-172.08s74.69-104.1,135.06-113.16l-115-20.08C3326.76,1332.91,3276.05,1338,3237.58,1366.9Z"/></g><path class="cls-12" d="M3235.88,1619.9l-57.14-42.11a8,8,0,0,0-11.19,1.7l-15.78,21.41a8,8,0,0,0,1.7,11.19l57.13,42.1a8,8,0,0,0,11.19-1.69l15.78-21.41A8,8,0,0,0,3235.88,1619.9Z"/><rect class="cls-12" x="3217.56" y="1514.3" width="33.72" height="74.55" rx="6.33" transform="translate(66.56 3234.89) rotate(-53.61)"/><path class="cls-68" d="M3606.26,1129.59c-99.5,5.56-357.83,65.46-357.83,65.46l134.18,161.85s161-80.93,198.71-107,205.06-59,237.36-81.53S3705.76,1124,3606.26,1129.59Z"/><g class="cls-71"><path class="cls-70" d="M3711.09,1167.62a568.88,568.88,0,0,0-139,19.67c-58.92,16-115.38,41.44-175.63,51.27s-128.12,1.08-171-42.33l51.6,104.7c31.58,36.28,65.63,74.22,111.63,88.26,33.42,10.2,69.52,6.45,103.64-1.1,163.83-36.26,296.54-153.82,450.3-221C3866.53,1180.77,3788.42,1166.33,3711.09,1167.62Z"/></g><path class="cls-12" d="M3560.81,1216.92a8,8,0,0,0-11.15-1.87L3528,1230.5a8,8,0,0,0-1.87,11.16l41.22,57.78a8,8,0,0,0,11.16,1.87l21.65-15.45a8,8,0,0,0,1.87-11.16Z"/><path class="cls-12" d="M3494.82,1261.94a6.36,6.36,0,0,0-8.84-1.47l-17.14,12.22a6.36,6.36,0,0,0-1.48,8.84l35.94,50.38a6.36,6.36,0,0,0,8.83,1.48l17.14-12.23a6.35,6.35,0,0,0,1.48-8.84Z"/><path class="cls-70" d="M3778.29,1616c-29.29,2.67-97.8,32.2-97.8,32.2s-95.16-122.11-208.8-251.48c-17.46-19.89-35.38-39.93-53.43-59.74-5.43-5.94-10.87-11.88-16.32-17.76-18.38-19.89-36.83-39.41-55.06-58.07q-8.52-8.75-17-17.25c-19.7-19.76-39-38.4-57.62-55.33-43.9-40-83.73-70.61-114.51-84.4-57.62-25.83-82.65-32-110.07-37.28-31.76-6.17-63.93,29.72-60.49,61.91a200.84,200.84,0,0,0,38.31,99c21.33,28.67,60.15,69.33,101.6,110.2,57.11,56.31,119.23,112.94,147.45,139.06q3.68,3.39,6.55,6.07c39.94,37.28,327.49,234.3,327.49,234.3s-49.84,85.2-44.52,125.14,32.67,64.78,32.67,64.78,91.72-171.28,278.1-253.82C3816.27,1613.57,3807.58,1613.33,3778.29,1616Z"/><g class="cls-72"><path class="cls-73" d="M3749,1650.61c-29.29,2.66-97.8,32.19-97.8,32.19s-95.16-122.1-208.79-251.47c-17.47-19.89-35.39-39.94-53.44-59.75q-8.14-8.91-16.32-17.76c-18.37-19.89-36.82-39.4-55.06-58.07q-8.51-8.74-17-17.25c-19.7-19.76-39-38.39-57.62-55.33-43.9-40-83.73-70.61-114.51-84.4-57.62-25.83-82.64-32-110.07-37.27-31.76-6.18-63.92,29.71-60.49,61.9a201,201,0,0,0,38.31,99c21.33,28.68,60.15,69.33,101.61,110.2,57.11,56.31,119.22,112.94,147.44,139.06l6.55,6.07c39.94,37.28,327.49,234.3,327.49,234.3s-49.84,85.2-44.52,125.14,32.67,64.78,32.67,64.78,91.73-171.28,278.1-253.82C3787,1648.19,3778.29,1647.94,3749,1650.61Z"/></g><path class="cls-12" d="M3263.83,1197.53a32,32,0,0,0,1.41,45.16l11.64,10.94a32,32,0,0,0,45.16-1.38l7.85-8.36c-19.7-19.76-39-38.4-57.62-55.33Z"/><path class="cls-12" d="M3335.16,1273.6a32,32,0,0,0,1.39,45.16l11.63,10.94a32.06,32.06,0,0,0,45.18-1.39l8.58-9.1c-18.38-19.89-36.83-39.41-55.06-58.07Z"/><path class="cls-12" d="M3410.88,1344.8a32,32,0,0,0,1.41,45.15l11.64,10.94a32,32,0,0,0,45.16-1.41l2.6-2.77c-17.46-19.89-35.38-39.93-53.43-59.74Z"/><path class="cls-70" d="M3142.21,1131.85l-16.08-13.59a6.36,6.36,0,0,0-8.93.74l-50.27,59.46a6.34,6.34,0,0,0,.75,8.92l16.08,13.6a6.34,6.34,0,0,0,8.92-.75l50.28-59.45A6.37,6.37,0,0,0,3142.21,1131.85Z"/><path class="cls-38" d="M3314.36,1361c-24.72-12.17-13.91,10.74-13.91,10.74s-24.38-4.81-45.09-.79-5,11.68,3.7,13.41-20.31,7.71-22.79,12.65,18.8,7.37,18.8,7.37-22,6.46-22.51,10.89,26.48,5.28,26.48,5.28-14.61,9.76-17.22,13.76,29.59,5.9,29.59,5.9,37.53,15.62,44.14,20,50.54,11.36,36.5-64.63C3352.05,1395.55,3339.08,1373.18,3314.36,1361Z"/><g class="cls-74"><path class="cls-40" d="M3358,1459.6c-8-1-16.18-1-24.21-2.15a94.45,94.45,0,0,1-36.51-13.07c-7.55-4.64-14.82-10.5-23.58-11.82-7.09-1.06-14.2,1-21.26,2.22s-14.93,1.36-20.69-2.9l-18.94,16.73c7.44-.33,15-2.54,22.2-.5,7.64,2.18,13.08,8.7,19.23,13.72,19.15,15.64,45.85,17.08,70.57,17.82,12.14.36,25.12.5,35.33-6.08,3.76-2.43,7.19-7.43,4.57-11.06C3363.2,1460.47,3360.45,1459.91,3358,1459.6Z"/><path class="cls-40" d="M3269.1,1411.74a2.26,2.26,0,0,0-1.59.11,82.66,82.66,0,0,1-28.34,3.63c-5.24-.24-11-1.27-14.32-5.32l2.59,9.29c.07,2.58,3.3,3.66,5.86,4a125.6,125.6,0,0,0,18.6.73c3.72-.13,7.52-.44,10.92-2s6.38-4.44,7-8.11C3270,1413.2,3269.9,1412.1,3269.1,1411.74Z"/><path class="cls-40" d="M3266.37,1397.56a8.13,8.13,0,0,0-3.72.28,75.4,75.4,0,0,1-20.15,1.71c-5-.26-10.18-1.07-14.47-3.7l-.33.38c-.82,2.2.32,4.75,2.12,6.27a17,17,0,0,0,6.39,2.86c5.37,1.53,10.86,3,16.43,2.78s11.33-2.11,15-6.34a3.35,3.35,0,0,0,.87-1.54A2.61,2.61,0,0,0,3266.37,1397.56Z"/><path class="cls-40" d="M3261,1377.59l-9.14-1.48c-5.06-.82-11-2.35-12.73-7.19l-5,4.57c-1.61.71-2.23,2.81-1.78,4.51a9.32,9.32,0,0,0,3,4.25,36.39,36.39,0,0,0,23.49,9.39c2.79.06,5.7-.24,8-1.75s3.92-4.49,3.06-7.14C3268.9,1379.29,3264.64,1378.17,3261,1377.59Z"/><path class="cls-40" d="M3302.91,1354.93c-2.15-4.38-4.29-9.56-8.95-11a8.92,8.92,0,0,0-8.9,2.58,11.79,11.79,0,0,0-2.9,9l11.42,12.43c10.28,4.4,20.66,8.83,31.63,11A57.41,57.41,0,0,1,3302.91,1354.93Z"/></g><path class="cls-60" d="M3580,1384.94c-67.31,3.94-198.42,10.53-220.38,3.65-29.77-9.32-10.77,71.89-38.24,73.22-11.2.54,158.9,71.89,228.12,45.26,38.54-14.82,56-51.75,63.83-81.58A32.44,32.44,0,0,0,3580,1384.94Z"/><g class="cls-75"><path class="cls-62" d="M3682.22,1327.11c-24.19-20.29-55.66-30-86.93-34.31a303.8,303.8,0,0,0-110.56,5.18c-30.56,7.17-60.06,19.11-91.17,23.37a189,189,0,0,1-78.89-6c-3.29-1-7.12-2-9.92,0-2.32,1.64-3,4.72-3.59,7.51a240.58,240.58,0,0,1-47.51,101.39l41.7,37c11.87,3.18,24.11,6,36.34,4.86s24.64-6.73,31.16-17.15c7.62-12.16,7.06-29.89,19.05-37.78,7.55-5,17.38-4,26.39-3.21a293.69,293.69,0,0,0,67-2c22.57-3.29,45.35-9.22,67.87-5.59s45.12,20.56,45.79,43.36c.48,16.35-10.21,31-22.23,42s-26,20.35-35.7,33.53c23.85,7.87,50.25,5.77,74-2.53s44.94-22.49,64.26-38.54c21.52-17.89,41.9-40,47-67.47C3722.06,1379.74,3706.41,1347.39,3682.22,1327.11Z"/></g><path class="cls-38" d="M3325.39,1283.42s21.34,1.78,19.87-3.55-28.71-16.86-19.87-16.86,25.78-4.44,6.25-12.42-44.37-8-44.37-8,15.08-20.35-11.54-13.25S3232,1255.8,3232,1255.8c-28.63,71.77,15.83,73.49,23.16,70.52s47.18-11,47.18-11,32,4.44,30.18,0-14.2-16.86-14.2-16.86,26.62,4.44,27,0S3325.39,1283.42,3325.39,1283.42Z"/><g class="cls-76"><path class="cls-40" d="M3336.75,1317.28a81.38,81.38,0,0,1-25.51-4.3c-7.1-2.4-14-5.82-21.51-6.26-11.19-.66-21.51,5.39-31.5,10.49s-21.69,9.47-32.15,5.44l-19.31,18.17c-.74,7,7.79,11.85,14.75,10.81s12.76-5.68,19-9c28.89-15.31,66-1.28,96.18-14,2.11-.89,4.26-2,5.57-3.85s1.48-4.74-.21-6.28C3340.67,1317.32,3338.61,1317.3,3336.75,1317.28Z"/><path class="cls-40" d="M3344.56,1296.45a46.16,46.16,0,0,1-27.82-2.12,31.31,31.31,0,0,0,10.44,9.71l1.33.06c4.68,2.44,10.19,2.48,15.47,2.46,2.82,0,5.8-.07,8.24-1.5s4-4.78,2.52-7.19C3352.82,1294.72,3348.15,1295.6,3344.56,1296.45Z"/><path class="cls-40" d="M3348.66,1276.41c-2.41-.11-4.72.86-7,1.58a36.47,36.47,0,0,1-21.08.24,14,14,0,0,0,6.22,6l7.68-1.69c2.66,2.76,6.87,3.21,10.7,3.25a13,13,0,0,0,5.59-.82,4.87,4.87,0,0,0,3-4.41C3353.63,1278.17,3351.07,1276.53,3348.66,1276.41Z"/><path class="cls-40" d="M3342.89,1253c-2.86,0-5.4,1.73-8,2.94a25.73,25.73,0,0,1-17.19,1.59,24.6,24.6,0,0,0,6.4,8.1l3.13-3.09c4.76,3.39,11.32,1.21,16.7-1.07,1.59-.67,3.34-1.51,3.94-3.13C3348.87,1255.69,3345.76,1253,3342.89,1253Z"/><path class="cls-40" d="M3302.13,1232.23q-3.32-2.31-6.64-4.61l-1.54-.15c-10.17,8.62-26,8.12-35.82,17.15-1.59,1.47-3.08,3.64-2.28,5.66.94,2.4,4.28,2.61,6.79,2,6.53-1.56,12.1-5.72,18.24-8.46s12.77-4,19.39-5.14c1.86-.31,4.17-1,4.35-2.92C3304.76,1234.26,3303.37,1233.1,3302.13,1232.23Z"/></g><path class="cls-60" d="M3234.48,1246.15c-305.56,63.75-211.91,165.75-182,181.69,44.85,23.91,98.51-20.72,195.36-98.55C3211.11,1324.77,3234.48,1246.15,3234.48,1246.15Z"/><g class="cls-77"><path class="cls-62" d="M3280.24,1223.35l-44.95,9c-21.05,3.31-32.1,27.24-34.33,48.44s.39,43.75-9.12,62.83c-4.92,9.87-12.76,18-21,25.33a234.59,234.59,0,0,1-77.73,46c-15.3,5.42-31.85,9.25-47.71,5.79s-30.67-15.93-32.38-32.08c1.91,25.24,8.36,51,24.22,70.73,27.45,34.13,78.07,42.43,120.18,30.37s77.29-40.72,109.3-70.62c12.41-11.58,24.87-23.93,31.36-39.61C3318.51,1330.29,3272.74,1276.12,3280.24,1223.35Z"/></g><g class="cls-78"><path class="cls-79" d="M1630.9,360.05V360l-1.75,0-1.74,0v.05C1557.68,362,1425,420.63,1447.8,585.32,1469,738.16,1604,890.44,1627.41,915.88v3.74s.61-.64,1.74-1.86l1.75,1.86v-3.74c23.42-25.44,158.42-177.72,179.61-330.56C1833.34,420.63,1700.63,362,1630.9,360.05Zm-1.33,248.86a73.37,73.37,0,1,1,73.37-73.37A73.37,73.37,0,0,1,1629.57,608.91Z"/><path class="cls-79" d="M2999.6,577.14v0h-1.31v0c-26.26.72-76.23,22.81-67.63,84.82,8,57.55,58.81,114.88,67.63,124.46v1.41l.65-.7.66.7v-1.41c8.82-9.58,59.65-66.91,67.62-124.46C3075.82,600,3025.85,577.86,2999.6,577.14Zm-.5,93.7a27.63,27.63,0,1,1,27.62-27.62A27.63,27.63,0,0,1,2999.1,670.84Z"/><path class="cls-79" d="M1250.67,1463.72v0h-1.81v0c-36.21,1-105.11,31.45-93.26,117,11,79.36,81.1,158.43,93.26,171.64v1.94l.91-1,.9,1v-1.94c12.16-13.21,82.26-92.28,93.26-171.64C1355.79,1495.17,1286.88,1464.71,1250.67,1463.72Zm-.69,129.22a38.1,38.1,0,1,1,38.1-38.1A38.09,38.09,0,0,1,1250,1592.94Z"/></g><path class="cls-22" d="M1585.63,368V368l-1.74,0-1.74,0V368c-69.74,1.9-202.44,60.58-179.61,225.27,21.18,152.84,156.19,305.12,179.61,330.56v3.73s.61-.63,1.74-1.85l1.74,1.85v-3.73c23.43-25.44,158.43-177.72,179.61-330.56C1788.07,428.62,1655.37,369.94,1585.63,368Zm-1.32,248.86a73.37,73.37,0,1,1,73.37-73.37A73.37,73.37,0,0,1,1584.31,616.9Z"/><path class="cls-22" d="M2954.34,585.13v0H2953v0c-26.25.72-76.22,22.81-67.62,84.82,8,57.55,58.8,114.88,67.62,124.46v1.41l.66-.7.66.7v-1.41C2963.15,784.83,3014,727.5,3022,670,3030.56,607.94,2980.59,585.85,2954.34,585.13Zm-.5,93.7a27.63,27.63,0,1,1,27.62-27.63A27.63,27.63,0,0,1,2953.84,678.83Z"/><path class="cls-22" d="M1205.41,1471.7v0h-1.81v0c-36.21,1-105.12,31.46-93.26,117,11,79.37,81.1,158.44,93.26,171.65v1.94s.32-.33.9-1c.59.64.91,1,.91,1v-1.94c12.16-13.21,82.26-92.28,93.26-171.65C1310.52,1503.16,1241.62,1472.69,1205.41,1471.7Zm-.69,129.22a38.1,38.1,0,1,1,38.1-38.09A38.09,38.09,0,0,1,1204.72,1600.92Z"/></g></svg>